<?xml version="1.0" encoding="utf-8" standalone="no"?>
<!DOCTYPE svg PUBLIC "-//W3C//DTD SVG 1.1//EN"
  "http://www.w3.org/Graphics/SVG/1.1/DTD/svg11.dtd">
<svg xmlns:xlink="http://www.w3.org/1999/xlink" width="576pt" height="288pt" viewBox="0 0 576 288" xmlns="http://www.w3.org/2000/svg" version="1.1">
 <metadata>
  <rdf:RDF xmlns:dc="http://purl.org/dc/elements/1.1/" xmlns:cc="http://creativecommons.org/ns#" xmlns:rdf="http://www.w3.org/1999/02/22-rdf-syntax-ns#">
   <cc:Work>
    <dc:type rdf:resource="http://purl.org/dc/dcmitype/StillImage"/>
    <dc:date>2023-11-25T18:39:00.669955</dc:date>
    <dc:format>image/svg+xml</dc:format>
    <dc:creator>
     <cc:Agent>
      <dc:title>Matplotlib v3.8.1, https://matplotlib.org/</dc:title>
     </cc:Agent>
    </dc:creator>
   </cc:Work>
  </rdf:RDF>
 </metadata>
 <defs>
  <style type="text/css">*{stroke-linejoin: round; stroke-linecap: butt}</style>
 </defs>
 <g id="figure_1">
  <g id="patch_1">
   <path d="M 0 288 
L 576 288 
L 576 0 
L 0 0 
z
" style="fill: #ffffff; stroke: #ff0000; stroke-linejoin: miter"/>
  </g>
  <g id="axes_1">
   <g id="patch_2">
    <path d="M 57.6 259.2 
L 576 259.2 
L 576 0 
L 57.6 0 
z
" style="fill: #ffffff"/>
   </g>
   <g id="matplotlib.axis_1">
    <g id="xtick_1">
     <g id="line2d_1">
      <defs>
       <path id="mb11a8a9625" d="M 0 0 
L 0 3.5 
" style="stroke: #000000; stroke-width: 0.8"/>
      </defs>
      <g>
       <use xlink:href="#mb11a8a9625" x="83.531841" y="259.2" style="stroke: #000000; stroke-width: 0.8"/>
      </g>
     </g>
     <g id="text_1">
      <!-- 2024-01 -->
      <g transform="translate(62.640435 273.798437) scale(0.1 -0.1)">
       <defs>
        <path id="DejaVuSans-32" d="M 1228 531 
L 3431 531 
L 3431 0 
L 469 0 
L 469 531 
Q 828 903 1448 1529 
Q 2069 2156 2228 2338 
Q 2531 2678 2651 2914 
Q 2772 3150 2772 3378 
Q 2772 3750 2511 3984 
Q 2250 4219 1831 4219 
Q 1534 4219 1204 4116 
Q 875 4013 500 3803 
L 500 4441 
Q 881 4594 1212 4672 
Q 1544 4750 1819 4750 
Q 2544 4750 2975 4387 
Q 3406 4025 3406 3419 
Q 3406 3131 3298 2873 
Q 3191 2616 2906 2266 
Q 2828 2175 2409 1742 
Q 1991 1309 1228 531 
z
" transform="scale(0.015625)"/>
        <path id="DejaVuSans-30" d="M 2034 4250 
Q 1547 4250 1301 3770 
Q 1056 3291 1056 2328 
Q 1056 1369 1301 889 
Q 1547 409 2034 409 
Q 2525 409 2770 889 
Q 3016 1369 3016 2328 
Q 3016 3291 2770 3770 
Q 2525 4250 2034 4250 
z
M 2034 4750 
Q 2819 4750 3233 4129 
Q 3647 3509 3647 2328 
Q 3647 1150 3233 529 
Q 2819 -91 2034 -91 
Q 1250 -91 836 529 
Q 422 1150 422 2328 
Q 422 3509 836 4129 
Q 1250 4750 2034 4750 
z
" transform="scale(0.015625)"/>
        <path id="DejaVuSans-34" d="M 2419 4116 
L 825 1625 
L 2419 1625 
L 2419 4116 
z
M 2253 4666 
L 3047 4666 
L 3047 1625 
L 3713 1625 
L 3713 1100 
L 3047 1100 
L 3047 0 
L 2419 0 
L 2419 1100 
L 313 1100 
L 313 1709 
L 2253 4666 
z
" transform="scale(0.015625)"/>
        <path id="DejaVuSans-2d" d="M 313 2009 
L 1997 2009 
L 1997 1497 
L 313 1497 
L 313 2009 
z
" transform="scale(0.015625)"/>
        <path id="DejaVuSans-31" d="M 794 531 
L 1825 531 
L 1825 4091 
L 703 3866 
L 703 4441 
L 1819 4666 
L 2450 4666 
L 2450 531 
L 3481 531 
L 3481 0 
L 794 0 
L 794 531 
z
" transform="scale(0.015625)"/>
       </defs>
       <use xlink:href="#DejaVuSans-32"/>
       <use xlink:href="#DejaVuSans-30" x="63.623047"/>
       <use xlink:href="#DejaVuSans-32" x="127.246094"/>
       <use xlink:href="#DejaVuSans-34" x="190.869141"/>
       <use xlink:href="#DejaVuSans-2d" x="254.492188"/>
       <use xlink:href="#DejaVuSans-30" x="290.576172"/>
       <use xlink:href="#DejaVuSans-31" x="354.199219"/>
      </g>
     </g>
    </g>
    <g id="xtick_2">
     <g id="line2d_2">
      <g>
       <use xlink:href="#mb11a8a9625" x="156.946185" y="259.2" style="stroke: #000000; stroke-width: 0.8"/>
      </g>
     </g>
     <g id="text_2">
      <!-- 2024-02 -->
      <g transform="translate(136.054779 273.798437) scale(0.1 -0.1)">
       <use xlink:href="#DejaVuSans-32"/>
       <use xlink:href="#DejaVuSans-30" x="63.623047"/>
       <use xlink:href="#DejaVuSans-32" x="127.246094"/>
       <use xlink:href="#DejaVuSans-34" x="190.869141"/>
       <use xlink:href="#DejaVuSans-2d" x="254.492188"/>
       <use xlink:href="#DejaVuSans-30" x="290.576172"/>
       <use xlink:href="#DejaVuSans-32" x="354.199219"/>
      </g>
     </g>
    </g>
    <g id="xtick_3">
     <g id="line2d_3">
      <g>
       <use xlink:href="#mb11a8a9625" x="225.624121" y="259.2" style="stroke: #000000; stroke-width: 0.8"/>
      </g>
     </g>
     <g id="text_3">
      <!-- 2024-03 -->
      <g transform="translate(204.732714 273.798437) scale(0.1 -0.1)">
       <defs>
        <path id="DejaVuSans-33" d="M 2597 2516 
Q 3050 2419 3304 2112 
Q 3559 1806 3559 1356 
Q 3559 666 3084 287 
Q 2609 -91 1734 -91 
Q 1441 -91 1130 -33 
Q 819 25 488 141 
L 488 750 
Q 750 597 1062 519 
Q 1375 441 1716 441 
Q 2309 441 2620 675 
Q 2931 909 2931 1356 
Q 2931 1769 2642 2001 
Q 2353 2234 1838 2234 
L 1294 2234 
L 1294 2753 
L 1863 2753 
Q 2328 2753 2575 2939 
Q 2822 3125 2822 3475 
Q 2822 3834 2567 4026 
Q 2313 4219 1838 4219 
Q 1578 4219 1281 4162 
Q 984 4106 628 3988 
L 628 4550 
Q 988 4650 1302 4700 
Q 1616 4750 1894 4750 
Q 2613 4750 3031 4423 
Q 3450 4097 3450 3541 
Q 3450 3153 3228 2886 
Q 3006 2619 2597 2516 
z
" transform="scale(0.015625)"/>
       </defs>
       <use xlink:href="#DejaVuSans-32"/>
       <use xlink:href="#DejaVuSans-30" x="63.623047"/>
       <use xlink:href="#DejaVuSans-32" x="127.246094"/>
       <use xlink:href="#DejaVuSans-34" x="190.869141"/>
       <use xlink:href="#DejaVuSans-2d" x="254.492188"/>
       <use xlink:href="#DejaVuSans-30" x="290.576172"/>
       <use xlink:href="#DejaVuSans-33" x="354.199219"/>
      </g>
     </g>
    </g>
    <g id="xtick_4">
     <g id="line2d_4">
      <g>
       <use xlink:href="#mb11a8a9625" x="299.038465" y="259.2" style="stroke: #000000; stroke-width: 0.8"/>
      </g>
     </g>
     <g id="text_4">
      <!-- 2024-04 -->
      <g transform="translate(278.147059 273.798437) scale(0.1 -0.1)">
       <use xlink:href="#DejaVuSans-32"/>
       <use xlink:href="#DejaVuSans-30" x="63.623047"/>
       <use xlink:href="#DejaVuSans-32" x="127.246094"/>
       <use xlink:href="#DejaVuSans-34" x="190.869141"/>
       <use xlink:href="#DejaVuSans-2d" x="254.492188"/>
       <use xlink:href="#DejaVuSans-30" x="290.576172"/>
       <use xlink:href="#DejaVuSans-34" x="354.199219"/>
      </g>
     </g>
    </g>
    <g id="xtick_5">
     <g id="line2d_5">
      <g>
       <use xlink:href="#mb11a8a9625" x="370.084605" y="259.2" style="stroke: #000000; stroke-width: 0.8"/>
      </g>
     </g>
     <g id="text_5">
      <!-- 2024-05 -->
      <g transform="translate(349.193199 273.798437) scale(0.1 -0.1)">
       <defs>
        <path id="DejaVuSans-35" d="M 691 4666 
L 3169 4666 
L 3169 4134 
L 1269 4134 
L 1269 2991 
Q 1406 3038 1543 3061 
Q 1681 3084 1819 3084 
Q 2600 3084 3056 2656 
Q 3513 2228 3513 1497 
Q 3513 744 3044 326 
Q 2575 -91 1722 -91 
Q 1428 -91 1123 -41 
Q 819 9 494 109 
L 494 744 
Q 775 591 1075 516 
Q 1375 441 1709 441 
Q 2250 441 2565 725 
Q 2881 1009 2881 1497 
Q 2881 1984 2565 2268 
Q 2250 2553 1709 2553 
Q 1456 2553 1204 2497 
Q 953 2441 691 2322 
L 691 4666 
z
" transform="scale(0.015625)"/>
       </defs>
       <use xlink:href="#DejaVuSans-32"/>
       <use xlink:href="#DejaVuSans-30" x="63.623047"/>
       <use xlink:href="#DejaVuSans-32" x="127.246094"/>
       <use xlink:href="#DejaVuSans-34" x="190.869141"/>
       <use xlink:href="#DejaVuSans-2d" x="254.492188"/>
       <use xlink:href="#DejaVuSans-30" x="290.576172"/>
       <use xlink:href="#DejaVuSans-35" x="354.199219"/>
      </g>
     </g>
    </g>
    <g id="xtick_6">
     <g id="line2d_6">
      <g>
       <use xlink:href="#mb11a8a9625" x="443.498949" y="259.2" style="stroke: #000000; stroke-width: 0.8"/>
      </g>
     </g>
     <g id="text_6">
      <!-- 2024-06 -->
      <g transform="translate(422.607543 273.798437) scale(0.1 -0.1)">
       <defs>
        <path id="DejaVuSans-36" d="M 2113 2584 
Q 1688 2584 1439 2293 
Q 1191 2003 1191 1497 
Q 1191 994 1439 701 
Q 1688 409 2113 409 
Q 2538 409 2786 701 
Q 3034 994 3034 1497 
Q 3034 2003 2786 2293 
Q 2538 2584 2113 2584 
z
M 3366 4563 
L 3366 3988 
Q 3128 4100 2886 4159 
Q 2644 4219 2406 4219 
Q 1781 4219 1451 3797 
Q 1122 3375 1075 2522 
Q 1259 2794 1537 2939 
Q 1816 3084 2150 3084 
Q 2853 3084 3261 2657 
Q 3669 2231 3669 1497 
Q 3669 778 3244 343 
Q 2819 -91 2113 -91 
Q 1303 -91 875 529 
Q 447 1150 447 2328 
Q 447 3434 972 4092 
Q 1497 4750 2381 4750 
Q 2619 4750 2861 4703 
Q 3103 4656 3366 4563 
z
" transform="scale(0.015625)"/>
       </defs>
       <use xlink:href="#DejaVuSans-32"/>
       <use xlink:href="#DejaVuSans-30" x="63.623047"/>
       <use xlink:href="#DejaVuSans-32" x="127.246094"/>
       <use xlink:href="#DejaVuSans-34" x="190.869141"/>
       <use xlink:href="#DejaVuSans-2d" x="254.492188"/>
       <use xlink:href="#DejaVuSans-30" x="290.576172"/>
       <use xlink:href="#DejaVuSans-36" x="354.199219"/>
      </g>
     </g>
    </g>
    <g id="xtick_7">
     <g id="line2d_7">
      <g>
       <use xlink:href="#mb11a8a9625" x="514.545089" y="259.2" style="stroke: #000000; stroke-width: 0.8"/>
      </g>
     </g>
     <g id="text_7">
      <!-- 2024-07 -->
      <g transform="translate(493.653683 273.798437) scale(0.1 -0.1)">
       <defs>
        <path id="DejaVuSans-37" d="M 525 4666 
L 3525 4666 
L 3525 4397 
L 1831 0 
L 1172 0 
L 2766 4134 
L 525 4134 
L 525 4666 
z
" transform="scale(0.015625)"/>
       </defs>
       <use xlink:href="#DejaVuSans-32"/>
       <use xlink:href="#DejaVuSans-30" x="63.623047"/>
       <use xlink:href="#DejaVuSans-32" x="127.246094"/>
       <use xlink:href="#DejaVuSans-34" x="190.869141"/>
       <use xlink:href="#DejaVuSans-2d" x="254.492188"/>
       <use xlink:href="#DejaVuSans-30" x="290.576172"/>
       <use xlink:href="#DejaVuSans-37" x="354.199219"/>
      </g>
     </g>
    </g>
    <g id="text_8">
     <!-- Date -->
     <g transform="translate(304.849219 287.476562) scale(0.1 -0.1)">
      <defs>
       <path id="DejaVuSans-44" d="M 1259 4147 
L 1259 519 
L 2022 519 
Q 2988 519 3436 956 
Q 3884 1394 3884 2338 
Q 3884 3275 3436 3711 
Q 2988 4147 2022 4147 
L 1259 4147 
z
M 628 4666 
L 1925 4666 
Q 3281 4666 3915 4102 
Q 4550 3538 4550 2338 
Q 4550 1131 3912 565 
Q 3275 0 1925 0 
L 628 0 
L 628 4666 
z
" transform="scale(0.015625)"/>
       <path id="DejaVuSans-61" d="M 2194 1759 
Q 1497 1759 1228 1600 
Q 959 1441 959 1056 
Q 959 750 1161 570 
Q 1363 391 1709 391 
Q 2188 391 2477 730 
Q 2766 1069 2766 1631 
L 2766 1759 
L 2194 1759 
z
M 3341 1997 
L 3341 0 
L 2766 0 
L 2766 531 
Q 2569 213 2275 61 
Q 1981 -91 1556 -91 
Q 1019 -91 701 211 
Q 384 513 384 1019 
Q 384 1609 779 1909 
Q 1175 2209 1959 2209 
L 2766 2209 
L 2766 2266 
Q 2766 2663 2505 2880 
Q 2244 3097 1772 3097 
Q 1472 3097 1187 3025 
Q 903 2953 641 2809 
L 641 3341 
Q 956 3463 1253 3523 
Q 1550 3584 1831 3584 
Q 2591 3584 2966 3190 
Q 3341 2797 3341 1997 
z
" transform="scale(0.015625)"/>
       <path id="DejaVuSans-74" d="M 1172 4494 
L 1172 3500 
L 2356 3500 
L 2356 3053 
L 1172 3053 
L 1172 1153 
Q 1172 725 1289 603 
Q 1406 481 1766 481 
L 2356 481 
L 2356 0 
L 1766 0 
Q 1100 0 847 248 
Q 594 497 594 1153 
L 594 3053 
L 172 3053 
L 172 3500 
L 594 3500 
L 594 4494 
L 1172 4494 
z
" transform="scale(0.015625)"/>
       <path id="DejaVuSans-65" d="M 3597 1894 
L 3597 1613 
L 953 1613 
Q 991 1019 1311 708 
Q 1631 397 2203 397 
Q 2534 397 2845 478 
Q 3156 559 3463 722 
L 3463 178 
Q 3153 47 2828 -22 
Q 2503 -91 2169 -91 
Q 1331 -91 842 396 
Q 353 884 353 1716 
Q 353 2575 817 3079 
Q 1281 3584 2069 3584 
Q 2775 3584 3186 3129 
Q 3597 2675 3597 1894 
z
M 3022 2063 
Q 3016 2534 2758 2815 
Q 2500 3097 2075 3097 
Q 1594 3097 1305 2825 
Q 1016 2553 972 2059 
L 3022 2063 
z
" transform="scale(0.015625)"/>
      </defs>
      <use xlink:href="#DejaVuSans-44"/>
      <use xlink:href="#DejaVuSans-61" x="77.001953"/>
      <use xlink:href="#DejaVuSans-74" x="138.28125"/>
      <use xlink:href="#DejaVuSans-65" x="177.490234"/>
     </g>
    </g>
   </g>
   <g id="matplotlib.axis_2">
    <g id="ytick_1">
     <g id="line2d_8">
      <defs>
       <path id="mcab138a9ac" d="M 0 0 
L -3.5 0 
" style="stroke: #000000; stroke-width: 0.8"/>
      </defs>
      <g>
       <use xlink:href="#mcab138a9ac" x="57.6" y="213.639472" style="stroke: #000000; stroke-width: 0.8"/>
      </g>
     </g>
     <g id="text_9">
      <!-- 0 -->
      <g transform="translate(44.2375 217.438691) scale(0.1 -0.1)">
       <use xlink:href="#DejaVuSans-30"/>
      </g>
     </g>
    </g>
    <g id="ytick_2">
     <g id="line2d_9">
      <g>
       <use xlink:href="#mcab138a9ac" x="57.6" y="160.299416" style="stroke: #000000; stroke-width: 0.8"/>
      </g>
     </g>
     <g id="text_10">
      <!-- 5 -->
      <g transform="translate(44.2375 164.098634) scale(0.1 -0.1)">
       <use xlink:href="#DejaVuSans-35"/>
      </g>
     </g>
    </g>
    <g id="ytick_3">
     <g id="line2d_10">
      <g>
       <use xlink:href="#mcab138a9ac" x="57.6" y="106.959359" style="stroke: #000000; stroke-width: 0.8"/>
      </g>
     </g>
     <g id="text_11">
      <!-- 10 -->
      <g transform="translate(37.875 110.758578) scale(0.1 -0.1)">
       <use xlink:href="#DejaVuSans-31"/>
       <use xlink:href="#DejaVuSans-30" x="63.623047"/>
      </g>
     </g>
    </g>
    <g id="ytick_4">
     <g id="line2d_11">
      <g>
       <use xlink:href="#mcab138a9ac" x="57.6" y="53.619303" style="stroke: #000000; stroke-width: 0.8"/>
      </g>
     </g>
     <g id="text_12">
      <!-- 15 -->
      <g transform="translate(37.875 57.418522) scale(0.1 -0.1)">
       <use xlink:href="#DejaVuSans-31"/>
       <use xlink:href="#DejaVuSans-35" x="63.623047"/>
      </g>
     </g>
    </g>
    <g id="ytick_5">
     <g id="line2d_12">
      <g>
       <use xlink:href="#mcab138a9ac" x="57.6" y="0.279247" style="stroke: #000000; stroke-width: 0.8"/>
      </g>
     </g>
     <g id="text_13">
      <!-- 20 -->
      <g transform="translate(37.875 4.078466) scale(0.1 -0.1)">
       <use xlink:href="#DejaVuSans-32"/>
       <use xlink:href="#DejaVuSans-30" x="63.623047"/>
      </g>
     </g>
    </g>
    <g id="text_14">
     <!-- Cum. sum -->
     <g transform="translate(31.795312 154.952344) rotate(-90) scale(0.1 -0.1)">
      <defs>
       <path id="DejaVuSans-43" d="M 4122 4306 
L 4122 3641 
Q 3803 3938 3442 4084 
Q 3081 4231 2675 4231 
Q 1875 4231 1450 3742 
Q 1025 3253 1025 2328 
Q 1025 1406 1450 917 
Q 1875 428 2675 428 
Q 3081 428 3442 575 
Q 3803 722 4122 1019 
L 4122 359 
Q 3791 134 3420 21 
Q 3050 -91 2638 -91 
Q 1578 -91 968 557 
Q 359 1206 359 2328 
Q 359 3453 968 4101 
Q 1578 4750 2638 4750 
Q 3056 4750 3426 4639 
Q 3797 4528 4122 4306 
z
" transform="scale(0.015625)"/>
       <path id="DejaVuSans-75" d="M 544 1381 
L 544 3500 
L 1119 3500 
L 1119 1403 
Q 1119 906 1312 657 
Q 1506 409 1894 409 
Q 2359 409 2629 706 
Q 2900 1003 2900 1516 
L 2900 3500 
L 3475 3500 
L 3475 0 
L 2900 0 
L 2900 538 
Q 2691 219 2414 64 
Q 2138 -91 1772 -91 
Q 1169 -91 856 284 
Q 544 659 544 1381 
z
M 1991 3584 
L 1991 3584 
z
" transform="scale(0.015625)"/>
       <path id="DejaVuSans-6d" d="M 3328 2828 
Q 3544 3216 3844 3400 
Q 4144 3584 4550 3584 
Q 5097 3584 5394 3201 
Q 5691 2819 5691 2113 
L 5691 0 
L 5113 0 
L 5113 2094 
Q 5113 2597 4934 2840 
Q 4756 3084 4391 3084 
Q 3944 3084 3684 2787 
Q 3425 2491 3425 1978 
L 3425 0 
L 2847 0 
L 2847 2094 
Q 2847 2600 2669 2842 
Q 2491 3084 2119 3084 
Q 1678 3084 1418 2786 
Q 1159 2488 1159 1978 
L 1159 0 
L 581 0 
L 581 3500 
L 1159 3500 
L 1159 2956 
Q 1356 3278 1631 3431 
Q 1906 3584 2284 3584 
Q 2666 3584 2933 3390 
Q 3200 3197 3328 2828 
z
" transform="scale(0.015625)"/>
       <path id="DejaVuSans-2e" d="M 684 794 
L 1344 794 
L 1344 0 
L 684 0 
L 684 794 
z
" transform="scale(0.015625)"/>
       <path id="DejaVuSans-20" transform="scale(0.015625)"/>
       <path id="DejaVuSans-73" d="M 2834 3397 
L 2834 2853 
Q 2591 2978 2328 3040 
Q 2066 3103 1784 3103 
Q 1356 3103 1142 2972 
Q 928 2841 928 2578 
Q 928 2378 1081 2264 
Q 1234 2150 1697 2047 
L 1894 2003 
Q 2506 1872 2764 1633 
Q 3022 1394 3022 966 
Q 3022 478 2636 193 
Q 2250 -91 1575 -91 
Q 1294 -91 989 -36 
Q 684 19 347 128 
L 347 722 
Q 666 556 975 473 
Q 1284 391 1588 391 
Q 1994 391 2212 530 
Q 2431 669 2431 922 
Q 2431 1156 2273 1281 
Q 2116 1406 1581 1522 
L 1381 1569 
Q 847 1681 609 1914 
Q 372 2147 372 2553 
Q 372 3047 722 3315 
Q 1072 3584 1716 3584 
Q 2034 3584 2315 3537 
Q 2597 3491 2834 3397 
z
" transform="scale(0.015625)"/>
      </defs>
      <use xlink:href="#DejaVuSans-43"/>
      <use xlink:href="#DejaVuSans-75" x="69.824219"/>
      <use xlink:href="#DejaVuSans-6d" x="133.203125"/>
      <use xlink:href="#DejaVuSans-2e" x="230.615234"/>
      <use xlink:href="#DejaVuSans-20" x="262.402344"/>
      <use xlink:href="#DejaVuSans-73" x="294.189453"/>
      <use xlink:href="#DejaVuSans-75" x="346.289062"/>
      <use xlink:href="#DejaVuSans-6d" x="409.667969"/>
     </g>
    </g>
   </g>
   <g id="line2d_13">
    <path d="M 81.163636 205.861746 
L 83.531841 185.349661 
L 85.900046 203.379542 
L 88.26825 214.230284 
L 90.636455 210.015319 
L 95.372864 203.838287 
L 97.741069 207.245883 
L 100.109274 219.347317 
L 102.477478 206.827917 
L 104.845683 219.609662 
L 107.213888 225.953027 
L 109.582092 228.249259 
L 111.950297 222.830373 
L 114.318502 228.284179 
L 116.686706 247.418182 
L 119.054911 229.00937 
L 121.423116 227.478369 
L 123.79132 221.423757 
L 126.159525 217.885391 
L 128.52773 228.603617 
L 130.895934 225.235571 
L 133.264139 211.152148 
L 135.632344 200.287003 
L 138.000548 202.266705 
L 140.368753 219.286073 
L 142.736958 221.122077 
L 145.105162 212.683009 
L 147.473367 207.034921 
L 149.841571 210.7216 
L 152.209776 201.120487 
L 154.577981 203.997214 
L 156.946185 180.567677 
L 159.31439 178.464366 
L 161.682595 162.68127 
L 164.050799 159.552854 
L 166.419004 165.582688 
L 168.787209 170.690664 
L 171.155413 161.227818 
L 173.523618 165.88355 
L 175.891823 166.575979 
L 178.260027 165.756747 
L 180.628232 160.813087 
L 182.996437 165.105664 
L 185.364641 181.323013 
L 187.732846 186.147547 
L 190.101051 180.323871 
L 192.469255 176.701173 
L 194.83746 168.057457 
L 197.205665 152.678103 
L 199.573869 150.653297 
L 201.942074 162.594076 
L 204.310279 172.371048 
L 206.678483 177.74484 
L 209.046688 169.508634 
L 211.414893 170.320905 
L 213.783097 187.263529 
L 216.151302 173.748981 
L 218.519507 169.879208 
L 220.887711 171.252168 
L 223.255916 180.23561 
L 225.624121 175.424184 
L 227.992325 190.518817 
L 230.36053 195.096321 
L 232.728735 212.713123 
L 235.096939 206.247107 
L 237.465144 213.680728 
L 239.833349 202.440733 
L 242.201553 185.031212 
L 244.569758 178.639165 
L 246.937963 182.67235 
L 249.306167 173.331317 
L 251.674372 177.646941 
L 254.042577 181.167816 
L 256.410781 193.612407 
L 258.778986 185.887706 
L 261.14719 195.49596 
L 263.515395 201.268963 
L 265.8836 200.855763 
L 268.251804 206.569643 
L 270.620009 207.156459 
L 272.988214 200.923694 
L 275.356418 200.572454 
L 277.724623 202.149233 
L 280.092828 201.501615 
L 282.461032 206.968065 
L 284.829237 206.013288 
L 287.197442 205.78849 
L 289.565646 188.312379 
L 291.933851 185.299506 
L 294.302056 177.357883 
L 296.67026 167.037834 
L 299.038465 166.724864 
L 301.40667 153.878631 
L 303.774874 153.385415 
L 306.143079 169.214112 
L 308.511284 165.654239 
L 310.879488 160.84072 
L 313.247693 173.097696 
L 315.615898 180.373682 
L 317.984102 182.338693 
L 320.352307 186.804673 
L 322.720512 187.644609 
L 325.088716 180.817048 
L 327.456921 175.363261 
L 329.825126 148.008221 
L 332.19333 123.81057 
L 334.561535 107.613177 
L 336.92974 110.51398 
L 339.297944 126.07636 
L 341.666149 116.076107 
L 344.034354 109.804501 
L 346.402558 102.700409 
L 348.770763 104.320402 
L 351.138968 100.503382 
L 353.507172 99.427266 
L 355.875377 102.656569 
L 358.243582 91.217811 
L 360.611786 96.659171 
L 362.979991 64.897824 
L 365.348196 51.631007 
L 367.7164 36.404468 
L 370.084605 48.881469 
L 372.45281 52.254136 
L 374.821014 65.539896 
L 377.189219 64.418393 
L 379.557423 70.953868 
L 381.925628 46.831314 
L 384.293833 45.779345 
L 386.662037 29.28134 
L 389.030242 13.75836 
L 391.398447 11.781818 
L 393.766651 27.336443 
L 396.134856 41.634243 
L 398.503061 36.585736 
L 400.871265 32.225915 
L 403.23947 48.006064 
L 405.607675 50.509201 
L 407.975879 46.846149 
L 410.344084 52.648307 
L 412.712289 52.937306 
L 415.080493 67.570726 
L 417.448698 65.423355 
L 419.816903 81.217397 
L 422.185107 76.331957 
L 424.553312 85.293016 
L 426.921517 69.438774 
L 429.289721 80.135205 
L 431.657926 83.342753 
L 434.026131 83.006284 
L 436.394335 69.416963 
L 438.76254 70.840654 
L 441.130745 59.812301 
L 443.498949 47.053609 
L 445.867154 58.217014 
L 448.235359 72.243791 
L 450.603563 71.61499 
L 452.971768 78.922191 
L 455.339973 86.59064 
L 457.708177 67.653722 
L 460.076382 58.303283 
L 462.444587 67.071427 
L 464.812791 58.245872 
L 467.180996 38.355872 
L 469.549201 34.51019 
L 471.917405 63.852292 
L 474.28561 63.276766 
L 476.653815 79.655202 
L 479.022019 88.008332 
L 481.390224 100.660274 
L 483.758429 76.921865 
L 486.126633 80.370612 
L 488.494838 76.018617 
L 490.863042 82.367815 
L 493.231247 95.607965 
L 495.599452 100.318311 
L 497.967656 95.152443 
L 500.335861 100.779459 
L 502.704066 80.53682 
L 505.07227 73.026764 
L 507.440475 72.729843 
L 509.80868 82.267316 
L 512.176884 76.63241 
L 514.545089 94.254631 
L 516.913294 76.692724 
L 519.281498 84.152311 
L 521.649703 71.014881 
L 524.017908 80.115861 
L 526.386112 80.246781 
L 528.754317 75.451922 
L 531.122522 85.062251 
L 533.490726 88.714583 
L 535.858931 104.888283 
L 538.227136 77.564259 
L 540.59534 60.166204 
L 542.963545 64.307042 
L 545.33175 69.965546 
L 547.699954 79.950123 
L 550.068159 85.702835 
L 552.436364 91.018138 
L 552.436364 91.018138 
" clip-path="url(#p8ba7d2570e)" style="fill: none; stroke: #000000; stroke-width: 2; stroke-linecap: square"/>
   </g>
   <g id="patch_3">
    <path d="M 57.6 259.2 
L 57.6 0 
" style="fill: none; stroke: #000000; stroke-width: 0.8; stroke-linejoin: miter; stroke-linecap: square"/>
   </g>
   <g id="patch_4">
    <path d="M 576 259.2 
L 576 0 
" style="fill: none; stroke: #000000; stroke-width: 0.8; stroke-linejoin: miter; stroke-linecap: square"/>
   </g>
   <g id="patch_5">
    <path d="M 57.6 259.2 
L 576 259.2 
" style="fill: none; stroke: #000000; stroke-width: 0.8; stroke-linejoin: miter; stroke-linecap: square"/>
   </g>
   <g id="patch_6">
    <path d="M 57.6 0 
L 576 0 
" style="fill: none; stroke: #000000; stroke-width: 0.8; stroke-linejoin: miter; stroke-linecap: square"/>
   </g>
   <g id="text_15">
    <!-- Main Axes with Insert Child Axes -->
    <g transform="translate(219.299063 -6) scale(0.12 -0.12)">
     <defs>
      <path id="DejaVuSans-4d" d="M 628 4666 
L 1569 4666 
L 2759 1491 
L 3956 4666 
L 4897 4666 
L 4897 0 
L 4281 0 
L 4281 4097 
L 3078 897 
L 2444 897 
L 1241 4097 
L 1241 0 
L 628 0 
L 628 4666 
z
" transform="scale(0.015625)"/>
      <path id="DejaVuSans-69" d="M 603 3500 
L 1178 3500 
L 1178 0 
L 603 0 
L 603 3500 
z
M 603 4863 
L 1178 4863 
L 1178 4134 
L 603 4134 
L 603 4863 
z
" transform="scale(0.015625)"/>
      <path id="DejaVuSans-6e" d="M 3513 2113 
L 3513 0 
L 2938 0 
L 2938 2094 
Q 2938 2591 2744 2837 
Q 2550 3084 2163 3084 
Q 1697 3084 1428 2787 
Q 1159 2491 1159 1978 
L 1159 0 
L 581 0 
L 581 3500 
L 1159 3500 
L 1159 2956 
Q 1366 3272 1645 3428 
Q 1925 3584 2291 3584 
Q 2894 3584 3203 3211 
Q 3513 2838 3513 2113 
z
" transform="scale(0.015625)"/>
      <path id="DejaVuSans-41" d="M 2188 4044 
L 1331 1722 
L 3047 1722 
L 2188 4044 
z
M 1831 4666 
L 2547 4666 
L 4325 0 
L 3669 0 
L 3244 1197 
L 1141 1197 
L 716 0 
L 50 0 
L 1831 4666 
z
" transform="scale(0.015625)"/>
      <path id="DejaVuSans-78" d="M 3513 3500 
L 2247 1797 
L 3578 0 
L 2900 0 
L 1881 1375 
L 863 0 
L 184 0 
L 1544 1831 
L 300 3500 
L 978 3500 
L 1906 2253 
L 2834 3500 
L 3513 3500 
z
" transform="scale(0.015625)"/>
      <path id="DejaVuSans-77" d="M 269 3500 
L 844 3500 
L 1563 769 
L 2278 3500 
L 2956 3500 
L 3675 769 
L 4391 3500 
L 4966 3500 
L 4050 0 
L 3372 0 
L 2619 2869 
L 1863 0 
L 1184 0 
L 269 3500 
z
" transform="scale(0.015625)"/>
      <path id="DejaVuSans-68" d="M 3513 2113 
L 3513 0 
L 2938 0 
L 2938 2094 
Q 2938 2591 2744 2837 
Q 2550 3084 2163 3084 
Q 1697 3084 1428 2787 
Q 1159 2491 1159 1978 
L 1159 0 
L 581 0 
L 581 4863 
L 1159 4863 
L 1159 2956 
Q 1366 3272 1645 3428 
Q 1925 3584 2291 3584 
Q 2894 3584 3203 3211 
Q 3513 2838 3513 2113 
z
" transform="scale(0.015625)"/>
      <path id="DejaVuSans-49" d="M 628 4666 
L 1259 4666 
L 1259 0 
L 628 0 
L 628 4666 
z
" transform="scale(0.015625)"/>
      <path id="DejaVuSans-72" d="M 2631 2963 
Q 2534 3019 2420 3045 
Q 2306 3072 2169 3072 
Q 1681 3072 1420 2755 
Q 1159 2438 1159 1844 
L 1159 0 
L 581 0 
L 581 3500 
L 1159 3500 
L 1159 2956 
Q 1341 3275 1631 3429 
Q 1922 3584 2338 3584 
Q 2397 3584 2469 3576 
Q 2541 3569 2628 3553 
L 2631 2963 
z
" transform="scale(0.015625)"/>
      <path id="DejaVuSans-6c" d="M 603 4863 
L 1178 4863 
L 1178 0 
L 603 0 
L 603 4863 
z
" transform="scale(0.015625)"/>
      <path id="DejaVuSans-64" d="M 2906 2969 
L 2906 4863 
L 3481 4863 
L 3481 0 
L 2906 0 
L 2906 525 
Q 2725 213 2448 61 
Q 2172 -91 1784 -91 
Q 1150 -91 751 415 
Q 353 922 353 1747 
Q 353 2572 751 3078 
Q 1150 3584 1784 3584 
Q 2172 3584 2448 3432 
Q 2725 3281 2906 2969 
z
M 947 1747 
Q 947 1113 1208 752 
Q 1469 391 1925 391 
Q 2381 391 2643 752 
Q 2906 1113 2906 1747 
Q 2906 2381 2643 2742 
Q 2381 3103 1925 3103 
Q 1469 3103 1208 2742 
Q 947 2381 947 1747 
z
" transform="scale(0.015625)"/>
     </defs>
     <use xlink:href="#DejaVuSans-4d"/>
     <use xlink:href="#DejaVuSans-61" x="86.279297"/>
     <use xlink:href="#DejaVuSans-69" x="147.558594"/>
     <use xlink:href="#DejaVuSans-6e" x="175.341797"/>
     <use xlink:href="#DejaVuSans-20" x="238.720703"/>
     <use xlink:href="#DejaVuSans-41" x="270.507812"/>
     <use xlink:href="#DejaVuSans-78" x="338.916016"/>
     <use xlink:href="#DejaVuSans-65" x="394.970703"/>
     <use xlink:href="#DejaVuSans-73" x="456.494141"/>
     <use xlink:href="#DejaVuSans-20" x="508.59375"/>
     <use xlink:href="#DejaVuSans-77" x="540.380859"/>
     <use xlink:href="#DejaVuSans-69" x="622.167969"/>
     <use xlink:href="#DejaVuSans-74" x="649.951172"/>
     <use xlink:href="#DejaVuSans-68" x="689.160156"/>
     <use xlink:href="#DejaVuSans-20" x="752.539062"/>
     <use xlink:href="#DejaVuSans-49" x="784.326172"/>
     <use xlink:href="#DejaVuSans-6e" x="813.818359"/>
     <use xlink:href="#DejaVuSans-73" x="877.197266"/>
     <use xlink:href="#DejaVuSans-65" x="929.296875"/>
     <use xlink:href="#DejaVuSans-72" x="990.820312"/>
     <use xlink:href="#DejaVuSans-74" x="1031.933594"/>
     <use xlink:href="#DejaVuSans-20" x="1071.142578"/>
     <use xlink:href="#DejaVuSans-43" x="1102.929688"/>
     <use xlink:href="#DejaVuSans-68" x="1172.753906"/>
     <use xlink:href="#DejaVuSans-69" x="1236.132812"/>
     <use xlink:href="#DejaVuSans-6c" x="1263.916016"/>
     <use xlink:href="#DejaVuSans-64" x="1291.699219"/>
     <use xlink:href="#DejaVuSans-20" x="1355.175781"/>
     <use xlink:href="#DejaVuSans-41" x="1386.962891"/>
     <use xlink:href="#DejaVuSans-78" x="1455.371094"/>
     <use xlink:href="#DejaVuSans-65" x="1511.425781"/>
     <use xlink:href="#DejaVuSans-73" x="1572.949219"/>
    </g>
   </g>
  </g>
  <g id="axes_2">
   <g id="patch_7">
    <path d="M 288 230.4 
L 518.4 230.4 
L 518.4 115.2 
L 288 115.2 
z
" style="fill: #ffffff"/>
   </g>
   <g id="matplotlib.axis_3"/>
   <g id="matplotlib.axis_4">
    <g id="ytick_6">
     <g id="line2d_14">
      <g>
       <use xlink:href="#mcab138a9ac" x="288" y="197.200378" style="stroke: #000000; stroke-width: 0.8"/>
      </g>
     </g>
     <g id="text_16">
      <!-- −5 -->
      <g transform="translate(266.257812 200.999596) scale(0.1 -0.1)">
       <defs>
        <path id="DejaVuSans-2212" d="M 678 2272 
L 4684 2272 
L 4684 1741 
L 678 1741 
L 678 2272 
z
" transform="scale(0.015625)"/>
       </defs>
       <use xlink:href="#DejaVuSans-2212"/>
       <use xlink:href="#DejaVuSans-35" x="83.789062"/>
      </g>
     </g>
    </g>
    <g id="ytick_7">
     <g id="line2d_15">
      <g>
       <use xlink:href="#mcab138a9ac" x="288" y="159.661692" style="stroke: #000000; stroke-width: 0.8"/>
      </g>
     </g>
     <g id="text_17">
      <!-- 0 -->
      <g transform="translate(274.6375 163.460911) scale(0.1 -0.1)">
       <use xlink:href="#DejaVuSans-30"/>
      </g>
     </g>
    </g>
    <g id="ytick_8">
     <g id="line2d_16">
      <g>
       <use xlink:href="#mcab138a9ac" x="288" y="122.123006" style="stroke: #000000; stroke-width: 0.8"/>
      </g>
     </g>
     <g id="text_18">
      <!-- 5 -->
      <g transform="translate(274.6375 125.922225) scale(0.1 -0.1)">
       <use xlink:href="#DejaVuSans-35"/>
      </g>
     </g>
    </g>
   </g>
   <g id="line2d_17">
    <path d="M 298.472727 162.427121 
L 299.525263 173.056744 
L 300.577798 169.414193 
L 301.630333 167.986905 
L 302.682869 165.773774 
L 303.735404 156.033271 
L 304.78794 174.717372 
L 305.840475 183.367268 
L 306.893011 183.061931 
L 307.945546 184.859111 
L 308.998081 174.18639 
L 310.050617 192.787112 
L 311.103152 185.660397 
L 312.155688 183.483334 
L 313.208223 183.235191 
L 314.260758 177.39499 
L 315.313294 177.401748 
L 316.365829 183.52579 
L 317.418365 185.0984 
L 318.4709 188.561062 
L 319.523435 182.276434 
L 320.575971 174.363135 
L 321.628506 177.520176 
L 322.681042 167.776207 
L 323.733577 176.97546 
L 324.786112 176.24095 
L 325.838648 188.760842 
L 326.891183 197.321735 
L 327.943719 201.019865 
L 328.996254 197.057606 
L 330.048789 213.079007 
L 331.101325 211.542046 
L 332.15386 200.386371 
L 333.206396 207.280363 
L 334.258931 209.271684 
L 335.311466 214.084923 
L 336.364002 213.527398 
L 337.416537 199.20309 
L 338.469073 199.643407 
L 339.521608 184.050499 
L 340.574143 182.430485 
L 341.626679 182.997585 
L 342.679214 175.600712 
L 343.73175 182.38862 
L 344.784285 170.840998 
L 345.83682 179.783287 
L 346.889356 185.709896 
L 347.941891 181.536833 
L 348.994427 171.429915 
L 351.099497 160.650801 
L 352.152033 156.090551 
L 353.204568 175.54544 
L 354.257104 170.225151 
L 355.309639 159.619582 
L 356.362175 155.69183 
L 357.41471 152.600703 
L 358.467245 139.097332 
L 359.519781 138.343258 
L 360.572316 138.177951 
L 361.624852 142.165173 
L 362.677387 139.502132 
L 363.729922 148.055733 
L 365.834993 156.601606 
L 366.887529 158.676654 
L 367.940064 155.117259 
L 368.992599 164.788528 
L 370.045135 164.188444 
L 371.09767 163.723917 
L 372.150206 164.796063 
L 373.202741 168.21365 
L 374.255276 158.35082 
L 375.307812 168.700036 
L 376.360347 171.865 
L 377.412883 174.455793 
L 378.465418 165.716576 
L 379.517953 162.5782 
L 380.570489 180.279317 
L 381.623024 180.869064 
L 382.67556 184.714313 
L 383.728095 187.928433 
L 384.78063 174.36144 
L 385.833166 194.060873 
L 386.885701 184.402775 
L 387.938237 188.853663 
L 388.990772 180.524338 
L 390.043307 173.601378 
L 391.095843 177.004246 
L 392.148378 174.921077 
L 393.200914 186.164692 
L 394.253449 196.140408 
L 395.305984 217.86871 
L 396.35852 225.163636 
L 397.411055 218.167138 
L 398.463591 219.415613 
L 399.516126 210.1464 
L 400.568661 219.639737 
L 401.621197 210.615364 
L 402.673732 204.376994 
L 403.726268 194.76626 
L 404.778803 199.75711 
L 405.831339 199.474847 
L 406.883874 188.974672 
L 407.936409 181.91475 
L 408.988945 183.505518 
L 410.04148 176.260478 
L 411.094016 176.472281 
L 412.146551 168.516027 
L 413.199086 162.554475 
L 414.251622 153.247916 
L 415.304157 162.010568 
L 416.356693 157.952438 
L 417.409228 152.470134 
L 418.461763 148.637704 
L 419.514299 158.776165 
L 420.566834 166.420879 
L 421.61937 158.314096 
L 422.671905 157.120932 
L 423.72444 152.895254 
L 424.776976 168.768234 
L 425.829511 166.660121 
L 426.882047 165.792848 
L 427.934582 148.479703 
L 428.987117 154.974849 
L 430.039653 149.351443 
L 431.092188 153.77703 
L 432.144724 154.676667 
L 433.197259 150.72243 
L 434.249794 160.753307 
L 435.30233 162.274313 
L 436.354865 154.701841 
L 437.407401 158.876881 
L 438.459936 155.050951 
L 439.512471 150.727774 
L 440.565007 156.339289 
L 441.617542 154.829705 
L 442.670078 136.567544 
L 443.722613 139.564963 
L 444.775148 131.623391 
L 445.827684 133.271168 
L 446.880219 133.725057 
L 447.932755 130.488221 
L 448.98529 133.904728 
L 450.037825 128.53539 
L 451.090361 132.416328 
L 452.142896 126.419923 
L 453.195432 136.82112 
L 454.247967 137.751178 
L 455.300503 124.017839 
L 456.353038 123.520712 
L 457.405573 120.436364 
L 458.458109 123.936552 
L 459.510644 123.092002 
L 460.56318 124.737038 
L 461.615715 132.646487 
L 462.66825 138.901601 
L 463.720786 131.457161 
L 464.773321 133.438045 
L 466.878392 148.956545 
L 467.930927 144.130849 
L 468.983463 147.424266 
L 470.035998 144.405822 
L 471.088534 161.178713 
L 472.141069 157.383612 
L 473.193604 145.362209 
L 474.24614 147.294212 
L 476.351211 142.61786 
L 477.403746 151.449577 
L 478.456281 155.759782 
L 479.508817 161.725795 
L 480.561352 152.843955 
L 481.613888 153.36011 
L 482.666423 155.738775 
L 483.718958 165.110239 
L 484.771494 154.877164 
L 485.824029 148.106025 
L 486.876565 146.626477 
L 487.9291 142.678452 
L 488.981635 145.71188 
L 490.034171 130.066068 
L 491.086706 138.42835 
L 492.139242 136.209344 
L 493.191777 138.520283 
L 494.244312 139.310468 
L 495.296848 130.878165 
L 496.349383 129.489168 
L 497.401919 121.373901 
L 498.454454 131.233829 
L 499.506989 142.204215 
L 500.559525 138.719613 
L 501.61206 138.933509 
L 502.664596 124.690611 
L 503.717131 129.44312 
L 504.769667 138.103941 
L 505.822202 149.540035 
L 506.874737 157.920922 
L 507.927273 167.511715 
L 507.927273 167.511715 
" clip-path="url(#p3307492f43)" style="fill: none; stroke: #008000; stroke-width: 2; stroke-linecap: square"/>
   </g>
   <g id="patch_8">
    <path d="M 288 230.4 
L 288 115.2 
" style="fill: none; stroke: #000000; stroke-width: 0.8; stroke-linejoin: miter; stroke-linecap: square"/>
   </g>
   <g id="patch_9">
    <path d="M 518.4 230.4 
L 518.4 115.2 
" style="fill: none; stroke: #000000; stroke-width: 0.8; stroke-linejoin: miter; stroke-linecap: square"/>
   </g>
   <g id="patch_10">
    <path d="M 288 230.4 
L 518.4 230.4 
" style="fill: none; stroke: #000000; stroke-width: 0.8; stroke-linejoin: miter; stroke-linecap: square"/>
   </g>
   <g id="patch_11">
    <path d="M 288 115.2 
L 518.4 115.2 
" style="fill: none; stroke: #000000; stroke-width: 0.8; stroke-linejoin: miter; stroke-linecap: square"/>
   </g>
  </g>
 </g>
 <defs>
  <clipPath id="p8ba7d2570e">
   <rect x="57.6" y="0" width="518.4" height="259.2"/>
  </clipPath>
  <clipPath id="p3307492f43">
   <rect x="288" y="115.2" width="230.4" height="115.2"/>
  </clipPath>
 </defs>
</svg>
