<?xml version="1.0" encoding="utf-8" standalone="no"?>
<!DOCTYPE svg PUBLIC "-//W3C//DTD SVG 1.1//EN"
  "http://www.w3.org/Graphics/SVG/1.1/DTD/svg11.dtd">
<svg xmlns:xlink="http://www.w3.org/1999/xlink" width="576pt" height="288pt" viewBox="0 0 576 288" xmlns="http://www.w3.org/2000/svg" version="1.1">
 <metadata>
  <rdf:RDF xmlns:dc="http://purl.org/dc/elements/1.1/" xmlns:cc="http://creativecommons.org/ns#" xmlns:rdf="http://www.w3.org/1999/02/22-rdf-syntax-ns#">
   <cc:Work>
    <dc:type rdf:resource="http://purl.org/dc/dcmitype/StillImage"/>
    <dc:date>2023-11-25T18:39:01.991606</dc:date>
    <dc:format>image/svg+xml</dc:format>
    <dc:creator>
     <cc:Agent>
      <dc:title>Matplotlib v3.8.1, https://matplotlib.org/</dc:title>
     </cc:Agent>
    </dc:creator>
   </cc:Work>
  </rdf:RDF>
 </metadata>
 <defs>
  <style type="text/css">*{stroke-linejoin: round; stroke-linecap: butt}</style>
 </defs>
 <g id="figure_1">
  <g id="patch_1">
   <path d="M 0 288 
L 576 288 
L 576 0 
L 0 0 
z
" style="fill: #ffffff"/>
  </g>
  <g id="axes_1">
   <g id="patch_2">
    <path d="M 72 256.32 
L 518.4 256.32 
L 518.4 34.56 
L 72 34.56 
z
" style="fill: #ffffff"/>
   </g>
   <g id="PathCollection_1">
    <defs>
     <path id="mde58d62e35" d="M 0 3 
C 0.795609 3 1.55874 2.683901 2.12132 2.12132 
C 2.683901 1.55874 3 0.795609 3 0 
C 3 -0.795609 2.683901 -1.55874 2.12132 -2.12132 
C 1.55874 -2.683901 0.795609 -3 0 -3 
C -0.795609 -3 -1.55874 -2.683901 -2.12132 -2.12132 
C -2.683901 -1.55874 -3 -0.795609 -3 0 
C -3 0.795609 -2.683901 1.55874 -2.12132 2.12132 
C -1.55874 2.683901 -0.795609 3 0 3 
z
" style="stroke: #000000"/>
    </defs>
    <g clip-path="url(#pedfe5fb340)">
     <use xlink:href="#mde58d62e35" x="92.290909" y="246.24" style="stroke: #000000"/>
     <use xlink:href="#mde58d62e35" x="96.390083" y="242.970985" style="stroke: #000000"/>
     <use xlink:href="#mde58d62e35" x="100.489256" y="214.712544" style="stroke: #000000"/>
     <use xlink:href="#mde58d62e35" x="104.58843" y="194.377049" style="stroke: #000000"/>
     <use xlink:href="#mde58d62e35" x="108.687603" y="202.741677" style="stroke: #000000"/>
     <use xlink:href="#mde58d62e35" x="112.786777" y="190.922932" style="stroke: #000000"/>
     <use xlink:href="#mde58d62e35" x="116.88595" y="164.455433" style="stroke: #000000"/>
     <use xlink:href="#mde58d62e35" x="120.985124" y="223.683538" style="stroke: #000000"/>
     <use xlink:href="#mde58d62e35" x="125.084298" y="142.063961" style="stroke: #000000"/>
     <use xlink:href="#mde58d62e35" x="129.183471" y="165.884171" style="stroke: #000000"/>
     <use xlink:href="#mde58d62e35" x="133.282645" y="170.782405" style="stroke: #000000"/>
     <use xlink:href="#mde58d62e35" x="137.381818" y="223.474328" style="stroke: #000000"/>
     <use xlink:href="#mde58d62e35" x="141.480992" y="216.261371" style="stroke: #000000"/>
     <use xlink:href="#mde58d62e35" x="145.580165" y="220.540841" style="stroke: #000000"/>
     <use xlink:href="#mde58d62e35" x="149.679339" y="182.087418" style="stroke: #000000"/>
     <use xlink:href="#mde58d62e35" x="153.778512" y="175.171073" style="stroke: #000000"/>
     <use xlink:href="#mde58d62e35" x="157.877686" y="144.895978" style="stroke: #000000"/>
     <use xlink:href="#mde58d62e35" x="161.97686" y="190.432834" style="stroke: #000000"/>
     <use xlink:href="#mde58d62e35" x="166.076033" y="142.499497" style="stroke: #000000"/>
     <use xlink:href="#mde58d62e35" x="170.175207" y="205.275634" style="stroke: #000000"/>
     <use xlink:href="#mde58d62e35" x="174.27438" y="186.438303" style="stroke: #000000"/>
     <use xlink:href="#mde58d62e35" x="178.373554" y="188.056696" style="stroke: #000000"/>
     <use xlink:href="#mde58d62e35" x="182.472727" y="216.618669" style="stroke: #000000"/>
     <use xlink:href="#mde58d62e35" x="186.571901" y="225.517427" style="stroke: #000000"/>
     <use xlink:href="#mde58d62e35" x="190.671074" y="196.901345" style="stroke: #000000"/>
     <use xlink:href="#mde58d62e35" x="194.770248" y="178.679956" style="stroke: #000000"/>
     <use xlink:href="#mde58d62e35" x="198.869421" y="162.52741" style="stroke: #000000"/>
     <use xlink:href="#mde58d62e35" x="202.968595" y="201.058648" style="stroke: #000000"/>
     <use xlink:href="#mde58d62e35" x="207.067769" y="224.071094" style="stroke: #000000"/>
     <use xlink:href="#mde58d62e35" x="211.166942" y="160.227388" style="stroke: #000000"/>
     <use xlink:href="#mde58d62e35" x="215.266116" y="150.341411" style="stroke: #000000"/>
     <use xlink:href="#mde58d62e35" x="219.365289" y="170.597104" style="stroke: #000000"/>
     <use xlink:href="#mde58d62e35" x="223.464463" y="158.252238" style="stroke: #000000"/>
     <use xlink:href="#mde58d62e35" x="227.563636" y="169.848852" style="stroke: #000000"/>
     <use xlink:href="#mde58d62e35" x="231.66281" y="216.269504" style="stroke: #000000"/>
     <use xlink:href="#mde58d62e35" x="235.761983" y="192.137318" style="stroke: #000000"/>
     <use xlink:href="#mde58d62e35" x="239.861157" y="129.693735" style="stroke: #000000"/>
     <use xlink:href="#mde58d62e35" x="243.960331" y="135.712588" style="stroke: #000000"/>
     <use xlink:href="#mde58d62e35" x="248.059504" y="170.517538" style="stroke: #000000"/>
     <use xlink:href="#mde58d62e35" x="252.158678" y="154.253445" style="stroke: #000000"/>
     <use xlink:href="#mde58d62e35" x="256.257851" y="147.986156" style="stroke: #000000"/>
     <use xlink:href="#mde58d62e35" x="260.357025" y="166.234828" style="stroke: #000000"/>
     <use xlink:href="#mde58d62e35" x="264.456198" y="187.023607" style="stroke: #000000"/>
     <use xlink:href="#mde58d62e35" x="268.555372" y="160.575182" style="stroke: #000000"/>
     <use xlink:href="#mde58d62e35" x="272.654545" y="193.928325" style="stroke: #000000"/>
     <use xlink:href="#mde58d62e35" x="276.753719" y="164.534134" style="stroke: #000000"/>
     <use xlink:href="#mde58d62e35" x="280.852893" y="125.694491" style="stroke: #000000"/>
     <use xlink:href="#mde58d62e35" x="284.952066" y="168.572041" style="stroke: #000000"/>
     <use xlink:href="#mde58d62e35" x="289.05124" y="157.414921" style="stroke: #000000"/>
     <use xlink:href="#mde58d62e35" x="293.150413" y="128.173411" style="stroke: #000000"/>
     <use xlink:href="#mde58d62e35" x="297.249587" y="160.570624" style="stroke: #000000"/>
     <use xlink:href="#mde58d62e35" x="301.34876" y="148.872418" style="stroke: #000000"/>
     <use xlink:href="#mde58d62e35" x="305.447934" y="168.946995" style="stroke: #000000"/>
     <use xlink:href="#mde58d62e35" x="309.547107" y="165.35191" style="stroke: #000000"/>
     <use xlink:href="#mde58d62e35" x="313.646281" y="158.567742" style="stroke: #000000"/>
     <use xlink:href="#mde58d62e35" x="317.745455" y="159.95616" style="stroke: #000000"/>
     <use xlink:href="#mde58d62e35" x="321.844628" y="119.286485" style="stroke: #000000"/>
     <use xlink:href="#mde58d62e35" x="325.943802" y="131.32684" style="stroke: #000000"/>
     <use xlink:href="#mde58d62e35" x="330.042975" y="130.627511" style="stroke: #000000"/>
     <use xlink:href="#mde58d62e35" x="334.142149" y="180.662544" style="stroke: #000000"/>
     <use xlink:href="#mde58d62e35" x="338.241322" y="95.043838" style="stroke: #000000"/>
     <use xlink:href="#mde58d62e35" x="342.340496" y="124.820426" style="stroke: #000000"/>
     <use xlink:href="#mde58d62e35" x="346.439669" y="168.96277" style="stroke: #000000"/>
     <use xlink:href="#mde58d62e35" x="350.538843" y="100.954738" style="stroke: #000000"/>
     <use xlink:href="#mde58d62e35" x="354.638017" y="61.725337" style="stroke: #000000"/>
     <use xlink:href="#mde58d62e35" x="358.73719" y="135.102972" style="stroke: #000000"/>
     <use xlink:href="#mde58d62e35" x="362.836364" y="118.907417" style="stroke: #000000"/>
     <use xlink:href="#mde58d62e35" x="366.935537" y="155.18955" style="stroke: #000000"/>
     <use xlink:href="#mde58d62e35" x="371.034711" y="127.872802" style="stroke: #000000"/>
     <use xlink:href="#mde58d62e35" x="375.133884" y="154.066998" style="stroke: #000000"/>
     <use xlink:href="#mde58d62e35" x="379.233058" y="95.025172" style="stroke: #000000"/>
     <use xlink:href="#mde58d62e35" x="383.332231" y="132.786003" style="stroke: #000000"/>
     <use xlink:href="#mde58d62e35" x="387.431405" y="135.339752" style="stroke: #000000"/>
     <use xlink:href="#mde58d62e35" x="391.530579" y="152.234616" style="stroke: #000000"/>
     <use xlink:href="#mde58d62e35" x="395.629752" y="129.786981" style="stroke: #000000"/>
     <use xlink:href="#mde58d62e35" x="399.728926" y="89.04587" style="stroke: #000000"/>
     <use xlink:href="#mde58d62e35" x="403.828099" y="82.911613" style="stroke: #000000"/>
     <use xlink:href="#mde58d62e35" x="407.927273" y="85.763535" style="stroke: #000000"/>
     <use xlink:href="#mde58d62e35" x="412.026446" y="86.194812" style="stroke: #000000"/>
     <use xlink:href="#mde58d62e35" x="416.12562" y="113.0496" style="stroke: #000000"/>
     <use xlink:href="#mde58d62e35" x="420.224793" y="88.5801" style="stroke: #000000"/>
     <use xlink:href="#mde58d62e35" x="424.323967" y="112.986628" style="stroke: #000000"/>
     <use xlink:href="#mde58d62e35" x="428.42314" y="101.675571" style="stroke: #000000"/>
     <use xlink:href="#mde58d62e35" x="432.522314" y="104.451701" style="stroke: #000000"/>
     <use xlink:href="#mde58d62e35" x="436.621488" y="91.184966" style="stroke: #000000"/>
     <use xlink:href="#mde58d62e35" x="440.720661" y="115.824591" style="stroke: #000000"/>
     <use xlink:href="#mde58d62e35" x="444.819835" y="91.340338" style="stroke: #000000"/>
     <use xlink:href="#mde58d62e35" x="448.919008" y="105.485827" style="stroke: #000000"/>
     <use xlink:href="#mde58d62e35" x="453.018182" y="80.467053" style="stroke: #000000"/>
     <use xlink:href="#mde58d62e35" x="457.117355" y="126.064097" style="stroke: #000000"/>
     <use xlink:href="#mde58d62e35" x="461.216529" y="123.095051" style="stroke: #000000"/>
     <use xlink:href="#mde58d62e35" x="465.315702" y="44.64" style="stroke: #000000"/>
     <use xlink:href="#mde58d62e35" x="469.414876" y="125.0016" style="stroke: #000000"/>
     <use xlink:href="#mde58d62e35" x="473.51405" y="143.581584" style="stroke: #000000"/>
     <use xlink:href="#mde58d62e35" x="477.613223" y="99.378805" style="stroke: #000000"/>
     <use xlink:href="#mde58d62e35" x="481.712397" y="71.211602" style="stroke: #000000"/>
     <use xlink:href="#mde58d62e35" x="485.81157" y="100.621185" style="stroke: #000000"/>
     <use xlink:href="#mde58d62e35" x="489.910744" y="96.498331" style="stroke: #000000"/>
     <use xlink:href="#mde58d62e35" x="494.009917" y="82.826328" style="stroke: #000000"/>
     <use xlink:href="#mde58d62e35" x="498.109091" y="91.400068" style="stroke: #000000"/>
    </g>
   </g>
   <g id="matplotlib.axis_1">
    <g id="xtick_1">
     <g id="line2d_1">
      <defs>
       <path id="m3391b36128" d="M 0 0 
L 0 3.5 
" style="stroke: #000000; stroke-width: 0.8"/>
      </defs>
      <g>
       <use xlink:href="#m3391b36128" x="92.290909" y="256.32" style="stroke: #000000; stroke-width: 0.8"/>
      </g>
     </g>
     <g id="text_1">
      <!-- 0 -->
      <g transform="translate(89.109659 270.918437) scale(0.1 -0.1)">
       <defs>
        <path id="DejaVuSans-30" d="M 2034 4250 
Q 1547 4250 1301 3770 
Q 1056 3291 1056 2328 
Q 1056 1369 1301 889 
Q 1547 409 2034 409 
Q 2525 409 2770 889 
Q 3016 1369 3016 2328 
Q 3016 3291 2770 3770 
Q 2525 4250 2034 4250 
z
M 2034 4750 
Q 2819 4750 3233 4129 
Q 3647 3509 3647 2328 
Q 3647 1150 3233 529 
Q 2819 -91 2034 -91 
Q 1250 -91 836 529 
Q 422 1150 422 2328 
Q 422 3509 836 4129 
Q 1250 4750 2034 4750 
z
" transform="scale(0.015625)"/>
       </defs>
       <use xlink:href="#DejaVuSans-30"/>
      </g>
     </g>
    </g>
    <g id="xtick_2">
     <g id="line2d_2">
      <g>
       <use xlink:href="#m3391b36128" x="174.27438" y="256.32" style="stroke: #000000; stroke-width: 0.8"/>
      </g>
     </g>
     <g id="text_2">
      <!-- 20 -->
      <g transform="translate(167.91188 270.918437) scale(0.1 -0.1)">
       <defs>
        <path id="DejaVuSans-32" d="M 1228 531 
L 3431 531 
L 3431 0 
L 469 0 
L 469 531 
Q 828 903 1448 1529 
Q 2069 2156 2228 2338 
Q 2531 2678 2651 2914 
Q 2772 3150 2772 3378 
Q 2772 3750 2511 3984 
Q 2250 4219 1831 4219 
Q 1534 4219 1204 4116 
Q 875 4013 500 3803 
L 500 4441 
Q 881 4594 1212 4672 
Q 1544 4750 1819 4750 
Q 2544 4750 2975 4387 
Q 3406 4025 3406 3419 
Q 3406 3131 3298 2873 
Q 3191 2616 2906 2266 
Q 2828 2175 2409 1742 
Q 1991 1309 1228 531 
z
" transform="scale(0.015625)"/>
       </defs>
       <use xlink:href="#DejaVuSans-32"/>
       <use xlink:href="#DejaVuSans-30" x="63.623047"/>
      </g>
     </g>
    </g>
    <g id="xtick_3">
     <g id="line2d_3">
      <g>
       <use xlink:href="#m3391b36128" x="256.257851" y="256.32" style="stroke: #000000; stroke-width: 0.8"/>
      </g>
     </g>
     <g id="text_3">
      <!-- 40 -->
      <g transform="translate(249.895351 270.918437) scale(0.1 -0.1)">
       <defs>
        <path id="DejaVuSans-34" d="M 2419 4116 
L 825 1625 
L 2419 1625 
L 2419 4116 
z
M 2253 4666 
L 3047 4666 
L 3047 1625 
L 3713 1625 
L 3713 1100 
L 3047 1100 
L 3047 0 
L 2419 0 
L 2419 1100 
L 313 1100 
L 313 1709 
L 2253 4666 
z
" transform="scale(0.015625)"/>
       </defs>
       <use xlink:href="#DejaVuSans-34"/>
       <use xlink:href="#DejaVuSans-30" x="63.623047"/>
      </g>
     </g>
    </g>
    <g id="xtick_4">
     <g id="line2d_4">
      <g>
       <use xlink:href="#m3391b36128" x="338.241322" y="256.32" style="stroke: #000000; stroke-width: 0.8"/>
      </g>
     </g>
     <g id="text_4">
      <!-- 60 -->
      <g transform="translate(331.878822 270.918437) scale(0.1 -0.1)">
       <defs>
        <path id="DejaVuSans-36" d="M 2113 2584 
Q 1688 2584 1439 2293 
Q 1191 2003 1191 1497 
Q 1191 994 1439 701 
Q 1688 409 2113 409 
Q 2538 409 2786 701 
Q 3034 994 3034 1497 
Q 3034 2003 2786 2293 
Q 2538 2584 2113 2584 
z
M 3366 4563 
L 3366 3988 
Q 3128 4100 2886 4159 
Q 2644 4219 2406 4219 
Q 1781 4219 1451 3797 
Q 1122 3375 1075 2522 
Q 1259 2794 1537 2939 
Q 1816 3084 2150 3084 
Q 2853 3084 3261 2657 
Q 3669 2231 3669 1497 
Q 3669 778 3244 343 
Q 2819 -91 2113 -91 
Q 1303 -91 875 529 
Q 447 1150 447 2328 
Q 447 3434 972 4092 
Q 1497 4750 2381 4750 
Q 2619 4750 2861 4703 
Q 3103 4656 3366 4563 
z
" transform="scale(0.015625)"/>
       </defs>
       <use xlink:href="#DejaVuSans-36"/>
       <use xlink:href="#DejaVuSans-30" x="63.623047"/>
      </g>
     </g>
    </g>
    <g id="xtick_5">
     <g id="line2d_5">
      <g>
       <use xlink:href="#m3391b36128" x="420.224793" y="256.32" style="stroke: #000000; stroke-width: 0.8"/>
      </g>
     </g>
     <g id="text_5">
      <!-- 80 -->
      <g transform="translate(413.862293 270.918437) scale(0.1 -0.1)">
       <defs>
        <path id="DejaVuSans-38" d="M 2034 2216 
Q 1584 2216 1326 1975 
Q 1069 1734 1069 1313 
Q 1069 891 1326 650 
Q 1584 409 2034 409 
Q 2484 409 2743 651 
Q 3003 894 3003 1313 
Q 3003 1734 2745 1975 
Q 2488 2216 2034 2216 
z
M 1403 2484 
Q 997 2584 770 2862 
Q 544 3141 544 3541 
Q 544 4100 942 4425 
Q 1341 4750 2034 4750 
Q 2731 4750 3128 4425 
Q 3525 4100 3525 3541 
Q 3525 3141 3298 2862 
Q 3072 2584 2669 2484 
Q 3125 2378 3379 2068 
Q 3634 1759 3634 1313 
Q 3634 634 3220 271 
Q 2806 -91 2034 -91 
Q 1263 -91 848 271 
Q 434 634 434 1313 
Q 434 1759 690 2068 
Q 947 2378 1403 2484 
z
M 1172 3481 
Q 1172 3119 1398 2916 
Q 1625 2713 2034 2713 
Q 2441 2713 2670 2916 
Q 2900 3119 2900 3481 
Q 2900 3844 2670 4047 
Q 2441 4250 2034 4250 
Q 1625 4250 1398 4047 
Q 1172 3844 1172 3481 
z
" transform="scale(0.015625)"/>
       </defs>
       <use xlink:href="#DejaVuSans-38"/>
       <use xlink:href="#DejaVuSans-30" x="63.623047"/>
      </g>
     </g>
    </g>
    <g id="xtick_6">
     <g id="line2d_6">
      <g>
       <use xlink:href="#m3391b36128" x="502.208264" y="256.32" style="stroke: #000000; stroke-width: 0.8"/>
      </g>
     </g>
     <g id="text_6">
      <!-- 100 -->
      <g transform="translate(492.664514 270.918437) scale(0.1 -0.1)">
       <defs>
        <path id="DejaVuSans-31" d="M 794 531 
L 1825 531 
L 1825 4091 
L 703 3866 
L 703 4441 
L 1819 4666 
L 2450 4666 
L 2450 531 
L 3481 531 
L 3481 0 
L 794 0 
L 794 531 
z
" transform="scale(0.015625)"/>
       </defs>
       <use xlink:href="#DejaVuSans-31"/>
       <use xlink:href="#DejaVuSans-30" x="63.623047"/>
       <use xlink:href="#DejaVuSans-30" x="127.246094"/>
      </g>
     </g>
    </g>
   </g>
   <g id="matplotlib.axis_2">
    <g id="ytick_1">
     <g id="line2d_7">
      <defs>
       <path id="m04912106ed" d="M 0 0 
L -3.5 0 
" style="stroke: #000000; stroke-width: 0.8"/>
      </defs>
      <g>
       <use xlink:href="#m04912106ed" x="72" y="242.262257" style="stroke: #000000; stroke-width: 0.8"/>
      </g>
     </g>
     <g id="text_7">
      <!-- −10 -->
      <g transform="translate(43.895313 246.061476) scale(0.1 -0.1)">
       <defs>
        <path id="DejaVuSans-2212" d="M 678 2272 
L 4684 2272 
L 4684 1741 
L 678 1741 
L 678 2272 
z
" transform="scale(0.015625)"/>
       </defs>
       <use xlink:href="#DejaVuSans-2212"/>
       <use xlink:href="#DejaVuSans-31" x="83.789062"/>
       <use xlink:href="#DejaVuSans-30" x="147.412109"/>
      </g>
     </g>
    </g>
    <g id="ytick_2">
     <g id="line2d_8">
      <g>
       <use xlink:href="#m04912106ed" x="72" y="216.063015" style="stroke: #000000; stroke-width: 0.8"/>
      </g>
     </g>
     <g id="text_8">
      <!-- 0 -->
      <g transform="translate(58.6375 219.862233) scale(0.1 -0.1)">
       <use xlink:href="#DejaVuSans-30"/>
      </g>
     </g>
    </g>
    <g id="ytick_3">
     <g id="line2d_9">
      <g>
       <use xlink:href="#m04912106ed" x="72" y="189.863773" style="stroke: #000000; stroke-width: 0.8"/>
      </g>
     </g>
     <g id="text_9">
      <!-- 10 -->
      <g transform="translate(52.275 193.662991) scale(0.1 -0.1)">
       <use xlink:href="#DejaVuSans-31"/>
       <use xlink:href="#DejaVuSans-30" x="63.623047"/>
      </g>
     </g>
    </g>
    <g id="ytick_4">
     <g id="line2d_10">
      <g>
       <use xlink:href="#m04912106ed" x="72" y="163.66453" style="stroke: #000000; stroke-width: 0.8"/>
      </g>
     </g>
     <g id="text_10">
      <!-- 20 -->
      <g transform="translate(52.275 167.463749) scale(0.1 -0.1)">
       <use xlink:href="#DejaVuSans-32"/>
       <use xlink:href="#DejaVuSans-30" x="63.623047"/>
      </g>
     </g>
    </g>
    <g id="ytick_5">
     <g id="line2d_11">
      <g>
       <use xlink:href="#m04912106ed" x="72" y="137.465288" style="stroke: #000000; stroke-width: 0.8"/>
      </g>
     </g>
     <g id="text_11">
      <!-- 30 -->
      <g transform="translate(52.275 141.264507) scale(0.1 -0.1)">
       <defs>
        <path id="DejaVuSans-33" d="M 2597 2516 
Q 3050 2419 3304 2112 
Q 3559 1806 3559 1356 
Q 3559 666 3084 287 
Q 2609 -91 1734 -91 
Q 1441 -91 1130 -33 
Q 819 25 488 141 
L 488 750 
Q 750 597 1062 519 
Q 1375 441 1716 441 
Q 2309 441 2620 675 
Q 2931 909 2931 1356 
Q 2931 1769 2642 2001 
Q 2353 2234 1838 2234 
L 1294 2234 
L 1294 2753 
L 1863 2753 
Q 2328 2753 2575 2939 
Q 2822 3125 2822 3475 
Q 2822 3834 2567 4026 
Q 2313 4219 1838 4219 
Q 1578 4219 1281 4162 
Q 984 4106 628 3988 
L 628 4550 
Q 988 4650 1302 4700 
Q 1616 4750 1894 4750 
Q 2613 4750 3031 4423 
Q 3450 4097 3450 3541 
Q 3450 3153 3228 2886 
Q 3006 2619 2597 2516 
z
" transform="scale(0.015625)"/>
       </defs>
       <use xlink:href="#DejaVuSans-33"/>
       <use xlink:href="#DejaVuSans-30" x="63.623047"/>
      </g>
     </g>
    </g>
    <g id="ytick_6">
     <g id="line2d_12">
      <g>
       <use xlink:href="#m04912106ed" x="72" y="111.266046" style="stroke: #000000; stroke-width: 0.8"/>
      </g>
     </g>
     <g id="text_12">
      <!-- 40 -->
      <g transform="translate(52.275 115.065265) scale(0.1 -0.1)">
       <use xlink:href="#DejaVuSans-34"/>
       <use xlink:href="#DejaVuSans-30" x="63.623047"/>
      </g>
     </g>
    </g>
    <g id="ytick_7">
     <g id="line2d_13">
      <g>
       <use xlink:href="#m04912106ed" x="72" y="85.066804" style="stroke: #000000; stroke-width: 0.8"/>
      </g>
     </g>
     <g id="text_13">
      <!-- 50 -->
      <g transform="translate(52.275 88.866023) scale(0.1 -0.1)">
       <defs>
        <path id="DejaVuSans-35" d="M 691 4666 
L 3169 4666 
L 3169 4134 
L 1269 4134 
L 1269 2991 
Q 1406 3038 1543 3061 
Q 1681 3084 1819 3084 
Q 2600 3084 3056 2656 
Q 3513 2228 3513 1497 
Q 3513 744 3044 326 
Q 2575 -91 1722 -91 
Q 1428 -91 1123 -41 
Q 819 9 494 109 
L 494 744 
Q 775 591 1075 516 
Q 1375 441 1709 441 
Q 2250 441 2565 725 
Q 2881 1009 2881 1497 
Q 2881 1984 2565 2268 
Q 2250 2553 1709 2553 
Q 1456 2553 1204 2497 
Q 953 2441 691 2322 
L 691 4666 
z
" transform="scale(0.015625)"/>
       </defs>
       <use xlink:href="#DejaVuSans-35"/>
       <use xlink:href="#DejaVuSans-30" x="63.623047"/>
      </g>
     </g>
    </g>
    <g id="ytick_8">
     <g id="line2d_14">
      <g>
       <use xlink:href="#m04912106ed" x="72" y="58.867562" style="stroke: #000000; stroke-width: 0.8"/>
      </g>
     </g>
     <g id="text_14">
      <!-- 60 -->
      <g transform="translate(52.275 62.666781) scale(0.1 -0.1)">
       <use xlink:href="#DejaVuSans-36"/>
       <use xlink:href="#DejaVuSans-30" x="63.623047"/>
      </g>
     </g>
    </g>
   </g>
   <g id="line2d_15">
    <path d="M 92.290909 211.208842 
L 96.390083 209.954644 
L 100.489256 208.700445 
L 104.58843 207.446246 
L 108.687603 206.192048 
L 112.786777 204.937849 
L 116.88595 203.683651 
L 120.985124 202.429452 
L 125.084298 201.175253 
L 129.183471 199.921055 
L 133.282645 198.666856 
L 137.381818 197.412657 
L 141.480992 196.158459 
L 145.580165 194.90426 
L 149.679339 193.650061 
L 153.778512 192.395863 
L 157.877686 191.141664 
L 161.97686 189.887465 
L 166.076033 188.633267 
L 170.175207 187.379068 
L 174.27438 186.124869 
L 178.373554 184.870671 
L 182.472727 183.616472 
L 186.571901 182.362273 
L 190.671074 181.108075 
L 194.770248 179.853876 
L 198.869421 178.599677 
L 202.968595 177.345479 
L 207.067769 176.09128 
L 211.166942 174.837081 
L 215.266116 173.582883 
L 219.365289 172.328684 
L 223.464463 171.074485 
L 227.563636 169.820287 
L 231.66281 168.566088 
L 235.761983 167.311889 
L 239.861157 166.057691 
L 243.960331 164.803492 
L 248.059504 163.549293 
L 252.158678 162.295095 
L 256.257851 161.040896 
L 260.357025 159.786697 
L 264.456198 158.532499 
L 268.555372 157.2783 
L 272.654545 156.024101 
L 276.753719 154.769903 
L 280.852893 153.515704 
L 284.952066 152.261506 
L 289.05124 151.007307 
L 293.150413 149.753108 
L 297.249587 148.49891 
L 301.34876 147.244711 
L 305.447934 145.990512 
L 309.547107 144.736314 
L 313.646281 143.482115 
L 317.745455 142.227916 
L 321.844628 140.973718 
L 325.943802 139.719519 
L 330.042975 138.46532 
L 334.142149 137.211122 
L 338.241322 135.956923 
L 342.340496 134.702724 
L 346.439669 133.448526 
L 350.538843 132.194327 
L 354.638017 130.940128 
L 358.73719 129.68593 
L 362.836364 128.431731 
L 366.935537 127.177532 
L 371.034711 125.923334 
L 375.133884 124.669135 
L 379.233058 123.414936 
L 383.332231 122.160738 
L 387.431405 120.906539 
L 391.530579 119.65234 
L 395.629752 118.398142 
L 399.728926 117.143943 
L 403.828099 115.889744 
L 407.927273 114.635546 
L 412.026446 113.381347 
L 416.12562 112.127148 
L 420.224793 110.87295 
L 424.323967 109.618751 
L 428.42314 108.364552 
L 432.522314 107.110354 
L 436.621488 105.856155 
L 440.720661 104.601956 
L 444.819835 103.347758 
L 448.919008 102.093559 
L 453.018182 100.839361 
L 457.117355 99.585162 
L 461.216529 98.330963 
L 465.315702 97.076765 
L 469.414876 95.822566 
L 473.51405 94.568367 
L 477.613223 93.314169 
L 481.712397 92.05997 
L 485.81157 90.805771 
L 489.910744 89.551573 
L 494.009917 88.297374 
L 498.109091 87.043175 
" clip-path="url(#pedfe5fb340)" style="fill: none; stroke: #ff0000; stroke-width: 2; stroke-linecap: square"/>
   </g>
   <g id="patch_3">
    <path d="M 72 256.32 
L 72 34.56 
" style="fill: none; stroke: #000000; stroke-width: 0.8; stroke-linejoin: miter; stroke-linecap: square"/>
   </g>
   <g id="patch_4">
    <path d="M 518.4 256.32 
L 518.4 34.56 
" style="fill: none; stroke: #000000; stroke-width: 0.8; stroke-linejoin: miter; stroke-linecap: square"/>
   </g>
   <g id="patch_5">
    <path d="M 72 256.32 
L 518.4 256.32 
" style="fill: none; stroke: #000000; stroke-width: 0.8; stroke-linejoin: miter; stroke-linecap: square"/>
   </g>
   <g id="patch_6">
    <path d="M 72 34.56 
L 518.4 34.56 
" style="fill: none; stroke: #000000; stroke-width: 0.8; stroke-linejoin: miter; stroke-linecap: square"/>
   </g>
  </g>
  <g id="text_15">
   <!-- Scatterplot with Linear Regression -->
   <g transform="translate(184.940625 14.878125) scale(0.12 -0.12)">
    <defs>
     <path id="DejaVuSans-53" d="M 3425 4513 
L 3425 3897 
Q 3066 4069 2747 4153 
Q 2428 4238 2131 4238 
Q 1616 4238 1336 4038 
Q 1056 3838 1056 3469 
Q 1056 3159 1242 3001 
Q 1428 2844 1947 2747 
L 2328 2669 
Q 3034 2534 3370 2195 
Q 3706 1856 3706 1288 
Q 3706 609 3251 259 
Q 2797 -91 1919 -91 
Q 1588 -91 1214 -16 
Q 841 59 441 206 
L 441 856 
Q 825 641 1194 531 
Q 1563 422 1919 422 
Q 2459 422 2753 634 
Q 3047 847 3047 1241 
Q 3047 1584 2836 1778 
Q 2625 1972 2144 2069 
L 1759 2144 
Q 1053 2284 737 2584 
Q 422 2884 422 3419 
Q 422 4038 858 4394 
Q 1294 4750 2059 4750 
Q 2388 4750 2728 4690 
Q 3069 4631 3425 4513 
z
" transform="scale(0.015625)"/>
     <path id="DejaVuSans-63" d="M 3122 3366 
L 3122 2828 
Q 2878 2963 2633 3030 
Q 2388 3097 2138 3097 
Q 1578 3097 1268 2742 
Q 959 2388 959 1747 
Q 959 1106 1268 751 
Q 1578 397 2138 397 
Q 2388 397 2633 464 
Q 2878 531 3122 666 
L 3122 134 
Q 2881 22 2623 -34 
Q 2366 -91 2075 -91 
Q 1284 -91 818 406 
Q 353 903 353 1747 
Q 353 2603 823 3093 
Q 1294 3584 2113 3584 
Q 2378 3584 2631 3529 
Q 2884 3475 3122 3366 
z
" transform="scale(0.015625)"/>
     <path id="DejaVuSans-61" d="M 2194 1759 
Q 1497 1759 1228 1600 
Q 959 1441 959 1056 
Q 959 750 1161 570 
Q 1363 391 1709 391 
Q 2188 391 2477 730 
Q 2766 1069 2766 1631 
L 2766 1759 
L 2194 1759 
z
M 3341 1997 
L 3341 0 
L 2766 0 
L 2766 531 
Q 2569 213 2275 61 
Q 1981 -91 1556 -91 
Q 1019 -91 701 211 
Q 384 513 384 1019 
Q 384 1609 779 1909 
Q 1175 2209 1959 2209 
L 2766 2209 
L 2766 2266 
Q 2766 2663 2505 2880 
Q 2244 3097 1772 3097 
Q 1472 3097 1187 3025 
Q 903 2953 641 2809 
L 641 3341 
Q 956 3463 1253 3523 
Q 1550 3584 1831 3584 
Q 2591 3584 2966 3190 
Q 3341 2797 3341 1997 
z
" transform="scale(0.015625)"/>
     <path id="DejaVuSans-74" d="M 1172 4494 
L 1172 3500 
L 2356 3500 
L 2356 3053 
L 1172 3053 
L 1172 1153 
Q 1172 725 1289 603 
Q 1406 481 1766 481 
L 2356 481 
L 2356 0 
L 1766 0 
Q 1100 0 847 248 
Q 594 497 594 1153 
L 594 3053 
L 172 3053 
L 172 3500 
L 594 3500 
L 594 4494 
L 1172 4494 
z
" transform="scale(0.015625)"/>
     <path id="DejaVuSans-65" d="M 3597 1894 
L 3597 1613 
L 953 1613 
Q 991 1019 1311 708 
Q 1631 397 2203 397 
Q 2534 397 2845 478 
Q 3156 559 3463 722 
L 3463 178 
Q 3153 47 2828 -22 
Q 2503 -91 2169 -91 
Q 1331 -91 842 396 
Q 353 884 353 1716 
Q 353 2575 817 3079 
Q 1281 3584 2069 3584 
Q 2775 3584 3186 3129 
Q 3597 2675 3597 1894 
z
M 3022 2063 
Q 3016 2534 2758 2815 
Q 2500 3097 2075 3097 
Q 1594 3097 1305 2825 
Q 1016 2553 972 2059 
L 3022 2063 
z
" transform="scale(0.015625)"/>
     <path id="DejaVuSans-72" d="M 2631 2963 
Q 2534 3019 2420 3045 
Q 2306 3072 2169 3072 
Q 1681 3072 1420 2755 
Q 1159 2438 1159 1844 
L 1159 0 
L 581 0 
L 581 3500 
L 1159 3500 
L 1159 2956 
Q 1341 3275 1631 3429 
Q 1922 3584 2338 3584 
Q 2397 3584 2469 3576 
Q 2541 3569 2628 3553 
L 2631 2963 
z
" transform="scale(0.015625)"/>
     <path id="DejaVuSans-70" d="M 1159 525 
L 1159 -1331 
L 581 -1331 
L 581 3500 
L 1159 3500 
L 1159 2969 
Q 1341 3281 1617 3432 
Q 1894 3584 2278 3584 
Q 2916 3584 3314 3078 
Q 3713 2572 3713 1747 
Q 3713 922 3314 415 
Q 2916 -91 2278 -91 
Q 1894 -91 1617 61 
Q 1341 213 1159 525 
z
M 3116 1747 
Q 3116 2381 2855 2742 
Q 2594 3103 2138 3103 
Q 1681 3103 1420 2742 
Q 1159 2381 1159 1747 
Q 1159 1113 1420 752 
Q 1681 391 2138 391 
Q 2594 391 2855 752 
Q 3116 1113 3116 1747 
z
" transform="scale(0.015625)"/>
     <path id="DejaVuSans-6c" d="M 603 4863 
L 1178 4863 
L 1178 0 
L 603 0 
L 603 4863 
z
" transform="scale(0.015625)"/>
     <path id="DejaVuSans-6f" d="M 1959 3097 
Q 1497 3097 1228 2736 
Q 959 2375 959 1747 
Q 959 1119 1226 758 
Q 1494 397 1959 397 
Q 2419 397 2687 759 
Q 2956 1122 2956 1747 
Q 2956 2369 2687 2733 
Q 2419 3097 1959 3097 
z
M 1959 3584 
Q 2709 3584 3137 3096 
Q 3566 2609 3566 1747 
Q 3566 888 3137 398 
Q 2709 -91 1959 -91 
Q 1206 -91 779 398 
Q 353 888 353 1747 
Q 353 2609 779 3096 
Q 1206 3584 1959 3584 
z
" transform="scale(0.015625)"/>
     <path id="DejaVuSans-20" transform="scale(0.015625)"/>
     <path id="DejaVuSans-77" d="M 269 3500 
L 844 3500 
L 1563 769 
L 2278 3500 
L 2956 3500 
L 3675 769 
L 4391 3500 
L 4966 3500 
L 4050 0 
L 3372 0 
L 2619 2869 
L 1863 0 
L 1184 0 
L 269 3500 
z
" transform="scale(0.015625)"/>
     <path id="DejaVuSans-69" d="M 603 3500 
L 1178 3500 
L 1178 0 
L 603 0 
L 603 3500 
z
M 603 4863 
L 1178 4863 
L 1178 4134 
L 603 4134 
L 603 4863 
z
" transform="scale(0.015625)"/>
     <path id="DejaVuSans-68" d="M 3513 2113 
L 3513 0 
L 2938 0 
L 2938 2094 
Q 2938 2591 2744 2837 
Q 2550 3084 2163 3084 
Q 1697 3084 1428 2787 
Q 1159 2491 1159 1978 
L 1159 0 
L 581 0 
L 581 4863 
L 1159 4863 
L 1159 2956 
Q 1366 3272 1645 3428 
Q 1925 3584 2291 3584 
Q 2894 3584 3203 3211 
Q 3513 2838 3513 2113 
z
" transform="scale(0.015625)"/>
     <path id="DejaVuSans-4c" d="M 628 4666 
L 1259 4666 
L 1259 531 
L 3531 531 
L 3531 0 
L 628 0 
L 628 4666 
z
" transform="scale(0.015625)"/>
     <path id="DejaVuSans-6e" d="M 3513 2113 
L 3513 0 
L 2938 0 
L 2938 2094 
Q 2938 2591 2744 2837 
Q 2550 3084 2163 3084 
Q 1697 3084 1428 2787 
Q 1159 2491 1159 1978 
L 1159 0 
L 581 0 
L 581 3500 
L 1159 3500 
L 1159 2956 
Q 1366 3272 1645 3428 
Q 1925 3584 2291 3584 
Q 2894 3584 3203 3211 
Q 3513 2838 3513 2113 
z
" transform="scale(0.015625)"/>
     <path id="DejaVuSans-52" d="M 2841 2188 
Q 3044 2119 3236 1894 
Q 3428 1669 3622 1275 
L 4263 0 
L 3584 0 
L 2988 1197 
Q 2756 1666 2539 1819 
Q 2322 1972 1947 1972 
L 1259 1972 
L 1259 0 
L 628 0 
L 628 4666 
L 2053 4666 
Q 2853 4666 3247 4331 
Q 3641 3997 3641 3322 
Q 3641 2881 3436 2590 
Q 3231 2300 2841 2188 
z
M 1259 4147 
L 1259 2491 
L 2053 2491 
Q 2509 2491 2742 2702 
Q 2975 2913 2975 3322 
Q 2975 3731 2742 3939 
Q 2509 4147 2053 4147 
L 1259 4147 
z
" transform="scale(0.015625)"/>
     <path id="DejaVuSans-67" d="M 2906 1791 
Q 2906 2416 2648 2759 
Q 2391 3103 1925 3103 
Q 1463 3103 1205 2759 
Q 947 2416 947 1791 
Q 947 1169 1205 825 
Q 1463 481 1925 481 
Q 2391 481 2648 825 
Q 2906 1169 2906 1791 
z
M 3481 434 
Q 3481 -459 3084 -895 
Q 2688 -1331 1869 -1331 
Q 1566 -1331 1297 -1286 
Q 1028 -1241 775 -1147 
L 775 -588 
Q 1028 -725 1275 -790 
Q 1522 -856 1778 -856 
Q 2344 -856 2625 -561 
Q 2906 -266 2906 331 
L 2906 616 
Q 2728 306 2450 153 
Q 2172 0 1784 0 
Q 1141 0 747 490 
Q 353 981 353 1791 
Q 353 2603 747 3093 
Q 1141 3584 1784 3584 
Q 2172 3584 2450 3431 
Q 2728 3278 2906 2969 
L 2906 3500 
L 3481 3500 
L 3481 434 
z
" transform="scale(0.015625)"/>
     <path id="DejaVuSans-73" d="M 2834 3397 
L 2834 2853 
Q 2591 2978 2328 3040 
Q 2066 3103 1784 3103 
Q 1356 3103 1142 2972 
Q 928 2841 928 2578 
Q 928 2378 1081 2264 
Q 1234 2150 1697 2047 
L 1894 2003 
Q 2506 1872 2764 1633 
Q 3022 1394 3022 966 
Q 3022 478 2636 193 
Q 2250 -91 1575 -91 
Q 1294 -91 989 -36 
Q 684 19 347 128 
L 347 722 
Q 666 556 975 473 
Q 1284 391 1588 391 
Q 1994 391 2212 530 
Q 2431 669 2431 922 
Q 2431 1156 2273 1281 
Q 2116 1406 1581 1522 
L 1381 1569 
Q 847 1681 609 1914 
Q 372 2147 372 2553 
Q 372 3047 722 3315 
Q 1072 3584 1716 3584 
Q 2034 3584 2315 3537 
Q 2597 3491 2834 3397 
z
" transform="scale(0.015625)"/>
    </defs>
    <use xlink:href="#DejaVuSans-53"/>
    <use xlink:href="#DejaVuSans-63" x="63.476562"/>
    <use xlink:href="#DejaVuSans-61" x="118.457031"/>
    <use xlink:href="#DejaVuSans-74" x="179.736328"/>
    <use xlink:href="#DejaVuSans-74" x="218.945312"/>
    <use xlink:href="#DejaVuSans-65" x="258.154297"/>
    <use xlink:href="#DejaVuSans-72" x="319.677734"/>
    <use xlink:href="#DejaVuSans-70" x="360.791016"/>
    <use xlink:href="#DejaVuSans-6c" x="424.267578"/>
    <use xlink:href="#DejaVuSans-6f" x="452.050781"/>
    <use xlink:href="#DejaVuSans-74" x="513.232422"/>
    <use xlink:href="#DejaVuSans-20" x="552.441406"/>
    <use xlink:href="#DejaVuSans-77" x="584.228516"/>
    <use xlink:href="#DejaVuSans-69" x="666.015625"/>
    <use xlink:href="#DejaVuSans-74" x="693.798828"/>
    <use xlink:href="#DejaVuSans-68" x="733.007812"/>
    <use xlink:href="#DejaVuSans-20" x="796.386719"/>
    <use xlink:href="#DejaVuSans-4c" x="828.173828"/>
    <use xlink:href="#DejaVuSans-69" x="883.886719"/>
    <use xlink:href="#DejaVuSans-6e" x="911.669922"/>
    <use xlink:href="#DejaVuSans-65" x="975.048828"/>
    <use xlink:href="#DejaVuSans-61" x="1036.572266"/>
    <use xlink:href="#DejaVuSans-72" x="1097.851562"/>
    <use xlink:href="#DejaVuSans-20" x="1138.964844"/>
    <use xlink:href="#DejaVuSans-52" x="1170.751953"/>
    <use xlink:href="#DejaVuSans-65" x="1235.734375"/>
    <use xlink:href="#DejaVuSans-67" x="1297.257812"/>
    <use xlink:href="#DejaVuSans-72" x="1360.734375"/>
    <use xlink:href="#DejaVuSans-65" x="1399.597656"/>
    <use xlink:href="#DejaVuSans-73" x="1461.121094"/>
    <use xlink:href="#DejaVuSans-73" x="1513.220703"/>
    <use xlink:href="#DejaVuSans-69" x="1565.320312"/>
    <use xlink:href="#DejaVuSans-6f" x="1593.103516"/>
    <use xlink:href="#DejaVuSans-6e" x="1654.285156"/>
   </g>
  </g>
 </g>
 <defs>
  <clipPath id="pedfe5fb340">
   <rect x="72" y="34.56" width="446.4" height="221.76"/>
  </clipPath>
 </defs>
</svg>
