<?xml version="1.0" encoding="utf-8" standalone="no"?>
<!DOCTYPE svg PUBLIC "-//W3C//DTD SVG 1.1//EN"
  "http://www.w3.org/Graphics/SVG/1.1/DTD/svg11.dtd">
<svg xmlns:xlink="http://www.w3.org/1999/xlink" width="576pt" height="576pt" viewBox="0 0 576 576" xmlns="http://www.w3.org/2000/svg" version="1.1">
 <metadata>
  <rdf:RDF xmlns:dc="http://purl.org/dc/elements/1.1/" xmlns:cc="http://creativecommons.org/ns#" xmlns:rdf="http://www.w3.org/1999/02/22-rdf-syntax-ns#">
   <cc:Work>
    <dc:type rdf:resource="http://purl.org/dc/dcmitype/StillImage"/>
    <dc:date>2023-11-25T18:39:00.909796</dc:date>
    <dc:format>image/svg+xml</dc:format>
    <dc:creator>
     <cc:Agent>
      <dc:title>Matplotlib v3.8.1, https://matplotlib.org/</dc:title>
     </cc:Agent>
    </dc:creator>
   </cc:Work>
  </rdf:RDF>
 </metadata>
 <defs>
  <style type="text/css">*{stroke-linejoin: round; stroke-linecap: butt}</style>
 </defs>
 <g id="figure_1">
  <g id="patch_1">
   <path d="M 0 576 
L 576 576 
L 576 0 
L 0 0 
z
" style="fill: #ffffff"/>
  </g>
  <g id="axes_1">
   <g id="patch_2">
    <path d="M 72 199.567059 
L 518.4 199.567059 
L 518.4 69.12 
L 72 69.12 
z
" style="fill: #ffffff"/>
   </g>
   <g id="matplotlib.axis_1">
    <g id="xtick_1">
     <g id="line2d_1">
      <defs>
       <path id="m97bcc67c38" d="M 0 0 
L 0 3.5 
" style="stroke: #000000; stroke-width: 0.8"/>
      </defs>
      <g>
       <use xlink:href="#m97bcc67c38" x="94.330196" y="199.567059" style="stroke: #000000; stroke-width: 0.8"/>
      </g>
     </g>
    </g>
    <g id="xtick_2">
     <g id="line2d_2">
      <g>
       <use xlink:href="#m97bcc67c38" x="157.548104" y="199.567059" style="stroke: #000000; stroke-width: 0.8"/>
      </g>
     </g>
    </g>
    <g id="xtick_3">
     <g id="line2d_3">
      <g>
       <use xlink:href="#m97bcc67c38" x="216.687437" y="199.567059" style="stroke: #000000; stroke-width: 0.8"/>
      </g>
     </g>
    </g>
    <g id="xtick_4">
     <g id="line2d_4">
      <g>
       <use xlink:href="#m97bcc67c38" x="279.905345" y="199.567059" style="stroke: #000000; stroke-width: 0.8"/>
      </g>
     </g>
    </g>
    <g id="xtick_5">
     <g id="line2d_5">
      <g>
       <use xlink:href="#m97bcc67c38" x="341.083965" y="199.567059" style="stroke: #000000; stroke-width: 0.8"/>
      </g>
     </g>
    </g>
    <g id="xtick_6">
     <g id="line2d_6">
      <g>
       <use xlink:href="#m97bcc67c38" x="404.301873" y="199.567059" style="stroke: #000000; stroke-width: 0.8"/>
      </g>
     </g>
    </g>
    <g id="xtick_7">
     <g id="line2d_7">
      <g>
       <use xlink:href="#m97bcc67c38" x="465.480493" y="199.567059" style="stroke: #000000; stroke-width: 0.8"/>
      </g>
     </g>
    </g>
   </g>
   <g id="matplotlib.axis_2">
    <g id="ytick_1">
     <g id="line2d_8">
      <defs>
       <path id="m203447de82" d="M 0 0 
L -3.5 0 
" style="stroke: #000000; stroke-width: 0.8"/>
      </defs>
      <g>
       <use xlink:href="#m203447de82" x="72" y="197.099172" style="stroke: #000000; stroke-width: 0.8"/>
      </g>
     </g>
     <g id="text_1">
      <!-- −10 -->
      <g transform="translate(43.895313 200.898391) scale(0.1 -0.1)">
       <defs>
        <path id="DejaVuSans-2212" d="M 678 2272 
L 4684 2272 
L 4684 1741 
L 678 1741 
L 678 2272 
z
" transform="scale(0.015625)"/>
        <path id="DejaVuSans-31" d="M 794 531 
L 1825 531 
L 1825 4091 
L 703 3866 
L 703 4441 
L 1819 4666 
L 2450 4666 
L 2450 531 
L 3481 531 
L 3481 0 
L 794 0 
L 794 531 
z
" transform="scale(0.015625)"/>
        <path id="DejaVuSans-30" d="M 2034 4250 
Q 1547 4250 1301 3770 
Q 1056 3291 1056 2328 
Q 1056 1369 1301 889 
Q 1547 409 2034 409 
Q 2525 409 2770 889 
Q 3016 1369 3016 2328 
Q 3016 3291 2770 3770 
Q 2525 4250 2034 4250 
z
M 2034 4750 
Q 2819 4750 3233 4129 
Q 3647 3509 3647 2328 
Q 3647 1150 3233 529 
Q 2819 -91 2034 -91 
Q 1250 -91 836 529 
Q 422 1150 422 2328 
Q 422 3509 836 4129 
Q 1250 4750 2034 4750 
z
" transform="scale(0.015625)"/>
       </defs>
       <use xlink:href="#DejaVuSans-2212"/>
       <use xlink:href="#DejaVuSans-31" x="83.789062"/>
       <use xlink:href="#DejaVuSans-30" x="147.412109"/>
      </g>
     </g>
    </g>
    <g id="ytick_2">
     <g id="line2d_9">
      <g>
       <use xlink:href="#m203447de82" x="72" y="169.958639" style="stroke: #000000; stroke-width: 0.8"/>
      </g>
     </g>
     <g id="text_2">
      <!-- 0 -->
      <g transform="translate(58.6375 173.757858) scale(0.1 -0.1)">
       <use xlink:href="#DejaVuSans-30"/>
      </g>
     </g>
    </g>
    <g id="ytick_3">
     <g id="line2d_10">
      <g>
       <use xlink:href="#m203447de82" x="72" y="142.818106" style="stroke: #000000; stroke-width: 0.8"/>
      </g>
     </g>
     <g id="text_3">
      <!-- 10 -->
      <g transform="translate(52.275 146.617325) scale(0.1 -0.1)">
       <use xlink:href="#DejaVuSans-31"/>
       <use xlink:href="#DejaVuSans-30" x="63.623047"/>
      </g>
     </g>
    </g>
    <g id="ytick_4">
     <g id="line2d_11">
      <g>
       <use xlink:href="#m203447de82" x="72" y="115.677573" style="stroke: #000000; stroke-width: 0.8"/>
      </g>
     </g>
     <g id="text_4">
      <!-- 20 -->
      <g transform="translate(52.275 119.476792) scale(0.1 -0.1)">
       <defs>
        <path id="DejaVuSans-32" d="M 1228 531 
L 3431 531 
L 3431 0 
L 469 0 
L 469 531 
Q 828 903 1448 1529 
Q 2069 2156 2228 2338 
Q 2531 2678 2651 2914 
Q 2772 3150 2772 3378 
Q 2772 3750 2511 3984 
Q 2250 4219 1831 4219 
Q 1534 4219 1204 4116 
Q 875 4013 500 3803 
L 500 4441 
Q 881 4594 1212 4672 
Q 1544 4750 1819 4750 
Q 2544 4750 2975 4387 
Q 3406 4025 3406 3419 
Q 3406 3131 3298 2873 
Q 3191 2616 2906 2266 
Q 2828 2175 2409 1742 
Q 1991 1309 1228 531 
z
" transform="scale(0.015625)"/>
       </defs>
       <use xlink:href="#DejaVuSans-32"/>
       <use xlink:href="#DejaVuSans-30" x="63.623047"/>
      </g>
     </g>
    </g>
    <g id="ytick_5">
     <g id="line2d_12">
      <g>
       <use xlink:href="#m203447de82" x="72" y="88.53704" style="stroke: #000000; stroke-width: 0.8"/>
      </g>
     </g>
     <g id="text_5">
      <!-- 30 -->
      <g transform="translate(52.275 92.336259) scale(0.1 -0.1)">
       <defs>
        <path id="DejaVuSans-33" d="M 2597 2516 
Q 3050 2419 3304 2112 
Q 3559 1806 3559 1356 
Q 3559 666 3084 287 
Q 2609 -91 1734 -91 
Q 1441 -91 1130 -33 
Q 819 25 488 141 
L 488 750 
Q 750 597 1062 519 
Q 1375 441 1716 441 
Q 2309 441 2620 675 
Q 2931 909 2931 1356 
Q 2931 1769 2642 2001 
Q 2353 2234 1838 2234 
L 1294 2234 
L 1294 2753 
L 1863 2753 
Q 2328 2753 2575 2939 
Q 2822 3125 2822 3475 
Q 2822 3834 2567 4026 
Q 2313 4219 1838 4219 
Q 1578 4219 1281 4162 
Q 984 4106 628 3988 
L 628 4550 
Q 988 4650 1302 4700 
Q 1616 4750 1894 4750 
Q 2613 4750 3031 4423 
Q 3450 4097 3450 3541 
Q 3450 3153 3228 2886 
Q 3006 2619 2597 2516 
z
" transform="scale(0.015625)"/>
       </defs>
       <use xlink:href="#DejaVuSans-33"/>
       <use xlink:href="#DejaVuSans-30" x="63.623047"/>
      </g>
     </g>
    </g>
    <g id="text_6">
     <!-- Cum. sum -->
     <g transform="translate(37.815625 159.695873) rotate(-90) scale(0.1 -0.1)">
      <defs>
       <path id="DejaVuSans-43" d="M 4122 4306 
L 4122 3641 
Q 3803 3938 3442 4084 
Q 3081 4231 2675 4231 
Q 1875 4231 1450 3742 
Q 1025 3253 1025 2328 
Q 1025 1406 1450 917 
Q 1875 428 2675 428 
Q 3081 428 3442 575 
Q 3803 722 4122 1019 
L 4122 359 
Q 3791 134 3420 21 
Q 3050 -91 2638 -91 
Q 1578 -91 968 557 
Q 359 1206 359 2328 
Q 359 3453 968 4101 
Q 1578 4750 2638 4750 
Q 3056 4750 3426 4639 
Q 3797 4528 4122 4306 
z
" transform="scale(0.015625)"/>
       <path id="DejaVuSans-75" d="M 544 1381 
L 544 3500 
L 1119 3500 
L 1119 1403 
Q 1119 906 1312 657 
Q 1506 409 1894 409 
Q 2359 409 2629 706 
Q 2900 1003 2900 1516 
L 2900 3500 
L 3475 3500 
L 3475 0 
L 2900 0 
L 2900 538 
Q 2691 219 2414 64 
Q 2138 -91 1772 -91 
Q 1169 -91 856 284 
Q 544 659 544 1381 
z
M 1991 3584 
L 1991 3584 
z
" transform="scale(0.015625)"/>
       <path id="DejaVuSans-6d" d="M 3328 2828 
Q 3544 3216 3844 3400 
Q 4144 3584 4550 3584 
Q 5097 3584 5394 3201 
Q 5691 2819 5691 2113 
L 5691 0 
L 5113 0 
L 5113 2094 
Q 5113 2597 4934 2840 
Q 4756 3084 4391 3084 
Q 3944 3084 3684 2787 
Q 3425 2491 3425 1978 
L 3425 0 
L 2847 0 
L 2847 2094 
Q 2847 2600 2669 2842 
Q 2491 3084 2119 3084 
Q 1678 3084 1418 2786 
Q 1159 2488 1159 1978 
L 1159 0 
L 581 0 
L 581 3500 
L 1159 3500 
L 1159 2956 
Q 1356 3278 1631 3431 
Q 1906 3584 2284 3584 
Q 2666 3584 2933 3390 
Q 3200 3197 3328 2828 
z
" transform="scale(0.015625)"/>
       <path id="DejaVuSans-2e" d="M 684 794 
L 1344 794 
L 1344 0 
L 684 0 
L 684 794 
z
" transform="scale(0.015625)"/>
       <path id="DejaVuSans-20" transform="scale(0.015625)"/>
       <path id="DejaVuSans-73" d="M 2834 3397 
L 2834 2853 
Q 2591 2978 2328 3040 
Q 2066 3103 1784 3103 
Q 1356 3103 1142 2972 
Q 928 2841 928 2578 
Q 928 2378 1081 2264 
Q 1234 2150 1697 2047 
L 1894 2003 
Q 2506 1872 2764 1633 
Q 3022 1394 3022 966 
Q 3022 478 2636 193 
Q 2250 -91 1575 -91 
Q 1294 -91 989 -36 
Q 684 19 347 128 
L 347 722 
Q 666 556 975 473 
Q 1284 391 1588 391 
Q 1994 391 2212 530 
Q 2431 669 2431 922 
Q 2431 1156 2273 1281 
Q 2116 1406 1581 1522 
L 1381 1569 
Q 847 1681 609 1914 
Q 372 2147 372 2553 
Q 372 3047 722 3315 
Q 1072 3584 1716 3584 
Q 2034 3584 2315 3537 
Q 2597 3491 2834 3397 
z
" transform="scale(0.015625)"/>
      </defs>
      <use xlink:href="#DejaVuSans-43"/>
      <use xlink:href="#DejaVuSans-75" x="69.824219"/>
      <use xlink:href="#DejaVuSans-6d" x="133.203125"/>
      <use xlink:href="#DejaVuSans-2e" x="230.615234"/>
      <use xlink:href="#DejaVuSans-20" x="262.402344"/>
      <use xlink:href="#DejaVuSans-73" x="294.189453"/>
      <use xlink:href="#DejaVuSans-75" x="346.289062"/>
      <use xlink:href="#DejaVuSans-6d" x="409.667969"/>
     </g>
    </g>
   </g>
   <g id="line2d_13">
    <path d="M 92.290909 167.979904 
L 94.330196 162.761416 
L 96.369484 167.348406 
L 98.408771 170.108948 
L 100.448058 169.036617 
L 104.526633 167.465115 
L 106.565921 168.332043 
L 108.605208 171.410774 
L 110.644495 168.225708 
L 112.683783 171.477517 
L 114.72307 173.091336 
L 116.762357 173.675521 
L 118.801645 172.2969 
L 120.840932 173.684405 
L 122.880219 178.552295 
L 124.919507 173.868901 
L 126.958794 173.479399 
L 128.998081 171.939042 
L 131.037369 171.038845 
L 133.076656 173.765674 
L 135.115943 172.908808 
L 137.155231 169.325838 
L 139.194518 166.561632 
L 141.233805 167.065288 
L 143.273093 171.395193 
L 145.31238 171.862292 
L 147.351667 169.715305 
L 149.390955 168.278372 
L 151.430242 169.216302 
L 153.469529 166.773679 
L 155.508817 167.505548 
L 157.548104 161.544829 
L 159.587392 161.009725 
L 161.626679 156.994341 
L 163.665966 156.198439 
L 165.705254 157.732492 
L 167.744541 159.032014 
L 169.783828 156.624568 
L 171.823116 157.809035 
L 173.862403 157.985196 
L 175.90169 157.776774 
L 177.940978 156.519056 
L 179.980265 157.611132 
L 182.019552 161.736995 
L 184.05884 162.964407 
L 186.098127 161.482803 
L 188.137414 160.561151 
L 190.176702 158.362099 
L 192.215989 154.449431 
L 194.255276 153.934299 
L 196.294564 156.972158 
L 198.333851 159.459522 
L 200.373138 160.82667 
L 202.412426 158.731294 
L 204.451713 158.937944 
L 206.491 163.248324 
L 208.530288 159.810082 
L 210.569575 158.825572 
L 212.608862 159.174867 
L 214.64815 161.460348 
L 216.687437 160.236271 
L 218.726725 164.076503 
L 220.766012 165.241068 
L 222.805299 169.722966 
L 224.844587 168.077944 
L 226.883874 169.969135 
L 228.923161 167.109563 
L 230.962449 162.680399 
L 233.001736 161.054196 
L 235.041023 162.08028 
L 237.080311 159.703824 
L 239.119598 160.801764 
L 241.158885 161.697511 
L 243.198173 164.863545 
L 245.23746 162.8983 
L 247.276747 165.34274 
L 249.316035 166.811452 
L 251.355322 166.70633 
L 253.394609 168.160001 
L 255.433897 168.309293 
L 257.473184 166.723613 
L 259.512471 166.634253 
L 261.551759 167.035402 
L 263.591046 166.870642 
L 265.630333 168.261363 
L 267.669621 168.018458 
L 269.708908 167.961267 
L 271.748196 163.515162 
L 273.787483 162.748656 
L 275.82677 160.728225 
L 277.866058 158.102696 
L 279.905345 158.023074 
L 281.944632 154.754858 
L 283.98392 154.629379 
L 286.023207 158.656364 
L 288.062494 157.750695 
L 290.101782 156.526086 
L 292.141069 159.644388 
L 294.180356 161.495475 
L 296.219644 161.995395 
L 298.258931 163.131586 
L 300.298218 163.345275 
L 302.337506 161.608272 
L 304.376793 160.220772 
L 306.41608 153.261364 
L 308.455368 147.10523 
L 310.494655 142.984444 
L 312.533942 143.722438 
L 314.57323 147.68167 
L 316.612517 145.137502 
L 318.651804 143.54194 
L 320.691092 141.734585 
L 322.730379 142.146728 
L 324.769667 141.175638 
L 326.808954 140.901863 
L 328.848241 141.723431 
L 330.887529 138.813292 
L 332.926816 140.197631 
L 334.966103 132.117213 
L 337.005391 128.741996 
L 339.044678 124.868206 
L 341.083965 128.042485 
L 343.123253 128.900527 
L 345.16254 132.280563 
L 347.201827 131.995241 
L 349.241115 133.657934 
L 351.280402 127.520904 
L 353.319689 127.253272 
L 357.398264 119.1068 
L 359.437551 118.603947 
L 361.476839 122.561206 
L 363.516126 126.198715 
L 365.555413 124.914322 
L 367.594701 123.805138 
L 369.633988 127.819773 
L 371.673275 128.456597 
L 373.712563 127.524678 
L 375.75185 129.000808 
L 377.791138 129.074332 
L 379.830425 132.797227 
L 381.869712 132.250913 
L 383.909 136.269082 
L 385.948287 135.026175 
L 387.987574 137.305962 
L 390.026862 133.272478 
L 392.066149 135.993761 
L 394.105436 136.809795 
L 396.144724 136.724194 
L 398.184011 133.266929 
L 400.223298 133.629131 
L 402.262586 130.823403 
L 404.301873 127.577458 
L 406.34116 130.417545 
L 408.380448 133.986103 
L 410.419735 133.82613 
L 414.49831 137.636091 
L 416.537597 132.818342 
L 418.576884 130.439493 
L 420.616172 132.6702 
L 422.655459 130.424887 
L 424.694746 125.364663 
L 426.734034 124.386282 
L 428.773321 131.851219 
L 430.812608 131.704799 
L 432.851896 135.871644 
L 434.891183 137.996767 
L 436.930471 141.215553 
L 438.969758 135.176254 
L 441.009045 136.053651 
L 443.048333 134.946458 
L 445.08762 136.561761 
L 447.126907 139.930193 
L 449.166195 141.128554 
L 451.205482 139.814303 
L 453.244769 141.245875 
L 455.284057 136.095936 
L 457.323344 134.1853 
L 459.362631 134.10976 
L 461.401919 136.536193 
L 463.441206 135.102614 
L 465.480493 139.58589 
L 467.519781 135.117958 
L 469.559068 137.015755 
L 471.598355 133.673456 
L 473.637643 135.98884 
L 475.67693 136.022147 
L 477.716217 134.802285 
L 479.755505 137.247253 
L 481.794792 138.176445 
L 483.834079 142.291202 
L 485.873367 135.339686 
L 487.912654 130.913439 
L 489.951942 131.966912 
L 491.991229 133.406494 
L 494.030516 135.946675 
L 498.109091 138.762493 
L 498.109091 138.762493 
" clip-path="url(#p5fad62650b)" style="fill: none; stroke: #0000ff; stroke-width: 2; stroke-linecap: square"/>
   </g>
   <g id="patch_3">
    <path d="M 72 199.567059 
L 72 69.12 
" style="fill: none; stroke: #000000; stroke-width: 0.8; stroke-linejoin: miter; stroke-linecap: square"/>
   </g>
   <g id="patch_4">
    <path d="M 518.4 199.567059 
L 518.4 69.12 
" style="fill: none; stroke: #000000; stroke-width: 0.8; stroke-linejoin: miter; stroke-linecap: square"/>
   </g>
   <g id="patch_5">
    <path d="M 72 199.567059 
L 518.4 199.567059 
" style="fill: none; stroke: #000000; stroke-width: 0.8; stroke-linejoin: miter; stroke-linecap: square"/>
   </g>
   <g id="patch_6">
    <path d="M 72 69.12 
L 518.4 69.12 
" style="fill: none; stroke: #000000; stroke-width: 0.8; stroke-linejoin: miter; stroke-linecap: square"/>
   </g>
   <g id="legend_1">
    <g id="patch_7">
     <path d="M 77.831 88.010878 
L 117.613258 88.010878 
Q 119.279258 88.010878 119.279258 86.344878 
L 119.279258 74.951 
Q 119.279258 73.285 117.613258 73.285 
L 77.831 73.285 
Q 76.165 73.285 76.165 74.951 
L 76.165 86.344878 
Q 76.165 88.010878 77.831 88.010878 
z
" style="fill: #ffffff; opacity: 0.5; stroke: #cccccc; stroke-linejoin: miter"/>
    </g>
    <g id="line2d_14">
     <path d="M 79.497 80.030998 
L 87.827 80.030998 
L 96.157 80.030998 
" style="fill: none; stroke: #0000ff; stroke-width: 2; stroke-linecap: square"/>
    </g>
    <g id="text_7">
     <!-- foo -->
     <g transform="translate(102.821 82.946498) scale(0.0833 -0.0833)">
      <defs>
       <path id="DejaVuSans-66" d="M 2375 4863 
L 2375 4384 
L 1825 4384 
Q 1516 4384 1395 4259 
Q 1275 4134 1275 3809 
L 1275 3500 
L 2222 3500 
L 2222 3053 
L 1275 3053 
L 1275 0 
L 697 0 
L 697 3053 
L 147 3053 
L 147 3500 
L 697 3500 
L 697 3744 
Q 697 4328 969 4595 
Q 1241 4863 1831 4863 
L 2375 4863 
z
" transform="scale(0.015625)"/>
       <path id="DejaVuSans-6f" d="M 1959 3097 
Q 1497 3097 1228 2736 
Q 959 2375 959 1747 
Q 959 1119 1226 758 
Q 1494 397 1959 397 
Q 2419 397 2687 759 
Q 2956 1122 2956 1747 
Q 2956 2369 2687 2733 
Q 2419 3097 1959 3097 
z
M 1959 3584 
Q 2709 3584 3137 3096 
Q 3566 2609 3566 1747 
Q 3566 888 3137 398 
Q 2709 -91 1959 -91 
Q 1206 -91 779 398 
Q 353 888 353 1747 
Q 353 2609 779 3096 
Q 1206 3584 1959 3584 
z
" transform="scale(0.015625)"/>
      </defs>
      <use xlink:href="#DejaVuSans-66"/>
      <use xlink:href="#DejaVuSans-6f" x="35.205078"/>
      <use xlink:href="#DejaVuSans-6f" x="96.386719"/>
     </g>
    </g>
   </g>
  </g>
  <g id="axes_2">
   <g id="patch_8">
    <path d="M 72 356.103529 
L 518.4 356.103529 
L 518.4 225.656471 
L 72 225.656471 
z
" style="fill: #ffffff"/>
   </g>
   <g id="matplotlib.axis_3">
    <g id="xtick_8">
     <g id="line2d_15">
      <g>
       <use xlink:href="#m97bcc67c38" x="94.330196" y="356.103529" style="stroke: #000000; stroke-width: 0.8"/>
      </g>
     </g>
    </g>
    <g id="xtick_9">
     <g id="line2d_16">
      <g>
       <use xlink:href="#m97bcc67c38" x="157.548104" y="356.103529" style="stroke: #000000; stroke-width: 0.8"/>
      </g>
     </g>
    </g>
    <g id="xtick_10">
     <g id="line2d_17">
      <g>
       <use xlink:href="#m97bcc67c38" x="216.687437" y="356.103529" style="stroke: #000000; stroke-width: 0.8"/>
      </g>
     </g>
    </g>
    <g id="xtick_11">
     <g id="line2d_18">
      <g>
       <use xlink:href="#m97bcc67c38" x="279.905345" y="356.103529" style="stroke: #000000; stroke-width: 0.8"/>
      </g>
     </g>
    </g>
    <g id="xtick_12">
     <g id="line2d_19">
      <g>
       <use xlink:href="#m97bcc67c38" x="341.083965" y="356.103529" style="stroke: #000000; stroke-width: 0.8"/>
      </g>
     </g>
    </g>
    <g id="xtick_13">
     <g id="line2d_20">
      <g>
       <use xlink:href="#m97bcc67c38" x="404.301873" y="356.103529" style="stroke: #000000; stroke-width: 0.8"/>
      </g>
     </g>
    </g>
    <g id="xtick_14">
     <g id="line2d_21">
      <g>
       <use xlink:href="#m97bcc67c38" x="465.480493" y="356.103529" style="stroke: #000000; stroke-width: 0.8"/>
      </g>
     </g>
    </g>
   </g>
   <g id="matplotlib.axis_4">
    <g id="ytick_6">
     <g id="line2d_22">
      <g>
       <use xlink:href="#m203447de82" x="72" y="353.635643" style="stroke: #000000; stroke-width: 0.8"/>
      </g>
     </g>
     <g id="text_8">
      <!-- −10 -->
      <g transform="translate(43.895313 357.434861) scale(0.1 -0.1)">
       <use xlink:href="#DejaVuSans-2212"/>
       <use xlink:href="#DejaVuSans-31" x="83.789062"/>
       <use xlink:href="#DejaVuSans-30" x="147.412109"/>
      </g>
     </g>
    </g>
    <g id="ytick_7">
     <g id="line2d_23">
      <g>
       <use xlink:href="#m203447de82" x="72" y="326.49511" style="stroke: #000000; stroke-width: 0.8"/>
      </g>
     </g>
     <g id="text_9">
      <!-- 0 -->
      <g transform="translate(58.6375 330.294328) scale(0.1 -0.1)">
       <use xlink:href="#DejaVuSans-30"/>
      </g>
     </g>
    </g>
    <g id="ytick_8">
     <g id="line2d_24">
      <g>
       <use xlink:href="#m203447de82" x="72" y="299.354577" style="stroke: #000000; stroke-width: 0.8"/>
      </g>
     </g>
     <g id="text_10">
      <!-- 10 -->
      <g transform="translate(52.275 303.153795) scale(0.1 -0.1)">
       <use xlink:href="#DejaVuSans-31"/>
       <use xlink:href="#DejaVuSans-30" x="63.623047"/>
      </g>
     </g>
    </g>
    <g id="ytick_9">
     <g id="line2d_25">
      <g>
       <use xlink:href="#m203447de82" x="72" y="272.214044" style="stroke: #000000; stroke-width: 0.8"/>
      </g>
     </g>
     <g id="text_11">
      <!-- 20 -->
      <g transform="translate(52.275 276.013262) scale(0.1 -0.1)">
       <use xlink:href="#DejaVuSans-32"/>
       <use xlink:href="#DejaVuSans-30" x="63.623047"/>
      </g>
     </g>
    </g>
    <g id="ytick_10">
     <g id="line2d_26">
      <g>
       <use xlink:href="#m203447de82" x="72" y="245.073511" style="stroke: #000000; stroke-width: 0.8"/>
      </g>
     </g>
     <g id="text_12">
      <!-- 30 -->
      <g transform="translate(52.275 248.872729) scale(0.1 -0.1)">
       <use xlink:href="#DejaVuSans-33"/>
       <use xlink:href="#DejaVuSans-30" x="63.623047"/>
      </g>
     </g>
    </g>
    <g id="text_13">
     <!-- Cum. sum -->
     <g transform="translate(37.815625 316.232344) rotate(-90) scale(0.1 -0.1)">
      <use xlink:href="#DejaVuSans-43"/>
      <use xlink:href="#DejaVuSans-75" x="69.824219"/>
      <use xlink:href="#DejaVuSans-6d" x="133.203125"/>
      <use xlink:href="#DejaVuSans-2e" x="230.615234"/>
      <use xlink:href="#DejaVuSans-20" x="262.402344"/>
      <use xlink:href="#DejaVuSans-73" x="294.189453"/>
      <use xlink:href="#DejaVuSans-75" x="346.289062"/>
      <use xlink:href="#DejaVuSans-6d" x="409.667969"/>
     </g>
    </g>
   </g>
   <g id="line2d_27">
    <path d="M 92.290909 327.494814 
L 94.330196 331.337432 
L 96.369484 330.020647 
L 98.408771 329.504681 
L 100.448058 328.704632 
L 102.487346 325.183432 
L 104.526633 331.93775 
L 106.565921 335.064695 
L 108.605208 334.954316 
L 110.644495 335.603998 
L 112.683783 331.7458 
L 114.72307 338.469977 
L 116.762357 335.893663 
L 118.801645 335.106653 
L 120.840932 335.016949 
L 122.880219 332.905712 
L 124.919507 332.908155 
L 126.958794 335.122001 
L 128.998081 335.690501 
L 131.037369 336.942256 
L 133.076656 334.670358 
L 135.115943 331.809693 
L 137.155231 332.950967 
L 139.194518 329.428514 
L 141.233805 332.754051 
L 143.273093 332.488525 
L 145.31238 337.014477 
L 147.351667 340.109247 
L 149.390955 341.446124 
L 151.430242 340.013764 
L 153.469529 345.805514 
L 155.508817 345.249901 
L 157.548104 341.217115 
L 159.587392 343.709299 
L 161.626679 344.429163 
L 163.665966 346.169153 
L 165.705254 345.967608 
L 167.744541 340.789358 
L 169.783828 340.948533 
L 171.823116 335.311684 
L 173.862403 334.726048 
L 175.90169 334.931055 
L 177.940978 332.257079 
L 179.980265 334.710913 
L 182.019552 330.536438 
L 184.05884 333.769083 
L 186.098127 335.911557 
L 188.137414 334.402991 
L 190.176702 330.749332 
L 194.255276 326.852673 
L 196.294564 325.204139 
L 198.333851 332.237098 
L 200.373138 330.313809 
L 202.412426 326.479887 
L 204.451713 325.060001 
L 206.491 323.942556 
L 208.530288 319.061076 
L 210.569575 318.788478 
L 212.608862 318.728719 
L 214.64815 320.170103 
L 216.687437 319.207412 
L 218.726725 322.299546 
L 220.766012 323.7737 
L 222.805299 325.388886 
L 224.844587 326.139017 
L 226.883874 324.852293 
L 228.923161 328.348465 
L 233.001736 327.963607 
L 235.041023 328.351189 
L 237.080311 329.58665 
L 239.119598 326.021228 
L 241.158885 329.762478 
L 243.198173 330.906616 
L 245.23746 331.84319 
L 247.276747 328.683955 
L 249.316035 327.54943 
L 251.355322 333.948398 
L 253.394609 334.161592 
L 255.433897 335.551653 
L 257.473184 336.71356 
L 259.512471 331.809081 
L 261.551759 338.930443 
L 263.591046 335.439032 
L 265.630333 337.048032 
L 267.669621 334.036974 
L 269.708908 331.534318 
L 271.748196 332.764457 
L 273.787483 332.01139 
L 275.82677 336.075966 
L 277.866058 339.682196 
L 279.905345 347.536996 
L 281.944632 350.174118 
L 283.98392 347.644877 
L 286.023207 348.096202 
L 288.062494 344.745374 
L 290.101782 348.177223 
L 292.141069 344.914905 
L 294.180356 342.659729 
L 296.219644 339.18544 
L 298.258931 340.989637 
L 300.298218 340.887599 
L 302.337506 337.091776 
L 304.376793 334.539609 
L 306.41608 335.114673 
L 308.455368 332.495585 
L 310.494655 332.572152 
L 312.533942 329.695959 
L 314.57323 327.540853 
L 316.612517 324.176524 
L 318.651804 327.34423 
L 320.691092 325.877213 
L 322.730379 323.895355 
L 324.769667 322.509929 
L 326.808954 326.174991 
L 328.848241 328.938561 
L 330.887529 326.007952 
L 332.926816 325.576623 
L 334.966103 324.049037 
L 337.005391 329.787132 
L 339.044678 329.025048 
L 341.083965 328.711528 
L 343.123253 322.452811 
L 345.16254 324.800812 
L 347.201827 322.767946 
L 349.241115 324.367799 
L 351.280402 324.693019 
L 353.319689 323.263559 
L 355.358977 326.889729 
L 357.398264 327.439574 
L 359.437551 324.702119 
L 361.476839 326.2114 
L 363.516126 324.828323 
L 365.555413 323.265491 
L 367.594701 325.294058 
L 369.633988 324.748342 
L 371.673275 318.146556 
L 373.712563 319.230125 
L 375.75185 316.35924 
L 377.791138 316.954913 
L 379.830425 317.118994 
L 381.869712 315.948875 
L 383.909 317.183946 
L 385.948287 315.242925 
L 387.987574 316.645887 
L 390.026862 314.478182 
L 392.066149 318.238223 
L 394.105436 318.57444 
L 396.144724 313.609827 
L 398.184011 313.430115 
L 400.223298 312.31512 
L 402.262586 313.580441 
L 404.301873 313.275136 
L 406.34116 313.869818 
L 408.380448 316.72909 
L 410.419735 318.990319 
L 412.459022 316.299148 
L 414.49831 317.015239 
L 416.537597 319.971528 
L 418.576884 322.62519 
L 420.616172 320.880697 
L 422.655459 322.07127 
L 424.694746 320.9801 
L 426.734034 327.043514 
L 428.773321 325.671582 
L 430.812608 321.325835 
L 432.851896 322.024255 
L 436.930471 320.33375 
L 438.969758 323.526423 
L 441.009045 325.084566 
L 443.048333 327.241284 
L 445.08762 324.030492 
L 447.126907 324.217082 
L 449.166195 325.076972 
L 451.205482 328.464764 
L 453.244769 324.765499 
L 455.284057 322.317726 
L 457.323344 321.782868 
L 459.362631 320.355654 
L 461.401919 321.452241 
L 463.441206 315.796266 
L 465.480493 318.819239 
L 467.519781 318.017066 
L 469.559068 318.852472 
L 471.598355 319.138125 
L 473.637643 316.08984 
L 475.67693 315.587717 
L 477.716217 312.654041 
L 479.755505 316.218413 
L 481.794792 320.184217 
L 483.834079 318.924531 
L 485.873367 319.001854 
L 487.912654 313.853034 
L 489.951942 315.57107 
L 491.991229 318.701964 
L 494.030516 322.836122 
L 496.069804 325.86582 
L 498.109091 329.3329 
L 498.109091 329.3329 
" clip-path="url(#p791d787f3b)" style="fill: none; stroke: #008000; stroke-width: 2; stroke-linecap: square"/>
   </g>
   <g id="patch_9">
    <path d="M 72 356.103529 
L 72 225.656471 
" style="fill: none; stroke: #000000; stroke-width: 0.8; stroke-linejoin: miter; stroke-linecap: square"/>
   </g>
   <g id="patch_10">
    <path d="M 518.4 356.103529 
L 518.4 225.656471 
" style="fill: none; stroke: #000000; stroke-width: 0.8; stroke-linejoin: miter; stroke-linecap: square"/>
   </g>
   <g id="patch_11">
    <path d="M 72 356.103529 
L 518.4 356.103529 
" style="fill: none; stroke: #000000; stroke-width: 0.8; stroke-linejoin: miter; stroke-linecap: square"/>
   </g>
   <g id="patch_12">
    <path d="M 72 225.656471 
L 518.4 225.656471 
" style="fill: none; stroke: #000000; stroke-width: 0.8; stroke-linejoin: miter; stroke-linecap: square"/>
   </g>
   <g id="legend_2">
    <g id="patch_13">
     <path d="M 77.831 244.547349 
L 118.304388 244.547349 
Q 119.970388 244.547349 119.970388 242.881349 
L 119.970388 231.487471 
Q 119.970388 229.821471 118.304388 229.821471 
L 77.831 229.821471 
Q 76.165 229.821471 76.165 231.487471 
L 76.165 242.881349 
Q 76.165 244.547349 77.831 244.547349 
z
" style="fill: #ffffff; opacity: 0.5; stroke: #cccccc; stroke-linejoin: miter"/>
    </g>
    <g id="line2d_28">
     <path d="M 79.497 236.567469 
L 87.827 236.567469 
L 96.157 236.567469 
" style="fill: none; stroke: #008000; stroke-width: 2; stroke-linecap: square"/>
    </g>
    <g id="text_14">
     <!-- bar -->
     <g transform="translate(102.821 239.482969) scale(0.0833 -0.0833)">
      <defs>
       <path id="DejaVuSans-62" d="M 3116 1747 
Q 3116 2381 2855 2742 
Q 2594 3103 2138 3103 
Q 1681 3103 1420 2742 
Q 1159 2381 1159 1747 
Q 1159 1113 1420 752 
Q 1681 391 2138 391 
Q 2594 391 2855 752 
Q 3116 1113 3116 1747 
z
M 1159 2969 
Q 1341 3281 1617 3432 
Q 1894 3584 2278 3584 
Q 2916 3584 3314 3078 
Q 3713 2572 3713 1747 
Q 3713 922 3314 415 
Q 2916 -91 2278 -91 
Q 1894 -91 1617 61 
Q 1341 213 1159 525 
L 1159 0 
L 581 0 
L 581 4863 
L 1159 4863 
L 1159 2969 
z
" transform="scale(0.015625)"/>
       <path id="DejaVuSans-61" d="M 2194 1759 
Q 1497 1759 1228 1600 
Q 959 1441 959 1056 
Q 959 750 1161 570 
Q 1363 391 1709 391 
Q 2188 391 2477 730 
Q 2766 1069 2766 1631 
L 2766 1759 
L 2194 1759 
z
M 3341 1997 
L 3341 0 
L 2766 0 
L 2766 531 
Q 2569 213 2275 61 
Q 1981 -91 1556 -91 
Q 1019 -91 701 211 
Q 384 513 384 1019 
Q 384 1609 779 1909 
Q 1175 2209 1959 2209 
L 2766 2209 
L 2766 2266 
Q 2766 2663 2505 2880 
Q 2244 3097 1772 3097 
Q 1472 3097 1187 3025 
Q 903 2953 641 2809 
L 641 3341 
Q 956 3463 1253 3523 
Q 1550 3584 1831 3584 
Q 2591 3584 2966 3190 
Q 3341 2797 3341 1997 
z
" transform="scale(0.015625)"/>
       <path id="DejaVuSans-72" d="M 2631 2963 
Q 2534 3019 2420 3045 
Q 2306 3072 2169 3072 
Q 1681 3072 1420 2755 
Q 1159 2438 1159 1844 
L 1159 0 
L 581 0 
L 581 3500 
L 1159 3500 
L 1159 2956 
Q 1341 3275 1631 3429 
Q 1922 3584 2338 3584 
Q 2397 3584 2469 3576 
Q 2541 3569 2628 3553 
L 2631 2963 
z
" transform="scale(0.015625)"/>
      </defs>
      <use xlink:href="#DejaVuSans-62"/>
      <use xlink:href="#DejaVuSans-61" x="63.476562"/>
      <use xlink:href="#DejaVuSans-72" x="124.755859"/>
     </g>
    </g>
   </g>
  </g>
  <g id="axes_3">
   <g id="patch_14">
    <path d="M 72 512.64 
L 518.4 512.64 
L 518.4 382.192941 
L 72 382.192941 
z
" style="fill: #ffffff"/>
   </g>
   <g id="matplotlib.axis_5">
    <g id="xtick_15">
     <g id="line2d_29">
      <g>
       <use xlink:href="#m97bcc67c38" x="94.330196" y="512.64" style="stroke: #000000; stroke-width: 0.8"/>
      </g>
     </g>
     <g id="text_15">
      <!-- 2024-01 -->
      <g transform="translate(73.43879 527.238438) scale(0.1 -0.1)">
       <defs>
        <path id="DejaVuSans-34" d="M 2419 4116 
L 825 1625 
L 2419 1625 
L 2419 4116 
z
M 2253 4666 
L 3047 4666 
L 3047 1625 
L 3713 1625 
L 3713 1100 
L 3047 1100 
L 3047 0 
L 2419 0 
L 2419 1100 
L 313 1100 
L 313 1709 
L 2253 4666 
z
" transform="scale(0.015625)"/>
        <path id="DejaVuSans-2d" d="M 313 2009 
L 1997 2009 
L 1997 1497 
L 313 1497 
L 313 2009 
z
" transform="scale(0.015625)"/>
       </defs>
       <use xlink:href="#DejaVuSans-32"/>
       <use xlink:href="#DejaVuSans-30" x="63.623047"/>
       <use xlink:href="#DejaVuSans-32" x="127.246094"/>
       <use xlink:href="#DejaVuSans-34" x="190.869141"/>
       <use xlink:href="#DejaVuSans-2d" x="254.492188"/>
       <use xlink:href="#DejaVuSans-30" x="290.576172"/>
       <use xlink:href="#DejaVuSans-31" x="354.199219"/>
      </g>
     </g>
    </g>
    <g id="xtick_16">
     <g id="line2d_30">
      <g>
       <use xlink:href="#m97bcc67c38" x="157.548104" y="512.64" style="stroke: #000000; stroke-width: 0.8"/>
      </g>
     </g>
     <g id="text_16">
      <!-- 2024-02 -->
      <g transform="translate(136.656698 527.238438) scale(0.1 -0.1)">
       <use xlink:href="#DejaVuSans-32"/>
       <use xlink:href="#DejaVuSans-30" x="63.623047"/>
       <use xlink:href="#DejaVuSans-32" x="127.246094"/>
       <use xlink:href="#DejaVuSans-34" x="190.869141"/>
       <use xlink:href="#DejaVuSans-2d" x="254.492188"/>
       <use xlink:href="#DejaVuSans-30" x="290.576172"/>
       <use xlink:href="#DejaVuSans-32" x="354.199219"/>
      </g>
     </g>
    </g>
    <g id="xtick_17">
     <g id="line2d_31">
      <g>
       <use xlink:href="#m97bcc67c38" x="216.687437" y="512.64" style="stroke: #000000; stroke-width: 0.8"/>
      </g>
     </g>
     <g id="text_17">
      <!-- 2024-03 -->
      <g transform="translate(195.796031 527.238438) scale(0.1 -0.1)">
       <use xlink:href="#DejaVuSans-32"/>
       <use xlink:href="#DejaVuSans-30" x="63.623047"/>
       <use xlink:href="#DejaVuSans-32" x="127.246094"/>
       <use xlink:href="#DejaVuSans-34" x="190.869141"/>
       <use xlink:href="#DejaVuSans-2d" x="254.492188"/>
       <use xlink:href="#DejaVuSans-30" x="290.576172"/>
       <use xlink:href="#DejaVuSans-33" x="354.199219"/>
      </g>
     </g>
    </g>
    <g id="xtick_18">
     <g id="line2d_32">
      <g>
       <use xlink:href="#m97bcc67c38" x="279.905345" y="512.64" style="stroke: #000000; stroke-width: 0.8"/>
      </g>
     </g>
     <g id="text_18">
      <!-- 2024-04 -->
      <g transform="translate(259.013939 527.238438) scale(0.1 -0.1)">
       <use xlink:href="#DejaVuSans-32"/>
       <use xlink:href="#DejaVuSans-30" x="63.623047"/>
       <use xlink:href="#DejaVuSans-32" x="127.246094"/>
       <use xlink:href="#DejaVuSans-34" x="190.869141"/>
       <use xlink:href="#DejaVuSans-2d" x="254.492188"/>
       <use xlink:href="#DejaVuSans-30" x="290.576172"/>
       <use xlink:href="#DejaVuSans-34" x="354.199219"/>
      </g>
     </g>
    </g>
    <g id="xtick_19">
     <g id="line2d_33">
      <g>
       <use xlink:href="#m97bcc67c38" x="341.083965" y="512.64" style="stroke: #000000; stroke-width: 0.8"/>
      </g>
     </g>
     <g id="text_19">
      <!-- 2024-05 -->
      <g transform="translate(320.192559 527.238438) scale(0.1 -0.1)">
       <defs>
        <path id="DejaVuSans-35" d="M 691 4666 
L 3169 4666 
L 3169 4134 
L 1269 4134 
L 1269 2991 
Q 1406 3038 1543 3061 
Q 1681 3084 1819 3084 
Q 2600 3084 3056 2656 
Q 3513 2228 3513 1497 
Q 3513 744 3044 326 
Q 2575 -91 1722 -91 
Q 1428 -91 1123 -41 
Q 819 9 494 109 
L 494 744 
Q 775 591 1075 516 
Q 1375 441 1709 441 
Q 2250 441 2565 725 
Q 2881 1009 2881 1497 
Q 2881 1984 2565 2268 
Q 2250 2553 1709 2553 
Q 1456 2553 1204 2497 
Q 953 2441 691 2322 
L 691 4666 
z
" transform="scale(0.015625)"/>
       </defs>
       <use xlink:href="#DejaVuSans-32"/>
       <use xlink:href="#DejaVuSans-30" x="63.623047"/>
       <use xlink:href="#DejaVuSans-32" x="127.246094"/>
       <use xlink:href="#DejaVuSans-34" x="190.869141"/>
       <use xlink:href="#DejaVuSans-2d" x="254.492188"/>
       <use xlink:href="#DejaVuSans-30" x="290.576172"/>
       <use xlink:href="#DejaVuSans-35" x="354.199219"/>
      </g>
     </g>
    </g>
    <g id="xtick_20">
     <g id="line2d_34">
      <g>
       <use xlink:href="#m97bcc67c38" x="404.301873" y="512.64" style="stroke: #000000; stroke-width: 0.8"/>
      </g>
     </g>
     <g id="text_20">
      <!-- 2024-06 -->
      <g transform="translate(383.410467 527.238438) scale(0.1 -0.1)">
       <defs>
        <path id="DejaVuSans-36" d="M 2113 2584 
Q 1688 2584 1439 2293 
Q 1191 2003 1191 1497 
Q 1191 994 1439 701 
Q 1688 409 2113 409 
Q 2538 409 2786 701 
Q 3034 994 3034 1497 
Q 3034 2003 2786 2293 
Q 2538 2584 2113 2584 
z
M 3366 4563 
L 3366 3988 
Q 3128 4100 2886 4159 
Q 2644 4219 2406 4219 
Q 1781 4219 1451 3797 
Q 1122 3375 1075 2522 
Q 1259 2794 1537 2939 
Q 1816 3084 2150 3084 
Q 2853 3084 3261 2657 
Q 3669 2231 3669 1497 
Q 3669 778 3244 343 
Q 2819 -91 2113 -91 
Q 1303 -91 875 529 
Q 447 1150 447 2328 
Q 447 3434 972 4092 
Q 1497 4750 2381 4750 
Q 2619 4750 2861 4703 
Q 3103 4656 3366 4563 
z
" transform="scale(0.015625)"/>
       </defs>
       <use xlink:href="#DejaVuSans-32"/>
       <use xlink:href="#DejaVuSans-30" x="63.623047"/>
       <use xlink:href="#DejaVuSans-32" x="127.246094"/>
       <use xlink:href="#DejaVuSans-34" x="190.869141"/>
       <use xlink:href="#DejaVuSans-2d" x="254.492188"/>
       <use xlink:href="#DejaVuSans-30" x="290.576172"/>
       <use xlink:href="#DejaVuSans-36" x="354.199219"/>
      </g>
     </g>
    </g>
    <g id="xtick_21">
     <g id="line2d_35">
      <g>
       <use xlink:href="#m97bcc67c38" x="465.480493" y="512.64" style="stroke: #000000; stroke-width: 0.8"/>
      </g>
     </g>
     <g id="text_21">
      <!-- 2024-07 -->
      <g transform="translate(444.589087 527.238438) scale(0.1 -0.1)">
       <defs>
        <path id="DejaVuSans-37" d="M 525 4666 
L 3525 4666 
L 3525 4397 
L 1831 0 
L 1172 0 
L 2766 4134 
L 525 4134 
L 525 4666 
z
" transform="scale(0.015625)"/>
       </defs>
       <use xlink:href="#DejaVuSans-32"/>
       <use xlink:href="#DejaVuSans-30" x="63.623047"/>
       <use xlink:href="#DejaVuSans-32" x="127.246094"/>
       <use xlink:href="#DejaVuSans-34" x="190.869141"/>
       <use xlink:href="#DejaVuSans-2d" x="254.492188"/>
       <use xlink:href="#DejaVuSans-30" x="290.576172"/>
       <use xlink:href="#DejaVuSans-37" x="354.199219"/>
      </g>
     </g>
    </g>
    <g id="text_22">
     <!-- Date -->
     <g transform="translate(283.249219 540.916563) scale(0.1 -0.1)">
      <defs>
       <path id="DejaVuSans-44" d="M 1259 4147 
L 1259 519 
L 2022 519 
Q 2988 519 3436 956 
Q 3884 1394 3884 2338 
Q 3884 3275 3436 3711 
Q 2988 4147 2022 4147 
L 1259 4147 
z
M 628 4666 
L 1925 4666 
Q 3281 4666 3915 4102 
Q 4550 3538 4550 2338 
Q 4550 1131 3912 565 
Q 3275 0 1925 0 
L 628 0 
L 628 4666 
z
" transform="scale(0.015625)"/>
       <path id="DejaVuSans-74" d="M 1172 4494 
L 1172 3500 
L 2356 3500 
L 2356 3053 
L 1172 3053 
L 1172 1153 
Q 1172 725 1289 603 
Q 1406 481 1766 481 
L 2356 481 
L 2356 0 
L 1766 0 
Q 1100 0 847 248 
Q 594 497 594 1153 
L 594 3053 
L 172 3053 
L 172 3500 
L 594 3500 
L 594 4494 
L 1172 4494 
z
" transform="scale(0.015625)"/>
       <path id="DejaVuSans-65" d="M 3597 1894 
L 3597 1613 
L 953 1613 
Q 991 1019 1311 708 
Q 1631 397 2203 397 
Q 2534 397 2845 478 
Q 3156 559 3463 722 
L 3463 178 
Q 3153 47 2828 -22 
Q 2503 -91 2169 -91 
Q 1331 -91 842 396 
Q 353 884 353 1716 
Q 353 2575 817 3079 
Q 1281 3584 2069 3584 
Q 2775 3584 3186 3129 
Q 3597 2675 3597 1894 
z
M 3022 2063 
Q 3016 2534 2758 2815 
Q 2500 3097 2075 3097 
Q 1594 3097 1305 2825 
Q 1016 2553 972 2059 
L 3022 2063 
z
" transform="scale(0.015625)"/>
      </defs>
      <use xlink:href="#DejaVuSans-44"/>
      <use xlink:href="#DejaVuSans-61" x="77.001953"/>
      <use xlink:href="#DejaVuSans-74" x="138.28125"/>
      <use xlink:href="#DejaVuSans-65" x="177.490234"/>
     </g>
    </g>
   </g>
   <g id="matplotlib.axis_6">
    <g id="ytick_11">
     <g id="line2d_36">
      <g>
       <use xlink:href="#m203447de82" x="72" y="510.172113" style="stroke: #000000; stroke-width: 0.8"/>
      </g>
     </g>
     <g id="text_23">
      <!-- −10 -->
      <g transform="translate(43.895313 513.971332) scale(0.1 -0.1)">
       <use xlink:href="#DejaVuSans-2212"/>
       <use xlink:href="#DejaVuSans-31" x="83.789062"/>
       <use xlink:href="#DejaVuSans-30" x="147.412109"/>
      </g>
     </g>
    </g>
    <g id="ytick_12">
     <g id="line2d_37">
      <g>
       <use xlink:href="#m203447de82" x="72" y="483.03158" style="stroke: #000000; stroke-width: 0.8"/>
      </g>
     </g>
     <g id="text_24">
      <!-- 0 -->
      <g transform="translate(58.6375 486.830799) scale(0.1 -0.1)">
       <use xlink:href="#DejaVuSans-30"/>
      </g>
     </g>
    </g>
    <g id="ytick_13">
     <g id="line2d_38">
      <g>
       <use xlink:href="#m203447de82" x="72" y="455.891047" style="stroke: #000000; stroke-width: 0.8"/>
      </g>
     </g>
     <g id="text_25">
      <!-- 10 -->
      <g transform="translate(52.275 459.690266) scale(0.1 -0.1)">
       <use xlink:href="#DejaVuSans-31"/>
       <use xlink:href="#DejaVuSans-30" x="63.623047"/>
      </g>
     </g>
    </g>
    <g id="ytick_14">
     <g id="line2d_39">
      <g>
       <use xlink:href="#m203447de82" x="72" y="428.750514" style="stroke: #000000; stroke-width: 0.8"/>
      </g>
     </g>
     <g id="text_26">
      <!-- 20 -->
      <g transform="translate(52.275 432.549733) scale(0.1 -0.1)">
       <use xlink:href="#DejaVuSans-32"/>
       <use xlink:href="#DejaVuSans-30" x="63.623047"/>
      </g>
     </g>
    </g>
    <g id="ytick_15">
     <g id="line2d_40">
      <g>
       <use xlink:href="#m203447de82" x="72" y="401.609981" style="stroke: #000000; stroke-width: 0.8"/>
      </g>
     </g>
     <g id="text_27">
      <!-- 30 -->
      <g transform="translate(52.275 405.4092) scale(0.1 -0.1)">
       <use xlink:href="#DejaVuSans-33"/>
       <use xlink:href="#DejaVuSans-30" x="63.623047"/>
      </g>
     </g>
    </g>
    <g id="text_28">
     <!-- Cum. sum -->
     <g transform="translate(37.815625 472.768814) rotate(-90) scale(0.1 -0.1)">
      <use xlink:href="#DejaVuSans-43"/>
      <use xlink:href="#DejaVuSans-75" x="69.824219"/>
      <use xlink:href="#DejaVuSans-6d" x="133.203125"/>
      <use xlink:href="#DejaVuSans-2e" x="230.615234"/>
      <use xlink:href="#DejaVuSans-20" x="262.402344"/>
      <use xlink:href="#DejaVuSans-73" x="294.189453"/>
      <use xlink:href="#DejaVuSans-75" x="346.289062"/>
      <use xlink:href="#DejaVuSans-6d" x="409.667969"/>
     </g>
    </g>
   </g>
   <g id="line2d_41">
    <path d="M 92.290909 478.463533 
L 94.330196 481.011947 
L 96.369484 477.455568 
L 98.408771 479.05731 
L 100.448058 479.946582 
L 102.487346 483.956889 
L 104.526633 484.106587 
L 106.565921 483.838093 
L 108.605208 480.039436 
L 110.644495 480.732896 
L 112.683783 476.982169 
L 114.72307 478.15797 
L 116.762357 476.404825 
L 118.801645 479.669865 
L 122.880219 482.851096 
L 124.919507 479.134827 
L 126.958794 475.016705 
L 128.998081 478.961315 
L 131.037369 476.626243 
L 133.076656 477.890133 
L 135.115943 478.293539 
L 137.155231 477.070359 
L 139.194518 478.524381 
L 141.233805 477.093427 
L 143.273093 479.170769 
L 145.31238 480.271756 
L 147.351667 484.768144 
L 149.390955 487.363059 
L 151.430242 486.625404 
L 153.469529 481.605499 
L 155.508817 477.535745 
L 157.548104 476.156767 
L 159.587392 475.554175 
L 161.626679 476.564544 
L 163.665966 478.558731 
L 165.705254 478.811089 
L 167.744541 478.372077 
L 169.783828 480.723464 
L 171.823116 478.433828 
L 173.862403 481.90419 
L 175.90169 477.768392 
L 177.940978 474.590456 
L 179.980265 472.620388 
L 182.019552 473.765053 
L 184.05884 472.492467 
L 186.098127 472.48315 
L 188.137414 473.207658 
L 190.176702 472.811622 
L 192.215989 472.151638 
L 194.255276 466.526701 
L 196.294564 465.725896 
L 198.333851 468.950129 
L 200.373138 471.085639 
L 202.412426 468.471212 
L 204.451713 471.106833 
L 206.491 463.030038 
L 208.530288 462.223791 
L 210.569575 463.689662 
L 212.608862 463.294246 
L 216.687437 461.745625 
L 218.726725 457.628755 
L 220.766012 454.218538 
L 222.805299 458.545217 
L 224.844587 457.184448 
L 226.883874 456.589678 
L 228.923161 452.438959 
L 230.962449 454.249368 
L 233.001736 453.764556 
L 237.080311 451.960881 
L 239.119598 450.565863 
L 241.158885 451.871023 
L 243.198173 449.208598 
L 245.23746 449.566756 
L 247.276747 452.011146 
L 249.316035 454.709773 
L 251.355322 452.910547 
L 253.394609 457.87132 
L 255.433897 455.70255 
L 257.473184 460.627179 
L 259.512471 459.828894 
L 261.551759 459.18721 
L 263.591046 453.385824 
L 265.630333 450.206537 
L 267.669621 451.985824 
L 269.708908 450.843981 
L 271.748196 450.02826 
L 273.787483 448.523847 
L 275.82677 447.645509 
L 277.866058 448.630408 
L 279.905345 448.672466 
L 281.944632 442.954543 
L 286.023207 440.183218 
L 288.062494 437.294756 
L 290.101782 435.796945 
L 292.141069 433.841065 
L 294.180356 432.104208 
L 296.219644 435.20143 
L 298.258931 433.008682 
L 300.298218 428.839354 
L 302.337506 426.345641 
L 304.376793 427.919981 
L 306.41608 424.354183 
L 308.455368 422.402148 
L 310.494655 420.742603 
L 312.533942 422.188502 
L 316.612517 424.557309 
L 318.651804 427.181696 
L 320.691092 430.207637 
L 322.730379 430.078203 
L 324.769667 432.547628 
L 326.808954 426.89153 
L 328.848241 427.911795 
L 330.887529 428.004347 
L 332.926816 426.481077 
L 334.966103 426.768912 
L 337.005391 425.651542 
L 339.044678 423.447493 
L 341.083965 419.926314 
L 343.123253 424.426189 
L 345.16254 431.581974 
L 347.201827 431.661229 
L 349.241115 431.204435 
L 351.280402 430.058176 
L 353.319689 431.404866 
L 355.358977 431.326177 
L 357.398264 429.913159 
L 359.437551 429.327808 
L 361.476839 425.725238 
L 363.516126 424.358265 
L 365.555413 425.729926 
L 367.594701 425.899556 
L 369.633988 428.385123 
L 373.712563 435.283109 
L 375.75185 434.371088 
L 377.791138 430.509484 
L 379.830425 434.311261 
L 381.869712 437.374856 
L 383.909 437.075962 
L 385.948287 432.924122 
L 387.987574 428.339214 
L 390.026862 424.907789 
L 392.066149 421.896587 
L 394.105436 416.89254 
L 396.144724 415.956754 
L 398.184011 414.586856 
L 400.223298 417.151773 
L 402.262586 414.245939 
L 404.301873 415.362811 
L 406.34116 414.299039 
L 408.380448 410.989088 
L 410.419735 411.981614 
L 414.49831 415.026852 
L 416.537597 412.155483 
L 418.576884 408.59377 
L 422.655459 406.049991 
L 424.694746 404.281386 
L 426.734034 401.866449 
L 428.773321 398.890922 
L 430.812608 399.902803 
L 434.891183 402.79169 
L 436.930471 402.754065 
L 438.969758 400.599635 
L 441.009045 400.4521 
L 443.048333 403.30594 
L 445.08762 398.564317 
L 447.126907 394.155031 
L 449.166195 397.436234 
L 451.205482 395.820508 
L 453.244769 395.660515 
L 455.284057 390.675331 
L 457.323344 389.483019 
L 459.362631 393.568259 
L 461.401919 393.717857 
L 463.441206 392.100524 
L 465.480493 391.245722 
L 467.519781 391.482765 
L 469.559068 392.034493 
L 471.598355 388.711764 
L 473.637643 393.049123 
L 475.67693 391.042326 
L 477.716217 391.56649 
L 479.755505 388.199188 
L 481.794792 390.545536 
L 483.834079 392.457191 
L 485.873367 392.605719 
L 487.912654 389.071388 
L 489.951942 388.122353 
L 491.991229 393.031145 
L 494.030516 393.797415 
L 498.109091 398.904891 
L 498.109091 398.904891 
" clip-path="url(#p8c44dc6eb6)" style="fill: none; stroke: #ff0000; stroke-width: 2; stroke-linecap: square"/>
   </g>
   <g id="patch_15">
    <path d="M 72 512.64 
L 72 382.192941 
" style="fill: none; stroke: #000000; stroke-width: 0.8; stroke-linejoin: miter; stroke-linecap: square"/>
   </g>
   <g id="patch_16">
    <path d="M 518.4 512.64 
L 518.4 382.192941 
" style="fill: none; stroke: #000000; stroke-width: 0.8; stroke-linejoin: miter; stroke-linecap: square"/>
   </g>
   <g id="patch_17">
    <path d="M 72 512.64 
L 518.4 512.64 
" style="fill: none; stroke: #000000; stroke-width: 0.8; stroke-linejoin: miter; stroke-linecap: square"/>
   </g>
   <g id="patch_18">
    <path d="M 72 382.192941 
L 518.4 382.192941 
" style="fill: none; stroke: #000000; stroke-width: 0.8; stroke-linejoin: miter; stroke-linecap: square"/>
   </g>
   <g id="legend_3">
    <g id="patch_19">
     <path d="M 77.831 401.083819 
L 119.251925 401.083819 
Q 120.917925 401.083819 120.917925 399.417819 
L 120.917925 388.023941 
Q 120.917925 386.357941 119.251925 386.357941 
L 77.831 386.357941 
Q 76.165 386.357941 76.165 388.023941 
L 76.165 399.417819 
Q 76.165 401.083819 77.831 401.083819 
z
" style="fill: #ffffff; opacity: 0.5; stroke: #cccccc; stroke-linejoin: miter"/>
    </g>
    <g id="line2d_42">
     <path d="M 79.497 393.10394 
L 87.827 393.10394 
L 96.157 393.10394 
" style="fill: none; stroke: #ff0000; stroke-width: 2; stroke-linecap: square"/>
    </g>
    <g id="text_29">
     <!-- baz -->
     <g transform="translate(102.821 396.01944) scale(0.0833 -0.0833)">
      <defs>
       <path id="DejaVuSans-7a" d="M 353 3500 
L 3084 3500 
L 3084 2975 
L 922 459 
L 3084 459 
L 3084 0 
L 275 0 
L 275 525 
L 2438 3041 
L 353 3041 
L 353 3500 
z
" transform="scale(0.015625)"/>
      </defs>
      <use xlink:href="#DejaVuSans-62"/>
      <use xlink:href="#DejaVuSans-61" x="63.476562"/>
      <use xlink:href="#DejaVuSans-7a" x="124.755859"/>
     </g>
    </g>
   </g>
  </g>
  <g id="text_30">
   <!-- Three Random Trends -->
   <g transform="translate(200.83375 23.6775) scale(0.16 -0.16)">
    <defs>
     <path id="DejaVuSans-54" d="M -19 4666 
L 3928 4666 
L 3928 4134 
L 2272 4134 
L 2272 0 
L 1638 0 
L 1638 4134 
L -19 4134 
L -19 4666 
z
" transform="scale(0.015625)"/>
     <path id="DejaVuSans-68" d="M 3513 2113 
L 3513 0 
L 2938 0 
L 2938 2094 
Q 2938 2591 2744 2837 
Q 2550 3084 2163 3084 
Q 1697 3084 1428 2787 
Q 1159 2491 1159 1978 
L 1159 0 
L 581 0 
L 581 4863 
L 1159 4863 
L 1159 2956 
Q 1366 3272 1645 3428 
Q 1925 3584 2291 3584 
Q 2894 3584 3203 3211 
Q 3513 2838 3513 2113 
z
" transform="scale(0.015625)"/>
     <path id="DejaVuSans-52" d="M 2841 2188 
Q 3044 2119 3236 1894 
Q 3428 1669 3622 1275 
L 4263 0 
L 3584 0 
L 2988 1197 
Q 2756 1666 2539 1819 
Q 2322 1972 1947 1972 
L 1259 1972 
L 1259 0 
L 628 0 
L 628 4666 
L 2053 4666 
Q 2853 4666 3247 4331 
Q 3641 3997 3641 3322 
Q 3641 2881 3436 2590 
Q 3231 2300 2841 2188 
z
M 1259 4147 
L 1259 2491 
L 2053 2491 
Q 2509 2491 2742 2702 
Q 2975 2913 2975 3322 
Q 2975 3731 2742 3939 
Q 2509 4147 2053 4147 
L 1259 4147 
z
" transform="scale(0.015625)"/>
     <path id="DejaVuSans-6e" d="M 3513 2113 
L 3513 0 
L 2938 0 
L 2938 2094 
Q 2938 2591 2744 2837 
Q 2550 3084 2163 3084 
Q 1697 3084 1428 2787 
Q 1159 2491 1159 1978 
L 1159 0 
L 581 0 
L 581 3500 
L 1159 3500 
L 1159 2956 
Q 1366 3272 1645 3428 
Q 1925 3584 2291 3584 
Q 2894 3584 3203 3211 
Q 3513 2838 3513 2113 
z
" transform="scale(0.015625)"/>
     <path id="DejaVuSans-64" d="M 2906 2969 
L 2906 4863 
L 3481 4863 
L 3481 0 
L 2906 0 
L 2906 525 
Q 2725 213 2448 61 
Q 2172 -91 1784 -91 
Q 1150 -91 751 415 
Q 353 922 353 1747 
Q 353 2572 751 3078 
Q 1150 3584 1784 3584 
Q 2172 3584 2448 3432 
Q 2725 3281 2906 2969 
z
M 947 1747 
Q 947 1113 1208 752 
Q 1469 391 1925 391 
Q 2381 391 2643 752 
Q 2906 1113 2906 1747 
Q 2906 2381 2643 2742 
Q 2381 3103 1925 3103 
Q 1469 3103 1208 2742 
Q 947 2381 947 1747 
z
" transform="scale(0.015625)"/>
    </defs>
    <use xlink:href="#DejaVuSans-54"/>
    <use xlink:href="#DejaVuSans-68" x="61.083984"/>
    <use xlink:href="#DejaVuSans-72" x="124.462891"/>
    <use xlink:href="#DejaVuSans-65" x="163.326172"/>
    <use xlink:href="#DejaVuSans-65" x="224.849609"/>
    <use xlink:href="#DejaVuSans-20" x="286.373047"/>
    <use xlink:href="#DejaVuSans-52" x="318.160156"/>
    <use xlink:href="#DejaVuSans-61" x="385.392578"/>
    <use xlink:href="#DejaVuSans-6e" x="446.671875"/>
    <use xlink:href="#DejaVuSans-64" x="510.050781"/>
    <use xlink:href="#DejaVuSans-6f" x="573.527344"/>
    <use xlink:href="#DejaVuSans-6d" x="634.708984"/>
    <use xlink:href="#DejaVuSans-20" x="732.121094"/>
    <use xlink:href="#DejaVuSans-54" x="763.908203"/>
    <use xlink:href="#DejaVuSans-72" x="810.242188"/>
    <use xlink:href="#DejaVuSans-65" x="849.105469"/>
    <use xlink:href="#DejaVuSans-6e" x="910.628906"/>
    <use xlink:href="#DejaVuSans-64" x="974.007812"/>
    <use xlink:href="#DejaVuSans-73" x="1037.484375"/>
   </g>
  </g>
 </g>
 <defs>
  <clipPath id="p5fad62650b">
   <rect x="72" y="69.12" width="446.4" height="130.447059"/>
  </clipPath>
  <clipPath id="p791d787f3b">
   <rect x="72" y="225.656471" width="446.4" height="130.447059"/>
  </clipPath>
  <clipPath id="p8c44dc6eb6">
   <rect x="72" y="382.192941" width="446.4" height="130.447059"/>
  </clipPath>
 </defs>
</svg>
