<?xml version="1.0" encoding="utf-8" standalone="no"?>
<!DOCTYPE svg PUBLIC "-//W3C//DTD SVG 1.1//EN"
  "http://www.w3.org/Graphics/SVG/1.1/DTD/svg11.dtd">
<svg xmlns:xlink="http://www.w3.org/1999/xlink" width="576pt" height="288pt" viewBox="0 0 576 288" xmlns="http://www.w3.org/2000/svg" version="1.1">
 <metadata>
  <rdf:RDF xmlns:dc="http://purl.org/dc/elements/1.1/" xmlns:cc="http://creativecommons.org/ns#" xmlns:rdf="http://www.w3.org/1999/02/22-rdf-syntax-ns#">
   <cc:Work>
    <dc:type rdf:resource="http://purl.org/dc/dcmitype/StillImage"/>
    <dc:date>2023-11-25T18:39:01.866314</dc:date>
    <dc:format>image/svg+xml</dc:format>
    <dc:creator>
     <cc:Agent>
      <dc:title>Matplotlib v3.8.1, https://matplotlib.org/</dc:title>
     </cc:Agent>
    </dc:creator>
   </cc:Work>
  </rdf:RDF>
 </metadata>
 <defs>
  <style type="text/css">*{stroke-linejoin: round; stroke-linecap: butt}</style>
 </defs>
 <g id="figure_1">
  <g id="patch_1">
   <path d="M 0 288 
L 576 288 
L 576 0 
L 0 0 
z
" style="fill: #ffffff"/>
  </g>
  <g id="axes_1">
   <g id="patch_2">
    <path d="M 72 256.32 
L 518.4 256.32 
L 518.4 34.56 
L 72 34.56 
z
" style="fill: #ffffff"/>
   </g>
   <g id="PathCollection_1">
    <path d="M 92.290909 232.67378 
C 94.51661 232.67378 96.651452 231.789499 98.225261 230.215691 
C 99.799069 228.641882 100.683349 226.50704 100.683349 224.281339 
C 100.683349 222.055638 99.799069 219.920796 98.225261 218.346988 
C 96.651452 216.773179 94.51661 215.888899 92.290909 215.888899 
C 90.065208 215.888899 87.930366 216.773179 86.356558 218.346988 
C 84.782749 219.920796 83.898469 222.055638 83.898469 224.281339 
C 83.898469 226.50704 84.782749 228.641882 86.356558 230.215691 
C 87.930366 231.789499 90.065208 232.67378 92.290909 232.67378 
z
" clip-path="url(#p2403c6b080)" style="fill: #3fbc73; fill-opacity: 0.5; stroke: #3fbc73; stroke-opacity: 0.5"/>
    <path d="M 96.390083 180.575781 
C 97.235999 180.575781 98.047382 180.239695 98.645535 179.641542 
C 99.243688 179.043388 99.579774 178.232005 99.579774 177.386089 
C 99.579774 176.540173 99.243688 175.728789 98.645535 175.130636 
C 98.047382 174.532483 97.235999 174.196397 96.390083 174.196397 
C 95.544166 174.196397 94.732783 174.532483 94.13463 175.130636 
C 93.536477 175.728789 93.200391 176.540173 93.200391 177.386089 
C 93.200391 178.232005 93.536477 179.043388 94.13463 179.641542 
C 94.732783 180.239695 95.544166 180.575781 96.390083 180.575781 
z
" clip-path="url(#p2403c6b080)" style="fill: #20a486; fill-opacity: 0.5; stroke: #20a486; stroke-opacity: 0.5"/>
    <path d="M 100.489256 251.369248 
C 101.849549 251.369248 103.15431 250.828798 104.116182 249.866926 
C 105.078054 248.905054 105.618504 247.600292 105.618504 246.24 
C 105.618504 244.879708 105.078054 243.574946 104.116182 242.613074 
C 103.15431 241.651202 101.849549 241.110752 100.489256 241.110752 
C 99.128964 241.110752 97.824202 241.651202 96.86233 242.613074 
C 95.900458 243.574946 95.360008 244.879708 95.360008 246.24 
C 95.360008 247.600292 95.900458 248.905054 96.86233 249.866926 
C 97.824202 250.828798 99.128964 251.369248 100.489256 251.369248 
z
" clip-path="url(#p2403c6b080)" style="fill: #482071; fill-opacity: 0.5; stroke: #482071; stroke-opacity: 0.5"/>
    <path d="M 104.58843 172.25708 
C 105.492861 172.25708 106.36037 171.897746 106.9999 171.258217 
C 107.639429 170.618688 107.998763 169.751178 107.998763 168.846747 
C 107.998763 167.942316 107.639429 167.074806 106.9999 166.435277 
C 106.36037 165.795748 105.492861 165.436414 104.58843 165.436414 
C 103.683999 165.436414 102.816489 165.795748 102.17696 166.435277 
C 101.537431 167.074806 101.178096 167.942316 101.178096 168.846747 
C 101.178096 169.751178 101.537431 170.618688 102.17696 171.258217 
C 102.816489 171.897746 103.683999 172.25708 104.58843 172.25708 
z
" clip-path="url(#p2403c6b080)" style="fill: #dfe318; fill-opacity: 0.5; stroke: #dfe318; stroke-opacity: 0.5"/>
    <path d="M 108.687603 188.244574 
C 110.331982 188.244574 111.909233 187.591256 113.071984 186.428504 
C 114.234736 185.265753 114.888054 183.688502 114.888054 182.044123 
C 114.888054 180.399744 114.234736 178.822494 113.071984 177.659742 
C 111.909233 176.496991 110.331982 175.843672 108.687603 175.843672 
C 107.043224 175.843672 105.465974 176.496991 104.303222 177.659742 
C 103.140471 178.822494 102.487152 180.399744 102.487152 182.044123 
C 102.487152 183.688502 103.140471 185.265753 104.303222 186.428504 
C 105.465974 187.591256 107.043224 188.244574 108.687603 188.244574 
z
" clip-path="url(#p2403c6b080)" style="fill: #453581; fill-opacity: 0.5; stroke: #453581; stroke-opacity: 0.5"/>
    <path d="M 112.786777 205.61715 
C 114.427172 205.61715 116.000601 204.965414 117.160535 203.80548 
C 118.320469 202.645546 118.972205 201.072117 118.972205 199.431722 
C 118.972205 197.791327 118.320469 196.217898 117.160535 195.057964 
C 116.000601 193.89803 114.427172 193.246294 112.786777 193.246294 
C 111.146382 193.246294 109.572953 193.89803 108.413019 195.057964 
C 107.253084 196.217898 106.601349 197.791327 106.601349 199.431722 
C 106.601349 201.072117 107.253084 202.645546 108.413019 203.80548 
C 109.572953 204.965414 111.146382 205.61715 112.786777 205.61715 
z
" clip-path="url(#p2403c6b080)" style="fill: #21a585; fill-opacity: 0.5; stroke: #21a585; stroke-opacity: 0.5"/>
    <path d="M 116.88595 201.071174 
C 118.121682 201.071174 119.306967 200.580213 120.180761 199.706419 
C 121.054555 198.832625 121.545517 197.647339 121.545517 196.411608 
C 121.545517 195.175876 121.054555 193.990591 120.180761 193.116797 
C 119.306967 192.243003 118.121682 191.752041 116.88595 191.752041 
C 115.650219 191.752041 114.464934 192.243003 113.591139 193.116797 
C 112.717345 193.990591 112.226384 195.175876 112.226384 196.411608 
C 112.226384 197.647339 112.717345 198.832625 113.591139 199.706419 
C 114.464934 200.580213 115.650219 201.071174 116.88595 201.071174 
z
" clip-path="url(#p2403c6b080)" style="fill: #67cc5c; fill-opacity: 0.5; stroke: #67cc5c; stroke-opacity: 0.5"/>
    <path d="M 120.985124 198.359118 
C 122.023366 198.359118 123.019224 197.94662 123.753372 197.212472 
C 124.48752 196.478324 124.900018 195.482466 124.900018 194.444224 
C 124.900018 193.405982 124.48752 192.410124 123.753372 191.675976 
C 123.019224 190.941828 122.023366 190.52933 120.985124 190.52933 
C 119.946882 190.52933 118.951024 190.941828 118.216876 191.675976 
C 117.482728 192.410124 117.07023 193.405982 117.07023 194.444224 
C 117.07023 195.482466 117.482728 196.478324 118.216876 197.212472 
C 118.951024 197.94662 119.946882 198.359118 120.985124 198.359118 
z
" clip-path="url(#p2403c6b080)" style="fill: #86d549; fill-opacity: 0.5; stroke: #86d549; stroke-opacity: 0.5"/>
    <path d="M 125.084298 206.181784 
C 126.254782 206.181784 127.377484 205.716746 128.205142 204.889088 
C 129.0328 204.061431 129.497838 202.938728 129.497838 201.768244 
C 129.497838 200.597759 129.0328 199.475057 128.205142 198.647399 
C 127.377484 197.819742 126.254782 197.354703 125.084298 197.354703 
C 123.913813 197.354703 122.791111 197.819742 121.963453 198.647399 
C 121.135795 199.475057 120.670757 200.597759 120.670757 201.768244 
C 120.670757 202.938728 121.135795 204.061431 121.963453 204.889088 
C 122.791111 205.716746 123.913813 206.181784 125.084298 206.181784 
z
" clip-path="url(#p2403c6b080)" style="fill: #25848e; fill-opacity: 0.5; stroke: #25848e; stroke-opacity: 0.5"/>
    <path d="M 129.183471 162.950057 
C 130.607329 162.950057 131.973061 162.384353 132.979881 161.377533 
C 133.9867 160.370713 134.552405 159.004981 134.552405 157.581123 
C 134.552405 156.157266 133.9867 154.791534 132.979881 153.784714 
C 131.973061 152.777894 130.607329 152.21219 129.183471 152.21219 
C 127.759613 152.21219 126.393881 152.777894 125.387062 153.784714 
C 124.380242 154.791534 123.814537 156.157266 123.814537 157.581123 
C 123.814537 159.004981 124.380242 160.370713 125.387062 161.377533 
C 126.393881 162.384353 127.759613 162.950057 129.183471 162.950057 
z
" clip-path="url(#p2403c6b080)" style="fill: #481c6e; fill-opacity: 0.5; stroke: #481c6e; stroke-opacity: 0.5"/>
    <path d="M 133.282645 168.753885 
C 135.143144 168.753885 136.927693 168.014701 138.243265 166.699129 
C 139.558837 165.383557 140.298021 163.599008 140.298021 161.738509 
C 140.298021 159.878009 139.558837 158.09346 138.243265 156.777888 
C 136.927693 155.462316 135.143144 154.723132 133.282645 154.723132 
C 131.422145 154.723132 129.637596 155.462316 128.322024 156.777888 
C 127.006452 158.09346 126.267268 159.878009 126.267268 161.738509 
C 126.267268 163.599008 127.006452 165.383557 128.322024 166.699129 
C 129.637596 168.014701 131.422145 168.753885 133.282645 168.753885 
z
" clip-path="url(#p2403c6b080)" style="fill: #dde318; fill-opacity: 0.5; stroke: #dde318; stroke-opacity: 0.5"/>
    <path d="M 137.381818 176.708862 
C 139.032868 176.708862 140.616516 176.052893 141.783985 174.885425 
C 142.951453 173.717957 143.607422 172.134308 143.607422 170.483258 
C 143.607422 168.832209 142.951453 167.24856 141.783985 166.081092 
C 140.616516 164.913624 139.032868 164.257655 137.381818 164.257655 
C 135.730769 164.257655 134.14712 164.913624 132.979652 166.081092 
C 131.812184 167.24856 131.156215 168.832209 131.156215 170.483258 
C 131.156215 172.134308 131.812184 173.717957 132.979652 174.885425 
C 134.14712 176.052893 135.730769 176.708862 137.381818 176.708862 
z
" clip-path="url(#p2403c6b080)" style="fill: #21a585; fill-opacity: 0.5; stroke: #21a585; stroke-opacity: 0.5"/>
    <path d="M 141.480992 190.8753 
C 143.100254 190.8753 144.653413 190.23196 145.798405 189.086969 
C 146.943396 187.941978 147.586736 186.388818 147.586736 184.769556 
C 147.586736 183.150294 146.943396 181.597134 145.798405 180.452143 
C 144.653413 179.307152 143.100254 178.663812 141.480992 178.663812 
C 139.861729 178.663812 138.30857 179.307152 137.163579 180.452143 
C 136.018587 181.597134 135.375248 183.150294 135.375248 184.769556 
C 135.375248 186.388818 136.018587 187.941978 137.163579 189.086969 
C 138.30857 190.23196 139.861729 190.8753 141.480992 190.8753 
z
" clip-path="url(#p2403c6b080)" style="fill: #89d548; fill-opacity: 0.5; stroke: #89d548; stroke-opacity: 0.5"/>
    <path d="M 145.580165 168.222611 
C 147.808996 168.222611 149.94684 167.337087 151.522862 165.761066 
C 153.098883 164.185044 153.984407 162.0472 153.984407 159.818369 
C 153.984407 157.589538 153.098883 155.451695 151.522862 153.875673 
C 149.94684 152.299652 147.808996 151.414128 145.580165 151.414128 
C 143.351334 151.414128 141.213491 152.299652 139.637469 153.875673 
C 138.061448 155.451695 137.175924 157.589538 137.175924 159.818369 
C 137.175924 162.0472 138.061448 164.185044 139.637469 165.761066 
C 141.213491 167.337087 143.351334 168.222611 145.580165 168.222611 
z
" clip-path="url(#p2403c6b080)" style="fill: #23a983; fill-opacity: 0.5; stroke: #23a983; stroke-opacity: 0.5"/>
    <path d="M 149.679339 141.267191 
C 150.206809 141.267191 150.712746 141.057625 151.085723 140.684647 
C 151.458701 140.311669 151.668267 139.805732 151.668267 139.278262 
C 151.668267 138.750793 151.458701 138.244856 151.085723 137.871878 
C 150.712746 137.4989 150.206809 137.289334 149.679339 137.289334 
C 149.151869 137.289334 148.645932 137.4989 148.272954 137.871878 
C 147.899977 138.244856 147.690411 138.750793 147.690411 139.278262 
C 147.690411 139.805732 147.899977 140.311669 148.272954 140.684647 
C 148.645932 141.057625 149.151869 141.267191 149.679339 141.267191 
z
" clip-path="url(#p2403c6b080)" style="fill: #5ec962; fill-opacity: 0.5; stroke: #5ec962; stroke-opacity: 0.5"/>
    <path d="M 153.778512 143.301734 
C 154.580329 143.301734 155.349413 142.983169 155.916383 142.416199 
C 156.483354 141.849229 156.801919 141.080144 156.801919 140.278328 
C 156.801919 139.476511 156.483354 138.707427 155.916383 138.140457 
C 155.349413 137.573487 154.580329 137.254921 153.778512 137.254921 
C 152.976696 137.254921 152.207611 137.573487 151.640641 138.140457 
C 151.073671 138.707427 150.755106 139.476511 150.755106 140.278328 
C 150.755106 141.080144 151.073671 141.849229 151.640641 142.416199 
C 152.207611 142.983169 152.976696 143.301734 153.778512 143.301734 
z
" clip-path="url(#p2403c6b080)" style="fill: #8ed645; fill-opacity: 0.5; stroke: #8ed645; stroke-opacity: 0.5"/>
    <path d="M 157.877686 200.521574 
C 158.95893 200.521574 159.996034 200.091991 160.760589 199.327436 
C 161.525144 198.562881 161.954726 197.525777 161.954726 196.444533 
C 161.954726 195.363289 161.525144 194.326185 160.760589 193.56163 
C 159.996034 192.797075 158.95893 192.367493 157.877686 192.367493 
C 156.796442 192.367493 155.759338 192.797075 154.994783 193.56163 
C 154.230228 194.326185 153.800646 195.363289 153.800646 196.444533 
C 153.800646 197.525777 154.230228 198.562881 154.994783 199.327436 
C 155.759338 200.091991 156.796442 200.521574 157.877686 200.521574 
z
" clip-path="url(#p2403c6b080)" style="fill: #450457; fill-opacity: 0.5; stroke: #450457; stroke-opacity: 0.5"/>
    <path d="M 161.97686 172.085065 
C 162.883008 172.085065 163.752165 171.725048 164.392909 171.084304 
C 165.033653 170.443561 165.393669 169.574403 165.393669 168.668255 
C 165.393669 167.762106 165.033653 166.892949 164.392909 166.252206 
C 163.752165 165.611462 162.883008 165.251445 161.97686 165.251445 
C 161.070711 165.251445 160.201554 165.611462 159.56081 166.252206 
C 158.920066 166.892949 158.56005 167.762106 158.56005 168.668255 
C 158.56005 169.574403 158.920066 170.443561 159.56081 171.084304 
C 160.201554 171.725048 161.070711 172.085065 161.97686 172.085065 
z
" clip-path="url(#p2403c6b080)" style="fill: #472a7a; fill-opacity: 0.5; stroke: #472a7a; stroke-opacity: 0.5"/>
    <path d="M 166.076033 173.481755 
C 167.410629 173.481755 168.690742 172.951514 169.634444 172.007813 
C 170.578146 171.064111 171.108386 169.783997 171.108386 168.449402 
C 171.108386 167.114806 170.578146 165.834692 169.634444 164.890991 
C 168.690742 163.947289 167.410629 163.417049 166.076033 163.417049 
C 164.741437 163.417049 163.461324 163.947289 162.517622 164.890991 
C 161.573921 165.834692 161.04368 167.114806 161.04368 168.449402 
C 161.04368 169.783997 161.573921 171.064111 162.517622 172.007813 
C 163.461324 172.951514 164.741437 173.481755 166.076033 173.481755 
z
" clip-path="url(#p2403c6b080)" style="fill: #404588; fill-opacity: 0.5; stroke: #404588; stroke-opacity: 0.5"/>
    <path d="M 170.175207 190.165171 
C 171.324935 190.165171 172.427728 189.708379 173.240709 188.895398 
C 174.053689 188.082418 174.510481 186.979625 174.510481 185.829896 
C 174.510481 184.680168 174.053689 183.577375 173.240709 182.764395 
C 172.427728 181.951414 171.324935 181.494622 170.175207 181.494622 
C 169.025478 181.494622 167.922685 181.951414 167.109705 182.764395 
C 166.296724 183.577375 165.839932 184.680168 165.839932 185.829896 
C 165.839932 186.979625 166.296724 188.082418 167.109705 188.895398 
C 167.922685 189.708379 169.025478 190.165171 170.175207 190.165171 
z
" clip-path="url(#p2403c6b080)" style="fill: #424086; fill-opacity: 0.5; stroke: #424086; stroke-opacity: 0.5"/>
    <path d="M 174.27438 192.238463 
C 176.170018 192.238463 177.98827 191.485319 179.328688 190.144901 
C 180.669106 188.804482 181.422251 186.98623 181.422251 185.090593 
C 181.422251 183.194955 180.669106 181.376703 179.328688 180.036285 
C 177.98827 178.695867 176.170018 177.942722 174.27438 177.942722 
C 172.378743 177.942722 170.56049 178.695867 169.220072 180.036285 
C 167.879654 181.376703 167.126509 183.194955 167.126509 185.090593 
C 167.126509 186.98623 167.879654 188.804482 169.220072 190.144901 
C 170.56049 191.485319 172.378743 192.238463 174.27438 192.238463 
z
" clip-path="url(#p2403c6b080)" style="fill: #27ad81; fill-opacity: 0.5; stroke: #27ad81; stroke-opacity: 0.5"/>
    <path d="M 178.373554 159.699156 
C 179.502726 159.699156 180.585803 159.250531 181.384248 158.452086 
C 182.182694 157.65364 182.631318 156.570564 182.631318 155.441392 
C 182.631318 154.312219 182.182694 153.229143 181.384248 152.430697 
C 180.585803 151.632252 179.502726 151.183627 178.373554 151.183627 
C 177.244381 151.183627 176.161305 151.632252 175.362859 152.430697 
C 174.564414 153.229143 174.115789 154.312219 174.115789 155.441392 
C 174.115789 156.570564 174.564414 157.65364 175.362859 158.452086 
C 176.161305 159.250531 177.244381 159.699156 178.373554 159.699156 
z
" clip-path="url(#p2403c6b080)" style="fill: #470e61; fill-opacity: 0.5; stroke: #470e61; stroke-opacity: 0.5"/>
    <path d="M 182.472727 192.394166 
C 184.228178 192.394166 185.911966 191.696718 187.153257 190.455427 
C 188.394548 189.214136 189.091996 187.530348 189.091996 185.774897 
C 189.091996 184.019447 188.394548 182.335658 187.153257 181.094367 
C 185.911966 179.853076 184.228178 179.155628 182.472727 179.155628 
C 180.717277 179.155628 179.033488 179.853076 177.792197 181.094367 
C 176.550906 182.335658 175.853458 184.019447 175.853458 185.774897 
C 175.853458 187.530348 176.550906 189.214136 177.792197 190.455427 
C 179.033488 191.696718 180.717277 192.394166 182.472727 192.394166 
z
" clip-path="url(#p2403c6b080)" style="fill: #48186a; fill-opacity: 0.5; stroke: #48186a; stroke-opacity: 0.5"/>
    <path d="M 186.571901 166.203815 
C 188.634561 166.203815 190.613017 165.384311 192.071538 163.92579 
C 193.530059 162.46727 194.349562 160.488813 194.349562 158.426153 
C 194.349562 156.363493 193.530059 154.385037 192.071538 152.926516 
C 190.613017 151.467995 188.634561 150.648492 186.571901 150.648492 
C 184.509241 150.648492 182.530784 151.467995 181.072264 152.926516 
C 179.613743 154.385037 178.794239 156.363493 178.794239 158.426153 
C 178.794239 160.488813 179.613743 162.46727 181.072264 163.92579 
C 182.530784 165.384311 184.509241 166.203815 186.571901 166.203815 
z
" clip-path="url(#p2403c6b080)" style="fill: #440154; fill-opacity: 0.5; stroke: #440154; stroke-opacity: 0.5"/>
    <path d="M 190.671074 175.617082 
C 192.881918 175.617082 195.002508 174.738705 196.56581 173.175402 
C 198.129112 171.6121 199.00749 169.49151 199.00749 167.280667 
C 199.00749 165.069823 198.129112 162.949233 196.56581 161.385931 
C 195.002508 159.822629 192.881918 158.944251 190.671074 158.944251 
C 188.460231 158.944251 186.339641 159.822629 184.776339 161.385931 
C 183.213036 162.949233 182.334659 165.069823 182.334659 167.280667 
C 182.334659 169.49151 183.213036 171.6121 184.776339 173.175402 
C 186.339641 174.738705 188.460231 175.617082 190.671074 175.617082 
z
" clip-path="url(#p2403c6b080)" style="fill: #81d34d; fill-opacity: 0.5; stroke: #81d34d; stroke-opacity: 0.5"/>
    <path d="M 194.770248 164.751075 
C 196.409138 164.751075 197.981125 164.099937 199.139996 162.941067 
C 200.298866 161.782196 200.950004 160.21021 200.950004 158.571319 
C 200.950004 156.932429 200.298866 155.360442 199.139996 154.201571 
C 197.981125 153.042701 196.409138 152.391563 194.770248 152.391563 
C 193.131357 152.391563 191.559371 153.042701 190.4005 154.201571 
C 189.24163 155.360442 188.590492 156.932429 188.590492 158.571319 
C 188.590492 160.21021 189.24163 161.782196 190.4005 162.941067 
C 191.559371 164.099937 193.131357 164.751075 194.770248 164.751075 
z
" clip-path="url(#p2403c6b080)" style="fill: #6ece58; fill-opacity: 0.5; stroke: #6ece58; stroke-opacity: 0.5"/>
    <path d="M 198.869421 159.901971 
C 199.7685 159.901971 200.630875 159.544764 201.26662 158.909019 
C 201.902364 158.273275 202.259572 157.410899 202.259572 156.511821 
C 202.259572 155.612743 201.902364 154.750367 201.26662 154.114622 
C 200.630875 153.478878 199.7685 153.12167 198.869421 153.12167 
C 197.970343 153.12167 197.107968 153.478878 196.472223 154.114622 
C 195.836479 154.750367 195.479271 155.612743 195.479271 156.511821 
C 195.479271 157.410899 195.836479 158.273275 196.472223 158.909019 
C 197.107968 159.544764 197.970343 159.901971 198.869421 159.901971 
z
" clip-path="url(#p2403c6b080)" style="fill: #228c8d; fill-opacity: 0.5; stroke: #228c8d; stroke-opacity: 0.5"/>
    <path d="M 202.968595 138.314447 
C 204.30343 138.314447 205.583773 137.784111 206.527644 136.840241 
C 207.471514 135.89637 208.00185 134.616027 208.00185 133.281192 
C 208.00185 131.946357 207.471514 130.666014 206.527644 129.722143 
C 205.583773 128.778273 204.30343 128.247937 202.968595 128.247937 
C 201.63376 128.247937 200.353417 128.778273 199.409546 129.722143 
C 198.465676 130.666014 197.93534 131.946357 197.93534 133.281192 
C 197.93534 134.616027 198.465676 135.89637 199.409546 136.840241 
C 200.353417 137.784111 201.63376 138.314447 202.968595 138.314447 
z
" clip-path="url(#p2403c6b080)" style="fill: #24878e; fill-opacity: 0.5; stroke: #24878e; stroke-opacity: 0.5"/>
    <path d="M 207.067769 110.402866 
C 209.070169 110.402866 210.990826 109.607304 212.406736 108.191394 
C 213.822647 106.775483 214.618209 104.854826 214.618209 102.852426 
C 214.618209 100.850026 213.822647 98.929369 212.406736 97.513458 
C 210.990826 96.097547 209.070169 95.301985 207.067769 95.301985 
C 205.065368 95.301985 203.144712 96.097547 201.728801 97.513458 
C 200.31289 98.929369 199.517328 100.850026 199.517328 102.852426 
C 199.517328 104.854826 200.31289 106.775483 201.728801 108.191394 
C 203.144712 109.607304 205.065368 110.402866 207.067769 110.402866 
z
" clip-path="url(#p2403c6b080)" style="fill: #addc30; fill-opacity: 0.5; stroke: #addc30; stroke-opacity: 0.5"/>
    <path d="M 211.166942 163.470081 
C 212.340823 163.470081 213.466783 163.003693 214.296842 162.173634 
C 215.126901 161.343575 215.593288 160.217616 215.593288 159.043735 
C 215.593288 157.869854 215.126901 156.743894 214.296842 155.913835 
C 213.466783 155.083776 212.340823 154.617389 211.166942 154.617389 
C 209.993061 154.617389 208.867102 155.083776 208.037043 155.913835 
C 207.206984 156.743894 206.740596 157.869854 206.740596 159.043735 
C 206.740596 160.217616 207.206984 161.343575 208.037043 162.173634 
C 208.867102 163.003693 209.993061 163.470081 211.166942 163.470081 
z
" clip-path="url(#p2403c6b080)" style="fill: #3aba76; fill-opacity: 0.5; stroke: #3aba76; stroke-opacity: 0.5"/>
    <path d="M 215.266116 213.995823 
C 217.594134 213.995823 219.827117 213.070892 221.473274 211.424734 
C 223.119432 209.778576 224.044364 207.545594 224.044364 205.217575 
C 224.044364 202.889557 223.119432 200.656575 221.473274 199.010417 
C 219.827117 197.364259 217.594134 196.439327 215.266116 196.439327 
C 212.938097 196.439327 210.705115 197.364259 209.058957 199.010417 
C 207.412799 200.656575 206.487868 202.889557 206.487868 205.217575 
C 206.487868 207.545594 207.412799 209.778576 209.058957 211.424734 
C 210.705115 213.070892 212.938097 213.995823 215.266116 213.995823 
z
" clip-path="url(#p2403c6b080)" style="fill: #23888e; fill-opacity: 0.5; stroke: #23888e; stroke-opacity: 0.5"/>
    <path d="M 219.365289 174.28894 
C 220.666376 174.28894 221.914349 173.772013 222.834356 172.852006 
C 223.754363 171.931998 224.271291 170.684025 224.271291 169.382939 
C 224.271291 168.081852 223.754363 166.833879 222.834356 165.913872 
C 221.914349 164.993864 220.666376 164.476937 219.365289 164.476937 
C 218.064202 164.476937 216.81623 164.993864 215.896222 165.913872 
C 214.976215 166.833879 214.459288 168.081852 214.459288 169.382939 
C 214.459288 170.684025 214.976215 171.931998 215.896222 172.852006 
C 216.81623 173.772013 218.064202 174.28894 219.365289 174.28894 
z
" clip-path="url(#p2403c6b080)" style="fill: #481d6f; fill-opacity: 0.5; stroke: #481d6f; stroke-opacity: 0.5"/>
    <path d="M 223.464463 143.774072 
C 225.595865 143.774072 227.640258 142.927257 229.147387 141.420128 
C 230.654516 139.912999 231.501331 137.868606 231.501331 135.737204 
C 231.501331 133.605802 230.654516 131.561409 229.147387 130.05428 
C 227.640258 128.547151 225.595865 127.700336 223.464463 127.700336 
C 221.333061 127.700336 219.288668 128.547151 217.781539 130.05428 
C 216.27441 131.561409 215.427595 133.605802 215.427595 135.737204 
C 215.427595 137.868606 216.27441 139.912999 217.781539 141.420128 
C 219.288668 142.927257 221.333061 143.774072 223.464463 143.774072 
z
" clip-path="url(#p2403c6b080)" style="fill: #228c8d; fill-opacity: 0.5; stroke: #228c8d; stroke-opacity: 0.5"/>
    <path d="M 227.563636 175.566258 
C 228.592001 175.566258 229.578386 175.157684 230.30555 174.43052 
C 231.032713 173.703357 231.441287 172.716972 231.441287 171.688607 
C 231.441287 170.660242 231.032713 169.673858 230.30555 168.946694 
C 229.578386 168.21953 228.592001 167.810957 227.563636 167.810957 
C 226.535271 167.810957 225.548887 168.21953 224.821723 168.946694 
C 224.094559 169.673858 223.685986 170.660242 223.685986 171.688607 
C 223.685986 172.716972 224.094559 173.703357 224.821723 174.43052 
C 225.548887 175.157684 226.535271 175.566258 227.563636 175.566258 
z
" clip-path="url(#p2403c6b080)" style="fill: #482878; fill-opacity: 0.5; stroke: #482878; stroke-opacity: 0.5"/>
    <path d="M 231.66281 153.966076 
C 232.996869 153.966076 234.276468 153.436049 235.21979 152.492727 
C 236.163112 151.549405 236.693139 150.269806 236.693139 148.935747 
C 236.693139 147.601688 236.163112 146.32209 235.21979 145.378767 
C 234.276468 144.435445 232.996869 143.905418 231.66281 143.905418 
C 230.328751 143.905418 229.049152 144.435445 228.10583 145.378767 
C 227.162508 146.32209 226.632481 147.601688 226.632481 148.935747 
C 226.632481 150.269806 227.162508 151.549405 228.10583 152.492727 
C 229.049152 153.436049 230.328751 153.966076 231.66281 153.966076 
z
" clip-path="url(#p2403c6b080)" style="fill: #32658e; fill-opacity: 0.5; stroke: #32658e; stroke-opacity: 0.5"/>
    <path d="M 235.761983 167.587376 
C 236.363088 167.587376 236.939653 167.348555 237.364698 166.92351 
C 237.789743 166.498465 238.028564 165.9219 238.028564 165.320796 
C 238.028564 164.719692 237.789743 164.143126 237.364698 163.718081 
C 236.939653 163.293037 236.363088 163.054215 235.761983 163.054215 
C 235.160879 163.054215 234.584314 163.293037 234.159269 163.718081 
C 233.734224 164.143126 233.495403 164.719692 233.495403 165.320796 
C 233.495403 165.9219 233.734224 166.498465 234.159269 166.92351 
C 234.584314 167.348555 235.160879 167.587376 235.761983 167.587376 
z
" clip-path="url(#p2403c6b080)" style="fill: #fde725; fill-opacity: 0.5; stroke: #fde725; stroke-opacity: 0.5"/>
    <path d="M 239.861157 131.891743 
C 241.755412 131.891743 243.572339 131.139147 244.911779 129.799706 
C 246.25122 128.460266 247.003815 126.643339 247.003815 124.749084 
C 247.003815 122.854829 246.25122 121.037903 244.911779 119.698462 
C 243.572339 118.359021 241.755412 117.606426 239.861157 117.606426 
C 237.966902 117.606426 236.149976 118.359021 234.810535 119.698462 
C 233.471094 121.037903 232.718499 122.854829 232.718499 124.749084 
C 232.718499 126.643339 233.471094 128.460266 234.810535 129.799706 
C 236.149976 131.139147 237.966902 131.891743 239.861157 131.891743 
z
" clip-path="url(#p2403c6b080)" style="fill: #38b977; fill-opacity: 0.5; stroke: #38b977; stroke-opacity: 0.5"/>
    <path d="M 243.960331 134.344522 
C 244.938819 134.344522 245.877362 133.955765 246.569258 133.26387 
C 247.261153 132.571974 247.64991 131.633431 247.64991 130.654943 
C 247.64991 129.676455 247.261153 128.737911 246.569258 128.046016 
C 245.877362 127.35412 244.938819 126.965363 243.960331 126.965363 
C 242.981843 126.965363 242.043299 127.35412 241.351404 128.046016 
C 240.659508 128.737911 240.270751 129.676455 240.270751 130.654943 
C 240.270751 131.633431 240.659508 132.571974 241.351404 133.26387 
C 242.043299 133.955765 242.981843 134.344522 243.960331 134.344522 
z
" clip-path="url(#p2403c6b080)" style="fill: #2eb37c; fill-opacity: 0.5; stroke: #2eb37c; stroke-opacity: 0.5"/>
    <path d="M 248.059504 127.206723 
C 249.359277 127.206723 250.60599 126.690318 251.525068 125.77124 
C 252.444146 124.852161 252.960552 123.605449 252.960552 122.305676 
C 252.960552 121.005903 252.444146 119.75919 251.525068 118.840112 
C 250.60599 117.921033 249.359277 117.404628 248.059504 117.404628 
C 246.759731 117.404628 245.513019 117.921033 244.59394 118.840112 
C 243.674862 119.75919 243.158457 121.005903 243.158457 122.305676 
C 243.158457 123.605449 243.674862 124.852161 244.59394 125.77124 
C 245.513019 126.690318 246.759731 127.206723 248.059504 127.206723 
z
" clip-path="url(#p2403c6b080)" style="fill: #a8db34; fill-opacity: 0.5; stroke: #a8db34; stroke-opacity: 0.5"/>
    <path d="M 252.158678 139.575705 
C 253.054966 139.575705 253.914666 139.219606 254.548437 138.585834 
C 255.182209 137.952063 255.538308 137.092363 255.538308 136.196075 
C 255.538308 135.299786 255.182209 134.440087 254.548437 133.806315 
C 253.914666 133.172543 253.054966 132.816444 252.158678 132.816444 
C 251.262389 132.816444 250.40269 133.172543 249.768918 133.806315 
C 249.135146 134.440087 248.779047 135.299786 248.779047 136.196075 
C 248.779047 137.092363 249.135146 137.952063 249.768918 138.585834 
C 250.40269 139.219606 251.262389 139.575705 252.158678 139.575705 
z
" clip-path="url(#p2403c6b080)" style="fill: #472e7c; fill-opacity: 0.5; stroke: #472e7c; stroke-opacity: 0.5"/>
    <path d="M 256.257851 171.176888 
C 257.884898 171.176888 259.445525 170.530455 260.596021 169.379959 
C 261.746517 168.229463 262.39295 166.668836 262.39295 165.041789 
C 262.39295 163.414742 261.746517 161.854116 260.596021 160.70362 
C 259.445525 159.553123 257.884898 158.906691 256.257851 158.906691 
C 254.630804 158.906691 253.070178 159.553123 251.919682 160.70362 
C 250.769185 161.854116 250.122753 163.414742 250.122753 165.041789 
C 250.122753 166.668836 250.769185 168.229463 251.919682 169.379959 
C 253.070178 170.530455 254.630804 171.176888 256.257851 171.176888 
z
" clip-path="url(#p2403c6b080)" style="fill: #20928c; fill-opacity: 0.5; stroke: #20928c; stroke-opacity: 0.5"/>
    <path d="M 260.357025 91.642651 
C 262.029554 91.642651 263.633806 90.978148 264.816463 89.795491 
C 265.999119 88.612834 266.663622 87.008582 266.663622 85.336053 
C 266.663622 83.663524 265.999119 82.059272 264.816463 80.876616 
C 263.633806 79.693959 262.029554 79.029456 260.357025 79.029456 
C 258.684496 79.029456 257.080244 79.693959 255.897587 80.876616 
C 254.71493 82.059272 254.050427 83.663524 254.050427 85.336053 
C 254.050427 87.008582 254.71493 88.612834 255.897587 89.795491 
C 257.080244 90.978148 258.684496 91.642651 260.357025 91.642651 
z
" clip-path="url(#p2403c6b080)" style="fill: #56c667; fill-opacity: 0.5; stroke: #56c667; stroke-opacity: 0.5"/>
    <path d="M 264.456198 118.264371 
C 265.288554 118.264371 266.08693 117.933673 266.675494 117.345109 
C 267.264058 116.756545 267.594756 115.958168 267.594756 115.125813 
C 267.594756 114.293458 267.264058 113.495082 266.675494 112.906518 
C 266.08693 112.317954 265.288554 111.987255 264.456198 111.987255 
C 263.623843 111.987255 262.825467 112.317954 262.236903 112.906518 
C 261.648339 113.495082 261.31764 114.293458 261.31764 115.125813 
C 261.31764 115.958168 261.648339 116.756545 262.236903 117.345109 
C 262.825467 117.933673 263.623843 118.264371 264.456198 118.264371 
z
" clip-path="url(#p2403c6b080)" style="fill: #424086; fill-opacity: 0.5; stroke: #424086; stroke-opacity: 0.5"/>
    <path d="M 268.555372 127.409044 
C 269.716817 127.409044 270.830848 126.947597 271.652113 126.126331 
C 272.473379 125.305066 272.934826 124.191034 272.934826 123.02959 
C 272.934826 121.868145 272.473379 120.754114 271.652113 119.932848 
C 270.830848 119.111583 269.716817 118.650136 268.555372 118.650136 
C 267.393927 118.650136 266.279896 119.111583 265.45863 119.932848 
C 264.637365 120.754114 264.175918 121.868145 264.175918 123.02959 
C 264.175918 124.191034 264.637365 125.305066 265.45863 126.126331 
C 266.279896 126.947597 267.393927 127.409044 268.555372 127.409044 
z
" clip-path="url(#p2403c6b080)" style="fill: #2f6c8e; fill-opacity: 0.5; stroke: #2f6c8e; stroke-opacity: 0.5"/>
    <path d="M 272.654545 146.939647 
C 274.897838 146.939647 277.049553 146.048377 278.635801 144.46213 
C 280.222048 142.875882 281.113318 140.724167 281.113318 138.480874 
C 281.113318 136.237582 280.222048 134.085867 278.635801 132.499619 
C 277.049553 130.913372 274.897838 130.022102 272.654545 130.022102 
C 270.411253 130.022102 268.259537 130.913372 266.67329 132.499619 
C 265.087043 134.085867 264.195773 136.237582 264.195773 138.480874 
C 264.195773 140.724167 265.087043 142.875882 266.67329 144.46213 
C 268.259537 146.048377 270.411253 146.939647 272.654545 146.939647 
z
" clip-path="url(#p2403c6b080)" style="fill: #481c6e; fill-opacity: 0.5; stroke: #481c6e; stroke-opacity: 0.5"/>
    <path d="M 276.753719 147.831697 
C 278.30217 147.831697 279.787408 147.216491 280.882329 146.12157 
C 281.977249 145.02665 282.592455 143.541412 282.592455 141.992961 
C 282.592455 140.44451 281.977249 138.959271 280.882329 137.864351 
C 279.787408 136.769431 278.30217 136.154225 276.753719 136.154225 
C 275.205268 136.154225 273.72003 136.769431 272.625109 137.864351 
C 271.530189 138.959271 270.914983 140.44451 270.914983 141.992961 
C 270.914983 143.541412 271.530189 145.02665 272.625109 146.12157 
C 273.72003 147.216491 275.205268 147.831697 276.753719 147.831697 
z
" clip-path="url(#p2403c6b080)" style="fill: #297a8e; fill-opacity: 0.5; stroke: #297a8e; stroke-opacity: 0.5"/>
    <path d="M 280.852893 140.742055 
C 282.807836 140.742055 284.682973 139.965348 286.065326 138.582995 
C 287.44768 137.200641 288.224387 135.325504 288.224387 133.370561 
C 288.224387 131.415618 287.44768 129.540481 286.065326 128.158128 
C 284.682973 126.775774 282.807836 125.999067 280.852893 125.999067 
C 278.897949 125.999067 277.022813 126.775774 275.640459 128.158128 
C 274.258106 129.540481 273.481398 131.415618 273.481398 133.370561 
C 273.481398 135.325504 274.258106 137.200641 275.640459 138.582995 
C 277.022813 139.965348 278.897949 140.742055 280.852893 140.742055 
z
" clip-path="url(#p2403c6b080)" style="fill: #218f8d; fill-opacity: 0.5; stroke: #218f8d; stroke-opacity: 0.5"/>
    <path d="M 284.952066 140.710729 
C 286.56645 140.710729 288.114931 140.069327 289.256473 138.927785 
C 290.398015 137.786243 291.039417 136.237763 291.039417 134.623379 
C 291.039417 133.008994 290.398015 131.460514 289.256473 130.318972 
C 288.114931 129.17743 286.56645 128.536028 284.952066 128.536028 
C 283.337682 128.536028 281.789201 129.17743 280.647659 130.318972 
C 279.506117 131.460514 278.864716 133.008994 278.864716 134.623379 
C 278.864716 136.237763 279.506117 137.786243 280.647659 138.927785 
C 281.789201 140.069327 283.337682 140.710729 284.952066 140.710729 
z
" clip-path="url(#p2403c6b080)" style="fill: #4ec36b; fill-opacity: 0.5; stroke: #4ec36b; stroke-opacity: 0.5"/>
    <path d="M 289.05124 111.117891 
C 290.081417 111.117891 291.069539 110.708598 291.797984 109.980153 
C 292.526429 109.251708 292.935722 108.263585 292.935722 107.233409 
C 292.935722 106.203232 292.526429 105.21511 291.797984 104.486665 
C 291.069539 103.758219 290.081417 103.348926 289.05124 103.348926 
C 288.021063 103.348926 287.032941 103.758219 286.304496 104.486665 
C 285.576051 105.21511 285.166757 106.203232 285.166757 107.233409 
C 285.166757 108.263585 285.576051 109.251708 286.304496 109.980153 
C 287.032941 110.708598 288.021063 111.117891 289.05124 111.117891 
z
" clip-path="url(#p2403c6b080)" style="fill: #9dd93b; fill-opacity: 0.5; stroke: #9dd93b; stroke-opacity: 0.5"/>
    <path d="M 293.150413 144.036325 
C 294.736967 144.036325 296.258753 143.405981 297.380615 142.284118 
C 298.502478 141.162255 299.132822 139.64047 299.132822 138.053916 
C 299.132822 136.467363 298.502478 134.945577 297.380615 133.823714 
C 296.258753 132.701851 294.736967 132.071507 293.150413 132.071507 
C 291.56386 132.071507 290.042074 132.701851 288.920211 133.823714 
C 287.798348 134.945577 287.168004 136.467363 287.168004 138.053916 
C 287.168004 139.64047 287.798348 141.162255 288.920211 142.284118 
C 290.042074 143.405981 291.56386 144.036325 293.150413 144.036325 
z
" clip-path="url(#p2403c6b080)" style="fill: #7cd250; fill-opacity: 0.5; stroke: #7cd250; stroke-opacity: 0.5"/>
    <path d="M 297.249587 184.667633 
C 299.267981 184.667633 301.203978 183.865717 302.631198 182.438497 
C 304.058418 181.011277 304.860334 179.07528 304.860334 177.056886 
C 304.860334 175.038492 304.058418 173.102495 302.631198 171.675275 
C 301.203978 170.248055 299.267981 169.446139 297.249587 169.446139 
C 295.231193 169.446139 293.295196 170.248055 291.867976 171.675275 
C 290.440756 173.102495 289.63884 175.038492 289.63884 177.056886 
C 289.63884 179.07528 290.440756 181.011277 291.867976 182.438497 
C 293.295196 183.865717 295.231193 184.667633 297.249587 184.667633 
z
" clip-path="url(#p2403c6b080)" style="fill: #3bbb75; fill-opacity: 0.5; stroke: #3bbb75; stroke-opacity: 0.5"/>
    <path d="M 301.34876 157.912778 
C 301.930523 157.912778 302.488537 157.681641 302.899906 157.270272 
C 303.311274 156.858904 303.542411 156.30089 303.542411 155.719127 
C 303.542411 155.137364 303.311274 154.57935 302.899906 154.167982 
C 302.488537 153.756613 301.930523 153.525476 301.34876 153.525476 
C 300.766997 153.525476 300.208984 153.756613 299.797615 154.167982 
C 299.386247 154.57935 299.15511 155.137364 299.15511 155.719127 
C 299.15511 156.30089 299.386247 156.858904 299.797615 157.270272 
C 300.208984 157.681641 300.766997 157.912778 301.34876 157.912778 
z
" clip-path="url(#p2403c6b080)" style="fill: #3aba76; fill-opacity: 0.5; stroke: #3aba76; stroke-opacity: 0.5"/>
    <path d="M 305.447934 142.640712 
C 305.943902 142.640712 306.419623 142.443662 306.770326 142.09296 
C 307.121028 141.742257 307.318078 141.266536 307.318078 140.770568 
C 307.318078 140.2746 307.121028 139.798879 306.770326 139.448176 
C 306.419623 139.097474 305.943902 138.900424 305.447934 138.900424 
C 304.951966 138.900424 304.476245 139.097474 304.125542 139.448176 
C 303.77484 139.798879 303.57779 140.2746 303.57779 140.770568 
C 303.57779 141.266536 303.77484 141.742257 304.125542 142.09296 
C 304.476245 142.443662 304.951966 142.640712 305.447934 142.640712 
z
" clip-path="url(#p2403c6b080)" style="fill: #3b528b; fill-opacity: 0.5; stroke: #3b528b; stroke-opacity: 0.5"/>
    <path d="M 309.547107 115.411058 
C 310.450647 115.411058 311.317302 115.052077 311.956201 114.413178 
C 312.595101 113.774279 312.954081 112.907624 312.954081 112.004084 
C 312.954081 111.100544 312.595101 110.233889 311.956201 109.59499 
C 311.317302 108.956091 310.450647 108.597111 309.547107 108.597111 
C 308.643568 108.597111 307.776913 108.956091 307.138013 109.59499 
C 306.499114 110.233889 306.140134 111.100544 306.140134 112.004084 
C 306.140134 112.907624 306.499114 113.774279 307.138013 114.413178 
C 307.776913 115.052077 308.643568 115.411058 309.547107 115.411058 
z
" clip-path="url(#p2403c6b080)" style="fill: #460b5e; fill-opacity: 0.5; stroke: #460b5e; stroke-opacity: 0.5"/>
    <path d="M 313.646281 168.696027 
C 315.357098 168.696027 316.998074 168.016313 318.207805 166.806582 
C 319.417535 165.596852 320.09725 163.955876 320.09725 162.245059 
C 320.09725 160.534242 319.417535 158.893265 318.207805 157.683535 
C 316.998074 156.473805 315.357098 155.79409 313.646281 155.79409 
C 311.935464 155.79409 310.294488 156.473805 309.084757 157.683535 
C 307.875027 158.893265 307.195312 160.534242 307.195312 162.245059 
C 307.195312 163.955876 307.875027 165.596852 309.084757 166.806582 
C 310.294488 168.016313 311.935464 168.696027 313.646281 168.696027 
z
" clip-path="url(#p2403c6b080)" style="fill: #2e6e8e; fill-opacity: 0.5; stroke: #2e6e8e; stroke-opacity: 0.5"/>
    <path d="M 317.745455 158.438676 
C 319.979753 158.438676 322.122841 157.55098 323.702729 155.971092 
C 325.282616 154.391204 326.170313 152.248116 326.170313 150.013818 
C 326.170313 147.779519 325.282616 145.636431 323.702729 144.056543 
C 322.122841 142.476656 319.979753 141.58896 317.745455 141.58896 
C 315.511156 141.58896 313.368068 142.476656 311.78818 144.056543 
C 310.208293 145.636431 309.320596 147.779519 309.320596 150.013818 
C 309.320596 152.248116 310.208293 154.391204 311.78818 155.971092 
C 313.368068 157.55098 315.511156 158.438676 317.745455 158.438676 
z
" clip-path="url(#p2403c6b080)" style="fill: #481b6d; fill-opacity: 0.5; stroke: #481b6d; stroke-opacity: 0.5"/>
    <path d="M 321.844628 138.873299 
C 323.178014 138.873299 324.456967 138.343539 325.399813 137.400693 
C 326.342659 136.457847 326.872419 135.178893 326.872419 133.845508 
C 326.872419 132.512122 326.342659 131.233169 325.399813 130.290323 
C 324.456967 129.347477 323.178014 128.817717 321.844628 128.817717 
C 320.511242 128.817717 319.232289 129.347477 318.289443 130.290323 
C 317.346597 131.233169 316.816837 132.512122 316.816837 133.845508 
C 316.816837 135.178893 317.346597 136.457847 318.289443 137.400693 
C 319.232289 138.343539 320.511242 138.873299 321.844628 138.873299 
z
" clip-path="url(#p2403c6b080)" style="fill: #dde318; fill-opacity: 0.5; stroke: #dde318; stroke-opacity: 0.5"/>
    <path d="M 325.943802 157.81454 
C 327.544738 157.81454 329.08032 157.178481 330.212352 156.046448 
C 331.344385 154.914415 331.980444 153.378834 331.980444 151.777897 
C 331.980444 150.176961 331.344385 148.641379 330.212352 147.509347 
C 329.08032 146.377314 327.544738 145.741255 325.943802 145.741255 
C 324.342865 145.741255 322.807284 146.377314 321.675251 147.509347 
C 320.543218 148.641379 319.907159 150.176961 319.907159 151.777897 
C 319.907159 153.378834 320.543218 154.914415 321.675251 156.046448 
C 322.807284 157.178481 324.342865 157.81454 325.943802 157.81454 
z
" clip-path="url(#p2403c6b080)" style="fill: #25838e; fill-opacity: 0.5; stroke: #25838e; stroke-opacity: 0.5"/>
    <path d="M 330.042975 110.443311 
C 331.150881 110.443311 332.213558 110.003135 332.996965 109.219728 
C 333.780373 108.436321 334.220548 107.373643 334.220548 106.265738 
C 334.220548 105.157833 333.780373 104.095155 332.996965 103.311748 
C 332.213558 102.52834 331.150881 102.088165 330.042975 102.088165 
C 328.93507 102.088165 327.872392 102.52834 327.088985 103.311748 
C 326.305578 104.095155 325.865402 105.157833 325.865402 106.265738 
C 325.865402 107.373643 326.305578 108.436321 327.088985 109.219728 
C 327.872392 110.003135 328.93507 110.443311 330.042975 110.443311 
z
" clip-path="url(#p2403c6b080)" style="fill: #24868e; fill-opacity: 0.5; stroke: #24868e; stroke-opacity: 0.5"/>
    <path d="M 334.142149 114.47526 
C 336.14442 114.47526 338.064953 113.67975 339.480772 112.26393 
C 340.896592 110.84811 341.692103 108.927578 341.692103 106.925306 
C 341.692103 104.923035 340.896592 103.002502 339.480772 101.586683 
C 338.064953 100.170863 336.14442 99.375352 334.142149 99.375352 
C 332.139878 99.375352 330.219345 100.170863 328.803525 101.586683 
C 327.387705 103.002502 326.592195 104.923035 326.592195 106.925306 
C 326.592195 108.927578 327.387705 110.84811 328.803525 112.26393 
C 330.219345 113.67975 332.139878 114.47526 334.142149 114.47526 
z
" clip-path="url(#p2403c6b080)" style="fill: #dde318; fill-opacity: 0.5; stroke: #dde318; stroke-opacity: 0.5"/>
    <path d="M 338.241322 132.621493 
C 338.794095 132.621493 339.324302 132.401874 339.715172 132.011005 
C 340.106041 131.620135 340.32566 131.089928 340.32566 130.537155 
C 340.32566 129.984382 340.106041 129.454175 339.715172 129.063306 
C 339.324302 128.672436 338.794095 128.452817 338.241322 128.452817 
C 337.688549 128.452817 337.158342 128.672436 336.767473 129.063306 
C 336.376603 129.454175 336.156984 129.984382 336.156984 130.537155 
C 336.156984 131.089928 336.376603 131.620135 336.767473 132.011005 
C 337.158342 132.401874 337.688549 132.621493 338.241322 132.621493 
z
" clip-path="url(#p2403c6b080)" style="fill: #414287; fill-opacity: 0.5; stroke: #414287; stroke-opacity: 0.5"/>
    <path d="M 342.340496 127.238788 
C 343.147458 127.238788 343.921477 126.918178 344.492086 126.34757 
C 345.062694 125.776962 345.383303 125.002942 345.383303 124.19598 
C 345.383303 123.389018 345.062694 122.614999 344.492086 122.04439 
C 343.921477 121.473782 343.147458 121.153173 342.340496 121.153173 
C 341.533534 121.153173 340.759514 121.473782 340.188906 122.04439 
C 339.618298 122.614999 339.297688 123.389018 339.297688 124.19598 
C 339.297688 125.002942 339.618298 125.776962 340.188906 126.34757 
C 340.759514 126.918178 341.533534 127.238788 342.340496 127.238788 
z
" clip-path="url(#p2403c6b080)" style="fill: #c2df23; fill-opacity: 0.5; stroke: #c2df23; stroke-opacity: 0.5"/>
    <path d="M 346.439669 167.042272 
C 348.417515 167.042272 350.314619 166.256466 351.713166 164.857918 
C 353.111714 163.45937 353.89752 161.562266 353.89752 159.584421 
C 353.89752 157.606576 353.111714 155.709472 351.713166 154.310924 
C 350.314619 152.912376 348.417515 152.12657 346.439669 152.12657 
C 344.461824 152.12657 342.56472 152.912376 341.166172 154.310924 
C 339.767625 155.709472 338.981819 157.606576 338.981819 159.584421 
C 338.981819 161.562266 339.767625 163.45937 341.166172 164.857918 
C 342.56472 166.256466 344.461824 167.042272 346.439669 167.042272 
z
" clip-path="url(#p2403c6b080)" style="fill: #4cc26c; fill-opacity: 0.5; stroke: #4cc26c; stroke-opacity: 0.5"/>
    <path d="M 350.538843 111.683904 
C 351.107295 111.683904 351.65254 111.458056 352.054496 111.0561 
C 352.456452 110.654144 352.6823 110.108898 352.6823 109.540447 
C 352.6823 108.971995 352.456452 108.42675 352.054496 108.024794 
C 351.65254 107.622838 351.107295 107.396989 350.538843 107.396989 
C 349.970391 107.396989 349.425146 107.622838 349.02319 108.024794 
C 348.621234 108.42675 348.395386 108.971995 348.395386 109.540447 
C 348.395386 110.108898 348.621234 110.654144 349.02319 111.0561 
C 349.425146 111.458056 349.970391 111.683904 350.538843 111.683904 
z
" clip-path="url(#p2403c6b080)" style="fill: #20a386; fill-opacity: 0.5; stroke: #20a386; stroke-opacity: 0.5"/>
    <path d="M 354.638017 108.550045 
C 355.481682 108.550045 356.290906 108.214854 356.887468 107.618292 
C 357.484029 107.021731 357.819221 106.212507 357.819221 105.368841 
C 357.819221 104.525176 357.484029 103.715952 356.887468 103.11939 
C 356.290906 102.522829 355.481682 102.187637 354.638017 102.187637 
C 353.794351 102.187637 352.985127 102.522829 352.388566 103.11939 
C 351.792004 103.715952 351.456812 104.525176 351.456812 105.368841 
C 351.456812 106.212507 351.792004 107.021731 352.388566 107.618292 
C 352.985127 108.214854 353.794351 108.550045 354.638017 108.550045 
z
" clip-path="url(#p2403c6b080)" style="fill: #2d708e; fill-opacity: 0.5; stroke: #2d708e; stroke-opacity: 0.5"/>
    <path d="M 358.73719 103.142321 
C 359.762886 103.142321 360.74671 102.734808 361.471986 102.009531 
C 362.197263 101.284255 362.604776 100.300431 362.604776 99.274735 
C 362.604776 98.249039 362.197263 97.265215 361.471986 96.539939 
C 360.74671 95.814663 359.762886 95.407149 358.73719 95.407149 
C 357.711494 95.407149 356.72767 95.814663 356.002394 96.539939 
C 355.277118 97.265215 354.869604 98.249039 354.869604 99.274735 
C 354.869604 100.300431 355.277118 101.284255 356.002394 102.009531 
C 356.72767 102.734808 357.711494 103.142321 358.73719 103.142321 
z
" clip-path="url(#p2403c6b080)" style="fill: #52c569; fill-opacity: 0.5; stroke: #52c569; stroke-opacity: 0.5"/>
    <path d="M 362.836364 120.326124 
C 364.436934 120.326124 365.972165 119.69021 367.103939 118.558436 
C 368.235714 117.426662 368.871627 115.891431 368.871627 114.29086 
C 368.871627 112.69029 368.235714 111.155059 367.103939 110.023285 
C 365.972165 108.89151 364.436934 108.255597 362.836364 108.255597 
C 361.235793 108.255597 359.700562 108.89151 358.568788 110.023285 
C 357.437014 111.155059 356.8011 112.69029 356.8011 114.29086 
C 356.8011 115.891431 357.437014 117.426662 358.568788 118.558436 
C 359.700562 119.69021 361.235793 120.326124 362.836364 120.326124 
z
" clip-path="url(#p2403c6b080)" style="fill: #443b84; fill-opacity: 0.5; stroke: #443b84; stroke-opacity: 0.5"/>
    <path d="M 366.935537 131.464027 
C 368.118067 131.464027 369.252322 130.994203 370.088496 130.158028 
C 370.924671 129.321854 371.394495 128.187599 371.394495 127.005069 
C 371.394495 125.82254 370.924671 124.688285 370.088496 123.85211 
C 369.252322 123.015936 368.118067 122.546112 366.935537 122.546112 
C 365.753008 122.546112 364.618753 123.015936 363.782578 123.85211 
C 362.946404 124.688285 362.47658 125.82254 362.47658 127.005069 
C 362.47658 128.187599 362.946404 129.321854 363.782578 130.158028 
C 364.618753 130.994203 365.753008 131.464027 366.935537 131.464027 
z
" clip-path="url(#p2403c6b080)" style="fill: #450457; fill-opacity: 0.5; stroke: #450457; stroke-opacity: 0.5"/>
    <path d="M 371.034711 133.811344 
C 373.095896 133.811344 375.072938 132.992427 376.530416 131.534949 
C 377.987894 130.077471 378.806811 128.100429 378.806811 126.039244 
C 378.806811 123.978058 377.987894 122.001017 376.530416 120.543538 
C 375.072938 119.08606 373.095896 118.267143 371.034711 118.267143 
C 368.973526 118.267143 366.996484 119.08606 365.539006 120.543538 
C 364.081528 122.001017 363.26261 123.978058 363.26261 126.039244 
C 363.26261 128.100429 364.081528 130.077471 365.539006 131.534949 
C 366.996484 132.992427 368.973526 133.811344 371.034711 133.811344 
z
" clip-path="url(#p2403c6b080)" style="fill: #5ac864; fill-opacity: 0.5; stroke: #5ac864; stroke-opacity: 0.5"/>
    <path d="M 375.133884 92.73651 
C 377.188578 92.73651 379.159393 91.920171 380.61228 90.467284 
C 382.065168 89.014396 382.881506 87.043581 382.881506 84.988888 
C 382.881506 82.934194 382.065168 80.963379 380.61228 79.510492 
C 379.159393 78.057604 377.188578 77.241266 375.133884 77.241266 
C 373.079191 77.241266 371.108376 78.057604 369.655488 79.510492 
C 368.202601 80.963379 367.386262 82.934194 367.386262 84.988888 
C 367.386262 87.043581 368.202601 89.014396 369.655488 90.467284 
C 371.108376 91.920171 373.079191 92.73651 375.133884 92.73651 
z
" clip-path="url(#p2403c6b080)" style="fill: #1e9c89; fill-opacity: 0.5; stroke: #1e9c89; stroke-opacity: 0.5"/>
    <path d="M 379.233058 115.383093 
C 381.366407 115.383093 383.412667 114.535504 384.921173 113.026999 
C 386.429678 111.518493 387.277267 109.472233 387.277267 107.338884 
C 387.277267 105.205534 386.429678 103.159275 384.921173 101.650769 
C 383.412667 100.142263 381.366407 99.294674 379.233058 99.294674 
C 377.099709 99.294674 375.053449 100.142263 373.544943 101.650769 
C 372.036437 103.159275 371.188849 105.205534 371.188849 107.338884 
C 371.188849 109.472233 372.036437 111.518493 373.544943 113.026999 
C 375.053449 114.535504 377.099709 115.383093 379.233058 115.383093 
z
" clip-path="url(#p2403c6b080)" style="fill: #dfe318; fill-opacity: 0.5; stroke: #dfe318; stroke-opacity: 0.5"/>
    <path d="M 383.332231 99.782186 
C 384.146576 99.782186 384.927678 99.458643 385.503507 98.882814 
C 386.079336 98.306985 386.402878 97.525884 386.402878 96.711539 
C 386.402878 95.897194 386.079336 95.116092 385.503507 94.540264 
C 384.927678 93.964435 384.146576 93.640892 383.332231 93.640892 
C 382.517886 93.640892 381.736785 93.964435 381.160956 94.540264 
C 380.585127 95.116092 380.261585 95.897194 380.261585 96.711539 
C 380.261585 97.525884 380.585127 98.306985 381.160956 98.882814 
C 381.736785 99.458643 382.517886 99.782186 383.332231 99.782186 
z
" clip-path="url(#p2403c6b080)" style="fill: #e5e419; fill-opacity: 0.5; stroke: #e5e419; stroke-opacity: 0.5"/>
    <path d="M 387.431405 114.185187 
C 388.87583 114.185187 390.26129 113.611311 391.282653 112.589948 
C 392.304015 111.568585 392.877892 110.183126 392.877892 108.738701 
C 392.877892 107.294275 392.304015 105.908816 391.282653 104.887453 
C 390.26129 103.86609 388.87583 103.292214 387.431405 103.292214 
C 385.98698 103.292214 384.60152 103.86609 383.580157 104.887453 
C 382.558794 105.908816 381.984918 107.294275 381.984918 108.738701 
C 381.984918 110.183126 382.558794 111.568585 383.580157 112.589948 
C 384.60152 113.611311 385.98698 114.185187 387.431405 114.185187 
z
" clip-path="url(#p2403c6b080)" style="fill: #8bd646; fill-opacity: 0.5; stroke: #8bd646; stroke-opacity: 0.5"/>
    <path d="M 391.530579 143.484463 
C 392.119002 143.484463 392.683404 143.25068 393.099482 142.834602 
C 393.51556 142.418524 393.749343 141.854121 393.749343 141.265698 
C 393.749343 140.677275 393.51556 140.112872 393.099482 139.696794 
C 392.683404 139.280716 392.119002 139.046933 391.530579 139.046933 
C 390.942155 139.046933 390.377753 139.280716 389.961675 139.696794 
C 389.545597 140.112872 389.311814 140.677275 389.311814 141.265698 
C 389.311814 141.854121 389.545597 142.418524 389.961675 142.834602 
C 390.377753 143.25068 390.942155 143.484463 391.530579 143.484463 
z
" clip-path="url(#p2403c6b080)" style="fill: #3e4989; fill-opacity: 0.5; stroke: #3e4989; stroke-opacity: 0.5"/>
    <path d="M 395.629752 85.432441 
C 396.588379 85.432441 397.507873 85.051574 398.185725 84.373722 
C 398.863577 83.69587 399.244444 82.776377 399.244444 81.81775 
C 399.244444 80.859122 398.863577 79.939629 398.185725 79.261777 
C 397.507873 78.583925 396.588379 78.203058 395.629752 78.203058 
C 394.671125 78.203058 393.751631 78.583925 393.073779 79.261777 
C 392.395927 79.939629 392.015061 80.859122 392.015061 81.81775 
C 392.015061 82.776377 392.395927 83.69587 393.073779 84.373722 
C 393.751631 85.051574 394.671125 85.432441 395.629752 85.432441 
z
" clip-path="url(#p2403c6b080)" style="fill: #481467; fill-opacity: 0.5; stroke: #481467; stroke-opacity: 0.5"/>
    <path d="M 399.728926 111.916176 
C 401.153018 111.916176 402.518974 111.350378 403.525959 110.343393 
C 404.532944 109.336408 405.098742 107.970451 405.098742 106.546359 
C 405.098742 105.122267 404.532944 103.756311 403.525959 102.749326 
C 402.518974 101.742341 401.153018 101.176543 399.728926 101.176543 
C 398.304834 101.176543 396.938877 101.742341 395.931892 102.749326 
C 394.924907 103.756311 394.359109 105.122267 394.359109 106.546359 
C 394.359109 107.970451 394.924907 109.336408 395.931892 110.343393 
C 396.938877 111.350378 398.304834 111.916176 399.728926 111.916176 
z
" clip-path="url(#p2403c6b080)" style="fill: #31678e; fill-opacity: 0.5; stroke: #31678e; stroke-opacity: 0.5"/>
    <path d="M 403.828099 131.842793 
C 406.057683 131.842793 408.196248 130.95697 409.772802 129.380416 
C 411.349355 127.803863 412.235178 125.665297 412.235178 123.435714 
C 412.235178 121.20613 411.349355 119.067565 409.772802 117.491011 
C 408.196248 115.914457 406.057683 115.028635 403.828099 115.028635 
C 401.598516 115.028635 399.45995 115.914457 397.883396 117.491011 
C 396.306843 119.067565 395.42102 121.20613 395.42102 123.435714 
C 395.42102 125.665297 396.306843 127.803863 397.883396 129.380416 
C 399.45995 130.95697 401.598516 131.842793 403.828099 131.842793 
z
" clip-path="url(#p2403c6b080)" style="fill: #eae51a; fill-opacity: 0.5; stroke: #eae51a; stroke-opacity: 0.5"/>
    <path d="M 407.927273 131.600791 
C 409.093197 131.600791 410.211524 131.137565 411.035957 130.313132 
C 411.86039 129.488699 412.323616 128.370372 412.323616 127.204448 
C 412.323616 126.038524 411.86039 124.920196 411.035957 124.095763 
C 410.211524 123.271331 409.093197 122.808104 407.927273 122.808104 
C 406.761349 122.808104 405.643021 123.271331 404.818588 124.095763 
C 403.994156 124.920196 403.530929 126.038524 403.530929 127.204448 
C 403.530929 128.370372 403.994156 129.488699 404.818588 130.313132 
C 405.643021 131.137565 406.761349 131.600791 407.927273 131.600791 
z
" clip-path="url(#p2403c6b080)" style="fill: #481c6e; fill-opacity: 0.5; stroke: #481c6e; stroke-opacity: 0.5"/>
    <path d="M 412.026446 103.551979 
C 414.184871 103.551979 416.255183 102.694428 417.78142 101.168191 
C 419.307656 99.641954 420.165208 97.571642 420.165208 95.413218 
C 420.165208 93.254793 419.307656 91.184481 417.78142 89.658244 
C 416.255183 88.132008 414.184871 87.274456 412.026446 87.274456 
C 409.868022 87.274456 407.79771 88.132008 406.271473 89.658244 
C 404.745236 91.184481 403.887685 93.254793 403.887685 95.413218 
C 403.887685 97.571642 404.745236 99.641954 406.271473 101.168191 
C 407.79771 102.694428 409.868022 103.551979 412.026446 103.551979 
z
" clip-path="url(#p2403c6b080)" style="fill: #b0dd2f; fill-opacity: 0.5; stroke: #b0dd2f; stroke-opacity: 0.5"/>
    <path d="M 416.12562 133.872847 
C 416.957282 133.872847 417.754994 133.542424 418.343068 132.95435 
C 418.931142 132.366276 419.261564 131.568565 419.261564 130.736902 
C 419.261564 129.90524 418.931142 129.107529 418.343068 128.519455 
C 417.754994 127.931381 416.957282 127.600958 416.12562 127.600958 
C 415.293958 127.600958 414.496246 127.931381 413.908172 128.519455 
C 413.320098 129.107529 412.989675 129.90524 412.989675 130.736902 
C 412.989675 131.568565 413.320098 132.366276 413.908172 132.95435 
C 414.496246 133.542424 415.293958 133.872847 416.12562 133.872847 
z
" clip-path="url(#p2403c6b080)" style="fill: #1f988b; fill-opacity: 0.5; stroke: #1f988b; stroke-opacity: 0.5"/>
    <path d="M 420.224793 146.010128 
C 420.757384 146.010128 421.268232 145.798528 421.644831 145.42193 
C 422.021429 145.045331 422.233029 144.534483 422.233029 144.001892 
C 422.233029 143.469302 422.021429 142.958453 421.644831 142.581855 
C 421.268232 142.205257 420.757384 141.993656 420.224793 141.993656 
C 419.692203 141.993656 419.181354 142.205257 418.804756 142.581855 
C 418.428158 142.958453 418.216557 143.469302 418.216557 144.001892 
C 418.216557 144.534483 418.428158 145.045331 418.804756 145.42193 
C 419.181354 145.798528 419.692203 146.010128 420.224793 146.010128 
z
" clip-path="url(#p2403c6b080)" style="fill: #addc30; fill-opacity: 0.5; stroke: #addc30; stroke-opacity: 0.5"/>
    <path d="M 424.323967 47.025706 
C 424.956664 47.025706 425.563532 46.774333 426.010916 46.326949 
C 426.4583 45.879565 426.709673 45.272697 426.709673 44.64 
C 426.709673 44.007303 426.4583 43.400435 426.010916 42.953051 
C 425.563532 42.505667 424.956664 42.254294 424.323967 42.254294 
C 423.69127 42.254294 423.084402 42.505667 422.637018 42.953051 
C 422.189634 43.400435 421.938261 44.007303 421.938261 44.64 
C 421.938261 45.272697 422.189634 45.879565 422.637018 46.326949 
C 423.084402 46.774333 423.69127 47.025706 424.323967 47.025706 
z
" clip-path="url(#p2403c6b080)" style="fill: #23888e; fill-opacity: 0.5; stroke: #23888e; stroke-opacity: 0.5"/>
    <path d="M 428.42314 148.99362 
C 430.485697 148.99362 432.464055 148.174158 433.922503 146.71571 
C 435.380951 145.257262 436.200413 143.278904 436.200413 141.216347 
C 436.200413 139.153791 435.380951 137.175433 433.922503 135.716985 
C 432.464055 134.258537 430.485697 133.439075 428.42314 133.439075 
C 426.360584 133.439075 424.382226 134.258537 422.923778 135.716985 
C 421.46533 137.175433 420.645868 139.153791 420.645868 141.216347 
C 420.645868 143.278904 421.46533 145.257262 422.923778 146.71571 
C 424.382226 148.174158 426.360584 148.99362 428.42314 148.99362 
z
" clip-path="url(#p2403c6b080)" style="fill: #404688; fill-opacity: 0.5; stroke: #404688; stroke-opacity: 0.5"/>
    <path d="M 432.522314 145.950414 
C 433.953527 145.950414 435.326314 145.381787 436.338334 144.369767 
C 437.350354 143.357747 437.918981 141.98496 437.918981 140.553747 
C 437.918981 139.122534 437.350354 137.749748 436.338334 136.737727 
C 435.326314 135.725707 433.953527 135.15708 432.522314 135.15708 
C 431.091101 135.15708 429.718315 135.725707 428.706294 136.737727 
C 427.694274 137.749748 427.125647 139.122534 427.125647 140.553747 
C 427.125647 141.98496 427.694274 143.357747 428.706294 144.369767 
C 429.718315 145.381787 431.091101 145.950414 432.522314 145.950414 
z
" clip-path="url(#p2403c6b080)" style="fill: #e7e419; fill-opacity: 0.5; stroke: #e7e419; stroke-opacity: 0.5"/>
    <path d="M 436.621488 92.825588 
C 438.056357 92.825588 439.432651 92.255509 440.447257 91.240903 
C 441.461864 90.226297 442.031943 88.850002 442.031943 87.415133 
C 442.031943 85.980263 441.461864 84.603969 440.447257 83.589363 
C 439.432651 82.574757 438.056357 82.004677 436.621488 82.004677 
C 435.186618 82.004677 433.810324 82.574757 432.795718 83.589363 
C 431.781112 84.603969 431.211032 85.980263 431.211032 87.415133 
C 431.211032 88.850002 431.781112 90.226297 432.795718 91.240903 
C 433.810324 92.255509 435.186618 92.825588 436.621488 92.825588 
z
" clip-path="url(#p2403c6b080)" style="fill: #60ca60; fill-opacity: 0.5; stroke: #60ca60; stroke-opacity: 0.5"/>
    <path d="M 440.720661 74.020452 
C 442.08605 74.020452 443.3957 73.477977 444.361176 72.512501 
C 445.326652 71.547025 445.869127 70.237375 445.869127 68.871986 
C 445.869127 67.506597 445.326652 66.196947 444.361176 65.231471 
C 443.3957 64.265995 442.08605 63.72352 440.720661 63.72352 
C 439.355272 63.72352 438.045622 64.265995 437.080146 65.231471 
C 436.11467 66.196947 435.572196 67.506597 435.572196 68.871986 
C 435.572196 70.237375 436.11467 71.547025 437.080146 72.512501 
C 438.045622 73.477977 439.355272 74.020452 440.720661 74.020452 
z
" clip-path="url(#p2403c6b080)" style="fill: #60ca60; fill-opacity: 0.5; stroke: #60ca60; stroke-opacity: 0.5"/>
    <path d="M 444.819835 91.497887 
C 445.376887 91.497887 445.911199 91.276567 446.305095 90.882672 
C 446.698991 90.488776 446.92031 89.954464 446.92031 89.397411 
C 446.92031 88.840359 446.698991 88.306047 446.305095 87.912151 
C 445.911199 87.518256 445.376887 87.296936 444.819835 87.296936 
C 444.262782 87.296936 443.72847 87.518256 443.334574 87.912151 
C 442.940679 88.306047 442.719359 88.840359 442.719359 89.397411 
C 442.719359 89.954464 442.940679 90.488776 443.334574 90.882672 
C 443.72847 91.276567 444.262782 91.497887 444.819835 91.497887 
z
" clip-path="url(#p2403c6b080)" style="fill: #277e8e; fill-opacity: 0.5; stroke: #277e8e; stroke-opacity: 0.5"/>
    <path d="M 448.919008 133.165946 
C 450.010164 133.165946 451.056775 132.732426 451.828339 131.960862 
C 452.599902 131.189299 453.033423 130.142687 453.033423 129.051532 
C 453.033423 127.960376 452.599902 126.913765 451.828339 126.142201 
C 451.056775 125.370638 450.010164 124.937117 448.919008 124.937117 
C 447.827853 124.937117 446.781241 125.370638 446.009678 126.142201 
C 445.238114 126.913765 444.804594 127.960376 444.804594 129.051532 
C 444.804594 130.142687 445.238114 131.189299 446.009678 131.960862 
C 446.781241 132.732426 447.827853 133.165946 448.919008 133.165946 
z
" clip-path="url(#p2403c6b080)" style="fill: #3f4788; fill-opacity: 0.5; stroke: #3f4788; stroke-opacity: 0.5"/>
    <path d="M 453.018182 81.419935 
C 455.001197 81.419935 456.90326 80.632075 458.305463 79.229871 
C 459.707667 77.827668 460.495527 75.925605 460.495527 73.942589 
C 460.495527 71.959574 459.707667 70.057511 458.305463 68.655308 
C 456.90326 67.253104 455.001197 66.465244 453.018182 66.465244 
C 451.035167 66.465244 449.133104 67.253104 447.7309 68.655308 
C 446.328697 70.057511 445.540836 71.959574 445.540836 73.942589 
C 445.540836 75.925605 446.328697 77.827668 447.7309 79.229871 
C 449.133104 80.632075 451.035167 81.419935 453.018182 81.419935 
z
" clip-path="url(#p2403c6b080)" style="fill: #2d718e; fill-opacity: 0.5; stroke: #2d718e; stroke-opacity: 0.5"/>
    <path d="M 457.117355 109.051391 
C 458.285589 109.051391 459.406131 108.587247 460.232197 107.761182 
C 461.058263 106.935116 461.522407 105.814573 461.522407 104.64634 
C 461.522407 103.478107 461.058263 102.357564 460.232197 101.531499 
C 459.406131 100.705433 458.285589 100.241289 457.117355 100.241289 
C 455.949122 100.241289 454.828579 100.705433 454.002514 101.531499 
C 453.176448 102.357564 452.712304 103.478107 452.712304 104.64634 
C 452.712304 105.814573 453.176448 106.935116 454.002514 107.761182 
C 454.828579 108.587247 455.949122 109.051391 457.117355 109.051391 
z
" clip-path="url(#p2403c6b080)" style="fill: #addc30; fill-opacity: 0.5; stroke: #addc30; stroke-opacity: 0.5"/>
    <path d="M 461.216529 103.114967 
C 461.694323 103.114967 462.152612 102.925137 462.490464 102.587286 
C 462.828315 102.249434 463.018145 101.791145 463.018145 101.313351 
C 463.018145 100.835557 462.828315 100.377267 462.490464 100.039416 
C 462.152612 99.701564 461.694323 99.511735 461.216529 99.511735 
C 460.738735 99.511735 460.280445 99.701564 459.942594 100.039416 
C 459.604742 100.377267 459.414913 100.835557 459.414913 101.313351 
C 459.414913 101.791145 459.604742 102.249434 459.942594 102.587286 
C 460.280445 102.925137 460.738735 103.114967 461.216529 103.114967 
z
" clip-path="url(#p2403c6b080)" style="fill: #471365; fill-opacity: 0.5; stroke: #471365; stroke-opacity: 0.5"/>
    <path d="M 465.315702 118.889126 
C 465.939028 118.889126 466.536908 118.641476 466.977666 118.200718 
C 467.418424 117.75996 467.666074 117.16208 467.666074 116.538754 
C 467.666074 115.915428 467.418424 115.317548 466.977666 114.87679 
C 466.536908 114.436032 465.939028 114.188382 465.315702 114.188382 
C 464.692377 114.188382 464.094497 114.436032 463.653739 114.87679 
C 463.212981 115.317548 462.965331 115.915428 462.965331 116.538754 
C 462.965331 117.16208 463.212981 117.75996 463.653739 118.200718 
C 464.094497 118.641476 464.692377 118.889126 465.315702 118.889126 
z
" clip-path="url(#p2403c6b080)" style="fill: #e5e419; fill-opacity: 0.5; stroke: #e5e419; stroke-opacity: 0.5"/>
    <path d="M 469.414876 71.502075 
C 470.960579 71.502075 472.443182 70.887961 473.536159 69.794984 
C 474.629136 68.702007 475.243251 67.219404 475.243251 65.673701 
C 475.243251 64.127998 474.629136 62.645395 473.536159 61.552417 
C 472.443182 60.45944 470.960579 59.845326 469.414876 59.845326 
C 467.869173 59.845326 466.38657 60.45944 465.293593 61.552417 
C 464.200616 62.645395 463.586501 64.127998 463.586501 65.673701 
C 463.586501 67.219404 464.200616 68.702007 465.293593 69.794984 
C 466.38657 70.887961 467.869173 71.502075 469.414876 71.502075 
z
" clip-path="url(#p2403c6b080)" style="fill: #b5de2b; fill-opacity: 0.5; stroke: #b5de2b; stroke-opacity: 0.5"/>
    <path d="M 473.51405 102.840111 
C 474.082918 102.840111 474.628564 102.614097 475.030814 102.211846 
C 475.433065 101.809596 475.659079 101.26395 475.659079 100.695082 
C 475.659079 100.126213 475.433065 99.580568 475.030814 99.178317 
C 474.628564 98.776066 474.082918 98.550052 473.51405 98.550052 
C 472.945181 98.550052 472.399536 98.776066 471.997285 99.178317 
C 471.595034 99.580568 471.36902 100.126213 471.36902 100.695082 
C 471.36902 101.26395 471.595034 101.809596 471.997285 102.211846 
C 472.399536 102.614097 472.945181 102.840111 473.51405 102.840111 
z
" clip-path="url(#p2403c6b080)" style="fill: #25ab82; fill-opacity: 0.5; stroke: #25ab82; stroke-opacity: 0.5"/>
    <path d="M 477.613223 100.385379 
C 478.124371 100.385379 478.614653 100.182298 478.976089 99.820862 
C 479.337526 99.459425 479.540607 98.969143 479.540607 98.457995 
C 479.540607 97.946847 479.337526 97.456565 478.976089 97.095129 
C 478.614653 96.733693 478.124371 96.530611 477.613223 96.530611 
C 477.102075 96.530611 476.611793 96.733693 476.250357 97.095129 
C 475.888921 97.456565 475.685839 97.946847 475.685839 98.457995 
C 475.685839 98.969143 475.888921 99.459425 476.250357 99.820862 
C 476.611793 100.182298 477.102075 100.385379 477.613223 100.385379 
z
" clip-path="url(#p2403c6b080)" style="fill: #472d7b; fill-opacity: 0.5; stroke: #472d7b; stroke-opacity: 0.5"/>
    <path d="M 481.712397 116.112456 
C 482.965272 116.112456 484.167001 115.614684 485.052917 114.728767 
C 485.938834 113.842851 486.436606 112.641121 486.436606 111.388246 
C 486.436606 110.135371 485.938834 108.933642 485.052917 108.047726 
C 484.167001 107.161809 482.965272 106.664037 481.712397 106.664037 
C 480.459522 106.664037 479.257792 107.161809 478.371876 108.047726 
C 477.48596 108.933642 476.988187 110.135371 476.988187 111.388246 
C 476.988187 112.641121 477.48596 113.842851 478.371876 114.728767 
C 479.257792 115.614684 480.459522 116.112456 481.712397 116.112456 
z
" clip-path="url(#p2403c6b080)" style="fill: #81d34d; fill-opacity: 0.5; stroke: #81d34d; stroke-opacity: 0.5"/>
    <path d="M 485.81157 106.444267 
C 486.622297 106.444267 487.399928 106.122162 487.973199 105.548891 
C 488.546469 104.975621 488.868574 104.19799 488.868574 103.387263 
C 488.868574 102.576536 488.546469 101.798905 487.973199 101.225635 
C 487.399928 100.652364 486.622297 100.330259 485.81157 100.330259 
C 485.000843 100.330259 484.223212 100.652364 483.649942 101.225635 
C 483.076671 101.798905 482.754566 102.576536 482.754566 103.387263 
C 482.754566 104.19799 483.076671 104.975621 483.649942 105.548891 
C 484.223212 106.122162 485.000843 106.444267 485.81157 106.444267 
z
" clip-path="url(#p2403c6b080)" style="fill: #3d4e8a; fill-opacity: 0.5; stroke: #3d4e8a; stroke-opacity: 0.5"/>
    <path d="M 489.910744 82.88067 
C 490.890689 82.88067 491.83063 82.491333 492.523555 81.798407 
C 493.216481 81.105482 493.605818 80.165541 493.605818 79.185596 
C 493.605818 78.205651 493.216481 77.26571 492.523555 76.572784 
C 491.83063 75.879858 490.890689 75.490522 489.910744 75.490522 
C 488.930799 75.490522 487.990858 75.879858 487.297932 76.572784 
C 486.605006 77.26571 486.21567 78.205651 486.21567 79.185596 
C 486.21567 80.165541 486.605006 81.105482 487.297932 81.798407 
C 487.990858 82.491333 488.930799 82.88067 489.910744 82.88067 
z
" clip-path="url(#p2403c6b080)" style="fill: #440154; fill-opacity: 0.5; stroke: #440154; stroke-opacity: 0.5"/>
    <path d="M 494.009917 103.889612 
C 494.636031 103.889612 495.236584 103.640855 495.679313 103.198126 
C 496.122042 102.755397 496.3708 102.154843 496.3708 101.52873 
C 496.3708 100.902616 496.122042 100.302063 495.679313 99.859334 
C 495.236584 99.416605 494.636031 99.167847 494.009917 99.167847 
C 493.383804 99.167847 492.78325 99.416605 492.340521 99.859334 
C 491.897792 100.302063 491.649035 100.902616 491.649035 101.52873 
C 491.649035 102.154843 491.897792 102.755397 492.340521 103.198126 
C 492.78325 103.640855 493.383804 103.889612 494.009917 103.889612 
z
" clip-path="url(#p2403c6b080)" style="fill: #2cb17e; fill-opacity: 0.5; stroke: #2cb17e; stroke-opacity: 0.5"/>
    <path d="M 498.109091 70.647008 
C 499.562179 70.647008 500.955947 70.06969 501.983436 69.042202 
C 503.010924 68.014714 503.588242 66.620945 503.588242 65.167858 
C 503.588242 63.71477 503.010924 62.321001 501.983436 61.293513 
C 500.955947 60.266025 499.562179 59.688707 498.109091 59.688707 
C 496.656003 59.688707 495.262234 60.266025 494.234746 61.293513 
C 493.207258 62.321001 492.62994 63.71477 492.62994 65.167858 
C 492.62994 66.620945 493.207258 68.014714 494.234746 69.042202 
C 495.262234 70.06969 496.656003 70.647008 498.109091 70.647008 
z
" clip-path="url(#p2403c6b080)" style="fill: #23898e; fill-opacity: 0.5; stroke: #23898e; stroke-opacity: 0.5"/>
   </g>
   <g id="matplotlib.axis_1">
    <g id="xtick_1">
     <g id="line2d_1">
      <defs>
       <path id="mff55f59fda" d="M 0 0 
L 0 3.5 
" style="stroke: #000000; stroke-width: 0.8"/>
      </defs>
      <g>
       <use xlink:href="#mff55f59fda" x="92.290909" y="256.32" style="stroke: #000000; stroke-width: 0.8"/>
      </g>
     </g>
     <g id="text_1">
      <!-- 0 -->
      <g transform="translate(89.109659 270.918437) scale(0.1 -0.1)">
       <defs>
        <path id="DejaVuSans-30" d="M 2034 4250 
Q 1547 4250 1301 3770 
Q 1056 3291 1056 2328 
Q 1056 1369 1301 889 
Q 1547 409 2034 409 
Q 2525 409 2770 889 
Q 3016 1369 3016 2328 
Q 3016 3291 2770 3770 
Q 2525 4250 2034 4250 
z
M 2034 4750 
Q 2819 4750 3233 4129 
Q 3647 3509 3647 2328 
Q 3647 1150 3233 529 
Q 2819 -91 2034 -91 
Q 1250 -91 836 529 
Q 422 1150 422 2328 
Q 422 3509 836 4129 
Q 1250 4750 2034 4750 
z
" transform="scale(0.015625)"/>
       </defs>
       <use xlink:href="#DejaVuSans-30"/>
      </g>
     </g>
    </g>
    <g id="xtick_2">
     <g id="line2d_2">
      <g>
       <use xlink:href="#mff55f59fda" x="174.27438" y="256.32" style="stroke: #000000; stroke-width: 0.8"/>
      </g>
     </g>
     <g id="text_2">
      <!-- 20 -->
      <g transform="translate(167.91188 270.918437) scale(0.1 -0.1)">
       <defs>
        <path id="DejaVuSans-32" d="M 1228 531 
L 3431 531 
L 3431 0 
L 469 0 
L 469 531 
Q 828 903 1448 1529 
Q 2069 2156 2228 2338 
Q 2531 2678 2651 2914 
Q 2772 3150 2772 3378 
Q 2772 3750 2511 3984 
Q 2250 4219 1831 4219 
Q 1534 4219 1204 4116 
Q 875 4013 500 3803 
L 500 4441 
Q 881 4594 1212 4672 
Q 1544 4750 1819 4750 
Q 2544 4750 2975 4387 
Q 3406 4025 3406 3419 
Q 3406 3131 3298 2873 
Q 3191 2616 2906 2266 
Q 2828 2175 2409 1742 
Q 1991 1309 1228 531 
z
" transform="scale(0.015625)"/>
       </defs>
       <use xlink:href="#DejaVuSans-32"/>
       <use xlink:href="#DejaVuSans-30" x="63.623047"/>
      </g>
     </g>
    </g>
    <g id="xtick_3">
     <g id="line2d_3">
      <g>
       <use xlink:href="#mff55f59fda" x="256.257851" y="256.32" style="stroke: #000000; stroke-width: 0.8"/>
      </g>
     </g>
     <g id="text_3">
      <!-- 40 -->
      <g transform="translate(249.895351 270.918437) scale(0.1 -0.1)">
       <defs>
        <path id="DejaVuSans-34" d="M 2419 4116 
L 825 1625 
L 2419 1625 
L 2419 4116 
z
M 2253 4666 
L 3047 4666 
L 3047 1625 
L 3713 1625 
L 3713 1100 
L 3047 1100 
L 3047 0 
L 2419 0 
L 2419 1100 
L 313 1100 
L 313 1709 
L 2253 4666 
z
" transform="scale(0.015625)"/>
       </defs>
       <use xlink:href="#DejaVuSans-34"/>
       <use xlink:href="#DejaVuSans-30" x="63.623047"/>
      </g>
     </g>
    </g>
    <g id="xtick_4">
     <g id="line2d_4">
      <g>
       <use xlink:href="#mff55f59fda" x="338.241322" y="256.32" style="stroke: #000000; stroke-width: 0.8"/>
      </g>
     </g>
     <g id="text_4">
      <!-- 60 -->
      <g transform="translate(331.878822 270.918437) scale(0.1 -0.1)">
       <defs>
        <path id="DejaVuSans-36" d="M 2113 2584 
Q 1688 2584 1439 2293 
Q 1191 2003 1191 1497 
Q 1191 994 1439 701 
Q 1688 409 2113 409 
Q 2538 409 2786 701 
Q 3034 994 3034 1497 
Q 3034 2003 2786 2293 
Q 2538 2584 2113 2584 
z
M 3366 4563 
L 3366 3988 
Q 3128 4100 2886 4159 
Q 2644 4219 2406 4219 
Q 1781 4219 1451 3797 
Q 1122 3375 1075 2522 
Q 1259 2794 1537 2939 
Q 1816 3084 2150 3084 
Q 2853 3084 3261 2657 
Q 3669 2231 3669 1497 
Q 3669 778 3244 343 
Q 2819 -91 2113 -91 
Q 1303 -91 875 529 
Q 447 1150 447 2328 
Q 447 3434 972 4092 
Q 1497 4750 2381 4750 
Q 2619 4750 2861 4703 
Q 3103 4656 3366 4563 
z
" transform="scale(0.015625)"/>
       </defs>
       <use xlink:href="#DejaVuSans-36"/>
       <use xlink:href="#DejaVuSans-30" x="63.623047"/>
      </g>
     </g>
    </g>
    <g id="xtick_5">
     <g id="line2d_5">
      <g>
       <use xlink:href="#mff55f59fda" x="420.224793" y="256.32" style="stroke: #000000; stroke-width: 0.8"/>
      </g>
     </g>
     <g id="text_5">
      <!-- 80 -->
      <g transform="translate(413.862293 270.918437) scale(0.1 -0.1)">
       <defs>
        <path id="DejaVuSans-38" d="M 2034 2216 
Q 1584 2216 1326 1975 
Q 1069 1734 1069 1313 
Q 1069 891 1326 650 
Q 1584 409 2034 409 
Q 2484 409 2743 651 
Q 3003 894 3003 1313 
Q 3003 1734 2745 1975 
Q 2488 2216 2034 2216 
z
M 1403 2484 
Q 997 2584 770 2862 
Q 544 3141 544 3541 
Q 544 4100 942 4425 
Q 1341 4750 2034 4750 
Q 2731 4750 3128 4425 
Q 3525 4100 3525 3541 
Q 3525 3141 3298 2862 
Q 3072 2584 2669 2484 
Q 3125 2378 3379 2068 
Q 3634 1759 3634 1313 
Q 3634 634 3220 271 
Q 2806 -91 2034 -91 
Q 1263 -91 848 271 
Q 434 634 434 1313 
Q 434 1759 690 2068 
Q 947 2378 1403 2484 
z
M 1172 3481 
Q 1172 3119 1398 2916 
Q 1625 2713 2034 2713 
Q 2441 2713 2670 2916 
Q 2900 3119 2900 3481 
Q 2900 3844 2670 4047 
Q 2441 4250 2034 4250 
Q 1625 4250 1398 4047 
Q 1172 3844 1172 3481 
z
" transform="scale(0.015625)"/>
       </defs>
       <use xlink:href="#DejaVuSans-38"/>
       <use xlink:href="#DejaVuSans-30" x="63.623047"/>
      </g>
     </g>
    </g>
    <g id="xtick_6">
     <g id="line2d_6">
      <g>
       <use xlink:href="#mff55f59fda" x="502.208264" y="256.32" style="stroke: #000000; stroke-width: 0.8"/>
      </g>
     </g>
     <g id="text_6">
      <!-- 100 -->
      <g transform="translate(492.664514 270.918437) scale(0.1 -0.1)">
       <defs>
        <path id="DejaVuSans-31" d="M 794 531 
L 1825 531 
L 1825 4091 
L 703 3866 
L 703 4441 
L 1819 4666 
L 2450 4666 
L 2450 531 
L 3481 531 
L 3481 0 
L 794 0 
L 794 531 
z
" transform="scale(0.015625)"/>
       </defs>
       <use xlink:href="#DejaVuSans-31"/>
       <use xlink:href="#DejaVuSans-30" x="63.623047"/>
       <use xlink:href="#DejaVuSans-30" x="127.246094"/>
      </g>
     </g>
    </g>
   </g>
   <g id="matplotlib.axis_2">
    <g id="ytick_1">
     <g id="line2d_7">
      <defs>
       <path id="m4e440c1f5d" d="M 0 0 
L -3.5 0 
" style="stroke: #000000; stroke-width: 0.8"/>
      </defs>
      <g>
       <use xlink:href="#m4e440c1f5d" x="72" y="241.491926" style="stroke: #000000; stroke-width: 0.8"/>
      </g>
     </g>
     <g id="text_7">
      <!-- 20 -->
      <g transform="translate(43.895313 245.291145) scale(0.1 -0.1)">
       <defs>
        <path id="DejaVuSans-2212" d="M 678 2272 
L 4684 2272 
L 4684 1741 
L 678 1741 
L 678 2272 
z
" transform="scale(0.015625)"/>
       </defs>
       <use xlink:href="#DejaVuSans-2212"/>
       <use xlink:href="#DejaVuSans-32" x="83.789062"/>
       <use xlink:href="#DejaVuSans-30" x="147.412109"/>
      </g>
     </g>
    </g>
    <g id="ytick_2">
     <g id="line2d_8">
      <g>
       <use xlink:href="#m4e440c1f5d" x="72" y="195.449801" style="stroke: #000000; stroke-width: 0.8"/>
      </g>
     </g>
     <g id="text_8">
      <!-- 0 -->
      <g transform="translate(58.6375 199.24902) scale(0.1 -0.1)">
       <use xlink:href="#DejaVuSans-30"/>
      </g>
     </g>
    </g>
    <g id="ytick_3">
     <g id="line2d_9">
      <g>
       <use xlink:href="#m4e440c1f5d" x="72" y="149.407676" style="stroke: #000000; stroke-width: 0.8"/>
      </g>
     </g>
     <g id="text_9">
      <!-- 20 -->
      <g transform="translate(52.275 153.206895) scale(0.1 -0.1)">
       <use xlink:href="#DejaVuSans-32"/>
       <use xlink:href="#DejaVuSans-30" x="63.623047"/>
      </g>
     </g>
    </g>
    <g id="ytick_4">
     <g id="line2d_10">
      <g>
       <use xlink:href="#m4e440c1f5d" x="72" y="103.365551" style="stroke: #000000; stroke-width: 0.8"/>
      </g>
     </g>
     <g id="text_10">
      <!-- 40 -->
      <g transform="translate(52.275 107.164769) scale(0.1 -0.1)">
       <use xlink:href="#DejaVuSans-34"/>
       <use xlink:href="#DejaVuSans-30" x="63.623047"/>
      </g>
     </g>
    </g>
    <g id="ytick_5">
     <g id="line2d_11">
      <g>
       <use xlink:href="#m4e440c1f5d" x="72" y="57.323425" style="stroke: #000000; stroke-width: 0.8"/>
      </g>
     </g>
     <g id="text_11">
      <!-- 60 -->
      <g transform="translate(52.275 61.122644) scale(0.1 -0.1)">
       <use xlink:href="#DejaVuSans-36"/>
       <use xlink:href="#DejaVuSans-30" x="63.623047"/>
      </g>
     </g>
    </g>
   </g>
   <g id="patch_3">
    <path d="M 72 256.32 
L 72 34.56 
" style="fill: none; stroke: #000000; stroke-width: 0.8; stroke-linejoin: miter; stroke-linecap: square"/>
   </g>
   <g id="patch_4">
    <path d="M 518.4 256.32 
L 518.4 34.56 
" style="fill: none; stroke: #000000; stroke-width: 0.8; stroke-linejoin: miter; stroke-linecap: square"/>
   </g>
   <g id="patch_5">
    <path d="M 72 256.32 
L 518.4 256.32 
" style="fill: none; stroke: #000000; stroke-width: 0.8; stroke-linejoin: miter; stroke-linecap: square"/>
   </g>
   <g id="patch_6">
    <path d="M 72 34.56 
L 518.4 34.56 
" style="fill: none; stroke: #000000; stroke-width: 0.8; stroke-linejoin: miter; stroke-linecap: square"/>
   </g>
  </g>
  <g id="text_12">
   <!-- Scatterplot with Color and Size Specified -->
   <g transform="translate(165.763125 14.878125) scale(0.12 -0.12)">
    <defs>
     <path id="DejaVuSans-53" d="M 3425 4513 
L 3425 3897 
Q 3066 4069 2747 4153 
Q 2428 4238 2131 4238 
Q 1616 4238 1336 4038 
Q 1056 3838 1056 3469 
Q 1056 3159 1242 3001 
Q 1428 2844 1947 2747 
L 2328 2669 
Q 3034 2534 3370 2195 
Q 3706 1856 3706 1288 
Q 3706 609 3251 259 
Q 2797 -91 1919 -91 
Q 1588 -91 1214 -16 
Q 841 59 441 206 
L 441 856 
Q 825 641 1194 531 
Q 1563 422 1919 422 
Q 2459 422 2753 634 
Q 3047 847 3047 1241 
Q 3047 1584 2836 1778 
Q 2625 1972 2144 2069 
L 1759 2144 
Q 1053 2284 737 2584 
Q 422 2884 422 3419 
Q 422 4038 858 4394 
Q 1294 4750 2059 4750 
Q 2388 4750 2728 4690 
Q 3069 4631 3425 4513 
z
" transform="scale(0.015625)"/>
     <path id="DejaVuSans-63" d="M 3122 3366 
L 3122 2828 
Q 2878 2963 2633 3030 
Q 2388 3097 2138 3097 
Q 1578 3097 1268 2742 
Q 959 2388 959 1747 
Q 959 1106 1268 751 
Q 1578 397 2138 397 
Q 2388 397 2633 464 
Q 2878 531 3122 666 
L 3122 134 
Q 2881 22 2623 -34 
Q 2366 -91 2075 -91 
Q 1284 -91 818 406 
Q 353 903 353 1747 
Q 353 2603 823 3093 
Q 1294 3584 2113 3584 
Q 2378 3584 2631 3529 
Q 2884 3475 3122 3366 
z
" transform="scale(0.015625)"/>
     <path id="DejaVuSans-61" d="M 2194 1759 
Q 1497 1759 1228 1600 
Q 959 1441 959 1056 
Q 959 750 1161 570 
Q 1363 391 1709 391 
Q 2188 391 2477 730 
Q 2766 1069 2766 1631 
L 2766 1759 
L 2194 1759 
z
M 3341 1997 
L 3341 0 
L 2766 0 
L 2766 531 
Q 2569 213 2275 61 
Q 1981 -91 1556 -91 
Q 1019 -91 701 211 
Q 384 513 384 1019 
Q 384 1609 779 1909 
Q 1175 2209 1959 2209 
L 2766 2209 
L 2766 2266 
Q 2766 2663 2505 2880 
Q 2244 3097 1772 3097 
Q 1472 3097 1187 3025 
Q 903 2953 641 2809 
L 641 3341 
Q 956 3463 1253 3523 
Q 1550 3584 1831 3584 
Q 2591 3584 2966 3190 
Q 3341 2797 3341 1997 
z
" transform="scale(0.015625)"/>
     <path id="DejaVuSans-74" d="M 1172 4494 
L 1172 3500 
L 2356 3500 
L 2356 3053 
L 1172 3053 
L 1172 1153 
Q 1172 725 1289 603 
Q 1406 481 1766 481 
L 2356 481 
L 2356 0 
L 1766 0 
Q 1100 0 847 248 
Q 594 497 594 1153 
L 594 3053 
L 172 3053 
L 172 3500 
L 594 3500 
L 594 4494 
L 1172 4494 
z
" transform="scale(0.015625)"/>
     <path id="DejaVuSans-65" d="M 3597 1894 
L 3597 1613 
L 953 1613 
Q 991 1019 1311 708 
Q 1631 397 2203 397 
Q 2534 397 2845 478 
Q 3156 559 3463 722 
L 3463 178 
Q 3153 47 2828 -22 
Q 2503 -91 2169 -91 
Q 1331 -91 842 396 
Q 353 884 353 1716 
Q 353 2575 817 3079 
Q 1281 3584 2069 3584 
Q 2775 3584 3186 3129 
Q 3597 2675 3597 1894 
z
M 3022 2063 
Q 3016 2534 2758 2815 
Q 2500 3097 2075 3097 
Q 1594 3097 1305 2825 
Q 1016 2553 972 2059 
L 3022 2063 
z
" transform="scale(0.015625)"/>
     <path id="DejaVuSans-72" d="M 2631 2963 
Q 2534 3019 2420 3045 
Q 2306 3072 2169 3072 
Q 1681 3072 1420 2755 
Q 1159 2438 1159 1844 
L 1159 0 
L 581 0 
L 581 3500 
L 1159 3500 
L 1159 2956 
Q 1341 3275 1631 3429 
Q 1922 3584 2338 3584 
Q 2397 3584 2469 3576 
Q 2541 3569 2628 3553 
L 2631 2963 
z
" transform="scale(0.015625)"/>
     <path id="DejaVuSans-70" d="M 1159 525 
L 1159 -1331 
L 581 -1331 
L 581 3500 
L 1159 3500 
L 1159 2969 
Q 1341 3281 1617 3432 
Q 1894 3584 2278 3584 
Q 2916 3584 3314 3078 
Q 3713 2572 3713 1747 
Q 3713 922 3314 415 
Q 2916 -91 2278 -91 
Q 1894 -91 1617 61 
Q 1341 213 1159 525 
z
M 3116 1747 
Q 3116 2381 2855 2742 
Q 2594 3103 2138 3103 
Q 1681 3103 1420 2742 
Q 1159 2381 1159 1747 
Q 1159 1113 1420 752 
Q 1681 391 2138 391 
Q 2594 391 2855 752 
Q 3116 1113 3116 1747 
z
" transform="scale(0.015625)"/>
     <path id="DejaVuSans-6c" d="M 603 4863 
L 1178 4863 
L 1178 0 
L 603 0 
L 603 4863 
z
" transform="scale(0.015625)"/>
     <path id="DejaVuSans-6f" d="M 1959 3097 
Q 1497 3097 1228 2736 
Q 959 2375 959 1747 
Q 959 1119 1226 758 
Q 1494 397 1959 397 
Q 2419 397 2687 759 
Q 2956 1122 2956 1747 
Q 2956 2369 2687 2733 
Q 2419 3097 1959 3097 
z
M 1959 3584 
Q 2709 3584 3137 3096 
Q 3566 2609 3566 1747 
Q 3566 888 3137 398 
Q 2709 -91 1959 -91 
Q 1206 -91 779 398 
Q 353 888 353 1747 
Q 353 2609 779 3096 
Q 1206 3584 1959 3584 
z
" transform="scale(0.015625)"/>
     <path id="DejaVuSans-20" transform="scale(0.015625)"/>
     <path id="DejaVuSans-77" d="M 269 3500 
L 844 3500 
L 1563 769 
L 2278 3500 
L 2956 3500 
L 3675 769 
L 4391 3500 
L 4966 3500 
L 4050 0 
L 3372 0 
L 2619 2869 
L 1863 0 
L 1184 0 
L 269 3500 
z
" transform="scale(0.015625)"/>
     <path id="DejaVuSans-69" d="M 603 3500 
L 1178 3500 
L 1178 0 
L 603 0 
L 603 3500 
z
M 603 4863 
L 1178 4863 
L 1178 4134 
L 603 4134 
L 603 4863 
z
" transform="scale(0.015625)"/>
     <path id="DejaVuSans-68" d="M 3513 2113 
L 3513 0 
L 2938 0 
L 2938 2094 
Q 2938 2591 2744 2837 
Q 2550 3084 2163 3084 
Q 1697 3084 1428 2787 
Q 1159 2491 1159 1978 
L 1159 0 
L 581 0 
L 581 4863 
L 1159 4863 
L 1159 2956 
Q 1366 3272 1645 3428 
Q 1925 3584 2291 3584 
Q 2894 3584 3203 3211 
Q 3513 2838 3513 2113 
z
" transform="scale(0.015625)"/>
     <path id="DejaVuSans-43" d="M 4122 4306 
L 4122 3641 
Q 3803 3938 3442 4084 
Q 3081 4231 2675 4231 
Q 1875 4231 1450 3742 
Q 1025 3253 1025 2328 
Q 1025 1406 1450 917 
Q 1875 428 2675 428 
Q 3081 428 3442 575 
Q 3803 722 4122 1019 
L 4122 359 
Q 3791 134 3420 21 
Q 3050 -91 2638 -91 
Q 1578 -91 968 557 
Q 359 1206 359 2328 
Q 359 3453 968 4101 
Q 1578 4750 2638 4750 
Q 3056 4750 3426 4639 
Q 3797 4528 4122 4306 
z
" transform="scale(0.015625)"/>
     <path id="DejaVuSans-6e" d="M 3513 2113 
L 3513 0 
L 2938 0 
L 2938 2094 
Q 2938 2591 2744 2837 
Q 2550 3084 2163 3084 
Q 1697 3084 1428 2787 
Q 1159 2491 1159 1978 
L 1159 0 
L 581 0 
L 581 3500 
L 1159 3500 
L 1159 2956 
Q 1366 3272 1645 3428 
Q 1925 3584 2291 3584 
Q 2894 3584 3203 3211 
Q 3513 2838 3513 2113 
z
" transform="scale(0.015625)"/>
     <path id="DejaVuSans-64" d="M 2906 2969 
L 2906 4863 
L 3481 4863 
L 3481 0 
L 2906 0 
L 2906 525 
Q 2725 213 2448 61 
Q 2172 -91 1784 -91 
Q 1150 -91 751 415 
Q 353 922 353 1747 
Q 353 2572 751 3078 
Q 1150 3584 1784 3584 
Q 2172 3584 2448 3432 
Q 2725 3281 2906 2969 
z
M 947 1747 
Q 947 1113 1208 752 
Q 1469 391 1925 391 
Q 2381 391 2643 752 
Q 2906 1113 2906 1747 
Q 2906 2381 2643 2742 
Q 2381 3103 1925 3103 
Q 1469 3103 1208 2742 
Q 947 2381 947 1747 
z
" transform="scale(0.015625)"/>
     <path id="DejaVuSans-7a" d="M 353 3500 
L 3084 3500 
L 3084 2975 
L 922 459 
L 3084 459 
L 3084 0 
L 275 0 
L 275 525 
L 2438 3041 
L 353 3041 
L 353 3500 
z
" transform="scale(0.015625)"/>
     <path id="DejaVuSans-66" d="M 2375 4863 
L 2375 4384 
L 1825 4384 
Q 1516 4384 1395 4259 
Q 1275 4134 1275 3809 
L 1275 3500 
L 2222 3500 
L 2222 3053 
L 1275 3053 
L 1275 0 
L 697 0 
L 697 3053 
L 147 3053 
L 147 3500 
L 697 3500 
L 697 3744 
Q 697 4328 969 4595 
Q 1241 4863 1831 4863 
L 2375 4863 
z
" transform="scale(0.015625)"/>
    </defs>
    <use xlink:href="#DejaVuSans-53"/>
    <use xlink:href="#DejaVuSans-63" x="63.476562"/>
    <use xlink:href="#DejaVuSans-61" x="118.457031"/>
    <use xlink:href="#DejaVuSans-74" x="179.736328"/>
    <use xlink:href="#DejaVuSans-74" x="218.945312"/>
    <use xlink:href="#DejaVuSans-65" x="258.154297"/>
    <use xlink:href="#DejaVuSans-72" x="319.677734"/>
    <use xlink:href="#DejaVuSans-70" x="360.791016"/>
    <use xlink:href="#DejaVuSans-6c" x="424.267578"/>
    <use xlink:href="#DejaVuSans-6f" x="452.050781"/>
    <use xlink:href="#DejaVuSans-74" x="513.232422"/>
    <use xlink:href="#DejaVuSans-20" x="552.441406"/>
    <use xlink:href="#DejaVuSans-77" x="584.228516"/>
    <use xlink:href="#DejaVuSans-69" x="666.015625"/>
    <use xlink:href="#DejaVuSans-74" x="693.798828"/>
    <use xlink:href="#DejaVuSans-68" x="733.007812"/>
    <use xlink:href="#DejaVuSans-20" x="796.386719"/>
    <use xlink:href="#DejaVuSans-43" x="828.173828"/>
    <use xlink:href="#DejaVuSans-6f" x="897.998047"/>
    <use xlink:href="#DejaVuSans-6c" x="959.179688"/>
    <use xlink:href="#DejaVuSans-6f" x="986.962891"/>
    <use xlink:href="#DejaVuSans-72" x="1048.144531"/>
    <use xlink:href="#DejaVuSans-20" x="1089.257812"/>
    <use xlink:href="#DejaVuSans-61" x="1121.044922"/>
    <use xlink:href="#DejaVuSans-6e" x="1182.324219"/>
    <use xlink:href="#DejaVuSans-64" x="1245.703125"/>
    <use xlink:href="#DejaVuSans-20" x="1309.179688"/>
    <use xlink:href="#DejaVuSans-53" x="1340.966797"/>
    <use xlink:href="#DejaVuSans-69" x="1404.443359"/>
    <use xlink:href="#DejaVuSans-7a" x="1432.226562"/>
    <use xlink:href="#DejaVuSans-65" x="1484.716797"/>
    <use xlink:href="#DejaVuSans-20" x="1546.240234"/>
    <use xlink:href="#DejaVuSans-53" x="1578.027344"/>
    <use xlink:href="#DejaVuSans-70" x="1641.503906"/>
    <use xlink:href="#DejaVuSans-65" x="1704.980469"/>
    <use xlink:href="#DejaVuSans-63" x="1766.503906"/>
    <use xlink:href="#DejaVuSans-69" x="1821.484375"/>
    <use xlink:href="#DejaVuSans-66" x="1849.267578"/>
    <use xlink:href="#DejaVuSans-69" x="1884.472656"/>
    <use xlink:href="#DejaVuSans-65" x="1912.255859"/>
    <use xlink:href="#DejaVuSans-64" x="1973.779297"/>
   </g>
  </g>
 </g>
 <defs>
  <clipPath id="p2403c6b080">
   <rect x="72" y="34.56" width="446.4" height="221.76"/>
  </clipPath>
 </defs>
</svg>
