<?xml version="1.0" encoding="utf-8" standalone="no"?>
<!DOCTYPE svg PUBLIC "-//W3C//DTD SVG 1.1//EN"
  "http://www.w3.org/Graphics/SVG/1.1/DTD/svg11.dtd">
<svg xmlns:xlink="http://www.w3.org/1999/xlink" width="576pt" height="288pt" viewBox="0 0 576 288" xmlns="http://www.w3.org/2000/svg" version="1.1">
 <metadata>
  <rdf:RDF xmlns:dc="http://purl.org/dc/elements/1.1/" xmlns:cc="http://creativecommons.org/ns#" xmlns:rdf="http://www.w3.org/1999/02/22-rdf-syntax-ns#">
   <cc:Work>
    <dc:type rdf:resource="http://purl.org/dc/dcmitype/StillImage"/>
    <dc:date>2023-12-02T16:06:04.770383</dc:date>
    <dc:format>image/svg+xml</dc:format>
    <dc:creator>
     <cc:Agent>
      <dc:title>Matplotlib v3.8.2, https://matplotlib.org/</dc:title>
     </cc:Agent>
    </dc:creator>
   </cc:Work>
  </rdf:RDF>
 </metadata>
 <defs>
  <style type="text/css">*{stroke-linejoin: round; stroke-linecap: butt}</style>
 </defs>
 <g id="figure_1">
  <g id="patch_1">
   <path d="M 0 288 
L 576 288 
L 576 0 
L 0 0 
z
" style="fill: #ffffff"/>
  </g>
  <g id="axes_1">
   <g id="patch_2">
    <path d="M 86.94 220.5 
L 556.56 220.5 
L 556.56 22.989193 
L 86.94 22.989193 
z
" style="fill: #eaeaf2"/>
   </g>
   <g id="matplotlib.axis_1">
    <g id="xtick_1">
     <g id="line2d_1">
      <path d="M 153.367578 220.5 
L 153.367578 22.989193 
" clip-path="url(#p74a15f7862)" style="fill: none; stroke: #ffffff; stroke-linecap: round"/>
     </g>
     <g id="text_1">
      <!-- 40 -->
      <g style="fill: #262626" transform="translate(142.869453 242.537422) scale(0.165 -0.165)">
       <defs>
        <path id="DejaVuSans-34" d="M 2419 4116 
L 825 1625 
L 2419 1625 
L 2419 4116 
z
M 2253 4666 
L 3047 4666 
L 3047 1625 
L 3713 1625 
L 3713 1100 
L 3047 1100 
L 3047 0 
L 2419 0 
L 2419 1100 
L 313 1100 
L 313 1709 
L 2253 4666 
z
" transform="scale(0.015625)"/>
        <path id="DejaVuSans-30" d="M 2034 4250 
Q 1547 4250 1301 3770 
Q 1056 3291 1056 2328 
Q 1056 1369 1301 889 
Q 1547 409 2034 409 
Q 2525 409 2770 889 
Q 3016 1369 3016 2328 
Q 3016 3291 2770 3770 
Q 2525 4250 2034 4250 
z
M 2034 4750 
Q 2819 4750 3233 4129 
Q 3647 3509 3647 2328 
Q 3647 1150 3233 529 
Q 2819 -91 2034 -91 
Q 1250 -91 836 529 
Q 422 1150 422 2328 
Q 422 3509 836 4129 
Q 1250 4750 2034 4750 
z
" transform="scale(0.015625)"/>
       </defs>
       <use xlink:href="#DejaVuSans-34"/>
       <use xlink:href="#DejaVuSans-30" x="63.623047"/>
      </g>
     </g>
    </g>
    <g id="xtick_2">
     <g id="line2d_2">
      <path d="M 247.552734 220.5 
L 247.552734 22.989193 
" clip-path="url(#p74a15f7862)" style="fill: none; stroke: #ffffff; stroke-linecap: round"/>
     </g>
     <g id="text_2">
      <!-- 60 -->
      <g style="fill: #262626" transform="translate(237.054609 242.537422) scale(0.165 -0.165)">
       <defs>
        <path id="DejaVuSans-36" d="M 2113 2584 
Q 1688 2584 1439 2293 
Q 1191 2003 1191 1497 
Q 1191 994 1439 701 
Q 1688 409 2113 409 
Q 2538 409 2786 701 
Q 3034 994 3034 1497 
Q 3034 2003 2786 2293 
Q 2538 2584 2113 2584 
z
M 3366 4563 
L 3366 3988 
Q 3128 4100 2886 4159 
Q 2644 4219 2406 4219 
Q 1781 4219 1451 3797 
Q 1122 3375 1075 2522 
Q 1259 2794 1537 2939 
Q 1816 3084 2150 3084 
Q 2853 3084 3261 2657 
Q 3669 2231 3669 1497 
Q 3669 778 3244 343 
Q 2819 -91 2113 -91 
Q 1303 -91 875 529 
Q 447 1150 447 2328 
Q 447 3434 972 4092 
Q 1497 4750 2381 4750 
Q 2619 4750 2861 4703 
Q 3103 4656 3366 4563 
z
" transform="scale(0.015625)"/>
       </defs>
       <use xlink:href="#DejaVuSans-36"/>
       <use xlink:href="#DejaVuSans-30" x="63.623047"/>
      </g>
     </g>
    </g>
    <g id="xtick_3">
     <g id="line2d_3">
      <path d="M 341.737891 220.5 
L 341.737891 22.989193 
" clip-path="url(#p74a15f7862)" style="fill: none; stroke: #ffffff; stroke-linecap: round"/>
     </g>
     <g id="text_3">
      <!-- 80 -->
      <g style="fill: #262626" transform="translate(331.239766 242.537422) scale(0.165 -0.165)">
       <defs>
        <path id="DejaVuSans-38" d="M 2034 2216 
Q 1584 2216 1326 1975 
Q 1069 1734 1069 1313 
Q 1069 891 1326 650 
Q 1584 409 2034 409 
Q 2484 409 2743 651 
Q 3003 894 3003 1313 
Q 3003 1734 2745 1975 
Q 2488 2216 2034 2216 
z
M 1403 2484 
Q 997 2584 770 2862 
Q 544 3141 544 3541 
Q 544 4100 942 4425 
Q 1341 4750 2034 4750 
Q 2731 4750 3128 4425 
Q 3525 4100 3525 3541 
Q 3525 3141 3298 2862 
Q 3072 2584 2669 2484 
Q 3125 2378 3379 2068 
Q 3634 1759 3634 1313 
Q 3634 634 3220 271 
Q 2806 -91 2034 -91 
Q 1263 -91 848 271 
Q 434 634 434 1313 
Q 434 1759 690 2068 
Q 947 2378 1403 2484 
z
M 1172 3481 
Q 1172 3119 1398 2916 
Q 1625 2713 2034 2713 
Q 2441 2713 2670 2916 
Q 2900 3119 2900 3481 
Q 2900 3844 2670 4047 
Q 2441 4250 2034 4250 
Q 1625 4250 1398 4047 
Q 1172 3844 1172 3481 
z
" transform="scale(0.015625)"/>
       </defs>
       <use xlink:href="#DejaVuSans-38"/>
       <use xlink:href="#DejaVuSans-30" x="63.623047"/>
      </g>
     </g>
    </g>
    <g id="xtick_4">
     <g id="line2d_4">
      <path d="M 435.923047 220.5 
L 435.923047 22.989193 
" clip-path="url(#p74a15f7862)" style="fill: none; stroke: #ffffff; stroke-linecap: round"/>
     </g>
     <g id="text_4">
      <!-- 100 -->
      <g style="fill: #262626" transform="translate(420.17586 242.537422) scale(0.165 -0.165)">
       <defs>
        <path id="DejaVuSans-31" d="M 794 531 
L 1825 531 
L 1825 4091 
L 703 3866 
L 703 4441 
L 1819 4666 
L 2450 4666 
L 2450 531 
L 3481 531 
L 3481 0 
L 794 0 
L 794 531 
z
" transform="scale(0.015625)"/>
       </defs>
       <use xlink:href="#DejaVuSans-31"/>
       <use xlink:href="#DejaVuSans-30" x="63.623047"/>
       <use xlink:href="#DejaVuSans-30" x="127.246094"/>
      </g>
     </g>
    </g>
    <g id="xtick_5">
     <g id="line2d_5">
      <path d="M 530.108204 220.5 
L 530.108204 22.989193 
" clip-path="url(#p74a15f7862)" style="fill: none; stroke: #ffffff; stroke-linecap: round"/>
     </g>
     <g id="text_5">
      <!-- 120 -->
      <g style="fill: #262626" transform="translate(514.361016 242.537422) scale(0.165 -0.165)">
       <defs>
        <path id="DejaVuSans-32" d="M 1228 531 
L 3431 531 
L 3431 0 
L 469 0 
L 469 531 
Q 828 903 1448 1529 
Q 2069 2156 2228 2338 
Q 2531 2678 2651 2914 
Q 2772 3150 2772 3378 
Q 2772 3750 2511 3984 
Q 2250 4219 1831 4219 
Q 1534 4219 1204 4116 
Q 875 4013 500 3803 
L 500 4441 
Q 881 4594 1212 4672 
Q 1544 4750 1819 4750 
Q 2544 4750 2975 4387 
Q 3406 4025 3406 3419 
Q 3406 3131 3298 2873 
Q 3191 2616 2906 2266 
Q 2828 2175 2409 1742 
Q 1991 1309 1228 531 
z
" transform="scale(0.015625)"/>
       </defs>
       <use xlink:href="#DejaVuSans-31"/>
       <use xlink:href="#DejaVuSans-32" x="63.623047"/>
       <use xlink:href="#DejaVuSans-30" x="127.246094"/>
      </g>
     </g>
    </g>
    <g id="text_6">
     <!-- age_at_death -->
     <g style="fill: #262626" transform="translate(260.940938 263.646094) scale(0.18 -0.18)">
      <defs>
       <path id="DejaVuSans-61" d="M 2194 1759 
Q 1497 1759 1228 1600 
Q 959 1441 959 1056 
Q 959 750 1161 570 
Q 1363 391 1709 391 
Q 2188 391 2477 730 
Q 2766 1069 2766 1631 
L 2766 1759 
L 2194 1759 
z
M 3341 1997 
L 3341 0 
L 2766 0 
L 2766 531 
Q 2569 213 2275 61 
Q 1981 -91 1556 -91 
Q 1019 -91 701 211 
Q 384 513 384 1019 
Q 384 1609 779 1909 
Q 1175 2209 1959 2209 
L 2766 2209 
L 2766 2266 
Q 2766 2663 2505 2880 
Q 2244 3097 1772 3097 
Q 1472 3097 1187 3025 
Q 903 2953 641 2809 
L 641 3341 
Q 956 3463 1253 3523 
Q 1550 3584 1831 3584 
Q 2591 3584 2966 3190 
Q 3341 2797 3341 1997 
z
" transform="scale(0.015625)"/>
       <path id="DejaVuSans-67" d="M 2906 1791 
Q 2906 2416 2648 2759 
Q 2391 3103 1925 3103 
Q 1463 3103 1205 2759 
Q 947 2416 947 1791 
Q 947 1169 1205 825 
Q 1463 481 1925 481 
Q 2391 481 2648 825 
Q 2906 1169 2906 1791 
z
M 3481 434 
Q 3481 -459 3084 -895 
Q 2688 -1331 1869 -1331 
Q 1566 -1331 1297 -1286 
Q 1028 -1241 775 -1147 
L 775 -588 
Q 1028 -725 1275 -790 
Q 1522 -856 1778 -856 
Q 2344 -856 2625 -561 
Q 2906 -266 2906 331 
L 2906 616 
Q 2728 306 2450 153 
Q 2172 0 1784 0 
Q 1141 0 747 490 
Q 353 981 353 1791 
Q 353 2603 747 3093 
Q 1141 3584 1784 3584 
Q 2172 3584 2450 3431 
Q 2728 3278 2906 2969 
L 2906 3500 
L 3481 3500 
L 3481 434 
z
" transform="scale(0.015625)"/>
       <path id="DejaVuSans-65" d="M 3597 1894 
L 3597 1613 
L 953 1613 
Q 991 1019 1311 708 
Q 1631 397 2203 397 
Q 2534 397 2845 478 
Q 3156 559 3463 722 
L 3463 178 
Q 3153 47 2828 -22 
Q 2503 -91 2169 -91 
Q 1331 -91 842 396 
Q 353 884 353 1716 
Q 353 2575 817 3079 
Q 1281 3584 2069 3584 
Q 2775 3584 3186 3129 
Q 3597 2675 3597 1894 
z
M 3022 2063 
Q 3016 2534 2758 2815 
Q 2500 3097 2075 3097 
Q 1594 3097 1305 2825 
Q 1016 2553 972 2059 
L 3022 2063 
z
" transform="scale(0.015625)"/>
       <path id="DejaVuSans-5f" d="M 3263 -1063 
L 3263 -1509 
L -63 -1509 
L -63 -1063 
L 3263 -1063 
z
" transform="scale(0.015625)"/>
       <path id="DejaVuSans-74" d="M 1172 4494 
L 1172 3500 
L 2356 3500 
L 2356 3053 
L 1172 3053 
L 1172 1153 
Q 1172 725 1289 603 
Q 1406 481 1766 481 
L 2356 481 
L 2356 0 
L 1766 0 
Q 1100 0 847 248 
Q 594 497 594 1153 
L 594 3053 
L 172 3053 
L 172 3500 
L 594 3500 
L 594 4494 
L 1172 4494 
z
" transform="scale(0.015625)"/>
       <path id="DejaVuSans-64" d="M 2906 2969 
L 2906 4863 
L 3481 4863 
L 3481 0 
L 2906 0 
L 2906 525 
Q 2725 213 2448 61 
Q 2172 -91 1784 -91 
Q 1150 -91 751 415 
Q 353 922 353 1747 
Q 353 2572 751 3078 
Q 1150 3584 1784 3584 
Q 2172 3584 2448 3432 
Q 2725 3281 2906 2969 
z
M 947 1747 
Q 947 1113 1208 752 
Q 1469 391 1925 391 
Q 2381 391 2643 752 
Q 2906 1113 2906 1747 
Q 2906 2381 2643 2742 
Q 2381 3103 1925 3103 
Q 1469 3103 1208 2742 
Q 947 2381 947 1747 
z
" transform="scale(0.015625)"/>
       <path id="DejaVuSans-68" d="M 3513 2113 
L 3513 0 
L 2938 0 
L 2938 2094 
Q 2938 2591 2744 2837 
Q 2550 3084 2163 3084 
Q 1697 3084 1428 2787 
Q 1159 2491 1159 1978 
L 1159 0 
L 581 0 
L 581 4863 
L 1159 4863 
L 1159 2956 
Q 1366 3272 1645 3428 
Q 1925 3584 2291 3584 
Q 2894 3584 3203 3211 
Q 3513 2838 3513 2113 
z
" transform="scale(0.015625)"/>
      </defs>
      <use xlink:href="#DejaVuSans-61"/>
      <use xlink:href="#DejaVuSans-67" x="61.279297"/>
      <use xlink:href="#DejaVuSans-65" x="124.755859"/>
      <use xlink:href="#DejaVuSans-5f" x="186.279297"/>
      <use xlink:href="#DejaVuSans-61" x="236.279297"/>
      <use xlink:href="#DejaVuSans-74" x="297.558594"/>
      <use xlink:href="#DejaVuSans-5f" x="336.767578"/>
      <use xlink:href="#DejaVuSans-64" x="386.767578"/>
      <use xlink:href="#DejaVuSans-65" x="450.244141"/>
      <use xlink:href="#DejaVuSans-61" x="511.767578"/>
      <use xlink:href="#DejaVuSans-74" x="573.046875"/>
      <use xlink:href="#DejaVuSans-68" x="612.255859"/>
     </g>
    </g>
   </g>
   <g id="matplotlib.axis_2">
    <g id="ytick_1">
     <g id="line2d_6">
      <path d="M 86.94 220.5 
L 556.56 220.5 
" clip-path="url(#p74a15f7862)" style="fill: none; stroke: #ffffff; stroke-linecap: round"/>
     </g>
     <g id="text_7">
      <!-- 0.00 -->
      <g style="fill: #262626" transform="translate(40.701719 226.768711) scale(0.165 -0.165)">
       <defs>
        <path id="DejaVuSans-2e" d="M 684 794 
L 1344 794 
L 1344 0 
L 684 0 
L 684 794 
z
" transform="scale(0.015625)"/>
       </defs>
       <use xlink:href="#DejaVuSans-30"/>
       <use xlink:href="#DejaVuSans-2e" x="63.623047"/>
       <use xlink:href="#DejaVuSans-30" x="95.410156"/>
       <use xlink:href="#DejaVuSans-30" x="159.033203"/>
      </g>
     </g>
    </g>
    <g id="ytick_2">
     <g id="line2d_7">
      <path d="M 86.94 171.77488 
L 556.56 171.77488 
" clip-path="url(#p74a15f7862)" style="fill: none; stroke: #ffffff; stroke-linecap: round"/>
     </g>
     <g id="text_8">
      <!-- 0.01 -->
      <g style="fill: #262626" transform="translate(40.701719 178.043591) scale(0.165 -0.165)">
       <use xlink:href="#DejaVuSans-30"/>
       <use xlink:href="#DejaVuSans-2e" x="63.623047"/>
       <use xlink:href="#DejaVuSans-30" x="95.410156"/>
       <use xlink:href="#DejaVuSans-31" x="159.033203"/>
      </g>
     </g>
    </g>
    <g id="ytick_3">
     <g id="line2d_8">
      <path d="M 86.94 123.04976 
L 556.56 123.04976 
" clip-path="url(#p74a15f7862)" style="fill: none; stroke: #ffffff; stroke-linecap: round"/>
     </g>
     <g id="text_9">
      <!-- 0.02 -->
      <g style="fill: #262626" transform="translate(40.701719 129.318471) scale(0.165 -0.165)">
       <use xlink:href="#DejaVuSans-30"/>
       <use xlink:href="#DejaVuSans-2e" x="63.623047"/>
       <use xlink:href="#DejaVuSans-30" x="95.410156"/>
       <use xlink:href="#DejaVuSans-32" x="159.033203"/>
      </g>
     </g>
    </g>
    <g id="ytick_4">
     <g id="line2d_9">
      <path d="M 86.94 74.32464 
L 556.56 74.32464 
" clip-path="url(#p74a15f7862)" style="fill: none; stroke: #ffffff; stroke-linecap: round"/>
     </g>
     <g id="text_10">
      <!-- 0.03 -->
      <g style="fill: #262626" transform="translate(40.701719 80.593351) scale(0.165 -0.165)">
       <defs>
        <path id="DejaVuSans-33" d="M 2597 2516 
Q 3050 2419 3304 2112 
Q 3559 1806 3559 1356 
Q 3559 666 3084 287 
Q 2609 -91 1734 -91 
Q 1441 -91 1130 -33 
Q 819 25 488 141 
L 488 750 
Q 750 597 1062 519 
Q 1375 441 1716 441 
Q 2309 441 2620 675 
Q 2931 909 2931 1356 
Q 2931 1769 2642 2001 
Q 2353 2234 1838 2234 
L 1294 2234 
L 1294 2753 
L 1863 2753 
Q 2328 2753 2575 2939 
Q 2822 3125 2822 3475 
Q 2822 3834 2567 4026 
Q 2313 4219 1838 4219 
Q 1578 4219 1281 4162 
Q 984 4106 628 3988 
L 628 4550 
Q 988 4650 1302 4700 
Q 1616 4750 1894 4750 
Q 2613 4750 3031 4423 
Q 3450 4097 3450 3541 
Q 3450 3153 3228 2886 
Q 3006 2619 2597 2516 
z
" transform="scale(0.015625)"/>
       </defs>
       <use xlink:href="#DejaVuSans-30"/>
       <use xlink:href="#DejaVuSans-2e" x="63.623047"/>
       <use xlink:href="#DejaVuSans-30" x="95.410156"/>
       <use xlink:href="#DejaVuSans-33" x="159.033203"/>
      </g>
     </g>
    </g>
    <g id="ytick_5">
     <g id="line2d_10">
      <path d="M 86.94 25.59952 
L 556.56 25.59952 
" clip-path="url(#p74a15f7862)" style="fill: none; stroke: #ffffff; stroke-linecap: round"/>
     </g>
     <g id="text_11">
      <!-- 0.04 -->
      <g style="fill: #262626" transform="translate(40.701719 31.868231) scale(0.165 -0.165)">
       <use xlink:href="#DejaVuSans-30"/>
       <use xlink:href="#DejaVuSans-2e" x="63.623047"/>
       <use xlink:href="#DejaVuSans-30" x="95.410156"/>
       <use xlink:href="#DejaVuSans-34" x="159.033203"/>
      </g>
     </g>
    </g>
    <g id="text_12">
     <!-- Density -->
     <g style="fill: #262626" transform="translate(32.958281 155.960065) rotate(-90) scale(0.18 -0.18)">
      <defs>
       <path id="DejaVuSans-44" d="M 1259 4147 
L 1259 519 
L 2022 519 
Q 2988 519 3436 956 
Q 3884 1394 3884 2338 
Q 3884 3275 3436 3711 
Q 2988 4147 2022 4147 
L 1259 4147 
z
M 628 4666 
L 1925 4666 
Q 3281 4666 3915 4102 
Q 4550 3538 4550 2338 
Q 4550 1131 3912 565 
Q 3275 0 1925 0 
L 628 0 
L 628 4666 
z
" transform="scale(0.015625)"/>
       <path id="DejaVuSans-6e" d="M 3513 2113 
L 3513 0 
L 2938 0 
L 2938 2094 
Q 2938 2591 2744 2837 
Q 2550 3084 2163 3084 
Q 1697 3084 1428 2787 
Q 1159 2491 1159 1978 
L 1159 0 
L 581 0 
L 581 3500 
L 1159 3500 
L 1159 2956 
Q 1366 3272 1645 3428 
Q 1925 3584 2291 3584 
Q 2894 3584 3203 3211 
Q 3513 2838 3513 2113 
z
" transform="scale(0.015625)"/>
       <path id="DejaVuSans-73" d="M 2834 3397 
L 2834 2853 
Q 2591 2978 2328 3040 
Q 2066 3103 1784 3103 
Q 1356 3103 1142 2972 
Q 928 2841 928 2578 
Q 928 2378 1081 2264 
Q 1234 2150 1697 2047 
L 1894 2003 
Q 2506 1872 2764 1633 
Q 3022 1394 3022 966 
Q 3022 478 2636 193 
Q 2250 -91 1575 -91 
Q 1294 -91 989 -36 
Q 684 19 347 128 
L 347 722 
Q 666 556 975 473 
Q 1284 391 1588 391 
Q 1994 391 2212 530 
Q 2431 669 2431 922 
Q 2431 1156 2273 1281 
Q 2116 1406 1581 1522 
L 1381 1569 
Q 847 1681 609 1914 
Q 372 2147 372 2553 
Q 372 3047 722 3315 
Q 1072 3584 1716 3584 
Q 2034 3584 2315 3537 
Q 2597 3491 2834 3397 
z
" transform="scale(0.015625)"/>
       <path id="DejaVuSans-69" d="M 603 3500 
L 1178 3500 
L 1178 0 
L 603 0 
L 603 3500 
z
M 603 4863 
L 1178 4863 
L 1178 4134 
L 603 4134 
L 603 4863 
z
" transform="scale(0.015625)"/>
       <path id="DejaVuSans-79" d="M 2059 -325 
Q 1816 -950 1584 -1140 
Q 1353 -1331 966 -1331 
L 506 -1331 
L 506 -850 
L 844 -850 
Q 1081 -850 1212 -737 
Q 1344 -625 1503 -206 
L 1606 56 
L 191 3500 
L 800 3500 
L 1894 763 
L 2988 3500 
L 3597 3500 
L 2059 -325 
z
" transform="scale(0.015625)"/>
      </defs>
      <use xlink:href="#DejaVuSans-44"/>
      <use xlink:href="#DejaVuSans-65" x="77.001953"/>
      <use xlink:href="#DejaVuSans-6e" x="138.525391"/>
      <use xlink:href="#DejaVuSans-73" x="201.904297"/>
      <use xlink:href="#DejaVuSans-69" x="254.003906"/>
      <use xlink:href="#DejaVuSans-74" x="281.787109"/>
      <use xlink:href="#DejaVuSans-79" x="320.996094"/>
     </g>
    </g>
   </g>
   <g id="PolyCollection_1">
    <defs>
     <path id="m1ce01f9cf9" d="M 108.286364 -67.51155 
L 108.286364 -67.5 
L 110.206453 -67.5 
L 112.126542 -67.5 
L 114.046631 -67.5 
L 115.96672 -67.5 
L 117.886809 -67.5 
L 119.806898 -67.5 
L 121.726986 -67.5 
L 123.647075 -67.5 
L 125.567164 -67.5 
L 127.487253 -67.5 
L 129.407342 -67.5 
L 131.327431 -67.5 
L 133.24752 -67.5 
L 135.167609 -67.5 
L 137.087698 -67.5 
L 139.007787 -67.5 
L 140.927876 -67.5 
L 142.847965 -67.5 
L 144.768054 -67.5 
L 146.688143 -67.5 
L 148.608232 -67.5 
L 150.528321 -67.5 
L 152.44841 -67.5 
L 154.368499 -67.5 
L 156.288588 -67.5 
L 158.208677 -67.5 
L 160.128766 -67.5 
L 162.048855 -67.5 
L 163.968944 -67.5 
L 165.889033 -67.5 
L 167.809122 -67.5 
L 169.729211 -67.5 
L 171.6493 -67.5 
L 173.569389 -67.5 
L 175.489478 -67.5 
L 177.409567 -67.5 
L 179.329656 -67.5 
L 181.249745 -67.5 
L 183.169834 -67.5 
L 185.089923 -67.5 
L 187.010012 -67.5 
L 188.930101 -67.5 
L 190.85019 -67.5 
L 192.770279 -67.5 
L 194.690368 -67.5 
L 196.610457 -67.5 
L 198.530546 -67.5 
L 200.450635 -67.5 
L 202.370724 -67.5 
L 204.290813 -67.5 
L 206.210902 -67.5 
L 208.130991 -67.5 
L 210.05108 -67.5 
L 211.971169 -67.5 
L 213.891258 -67.5 
L 215.811347 -67.5 
L 217.731435 -67.5 
L 219.651524 -67.5 
L 221.571613 -67.5 
L 223.491702 -67.5 
L 225.411791 -67.5 
L 227.33188 -67.5 
L 229.251969 -67.5 
L 231.172058 -67.5 
L 233.092147 -67.5 
L 235.012236 -67.5 
L 236.932325 -67.5 
L 238.852414 -67.5 
L 240.772503 -67.5 
L 242.692592 -67.5 
L 244.612681 -67.5 
L 246.53277 -67.5 
L 248.452859 -67.5 
L 250.372948 -67.5 
L 252.293037 -67.5 
L 254.213126 -67.5 
L 256.133215 -67.5 
L 258.053304 -67.5 
L 259.973393 -67.5 
L 261.893482 -67.5 
L 263.813571 -67.5 
L 265.73366 -67.5 
L 267.653749 -67.5 
L 269.573838 -67.5 
L 271.493927 -67.5 
L 273.414016 -67.5 
L 275.334105 -67.5 
L 277.254194 -67.5 
L 279.174283 -67.5 
L 281.094372 -67.5 
L 283.014461 -67.5 
L 284.93455 -67.5 
L 286.854639 -67.5 
L 288.774728 -67.5 
L 290.694817 -67.5 
L 292.614906 -67.5 
L 294.534995 -67.5 
L 296.455084 -67.5 
L 298.375173 -67.5 
L 300.295262 -67.5 
L 302.215351 -67.5 
L 304.13544 -67.5 
L 306.055529 -67.5 
L 307.975618 -67.5 
L 309.895707 -67.5 
L 311.815795 -67.5 
L 313.735884 -67.5 
L 315.655973 -67.5 
L 317.576062 -67.5 
L 319.496151 -67.5 
L 321.41624 -67.5 
L 323.336329 -67.5 
L 325.256418 -67.5 
L 327.176507 -67.5 
L 329.096596 -67.5 
L 331.016685 -67.5 
L 332.936774 -67.5 
L 334.856863 -67.5 
L 336.776952 -67.5 
L 338.697041 -67.5 
L 340.61713 -67.5 
L 342.537219 -67.5 
L 344.457308 -67.5 
L 346.377397 -67.5 
L 348.297486 -67.5 
L 350.217575 -67.5 
L 352.137664 -67.5 
L 354.057753 -67.5 
L 355.977842 -67.5 
L 357.897931 -67.5 
L 359.81802 -67.5 
L 361.738109 -67.5 
L 363.658198 -67.5 
L 365.578287 -67.5 
L 367.498376 -67.5 
L 369.418465 -67.5 
L 371.338554 -67.5 
L 373.258643 -67.5 
L 375.178732 -67.5 
L 377.098821 -67.5 
L 379.01891 -67.5 
L 380.938999 -67.5 
L 382.859088 -67.5 
L 384.779177 -67.5 
L 386.699266 -67.5 
L 388.619355 -67.5 
L 390.539444 -67.5 
L 392.459533 -67.5 
L 394.379622 -67.5 
L 396.299711 -67.5 
L 398.2198 -67.5 
L 400.139889 -67.5 
L 402.059978 -67.5 
L 403.980067 -67.5 
L 405.900156 -67.5 
L 407.820244 -67.5 
L 409.740333 -67.5 
L 411.660422 -67.5 
L 413.580511 -67.5 
L 415.5006 -67.5 
L 417.420689 -67.5 
L 419.340778 -67.5 
L 421.260867 -67.5 
L 423.180956 -67.5 
L 425.101045 -67.5 
L 427.021134 -67.5 
L 428.941223 -67.5 
L 430.861312 -67.5 
L 432.781401 -67.5 
L 434.70149 -67.5 
L 436.621579 -67.5 
L 438.541668 -67.5 
L 440.461757 -67.5 
L 442.381846 -67.5 
L 444.301935 -67.5 
L 446.222024 -67.5 
L 448.142113 -67.5 
L 450.062202 -67.5 
L 451.982291 -67.5 
L 453.90238 -67.5 
L 455.822469 -67.5 
L 457.742558 -67.5 
L 459.662647 -67.5 
L 461.582736 -67.5 
L 463.502825 -67.5 
L 465.422914 -67.5 
L 467.343003 -67.5 
L 469.263092 -67.5 
L 471.183181 -67.5 
L 473.10327 -67.5 
L 475.023359 -67.5 
L 476.943448 -67.5 
L 478.863537 -67.5 
L 480.783626 -67.5 
L 482.703715 -67.5 
L 484.623804 -67.5 
L 486.543893 -67.5 
L 488.463982 -67.5 
L 490.384071 -67.5 
L 490.384071 -67.517685 
L 490.384071 -67.517685 
L 488.463982 -67.527481 
L 486.543893 -67.542009 
L 484.623804 -67.563194 
L 482.703715 -67.593572 
L 480.783626 -67.63642 
L 478.863537 -67.695888 
L 476.943448 -67.777132 
L 475.023359 -67.886426 
L 473.10327 -68.031271 
L 471.183181 -68.220465 
L 469.263092 -68.464154 
L 467.343003 -68.773843 
L 465.422914 -69.162392 
L 463.502825 -69.643982 
L 461.582736 -70.234087 
L 459.662647 -70.949444 
L 457.742558 -71.808051 
L 455.822469 -72.829197 
L 453.90238 -74.033516 
L 451.982291 -75.443057 
L 450.062202 -77.081323 
L 448.142113 -78.973235 
L 446.222024 -81.144942 
L 444.301935 -83.623389 
L 442.381846 -86.435577 
L 440.461757 -89.607436 
L 438.541668 -93.162306 
L 436.621579 -97.119041 
L 434.70149 -101.489841 
L 432.781401 -106.277978 
L 430.861312 -111.475635 
L 428.941223 -117.062124 
L 427.021134 -123.002755 
L 425.101045 -129.248598 
L 423.180956 -135.737306 
L 421.260867 -142.395081 
L 419.340778 -149.139732 
L 417.420689 -155.884665 
L 415.5006 -162.543532 
L 413.580511 -169.035164 
L 411.660422 -175.288382 
L 409.740333 -181.246261 
L 407.820244 -186.869448 
L 405.900156 -192.138204 
L 403.980067 -197.052952 
L 402.059978 -201.633198 
L 400.139889 -205.91488 
L 398.2198 -209.946286 
L 396.299711 -213.782851 
L 394.379622 -217.481255 
L 392.459533 -221.093297 
L 390.539444 -224.660099 
L 388.619355 -228.207177 
L 386.699266 -231.740838 
L 384.779177 -235.246291 
L 382.859088 -238.687683 
L 380.938999 -242.010094 
L 379.01891 -245.143372 
L 377.098821 -248.00745 
L 375.178732 -250.518684 
L 373.258643 -252.596622 
L 371.338554 -254.170563 
L 369.418465 -255.185302 
L 367.498376 -255.605531 
L 365.578287 -255.418518 
L 363.658198 -254.634888 
L 361.738109 -253.287512 
L 359.81802 -251.428723 
L 357.897931 -249.126235 
L 355.977842 -246.458231 
L 354.057753 -243.508134 
L 352.137664 -240.359539 
L 350.217575 -237.091692 
L 348.297486 -233.775779 
L 346.377397 -230.472185 
L 344.457308 -227.228702 
L 342.537219 -224.079656 
L 340.61713 -221.045791 
L 338.697041 -218.134807 
L 336.776952 -215.342417 
L 334.856863 -212.653854 
L 332.936774 -210.045794 
L 331.016685 -207.488654 
L 329.096596 -204.949265 
L 327.176507 -202.39384 
L 325.256418 -199.791127 
L 323.336329 -197.115535 
L 321.41624 -194.349992 
L 319.496151 -191.488211 
L 317.576062 -188.536064 
L 315.655973 -185.511804 
L 313.735884 -182.444997 
L 311.815795 -179.374141 
L 309.895707 -176.343162 
L 307.975618 -173.397083 
L 306.055529 -170.577357 
L 304.13544 -167.917345 
L 302.215351 -165.438506 
L 300.295262 -163.147711 
L 298.375173 -161.036013 
L 296.455084 -159.079011 
L 294.534995 -157.238754 
L 292.614906 -155.466954 
L 290.694817 -153.709168 
L 288.774728 -151.90948 
L 286.854639 -150.015233 
L 284.93455 -147.981356 
L 283.014461 -145.773916 
L 281.094372 -143.372633 
L 279.174283 -140.772198 
L 277.254194 -137.982356 
L 275.334105 -135.026831 
L 273.414016 -131.941244 
L 271.493927 -128.770251 
L 269.573838 -125.56416 
L 267.653749 -122.375332 
L 265.73366 -119.254622 
L 263.813571 -116.248144 
L 261.893482 -113.39457 
L 259.973393 -110.723132 
L 258.053304 -108.252428 
L 256.133215 -105.990071 
L 254.213126 -103.933147 
L 252.293037 -102.069389 
L 250.372948 -100.378919 
L 248.452859 -98.836383 
L 246.53277 -97.413286 
L 244.612681 -96.080312 
L 242.692592 -94.809474 
L 240.772503 -93.575929 
L 238.852414 -92.359355 
L 236.932325 -91.144844 
L 235.012236 -89.923281 
L 233.092147 -88.69126 
L 231.172058 -87.450592 
L 229.251969 -86.207507 
L 227.33188 -84.971644 
L 225.411791 -83.754938 
L 223.491702 -82.570501 
L 221.571613 -81.431573 
L 219.651524 -80.350606 
L 217.731435 -79.338511 
L 215.811347 -78.40409 
L 213.891258 -77.553652 
L 211.971169 -76.790802 
L 210.05108 -76.116387 
L 208.130991 -75.528571 
L 206.210902 -75.023034 
L 204.290813 -74.59326 
L 202.370724 -74.230916 
L 200.450635 -73.92629 
L 198.530546 -73.668787 
L 196.610457 -73.44745 
L 194.690368 -73.251484 
L 192.770279 -73.070762 
L 190.85019 -72.896279 
L 188.930101 -72.720521 
L 187.010012 -72.537739 
L 185.089923 -72.344097 
L 183.169834 -72.137705 
L 181.249745 -71.918516 
L 179.329656 -71.688124 
L 177.409567 -71.449462 
L 175.489478 -71.206431 
L 173.569389 -70.963489 
L 171.6493 -70.72523 
L 169.729211 -70.495969 
L 167.809122 -70.279387 
L 165.889033 -70.078234 
L 163.968944 -69.894133 
L 162.048855 -69.727493 
L 160.128766 -69.577537 
L 158.208677 -69.442447 
L 156.288588 -69.319607 
L 154.368499 -69.205923 
L 152.44841 -69.098169 
L 150.528321 -68.993346 
L 148.608232 -68.888979 
L 146.688143 -68.783351 
L 144.768054 -68.675621 
L 142.847965 -68.565842 
L 140.927876 -68.454868 
L 139.007787 -68.344184 
L 137.087698 -68.235668 
L 135.167609 -68.131352 
L 133.24752 -68.033177 
L 131.327431 -67.942804 
L 129.407342 -67.861469 
L 127.487253 -67.789917 
L 125.567164 -67.728392 
L 123.647075 -67.676676 
L 121.726986 -67.634176 
L 119.806898 -67.600022 
L 117.886809 -67.57318 
L 115.96672 -67.552542 
L 114.046631 -67.537018 
L 112.126542 -67.525591 
L 110.206453 -67.517357 
L 108.286364 -67.51155 
z
" style="stroke: #4c72b0"/>
    </defs>
    <g clip-path="url(#p74a15f7862)">
     <use xlink:href="#m1ce01f9cf9" x="0" y="288" style="fill: #4c72b0; fill-opacity: 0.25; stroke: #4c72b0"/>
    </g>
   </g>
   <g id="PolyCollection_2">
    <defs>
     <path id="ma08cb20cfc" d="M 159.138595 -67.663818 
L 159.138595 -67.5 
L 161.02842 -67.5 
L 162.918244 -67.5 
L 164.808068 -67.5 
L 166.697893 -67.5 
L 168.587717 -67.5 
L 170.477541 -67.5 
L 172.367366 -67.5 
L 174.25719 -67.5 
L 176.147014 -67.5 
L 178.036839 -67.5 
L 179.926663 -67.5 
L 181.816487 -67.5 
L 183.706312 -67.5 
L 185.596136 -67.5 
L 187.48596 -67.5 
L 189.375785 -67.5 
L 191.265609 -67.5 
L 193.155433 -67.5 
L 195.045257 -67.5 
L 196.935082 -67.5 
L 198.824906 -67.5 
L 200.71473 -67.5 
L 202.604555 -67.5 
L 204.494379 -67.5 
L 206.384203 -67.5 
L 208.274028 -67.5 
L 210.163852 -67.5 
L 212.053676 -67.5 
L 213.943501 -67.5 
L 215.833325 -67.5 
L 217.723149 -67.5 
L 219.612974 -67.5 
L 221.502798 -67.5 
L 223.392622 -67.5 
L 225.282447 -67.5 
L 227.172271 -67.5 
L 229.062095 -67.5 
L 230.95192 -67.5 
L 232.841744 -67.5 
L 234.731568 -67.5 
L 236.621393 -67.5 
L 238.511217 -67.5 
L 240.401041 -67.5 
L 242.290866 -67.5 
L 244.18069 -67.5 
L 246.070514 -67.5 
L 247.960339 -67.5 
L 249.850163 -67.5 
L 251.739987 -67.5 
L 253.629812 -67.5 
L 255.519636 -67.5 
L 257.40946 -67.5 
L 259.299285 -67.5 
L 261.189109 -67.5 
L 263.078933 -67.5 
L 264.968758 -67.5 
L 266.858582 -67.5 
L 268.748406 -67.5 
L 270.638231 -67.5 
L 272.528055 -67.5 
L 274.417879 -67.5 
L 276.307704 -67.5 
L 278.197528 -67.5 
L 280.087352 -67.5 
L 281.977177 -67.5 
L 283.867001 -67.5 
L 285.756825 -67.5 
L 287.64665 -67.5 
L 289.536474 -67.5 
L 291.426298 -67.5 
L 293.316122 -67.5 
L 295.205947 -67.5 
L 297.095771 -67.5 
L 298.985595 -67.5 
L 300.87542 -67.5 
L 302.765244 -67.5 
L 304.655068 -67.5 
L 306.544893 -67.5 
L 308.434717 -67.5 
L 310.324541 -67.5 
L 312.214366 -67.5 
L 314.10419 -67.5 
L 315.994014 -67.5 
L 317.883839 -67.5 
L 319.773663 -67.5 
L 321.663487 -67.5 
L 323.553312 -67.5 
L 325.443136 -67.5 
L 327.33296 -67.5 
L 329.222785 -67.5 
L 331.112609 -67.5 
L 333.002433 -67.5 
L 334.892258 -67.5 
L 336.782082 -67.5 
L 338.671906 -67.5 
L 340.561731 -67.5 
L 342.451555 -67.5 
L 344.341379 -67.5 
L 346.231204 -67.5 
L 348.121028 -67.5 
L 350.010852 -67.5 
L 351.900677 -67.5 
L 353.790501 -67.5 
L 355.680325 -67.5 
L 357.57015 -67.5 
L 359.459974 -67.5 
L 361.349798 -67.5 
L 363.239623 -67.5 
L 365.129447 -67.5 
L 367.019271 -67.5 
L 368.909096 -67.5 
L 370.79892 -67.5 
L 372.688744 -67.5 
L 374.578569 -67.5 
L 376.468393 -67.5 
L 378.358217 -67.5 
L 380.248042 -67.5 
L 382.137866 -67.5 
L 384.02769 -67.5 
L 385.917515 -67.5 
L 387.807339 -67.5 
L 389.697163 -67.5 
L 391.586988 -67.5 
L 393.476812 -67.5 
L 395.366636 -67.5 
L 397.25646 -67.5 
L 399.146285 -67.5 
L 401.036109 -67.5 
L 402.925933 -67.5 
L 404.815758 -67.5 
L 406.705582 -67.5 
L 408.595406 -67.5 
L 410.485231 -67.5 
L 412.375055 -67.5 
L 414.264879 -67.5 
L 416.154704 -67.5 
L 418.044528 -67.5 
L 419.934352 -67.5 
L 421.824177 -67.5 
L 423.714001 -67.5 
L 425.603825 -67.5 
L 427.49365 -67.5 
L 429.383474 -67.5 
L 431.273298 -67.5 
L 433.163123 -67.5 
L 435.052947 -67.5 
L 436.942771 -67.5 
L 438.832596 -67.5 
L 440.72242 -67.5 
L 442.612244 -67.5 
L 444.502069 -67.5 
L 446.391893 -67.5 
L 448.281717 -67.5 
L 450.171542 -67.5 
L 452.061366 -67.5 
L 453.95119 -67.5 
L 455.841015 -67.5 
L 457.730839 -67.5 
L 459.620663 -67.5 
L 461.510488 -67.5 
L 463.400312 -67.5 
L 465.290136 -67.5 
L 467.179961 -67.5 
L 469.069785 -67.5 
L 470.959609 -67.5 
L 472.849434 -67.5 
L 474.739258 -67.5 
L 476.629082 -67.5 
L 478.518907 -67.5 
L 480.408731 -67.5 
L 482.298555 -67.5 
L 484.18838 -67.5 
L 486.078204 -67.5 
L 487.968028 -67.5 
L 489.857853 -67.5 
L 491.747677 -67.5 
L 493.637501 -67.5 
L 495.527325 -67.5 
L 497.41715 -67.5 
L 499.306974 -67.5 
L 501.196798 -67.5 
L 503.086623 -67.5 
L 504.976447 -67.5 
L 506.866271 -67.5 
L 508.756096 -67.5 
L 510.64592 -67.5 
L 512.535744 -67.5 
L 514.425569 -67.5 
L 516.315393 -67.5 
L 518.205217 -67.5 
L 520.095042 -67.5 
L 521.984866 -67.5 
L 523.87469 -67.5 
L 525.764515 -67.5 
L 527.654339 -67.5 
L 529.544163 -67.5 
L 531.433988 -67.5 
L 533.323812 -67.5 
L 535.213636 -67.5 
L 535.213636 -67.629408 
L 535.213636 -67.629408 
L 533.323812 -67.659093 
L 531.433988 -67.694657 
L 529.544163 -67.737037 
L 527.654339 -67.787275 
L 525.764515 -67.84651 
L 523.87469 -67.915984 
L 521.984866 -67.997032 
L 520.095042 -68.091077 
L 518.205217 -68.199623 
L 516.315393 -68.324234 
L 514.425569 -68.466522 
L 512.535744 -68.628128 
L 510.64592 -68.810691 
L 508.756096 -69.015827 
L 506.866271 -69.245101 
L 504.976447 -69.499991 
L 503.086623 -69.781865 
L 501.196798 -70.091945 
L 499.306974 -70.431284 
L 497.41715 -70.800738 
L 495.527325 -71.200954 
L 493.637501 -71.632351 
L 491.747677 -72.095123 
L 489.857853 -72.58924 
L 487.968028 -73.114473 
L 486.078204 -73.670417 
L 484.18838 -74.256536 
L 482.298555 -74.87222 
L 480.408731 -75.516847 
L 478.518907 -76.189867 
L 476.629082 -76.890883 
L 474.739258 -77.619751 
L 472.849434 -78.376673 
L 470.959609 -79.162302 
L 469.069785 -79.977835 
L 467.179961 -80.825104 
L 465.290136 -81.70665 
L 463.400312 -82.62579 
L 461.510488 -83.586656 
L 459.620663 -84.594212 
L 457.730839 -85.654248 
L 455.841015 -86.773337 
L 453.95119 -87.958765 
L 452.061366 -89.218431 
L 450.171542 -90.560707 
L 448.281717 -91.994279 
L 446.391893 -93.527949 
L 444.502069 -95.170423 
L 442.612244 -96.930076 
L 440.72242 -98.814704 
L 438.832596 -100.831278 
L 436.942771 -102.985691 
L 435.052947 -105.282519 
L 433.163123 -107.724803 
L 431.273298 -110.313855 
L 429.383474 -113.049091 
L 427.49365 -115.927912 
L 425.603825 -118.945627 
L 423.714001 -122.095422 
L 421.824177 -125.36838 
L 419.934352 -128.753559 
L 418.044528 -132.238115 
L 416.154704 -135.807478 
L 414.264879 -139.445573 
L 412.375055 -143.135074 
L 410.485231 -146.857698 
L 408.595406 -150.59452 
L 406.705582 -154.326296 
L 404.815758 -158.033801 
L 402.925933 -161.698149 
L 401.036109 -165.301109 
L 399.146285 -168.825384 
L 397.25646 -172.254864 
L 395.366636 -175.574833 
L 393.476812 -178.772132 
L 391.586988 -181.835268 
L 389.697163 -184.754471 
L 387.807339 -187.521699 
L 385.917515 -190.13059 
L 384.02769 -192.576373 
L 382.137866 -194.855733 
L 380.248042 -196.96665 
L 378.358217 -198.908213 
L 376.468393 -200.680422 
L 374.578569 -202.28399 
L 372.688744 -203.720149 
L 370.79892 -204.990487 
L 368.909096 -206.096794 
L 367.019271 -207.040964 
L 365.129447 -207.824919 
L 363.239623 -208.45059 
L 361.349798 -208.919936 
L 359.459974 -209.235008 
L 357.57015 -209.398051 
L 355.680325 -209.411641 
L 353.790501 -209.278844 
L 351.900677 -209.003389 
L 350.010852 -208.589851 
L 348.121028 -208.043814 
L 346.231204 -207.372026 
L 344.341379 -206.582516 
L 342.451555 -205.68467 
L 340.561731 -204.689262 
L 338.671906 -203.608418 
L 336.782082 -202.455534 
L 334.892258 -201.245117 
L 333.002433 -199.992576 
L 331.112609 -198.713947 
L 329.222785 -197.425579 
L 327.33296 -196.143763 
L 325.443136 -194.884347 
L 323.553312 -193.662324 
L 321.663487 -192.49142 
L 319.773663 -191.383692 
L 317.883839 -190.349156 
L 315.994014 -189.395453 
L 314.10419 -188.527564 
L 312.214366 -187.747602 
L 310.324541 -187.054665 
L 308.434717 -186.444776 
L 306.544893 -185.91091 
L 304.655068 -185.443103 
L 302.765244 -185.028646 
L 300.87542 -184.652361 
L 298.985595 -184.296945 
L 297.095771 -183.943378 
L 295.205947 -183.571383 
L 293.316122 -183.159916 
L 291.426298 -182.687687 
L 289.536474 -182.133673 
L 287.64665 -181.477636 
L 285.756825 -180.700607 
L 283.867001 -179.785332 
L 281.977177 -178.716675 
L 280.087352 -177.48195 
L 278.197528 -176.07119 
L 276.307704 -174.477337 
L 274.417879 -172.696363 
L 272.528055 -170.7273 
L 270.638231 -168.57221 
L 268.748406 -166.236065 
L 266.858582 -163.726584 
L 264.968758 -161.053995 
L 263.078933 -158.230764 
L 261.189109 -155.271282 
L 259.299285 -152.191526 
L 257.40946 -149.008713 
L 255.519636 -145.740943 
L 253.629812 -142.406855 
L 251.739987 -139.025292 
L 249.850163 -135.614993 
L 247.960339 -132.194309 
L 246.070514 -128.780959 
L 244.18069 -125.391813 
L 242.290866 -122.042712 
L 240.401041 -118.748335 
L 238.511217 -115.522088 
L 236.621393 -112.376035 
L 234.731568 -109.320855 
L 232.841744 -106.36583 
L 230.95192 -103.518853 
L 229.062095 -100.786457 
L 227.172271 -98.17386 
L 225.282447 -95.685024 
L 223.392622 -93.322722 
L 221.502798 -91.088611 
L 219.612974 -88.983315 
L 217.723149 -87.0065 
L 215.833325 -85.156966 
L 213.943501 -83.432721 
L 212.053676 -81.831074 
L 210.163852 -80.348706 
L 208.274028 -78.98176 
L 206.384203 -77.725912 
L 204.494379 -76.576451 
L 202.604555 -75.528349 
L 200.71473 -74.576336 
L 198.824906 -73.714965 
L 196.935082 -72.938677 
L 195.045257 -72.24186 
L 193.155433 -71.618909 
L 191.265609 -71.064277 
L 189.375785 -70.572519 
L 187.48596 -70.138339 
L 185.596136 -69.756624 
L 183.706312 -69.422474 
L 181.816487 -69.131233 
L 179.926663 -68.878501 
L 178.036839 -68.660157 
L 176.147014 -68.472363 
L 174.25719 -68.31157 
L 172.367366 -68.174521 
L 170.477541 -68.05824 
L 168.587717 -67.960034 
L 166.697893 -67.877477 
L 164.808068 -67.808396 
L 162.918244 -67.750861 
L 161.02842 -67.703168 
L 159.138595 -67.663818 
z
" style="stroke: #dd8452"/>
    </defs>
    <g clip-path="url(#p74a15f7862)">
     <use xlink:href="#ma08cb20cfc" x="0" y="288" style="fill: #dd8452; fill-opacity: 0.25; stroke: #dd8452"/>
    </g>
   </g>
   <g id="patch_3">
    <path d="M 86.94 220.5 
L 86.94 22.989193 
" style="fill: none; stroke: #ffffff; stroke-width: 1.25; stroke-linejoin: miter; stroke-linecap: square"/>
   </g>
   <g id="patch_4">
    <path d="M 556.56 220.5 
L 556.56 22.989193 
" style="fill: none; stroke: #ffffff; stroke-width: 1.25; stroke-linejoin: miter; stroke-linecap: square"/>
   </g>
   <g id="patch_5">
    <path d="M 86.94 220.5 
L 556.56 220.5 
" style="fill: none; stroke: #ffffff; stroke-width: 1.25; stroke-linejoin: miter; stroke-linecap: square"/>
   </g>
   <g id="patch_6">
    <path d="M 86.94 22.989193 
L 556.56 22.989193 
" style="fill: none; stroke: #ffffff; stroke-width: 1.25; stroke-linejoin: miter; stroke-linecap: square"/>
   </g>
   <g id="legend_1">
    <g id="patch_7">
     <path d="M 435.328828 84.627005 
L 545.01 84.627005 
Q 548.31 84.627005 548.31 81.327005 
L 548.31 34.539193 
Q 548.31 31.239193 545.01 31.239193 
L 435.328828 31.239193 
Q 432.028828 31.239193 432.028828 34.539193 
L 432.028828 81.327005 
Q 432.028828 84.627005 435.328828 84.627005 
z
" style="fill: #eaeaf2; opacity: 0.8; stroke: #cccccc; stroke-linejoin: miter"/>
    </g>
    <g id="patch_8">
     <path d="M 438.628828 50.376614 
L 471.628828 50.376614 
L 471.628828 38.826614 
L 438.628828 38.826614 
z
" style="fill: #4c72b0; fill-opacity: 0.25; stroke: #4c72b0; stroke-linejoin: miter"/>
    </g>
    <g id="text_13">
     <!-- male -->
     <g style="fill: #262626" transform="translate(484.828828 50.376614) scale(0.165 -0.165)">
      <defs>
       <path id="DejaVuSans-6d" d="M 3328 2828 
Q 3544 3216 3844 3400 
Q 4144 3584 4550 3584 
Q 5097 3584 5394 3201 
Q 5691 2819 5691 2113 
L 5691 0 
L 5113 0 
L 5113 2094 
Q 5113 2597 4934 2840 
Q 4756 3084 4391 3084 
Q 3944 3084 3684 2787 
Q 3425 2491 3425 1978 
L 3425 0 
L 2847 0 
L 2847 2094 
Q 2847 2600 2669 2842 
Q 2491 3084 2119 3084 
Q 1678 3084 1418 2786 
Q 1159 2488 1159 1978 
L 1159 0 
L 581 0 
L 581 3500 
L 1159 3500 
L 1159 2956 
Q 1356 3278 1631 3431 
Q 1906 3584 2284 3584 
Q 2666 3584 2933 3390 
Q 3200 3197 3328 2828 
z
" transform="scale(0.015625)"/>
       <path id="DejaVuSans-6c" d="M 603 4863 
L 1178 4863 
L 1178 0 
L 603 0 
L 603 4863 
z
" transform="scale(0.015625)"/>
      </defs>
      <use xlink:href="#DejaVuSans-6d"/>
      <use xlink:href="#DejaVuSans-61" x="97.412109"/>
      <use xlink:href="#DejaVuSans-6c" x="158.691406"/>
      <use xlink:href="#DejaVuSans-65" x="186.474609"/>
     </g>
    </g>
    <g id="patch_9">
     <path d="M 438.628828 74.595521 
L 471.628828 74.595521 
L 471.628828 63.045521 
L 438.628828 63.045521 
z
" style="fill: #dd8452; fill-opacity: 0.25; stroke: #dd8452; stroke-linejoin: miter"/>
    </g>
    <g id="text_14">
     <!-- female -->
     <g style="fill: #262626" transform="translate(484.828828 74.595521) scale(0.165 -0.165)">
      <defs>
       <path id="DejaVuSans-66" d="M 2375 4863 
L 2375 4384 
L 1825 4384 
Q 1516 4384 1395 4259 
Q 1275 4134 1275 3809 
L 1275 3500 
L 2222 3500 
L 2222 3053 
L 1275 3053 
L 1275 0 
L 697 0 
L 697 3053 
L 147 3053 
L 147 3500 
L 697 3500 
L 697 3744 
Q 697 4328 969 4595 
Q 1241 4863 1831 4863 
L 2375 4863 
z
" transform="scale(0.015625)"/>
      </defs>
      <use xlink:href="#DejaVuSans-66"/>
      <use xlink:href="#DejaVuSans-65" x="35.205078"/>
      <use xlink:href="#DejaVuSans-6d" x="96.728516"/>
      <use xlink:href="#DejaVuSans-61" x="194.140625"/>
      <use xlink:href="#DejaVuSans-6c" x="255.419922"/>
      <use xlink:href="#DejaVuSans-65" x="283.203125"/>
     </g>
    </g>
   </g>
  </g>
 </g>
 <defs>
  <clipPath id="p74a15f7862">
   <rect x="86.94" y="22.989193" width="469.62" height="197.510807"/>
  </clipPath>
 </defs>
</svg>
