<?xml version="1.0" encoding="utf-8" standalone="no"?>
<!DOCTYPE svg PUBLIC "-//W3C//DTD SVG 1.1//EN"
  "http://www.w3.org/Graphics/SVG/1.1/DTD/svg11.dtd">
<svg xmlns:xlink="http://www.w3.org/1999/xlink" width="576pt" height="288pt" viewBox="0 0 576 288" xmlns="http://www.w3.org/2000/svg" version="1.1">
 <metadata>
  <rdf:RDF xmlns:dc="http://purl.org/dc/elements/1.1/" xmlns:cc="http://creativecommons.org/ns#" xmlns:rdf="http://www.w3.org/1999/02/22-rdf-syntax-ns#">
   <cc:Work>
    <dc:type rdf:resource="http://purl.org/dc/dcmitype/StillImage"/>
    <dc:date>2023-11-29T19:17:39.504972</dc:date>
    <dc:format>image/svg+xml</dc:format>
    <dc:creator>
     <cc:Agent>
      <dc:title>Matplotlib v3.8.2, https://matplotlib.org/</dc:title>
     </cc:Agent>
    </dc:creator>
   </cc:Work>
  </rdf:RDF>
 </metadata>
 <defs>
  <style type="text/css">*{stroke-linejoin: round; stroke-linecap: butt}</style>
 </defs>
 <g id="figure_1">
  <g id="patch_1">
   <path d="M 0 288 
L 576 288 
L 576 0 
L 0 0 
z
" style="fill: #ffffff"/>
  </g>
  <g id="axes_1">
   <g id="patch_2">
    <path d="M 51.98 229.14 
L 554.4 229.14 
L 554.4 21.6 
L 51.98 21.6 
z
" style="fill: #eaeaf2"/>
   </g>
   <g id="matplotlib.axis_1">
    <g id="xtick_1">
     <g id="line2d_1">
      <path d="M 71.073458 229.14 
L 71.073458 21.6 
" clip-path="url(#p63e4562433)" style="fill: none; stroke: #ffffff; stroke-linecap: round"/>
     </g>
     <g id="text_1">
      <!-- 1900 -->
      <g style="fill: #262626" transform="translate(57.075958 246.998281) scale(0.11 -0.11)">
       <defs>
        <path id="DejaVuSans-31" d="M 794 531 
L 1825 531 
L 1825 4091 
L 703 3866 
L 703 4441 
L 1819 4666 
L 2450 4666 
L 2450 531 
L 3481 531 
L 3481 0 
L 794 0 
L 794 531 
z
" transform="scale(0.015625)"/>
        <path id="DejaVuSans-39" d="M 703 97 
L 703 672 
Q 941 559 1184 500 
Q 1428 441 1663 441 
Q 2288 441 2617 861 
Q 2947 1281 2994 2138 
Q 2813 1869 2534 1725 
Q 2256 1581 1919 1581 
Q 1219 1581 811 2004 
Q 403 2428 403 3163 
Q 403 3881 828 4315 
Q 1253 4750 1959 4750 
Q 2769 4750 3195 4129 
Q 3622 3509 3622 2328 
Q 3622 1225 3098 567 
Q 2575 -91 1691 -91 
Q 1453 -91 1209 -44 
Q 966 3 703 97 
z
M 1959 2075 
Q 2384 2075 2632 2365 
Q 2881 2656 2881 3163 
Q 2881 3666 2632 3958 
Q 2384 4250 1959 4250 
Q 1534 4250 1286 3958 
Q 1038 3666 1038 3163 
Q 1038 2656 1286 2365 
Q 1534 2075 1959 2075 
z
" transform="scale(0.015625)"/>
        <path id="DejaVuSans-30" d="M 2034 4250 
Q 1547 4250 1301 3770 
Q 1056 3291 1056 2328 
Q 1056 1369 1301 889 
Q 1547 409 2034 409 
Q 2525 409 2770 889 
Q 3016 1369 3016 2328 
Q 3016 3291 2770 3770 
Q 2525 4250 2034 4250 
z
M 2034 4750 
Q 2819 4750 3233 4129 
Q 3647 3509 3647 2328 
Q 3647 1150 3233 529 
Q 2819 -91 2034 -91 
Q 1250 -91 836 529 
Q 422 1150 422 2328 
Q 422 3509 836 4129 
Q 1250 4750 2034 4750 
z
" transform="scale(0.015625)"/>
       </defs>
       <use xlink:href="#DejaVuSans-31"/>
       <use xlink:href="#DejaVuSans-39" x="63.623047"/>
       <use xlink:href="#DejaVuSans-30" x="127.246094"/>
       <use xlink:href="#DejaVuSans-30" x="190.869141"/>
      </g>
     </g>
    </g>
    <g id="xtick_2">
     <g id="line2d_2">
      <path d="M 145.949762 229.14 
L 145.949762 21.6 
" clip-path="url(#p63e4562433)" style="fill: none; stroke: #ffffff; stroke-linecap: round"/>
     </g>
     <g id="text_2">
      <!-- 1920 -->
      <g style="fill: #262626" transform="translate(131.952262 246.998281) scale(0.11 -0.11)">
       <defs>
        <path id="DejaVuSans-32" d="M 1228 531 
L 3431 531 
L 3431 0 
L 469 0 
L 469 531 
Q 828 903 1448 1529 
Q 2069 2156 2228 2338 
Q 2531 2678 2651 2914 
Q 2772 3150 2772 3378 
Q 2772 3750 2511 3984 
Q 2250 4219 1831 4219 
Q 1534 4219 1204 4116 
Q 875 4013 500 3803 
L 500 4441 
Q 881 4594 1212 4672 
Q 1544 4750 1819 4750 
Q 2544 4750 2975 4387 
Q 3406 4025 3406 3419 
Q 3406 3131 3298 2873 
Q 3191 2616 2906 2266 
Q 2828 2175 2409 1742 
Q 1991 1309 1228 531 
z
" transform="scale(0.015625)"/>
       </defs>
       <use xlink:href="#DejaVuSans-31"/>
       <use xlink:href="#DejaVuSans-39" x="63.623047"/>
       <use xlink:href="#DejaVuSans-32" x="127.246094"/>
       <use xlink:href="#DejaVuSans-30" x="190.869141"/>
      </g>
     </g>
    </g>
    <g id="xtick_3">
     <g id="line2d_3">
      <path d="M 220.826066 229.14 
L 220.826066 21.6 
" clip-path="url(#p63e4562433)" style="fill: none; stroke: #ffffff; stroke-linecap: round"/>
     </g>
     <g id="text_3">
      <!-- 1940 -->
      <g style="fill: #262626" transform="translate(206.828566 246.998281) scale(0.11 -0.11)">
       <defs>
        <path id="DejaVuSans-34" d="M 2419 4116 
L 825 1625 
L 2419 1625 
L 2419 4116 
z
M 2253 4666 
L 3047 4666 
L 3047 1625 
L 3713 1625 
L 3713 1100 
L 3047 1100 
L 3047 0 
L 2419 0 
L 2419 1100 
L 313 1100 
L 313 1709 
L 2253 4666 
z
" transform="scale(0.015625)"/>
       </defs>
       <use xlink:href="#DejaVuSans-31"/>
       <use xlink:href="#DejaVuSans-39" x="63.623047"/>
       <use xlink:href="#DejaVuSans-34" x="127.246094"/>
       <use xlink:href="#DejaVuSans-30" x="190.869141"/>
      </g>
     </g>
    </g>
    <g id="xtick_4">
     <g id="line2d_4">
      <path d="M 295.70237 229.14 
L 295.70237 21.6 
" clip-path="url(#p63e4562433)" style="fill: none; stroke: #ffffff; stroke-linecap: round"/>
     </g>
     <g id="text_4">
      <!-- 1960 -->
      <g style="fill: #262626" transform="translate(281.70487 246.998281) scale(0.11 -0.11)">
       <defs>
        <path id="DejaVuSans-36" d="M 2113 2584 
Q 1688 2584 1439 2293 
Q 1191 2003 1191 1497 
Q 1191 994 1439 701 
Q 1688 409 2113 409 
Q 2538 409 2786 701 
Q 3034 994 3034 1497 
Q 3034 2003 2786 2293 
Q 2538 2584 2113 2584 
z
M 3366 4563 
L 3366 3988 
Q 3128 4100 2886 4159 
Q 2644 4219 2406 4219 
Q 1781 4219 1451 3797 
Q 1122 3375 1075 2522 
Q 1259 2794 1537 2939 
Q 1816 3084 2150 3084 
Q 2853 3084 3261 2657 
Q 3669 2231 3669 1497 
Q 3669 778 3244 343 
Q 2819 -91 2113 -91 
Q 1303 -91 875 529 
Q 447 1150 447 2328 
Q 447 3434 972 4092 
Q 1497 4750 2381 4750 
Q 2619 4750 2861 4703 
Q 3103 4656 3366 4563 
z
" transform="scale(0.015625)"/>
       </defs>
       <use xlink:href="#DejaVuSans-31"/>
       <use xlink:href="#DejaVuSans-39" x="63.623047"/>
       <use xlink:href="#DejaVuSans-36" x="127.246094"/>
       <use xlink:href="#DejaVuSans-30" x="190.869141"/>
      </g>
     </g>
    </g>
    <g id="xtick_5">
     <g id="line2d_5">
      <path d="M 370.578674 229.14 
L 370.578674 21.6 
" clip-path="url(#p63e4562433)" style="fill: none; stroke: #ffffff; stroke-linecap: round"/>
     </g>
     <g id="text_5">
      <!-- 1980 -->
      <g style="fill: #262626" transform="translate(356.581174 246.998281) scale(0.11 -0.11)">
       <defs>
        <path id="DejaVuSans-38" d="M 2034 2216 
Q 1584 2216 1326 1975 
Q 1069 1734 1069 1313 
Q 1069 891 1326 650 
Q 1584 409 2034 409 
Q 2484 409 2743 651 
Q 3003 894 3003 1313 
Q 3003 1734 2745 1975 
Q 2488 2216 2034 2216 
z
M 1403 2484 
Q 997 2584 770 2862 
Q 544 3141 544 3541 
Q 544 4100 942 4425 
Q 1341 4750 2034 4750 
Q 2731 4750 3128 4425 
Q 3525 4100 3525 3541 
Q 3525 3141 3298 2862 
Q 3072 2584 2669 2484 
Q 3125 2378 3379 2068 
Q 3634 1759 3634 1313 
Q 3634 634 3220 271 
Q 2806 -91 2034 -91 
Q 1263 -91 848 271 
Q 434 634 434 1313 
Q 434 1759 690 2068 
Q 947 2378 1403 2484 
z
M 1172 3481 
Q 1172 3119 1398 2916 
Q 1625 2713 2034 2713 
Q 2441 2713 2670 2916 
Q 2900 3119 2900 3481 
Q 2900 3844 2670 4047 
Q 2441 4250 2034 4250 
Q 1625 4250 1398 4047 
Q 1172 3844 1172 3481 
z
" transform="scale(0.015625)"/>
       </defs>
       <use xlink:href="#DejaVuSans-31"/>
       <use xlink:href="#DejaVuSans-39" x="63.623047"/>
       <use xlink:href="#DejaVuSans-38" x="127.246094"/>
       <use xlink:href="#DejaVuSans-30" x="190.869141"/>
      </g>
     </g>
    </g>
    <g id="xtick_6">
     <g id="line2d_6">
      <path d="M 445.454978 229.14 
L 445.454978 21.6 
" clip-path="url(#p63e4562433)" style="fill: none; stroke: #ffffff; stroke-linecap: round"/>
     </g>
     <g id="text_6">
      <!-- 2000 -->
      <g style="fill: #262626" transform="translate(431.457478 246.998281) scale(0.11 -0.11)">
       <use xlink:href="#DejaVuSans-32"/>
       <use xlink:href="#DejaVuSans-30" x="63.623047"/>
       <use xlink:href="#DejaVuSans-30" x="127.246094"/>
       <use xlink:href="#DejaVuSans-30" x="190.869141"/>
      </g>
     </g>
    </g>
    <g id="xtick_7">
     <g id="line2d_7">
      <path d="M 520.331282 229.14 
L 520.331282 21.6 
" clip-path="url(#p63e4562433)" style="fill: none; stroke: #ffffff; stroke-linecap: round"/>
     </g>
     <g id="text_7">
      <!-- 2020 -->
      <g style="fill: #262626" transform="translate(506.333782 246.998281) scale(0.11 -0.11)">
       <use xlink:href="#DejaVuSans-32"/>
       <use xlink:href="#DejaVuSans-30" x="63.623047"/>
       <use xlink:href="#DejaVuSans-32" x="127.246094"/>
       <use xlink:href="#DejaVuSans-30" x="190.869141"/>
      </g>
     </g>
    </g>
    <g id="text_8">
     <!-- year -->
     <g style="fill: #262626" transform="translate(289.803437 262.404063) scale(0.12 -0.12)">
      <defs>
       <path id="DejaVuSans-79" d="M 2059 -325 
Q 1816 -950 1584 -1140 
Q 1353 -1331 966 -1331 
L 506 -1331 
L 506 -850 
L 844 -850 
Q 1081 -850 1212 -737 
Q 1344 -625 1503 -206 
L 1606 56 
L 191 3500 
L 800 3500 
L 1894 763 
L 2988 3500 
L 3597 3500 
L 2059 -325 
z
" transform="scale(0.015625)"/>
       <path id="DejaVuSans-65" d="M 3597 1894 
L 3597 1613 
L 953 1613 
Q 991 1019 1311 708 
Q 1631 397 2203 397 
Q 2534 397 2845 478 
Q 3156 559 3463 722 
L 3463 178 
Q 3153 47 2828 -22 
Q 2503 -91 2169 -91 
Q 1331 -91 842 396 
Q 353 884 353 1716 
Q 353 2575 817 3079 
Q 1281 3584 2069 3584 
Q 2775 3584 3186 3129 
Q 3597 2675 3597 1894 
z
M 3022 2063 
Q 3016 2534 2758 2815 
Q 2500 3097 2075 3097 
Q 1594 3097 1305 2825 
Q 1016 2553 972 2059 
L 3022 2063 
z
" transform="scale(0.015625)"/>
       <path id="DejaVuSans-61" d="M 2194 1759 
Q 1497 1759 1228 1600 
Q 959 1441 959 1056 
Q 959 750 1161 570 
Q 1363 391 1709 391 
Q 2188 391 2477 730 
Q 2766 1069 2766 1631 
L 2766 1759 
L 2194 1759 
z
M 3341 1997 
L 3341 0 
L 2766 0 
L 2766 531 
Q 2569 213 2275 61 
Q 1981 -91 1556 -91 
Q 1019 -91 701 211 
Q 384 513 384 1019 
Q 384 1609 779 1909 
Q 1175 2209 1959 2209 
L 2766 2209 
L 2766 2266 
Q 2766 2663 2505 2880 
Q 2244 3097 1772 3097 
Q 1472 3097 1187 3025 
Q 903 2953 641 2809 
L 641 3341 
Q 956 3463 1253 3523 
Q 1550 3584 1831 3584 
Q 2591 3584 2966 3190 
Q 3341 2797 3341 1997 
z
" transform="scale(0.015625)"/>
       <path id="DejaVuSans-72" d="M 2631 2963 
Q 2534 3019 2420 3045 
Q 2306 3072 2169 3072 
Q 1681 3072 1420 2755 
Q 1159 2438 1159 1844 
L 1159 0 
L 581 0 
L 581 3500 
L 1159 3500 
L 1159 2956 
Q 1341 3275 1631 3429 
Q 1922 3584 2338 3584 
Q 2397 3584 2469 3576 
Q 2541 3569 2628 3553 
L 2631 2963 
z
" transform="scale(0.015625)"/>
      </defs>
      <use xlink:href="#DejaVuSans-79"/>
      <use xlink:href="#DejaVuSans-65" x="59.179688"/>
      <use xlink:href="#DejaVuSans-61" x="120.703125"/>
      <use xlink:href="#DejaVuSans-72" x="181.982422"/>
     </g>
    </g>
   </g>
   <g id="matplotlib.axis_2">
    <g id="ytick_1">
     <g id="line2d_8">
      <path d="M 51.98 219.706364 
L 554.4 219.706364 
" clip-path="url(#p63e4562433)" style="fill: none; stroke: #ffffff; stroke-linecap: round"/>
     </g>
     <g id="text_9">
      <!-- 0 -->
      <g style="fill: #262626" transform="translate(35.48125 223.885504) scale(0.11 -0.11)">
       <use xlink:href="#DejaVuSans-30"/>
      </g>
     </g>
    </g>
    <g id="ytick_2">
     <g id="line2d_9">
      <path d="M 51.98 195.517552 
L 554.4 195.517552 
" clip-path="url(#p63e4562433)" style="fill: none; stroke: #ffffff; stroke-linecap: round"/>
     </g>
     <g id="text_10">
      <!-- 50 -->
      <g style="fill: #262626" transform="translate(28.4825 199.696693) scale(0.11 -0.11)">
       <defs>
        <path id="DejaVuSans-35" d="M 691 4666 
L 3169 4666 
L 3169 4134 
L 1269 4134 
L 1269 2991 
Q 1406 3038 1543 3061 
Q 1681 3084 1819 3084 
Q 2600 3084 3056 2656 
Q 3513 2228 3513 1497 
Q 3513 744 3044 326 
Q 2575 -91 1722 -91 
Q 1428 -91 1123 -41 
Q 819 9 494 109 
L 494 744 
Q 775 591 1075 516 
Q 1375 441 1709 441 
Q 2250 441 2565 725 
Q 2881 1009 2881 1497 
Q 2881 1984 2565 2268 
Q 2250 2553 1709 2553 
Q 1456 2553 1204 2497 
Q 953 2441 691 2322 
L 691 4666 
z
" transform="scale(0.015625)"/>
       </defs>
       <use xlink:href="#DejaVuSans-35"/>
       <use xlink:href="#DejaVuSans-30" x="63.623047"/>
      </g>
     </g>
    </g>
    <g id="ytick_3">
     <g id="line2d_10">
      <path d="M 51.98 171.328741 
L 554.4 171.328741 
" clip-path="url(#p63e4562433)" style="fill: none; stroke: #ffffff; stroke-linecap: round"/>
     </g>
     <g id="text_11">
      <!-- 100 -->
      <g style="fill: #262626" transform="translate(21.48375 175.507882) scale(0.11 -0.11)">
       <use xlink:href="#DejaVuSans-31"/>
       <use xlink:href="#DejaVuSans-30" x="63.623047"/>
       <use xlink:href="#DejaVuSans-30" x="127.246094"/>
      </g>
     </g>
    </g>
    <g id="ytick_4">
     <g id="line2d_11">
      <path d="M 51.98 147.13993 
L 554.4 147.13993 
" clip-path="url(#p63e4562433)" style="fill: none; stroke: #ffffff; stroke-linecap: round"/>
     </g>
     <g id="text_12">
      <!-- 150 -->
      <g style="fill: #262626" transform="translate(21.48375 151.319071) scale(0.11 -0.11)">
       <use xlink:href="#DejaVuSans-31"/>
       <use xlink:href="#DejaVuSans-35" x="63.623047"/>
       <use xlink:href="#DejaVuSans-30" x="127.246094"/>
      </g>
     </g>
    </g>
    <g id="ytick_5">
     <g id="line2d_12">
      <path d="M 51.98 122.951119 
L 554.4 122.951119 
" clip-path="url(#p63e4562433)" style="fill: none; stroke: #ffffff; stroke-linecap: round"/>
     </g>
     <g id="text_13">
      <!-- 200 -->
      <g style="fill: #262626" transform="translate(21.48375 127.13026) scale(0.11 -0.11)">
       <use xlink:href="#DejaVuSans-32"/>
       <use xlink:href="#DejaVuSans-30" x="63.623047"/>
       <use xlink:href="#DejaVuSans-30" x="127.246094"/>
      </g>
     </g>
    </g>
    <g id="ytick_6">
     <g id="line2d_13">
      <path d="M 51.98 98.762308 
L 554.4 98.762308 
" clip-path="url(#p63e4562433)" style="fill: none; stroke: #ffffff; stroke-linecap: round"/>
     </g>
     <g id="text_14">
      <!-- 250 -->
      <g style="fill: #262626" transform="translate(21.48375 102.941448) scale(0.11 -0.11)">
       <use xlink:href="#DejaVuSans-32"/>
       <use xlink:href="#DejaVuSans-35" x="63.623047"/>
       <use xlink:href="#DejaVuSans-30" x="127.246094"/>
      </g>
     </g>
    </g>
    <g id="ytick_7">
     <g id="line2d_14">
      <path d="M 51.98 74.573497 
L 554.4 74.573497 
" clip-path="url(#p63e4562433)" style="fill: none; stroke: #ffffff; stroke-linecap: round"/>
     </g>
     <g id="text_15">
      <!-- 300 -->
      <g style="fill: #262626" transform="translate(21.48375 78.752637) scale(0.11 -0.11)">
       <defs>
        <path id="DejaVuSans-33" d="M 2597 2516 
Q 3050 2419 3304 2112 
Q 3559 1806 3559 1356 
Q 3559 666 3084 287 
Q 2609 -91 1734 -91 
Q 1441 -91 1130 -33 
Q 819 25 488 141 
L 488 750 
Q 750 597 1062 519 
Q 1375 441 1716 441 
Q 2309 441 2620 675 
Q 2931 909 2931 1356 
Q 2931 1769 2642 2001 
Q 2353 2234 1838 2234 
L 1294 2234 
L 1294 2753 
L 1863 2753 
Q 2328 2753 2575 2939 
Q 2822 3125 2822 3475 
Q 2822 3834 2567 4026 
Q 2313 4219 1838 4219 
Q 1578 4219 1281 4162 
Q 984 4106 628 3988 
L 628 4550 
Q 988 4650 1302 4700 
Q 1616 4750 1894 4750 
Q 2613 4750 3031 4423 
Q 3450 4097 3450 3541 
Q 3450 3153 3228 2886 
Q 3006 2619 2597 2516 
z
" transform="scale(0.015625)"/>
       </defs>
       <use xlink:href="#DejaVuSans-33"/>
       <use xlink:href="#DejaVuSans-30" x="63.623047"/>
       <use xlink:href="#DejaVuSans-30" x="127.246094"/>
      </g>
     </g>
    </g>
    <g id="ytick_8">
     <g id="line2d_15">
      <path d="M 51.98 50.384685 
L 554.4 50.384685 
" clip-path="url(#p63e4562433)" style="fill: none; stroke: #ffffff; stroke-linecap: round"/>
     </g>
     <g id="text_16">
      <!-- 350 -->
      <g style="fill: #262626" transform="translate(21.48375 54.563826) scale(0.11 -0.11)">
       <use xlink:href="#DejaVuSans-33"/>
       <use xlink:href="#DejaVuSans-35" x="63.623047"/>
       <use xlink:href="#DejaVuSans-30" x="127.246094"/>
      </g>
     </g>
    </g>
    <g id="ytick_9">
     <g id="line2d_16">
      <path d="M 51.98 26.195874 
L 554.4 26.195874 
" clip-path="url(#p63e4562433)" style="fill: none; stroke: #ffffff; stroke-linecap: round"/>
     </g>
     <g id="text_17">
      <!-- 400 -->
      <g style="fill: #262626" transform="translate(21.48375 30.375015) scale(0.11 -0.11)">
       <use xlink:href="#DejaVuSans-34"/>
       <use xlink:href="#DejaVuSans-30" x="63.623047"/>
       <use xlink:href="#DejaVuSans-30" x="127.246094"/>
      </g>
     </g>
    </g>
   </g>
   <g id="line2d_17">
    <path d="M 74.817273 219.706364 
L 78.561088 219.706364 
L 82.304903 219.706364 
L 86.048718 219.706364 
L 89.792534 219.706364 
L 93.536349 219.222587 
L 97.280164 218.738811 
L 101.023979 218.738811 
L 104.767794 218.738811 
L 108.51161 218.738811 
L 112.255425 218.738811 
L 115.99924 218.255035 
L 119.743055 218.255035 
L 123.48687 217.771259 
L 127.230686 217.771259 
L 130.974501 217.771259 
L 134.718316 217.771259 
L 138.462131 217.771259 
L 142.205946 217.287483 
L 145.949762 217.287483 
L 149.693577 217.287483 
L 153.437392 217.287483 
L 157.181207 215.836154 
L 160.925022 215.836154 
L 164.668838 215.352378 
L 168.412653 215.352378 
L 172.156468 214.868601 
L 175.900283 214.868601 
L 179.644098 214.384825 
L 183.387914 213.901049 
L 187.131729 212.933497 
L 190.875544 212.44972 
L 194.619359 211.965944 
L 198.363174 210.030839 
L 202.10699 210.030839 
L 205.850805 209.063287 
L 209.59462 208.57951 
L 213.338435 208.095734 
L 217.08225 207.611958 
L 232.057511 206.644406 
L 235.801326 205.193077 
L 239.545142 204.709301 
L 243.288957 201.322867 
L 247.032772 200.839091 
L 250.776587 200.839091 
L 254.520402 199.871538 
L 258.264218 198.42021 
L 262.008033 197.452657 
L 265.751848 196.001329 
L 269.495663 195.033776 
L 273.239478 192.614895 
L 276.983294 191.163566 
L 280.727109 188.744685 
L 284.470924 187.293357 
L 288.214739 185.842028 
L 291.958554 183.906923 
L 295.70237 182.939371 
L 299.446185 181.488042 
L 303.19 180.036713 
L 306.933815 179.552937 
L 310.67763 178.101608 
L 314.421446 176.65028 
L 318.165261 175.198951 
L 321.909076 173.747622 
L 325.652891 171.812517 
L 329.396706 169.877413 
L 333.140522 168.426084 
L 336.884337 167.458531 
L 340.628152 163.588322 
L 344.371967 162.620769 
L 348.115782 161.653217 
L 351.859598 159.718112 
L 355.603413 156.331678 
L 359.347228 153.912797 
L 363.091043 151.01014 
L 366.834858 148.591259 
L 370.578674 144.721049 
L 374.322489 141.818392 
L 378.066304 140.850839 
L 381.810119 138.915734 
L 385.553934 138.431958 
L 389.29775 136.013077 
L 393.041565 132.626643 
L 396.78538 130.691538 
L 400.529195 128.272657 
L 404.27301 125.37 
L 408.016826 121.016014 
L 411.760641 120.532238 
L 415.504456 119.080909 
L 419.248271 115.210699 
L 422.992086 112.308042 
L 426.735902 108.921608 
L 430.479717 106.018951 
L 434.223532 102.632517 
L 437.967347 99.246084 
L 441.711162 97.794755 
L 445.454978 94.892098 
L 449.198793 91.021888 
L 452.942608 87.635455 
L 456.686423 84.732797 
L 460.430238 81.346364 
L 464.174054 78.927483 
L 467.917869 76.024825 
L 471.661684 73.122168 
L 475.405499 70.703287 
L 479.149314 66.349301 
L 482.89313 64.897972 
L 486.636945 61.511538 
L 490.38076 59.092657 
L 494.124575 55.222448 
L 497.86839 53.771119 
L 501.612206 52.803566 
L 505.356021 51.836014 
L 509.099836 47.965804 
L 512.843651 44.579371 
L 516.587466 41.192937 
L 520.331282 37.806503 
L 524.075097 35.871399 
L 527.818912 32.968741 
L 531.562727 31.033636 
" clip-path="url(#p63e4562433)" style="fill: none; stroke: #4c72b0; stroke-width: 1.5; stroke-linecap: round"/>
   </g>
   <g id="line2d_18">
    <path d="M 74.817273 216.803706 
L 78.561088 213.417273 
L 82.304903 211.482168 
L 86.048718 209.547063 
L 89.792534 208.095734 
L 93.536349 207.128182 
L 97.280164 205.193077 
L 101.023979 202.29042 
L 104.767794 199.871538 
L 108.51161 197.936434 
L 112.255425 196.001329 
L 115.99924 193.582448 
L 119.743055 192.131119 
L 123.48687 191.647343 
L 127.230686 189.712238 
L 130.974501 189.228462 
L 134.718316 188.744685 
L 138.462131 187.777133 
L 142.205946 186.80958 
L 145.949762 185.358252 
L 149.693577 183.423147 
L 153.437392 181.971818 
L 157.181207 181.971818 
L 160.925022 181.004266 
L 164.668838 179.069161 
L 168.412653 177.134056 
L 172.156468 174.715175 
L 175.900283 173.263846 
L 179.644098 170.361189 
L 183.387914 169.393636 
L 187.131729 167.458531 
L 190.875544 165.523427 
L 194.619359 164.072098 
L 198.363174 163.588322 
L 202.10699 161.169441 
L 205.850805 160.201888 
L 209.59462 157.783007 
L 213.338435 157.299231 
L 217.08225 156.331678 
L 232.057511 156.331678 
L 235.801326 155.847902 
L 239.545142 154.88035 
L 243.288957 154.396573 
L 247.032772 152.945245 
L 250.776587 151.01014 
L 254.520402 150.042587 
L 258.264218 147.623706 
L 262.008033 146.172378 
L 265.751848 144.237273 
L 269.495663 142.302168 
L 273.239478 141.334615 
L 276.983294 140.850839 
L 280.727109 138.915734 
L 284.470924 137.948182 
L 288.214739 135.529301 
L 291.958554 135.045524 
L 295.70237 134.077972 
L 299.446185 133.11042 
L 303.19 131.175315 
L 306.933815 129.24021 
L 310.67763 126.821329 
L 314.421446 124.886224 
L 318.165261 123.918671 
L 321.909076 121.983566 
L 325.652891 121.49979 
L 329.396706 120.532238 
L 333.140522 118.113357 
L 336.884337 117.145804 
L 340.628152 115.694476 
L 344.371967 113.275594 
L 348.115782 110.372937 
L 351.859598 108.437832 
L 355.603413 107.954056 
L 359.347228 106.502727 
L 363.091043 105.051399 
L 366.834858 103.60007 
L 370.578674 102.632517 
L 374.322489 101.181189 
L 378.066304 98.762308 
L 381.810119 97.794755 
L 385.553934 96.343427 
L 389.29775 95.375874 
L 393.041565 93.924545 
L 396.78538 92.473217 
L 400.529195 90.054336 
L 404.27301 89.570559 
L 408.016826 89.086783 
L 411.760641 87.151678 
L 415.504456 86.184126 
L 419.248271 85.70035 
L 422.992086 85.216573 
L 426.735902 83.765245 
L 430.479717 82.313916 
L 434.223532 81.346364 
L 437.967347 80.378811 
L 441.711162 78.927483 
L 445.454978 76.992378 
L 449.198793 75.057273 
L 452.942608 73.605944 
L 456.686423 72.154615 
L 460.430238 72.154615 
L 464.174054 70.703287 
L 467.917869 70.703287 
L 471.661684 68.284406 
L 475.405499 66.349301 
L 479.149314 64.897972 
L 482.89313 62.962867 
L 486.636945 61.995315 
L 490.38076 61.027762 
L 494.124575 60.543986 
L 497.86839 58.608881 
L 501.612206 57.641329 
L 505.356021 54.738671 
L 509.099836 53.287343 
L 512.843651 52.31979 
L 516.587466 50.384685 
L 520.331282 48.44958 
L 524.075097 45.546923 
L 527.818912 44.095594 
L 531.562727 43.128042 
" clip-path="url(#p63e4562433)" style="fill: none; stroke-dasharray: 5.55,2.4; stroke-dashoffset: 0; stroke: #dd8452; stroke-width: 1.5"/>
   </g>
   <g id="line2d_19">
    <path d="M 74.817273 219.706364 
L 78.561088 219.706364 
L 82.304903 219.706364 
L 86.048718 219.706364 
L 89.792534 219.706364 
L 93.536349 219.706364 
L 97.280164 219.706364 
L 101.023979 219.706364 
L 104.767794 219.706364 
L 108.51161 219.706364 
L 112.255425 219.706364 
L 115.99924 219.706364 
L 119.743055 219.222587 
L 123.48687 219.222587 
L 127.230686 219.222587 
L 130.974501 219.222587 
L 134.718316 219.222587 
L 138.462131 219.222587 
L 142.205946 219.222587 
L 145.949762 219.222587 
L 149.693577 219.222587 
L 153.437392 219.222587 
L 157.181207 219.222587 
L 160.925022 219.222587 
L 164.668838 219.222587 
L 168.412653 219.222587 
L 172.156468 219.222587 
L 175.900283 219.222587 
L 179.644098 219.222587 
L 183.387914 218.738811 
L 187.131729 218.738811 
L 190.875544 218.738811 
L 194.619359 218.738811 
L 198.363174 218.738811 
L 202.10699 218.738811 
L 205.850805 218.738811 
L 209.59462 218.738811 
L 213.338435 218.738811 
L 217.08225 218.738811 
L 232.057511 218.738811 
L 235.801326 218.738811 
L 239.545142 218.738811 
L 243.288957 218.738811 
L 247.032772 218.738811 
L 250.776587 218.738811 
L 254.520402 218.255035 
L 258.264218 218.255035 
L 262.008033 218.255035 
L 265.751848 218.255035 
L 269.495663 218.255035 
L 273.239478 218.255035 
L 276.983294 218.255035 
L 280.727109 218.255035 
L 284.470924 218.255035 
L 288.214739 218.255035 
L 291.958554 218.255035 
L 295.70237 218.255035 
L 299.446185 218.255035 
L 303.19 218.255035 
L 306.933815 218.255035 
L 310.67763 218.255035 
L 314.421446 217.771259 
L 318.165261 217.771259 
L 321.909076 217.771259 
L 325.652891 217.287483 
L 329.396706 217.287483 
L 333.140522 217.287483 
L 336.884337 217.287483 
L 340.628152 217.287483 
L 344.371967 216.803706 
L 348.115782 216.31993 
L 351.859598 216.31993 
L 355.603413 216.31993 
L 359.347228 216.31993 
L 363.091043 216.31993 
L 366.834858 215.836154 
L 370.578674 215.836154 
L 374.322489 215.352378 
L 378.066304 215.352378 
L 381.810119 215.352378 
L 385.553934 215.352378 
L 389.29775 215.352378 
L 393.041565 215.352378 
L 396.78538 214.868601 
L 400.529195 214.868601 
L 404.27301 214.868601 
L 408.016826 214.868601 
L 411.760641 214.868601 
L 415.504456 214.868601 
L 419.248271 214.868601 
L 422.992086 214.384825 
L 426.735902 214.384825 
L 430.479717 214.384825 
L 434.223532 214.384825 
L 437.967347 213.901049 
L 441.711162 213.901049 
L 445.454978 213.417273 
L 449.198793 212.933497 
L 452.942608 211.965944 
L 456.686423 211.965944 
L 460.430238 211.965944 
L 464.174054 211.965944 
L 467.917869 211.965944 
L 471.661684 211.965944 
L 475.405499 210.998392 
L 479.149314 210.998392 
L 482.89313 210.030839 
L 486.636945 210.030839 
L 490.38076 209.547063 
L 494.124575 209.547063 
L 497.86839 208.095734 
L 501.612206 207.128182 
L 505.356021 206.644406 
L 509.099836 206.644406 
L 512.843651 206.160629 
L 516.587466 205.676853 
L 520.331282 205.676853 
L 524.075097 205.676853 
L 527.818912 205.676853 
L 531.562727 205.676853 
" clip-path="url(#p63e4562433)" style="fill: none; stroke-dasharray: 9.6,2.4,1.5,2.4; stroke-dashoffset: 0; stroke: #55a868; stroke-width: 1.5"/>
   </g>
   <g id="patch_3">
    <path d="M 51.98 229.14 
L 51.98 21.6 
" style="fill: none; stroke: #ffffff; stroke-width: 1.25; stroke-linejoin: miter; stroke-linecap: square"/>
   </g>
   <g id="patch_4">
    <path d="M 554.4 229.14 
L 554.4 21.6 
" style="fill: none; stroke: #ffffff; stroke-width: 1.25; stroke-linejoin: miter; stroke-linecap: square"/>
   </g>
   <g id="patch_5">
    <path d="M 51.98 229.14 
L 554.4 229.14 
" style="fill: none; stroke: #ffffff; stroke-width: 1.25; stroke-linejoin: miter; stroke-linecap: square"/>
   </g>
   <g id="patch_6">
    <path d="M 51.98 21.6 
L 554.4 21.6 
" style="fill: none; stroke: #ffffff; stroke-width: 1.25; stroke-linejoin: miter; stroke-linecap: square"/>
   </g>
   <g id="legend_1">
    <g id="patch_7">
     <path d="M 59.68 95.951562 
L 174.516562 95.951562 
Q 176.716562 95.951562 176.716562 93.751562 
L 176.716562 29.3 
Q 176.716562 27.1 174.516562 27.1 
L 59.68 27.1 
Q 57.48 27.1 57.48 29.3 
L 57.48 93.751562 
Q 57.48 95.951562 59.68 95.951562 
z
" style="fill: #eaeaf2; opacity: 0.8; stroke: #cccccc; stroke-linejoin: miter"/>
    </g>
    <g id="text_18">
     <!-- country -->
     <g style="fill: #262626" transform="translate(94.152969 40.618125) scale(0.12 -0.12)">
      <defs>
       <path id="DejaVuSans-63" d="M 3122 3366 
L 3122 2828 
Q 2878 2963 2633 3030 
Q 2388 3097 2138 3097 
Q 1578 3097 1268 2742 
Q 959 2388 959 1747 
Q 959 1106 1268 751 
Q 1578 397 2138 397 
Q 2388 397 2633 464 
Q 2878 531 3122 666 
L 3122 134 
Q 2881 22 2623 -34 
Q 2366 -91 2075 -91 
Q 1284 -91 818 406 
Q 353 903 353 1747 
Q 353 2603 823 3093 
Q 1294 3584 2113 3584 
Q 2378 3584 2631 3529 
Q 2884 3475 3122 3366 
z
" transform="scale(0.015625)"/>
       <path id="DejaVuSans-6f" d="M 1959 3097 
Q 1497 3097 1228 2736 
Q 959 2375 959 1747 
Q 959 1119 1226 758 
Q 1494 397 1959 397 
Q 2419 397 2687 759 
Q 2956 1122 2956 1747 
Q 2956 2369 2687 2733 
Q 2419 3097 1959 3097 
z
M 1959 3584 
Q 2709 3584 3137 3096 
Q 3566 2609 3566 1747 
Q 3566 888 3137 398 
Q 2709 -91 1959 -91 
Q 1206 -91 779 398 
Q 353 888 353 1747 
Q 353 2609 779 3096 
Q 1206 3584 1959 3584 
z
" transform="scale(0.015625)"/>
       <path id="DejaVuSans-75" d="M 544 1381 
L 544 3500 
L 1119 3500 
L 1119 1403 
Q 1119 906 1312 657 
Q 1506 409 1894 409 
Q 2359 409 2629 706 
Q 2900 1003 2900 1516 
L 2900 3500 
L 3475 3500 
L 3475 0 
L 2900 0 
L 2900 538 
Q 2691 219 2414 64 
Q 2138 -91 1772 -91 
Q 1169 -91 856 284 
Q 544 659 544 1381 
z
M 1991 3584 
L 1991 3584 
z
" transform="scale(0.015625)"/>
       <path id="DejaVuSans-6e" d="M 3513 2113 
L 3513 0 
L 2938 0 
L 2938 2094 
Q 2938 2591 2744 2837 
Q 2550 3084 2163 3084 
Q 1697 3084 1428 2787 
Q 1159 2491 1159 1978 
L 1159 0 
L 581 0 
L 581 3500 
L 1159 3500 
L 1159 2956 
Q 1366 3272 1645 3428 
Q 1925 3584 2291 3584 
Q 2894 3584 3203 3211 
Q 3513 2838 3513 2113 
z
" transform="scale(0.015625)"/>
       <path id="DejaVuSans-74" d="M 1172 4494 
L 1172 3500 
L 2356 3500 
L 2356 3053 
L 1172 3053 
L 1172 1153 
Q 1172 725 1289 603 
Q 1406 481 1766 481 
L 2356 481 
L 2356 0 
L 1766 0 
Q 1100 0 847 248 
Q 594 497 594 1153 
L 594 3053 
L 172 3053 
L 172 3500 
L 594 3500 
L 594 4494 
L 1172 4494 
z
" transform="scale(0.015625)"/>
      </defs>
      <use xlink:href="#DejaVuSans-63"/>
      <use xlink:href="#DejaVuSans-6f" x="54.980469"/>
      <use xlink:href="#DejaVuSans-75" x="116.162109"/>
      <use xlink:href="#DejaVuSans-6e" x="179.541016"/>
      <use xlink:href="#DejaVuSans-74" x="242.919922"/>
      <use xlink:href="#DejaVuSans-72" x="282.128906"/>
      <use xlink:href="#DejaVuSans-79" x="323.242188"/>
     </g>
    </g>
    <g id="line2d_20">
     <path d="M 61.88 53.122031 
L 72.88 53.122031 
L 83.88 53.122031 
" style="fill: none; stroke: #4c72b0; stroke-width: 1.5; stroke-linecap: round"/>
    </g>
    <g id="text_19">
     <!-- North America -->
     <g style="fill: #262626" transform="translate(92.68 56.972031) scale(0.11 -0.11)">
      <defs>
       <path id="DejaVuSans-4e" d="M 628 4666 
L 1478 4666 
L 3547 763 
L 3547 4666 
L 4159 4666 
L 4159 0 
L 3309 0 
L 1241 3903 
L 1241 0 
L 628 0 
L 628 4666 
z
" transform="scale(0.015625)"/>
       <path id="DejaVuSans-68" d="M 3513 2113 
L 3513 0 
L 2938 0 
L 2938 2094 
Q 2938 2591 2744 2837 
Q 2550 3084 2163 3084 
Q 1697 3084 1428 2787 
Q 1159 2491 1159 1978 
L 1159 0 
L 581 0 
L 581 4863 
L 1159 4863 
L 1159 2956 
Q 1366 3272 1645 3428 
Q 1925 3584 2291 3584 
Q 2894 3584 3203 3211 
Q 3513 2838 3513 2113 
z
" transform="scale(0.015625)"/>
       <path id="DejaVuSans-20" transform="scale(0.015625)"/>
       <path id="DejaVuSans-41" d="M 2188 4044 
L 1331 1722 
L 3047 1722 
L 2188 4044 
z
M 1831 4666 
L 2547 4666 
L 4325 0 
L 3669 0 
L 3244 1197 
L 1141 1197 
L 716 0 
L 50 0 
L 1831 4666 
z
" transform="scale(0.015625)"/>
       <path id="DejaVuSans-6d" d="M 3328 2828 
Q 3544 3216 3844 3400 
Q 4144 3584 4550 3584 
Q 5097 3584 5394 3201 
Q 5691 2819 5691 2113 
L 5691 0 
L 5113 0 
L 5113 2094 
Q 5113 2597 4934 2840 
Q 4756 3084 4391 3084 
Q 3944 3084 3684 2787 
Q 3425 2491 3425 1978 
L 3425 0 
L 2847 0 
L 2847 2094 
Q 2847 2600 2669 2842 
Q 2491 3084 2119 3084 
Q 1678 3084 1418 2786 
Q 1159 2488 1159 1978 
L 1159 0 
L 581 0 
L 581 3500 
L 1159 3500 
L 1159 2956 
Q 1356 3278 1631 3431 
Q 1906 3584 2284 3584 
Q 2666 3584 2933 3390 
Q 3200 3197 3328 2828 
z
" transform="scale(0.015625)"/>
       <path id="DejaVuSans-69" d="M 603 3500 
L 1178 3500 
L 1178 0 
L 603 0 
L 603 3500 
z
M 603 4863 
L 1178 4863 
L 1178 4134 
L 603 4134 
L 603 4863 
z
" transform="scale(0.015625)"/>
      </defs>
      <use xlink:href="#DejaVuSans-4e"/>
      <use xlink:href="#DejaVuSans-6f" x="74.804688"/>
      <use xlink:href="#DejaVuSans-72" x="135.986328"/>
      <use xlink:href="#DejaVuSans-74" x="177.099609"/>
      <use xlink:href="#DejaVuSans-68" x="216.308594"/>
      <use xlink:href="#DejaVuSans-20" x="279.6875"/>
      <use xlink:href="#DejaVuSans-41" x="311.474609"/>
      <use xlink:href="#DejaVuSans-6d" x="379.882812"/>
      <use xlink:href="#DejaVuSans-65" x="477.294922"/>
      <use xlink:href="#DejaVuSans-72" x="538.818359"/>
      <use xlink:href="#DejaVuSans-69" x="579.931641"/>
      <use xlink:href="#DejaVuSans-63" x="607.714844"/>
      <use xlink:href="#DejaVuSans-61" x="662.695312"/>
     </g>
    </g>
    <g id="line2d_21">
     <path d="M 61.88 69.267969 
L 72.88 69.267969 
L 83.88 69.267969 
" style="fill: none; stroke-dasharray: 5.55,2.4; stroke-dashoffset: 0; stroke: #dd8452; stroke-width: 1.5"/>
    </g>
    <g id="text_20">
     <!-- Europe -->
     <g style="fill: #262626" transform="translate(92.68 73.117969) scale(0.11 -0.11)">
      <defs>
       <path id="DejaVuSans-45" d="M 628 4666 
L 3578 4666 
L 3578 4134 
L 1259 4134 
L 1259 2753 
L 3481 2753 
L 3481 2222 
L 1259 2222 
L 1259 531 
L 3634 531 
L 3634 0 
L 628 0 
L 628 4666 
z
" transform="scale(0.015625)"/>
       <path id="DejaVuSans-70" d="M 1159 525 
L 1159 -1331 
L 581 -1331 
L 581 3500 
L 1159 3500 
L 1159 2969 
Q 1341 3281 1617 3432 
Q 1894 3584 2278 3584 
Q 2916 3584 3314 3078 
Q 3713 2572 3713 1747 
Q 3713 922 3314 415 
Q 2916 -91 2278 -91 
Q 1894 -91 1617 61 
Q 1341 213 1159 525 
z
M 3116 1747 
Q 3116 2381 2855 2742 
Q 2594 3103 2138 3103 
Q 1681 3103 1420 2742 
Q 1159 2381 1159 1747 
Q 1159 1113 1420 752 
Q 1681 391 2138 391 
Q 2594 391 2855 752 
Q 3116 1113 3116 1747 
z
" transform="scale(0.015625)"/>
      </defs>
      <use xlink:href="#DejaVuSans-45"/>
      <use xlink:href="#DejaVuSans-75" x="63.183594"/>
      <use xlink:href="#DejaVuSans-72" x="126.5625"/>
      <use xlink:href="#DejaVuSans-6f" x="165.425781"/>
      <use xlink:href="#DejaVuSans-70" x="226.607422"/>
      <use xlink:href="#DejaVuSans-65" x="290.083984"/>
     </g>
    </g>
    <g id="line2d_22">
     <path d="M 61.88 85.413906 
L 72.88 85.413906 
L 83.88 85.413906 
" style="fill: none; stroke-dasharray: 9.6,2.4,1.5,2.4; stroke-dashoffset: 0; stroke: #55a868; stroke-width: 1.5"/>
    </g>
    <g id="text_21">
     <!-- Asia -->
     <g style="fill: #262626" transform="translate(92.68 89.263906) scale(0.11 -0.11)">
      <defs>
       <path id="DejaVuSans-73" d="M 2834 3397 
L 2834 2853 
Q 2591 2978 2328 3040 
Q 2066 3103 1784 3103 
Q 1356 3103 1142 2972 
Q 928 2841 928 2578 
Q 928 2378 1081 2264 
Q 1234 2150 1697 2047 
L 1894 2003 
Q 2506 1872 2764 1633 
Q 3022 1394 3022 966 
Q 3022 478 2636 193 
Q 2250 -91 1575 -91 
Q 1294 -91 989 -36 
Q 684 19 347 128 
L 347 722 
Q 666 556 975 473 
Q 1284 391 1588 391 
Q 1994 391 2212 530 
Q 2431 669 2431 922 
Q 2431 1156 2273 1281 
Q 2116 1406 1581 1522 
L 1381 1569 
Q 847 1681 609 1914 
Q 372 2147 372 2553 
Q 372 3047 722 3315 
Q 1072 3584 1716 3584 
Q 2034 3584 2315 3537 
Q 2597 3491 2834 3397 
z
" transform="scale(0.015625)"/>
      </defs>
      <use xlink:href="#DejaVuSans-41"/>
      <use xlink:href="#DejaVuSans-73" x="68.408203"/>
      <use xlink:href="#DejaVuSans-69" x="120.507812"/>
      <use xlink:href="#DejaVuSans-61" x="148.291016"/>
     </g>
    </g>
   </g>
  </g>
 </g>
 <defs>
  <clipPath id="p63e4562433">
   <rect x="51.98" y="21.6" width="502.42" height="207.54"/>
  </clipPath>
 </defs>
</svg>
