<?xml version="1.0" encoding="utf-8" standalone="no"?>
<!DOCTYPE svg PUBLIC "-//W3C//DTD SVG 1.1//EN"
  "http://www.w3.org/Graphics/SVG/1.1/DTD/svg11.dtd">
<svg xmlns:xlink="http://www.w3.org/1999/xlink" width="1152pt" height="288pt" viewBox="0 0 1152 288" xmlns="http://www.w3.org/2000/svg" version="1.1">
 <metadata>
  <rdf:RDF xmlns:dc="http://purl.org/dc/elements/1.1/" xmlns:cc="http://creativecommons.org/ns#" xmlns:rdf="http://www.w3.org/1999/02/22-rdf-syntax-ns#">
   <cc:Work>
    <dc:type rdf:resource="http://purl.org/dc/dcmitype/StillImage"/>
    <dc:date>2023-11-25T22:02:14.474492</dc:date>
    <dc:format>image/svg+xml</dc:format>
    <dc:creator>
     <cc:Agent>
      <dc:title>Matplotlib v3.8.1, https://matplotlib.org/</dc:title>
     </cc:Agent>
    </dc:creator>
   </cc:Work>
  </rdf:RDF>
 </metadata>
 <defs>
  <style type="text/css">*{stroke-linejoin: round; stroke-linecap: butt}</style>
 </defs>
 <g id="figure_1">
  <g id="patch_1">
   <path d="M 0 288 
L 1152 288 
L 1152 0 
L 0 0 
z
" style="fill: #ffffff"/>
  </g>
  <g id="axes_1">
   <g id="patch_2">
    <path d="M 45.41 219.054968 
L 1136.88 219.054968 
L 1136.88 19.44 
L 45.41 19.44 
z
" style="fill: #eaeaf2"/>
   </g>
   <g id="matplotlib.axis_1">
    <g id="xtick_1">
     <g id="line2d_1">
      <path d="M 49.84687 219.054968 
L 49.84687 19.44 
" clip-path="url(#pe09996aaae)" style="fill: none; stroke: #ffffff; stroke-linecap: round"/>
     </g>
     <g id="text_1">
      <!-- 1900 -->
      <g style="fill: #262626" transform="translate(42.095433 254.260619) rotate(-45) scale(0.11 -0.11)">
       <defs>
        <path id="DejaVuSans-31" d="M 794 531 
L 1825 531 
L 1825 4091 
L 703 3866 
L 703 4441 
L 1819 4666 
L 2450 4666 
L 2450 531 
L 3481 531 
L 3481 0 
L 794 0 
L 794 531 
z
" transform="scale(0.015625)"/>
        <path id="DejaVuSans-39" d="M 703 97 
L 703 672 
Q 941 559 1184 500 
Q 1428 441 1663 441 
Q 2288 441 2617 861 
Q 2947 1281 2994 2138 
Q 2813 1869 2534 1725 
Q 2256 1581 1919 1581 
Q 1219 1581 811 2004 
Q 403 2428 403 3163 
Q 403 3881 828 4315 
Q 1253 4750 1959 4750 
Q 2769 4750 3195 4129 
Q 3622 3509 3622 2328 
Q 3622 1225 3098 567 
Q 2575 -91 1691 -91 
Q 1453 -91 1209 -44 
Q 966 3 703 97 
z
M 1959 2075 
Q 2384 2075 2632 2365 
Q 2881 2656 2881 3163 
Q 2881 3666 2632 3958 
Q 2384 4250 1959 4250 
Q 1534 4250 1286 3958 
Q 1038 3666 1038 3163 
Q 1038 2656 1286 2365 
Q 1534 2075 1959 2075 
z
" transform="scale(0.015625)"/>
        <path id="DejaVuSans-30" d="M 2034 4250 
Q 1547 4250 1301 3770 
Q 1056 3291 1056 2328 
Q 1056 1369 1301 889 
Q 1547 409 2034 409 
Q 2525 409 2770 889 
Q 3016 1369 3016 2328 
Q 3016 3291 2770 3770 
Q 2525 4250 2034 4250 
z
M 2034 4750 
Q 2819 4750 3233 4129 
Q 3647 3509 3647 2328 
Q 3647 1150 3233 529 
Q 2819 -91 2034 -91 
Q 1250 -91 836 529 
Q 422 1150 422 2328 
Q 422 3509 836 4129 
Q 1250 4750 2034 4750 
z
" transform="scale(0.015625)"/>
       </defs>
       <use xlink:href="#DejaVuSans-31"/>
       <use xlink:href="#DejaVuSans-39" x="63.623047"/>
       <use xlink:href="#DejaVuSans-30" x="127.246094"/>
       <use xlink:href="#DejaVuSans-30" x="190.869141"/>
      </g>
     </g>
    </g>
    <g id="xtick_2">
     <g id="line2d_2">
      <path d="M 94.215569 219.054968 
L 94.215569 19.44 
" clip-path="url(#pe09996aaae)" style="fill: none; stroke: #ffffff; stroke-linecap: round"/>
     </g>
     <g id="text_2">
      <!-- 1905 -->
      <g style="fill: #262626" transform="translate(86.464132 254.260619) rotate(-45) scale(0.11 -0.11)">
       <defs>
        <path id="DejaVuSans-35" d="M 691 4666 
L 3169 4666 
L 3169 4134 
L 1269 4134 
L 1269 2991 
Q 1406 3038 1543 3061 
Q 1681 3084 1819 3084 
Q 2600 3084 3056 2656 
Q 3513 2228 3513 1497 
Q 3513 744 3044 326 
Q 2575 -91 1722 -91 
Q 1428 -91 1123 -41 
Q 819 9 494 109 
L 494 744 
Q 775 591 1075 516 
Q 1375 441 1709 441 
Q 2250 441 2565 725 
Q 2881 1009 2881 1497 
Q 2881 1984 2565 2268 
Q 2250 2553 1709 2553 
Q 1456 2553 1204 2497 
Q 953 2441 691 2322 
L 691 4666 
z
" transform="scale(0.015625)"/>
       </defs>
       <use xlink:href="#DejaVuSans-31"/>
       <use xlink:href="#DejaVuSans-39" x="63.623047"/>
       <use xlink:href="#DejaVuSans-30" x="127.246094"/>
       <use xlink:href="#DejaVuSans-35" x="190.869141"/>
      </g>
     </g>
    </g>
    <g id="xtick_3">
     <g id="line2d_3">
      <path d="M 138.584268 219.054968 
L 138.584268 19.44 
" clip-path="url(#pe09996aaae)" style="fill: none; stroke: #ffffff; stroke-linecap: round"/>
     </g>
     <g id="text_3">
      <!-- 1910 -->
      <g style="fill: #262626" transform="translate(130.832831 254.260619) rotate(-45) scale(0.11 -0.11)">
       <use xlink:href="#DejaVuSans-31"/>
       <use xlink:href="#DejaVuSans-39" x="63.623047"/>
       <use xlink:href="#DejaVuSans-31" x="127.246094"/>
       <use xlink:href="#DejaVuSans-30" x="190.869141"/>
      </g>
     </g>
    </g>
    <g id="xtick_4">
     <g id="line2d_4">
      <path d="M 182.952967 219.054968 
L 182.952967 19.44 
" clip-path="url(#pe09996aaae)" style="fill: none; stroke: #ffffff; stroke-linecap: round"/>
     </g>
     <g id="text_4">
      <!-- 1915 -->
      <g style="fill: #262626" transform="translate(175.20153 254.260619) rotate(-45) scale(0.11 -0.11)">
       <use xlink:href="#DejaVuSans-31"/>
       <use xlink:href="#DejaVuSans-39" x="63.623047"/>
       <use xlink:href="#DejaVuSans-31" x="127.246094"/>
       <use xlink:href="#DejaVuSans-35" x="190.869141"/>
      </g>
     </g>
    </g>
    <g id="xtick_5">
     <g id="line2d_5">
      <path d="M 227.321667 219.054968 
L 227.321667 19.44 
" clip-path="url(#pe09996aaae)" style="fill: none; stroke: #ffffff; stroke-linecap: round"/>
     </g>
     <g id="text_5">
      <!-- 1920 -->
      <g style="fill: #262626" transform="translate(219.57023 254.260619) rotate(-45) scale(0.11 -0.11)">
       <defs>
        <path id="DejaVuSans-32" d="M 1228 531 
L 3431 531 
L 3431 0 
L 469 0 
L 469 531 
Q 828 903 1448 1529 
Q 2069 2156 2228 2338 
Q 2531 2678 2651 2914 
Q 2772 3150 2772 3378 
Q 2772 3750 2511 3984 
Q 2250 4219 1831 4219 
Q 1534 4219 1204 4116 
Q 875 4013 500 3803 
L 500 4441 
Q 881 4594 1212 4672 
Q 1544 4750 1819 4750 
Q 2544 4750 2975 4387 
Q 3406 4025 3406 3419 
Q 3406 3131 3298 2873 
Q 3191 2616 2906 2266 
Q 2828 2175 2409 1742 
Q 1991 1309 1228 531 
z
" transform="scale(0.015625)"/>
       </defs>
       <use xlink:href="#DejaVuSans-31"/>
       <use xlink:href="#DejaVuSans-39" x="63.623047"/>
       <use xlink:href="#DejaVuSans-32" x="127.246094"/>
       <use xlink:href="#DejaVuSans-30" x="190.869141"/>
      </g>
     </g>
    </g>
    <g id="xtick_6">
     <g id="line2d_6">
      <path d="M 271.690366 219.054968 
L 271.690366 19.44 
" clip-path="url(#pe09996aaae)" style="fill: none; stroke: #ffffff; stroke-linecap: round"/>
     </g>
     <g id="text_6">
      <!-- 1925 -->
      <g style="fill: #262626" transform="translate(263.938929 254.260619) rotate(-45) scale(0.11 -0.11)">
       <use xlink:href="#DejaVuSans-31"/>
       <use xlink:href="#DejaVuSans-39" x="63.623047"/>
       <use xlink:href="#DejaVuSans-32" x="127.246094"/>
       <use xlink:href="#DejaVuSans-35" x="190.869141"/>
      </g>
     </g>
    </g>
    <g id="xtick_7">
     <g id="line2d_7">
      <path d="M 316.059065 219.054968 
L 316.059065 19.44 
" clip-path="url(#pe09996aaae)" style="fill: none; stroke: #ffffff; stroke-linecap: round"/>
     </g>
     <g id="text_7">
      <!-- 1930 -->
      <g style="fill: #262626" transform="translate(308.307628 254.260619) rotate(-45) scale(0.11 -0.11)">
       <defs>
        <path id="DejaVuSans-33" d="M 2597 2516 
Q 3050 2419 3304 2112 
Q 3559 1806 3559 1356 
Q 3559 666 3084 287 
Q 2609 -91 1734 -91 
Q 1441 -91 1130 -33 
Q 819 25 488 141 
L 488 750 
Q 750 597 1062 519 
Q 1375 441 1716 441 
Q 2309 441 2620 675 
Q 2931 909 2931 1356 
Q 2931 1769 2642 2001 
Q 2353 2234 1838 2234 
L 1294 2234 
L 1294 2753 
L 1863 2753 
Q 2328 2753 2575 2939 
Q 2822 3125 2822 3475 
Q 2822 3834 2567 4026 
Q 2313 4219 1838 4219 
Q 1578 4219 1281 4162 
Q 984 4106 628 3988 
L 628 4550 
Q 988 4650 1302 4700 
Q 1616 4750 1894 4750 
Q 2613 4750 3031 4423 
Q 3450 4097 3450 3541 
Q 3450 3153 3228 2886 
Q 3006 2619 2597 2516 
z
" transform="scale(0.015625)"/>
       </defs>
       <use xlink:href="#DejaVuSans-31"/>
       <use xlink:href="#DejaVuSans-39" x="63.623047"/>
       <use xlink:href="#DejaVuSans-33" x="127.246094"/>
       <use xlink:href="#DejaVuSans-30" x="190.869141"/>
      </g>
     </g>
    </g>
    <g id="xtick_8">
     <g id="line2d_8">
      <path d="M 360.427764 219.054968 
L 360.427764 19.44 
" clip-path="url(#pe09996aaae)" style="fill: none; stroke: #ffffff; stroke-linecap: round"/>
     </g>
     <g id="text_8">
      <!-- 1935 -->
      <g style="fill: #262626" transform="translate(352.676327 254.260619) rotate(-45) scale(0.11 -0.11)">
       <use xlink:href="#DejaVuSans-31"/>
       <use xlink:href="#DejaVuSans-39" x="63.623047"/>
       <use xlink:href="#DejaVuSans-33" x="127.246094"/>
       <use xlink:href="#DejaVuSans-35" x="190.869141"/>
      </g>
     </g>
    </g>
    <g id="xtick_9">
     <g id="line2d_9">
      <path d="M 404.796463 219.054968 
L 404.796463 19.44 
" clip-path="url(#pe09996aaae)" style="fill: none; stroke: #ffffff; stroke-linecap: round"/>
     </g>
     <g id="text_9">
      <!-- 1940 -->
      <g style="fill: #262626" transform="translate(397.045026 254.260619) rotate(-45) scale(0.11 -0.11)">
       <defs>
        <path id="DejaVuSans-34" d="M 2419 4116 
L 825 1625 
L 2419 1625 
L 2419 4116 
z
M 2253 4666 
L 3047 4666 
L 3047 1625 
L 3713 1625 
L 3713 1100 
L 3047 1100 
L 3047 0 
L 2419 0 
L 2419 1100 
L 313 1100 
L 313 1709 
L 2253 4666 
z
" transform="scale(0.015625)"/>
       </defs>
       <use xlink:href="#DejaVuSans-31"/>
       <use xlink:href="#DejaVuSans-39" x="63.623047"/>
       <use xlink:href="#DejaVuSans-34" x="127.246094"/>
       <use xlink:href="#DejaVuSans-30" x="190.869141"/>
      </g>
     </g>
    </g>
    <g id="xtick_10">
     <g id="line2d_10">
      <path d="M 449.165163 219.054968 
L 449.165163 19.44 
" clip-path="url(#pe09996aaae)" style="fill: none; stroke: #ffffff; stroke-linecap: round"/>
     </g>
     <g id="text_10">
      <!-- 1945 -->
      <g style="fill: #262626" transform="translate(441.413725 254.260619) rotate(-45) scale(0.11 -0.11)">
       <use xlink:href="#DejaVuSans-31"/>
       <use xlink:href="#DejaVuSans-39" x="63.623047"/>
       <use xlink:href="#DejaVuSans-34" x="127.246094"/>
       <use xlink:href="#DejaVuSans-35" x="190.869141"/>
      </g>
     </g>
    </g>
    <g id="xtick_11">
     <g id="line2d_11">
      <path d="M 493.533862 219.054968 
L 493.533862 19.44 
" clip-path="url(#pe09996aaae)" style="fill: none; stroke: #ffffff; stroke-linecap: round"/>
     </g>
     <g id="text_11">
      <!-- 1950 -->
      <g style="fill: #262626" transform="translate(485.782425 254.260619) rotate(-45) scale(0.11 -0.11)">
       <use xlink:href="#DejaVuSans-31"/>
       <use xlink:href="#DejaVuSans-39" x="63.623047"/>
       <use xlink:href="#DejaVuSans-35" x="127.246094"/>
       <use xlink:href="#DejaVuSans-30" x="190.869141"/>
      </g>
     </g>
    </g>
    <g id="xtick_12">
     <g id="line2d_12">
      <path d="M 537.902561 219.054968 
L 537.902561 19.44 
" clip-path="url(#pe09996aaae)" style="fill: none; stroke: #ffffff; stroke-linecap: round"/>
     </g>
     <g id="text_12">
      <!-- 1955 -->
      <g style="fill: #262626" transform="translate(530.151124 254.260619) rotate(-45) scale(0.11 -0.11)">
       <use xlink:href="#DejaVuSans-31"/>
       <use xlink:href="#DejaVuSans-39" x="63.623047"/>
       <use xlink:href="#DejaVuSans-35" x="127.246094"/>
       <use xlink:href="#DejaVuSans-35" x="190.869141"/>
      </g>
     </g>
    </g>
    <g id="xtick_13">
     <g id="line2d_13">
      <path d="M 582.27126 219.054968 
L 582.27126 19.44 
" clip-path="url(#pe09996aaae)" style="fill: none; stroke: #ffffff; stroke-linecap: round"/>
     </g>
     <g id="text_13">
      <!-- 1960 -->
      <g style="fill: #262626" transform="translate(574.519823 254.260619) rotate(-45) scale(0.11 -0.11)">
       <defs>
        <path id="DejaVuSans-36" d="M 2113 2584 
Q 1688 2584 1439 2293 
Q 1191 2003 1191 1497 
Q 1191 994 1439 701 
Q 1688 409 2113 409 
Q 2538 409 2786 701 
Q 3034 994 3034 1497 
Q 3034 2003 2786 2293 
Q 2538 2584 2113 2584 
z
M 3366 4563 
L 3366 3988 
Q 3128 4100 2886 4159 
Q 2644 4219 2406 4219 
Q 1781 4219 1451 3797 
Q 1122 3375 1075 2522 
Q 1259 2794 1537 2939 
Q 1816 3084 2150 3084 
Q 2853 3084 3261 2657 
Q 3669 2231 3669 1497 
Q 3669 778 3244 343 
Q 2819 -91 2113 -91 
Q 1303 -91 875 529 
Q 447 1150 447 2328 
Q 447 3434 972 4092 
Q 1497 4750 2381 4750 
Q 2619 4750 2861 4703 
Q 3103 4656 3366 4563 
z
" transform="scale(0.015625)"/>
       </defs>
       <use xlink:href="#DejaVuSans-31"/>
       <use xlink:href="#DejaVuSans-39" x="63.623047"/>
       <use xlink:href="#DejaVuSans-36" x="127.246094"/>
       <use xlink:href="#DejaVuSans-30" x="190.869141"/>
      </g>
     </g>
    </g>
    <g id="xtick_14">
     <g id="line2d_14">
      <path d="M 626.639959 219.054968 
L 626.639959 19.44 
" clip-path="url(#pe09996aaae)" style="fill: none; stroke: #ffffff; stroke-linecap: round"/>
     </g>
     <g id="text_14">
      <!-- 1965 -->
      <g style="fill: #262626" transform="translate(618.888522 254.260619) rotate(-45) scale(0.11 -0.11)">
       <use xlink:href="#DejaVuSans-31"/>
       <use xlink:href="#DejaVuSans-39" x="63.623047"/>
       <use xlink:href="#DejaVuSans-36" x="127.246094"/>
       <use xlink:href="#DejaVuSans-35" x="190.869141"/>
      </g>
     </g>
    </g>
    <g id="xtick_15">
     <g id="line2d_15">
      <path d="M 671.008659 219.054968 
L 671.008659 19.44 
" clip-path="url(#pe09996aaae)" style="fill: none; stroke: #ffffff; stroke-linecap: round"/>
     </g>
     <g id="text_15">
      <!-- 1970 -->
      <g style="fill: #262626" transform="translate(663.257221 254.260619) rotate(-45) scale(0.11 -0.11)">
       <defs>
        <path id="DejaVuSans-37" d="M 525 4666 
L 3525 4666 
L 3525 4397 
L 1831 0 
L 1172 0 
L 2766 4134 
L 525 4134 
L 525 4666 
z
" transform="scale(0.015625)"/>
       </defs>
       <use xlink:href="#DejaVuSans-31"/>
       <use xlink:href="#DejaVuSans-39" x="63.623047"/>
       <use xlink:href="#DejaVuSans-37" x="127.246094"/>
       <use xlink:href="#DejaVuSans-30" x="190.869141"/>
      </g>
     </g>
    </g>
    <g id="xtick_16">
     <g id="line2d_16">
      <path d="M 715.377358 219.054968 
L 715.377358 19.44 
" clip-path="url(#pe09996aaae)" style="fill: none; stroke: #ffffff; stroke-linecap: round"/>
     </g>
     <g id="text_16">
      <!-- 1975 -->
      <g style="fill: #262626" transform="translate(707.625921 254.260619) rotate(-45) scale(0.11 -0.11)">
       <use xlink:href="#DejaVuSans-31"/>
       <use xlink:href="#DejaVuSans-39" x="63.623047"/>
       <use xlink:href="#DejaVuSans-37" x="127.246094"/>
       <use xlink:href="#DejaVuSans-35" x="190.869141"/>
      </g>
     </g>
    </g>
    <g id="xtick_17">
     <g id="line2d_17">
      <path d="M 759.746057 219.054968 
L 759.746057 19.44 
" clip-path="url(#pe09996aaae)" style="fill: none; stroke: #ffffff; stroke-linecap: round"/>
     </g>
     <g id="text_17">
      <!-- 1980 -->
      <g style="fill: #262626" transform="translate(751.99462 254.260619) rotate(-45) scale(0.11 -0.11)">
       <defs>
        <path id="DejaVuSans-38" d="M 2034 2216 
Q 1584 2216 1326 1975 
Q 1069 1734 1069 1313 
Q 1069 891 1326 650 
Q 1584 409 2034 409 
Q 2484 409 2743 651 
Q 3003 894 3003 1313 
Q 3003 1734 2745 1975 
Q 2488 2216 2034 2216 
z
M 1403 2484 
Q 997 2584 770 2862 
Q 544 3141 544 3541 
Q 544 4100 942 4425 
Q 1341 4750 2034 4750 
Q 2731 4750 3128 4425 
Q 3525 4100 3525 3541 
Q 3525 3141 3298 2862 
Q 3072 2584 2669 2484 
Q 3125 2378 3379 2068 
Q 3634 1759 3634 1313 
Q 3634 634 3220 271 
Q 2806 -91 2034 -91 
Q 1263 -91 848 271 
Q 434 634 434 1313 
Q 434 1759 690 2068 
Q 947 2378 1403 2484 
z
M 1172 3481 
Q 1172 3119 1398 2916 
Q 1625 2713 2034 2713 
Q 2441 2713 2670 2916 
Q 2900 3119 2900 3481 
Q 2900 3844 2670 4047 
Q 2441 4250 2034 4250 
Q 1625 4250 1398 4047 
Q 1172 3844 1172 3481 
z
" transform="scale(0.015625)"/>
       </defs>
       <use xlink:href="#DejaVuSans-31"/>
       <use xlink:href="#DejaVuSans-39" x="63.623047"/>
       <use xlink:href="#DejaVuSans-38" x="127.246094"/>
       <use xlink:href="#DejaVuSans-30" x="190.869141"/>
      </g>
     </g>
    </g>
    <g id="xtick_18">
     <g id="line2d_18">
      <path d="M 804.114756 219.054968 
L 804.114756 19.44 
" clip-path="url(#pe09996aaae)" style="fill: none; stroke: #ffffff; stroke-linecap: round"/>
     </g>
     <g id="text_18">
      <!-- 1985 -->
      <g style="fill: #262626" transform="translate(796.363319 254.260619) rotate(-45) scale(0.11 -0.11)">
       <use xlink:href="#DejaVuSans-31"/>
       <use xlink:href="#DejaVuSans-39" x="63.623047"/>
       <use xlink:href="#DejaVuSans-38" x="127.246094"/>
       <use xlink:href="#DejaVuSans-35" x="190.869141"/>
      </g>
     </g>
    </g>
    <g id="xtick_19">
     <g id="line2d_19">
      <path d="M 848.483455 219.054968 
L 848.483455 19.44 
" clip-path="url(#pe09996aaae)" style="fill: none; stroke: #ffffff; stroke-linecap: round"/>
     </g>
     <g id="text_19">
      <!-- 1990 -->
      <g style="fill: #262626" transform="translate(840.732018 254.260619) rotate(-45) scale(0.11 -0.11)">
       <use xlink:href="#DejaVuSans-31"/>
       <use xlink:href="#DejaVuSans-39" x="63.623047"/>
       <use xlink:href="#DejaVuSans-39" x="127.246094"/>
       <use xlink:href="#DejaVuSans-30" x="190.869141"/>
      </g>
     </g>
    </g>
    <g id="xtick_20">
     <g id="line2d_20">
      <path d="M 892.852154 219.054968 
L 892.852154 19.44 
" clip-path="url(#pe09996aaae)" style="fill: none; stroke: #ffffff; stroke-linecap: round"/>
     </g>
     <g id="text_20">
      <!-- 1995 -->
      <g style="fill: #262626" transform="translate(885.100717 254.260619) rotate(-45) scale(0.11 -0.11)">
       <use xlink:href="#DejaVuSans-31"/>
       <use xlink:href="#DejaVuSans-39" x="63.623047"/>
       <use xlink:href="#DejaVuSans-39" x="127.246094"/>
       <use xlink:href="#DejaVuSans-35" x="190.869141"/>
      </g>
     </g>
    </g>
    <g id="xtick_21">
     <g id="line2d_21">
      <path d="M 937.220854 219.054968 
L 937.220854 19.44 
" clip-path="url(#pe09996aaae)" style="fill: none; stroke: #ffffff; stroke-linecap: round"/>
     </g>
     <g id="text_21">
      <!-- 2000 -->
      <g style="fill: #262626" transform="translate(929.469417 254.260619) rotate(-45) scale(0.11 -0.11)">
       <use xlink:href="#DejaVuSans-32"/>
       <use xlink:href="#DejaVuSans-30" x="63.623047"/>
       <use xlink:href="#DejaVuSans-30" x="127.246094"/>
       <use xlink:href="#DejaVuSans-30" x="190.869141"/>
      </g>
     </g>
    </g>
    <g id="xtick_22">
     <g id="line2d_22">
      <path d="M 981.589553 219.054968 
L 981.589553 19.44 
" clip-path="url(#pe09996aaae)" style="fill: none; stroke: #ffffff; stroke-linecap: round"/>
     </g>
     <g id="text_22">
      <!-- 2005 -->
      <g style="fill: #262626" transform="translate(973.838116 254.260619) rotate(-45) scale(0.11 -0.11)">
       <use xlink:href="#DejaVuSans-32"/>
       <use xlink:href="#DejaVuSans-30" x="63.623047"/>
       <use xlink:href="#DejaVuSans-30" x="127.246094"/>
       <use xlink:href="#DejaVuSans-35" x="190.869141"/>
      </g>
     </g>
    </g>
    <g id="xtick_23">
     <g id="line2d_23">
      <path d="M 1025.958252 219.054968 
L 1025.958252 19.44 
" clip-path="url(#pe09996aaae)" style="fill: none; stroke: #ffffff; stroke-linecap: round"/>
     </g>
     <g id="text_23">
      <!-- 2010 -->
      <g style="fill: #262626" transform="translate(1018.206815 254.260619) rotate(-45) scale(0.11 -0.11)">
       <use xlink:href="#DejaVuSans-32"/>
       <use xlink:href="#DejaVuSans-30" x="63.623047"/>
       <use xlink:href="#DejaVuSans-31" x="127.246094"/>
       <use xlink:href="#DejaVuSans-30" x="190.869141"/>
      </g>
     </g>
    </g>
    <g id="xtick_24">
     <g id="line2d_24">
      <path d="M 1070.326951 219.054968 
L 1070.326951 19.44 
" clip-path="url(#pe09996aaae)" style="fill: none; stroke: #ffffff; stroke-linecap: round"/>
     </g>
     <g id="text_24">
      <!-- 2015 -->
      <g style="fill: #262626" transform="translate(1062.575514 254.260619) rotate(-45) scale(0.11 -0.11)">
       <use xlink:href="#DejaVuSans-32"/>
       <use xlink:href="#DejaVuSans-30" x="63.623047"/>
       <use xlink:href="#DejaVuSans-31" x="127.246094"/>
       <use xlink:href="#DejaVuSans-35" x="190.869141"/>
      </g>
     </g>
    </g>
    <g id="xtick_25">
     <g id="line2d_25">
      <path d="M 1114.69565 219.054968 
L 1114.69565 19.44 
" clip-path="url(#pe09996aaae)" style="fill: none; stroke: #ffffff; stroke-linecap: round"/>
     </g>
     <g id="text_25">
      <!-- 2020 -->
      <g style="fill: #262626" transform="translate(1106.944213 254.260619) rotate(-45) scale(0.11 -0.11)">
       <use xlink:href="#DejaVuSans-32"/>
       <use xlink:href="#DejaVuSans-30" x="63.623047"/>
       <use xlink:href="#DejaVuSans-32" x="127.246094"/>
       <use xlink:href="#DejaVuSans-30" x="190.869141"/>
      </g>
     </g>
    </g>
    <g id="text_26">
     <!-- year -->
     <g style="fill: #262626" transform="translate(577.758437 268.996362) scale(0.12 -0.12)">
      <defs>
       <path id="DejaVuSans-79" d="M 2059 -325 
Q 1816 -950 1584 -1140 
Q 1353 -1331 966 -1331 
L 506 -1331 
L 506 -850 
L 844 -850 
Q 1081 -850 1212 -737 
Q 1344 -625 1503 -206 
L 1606 56 
L 191 3500 
L 800 3500 
L 1894 763 
L 2988 3500 
L 3597 3500 
L 2059 -325 
z
" transform="scale(0.015625)"/>
       <path id="DejaVuSans-65" d="M 3597 1894 
L 3597 1613 
L 953 1613 
Q 991 1019 1311 708 
Q 1631 397 2203 397 
Q 2534 397 2845 478 
Q 3156 559 3463 722 
L 3463 178 
Q 3153 47 2828 -22 
Q 2503 -91 2169 -91 
Q 1331 -91 842 396 
Q 353 884 353 1716 
Q 353 2575 817 3079 
Q 1281 3584 2069 3584 
Q 2775 3584 3186 3129 
Q 3597 2675 3597 1894 
z
M 3022 2063 
Q 3016 2534 2758 2815 
Q 2500 3097 2075 3097 
Q 1594 3097 1305 2825 
Q 1016 2553 972 2059 
L 3022 2063 
z
" transform="scale(0.015625)"/>
       <path id="DejaVuSans-61" d="M 2194 1759 
Q 1497 1759 1228 1600 
Q 959 1441 959 1056 
Q 959 750 1161 570 
Q 1363 391 1709 391 
Q 2188 391 2477 730 
Q 2766 1069 2766 1631 
L 2766 1759 
L 2194 1759 
z
M 3341 1997 
L 3341 0 
L 2766 0 
L 2766 531 
Q 2569 213 2275 61 
Q 1981 -91 1556 -91 
Q 1019 -91 701 211 
Q 384 513 384 1019 
Q 384 1609 779 1909 
Q 1175 2209 1959 2209 
L 2766 2209 
L 2766 2266 
Q 2766 2663 2505 2880 
Q 2244 3097 1772 3097 
Q 1472 3097 1187 3025 
Q 903 2953 641 2809 
L 641 3341 
Q 956 3463 1253 3523 
Q 1550 3584 1831 3584 
Q 2591 3584 2966 3190 
Q 3341 2797 3341 1997 
z
" transform="scale(0.015625)"/>
       <path id="DejaVuSans-72" d="M 2631 2963 
Q 2534 3019 2420 3045 
Q 2306 3072 2169 3072 
Q 1681 3072 1420 2755 
Q 1159 2438 1159 1844 
L 1159 0 
L 581 0 
L 581 3500 
L 1159 3500 
L 1159 2956 
Q 1341 3275 1631 3429 
Q 1922 3584 2338 3584 
Q 2397 3584 2469 3576 
Q 2541 3569 2628 3553 
L 2631 2963 
z
" transform="scale(0.015625)"/>
      </defs>
      <use xlink:href="#DejaVuSans-79"/>
      <use xlink:href="#DejaVuSans-65" x="59.179688"/>
      <use xlink:href="#DejaVuSans-61" x="120.703125"/>
      <use xlink:href="#DejaVuSans-72" x="181.982422"/>
     </g>
    </g>
   </g>
   <g id="matplotlib.axis_2">
    <g id="ytick_1">
     <g id="line2d_26">
      <path d="M 45.41 219.054968 
L 1136.88 219.054968 
" clip-path="url(#pe09996aaae)" style="fill: none; stroke: #ffffff; stroke-linecap: round"/>
     </g>
     <g id="text_27">
      <!-- 0 -->
      <g style="fill: #262626" transform="translate(28.91125 223.234108) scale(0.11 -0.11)">
       <use xlink:href="#DejaVuSans-30"/>
      </g>
     </g>
    </g>
    <g id="ytick_2">
     <g id="line2d_27">
      <path d="M 45.41 179.131974 
L 1136.88 179.131974 
" clip-path="url(#pe09996aaae)" style="fill: none; stroke: #ffffff; stroke-linecap: round"/>
     </g>
     <g id="text_28">
      <!-- 20 -->
      <g style="fill: #262626" transform="translate(21.9125 183.311115) scale(0.11 -0.11)">
       <use xlink:href="#DejaVuSans-32"/>
       <use xlink:href="#DejaVuSans-30" x="63.623047"/>
      </g>
     </g>
    </g>
    <g id="ytick_3">
     <g id="line2d_28">
      <path d="M 45.41 139.208981 
L 1136.88 139.208981 
" clip-path="url(#pe09996aaae)" style="fill: none; stroke: #ffffff; stroke-linecap: round"/>
     </g>
     <g id="text_29">
      <!-- 40 -->
      <g style="fill: #262626" transform="translate(21.9125 143.388121) scale(0.11 -0.11)">
       <use xlink:href="#DejaVuSans-34"/>
       <use xlink:href="#DejaVuSans-30" x="63.623047"/>
      </g>
     </g>
    </g>
    <g id="ytick_4">
     <g id="line2d_29">
      <path d="M 45.41 99.285987 
L 1136.88 99.285987 
" clip-path="url(#pe09996aaae)" style="fill: none; stroke: #ffffff; stroke-linecap: round"/>
     </g>
     <g id="text_30">
      <!-- 60 -->
      <g style="fill: #262626" transform="translate(21.9125 103.465128) scale(0.11 -0.11)">
       <use xlink:href="#DejaVuSans-36"/>
       <use xlink:href="#DejaVuSans-30" x="63.623047"/>
      </g>
     </g>
    </g>
    <g id="ytick_5">
     <g id="line2d_30">
      <path d="M 45.41 59.362994 
L 1136.88 59.362994 
" clip-path="url(#pe09996aaae)" style="fill: none; stroke: #ffffff; stroke-linecap: round"/>
     </g>
     <g id="text_31">
      <!-- 80 -->
      <g style="fill: #262626" transform="translate(21.9125 63.542134) scale(0.11 -0.11)">
       <use xlink:href="#DejaVuSans-38"/>
       <use xlink:href="#DejaVuSans-30" x="63.623047"/>
      </g>
     </g>
    </g>
    <g id="ytick_6">
     <g id="line2d_31">
      <path d="M 45.41 19.44 
L 1136.88 19.44 
" clip-path="url(#pe09996aaae)" style="fill: none; stroke: #ffffff; stroke-linecap: round"/>
     </g>
     <g id="text_32">
      <!-- 100 -->
      <g style="fill: #262626" transform="translate(14.91375 23.619141) scale(0.11 -0.11)">
       <use xlink:href="#DejaVuSans-31"/>
       <use xlink:href="#DejaVuSans-30" x="63.623047"/>
       <use xlink:href="#DejaVuSans-30" x="127.246094"/>
      </g>
     </g>
    </g>
   </g>
   <g id="patch_3">
    <path d="M 47.628435 219.054968 
L 52.065305 219.054968 
L 52.065305 219.054968 
L 47.628435 219.054968 
z
" clip-path="url(#pe09996aaae)" style="fill: #4c72b0; stroke: #ffffff; stroke-linejoin: miter"/>
   </g>
   <g id="patch_4">
    <path d="M 56.502175 219.054968 
L 60.939045 219.054968 
L 60.939045 219.054968 
L 56.502175 219.054968 
z
" clip-path="url(#pe09996aaae)" style="fill: #4c72b0; stroke: #ffffff; stroke-linejoin: miter"/>
   </g>
   <g id="patch_5">
    <path d="M 65.375915 219.054968 
L 69.812785 219.054968 
L 69.812785 219.054968 
L 65.375915 219.054968 
z
" clip-path="url(#pe09996aaae)" style="fill: #4c72b0; stroke: #ffffff; stroke-linejoin: miter"/>
   </g>
   <g id="patch_6">
    <path d="M 74.249654 219.054968 
L 78.686524 219.054968 
L 78.686524 190.538544 
L 74.249654 190.538544 
z
" clip-path="url(#pe09996aaae)" style="fill: #4c72b0; stroke: #ffffff; stroke-linejoin: miter"/>
   </g>
   <g id="patch_7">
    <path d="M 83.123394 219.054968 
L 87.560264 219.054968 
L 87.560264 219.054968 
L 83.123394 219.054968 
z
" clip-path="url(#pe09996aaae)" style="fill: #4c72b0; stroke: #ffffff; stroke-linejoin: miter"/>
   </g>
   <g id="patch_8">
    <path d="M 91.997134 219.054968 
L 96.434004 219.054968 
L 96.434004 179.131974 
L 91.997134 179.131974 
z
" clip-path="url(#pe09996aaae)" style="fill: #4c72b0; stroke: #ffffff; stroke-linejoin: miter"/>
   </g>
   <g id="patch_9">
    <path d="M 100.870874 219.054968 
L 105.307744 219.054968 
L 105.307744 219.054968 
L 100.870874 219.054968 
z
" clip-path="url(#pe09996aaae)" style="fill: #4c72b0; stroke: #ffffff; stroke-linejoin: miter"/>
   </g>
   <g id="patch_10">
    <path d="M 109.744614 219.054968 
L 114.181484 219.054968 
L 114.181484 219.054968 
L 109.744614 219.054968 
z
" clip-path="url(#pe09996aaae)" style="fill: #4c72b0; stroke: #ffffff; stroke-linejoin: miter"/>
   </g>
   <g id="patch_11">
    <path d="M 118.618354 219.054968 
L 123.055224 219.054968 
L 123.055224 219.054968 
L 118.618354 219.054968 
z
" clip-path="url(#pe09996aaae)" style="fill: #4c72b0; stroke: #ffffff; stroke-linejoin: miter"/>
   </g>
   <g id="patch_12">
    <path d="M 127.492093 219.054968 
L 131.928963 219.054968 
L 131.928963 190.538544 
L 127.492093 190.538544 
z
" clip-path="url(#pe09996aaae)" style="fill: #4c72b0; stroke: #ffffff; stroke-linejoin: miter"/>
   </g>
   <g id="patch_13">
    <path d="M 136.365833 219.054968 
L 140.802703 219.054968 
L 140.802703 219.054968 
L 136.365833 219.054968 
z
" clip-path="url(#pe09996aaae)" style="fill: #4c72b0; stroke: #ffffff; stroke-linejoin: miter"/>
   </g>
   <g id="patch_14">
    <path d="M 145.239573 219.054968 
L 149.676443 219.054968 
L 149.676443 185.785806 
L 145.239573 185.785806 
z
" clip-path="url(#pe09996aaae)" style="fill: #4c72b0; stroke: #ffffff; stroke-linejoin: miter"/>
   </g>
   <g id="patch_15">
    <path d="M 154.113313 219.054968 
L 158.550183 219.054968 
L 158.550183 219.054968 
L 154.113313 219.054968 
z
" clip-path="url(#pe09996aaae)" style="fill: #4c72b0; stroke: #ffffff; stroke-linejoin: miter"/>
   </g>
   <g id="patch_16">
    <path d="M 162.987053 219.054968 
L 167.423923 219.054968 
L 167.423923 219.054968 
L 162.987053 219.054968 
z
" clip-path="url(#pe09996aaae)" style="fill: #4c72b0; stroke: #ffffff; stroke-linejoin: miter"/>
   </g>
   <g id="patch_17">
    <path d="M 171.860793 219.054968 
L 176.297663 219.054968 
L 176.297663 219.054968 
L 171.860793 219.054968 
z
" clip-path="url(#pe09996aaae)" style="fill: #4c72b0; stroke: #ffffff; stroke-linejoin: miter"/>
   </g>
   <g id="patch_18">
    <path d="M 180.734533 219.054968 
L 185.171402 219.054968 
L 185.171402 219.054968 
L 180.734533 219.054968 
z
" clip-path="url(#pe09996aaae)" style="fill: #4c72b0; stroke: #ffffff; stroke-linejoin: miter"/>
   </g>
   <g id="patch_19">
    <path d="M 189.608272 219.054968 
L 194.045142 219.054968 
L 194.045142 219.054968 
L 189.608272 219.054968 
z
" clip-path="url(#pe09996aaae)" style="fill: #4c72b0; stroke: #ffffff; stroke-linejoin: miter"/>
   </g>
   <g id="patch_20">
    <path d="M 198.482012 219.054968 
L 202.918882 219.054968 
L 202.918882 219.054968 
L 198.482012 219.054968 
z
" clip-path="url(#pe09996aaae)" style="fill: #4c72b0; stroke: #ffffff; stroke-linejoin: miter"/>
   </g>
   <g id="patch_21">
    <path d="M 207.355752 219.054968 
L 211.792622 219.054968 
L 211.792622 219.054968 
L 207.355752 219.054968 
z
" clip-path="url(#pe09996aaae)" style="fill: #4c72b0; stroke: #ffffff; stroke-linejoin: miter"/>
   </g>
   <g id="patch_22">
    <path d="M 216.229492 219.054968 
L 220.666362 219.054968 
L 220.666362 219.054968 
L 216.229492 219.054968 
z
" clip-path="url(#pe09996aaae)" style="fill: #4c72b0; stroke: #ffffff; stroke-linejoin: miter"/>
   </g>
   <g id="patch_23">
    <path d="M 225.103232 219.054968 
L 229.540102 219.054968 
L 229.540102 219.054968 
L 225.103232 219.054968 
z
" clip-path="url(#pe09996aaae)" style="fill: #4c72b0; stroke: #ffffff; stroke-linejoin: miter"/>
   </g>
   <g id="patch_24">
    <path d="M 233.976972 219.054968 
L 238.413841 219.054968 
L 238.413841 219.054968 
L 233.976972 219.054968 
z
" clip-path="url(#pe09996aaae)" style="fill: #4c72b0; stroke: #ffffff; stroke-linejoin: miter"/>
   </g>
   <g id="patch_25">
    <path d="M 242.850711 219.054968 
L 247.287581 219.054968 
L 247.287581 219.054968 
L 242.850711 219.054968 
z
" clip-path="url(#pe09996aaae)" style="fill: #4c72b0; stroke: #ffffff; stroke-linejoin: miter"/>
   </g>
   <g id="patch_26">
    <path d="M 251.724451 219.054968 
L 256.161321 219.054968 
L 256.161321 219.054968 
L 251.724451 219.054968 
z
" clip-path="url(#pe09996aaae)" style="fill: #4c72b0; stroke: #ffffff; stroke-linejoin: miter"/>
   </g>
   <g id="patch_27">
    <path d="M 260.598191 219.054968 
L 265.035061 219.054968 
L 265.035061 219.054968 
L 260.598191 219.054968 
z
" clip-path="url(#pe09996aaae)" style="fill: #4c72b0; stroke: #ffffff; stroke-linejoin: miter"/>
   </g>
   <g id="patch_28">
    <path d="M 269.471931 219.054968 
L 273.908801 219.054968 
L 273.908801 219.054968 
L 269.471931 219.054968 
z
" clip-path="url(#pe09996aaae)" style="fill: #4c72b0; stroke: #ffffff; stroke-linejoin: miter"/>
   </g>
   <g id="patch_29">
    <path d="M 278.345671 219.054968 
L 282.782541 219.054968 
L 282.782541 185.785806 
L 278.345671 185.785806 
z
" clip-path="url(#pe09996aaae)" style="fill: #4c72b0; stroke: #ffffff; stroke-linejoin: miter"/>
   </g>
   <g id="patch_30">
    <path d="M 287.219411 219.054968 
L 291.65628 219.054968 
L 291.65628 219.054968 
L 287.219411 219.054968 
z
" clip-path="url(#pe09996aaae)" style="fill: #4c72b0; stroke: #ffffff; stroke-linejoin: miter"/>
   </g>
   <g id="patch_31">
    <path d="M 296.09315 219.054968 
L 300.53002 219.054968 
L 300.53002 169.151226 
L 296.09315 169.151226 
z
" clip-path="url(#pe09996aaae)" style="fill: #4c72b0; stroke: #ffffff; stroke-linejoin: miter"/>
   </g>
   <g id="patch_32">
    <path d="M 304.96689 219.054968 
L 309.40376 219.054968 
L 309.40376 219.054968 
L 304.96689 219.054968 
z
" clip-path="url(#pe09996aaae)" style="fill: #4c72b0; stroke: #ffffff; stroke-linejoin: miter"/>
   </g>
   <g id="patch_33">
    <path d="M 313.84063 219.054968 
L 318.2775 219.054968 
L 318.2775 219.054968 
L 313.84063 219.054968 
z
" clip-path="url(#pe09996aaae)" style="fill: #4c72b0; stroke: #ffffff; stroke-linejoin: miter"/>
   </g>
   <g id="patch_34">
    <path d="M 322.71437 219.054968 
L 327.15124 219.054968 
L 327.15124 185.785806 
L 322.71437 185.785806 
z
" clip-path="url(#pe09996aaae)" style="fill: #4c72b0; stroke: #ffffff; stroke-linejoin: miter"/>
   </g>
   <g id="patch_35">
    <path d="M 331.58811 219.054968 
L 336.02498 219.054968 
L 336.02498 219.054968 
L 331.58811 219.054968 
z
" clip-path="url(#pe09996aaae)" style="fill: #4c72b0; stroke: #ffffff; stroke-linejoin: miter"/>
   </g>
   <g id="patch_36">
    <path d="M 340.46185 219.054968 
L 344.89872 219.054968 
L 344.89872 219.054968 
L 340.46185 219.054968 
z
" clip-path="url(#pe09996aaae)" style="fill: #4c72b0; stroke: #ffffff; stroke-linejoin: miter"/>
   </g>
   <g id="patch_37">
    <path d="M 349.335589 219.054968 
L 353.772459 219.054968 
L 353.772459 219.054968 
L 349.335589 219.054968 
z
" clip-path="url(#pe09996aaae)" style="fill: #4c72b0; stroke: #ffffff; stroke-linejoin: miter"/>
   </g>
   <g id="patch_38">
    <path d="M 358.209329 219.054968 
L 362.646199 219.054968 
L 362.646199 179.131974 
L 358.209329 179.131974 
z
" clip-path="url(#pe09996aaae)" style="fill: #4c72b0; stroke: #ffffff; stroke-linejoin: miter"/>
   </g>
   <g id="patch_39">
    <path d="M 367.083069 219.054968 
L 371.519939 219.054968 
L 371.519939 219.054968 
L 367.083069 219.054968 
z
" clip-path="url(#pe09996aaae)" style="fill: #4c72b0; stroke: #ffffff; stroke-linejoin: miter"/>
   </g>
   <g id="patch_40">
    <path d="M 375.956809 219.054968 
L 380.393679 219.054968 
L 380.393679 219.054968 
L 375.956809 219.054968 
z
" clip-path="url(#pe09996aaae)" style="fill: #4c72b0; stroke: #ffffff; stroke-linejoin: miter"/>
   </g>
   <g id="patch_41">
    <path d="M 384.830549 219.054968 
L 389.267419 219.054968 
L 389.267419 169.151226 
L 384.830549 169.151226 
z
" clip-path="url(#pe09996aaae)" style="fill: #4c72b0; stroke: #ffffff; stroke-linejoin: miter"/>
   </g>
   <g id="patch_42">
    <path d="M 393.704289 219.054968 
L 398.141159 219.054968 
L 398.141159 219.054968 
L 393.704289 219.054968 
z
" clip-path="url(#pe09996aaae)" style="fill: #4c72b0; stroke: #ffffff; stroke-linejoin: miter"/>
   </g>
   <g id="patch_43">
    <path d="M 402.578028 219.054968 
L 407.014898 219.054968 
L 407.014898 219.054968 
L 402.578028 219.054968 
z
" clip-path="url(#pe09996aaae)" style="fill: #4c72b0; stroke: #ffffff; stroke-linejoin: miter"/>
   </g>
   <g id="patch_44">
    <path d="M 411.451768 219.054968 
L 415.888638 219.054968 
L 415.888638 219.054968 
L 411.451768 219.054968 
z
" clip-path="url(#pe09996aaae)" style="fill: #4c72b0; stroke: #ffffff; stroke-linejoin: miter"/>
   </g>
   <g id="patch_45">
    <path d="M 420.325508 219.054968 
L 424.762378 219.054968 
L 424.762378 219.054968 
L 420.325508 219.054968 
z
" clip-path="url(#pe09996aaae)" style="fill: #4c72b0; stroke: #ffffff; stroke-linejoin: miter"/>
   </g>
   <g id="patch_46">
    <path d="M 429.199248 219.054968 
L 433.636118 219.054968 
L 433.636118 219.054968 
L 429.199248 219.054968 
z
" clip-path="url(#pe09996aaae)" style="fill: #4c72b0; stroke: #ffffff; stroke-linejoin: miter"/>
   </g>
   <g id="patch_47">
    <path d="M 438.072988 219.054968 
L 442.509858 219.054968 
L 442.509858 219.054968 
L 438.072988 219.054968 
z
" clip-path="url(#pe09996aaae)" style="fill: #4c72b0; stroke: #ffffff; stroke-linejoin: miter"/>
   </g>
   <g id="patch_48">
    <path d="M 446.946728 219.054968 
L 451.383598 219.054968 
L 451.383598 185.785806 
L 446.946728 185.785806 
z
" clip-path="url(#pe09996aaae)" style="fill: #4c72b0; stroke: #ffffff; stroke-linejoin: miter"/>
   </g>
   <g id="patch_49">
    <path d="M 455.820467 219.054968 
L 460.257337 219.054968 
L 460.257337 194.103097 
L 455.820467 194.103097 
z
" clip-path="url(#pe09996aaae)" style="fill: #4c72b0; stroke: #ffffff; stroke-linejoin: miter"/>
   </g>
   <g id="patch_50">
    <path d="M 464.694207 219.054968 
L 469.131077 219.054968 
L 469.131077 185.785806 
L 464.694207 185.785806 
z
" clip-path="url(#pe09996aaae)" style="fill: #4c72b0; stroke: #ffffff; stroke-linejoin: miter"/>
   </g>
   <g id="patch_51">
    <path d="M 473.567947 219.054968 
L 478.004817 219.054968 
L 478.004817 219.054968 
L 473.567947 219.054968 
z
" clip-path="url(#pe09996aaae)" style="fill: #4c72b0; stroke: #ffffff; stroke-linejoin: miter"/>
   </g>
   <g id="patch_52">
    <path d="M 482.441687 219.054968 
L 486.878557 219.054968 
L 486.878557 219.054968 
L 482.441687 219.054968 
z
" clip-path="url(#pe09996aaae)" style="fill: #4c72b0; stroke: #ffffff; stroke-linejoin: miter"/>
   </g>
   <g id="patch_53">
    <path d="M 491.315427 219.054968 
L 495.752297 219.054968 
L 495.752297 219.054968 
L 491.315427 219.054968 
z
" clip-path="url(#pe09996aaae)" style="fill: #4c72b0; stroke: #ffffff; stroke-linejoin: miter"/>
   </g>
   <g id="patch_54">
    <path d="M 500.189167 219.054968 
L 504.626037 219.054968 
L 504.626037 219.054968 
L 500.189167 219.054968 
z
" clip-path="url(#pe09996aaae)" style="fill: #4c72b0; stroke: #ffffff; stroke-linejoin: miter"/>
   </g>
   <g id="patch_55">
    <path d="M 509.062907 219.054968 
L 513.499776 219.054968 
L 513.499776 219.054968 
L 509.062907 219.054968 
z
" clip-path="url(#pe09996aaae)" style="fill: #4c72b0; stroke: #ffffff; stroke-linejoin: miter"/>
   </g>
   <g id="patch_56">
    <path d="M 517.936646 219.054968 
L 522.373516 219.054968 
L 522.373516 219.054968 
L 517.936646 219.054968 
z
" clip-path="url(#pe09996aaae)" style="fill: #4c72b0; stroke: #ffffff; stroke-linejoin: miter"/>
   </g>
   <g id="patch_57">
    <path d="M 526.810386 219.054968 
L 531.247256 219.054968 
L 531.247256 219.054968 
L 526.810386 219.054968 
z
" clip-path="url(#pe09996aaae)" style="fill: #4c72b0; stroke: #ffffff; stroke-linejoin: miter"/>
   </g>
   <g id="patch_58">
    <path d="M 535.684126 219.054968 
L 540.120996 219.054968 
L 540.120996 219.054968 
L 535.684126 219.054968 
z
" clip-path="url(#pe09996aaae)" style="fill: #4c72b0; stroke: #ffffff; stroke-linejoin: miter"/>
   </g>
   <g id="patch_59">
    <path d="M 544.557866 219.054968 
L 548.994736 219.054968 
L 548.994736 219.054968 
L 544.557866 219.054968 
z
" clip-path="url(#pe09996aaae)" style="fill: #4c72b0; stroke: #ffffff; stroke-linejoin: miter"/>
   </g>
   <g id="patch_60">
    <path d="M 553.431606 219.054968 
L 557.868476 219.054968 
L 557.868476 219.054968 
L 553.431606 219.054968 
z
" clip-path="url(#pe09996aaae)" style="fill: #4c72b0; stroke: #ffffff; stroke-linejoin: miter"/>
   </g>
   <g id="patch_61">
    <path d="M 562.305346 219.054968 
L 566.742215 219.054968 
L 566.742215 219.054968 
L 562.305346 219.054968 
z
" clip-path="url(#pe09996aaae)" style="fill: #4c72b0; stroke: #ffffff; stroke-linejoin: miter"/>
   </g>
   <g id="patch_62">
    <path d="M 571.179085 219.054968 
L 575.615955 219.054968 
L 575.615955 219.054968 
L 571.179085 219.054968 
z
" clip-path="url(#pe09996aaae)" style="fill: #4c72b0; stroke: #ffffff; stroke-linejoin: miter"/>
   </g>
   <g id="patch_63">
    <path d="M 580.052825 219.054968 
L 584.489695 219.054968 
L 584.489695 219.054968 
L 580.052825 219.054968 
z
" clip-path="url(#pe09996aaae)" style="fill: #4c72b0; stroke: #ffffff; stroke-linejoin: miter"/>
   </g>
   <g id="patch_64">
    <path d="M 588.926565 219.054968 
L 593.363435 219.054968 
L 593.363435 219.054968 
L 588.926565 219.054968 
z
" clip-path="url(#pe09996aaae)" style="fill: #4c72b0; stroke: #ffffff; stroke-linejoin: miter"/>
   </g>
   <g id="patch_65">
    <path d="M 597.800305 219.054968 
L 602.237175 219.054968 
L 602.237175 219.054968 
L 597.800305 219.054968 
z
" clip-path="url(#pe09996aaae)" style="fill: #4c72b0; stroke: #ffffff; stroke-linejoin: miter"/>
   </g>
   <g id="patch_66">
    <path d="M 606.674045 219.054968 
L 611.110915 219.054968 
L 611.110915 196.875527 
L 606.674045 196.875527 
z
" clip-path="url(#pe09996aaae)" style="fill: #4c72b0; stroke: #ffffff; stroke-linejoin: miter"/>
   </g>
   <g id="patch_67">
    <path d="M 615.547785 219.054968 
L 619.984654 219.054968 
L 619.984654 196.875527 
L 615.547785 196.875527 
z
" clip-path="url(#pe09996aaae)" style="fill: #4c72b0; stroke: #ffffff; stroke-linejoin: miter"/>
   </g>
   <g id="patch_68">
    <path d="M 624.421524 219.054968 
L 628.858394 219.054968 
L 628.858394 219.054968 
L 624.421524 219.054968 
z
" clip-path="url(#pe09996aaae)" style="fill: #4c72b0; stroke: #ffffff; stroke-linejoin: miter"/>
   </g>
   <g id="patch_69">
    <path d="M 633.295264 219.054968 
L 637.732134 219.054968 
L 637.732134 185.785806 
L 633.295264 185.785806 
z
" clip-path="url(#pe09996aaae)" style="fill: #4c72b0; stroke: #ffffff; stroke-linejoin: miter"/>
   </g>
   <g id="patch_70">
    <path d="M 642.169004 219.054968 
L 646.605874 219.054968 
L 646.605874 219.054968 
L 642.169004 219.054968 
z
" clip-path="url(#pe09996aaae)" style="fill: #4c72b0; stroke: #ffffff; stroke-linejoin: miter"/>
   </g>
   <g id="patch_71">
    <path d="M 651.042744 219.054968 
L 655.479614 219.054968 
L 655.479614 219.054968 
L 651.042744 219.054968 
z
" clip-path="url(#pe09996aaae)" style="fill: #4c72b0; stroke: #ffffff; stroke-linejoin: miter"/>
   </g>
   <g id="patch_72">
    <path d="M 659.916484 219.054968 
L 664.353354 219.054968 
L 664.353354 219.054968 
L 659.916484 219.054968 
z
" clip-path="url(#pe09996aaae)" style="fill: #4c72b0; stroke: #ffffff; stroke-linejoin: miter"/>
   </g>
   <g id="patch_73">
    <path d="M 668.790224 219.054968 
L 673.227093 219.054968 
L 673.227093 219.054968 
L 668.790224 219.054968 
z
" clip-path="url(#pe09996aaae)" style="fill: #4c72b0; stroke: #ffffff; stroke-linejoin: miter"/>
   </g>
   <g id="patch_74">
    <path d="M 677.663963 219.054968 
L 682.100833 219.054968 
L 682.100833 219.054968 
L 677.663963 219.054968 
z
" clip-path="url(#pe09996aaae)" style="fill: #4c72b0; stroke: #ffffff; stroke-linejoin: miter"/>
   </g>
   <g id="patch_75">
    <path d="M 686.537703 219.054968 
L 690.974573 219.054968 
L 690.974573 219.054968 
L 686.537703 219.054968 
z
" clip-path="url(#pe09996aaae)" style="fill: #4c72b0; stroke: #ffffff; stroke-linejoin: miter"/>
   </g>
   <g id="patch_76">
    <path d="M 695.411443 219.054968 
L 699.848313 219.054968 
L 699.848313 219.054968 
L 695.411443 219.054968 
z
" clip-path="url(#pe09996aaae)" style="fill: #4c72b0; stroke: #ffffff; stroke-linejoin: miter"/>
   </g>
   <g id="patch_77">
    <path d="M 704.285183 219.054968 
L 708.722053 219.054968 
L 708.722053 219.054968 
L 704.285183 219.054968 
z
" clip-path="url(#pe09996aaae)" style="fill: #4c72b0; stroke: #ffffff; stroke-linejoin: miter"/>
   </g>
   <g id="patch_78">
    <path d="M 713.158923 219.054968 
L 717.595793 219.054968 
L 717.595793 219.054968 
L 713.158923 219.054968 
z
" clip-path="url(#pe09996aaae)" style="fill: #4c72b0; stroke: #ffffff; stroke-linejoin: miter"/>
   </g>
   <g id="patch_79">
    <path d="M 722.032663 219.054968 
L 726.469533 219.054968 
L 726.469533 174.696086 
L 722.032663 174.696086 
z
" clip-path="url(#pe09996aaae)" style="fill: #4c72b0; stroke: #ffffff; stroke-linejoin: miter"/>
   </g>
   <g id="patch_80">
    <path d="M 730.906402 219.054968 
L 735.343272 219.054968 
L 735.343272 199.093471 
L 730.906402 199.093471 
z
" clip-path="url(#pe09996aaae)" style="fill: #4c72b0; stroke: #ffffff; stroke-linejoin: miter"/>
   </g>
   <g id="patch_81">
    <path d="M 739.780142 219.054968 
L 744.217012 219.054968 
L 744.217012 219.054968 
L 739.780142 219.054968 
z
" clip-path="url(#pe09996aaae)" style="fill: #4c72b0; stroke: #ffffff; stroke-linejoin: miter"/>
   </g>
   <g id="patch_82">
    <path d="M 748.653882 219.054968 
L 753.090752 219.054968 
L 753.090752 200.908152 
L 748.653882 200.908152 
z
" clip-path="url(#pe09996aaae)" style="fill: #4c72b0; stroke: #ffffff; stroke-linejoin: miter"/>
   </g>
   <g id="patch_83">
    <path d="M 757.527622 219.054968 
L 761.964492 219.054968 
L 761.964492 219.054968 
L 757.527622 219.054968 
z
" clip-path="url(#pe09996aaae)" style="fill: #4c72b0; stroke: #ffffff; stroke-linejoin: miter"/>
   </g>
   <g id="patch_84">
    <path d="M 766.401362 219.054968 
L 770.838232 219.054968 
L 770.838232 219.054968 
L 766.401362 219.054968 
z
" clip-path="url(#pe09996aaae)" style="fill: #4c72b0; stroke: #ffffff; stroke-linejoin: miter"/>
   </g>
   <g id="patch_85">
    <path d="M 775.275102 219.054968 
L 779.711972 219.054968 
L 779.711972 196.875527 
L 775.275102 196.875527 
z
" clip-path="url(#pe09996aaae)" style="fill: #4c72b0; stroke: #ffffff; stroke-linejoin: miter"/>
   </g>
   <g id="patch_86">
    <path d="M 784.148841 219.054968 
L 788.585711 219.054968 
L 788.585711 190.538544 
L 784.148841 190.538544 
z
" clip-path="url(#pe09996aaae)" style="fill: #4c72b0; stroke: #ffffff; stroke-linejoin: miter"/>
   </g>
   <g id="patch_87">
    <path d="M 793.022581 219.054968 
L 797.459451 219.054968 
L 797.459451 219.054968 
L 793.022581 219.054968 
z
" clip-path="url(#pe09996aaae)" style="fill: #4c72b0; stroke: #ffffff; stroke-linejoin: miter"/>
   </g>
   <g id="patch_88">
    <path d="M 801.896321 219.054968 
L 806.333191 219.054968 
L 806.333191 219.054968 
L 801.896321 219.054968 
z
" clip-path="url(#pe09996aaae)" style="fill: #4c72b0; stroke: #ffffff; stroke-linejoin: miter"/>
   </g>
   <g id="patch_89">
    <path d="M 810.770061 219.054968 
L 815.206931 219.054968 
L 815.206931 200.908152 
L 810.770061 200.908152 
z
" clip-path="url(#pe09996aaae)" style="fill: #4c72b0; stroke: #ffffff; stroke-linejoin: miter"/>
   </g>
   <g id="patch_90">
    <path d="M 819.643801 219.054968 
L 824.080671 219.054968 
L 824.080671 219.054968 
L 819.643801 219.054968 
z
" clip-path="url(#pe09996aaae)" style="fill: #4c72b0; stroke: #ffffff; stroke-linejoin: miter"/>
   </g>
   <g id="patch_91">
    <path d="M 828.517541 219.054968 
L 832.954411 219.054968 
L 832.954411 200.908152 
L 828.517541 200.908152 
z
" clip-path="url(#pe09996aaae)" style="fill: #4c72b0; stroke: #ffffff; stroke-linejoin: miter"/>
   </g>
   <g id="patch_92">
    <path d="M 837.39128 219.054968 
L 841.82815 219.054968 
L 841.82815 219.054968 
L 837.39128 219.054968 
z
" clip-path="url(#pe09996aaae)" style="fill: #4c72b0; stroke: #ffffff; stroke-linejoin: miter"/>
   </g>
   <g id="patch_93">
    <path d="M 846.26502 219.054968 
L 850.70189 219.054968 
L 850.70189 219.054968 
L 846.26502 219.054968 
z
" clip-path="url(#pe09996aaae)" style="fill: #4c72b0; stroke: #ffffff; stroke-linejoin: miter"/>
   </g>
   <g id="patch_94">
    <path d="M 855.13876 219.054968 
L 859.57563 219.054968 
L 859.57563 162.02212 
L 855.13876 162.02212 
z
" clip-path="url(#pe09996aaae)" style="fill: #4c72b0; stroke: #ffffff; stroke-linejoin: miter"/>
   </g>
   <g id="patch_95">
    <path d="M 864.0125 219.054968 
L 868.44937 219.054968 
L 868.44937 190.538544 
L 864.0125 190.538544 
z
" clip-path="url(#pe09996aaae)" style="fill: #4c72b0; stroke: #ffffff; stroke-linejoin: miter"/>
   </g>
   <g id="patch_96">
    <path d="M 872.88624 219.054968 
L 877.32311 219.054968 
L 877.32311 200.908152 
L 872.88624 200.908152 
z
" clip-path="url(#pe09996aaae)" style="fill: #4c72b0; stroke: #ffffff; stroke-linejoin: miter"/>
   </g>
   <g id="patch_97">
    <path d="M 881.75998 219.054968 
L 886.19685 219.054968 
L 886.19685 219.054968 
L 881.75998 219.054968 
z
" clip-path="url(#pe09996aaae)" style="fill: #4c72b0; stroke: #ffffff; stroke-linejoin: miter"/>
   </g>
   <g id="patch_98">
    <path d="M 890.63372 219.054968 
L 895.070589 219.054968 
L 895.070589 200.908152 
L 890.63372 200.908152 
z
" clip-path="url(#pe09996aaae)" style="fill: #4c72b0; stroke: #ffffff; stroke-linejoin: miter"/>
   </g>
   <g id="patch_99">
    <path d="M 899.507459 219.054968 
L 903.944329 219.054968 
L 903.944329 204.796756 
L 899.507459 204.796756 
z
" clip-path="url(#pe09996aaae)" style="fill: #4c72b0; stroke: #ffffff; stroke-linejoin: miter"/>
   </g>
   <g id="patch_100">
    <path d="M 908.381199 219.054968 
L 912.818069 219.054968 
L 912.818069 200.908152 
L 908.381199 200.908152 
z
" clip-path="url(#pe09996aaae)" style="fill: #4c72b0; stroke: #ffffff; stroke-linejoin: miter"/>
   </g>
   <g id="patch_101">
    <path d="M 917.254939 219.054968 
L 921.691809 219.054968 
L 921.691809 219.054968 
L 917.254939 219.054968 
z
" clip-path="url(#pe09996aaae)" style="fill: #4c72b0; stroke: #ffffff; stroke-linejoin: miter"/>
   </g>
   <g id="patch_102">
    <path d="M 926.128679 219.054968 
L 930.565549 219.054968 
L 930.565549 219.054968 
L 926.128679 219.054968 
z
" clip-path="url(#pe09996aaae)" style="fill: #4c72b0; stroke: #ffffff; stroke-linejoin: miter"/>
   </g>
   <g id="patch_103">
    <path d="M 935.002419 219.054968 
L 939.439289 219.054968 
L 939.439289 219.054968 
L 935.002419 219.054968 
z
" clip-path="url(#pe09996aaae)" style="fill: #4c72b0; stroke: #ffffff; stroke-linejoin: miter"/>
   </g>
   <g id="patch_104">
    <path d="M 943.876159 219.054968 
L 948.313028 219.054968 
L 948.313028 219.054968 
L 943.876159 219.054968 
z
" clip-path="url(#pe09996aaae)" style="fill: #4c72b0; stroke: #ffffff; stroke-linejoin: miter"/>
   </g>
   <g id="patch_105">
    <path d="M 952.749898 219.054968 
L 957.186768 219.054968 
L 957.186768 219.054968 
L 952.749898 219.054968 
z
" clip-path="url(#pe09996aaae)" style="fill: #4c72b0; stroke: #ffffff; stroke-linejoin: miter"/>
   </g>
   <g id="patch_106">
    <path d="M 961.623638 219.054968 
L 966.060508 219.054968 
L 966.060508 200.908152 
L 961.623638 200.908152 
z
" clip-path="url(#pe09996aaae)" style="fill: #4c72b0; stroke: #ffffff; stroke-linejoin: miter"/>
   </g>
   <g id="patch_107">
    <path d="M 970.497378 219.054968 
L 974.934248 219.054968 
L 974.934248 169.151226 
L 970.497378 169.151226 
z
" clip-path="url(#pe09996aaae)" style="fill: #4c72b0; stroke: #ffffff; stroke-linejoin: miter"/>
   </g>
   <g id="patch_108">
    <path d="M 979.371118 219.054968 
L 983.807988 219.054968 
L 983.807988 219.054968 
L 979.371118 219.054968 
z
" clip-path="url(#pe09996aaae)" style="fill: #4c72b0; stroke: #ffffff; stroke-linejoin: miter"/>
   </g>
   <g id="patch_109">
    <path d="M 988.244858 219.054968 
L 992.681728 219.054968 
L 992.681728 219.054968 
L 988.244858 219.054968 
z
" clip-path="url(#pe09996aaae)" style="fill: #4c72b0; stroke: #ffffff; stroke-linejoin: miter"/>
   </g>
   <g id="patch_110">
    <path d="M 997.118598 219.054968 
L 1001.555467 219.054968 
L 1001.555467 200.908152 
L 997.118598 200.908152 
z
" clip-path="url(#pe09996aaae)" style="fill: #4c72b0; stroke: #ffffff; stroke-linejoin: miter"/>
   </g>
   <g id="patch_111">
    <path d="M 1005.992337 219.054968 
L 1010.429207 219.054968 
L 1010.429207 202.420387 
L 1005.992337 202.420387 
z
" clip-path="url(#pe09996aaae)" style="fill: #4c72b0; stroke: #ffffff; stroke-linejoin: miter"/>
   </g>
   <g id="patch_112">
    <path d="M 1014.866077 219.054968 
L 1019.302947 219.054968 
L 1019.302947 142.27998 
L 1014.866077 142.27998 
z
" clip-path="url(#pe09996aaae)" style="fill: #4c72b0; stroke: #ffffff; stroke-linejoin: miter"/>
   </g>
   <g id="patch_113">
    <path d="M 1023.739817 219.054968 
L 1028.176687 219.054968 
L 1028.176687 219.054968 
L 1023.739817 219.054968 
z
" clip-path="url(#pe09996aaae)" style="fill: #4c72b0; stroke: #ffffff; stroke-linejoin: miter"/>
   </g>
   <g id="patch_114">
    <path d="M 1032.613557 219.054968 
L 1037.050427 219.054968 
L 1037.050427 176.280332 
L 1032.613557 176.280332 
z
" clip-path="url(#pe09996aaae)" style="fill: #4c72b0; stroke: #ffffff; stroke-linejoin: miter"/>
   </g>
   <g id="patch_115">
    <path d="M 1041.487297 219.054968 
L 1045.924167 219.054968 
L 1045.924167 219.054968 
L 1041.487297 219.054968 
z
" clip-path="url(#pe09996aaae)" style="fill: #4c72b0; stroke: #ffffff; stroke-linejoin: miter"/>
   </g>
   <g id="patch_116">
    <path d="M 1050.361037 219.054968 
L 1054.797907 219.054968 
L 1054.797907 202.420387 
L 1050.361037 202.420387 
z
" clip-path="url(#pe09996aaae)" style="fill: #4c72b0; stroke: #ffffff; stroke-linejoin: miter"/>
   </g>
   <g id="patch_117">
    <path d="M 1059.234776 219.054968 
L 1063.671646 219.054968 
L 1063.671646 188.344973 
L 1059.234776 188.344973 
z
" clip-path="url(#pe09996aaae)" style="fill: #4c72b0; stroke: #ffffff; stroke-linejoin: miter"/>
   </g>
   <g id="patch_118">
    <path d="M 1068.108516 219.054968 
L 1072.545386 219.054968 
L 1072.545386 179.131974 
L 1068.108516 179.131974 
z
" clip-path="url(#pe09996aaae)" style="fill: #4c72b0; stroke: #ffffff; stroke-linejoin: miter"/>
   </g>
   <g id="patch_119">
    <path d="M 1076.982256 219.054968 
L 1081.419126 219.054968 
L 1081.419126 219.054968 
L 1076.982256 219.054968 
z
" clip-path="url(#pe09996aaae)" style="fill: #4c72b0; stroke: #ffffff; stroke-linejoin: miter"/>
   </g>
   <g id="patch_120">
    <path d="M 1085.855996 219.054968 
L 1090.292866 219.054968 
L 1090.292866 219.054968 
L 1085.855996 219.054968 
z
" clip-path="url(#pe09996aaae)" style="fill: #4c72b0; stroke: #ffffff; stroke-linejoin: miter"/>
   </g>
   <g id="patch_121">
    <path d="M 1094.729736 219.054968 
L 1099.166606 219.054968 
L 1099.166606 157.634978 
L 1094.729736 157.634978 
z
" clip-path="url(#pe09996aaae)" style="fill: #4c72b0; stroke: #ffffff; stroke-linejoin: miter"/>
   </g>
   <g id="patch_122">
    <path d="M 1103.603476 219.054968 
L 1108.040346 219.054968 
L 1108.040346 204.796756 
L 1103.603476 204.796756 
z
" clip-path="url(#pe09996aaae)" style="fill: #4c72b0; stroke: #ffffff; stroke-linejoin: miter"/>
   </g>
   <g id="patch_123">
    <path d="M 1112.477215 219.054968 
L 1116.914085 219.054968 
L 1116.914085 146.467707 
L 1112.477215 146.467707 
z
" clip-path="url(#pe09996aaae)" style="fill: #4c72b0; stroke: #ffffff; stroke-linejoin: miter"/>
   </g>
   <g id="patch_124">
    <path d="M 1121.350955 219.054968 
L 1125.787825 219.054968 
L 1125.787825 203.69997 
L 1121.350955 203.69997 
z
" clip-path="url(#pe09996aaae)" style="fill: #4c72b0; stroke: #ffffff; stroke-linejoin: miter"/>
   </g>
   <g id="patch_125">
    <path d="M 1130.224695 219.054968 
L 1134.661565 219.054968 
L 1134.661565 185.785806 
L 1130.224695 185.785806 
z
" clip-path="url(#pe09996aaae)" style="fill: #4c72b0; stroke: #ffffff; stroke-linejoin: miter"/>
   </g>
   <g id="patch_126">
    <path d="M 45.41 219.054968 
L 45.41 19.44 
" style="fill: none; stroke: #ffffff; stroke-width: 1.25; stroke-linejoin: miter; stroke-linecap: square"/>
   </g>
   <g id="patch_127">
    <path d="M 1136.88 219.054968 
L 1136.88 19.44 
" style="fill: none; stroke: #ffffff; stroke-width: 1.25; stroke-linejoin: miter; stroke-linecap: square"/>
   </g>
   <g id="patch_128">
    <path d="M 45.41 219.054968 
L 1136.88 219.054968 
" style="fill: none; stroke: #ffffff; stroke-width: 1.25; stroke-linejoin: miter; stroke-linecap: square"/>
   </g>
   <g id="patch_129">
    <path d="M 45.41 19.44 
L 1136.88 19.44 
" style="fill: none; stroke: #ffffff; stroke-width: 1.25; stroke-linejoin: miter; stroke-linecap: square"/>
   </g>
  </g>
 </g>
 <defs>
  <clipPath id="pe09996aaae">
   <rect x="45.41" y="19.44" width="1091.47" height="199.614968"/>
  </clipPath>
 </defs>
</svg>
