<?xml version="1.0" encoding="utf-8" standalone="no"?>
<!DOCTYPE svg PUBLIC "-//W3C//DTD SVG 1.1//EN"
  "http://www.w3.org/Graphics/SVG/1.1/DTD/svg11.dtd">
<svg xmlns:xlink="http://www.w3.org/1999/xlink" width="576pt" height="288pt" viewBox="0 0 576 288" xmlns="http://www.w3.org/2000/svg" version="1.1">
 <metadata>
  <rdf:RDF xmlns:dc="http://purl.org/dc/elements/1.1/" xmlns:cc="http://creativecommons.org/ns#" xmlns:rdf="http://www.w3.org/1999/02/22-rdf-syntax-ns#">
   <cc:Work>
    <dc:type rdf:resource="http://purl.org/dc/dcmitype/StillImage"/>
    <dc:date>2023-12-02T16:06:04.518427</dc:date>
    <dc:format>image/svg+xml</dc:format>
    <dc:creator>
     <cc:Agent>
      <dc:title>Matplotlib v3.8.2, https://matplotlib.org/</dc:title>
     </cc:Agent>
    </dc:creator>
   </cc:Work>
  </rdf:RDF>
 </metadata>
 <defs>
  <style type="text/css">*{stroke-linejoin: round; stroke-linecap: butt}</style>
 </defs>
 <g id="figure_1">
  <g id="patch_1">
   <path d="M 0 288 
L 576 288 
L 576 0 
L 0 0 
z
" style="fill: #ffffff"/>
  </g>
  <g id="axes_1">
   <g id="patch_2">
    <path d="M 82.35 221.22 
L 556.56 221.22 
L 556.56 19.44 
L 82.35 19.44 
z
" style="fill: #eaeaf2"/>
   </g>
   <g id="matplotlib.axis_1">
    <g id="xtick_1">
     <g id="text_1">
      <!-- male -->
      <g style="fill: #262626" transform="translate(180.4425 243.257422) scale(0.165 -0.165)">
       <defs>
        <path id="DejaVuSans-6d" d="M 3328 2828 
Q 3544 3216 3844 3400 
Q 4144 3584 4550 3584 
Q 5097 3584 5394 3201 
Q 5691 2819 5691 2113 
L 5691 0 
L 5113 0 
L 5113 2094 
Q 5113 2597 4934 2840 
Q 4756 3084 4391 3084 
Q 3944 3084 3684 2787 
Q 3425 2491 3425 1978 
L 3425 0 
L 2847 0 
L 2847 2094 
Q 2847 2600 2669 2842 
Q 2491 3084 2119 3084 
Q 1678 3084 1418 2786 
Q 1159 2488 1159 1978 
L 1159 0 
L 581 0 
L 581 3500 
L 1159 3500 
L 1159 2956 
Q 1356 3278 1631 3431 
Q 1906 3584 2284 3584 
Q 2666 3584 2933 3390 
Q 3200 3197 3328 2828 
z
" transform="scale(0.015625)"/>
        <path id="DejaVuSans-61" d="M 2194 1759 
Q 1497 1759 1228 1600 
Q 959 1441 959 1056 
Q 959 750 1161 570 
Q 1363 391 1709 391 
Q 2188 391 2477 730 
Q 2766 1069 2766 1631 
L 2766 1759 
L 2194 1759 
z
M 3341 1997 
L 3341 0 
L 2766 0 
L 2766 531 
Q 2569 213 2275 61 
Q 1981 -91 1556 -91 
Q 1019 -91 701 211 
Q 384 513 384 1019 
Q 384 1609 779 1909 
Q 1175 2209 1959 2209 
L 2766 2209 
L 2766 2266 
Q 2766 2663 2505 2880 
Q 2244 3097 1772 3097 
Q 1472 3097 1187 3025 
Q 903 2953 641 2809 
L 641 3341 
Q 956 3463 1253 3523 
Q 1550 3584 1831 3584 
Q 2591 3584 2966 3190 
Q 3341 2797 3341 1997 
z
" transform="scale(0.015625)"/>
        <path id="DejaVuSans-6c" d="M 603 4863 
L 1178 4863 
L 1178 0 
L 603 0 
L 603 4863 
z
" transform="scale(0.015625)"/>
        <path id="DejaVuSans-65" d="M 3597 1894 
L 3597 1613 
L 953 1613 
Q 991 1019 1311 708 
Q 1631 397 2203 397 
Q 2534 397 2845 478 
Q 3156 559 3463 722 
L 3463 178 
Q 3153 47 2828 -22 
Q 2503 -91 2169 -91 
Q 1331 -91 842 396 
Q 353 884 353 1716 
Q 353 2575 817 3079 
Q 1281 3584 2069 3584 
Q 2775 3584 3186 3129 
Q 3597 2675 3597 1894 
z
M 3022 2063 
Q 3016 2534 2758 2815 
Q 2500 3097 2075 3097 
Q 1594 3097 1305 2825 
Q 1016 2553 972 2059 
L 3022 2063 
z
" transform="scale(0.015625)"/>
       </defs>
       <use xlink:href="#DejaVuSans-6d"/>
       <use xlink:href="#DejaVuSans-61" x="97.412109"/>
       <use xlink:href="#DejaVuSans-6c" x="158.691406"/>
       <use xlink:href="#DejaVuSans-65" x="186.474609"/>
      </g>
     </g>
    </g>
    <g id="xtick_2">
     <g id="text_2">
      <!-- female -->
      <g style="fill: #262626" transform="translate(409.566914 243.257422) scale(0.165 -0.165)">
       <defs>
        <path id="DejaVuSans-66" d="M 2375 4863 
L 2375 4384 
L 1825 4384 
Q 1516 4384 1395 4259 
Q 1275 4134 1275 3809 
L 1275 3500 
L 2222 3500 
L 2222 3053 
L 1275 3053 
L 1275 0 
L 697 0 
L 697 3053 
L 147 3053 
L 147 3500 
L 697 3500 
L 697 3744 
Q 697 4328 969 4595 
Q 1241 4863 1831 4863 
L 2375 4863 
z
" transform="scale(0.015625)"/>
       </defs>
       <use xlink:href="#DejaVuSans-66"/>
       <use xlink:href="#DejaVuSans-65" x="35.205078"/>
       <use xlink:href="#DejaVuSans-6d" x="96.728516"/>
       <use xlink:href="#DejaVuSans-61" x="194.140625"/>
       <use xlink:href="#DejaVuSans-6c" x="255.419922"/>
       <use xlink:href="#DejaVuSans-65" x="283.203125"/>
      </g>
     </g>
    </g>
    <g id="text_3">
     <!-- gender -->
     <g style="fill: #262626" transform="translate(287.548594 264.366094) scale(0.18 -0.18)">
      <defs>
       <path id="DejaVuSans-67" d="M 2906 1791 
Q 2906 2416 2648 2759 
Q 2391 3103 1925 3103 
Q 1463 3103 1205 2759 
Q 947 2416 947 1791 
Q 947 1169 1205 825 
Q 1463 481 1925 481 
Q 2391 481 2648 825 
Q 2906 1169 2906 1791 
z
M 3481 434 
Q 3481 -459 3084 -895 
Q 2688 -1331 1869 -1331 
Q 1566 -1331 1297 -1286 
Q 1028 -1241 775 -1147 
L 775 -588 
Q 1028 -725 1275 -790 
Q 1522 -856 1778 -856 
Q 2344 -856 2625 -561 
Q 2906 -266 2906 331 
L 2906 616 
Q 2728 306 2450 153 
Q 2172 0 1784 0 
Q 1141 0 747 490 
Q 353 981 353 1791 
Q 353 2603 747 3093 
Q 1141 3584 1784 3584 
Q 2172 3584 2450 3431 
Q 2728 3278 2906 2969 
L 2906 3500 
L 3481 3500 
L 3481 434 
z
" transform="scale(0.015625)"/>
       <path id="DejaVuSans-6e" d="M 3513 2113 
L 3513 0 
L 2938 0 
L 2938 2094 
Q 2938 2591 2744 2837 
Q 2550 3084 2163 3084 
Q 1697 3084 1428 2787 
Q 1159 2491 1159 1978 
L 1159 0 
L 581 0 
L 581 3500 
L 1159 3500 
L 1159 2956 
Q 1366 3272 1645 3428 
Q 1925 3584 2291 3584 
Q 2894 3584 3203 3211 
Q 3513 2838 3513 2113 
z
" transform="scale(0.015625)"/>
       <path id="DejaVuSans-64" d="M 2906 2969 
L 2906 4863 
L 3481 4863 
L 3481 0 
L 2906 0 
L 2906 525 
Q 2725 213 2448 61 
Q 2172 -91 1784 -91 
Q 1150 -91 751 415 
Q 353 922 353 1747 
Q 353 2572 751 3078 
Q 1150 3584 1784 3584 
Q 2172 3584 2448 3432 
Q 2725 3281 2906 2969 
z
M 947 1747 
Q 947 1113 1208 752 
Q 1469 391 1925 391 
Q 2381 391 2643 752 
Q 2906 1113 2906 1747 
Q 2906 2381 2643 2742 
Q 2381 3103 1925 3103 
Q 1469 3103 1208 2742 
Q 947 2381 947 1747 
z
" transform="scale(0.015625)"/>
       <path id="DejaVuSans-72" d="M 2631 2963 
Q 2534 3019 2420 3045 
Q 2306 3072 2169 3072 
Q 1681 3072 1420 2755 
Q 1159 2438 1159 1844 
L 1159 0 
L 581 0 
L 581 3500 
L 1159 3500 
L 1159 2956 
Q 1341 3275 1631 3429 
Q 1922 3584 2338 3584 
Q 2397 3584 2469 3576 
Q 2541 3569 2628 3553 
L 2631 2963 
z
" transform="scale(0.015625)"/>
      </defs>
      <use xlink:href="#DejaVuSans-67"/>
      <use xlink:href="#DejaVuSans-65" x="63.476562"/>
      <use xlink:href="#DejaVuSans-6e" x="125"/>
      <use xlink:href="#DejaVuSans-64" x="188.378906"/>
      <use xlink:href="#DejaVuSans-65" x="251.855469"/>
      <use xlink:href="#DejaVuSans-72" x="313.378906"/>
     </g>
    </g>
   </g>
   <g id="matplotlib.axis_2">
    <g id="ytick_1">
     <g id="line2d_1">
      <path d="M 82.35 218.637977 
L 556.56 218.637977 
" clip-path="url(#pa0318c5006)" style="fill: none; stroke: #ffffff; stroke-linecap: round"/>
     </g>
     <g id="text_4">
      <!-- 0 -->
      <g style="fill: #262626" transform="translate(62.351875 224.906688) scale(0.165 -0.165)">
       <defs>
        <path id="DejaVuSans-30" d="M 2034 4250 
Q 1547 4250 1301 3770 
Q 1056 3291 1056 2328 
Q 1056 1369 1301 889 
Q 1547 409 2034 409 
Q 2525 409 2770 889 
Q 3016 1369 3016 2328 
Q 3016 3291 2770 3770 
Q 2525 4250 2034 4250 
z
M 2034 4750 
Q 2819 4750 3233 4129 
Q 3647 3509 3647 2328 
Q 3647 1150 3233 529 
Q 2819 -91 2034 -91 
Q 1250 -91 836 529 
Q 422 1150 422 2328 
Q 422 3509 836 4129 
Q 1250 4750 2034 4750 
z
" transform="scale(0.015625)"/>
       </defs>
       <use xlink:href="#DejaVuSans-30"/>
      </g>
     </g>
    </g>
    <g id="ytick_2">
     <g id="line2d_2">
      <path d="M 82.35 181.861637 
L 556.56 181.861637 
" clip-path="url(#pa0318c5006)" style="fill: none; stroke: #ffffff; stroke-linecap: round"/>
     </g>
     <g id="text_5">
      <!-- 20 -->
      <g style="fill: #262626" transform="translate(51.85375 188.130348) scale(0.165 -0.165)">
       <defs>
        <path id="DejaVuSans-32" d="M 1228 531 
L 3431 531 
L 3431 0 
L 469 0 
L 469 531 
Q 828 903 1448 1529 
Q 2069 2156 2228 2338 
Q 2531 2678 2651 2914 
Q 2772 3150 2772 3378 
Q 2772 3750 2511 3984 
Q 2250 4219 1831 4219 
Q 1534 4219 1204 4116 
Q 875 4013 500 3803 
L 500 4441 
Q 881 4594 1212 4672 
Q 1544 4750 1819 4750 
Q 2544 4750 2975 4387 
Q 3406 4025 3406 3419 
Q 3406 3131 3298 2873 
Q 3191 2616 2906 2266 
Q 2828 2175 2409 1742 
Q 1991 1309 1228 531 
z
" transform="scale(0.015625)"/>
       </defs>
       <use xlink:href="#DejaVuSans-32"/>
       <use xlink:href="#DejaVuSans-30" x="63.623047"/>
      </g>
     </g>
    </g>
    <g id="ytick_3">
     <g id="line2d_3">
      <path d="M 82.35 145.085297 
L 556.56 145.085297 
" clip-path="url(#pa0318c5006)" style="fill: none; stroke: #ffffff; stroke-linecap: round"/>
     </g>
     <g id="text_6">
      <!-- 40 -->
      <g style="fill: #262626" transform="translate(51.85375 151.354008) scale(0.165 -0.165)">
       <defs>
        <path id="DejaVuSans-34" d="M 2419 4116 
L 825 1625 
L 2419 1625 
L 2419 4116 
z
M 2253 4666 
L 3047 4666 
L 3047 1625 
L 3713 1625 
L 3713 1100 
L 3047 1100 
L 3047 0 
L 2419 0 
L 2419 1100 
L 313 1100 
L 313 1709 
L 2253 4666 
z
" transform="scale(0.015625)"/>
       </defs>
       <use xlink:href="#DejaVuSans-34"/>
       <use xlink:href="#DejaVuSans-30" x="63.623047"/>
      </g>
     </g>
    </g>
    <g id="ytick_4">
     <g id="line2d_4">
      <path d="M 82.35 108.308957 
L 556.56 108.308957 
" clip-path="url(#pa0318c5006)" style="fill: none; stroke: #ffffff; stroke-linecap: round"/>
     </g>
     <g id="text_7">
      <!-- 60 -->
      <g style="fill: #262626" transform="translate(51.85375 114.577668) scale(0.165 -0.165)">
       <defs>
        <path id="DejaVuSans-36" d="M 2113 2584 
Q 1688 2584 1439 2293 
Q 1191 2003 1191 1497 
Q 1191 994 1439 701 
Q 1688 409 2113 409 
Q 2538 409 2786 701 
Q 3034 994 3034 1497 
Q 3034 2003 2786 2293 
Q 2538 2584 2113 2584 
z
M 3366 4563 
L 3366 3988 
Q 3128 4100 2886 4159 
Q 2644 4219 2406 4219 
Q 1781 4219 1451 3797 
Q 1122 3375 1075 2522 
Q 1259 2794 1537 2939 
Q 1816 3084 2150 3084 
Q 2853 3084 3261 2657 
Q 3669 2231 3669 1497 
Q 3669 778 3244 343 
Q 2819 -91 2113 -91 
Q 1303 -91 875 529 
Q 447 1150 447 2328 
Q 447 3434 972 4092 
Q 1497 4750 2381 4750 
Q 2619 4750 2861 4703 
Q 3103 4656 3366 4563 
z
" transform="scale(0.015625)"/>
       </defs>
       <use xlink:href="#DejaVuSans-36"/>
       <use xlink:href="#DejaVuSans-30" x="63.623047"/>
      </g>
     </g>
    </g>
    <g id="ytick_5">
     <g id="line2d_5">
      <path d="M 82.35 71.532617 
L 556.56 71.532617 
" clip-path="url(#pa0318c5006)" style="fill: none; stroke: #ffffff; stroke-linecap: round"/>
     </g>
     <g id="text_8">
      <!-- 80 -->
      <g style="fill: #262626" transform="translate(51.85375 77.801328) scale(0.165 -0.165)">
       <defs>
        <path id="DejaVuSans-38" d="M 2034 2216 
Q 1584 2216 1326 1975 
Q 1069 1734 1069 1313 
Q 1069 891 1326 650 
Q 1584 409 2034 409 
Q 2484 409 2743 651 
Q 3003 894 3003 1313 
Q 3003 1734 2745 1975 
Q 2488 2216 2034 2216 
z
M 1403 2484 
Q 997 2584 770 2862 
Q 544 3141 544 3541 
Q 544 4100 942 4425 
Q 1341 4750 2034 4750 
Q 2731 4750 3128 4425 
Q 3525 4100 3525 3541 
Q 3525 3141 3298 2862 
Q 3072 2584 2669 2484 
Q 3125 2378 3379 2068 
Q 3634 1759 3634 1313 
Q 3634 634 3220 271 
Q 2806 -91 2034 -91 
Q 1263 -91 848 271 
Q 434 634 434 1313 
Q 434 1759 690 2068 
Q 947 2378 1403 2484 
z
M 1172 3481 
Q 1172 3119 1398 2916 
Q 1625 2713 2034 2713 
Q 2441 2713 2670 2916 
Q 2900 3119 2900 3481 
Q 2900 3844 2670 4047 
Q 2441 4250 2034 4250 
Q 1625 4250 1398 4047 
Q 1172 3844 1172 3481 
z
" transform="scale(0.015625)"/>
       </defs>
       <use xlink:href="#DejaVuSans-38"/>
       <use xlink:href="#DejaVuSans-30" x="63.623047"/>
      </g>
     </g>
    </g>
    <g id="ytick_6">
     <g id="line2d_6">
      <path d="M 82.35 34.756277 
L 556.56 34.756277 
" clip-path="url(#pa0318c5006)" style="fill: none; stroke: #ffffff; stroke-linecap: round"/>
     </g>
     <g id="text_9">
      <!-- 100 -->
      <g style="fill: #262626" transform="translate(41.355625 41.024988) scale(0.165 -0.165)">
       <defs>
        <path id="DejaVuSans-31" d="M 794 531 
L 1825 531 
L 1825 4091 
L 703 3866 
L 703 4441 
L 1819 4666 
L 2450 4666 
L 2450 531 
L 3481 531 
L 3481 0 
L 794 0 
L 794 531 
z
" transform="scale(0.015625)"/>
       </defs>
       <use xlink:href="#DejaVuSans-31"/>
       <use xlink:href="#DejaVuSans-30" x="63.623047"/>
       <use xlink:href="#DejaVuSans-30" x="127.246094"/>
      </g>
     </g>
    </g>
    <g id="text_10">
     <!-- award_age -->
     <g style="fill: #262626" transform="translate(33.111562 169.243594) rotate(-90) scale(0.18 -0.18)">
      <defs>
       <path id="DejaVuSans-77" d="M 269 3500 
L 844 3500 
L 1563 769 
L 2278 3500 
L 2956 3500 
L 3675 769 
L 4391 3500 
L 4966 3500 
L 4050 0 
L 3372 0 
L 2619 2869 
L 1863 0 
L 1184 0 
L 269 3500 
z
" transform="scale(0.015625)"/>
       <path id="DejaVuSans-5f" d="M 3263 -1063 
L 3263 -1509 
L -63 -1509 
L -63 -1063 
L 3263 -1063 
z
" transform="scale(0.015625)"/>
      </defs>
      <use xlink:href="#DejaVuSans-61"/>
      <use xlink:href="#DejaVuSans-77" x="61.279297"/>
      <use xlink:href="#DejaVuSans-61" x="143.066406"/>
      <use xlink:href="#DejaVuSans-72" x="204.345703"/>
      <use xlink:href="#DejaVuSans-64" x="243.708984"/>
      <use xlink:href="#DejaVuSans-5f" x="307.185547"/>
      <use xlink:href="#DejaVuSans-61" x="357.185547"/>
      <use xlink:href="#DejaVuSans-67" x="418.464844"/>
      <use xlink:href="#DejaVuSans-65" x="481.941406"/>
     </g>
    </g>
   </g>
   <g id="PolyCollection_1">
    <defs>
     <path id="m525c98fc89" d="M 200.963258 -103.671539 
L 200.841742 -103.671539 
L 200.800766 -105.244434 
L 200.742775 -106.81733 
L 200.666066 -108.390225 
L 200.569676 -109.96312 
L 200.451348 -111.536016 
L 200.303938 -113.108911 
L 200.111498 -114.681806 
L 199.847141 -116.254702 
L 199.474772 -117.827597 
L 198.955201 -119.400493 
L 198.254783 -120.973388 
L 197.352865 -122.546283 
L 196.244458 -124.119179 
L 194.936976 -125.692074 
L 193.443222 -127.26497 
L 191.774844 -128.837865 
L 189.939678 -130.41076 
L 187.943249 -131.983656 
L 185.791525 -133.556551 
L 183.491102 -135.129446 
L 181.045138 -136.702342 
L 178.44693 -138.275237 
L 175.675435 -139.848133 
L 172.696634 -141.421028 
L 169.471846 -142.993923 
L 165.971054 -144.566819 
L 162.187829 -146.139714 
L 158.152787 -147.71261 
L 153.942834 -149.285505 
L 149.682606 -150.8584 
L 145.533168 -152.431296 
L 141.664323 -154.004191 
L 138.213235 -155.577086 
L 135.241822 -157.149982 
L 132.712448 -158.722877 
L 130.498556 -160.295773 
L 128.432125 -161.868668 
L 126.36971 -163.441563 
L 124.245687 -165.014459 
L 122.085173 -166.587354 
L 119.969894 -168.16025 
L 117.976662 -169.733145 
L 116.124509 -171.30604 
L 114.362606 -172.878936 
L 112.608783 -174.451831 
L 110.819832 -176.024726 
L 109.055596 -177.597622 
L 107.499144 -179.170517 
L 106.415395 -180.743413 
L 106.0605 -182.316308 
L 106.579834 -183.889203 
L 107.940956 -185.462099 
L 109.93448 -187.034994 
L 112.245642 -188.60789 
L 114.566404 -190.180785 
L 116.698908 -191.75368 
L 118.606568 -193.326576 
L 120.396376 -194.899471 
L 122.249782 -196.472366 
L 124.340783 -198.045262 
L 126.778444 -199.618157 
L 129.591336 -201.191053 
L 132.747585 -202.763948 
L 136.18987 -204.336843 
L 139.864429 -205.909739 
L 143.732568 -207.482634 
L 147.764772 -209.05553 
L 151.925339 -210.628425 
L 156.157923 -212.20132 
L 160.380133 -213.774216 
L 164.490545 -215.347111 
L 168.386092 -216.920006 
L 171.983556 -218.492902 
L 175.237203 -220.065797 
L 178.145965 -221.638693 
L 180.747633 -223.211588 
L 183.102618 -224.784483 
L 185.273808 -226.357379 
L 187.309807 -227.930274 
L 189.236266 -229.50317 
L 191.055664 -231.076065 
L 192.752547 -232.64896 
L 194.300617 -234.221856 
L 195.669703 -235.794751 
L 196.832651 -237.367646 
L 197.77253 -238.940542 
L 198.489308 -240.513437 
L 199.003569 -242.086333 
L 199.35479 -243.659228 
L 199.593636 -245.232123 
L 199.770585 -246.805019 
L 199.92511 -248.377914 
L 200.079413 -249.95081 
L 200.238467 -251.523705 
L 200.395267 -253.0966 
L 200.538232 -254.669496 
L 200.65757 -256.242391 
L 200.748665 -257.815286 
L 200.812367 -259.388182 
L 200.992633 -259.388182 
L 200.992633 -259.388182 
L 201.056335 -257.815286 
L 201.14743 -256.242391 
L 201.266768 -254.669496 
L 201.409733 -253.0966 
L 201.566533 -251.523705 
L 201.725587 -249.95081 
L 201.87989 -248.377914 
L 202.034415 -246.805019 
L 202.211364 -245.232123 
L 202.45021 -243.659228 
L 202.801431 -242.086333 
L 203.315692 -240.513437 
L 204.03247 -238.940542 
L 204.972349 -237.367646 
L 206.135297 -235.794751 
L 207.504383 -234.221856 
L 209.052453 -232.64896 
L 210.749336 -231.076065 
L 212.568734 -229.50317 
L 214.495193 -227.930274 
L 216.531192 -226.357379 
L 218.702382 -224.784483 
L 221.057367 -223.211588 
L 223.659035 -221.638693 
L 226.567797 -220.065797 
L 229.821444 -218.492902 
L 233.418908 -216.920006 
L 237.314455 -215.347111 
L 241.424867 -213.774216 
L 245.647077 -212.20132 
L 249.879661 -210.628425 
L 254.040228 -209.05553 
L 258.072432 -207.482634 
L 261.940571 -205.909739 
L 265.61513 -204.336843 
L 269.057415 -202.763948 
L 272.213664 -201.191053 
L 275.026556 -199.618157 
L 277.464217 -198.045262 
L 279.555218 -196.472366 
L 281.408624 -194.899471 
L 283.198432 -193.326576 
L 285.106092 -191.75368 
L 287.238596 -190.180785 
L 289.559358 -188.60789 
L 291.87052 -187.034994 
L 293.864044 -185.462099 
L 295.225166 -183.889203 
L 295.7445 -182.316308 
L 295.389605 -180.743413 
L 294.305856 -179.170517 
L 292.749404 -177.597622 
L 290.985168 -176.024726 
L 289.196217 -174.451831 
L 287.442394 -172.878936 
L 285.680491 -171.30604 
L 283.828338 -169.733145 
L 281.835106 -168.16025 
L 279.719827 -166.587354 
L 277.559313 -165.014459 
L 275.43529 -163.441563 
L 273.372875 -161.868668 
L 271.306444 -160.295773 
L 269.092552 -158.722877 
L 266.563178 -157.149982 
L 263.591765 -155.577086 
L 260.140677 -154.004191 
L 256.271832 -152.431296 
L 252.122394 -150.8584 
L 247.862166 -149.285505 
L 243.652213 -147.71261 
L 239.617171 -146.139714 
L 235.833946 -144.566819 
L 232.333154 -142.993923 
L 229.108366 -141.421028 
L 226.129565 -139.848133 
L 223.35807 -138.275237 
L 220.759862 -136.702342 
L 218.313898 -135.129446 
L 216.013475 -133.556551 
L 213.861751 -131.983656 
L 211.865322 -130.41076 
L 210.030156 -128.837865 
L 208.361778 -127.26497 
L 206.868024 -125.692074 
L 205.560542 -124.119179 
L 204.452135 -122.546283 
L 203.550217 -120.973388 
L 202.849799 -119.400493 
L 202.330228 -117.827597 
L 201.957859 -116.254702 
L 201.693502 -114.681806 
L 201.501062 -113.108911 
L 201.353652 -111.536016 
L 201.235324 -109.96312 
L 201.138934 -108.390225 
L 201.062225 -106.81733 
L 201.004234 -105.244434 
L 200.963258 -103.671539 
z
" style="stroke: #4c4c4c; stroke-width: 1.25"/>
    </defs>
    <g clip-path="url(#pa0318c5006)">
     <use xlink:href="#m525c98fc89" x="0" y="288" style="fill: #5875a4; stroke: #4c4c4c; stroke-width: 1.25"/>
    </g>
   </g>
   <g id="PolyCollection_2">
    <defs>
     <path id="m80030e3a0e" d="M 438.421012 -75.951818 
L 437.593988 -75.951818 
L 437.453124 -77.768951 
L 437.278827 -79.586085 
L 437.068097 -81.403218 
L 436.81905 -83.220351 
L 436.531159 -85.037485 
L 436.205335 -86.854618 
L 435.843794 -88.671751 
L 435.449676 -90.488884 
L 435.02642 -92.306018 
L 434.576951 -94.123151 
L 434.102766 -95.940284 
L 433.603065 -97.757418 
L 433.074072 -99.574551 
L 432.508701 -101.391684 
L 431.896692 -103.208817 
L 431.225296 -105.025951 
L 430.480488 -106.843084 
L 429.648641 -108.660217 
L 428.718475 -110.477351 
L 427.683032 -112.294484 
L 426.541392 -114.111617 
L 425.299804 -115.92875 
L 423.971974 -117.745884 
L 422.578311 -119.563017 
L 421.14407 -121.38015 
L 419.696488 -123.197284 
L 418.261177 -125.014417 
L 416.858198 -126.83155 
L 415.498321 -128.648683 
L 414.180044 -130.465817 
L 412.887837 -132.28295 
L 411.59199 -134.100083 
L 410.250193 -135.917217 
L 408.810768 -137.73435 
L 407.217224 -139.551483 
L 405.413639 -141.368616 
L 403.350294 -143.18575 
L 400.988947 -145.002883 
L 398.30729 -146.820016 
L 395.30221 -148.63715 
L 391.991712 -150.454283 
L 388.415479 -152.271416 
L 384.634133 -154.088549 
L 380.727331 -155.905683 
L 376.790783 -157.722816 
L 372.932252 -159.539949 
L 369.266574 -161.357083 
L 365.909776 -163.174216 
L 362.972448 -164.991349 
L 360.552711 -166.808482 
L 358.729275 -168.625616 
L 357.55528 -170.442749 
L 357.053618 -172.259882 
L 357.214459 -174.077016 
L 357.995443 -175.894149 
L 359.324722 -177.711282 
L 361.106677 -179.528415 
L 363.229711 -181.345549 
L 365.575299 -183.162682 
L 368.027244 -184.979815 
L 370.480164 -186.796949 
L 372.846352 -188.614082 
L 375.060449 -190.431215 
L 377.0817 -192.248348 
L 378.893908 -194.065482 
L 380.50342 -195.882615 
L 381.935682 -197.699748 
L 383.230917 -199.516882 
L 384.439445 -201.334015 
L 385.617028 -203.151148 
L 386.820545 -204.968281 
L 388.104108 -206.785415 
L 389.515727 -208.602548 
L 391.094536 -210.419681 
L 392.868627 -212.236815 
L 394.853544 -214.053948 
L 397.051512 -215.871081 
L 399.45146 -217.688214 
L 402.029853 -219.505348 
L 404.752333 -221.322481 
L 407.576016 -223.139614 
L 410.452297 -224.956748 
L 413.329913 -226.773881 
L 416.158005 -228.591014 
L 418.888934 -230.408147 
L 421.480648 -232.225281 
L 423.89845 -234.042414 
L 426.116108 -235.859547 
L 428.116296 -237.676681 
L 429.890438 -239.493814 
L 431.438041 -241.310947 
L 432.765647 -243.12808 
L 433.885542 -244.945214 
L 434.814339 -246.762347 
L 435.571544 -248.57948 
L 436.178217 -250.396614 
L 436.65578 -252.213747 
L 437.025025 -254.03088 
L 437.305362 -255.848013 
L 438.709638 -255.848013 
L 438.709638 -255.848013 
L 438.989975 -254.03088 
L 439.35922 -252.213747 
L 439.836783 -250.396614 
L 440.443456 -248.57948 
L 441.200661 -246.762347 
L 442.129458 -244.945214 
L 443.249353 -243.12808 
L 444.576959 -241.310947 
L 446.124562 -239.493814 
L 447.898704 -237.676681 
L 449.898892 -235.859547 
L 452.11655 -234.042414 
L 454.534352 -232.225281 
L 457.126066 -230.408147 
L 459.856995 -228.591014 
L 462.685087 -226.773881 
L 465.562703 -224.956748 
L 468.438984 -223.139614 
L 471.262667 -221.322481 
L 473.985147 -219.505348 
L 476.56354 -217.688214 
L 478.963488 -215.871081 
L 481.161456 -214.053948 
L 483.146373 -212.236815 
L 484.920464 -210.419681 
L 486.499273 -208.602548 
L 487.910892 -206.785415 
L 489.194455 -204.968281 
L 490.397972 -203.151148 
L 491.575555 -201.334015 
L 492.784083 -199.516882 
L 494.079318 -197.699748 
L 495.51158 -195.882615 
L 497.121092 -194.065482 
L 498.9333 -192.248348 
L 500.954551 -190.431215 
L 503.168648 -188.614082 
L 505.534836 -186.796949 
L 507.987756 -184.979815 
L 510.439701 -183.162682 
L 512.785289 -181.345549 
L 514.908323 -179.528415 
L 516.690278 -177.711282 
L 518.019557 -175.894149 
L 518.800541 -174.077016 
L 518.961382 -172.259882 
L 518.45972 -170.442749 
L 517.285725 -168.625616 
L 515.462289 -166.808482 
L 513.042552 -164.991349 
L 510.105224 -163.174216 
L 506.748426 -161.357083 
L 503.082748 -159.539949 
L 499.224217 -157.722816 
L 495.287669 -155.905683 
L 491.380867 -154.088549 
L 487.599521 -152.271416 
L 484.023288 -150.454283 
L 480.71279 -148.63715 
L 477.70771 -146.820016 
L 475.026053 -145.002883 
L 472.664706 -143.18575 
L 470.601361 -141.368616 
L 468.797776 -139.551483 
L 467.204232 -137.73435 
L 465.764807 -135.917217 
L 464.42301 -134.100083 
L 463.127163 -132.28295 
L 461.834956 -130.465817 
L 460.516679 -128.648683 
L 459.156802 -126.83155 
L 457.753823 -125.014417 
L 456.318512 -123.197284 
L 454.87093 -121.38015 
L 453.436689 -119.563017 
L 452.043026 -117.745884 
L 450.715196 -115.92875 
L 449.473608 -114.111617 
L 448.331968 -112.294484 
L 447.296525 -110.477351 
L 446.366359 -108.660217 
L 445.534512 -106.843084 
L 444.789704 -105.025951 
L 444.118308 -103.208817 
L 443.506299 -101.391684 
L 442.940928 -99.574551 
L 442.411935 -97.757418 
L 441.912234 -95.940284 
L 441.438049 -94.123151 
L 440.98858 -92.306018 
L 440.565324 -90.488884 
L 440.171206 -88.671751 
L 439.809665 -86.854618 
L 439.483841 -85.037485 
L 439.19595 -83.220351 
L 438.946903 -81.403218 
L 438.736173 -79.586085 
L 438.561876 -77.768951 
L 438.421012 -75.951818 
z
" style="stroke: #4c4c4c; stroke-width: 1.25"/>
    </defs>
    <g clip-path="url(#pa0318c5006)">
     <use xlink:href="#m80030e3a0e" x="0" y="288" style="fill: #5875a4; stroke: #4c4c4c; stroke-width: 1.25"/>
    </g>
   </g>
   <g id="line2d_7">
    <path d="M 200.9025 161.63465 
L 200.9025 53.144447 
" clip-path="url(#pa0318c5006)" style="fill: none; stroke: #4c4c4c; stroke-width: 1.875; stroke-linecap: round"/>
   </g>
   <g id="line2d_8">
    <path d="M 200.9025 123.019493 
L 200.9025 91.759604 
" clip-path="url(#pa0318c5006)" style="fill: none; stroke: #4c4c4c; stroke-width: 5.625; stroke-linecap: round"/>
   </g>
   <g id="line2d_9">
    <path d="M 200.9025 106.47014 
" clip-path="url(#pa0318c5006)" style="fill: none; stroke: #4c4c4c; stroke-width: 1.5; stroke-linecap: round"/>
    <defs>
     <path id="m08b44a4442" d="M 2.34375 0 
L -2.34375 -0 
" style="stroke: #ffffff; stroke-width: 1.125"/>
    </defs>
    <g clip-path="url(#pa0318c5006)">
     <use xlink:href="#m08b44a4442" x="200.9025" y="106.47014" style="fill: #ffffff; stroke: #ffffff; stroke-width: 1.125"/>
    </g>
   </g>
   <g id="line2d_10">
    <path d="M 438.0075 172.667552 
L 438.0075 56.822081 
" clip-path="url(#pa0318c5006)" style="fill: none; stroke: #4c4c4c; stroke-width: 1.875; stroke-linecap: round"/>
   </g>
   <g id="line2d_11">
    <path d="M 438.0075 124.85831 
L 438.0075 89.920787 
" clip-path="url(#pa0318c5006)" style="fill: none; stroke: #4c4c4c; stroke-width: 5.625; stroke-linecap: round"/>
   </g>
   <g id="line2d_12">
    <path d="M 438.0075 113.825408 
" clip-path="url(#pa0318c5006)" style="fill: none; stroke: #4c4c4c; stroke-width: 1.5; stroke-linecap: round"/>
    <g clip-path="url(#pa0318c5006)">
     <use xlink:href="#m08b44a4442" x="438.0075" y="113.825408" style="fill: #ffffff; stroke: #ffffff; stroke-width: 1.125"/>
    </g>
   </g>
   <g id="patch_3">
    <path d="M 82.35 221.22 
L 82.35 19.44 
" style="fill: none; stroke: #ffffff; stroke-width: 1.25; stroke-linejoin: miter; stroke-linecap: square"/>
   </g>
   <g id="patch_4">
    <path d="M 556.56 221.22 
L 556.56 19.44 
" style="fill: none; stroke: #ffffff; stroke-width: 1.25; stroke-linejoin: miter; stroke-linecap: square"/>
   </g>
   <g id="patch_5">
    <path d="M 82.35 221.22 
L 556.56 221.22 
" style="fill: none; stroke: #ffffff; stroke-width: 1.25; stroke-linejoin: miter; stroke-linecap: square"/>
   </g>
   <g id="patch_6">
    <path d="M 82.35 19.44 
L 556.56 19.44 
" style="fill: none; stroke: #ffffff; stroke-width: 1.25; stroke-linejoin: miter; stroke-linecap: square"/>
   </g>
  </g>
 </g>
 <defs>
  <clipPath id="pa0318c5006">
   <rect x="82.35" y="19.44" width="474.21" height="201.78"/>
  </clipPath>
 </defs>
</svg>
