<?xml version="1.0" encoding="utf-8" standalone="no"?>
<!DOCTYPE svg PUBLIC "-//W3C//DTD SVG 1.1//EN"
  "http://www.w3.org/Graphics/SVG/1.1/DTD/svg11.dtd">
<svg xmlns:xlink="http://www.w3.org/1999/xlink" width="1152pt" height="576pt" viewBox="0 0 1152 576" xmlns="http://www.w3.org/2000/svg" version="1.1">
 <metadata>
  <rdf:RDF xmlns:dc="http://purl.org/dc/elements/1.1/" xmlns:cc="http://creativecommons.org/ns#" xmlns:rdf="http://www.w3.org/1999/02/22-rdf-syntax-ns#">
   <cc:Work>
    <dc:type rdf:resource="http://purl.org/dc/dcmitype/StillImage"/>
    <dc:date>2023-12-02T16:06:00.229774</dc:date>
    <dc:format>image/svg+xml</dc:format>
    <dc:creator>
     <cc:Agent>
      <dc:title>Matplotlib v3.8.2, https://matplotlib.org/</dc:title>
     </cc:Agent>
    </dc:creator>
   </cc:Work>
  </rdf:RDF>
 </metadata>
 <defs>
  <style type="text/css">*{stroke-linejoin: round; stroke-linecap: butt}</style>
 </defs>
 <g id="figure_1">
  <g id="patch_1">
   <path d="M 0 576 
L 1152 576 
L 1152 0 
L 0 0 
z
" style="fill: #ffffff"/>
  </g>
  <g id="axes_1">
   <g id="patch_2">
    <path d="M 43.61 414 
L 1136.88 414 
L 1136.88 15.12 
L 43.61 15.12 
z
" style="fill: #eaeaf2"/>
   </g>
   <g id="matplotlib.axis_1">
    <g id="xtick_1">
     <g id="line2d_1">
      <path d="M 70.94175 414 
L 70.94175 15.12 
" clip-path="url(#pea13d56ed9)" style="fill: none; stroke: #ffffff; stroke-linecap: round"/>
     </g>
     <g id="text_1">
      <!-- United States -->
      <g style="fill: #262626" transform="translate(73.701125 491.214063) rotate(-90) scale(0.1 -0.1)">
       <defs>
        <path id="DejaVuSans-55" d="M 556 4666 
L 1191 4666 
L 1191 1831 
Q 1191 1081 1462 751 
Q 1734 422 2344 422 
Q 2950 422 3222 751 
Q 3494 1081 3494 1831 
L 3494 4666 
L 4128 4666 
L 4128 1753 
Q 4128 841 3676 375 
Q 3225 -91 2344 -91 
Q 1459 -91 1007 375 
Q 556 841 556 1753 
L 556 4666 
z
" transform="scale(0.015625)"/>
        <path id="DejaVuSans-6e" d="M 3513 2113 
L 3513 0 
L 2938 0 
L 2938 2094 
Q 2938 2591 2744 2837 
Q 2550 3084 2163 3084 
Q 1697 3084 1428 2787 
Q 1159 2491 1159 1978 
L 1159 0 
L 581 0 
L 581 3500 
L 1159 3500 
L 1159 2956 
Q 1366 3272 1645 3428 
Q 1925 3584 2291 3584 
Q 2894 3584 3203 3211 
Q 3513 2838 3513 2113 
z
" transform="scale(0.015625)"/>
        <path id="DejaVuSans-69" d="M 603 3500 
L 1178 3500 
L 1178 0 
L 603 0 
L 603 3500 
z
M 603 4863 
L 1178 4863 
L 1178 4134 
L 603 4134 
L 603 4863 
z
" transform="scale(0.015625)"/>
        <path id="DejaVuSans-74" d="M 1172 4494 
L 1172 3500 
L 2356 3500 
L 2356 3053 
L 1172 3053 
L 1172 1153 
Q 1172 725 1289 603 
Q 1406 481 1766 481 
L 2356 481 
L 2356 0 
L 1766 0 
Q 1100 0 847 248 
Q 594 497 594 1153 
L 594 3053 
L 172 3053 
L 172 3500 
L 594 3500 
L 594 4494 
L 1172 4494 
z
" transform="scale(0.015625)"/>
        <path id="DejaVuSans-65" d="M 3597 1894 
L 3597 1613 
L 953 1613 
Q 991 1019 1311 708 
Q 1631 397 2203 397 
Q 2534 397 2845 478 
Q 3156 559 3463 722 
L 3463 178 
Q 3153 47 2828 -22 
Q 2503 -91 2169 -91 
Q 1331 -91 842 396 
Q 353 884 353 1716 
Q 353 2575 817 3079 
Q 1281 3584 2069 3584 
Q 2775 3584 3186 3129 
Q 3597 2675 3597 1894 
z
M 3022 2063 
Q 3016 2534 2758 2815 
Q 2500 3097 2075 3097 
Q 1594 3097 1305 2825 
Q 1016 2553 972 2059 
L 3022 2063 
z
" transform="scale(0.015625)"/>
        <path id="DejaVuSans-64" d="M 2906 2969 
L 2906 4863 
L 3481 4863 
L 3481 0 
L 2906 0 
L 2906 525 
Q 2725 213 2448 61 
Q 2172 -91 1784 -91 
Q 1150 -91 751 415 
Q 353 922 353 1747 
Q 353 2572 751 3078 
Q 1150 3584 1784 3584 
Q 2172 3584 2448 3432 
Q 2725 3281 2906 2969 
z
M 947 1747 
Q 947 1113 1208 752 
Q 1469 391 1925 391 
Q 2381 391 2643 752 
Q 2906 1113 2906 1747 
Q 2906 2381 2643 2742 
Q 2381 3103 1925 3103 
Q 1469 3103 1208 2742 
Q 947 2381 947 1747 
z
" transform="scale(0.015625)"/>
        <path id="DejaVuSans-20" transform="scale(0.015625)"/>
        <path id="DejaVuSans-53" d="M 3425 4513 
L 3425 3897 
Q 3066 4069 2747 4153 
Q 2428 4238 2131 4238 
Q 1616 4238 1336 4038 
Q 1056 3838 1056 3469 
Q 1056 3159 1242 3001 
Q 1428 2844 1947 2747 
L 2328 2669 
Q 3034 2534 3370 2195 
Q 3706 1856 3706 1288 
Q 3706 609 3251 259 
Q 2797 -91 1919 -91 
Q 1588 -91 1214 -16 
Q 841 59 441 206 
L 441 856 
Q 825 641 1194 531 
Q 1563 422 1919 422 
Q 2459 422 2753 634 
Q 3047 847 3047 1241 
Q 3047 1584 2836 1778 
Q 2625 1972 2144 2069 
L 1759 2144 
Q 1053 2284 737 2584 
Q 422 2884 422 3419 
Q 422 4038 858 4394 
Q 1294 4750 2059 4750 
Q 2388 4750 2728 4690 
Q 3069 4631 3425 4513 
z
" transform="scale(0.015625)"/>
        <path id="DejaVuSans-61" d="M 2194 1759 
Q 1497 1759 1228 1600 
Q 959 1441 959 1056 
Q 959 750 1161 570 
Q 1363 391 1709 391 
Q 2188 391 2477 730 
Q 2766 1069 2766 1631 
L 2766 1759 
L 2194 1759 
z
M 3341 1997 
L 3341 0 
L 2766 0 
L 2766 531 
Q 2569 213 2275 61 
Q 1981 -91 1556 -91 
Q 1019 -91 701 211 
Q 384 513 384 1019 
Q 384 1609 779 1909 
Q 1175 2209 1959 2209 
L 2766 2209 
L 2766 2266 
Q 2766 2663 2505 2880 
Q 2244 3097 1772 3097 
Q 1472 3097 1187 3025 
Q 903 2953 641 2809 
L 641 3341 
Q 956 3463 1253 3523 
Q 1550 3584 1831 3584 
Q 2591 3584 2966 3190 
Q 3341 2797 3341 1997 
z
" transform="scale(0.015625)"/>
        <path id="DejaVuSans-73" d="M 2834 3397 
L 2834 2853 
Q 2591 2978 2328 3040 
Q 2066 3103 1784 3103 
Q 1356 3103 1142 2972 
Q 928 2841 928 2578 
Q 928 2378 1081 2264 
Q 1234 2150 1697 2047 
L 1894 2003 
Q 2506 1872 2764 1633 
Q 3022 1394 3022 966 
Q 3022 478 2636 193 
Q 2250 -91 1575 -91 
Q 1294 -91 989 -36 
Q 684 19 347 128 
L 347 722 
Q 666 556 975 473 
Q 1284 391 1588 391 
Q 1994 391 2212 530 
Q 2431 669 2431 922 
Q 2431 1156 2273 1281 
Q 2116 1406 1581 1522 
L 1381 1569 
Q 847 1681 609 1914 
Q 372 2147 372 2553 
Q 372 3047 722 3315 
Q 1072 3584 1716 3584 
Q 2034 3584 2315 3537 
Q 2597 3491 2834 3397 
z
" transform="scale(0.015625)"/>
       </defs>
       <use xlink:href="#DejaVuSans-55"/>
       <use xlink:href="#DejaVuSans-6e" x="73.193359"/>
       <use xlink:href="#DejaVuSans-69" x="136.572266"/>
       <use xlink:href="#DejaVuSans-74" x="164.355469"/>
       <use xlink:href="#DejaVuSans-65" x="203.564453"/>
       <use xlink:href="#DejaVuSans-64" x="265.087891"/>
       <use xlink:href="#DejaVuSans-20" x="328.564453"/>
       <use xlink:href="#DejaVuSans-53" x="360.351562"/>
       <use xlink:href="#DejaVuSans-74" x="423.828125"/>
       <use xlink:href="#DejaVuSans-61" x="463.037109"/>
       <use xlink:href="#DejaVuSans-74" x="524.316406"/>
       <use xlink:href="#DejaVuSans-65" x="563.525391"/>
       <use xlink:href="#DejaVuSans-73" x="625.048828"/>
      </g>
     </g>
    </g>
    <g id="xtick_2">
     <g id="line2d_2">
      <path d="M 125.60525 414 
L 125.60525 15.12 
" clip-path="url(#pea13d56ed9)" style="fill: none; stroke: #ffffff; stroke-linecap: round"/>
     </g>
     <g id="text_2">
      <!-- United Kingdom -->
      <g style="fill: #262626" transform="translate(128.364625 503.764063) rotate(-90) scale(0.1 -0.1)">
       <defs>
        <path id="DejaVuSans-4b" d="M 628 4666 
L 1259 4666 
L 1259 2694 
L 3353 4666 
L 4166 4666 
L 1850 2491 
L 4331 0 
L 3500 0 
L 1259 2247 
L 1259 0 
L 628 0 
L 628 4666 
z
" transform="scale(0.015625)"/>
        <path id="DejaVuSans-67" d="M 2906 1791 
Q 2906 2416 2648 2759 
Q 2391 3103 1925 3103 
Q 1463 3103 1205 2759 
Q 947 2416 947 1791 
Q 947 1169 1205 825 
Q 1463 481 1925 481 
Q 2391 481 2648 825 
Q 2906 1169 2906 1791 
z
M 3481 434 
Q 3481 -459 3084 -895 
Q 2688 -1331 1869 -1331 
Q 1566 -1331 1297 -1286 
Q 1028 -1241 775 -1147 
L 775 -588 
Q 1028 -725 1275 -790 
Q 1522 -856 1778 -856 
Q 2344 -856 2625 -561 
Q 2906 -266 2906 331 
L 2906 616 
Q 2728 306 2450 153 
Q 2172 0 1784 0 
Q 1141 0 747 490 
Q 353 981 353 1791 
Q 353 2603 747 3093 
Q 1141 3584 1784 3584 
Q 2172 3584 2450 3431 
Q 2728 3278 2906 2969 
L 2906 3500 
L 3481 3500 
L 3481 434 
z
" transform="scale(0.015625)"/>
        <path id="DejaVuSans-6f" d="M 1959 3097 
Q 1497 3097 1228 2736 
Q 959 2375 959 1747 
Q 959 1119 1226 758 
Q 1494 397 1959 397 
Q 2419 397 2687 759 
Q 2956 1122 2956 1747 
Q 2956 2369 2687 2733 
Q 2419 3097 1959 3097 
z
M 1959 3584 
Q 2709 3584 3137 3096 
Q 3566 2609 3566 1747 
Q 3566 888 3137 398 
Q 2709 -91 1959 -91 
Q 1206 -91 779 398 
Q 353 888 353 1747 
Q 353 2609 779 3096 
Q 1206 3584 1959 3584 
z
" transform="scale(0.015625)"/>
        <path id="DejaVuSans-6d" d="M 3328 2828 
Q 3544 3216 3844 3400 
Q 4144 3584 4550 3584 
Q 5097 3584 5394 3201 
Q 5691 2819 5691 2113 
L 5691 0 
L 5113 0 
L 5113 2094 
Q 5113 2597 4934 2840 
Q 4756 3084 4391 3084 
Q 3944 3084 3684 2787 
Q 3425 2491 3425 1978 
L 3425 0 
L 2847 0 
L 2847 2094 
Q 2847 2600 2669 2842 
Q 2491 3084 2119 3084 
Q 1678 3084 1418 2786 
Q 1159 2488 1159 1978 
L 1159 0 
L 581 0 
L 581 3500 
L 1159 3500 
L 1159 2956 
Q 1356 3278 1631 3431 
Q 1906 3584 2284 3584 
Q 2666 3584 2933 3390 
Q 3200 3197 3328 2828 
z
" transform="scale(0.015625)"/>
       </defs>
       <use xlink:href="#DejaVuSans-55"/>
       <use xlink:href="#DejaVuSans-6e" x="73.193359"/>
       <use xlink:href="#DejaVuSans-69" x="136.572266"/>
       <use xlink:href="#DejaVuSans-74" x="164.355469"/>
       <use xlink:href="#DejaVuSans-65" x="203.564453"/>
       <use xlink:href="#DejaVuSans-64" x="265.087891"/>
       <use xlink:href="#DejaVuSans-20" x="328.564453"/>
       <use xlink:href="#DejaVuSans-4b" x="360.351562"/>
       <use xlink:href="#DejaVuSans-69" x="425.927734"/>
       <use xlink:href="#DejaVuSans-6e" x="453.710938"/>
       <use xlink:href="#DejaVuSans-67" x="517.089844"/>
       <use xlink:href="#DejaVuSans-64" x="580.566406"/>
       <use xlink:href="#DejaVuSans-6f" x="644.042969"/>
       <use xlink:href="#DejaVuSans-6d" x="705.224609"/>
      </g>
     </g>
    </g>
    <g id="xtick_3">
     <g id="line2d_3">
      <path d="M 180.26875 414 
L 180.26875 15.12 
" clip-path="url(#pea13d56ed9)" style="fill: none; stroke: #ffffff; stroke-linecap: round"/>
     </g>
     <g id="text_3">
      <!-- Germany -->
      <g style="fill: #262626" transform="translate(183.028125 469.4625) rotate(-90) scale(0.1 -0.1)">
       <defs>
        <path id="DejaVuSans-47" d="M 3809 666 
L 3809 1919 
L 2778 1919 
L 2778 2438 
L 4434 2438 
L 4434 434 
Q 4069 175 3628 42 
Q 3188 -91 2688 -91 
Q 1594 -91 976 548 
Q 359 1188 359 2328 
Q 359 3472 976 4111 
Q 1594 4750 2688 4750 
Q 3144 4750 3555 4637 
Q 3966 4525 4313 4306 
L 4313 3634 
Q 3963 3931 3569 4081 
Q 3175 4231 2741 4231 
Q 1884 4231 1454 3753 
Q 1025 3275 1025 2328 
Q 1025 1384 1454 906 
Q 1884 428 2741 428 
Q 3075 428 3337 486 
Q 3600 544 3809 666 
z
" transform="scale(0.015625)"/>
        <path id="DejaVuSans-72" d="M 2631 2963 
Q 2534 3019 2420 3045 
Q 2306 3072 2169 3072 
Q 1681 3072 1420 2755 
Q 1159 2438 1159 1844 
L 1159 0 
L 581 0 
L 581 3500 
L 1159 3500 
L 1159 2956 
Q 1341 3275 1631 3429 
Q 1922 3584 2338 3584 
Q 2397 3584 2469 3576 
Q 2541 3569 2628 3553 
L 2631 2963 
z
" transform="scale(0.015625)"/>
        <path id="DejaVuSans-79" d="M 2059 -325 
Q 1816 -950 1584 -1140 
Q 1353 -1331 966 -1331 
L 506 -1331 
L 506 -850 
L 844 -850 
Q 1081 -850 1212 -737 
Q 1344 -625 1503 -206 
L 1606 56 
L 191 3500 
L 800 3500 
L 1894 763 
L 2988 3500 
L 3597 3500 
L 2059 -325 
z
" transform="scale(0.015625)"/>
       </defs>
       <use xlink:href="#DejaVuSans-47"/>
       <use xlink:href="#DejaVuSans-65" x="77.490234"/>
       <use xlink:href="#DejaVuSans-72" x="139.013672"/>
       <use xlink:href="#DejaVuSans-6d" x="178.376953"/>
       <use xlink:href="#DejaVuSans-61" x="275.789062"/>
       <use xlink:href="#DejaVuSans-6e" x="337.068359"/>
       <use xlink:href="#DejaVuSans-79" x="400.447266"/>
      </g>
     </g>
    </g>
    <g id="xtick_4">
     <g id="line2d_4">
      <path d="M 234.93225 414 
L 234.93225 15.12 
" clip-path="url(#pea13d56ed9)" style="fill: none; stroke: #ffffff; stroke-linecap: round"/>
     </g>
     <g id="text_4">
      <!-- France -->
      <g style="fill: #262626" transform="translate(237.691625 456.754687) rotate(-90) scale(0.1 -0.1)">
       <defs>
        <path id="DejaVuSans-46" d="M 628 4666 
L 3309 4666 
L 3309 4134 
L 1259 4134 
L 1259 2759 
L 3109 2759 
L 3109 2228 
L 1259 2228 
L 1259 0 
L 628 0 
L 628 4666 
z
" transform="scale(0.015625)"/>
        <path id="DejaVuSans-63" d="M 3122 3366 
L 3122 2828 
Q 2878 2963 2633 3030 
Q 2388 3097 2138 3097 
Q 1578 3097 1268 2742 
Q 959 2388 959 1747 
Q 959 1106 1268 751 
Q 1578 397 2138 397 
Q 2388 397 2633 464 
Q 2878 531 3122 666 
L 3122 134 
Q 2881 22 2623 -34 
Q 2366 -91 2075 -91 
Q 1284 -91 818 406 
Q 353 903 353 1747 
Q 353 2603 823 3093 
Q 1294 3584 2113 3584 
Q 2378 3584 2631 3529 
Q 2884 3475 3122 3366 
z
" transform="scale(0.015625)"/>
       </defs>
       <use xlink:href="#DejaVuSans-46"/>
       <use xlink:href="#DejaVuSans-72" x="50.269531"/>
       <use xlink:href="#DejaVuSans-61" x="91.382812"/>
       <use xlink:href="#DejaVuSans-6e" x="152.662109"/>
       <use xlink:href="#DejaVuSans-63" x="216.041016"/>
       <use xlink:href="#DejaVuSans-65" x="271.021484"/>
      </g>
     </g>
    </g>
    <g id="xtick_5">
     <g id="line2d_5">
      <path d="M 289.59575 414 
L 289.59575 15.12 
" clip-path="url(#pea13d56ed9)" style="fill: none; stroke: #ffffff; stroke-linecap: round"/>
     </g>
     <g id="text_5">
      <!-- Sweden -->
      <g style="fill: #262626" transform="translate(292.355125 463.01875) rotate(-90) scale(0.1 -0.1)">
       <defs>
        <path id="DejaVuSans-77" d="M 269 3500 
L 844 3500 
L 1563 769 
L 2278 3500 
L 2956 3500 
L 3675 769 
L 4391 3500 
L 4966 3500 
L 4050 0 
L 3372 0 
L 2619 2869 
L 1863 0 
L 1184 0 
L 269 3500 
z
" transform="scale(0.015625)"/>
       </defs>
       <use xlink:href="#DejaVuSans-53"/>
       <use xlink:href="#DejaVuSans-77" x="63.476562"/>
       <use xlink:href="#DejaVuSans-65" x="145.263672"/>
       <use xlink:href="#DejaVuSans-64" x="206.787109"/>
       <use xlink:href="#DejaVuSans-65" x="270.263672"/>
       <use xlink:href="#DejaVuSans-6e" x="331.787109"/>
      </g>
     </g>
    </g>
    <g id="xtick_6">
     <g id="line2d_6">
      <path d="M 344.25925 414 
L 344.25925 15.12 
" clip-path="url(#pea13d56ed9)" style="fill: none; stroke: #ffffff; stroke-linecap: round"/>
     </g>
     <g id="text_6">
      <!-- Japan -->
      <g style="fill: #262626" transform="translate(347.018625 451.392187) rotate(-90) scale(0.1 -0.1)">
       <defs>
        <path id="DejaVuSans-4a" d="M 628 4666 
L 1259 4666 
L 1259 325 
Q 1259 -519 939 -900 
Q 619 -1281 -91 -1281 
L -331 -1281 
L -331 -750 
L -134 -750 
Q 284 -750 456 -515 
Q 628 -281 628 325 
L 628 4666 
z
" transform="scale(0.015625)"/>
        <path id="DejaVuSans-70" d="M 1159 525 
L 1159 -1331 
L 581 -1331 
L 581 3500 
L 1159 3500 
L 1159 2969 
Q 1341 3281 1617 3432 
Q 1894 3584 2278 3584 
Q 2916 3584 3314 3078 
Q 3713 2572 3713 1747 
Q 3713 922 3314 415 
Q 2916 -91 2278 -91 
Q 1894 -91 1617 61 
Q 1341 213 1159 525 
z
M 3116 1747 
Q 3116 2381 2855 2742 
Q 2594 3103 2138 3103 
Q 1681 3103 1420 2742 
Q 1159 2381 1159 1747 
Q 1159 1113 1420 752 
Q 1681 391 2138 391 
Q 2594 391 2855 752 
Q 3116 1113 3116 1747 
z
" transform="scale(0.015625)"/>
       </defs>
       <use xlink:href="#DejaVuSans-4a"/>
       <use xlink:href="#DejaVuSans-61" x="29.492188"/>
       <use xlink:href="#DejaVuSans-70" x="90.771484"/>
       <use xlink:href="#DejaVuSans-61" x="154.248047"/>
       <use xlink:href="#DejaVuSans-6e" x="215.527344"/>
      </g>
     </g>
    </g>
    <g id="xtick_7">
     <g id="line2d_7">
      <path d="M 398.92275 414 
L 398.92275 15.12 
" clip-path="url(#pea13d56ed9)" style="fill: none; stroke: #ffffff; stroke-linecap: round"/>
     </g>
     <g id="text_7">
      <!-- Switzerland -->
      <g style="fill: #262626" transform="translate(401.682125 481.829687) rotate(-90) scale(0.1 -0.1)">
       <defs>
        <path id="DejaVuSans-7a" d="M 353 3500 
L 3084 3500 
L 3084 2975 
L 922 459 
L 3084 459 
L 3084 0 
L 275 0 
L 275 525 
L 2438 3041 
L 353 3041 
L 353 3500 
z
" transform="scale(0.015625)"/>
        <path id="DejaVuSans-6c" d="M 603 4863 
L 1178 4863 
L 1178 0 
L 603 0 
L 603 4863 
z
" transform="scale(0.015625)"/>
       </defs>
       <use xlink:href="#DejaVuSans-53"/>
       <use xlink:href="#DejaVuSans-77" x="63.476562"/>
       <use xlink:href="#DejaVuSans-69" x="145.263672"/>
       <use xlink:href="#DejaVuSans-74" x="173.046875"/>
       <use xlink:href="#DejaVuSans-7a" x="212.255859"/>
       <use xlink:href="#DejaVuSans-65" x="264.746094"/>
       <use xlink:href="#DejaVuSans-72" x="326.269531"/>
       <use xlink:href="#DejaVuSans-6c" x="367.382812"/>
       <use xlink:href="#DejaVuSans-61" x="395.166016"/>
       <use xlink:href="#DejaVuSans-6e" x="456.445312"/>
       <use xlink:href="#DejaVuSans-64" x="519.824219"/>
      </g>
     </g>
    </g>
    <g id="xtick_8">
     <g id="line2d_8">
      <path d="M 453.58625 414 
L 453.58625 15.12 
" clip-path="url(#pea13d56ed9)" style="fill: none; stroke: #ffffff; stroke-linecap: round"/>
     </g>
     <g id="text_8">
      <!-- Russia and Soviet Union -->
      <g style="fill: #262626" transform="translate(456.345625 544.1375) rotate(-90) scale(0.1 -0.1)">
       <defs>
        <path id="DejaVuSans-52" d="M 2841 2188 
Q 3044 2119 3236 1894 
Q 3428 1669 3622 1275 
L 4263 0 
L 3584 0 
L 2988 1197 
Q 2756 1666 2539 1819 
Q 2322 1972 1947 1972 
L 1259 1972 
L 1259 0 
L 628 0 
L 628 4666 
L 2053 4666 
Q 2853 4666 3247 4331 
Q 3641 3997 3641 3322 
Q 3641 2881 3436 2590 
Q 3231 2300 2841 2188 
z
M 1259 4147 
L 1259 2491 
L 2053 2491 
Q 2509 2491 2742 2702 
Q 2975 2913 2975 3322 
Q 2975 3731 2742 3939 
Q 2509 4147 2053 4147 
L 1259 4147 
z
" transform="scale(0.015625)"/>
        <path id="DejaVuSans-75" d="M 544 1381 
L 544 3500 
L 1119 3500 
L 1119 1403 
Q 1119 906 1312 657 
Q 1506 409 1894 409 
Q 2359 409 2629 706 
Q 2900 1003 2900 1516 
L 2900 3500 
L 3475 3500 
L 3475 0 
L 2900 0 
L 2900 538 
Q 2691 219 2414 64 
Q 2138 -91 1772 -91 
Q 1169 -91 856 284 
Q 544 659 544 1381 
z
M 1991 3584 
L 1991 3584 
z
" transform="scale(0.015625)"/>
        <path id="DejaVuSans-76" d="M 191 3500 
L 800 3500 
L 1894 563 
L 2988 3500 
L 3597 3500 
L 2284 0 
L 1503 0 
L 191 3500 
z
" transform="scale(0.015625)"/>
       </defs>
       <use xlink:href="#DejaVuSans-52"/>
       <use xlink:href="#DejaVuSans-75" x="64.982422"/>
       <use xlink:href="#DejaVuSans-73" x="128.361328"/>
       <use xlink:href="#DejaVuSans-73" x="180.460938"/>
       <use xlink:href="#DejaVuSans-69" x="232.560547"/>
       <use xlink:href="#DejaVuSans-61" x="260.34375"/>
       <use xlink:href="#DejaVuSans-20" x="321.623047"/>
       <use xlink:href="#DejaVuSans-61" x="353.410156"/>
       <use xlink:href="#DejaVuSans-6e" x="414.689453"/>
       <use xlink:href="#DejaVuSans-64" x="478.068359"/>
       <use xlink:href="#DejaVuSans-20" x="541.544922"/>
       <use xlink:href="#DejaVuSans-53" x="573.332031"/>
       <use xlink:href="#DejaVuSans-6f" x="636.808594"/>
       <use xlink:href="#DejaVuSans-76" x="697.990234"/>
       <use xlink:href="#DejaVuSans-69" x="757.169922"/>
       <use xlink:href="#DejaVuSans-65" x="784.953125"/>
       <use xlink:href="#DejaVuSans-74" x="846.476562"/>
       <use xlink:href="#DejaVuSans-20" x="885.685547"/>
       <use xlink:href="#DejaVuSans-55" x="917.472656"/>
       <use xlink:href="#DejaVuSans-6e" x="990.666016"/>
       <use xlink:href="#DejaVuSans-69" x="1054.044922"/>
       <use xlink:href="#DejaVuSans-6f" x="1081.828125"/>
       <use xlink:href="#DejaVuSans-6e" x="1143.009766"/>
      </g>
     </g>
    </g>
    <g id="xtick_9">
     <g id="line2d_9">
      <path d="M 508.24975 414 
L 508.24975 15.12 
" clip-path="url(#pea13d56ed9)" style="fill: none; stroke: #ffffff; stroke-linecap: round"/>
     </g>
     <g id="text_9">
      <!-- Netherlands -->
      <g style="fill: #262626" transform="translate(511.009125 484.457812) rotate(-90) scale(0.1 -0.1)">
       <defs>
        <path id="DejaVuSans-4e" d="M 628 4666 
L 1478 4666 
L 3547 763 
L 3547 4666 
L 4159 4666 
L 4159 0 
L 3309 0 
L 1241 3903 
L 1241 0 
L 628 0 
L 628 4666 
z
" transform="scale(0.015625)"/>
        <path id="DejaVuSans-68" d="M 3513 2113 
L 3513 0 
L 2938 0 
L 2938 2094 
Q 2938 2591 2744 2837 
Q 2550 3084 2163 3084 
Q 1697 3084 1428 2787 
Q 1159 2491 1159 1978 
L 1159 0 
L 581 0 
L 581 4863 
L 1159 4863 
L 1159 2956 
Q 1366 3272 1645 3428 
Q 1925 3584 2291 3584 
Q 2894 3584 3203 3211 
Q 3513 2838 3513 2113 
z
" transform="scale(0.015625)"/>
       </defs>
       <use xlink:href="#DejaVuSans-4e"/>
       <use xlink:href="#DejaVuSans-65" x="74.804688"/>
       <use xlink:href="#DejaVuSans-74" x="136.328125"/>
       <use xlink:href="#DejaVuSans-68" x="175.537109"/>
       <use xlink:href="#DejaVuSans-65" x="238.916016"/>
       <use xlink:href="#DejaVuSans-72" x="300.439453"/>
       <use xlink:href="#DejaVuSans-6c" x="341.552734"/>
       <use xlink:href="#DejaVuSans-61" x="369.335938"/>
       <use xlink:href="#DejaVuSans-6e" x="430.615234"/>
       <use xlink:href="#DejaVuSans-64" x="493.994141"/>
       <use xlink:href="#DejaVuSans-73" x="557.470703"/>
      </g>
     </g>
    </g>
    <g id="xtick_10">
     <g id="line2d_10">
      <path d="M 562.91325 414 
L 562.91325 15.12 
" clip-path="url(#pea13d56ed9)" style="fill: none; stroke: #ffffff; stroke-linecap: round"/>
     </g>
     <g id="text_10">
      <!-- Austria -->
      <g style="fill: #262626" transform="translate(565.672625 458.825) rotate(-90) scale(0.1 -0.1)">
       <defs>
        <path id="DejaVuSans-41" d="M 2188 4044 
L 1331 1722 
L 3047 1722 
L 2188 4044 
z
M 1831 4666 
L 2547 4666 
L 4325 0 
L 3669 0 
L 3244 1197 
L 1141 1197 
L 716 0 
L 50 0 
L 1831 4666 
z
" transform="scale(0.015625)"/>
       </defs>
       <use xlink:href="#DejaVuSans-41"/>
       <use xlink:href="#DejaVuSans-75" x="68.408203"/>
       <use xlink:href="#DejaVuSans-73" x="131.787109"/>
       <use xlink:href="#DejaVuSans-74" x="183.886719"/>
       <use xlink:href="#DejaVuSans-72" x="223.095703"/>
       <use xlink:href="#DejaVuSans-69" x="264.208984"/>
       <use xlink:href="#DejaVuSans-61" x="291.992188"/>
      </g>
     </g>
    </g>
    <g id="xtick_11">
     <g id="line2d_11">
      <path d="M 617.57675 414 
L 617.57675 15.12 
" clip-path="url(#pea13d56ed9)" style="fill: none; stroke: #ffffff; stroke-linecap: round"/>
     </g>
     <g id="text_11">
      <!-- Canada -->
      <g style="fill: #262626" transform="translate(620.336125 461.553125) rotate(-90) scale(0.1 -0.1)">
       <defs>
        <path id="DejaVuSans-43" d="M 4122 4306 
L 4122 3641 
Q 3803 3938 3442 4084 
Q 3081 4231 2675 4231 
Q 1875 4231 1450 3742 
Q 1025 3253 1025 2328 
Q 1025 1406 1450 917 
Q 1875 428 2675 428 
Q 3081 428 3442 575 
Q 3803 722 4122 1019 
L 4122 359 
Q 3791 134 3420 21 
Q 3050 -91 2638 -91 
Q 1578 -91 968 557 
Q 359 1206 359 2328 
Q 359 3453 968 4101 
Q 1578 4750 2638 4750 
Q 3056 4750 3426 4639 
Q 3797 4528 4122 4306 
z
" transform="scale(0.015625)"/>
       </defs>
       <use xlink:href="#DejaVuSans-43"/>
       <use xlink:href="#DejaVuSans-61" x="69.824219"/>
       <use xlink:href="#DejaVuSans-6e" x="131.103516"/>
       <use xlink:href="#DejaVuSans-61" x="194.482422"/>
       <use xlink:href="#DejaVuSans-64" x="255.761719"/>
       <use xlink:href="#DejaVuSans-61" x="319.238281"/>
      </g>
     </g>
    </g>
    <g id="xtick_12">
     <g id="line2d_12">
      <path d="M 672.24025 414 
L 672.24025 15.12 
" clip-path="url(#pea13d56ed9)" style="fill: none; stroke: #ffffff; stroke-linecap: round"/>
     </g>
     <g id="text_12">
      <!-- Norway -->
      <g style="fill: #262626" transform="translate(674.999625 461.435938) rotate(-90) scale(0.1 -0.1)">
       <use xlink:href="#DejaVuSans-4e"/>
       <use xlink:href="#DejaVuSans-6f" x="74.804688"/>
       <use xlink:href="#DejaVuSans-72" x="135.986328"/>
       <use xlink:href="#DejaVuSans-77" x="177.099609"/>
       <use xlink:href="#DejaVuSans-61" x="258.886719"/>
       <use xlink:href="#DejaVuSans-79" x="320.166016"/>
      </g>
     </g>
    </g>
    <g id="xtick_13">
     <g id="line2d_13">
      <path d="M 726.90375 414 
L 726.90375 15.12 
" clip-path="url(#pea13d56ed9)" style="fill: none; stroke: #ffffff; stroke-linecap: round"/>
     </g>
     <g id="text_13">
      <!-- Denmark -->
      <g style="fill: #262626" transform="translate(729.663125 469.460938) rotate(-90) scale(0.1 -0.1)">
       <defs>
        <path id="DejaVuSans-44" d="M 1259 4147 
L 1259 519 
L 2022 519 
Q 2988 519 3436 956 
Q 3884 1394 3884 2338 
Q 3884 3275 3436 3711 
Q 2988 4147 2022 4147 
L 1259 4147 
z
M 628 4666 
L 1925 4666 
Q 3281 4666 3915 4102 
Q 4550 3538 4550 2338 
Q 4550 1131 3912 565 
Q 3275 0 1925 0 
L 628 0 
L 628 4666 
z
" transform="scale(0.015625)"/>
        <path id="DejaVuSans-6b" d="M 581 4863 
L 1159 4863 
L 1159 1991 
L 2875 3500 
L 3609 3500 
L 1753 1863 
L 3688 0 
L 2938 0 
L 1159 1709 
L 1159 0 
L 581 0 
L 581 4863 
z
" transform="scale(0.015625)"/>
       </defs>
       <use xlink:href="#DejaVuSans-44"/>
       <use xlink:href="#DejaVuSans-65" x="77.001953"/>
       <use xlink:href="#DejaVuSans-6e" x="138.525391"/>
       <use xlink:href="#DejaVuSans-6d" x="201.904297"/>
       <use xlink:href="#DejaVuSans-61" x="299.316406"/>
       <use xlink:href="#DejaVuSans-72" x="360.595703"/>
       <use xlink:href="#DejaVuSans-6b" x="401.708984"/>
      </g>
     </g>
    </g>
    <g id="xtick_14">
     <g id="line2d_14">
      <path d="M 781.56725 414 
L 781.56725 15.12 
" clip-path="url(#pea13d56ed9)" style="fill: none; stroke: #ffffff; stroke-linecap: round"/>
     </g>
     <g id="text_14">
      <!-- Italy -->
      <g style="fill: #262626" transform="translate(784.326625 445.195312) rotate(-90) scale(0.1 -0.1)">
       <defs>
        <path id="DejaVuSans-49" d="M 628 4666 
L 1259 4666 
L 1259 0 
L 628 0 
L 628 4666 
z
" transform="scale(0.015625)"/>
       </defs>
       <use xlink:href="#DejaVuSans-49"/>
       <use xlink:href="#DejaVuSans-74" x="29.492188"/>
       <use xlink:href="#DejaVuSans-61" x="68.701172"/>
       <use xlink:href="#DejaVuSans-6c" x="129.980469"/>
       <use xlink:href="#DejaVuSans-79" x="157.763672"/>
      </g>
     </g>
    </g>
    <g id="xtick_15">
     <g id="line2d_15">
      <path d="M 836.23075 414 
L 836.23075 15.12 
" clip-path="url(#pea13d56ed9)" style="fill: none; stroke: #ffffff; stroke-linecap: round"/>
     </g>
     <g id="text_15">
      <!-- Israel -->
      <g style="fill: #262626" transform="translate(838.990125 450.829687) rotate(-90) scale(0.1 -0.1)">
       <use xlink:href="#DejaVuSans-49"/>
       <use xlink:href="#DejaVuSans-73" x="29.492188"/>
       <use xlink:href="#DejaVuSans-72" x="81.591797"/>
       <use xlink:href="#DejaVuSans-61" x="122.705078"/>
       <use xlink:href="#DejaVuSans-65" x="183.984375"/>
       <use xlink:href="#DejaVuSans-6c" x="245.507812"/>
      </g>
     </g>
    </g>
    <g id="xtick_16">
     <g id="line2d_16">
      <path d="M 890.89425 414 
L 890.89425 15.12 
" clip-path="url(#pea13d56ed9)" style="fill: none; stroke: #ffffff; stroke-linecap: round"/>
     </g>
     <g id="text_16">
      <!-- Australia -->
      <g style="fill: #262626" transform="translate(893.653625 467.73125) rotate(-90) scale(0.1 -0.1)">
       <use xlink:href="#DejaVuSans-41"/>
       <use xlink:href="#DejaVuSans-75" x="68.408203"/>
       <use xlink:href="#DejaVuSans-73" x="131.787109"/>
       <use xlink:href="#DejaVuSans-74" x="183.886719"/>
       <use xlink:href="#DejaVuSans-72" x="223.095703"/>
       <use xlink:href="#DejaVuSans-61" x="264.208984"/>
       <use xlink:href="#DejaVuSans-6c" x="325.488281"/>
       <use xlink:href="#DejaVuSans-69" x="353.271484"/>
       <use xlink:href="#DejaVuSans-61" x="381.054688"/>
      </g>
     </g>
    </g>
    <g id="xtick_17">
     <g id="line2d_17">
      <path d="M 945.55775 414 
L 945.55775 15.12 
" clip-path="url(#pea13d56ed9)" style="fill: none; stroke: #ffffff; stroke-linecap: round"/>
     </g>
     <g id="text_17">
      <!-- Belgium -->
      <g style="fill: #262626" transform="translate(948.317125 464.496875) rotate(-90) scale(0.1 -0.1)">
       <defs>
        <path id="DejaVuSans-42" d="M 1259 2228 
L 1259 519 
L 2272 519 
Q 2781 519 3026 730 
Q 3272 941 3272 1375 
Q 3272 1813 3026 2020 
Q 2781 2228 2272 2228 
L 1259 2228 
z
M 1259 4147 
L 1259 2741 
L 2194 2741 
Q 2656 2741 2882 2914 
Q 3109 3088 3109 3444 
Q 3109 3797 2882 3972 
Q 2656 4147 2194 4147 
L 1259 4147 
z
M 628 4666 
L 2241 4666 
Q 2963 4666 3353 4366 
Q 3744 4066 3744 3513 
Q 3744 3084 3544 2831 
Q 3344 2578 2956 2516 
Q 3422 2416 3680 2098 
Q 3938 1781 3938 1306 
Q 3938 681 3513 340 
Q 3088 0 2303 0 
L 628 0 
L 628 4666 
z
" transform="scale(0.015625)"/>
       </defs>
       <use xlink:href="#DejaVuSans-42"/>
       <use xlink:href="#DejaVuSans-65" x="68.603516"/>
       <use xlink:href="#DejaVuSans-6c" x="130.126953"/>
       <use xlink:href="#DejaVuSans-67" x="157.910156"/>
       <use xlink:href="#DejaVuSans-69" x="221.386719"/>
       <use xlink:href="#DejaVuSans-75" x="249.169922"/>
       <use xlink:href="#DejaVuSans-6d" x="312.548828"/>
      </g>
     </g>
    </g>
    <g id="xtick_18">
     <g id="line2d_18">
      <path d="M 1000.22125 414 
L 1000.22125 15.12 
" clip-path="url(#pea13d56ed9)" style="fill: none; stroke: #ffffff; stroke-linecap: round"/>
     </g>
     <g id="text_18">
      <!-- Ireland -->
      <g style="fill: #262626" transform="translate(1002.980625 458.08125) rotate(-90) scale(0.1 -0.1)">
       <use xlink:href="#DejaVuSans-49"/>
       <use xlink:href="#DejaVuSans-72" x="29.492188"/>
       <use xlink:href="#DejaVuSans-65" x="68.355469"/>
       <use xlink:href="#DejaVuSans-6c" x="129.878906"/>
       <use xlink:href="#DejaVuSans-61" x="157.662109"/>
       <use xlink:href="#DejaVuSans-6e" x="218.941406"/>
       <use xlink:href="#DejaVuSans-64" x="282.320312"/>
      </g>
     </g>
    </g>
    <g id="xtick_19">
     <g id="line2d_19">
      <path d="M 1054.88475 414 
L 1054.88475 15.12 
" clip-path="url(#pea13d56ed9)" style="fill: none; stroke: #ffffff; stroke-linecap: round"/>
     </g>
     <g id="text_19">
      <!-- Hungary -->
      <g style="fill: #262626" transform="translate(1057.644125 466.201563) rotate(-90) scale(0.1 -0.1)">
       <defs>
        <path id="DejaVuSans-48" d="M 628 4666 
L 1259 4666 
L 1259 2753 
L 3553 2753 
L 3553 4666 
L 4184 4666 
L 4184 0 
L 3553 0 
L 3553 2222 
L 1259 2222 
L 1259 0 
L 628 0 
L 628 4666 
z
" transform="scale(0.015625)"/>
       </defs>
       <use xlink:href="#DejaVuSans-48"/>
       <use xlink:href="#DejaVuSans-75" x="75.195312"/>
       <use xlink:href="#DejaVuSans-6e" x="138.574219"/>
       <use xlink:href="#DejaVuSans-67" x="201.953125"/>
       <use xlink:href="#DejaVuSans-61" x="265.429688"/>
       <use xlink:href="#DejaVuSans-72" x="326.708984"/>
       <use xlink:href="#DejaVuSans-79" x="367.822266"/>
      </g>
     </g>
    </g>
    <g id="xtick_20">
     <g id="line2d_20">
      <path d="M 1109.54825 414 
L 1109.54825 15.12 
" clip-path="url(#pea13d56ed9)" style="fill: none; stroke: #ffffff; stroke-linecap: round"/>
     </g>
     <g id="text_20">
      <!-- South Africa -->
      <g style="fill: #262626" transform="translate(1112.307625 484.254687) rotate(-90) scale(0.1 -0.1)">
       <defs>
        <path id="DejaVuSans-66" d="M 2375 4863 
L 2375 4384 
L 1825 4384 
Q 1516 4384 1395 4259 
Q 1275 4134 1275 3809 
L 1275 3500 
L 2222 3500 
L 2222 3053 
L 1275 3053 
L 1275 0 
L 697 0 
L 697 3053 
L 147 3053 
L 147 3500 
L 697 3500 
L 697 3744 
Q 697 4328 969 4595 
Q 1241 4863 1831 4863 
L 2375 4863 
z
" transform="scale(0.015625)"/>
       </defs>
       <use xlink:href="#DejaVuSans-53"/>
       <use xlink:href="#DejaVuSans-6f" x="63.476562"/>
       <use xlink:href="#DejaVuSans-75" x="124.658203"/>
       <use xlink:href="#DejaVuSans-74" x="188.037109"/>
       <use xlink:href="#DejaVuSans-68" x="227.246094"/>
       <use xlink:href="#DejaVuSans-20" x="290.625"/>
       <use xlink:href="#DejaVuSans-41" x="322.412109"/>
       <use xlink:href="#DejaVuSans-66" x="387.195312"/>
       <use xlink:href="#DejaVuSans-72" x="422.400391"/>
       <use xlink:href="#DejaVuSans-69" x="463.513672"/>
       <use xlink:href="#DejaVuSans-63" x="491.296875"/>
       <use xlink:href="#DejaVuSans-61" x="546.277344"/>
      </g>
     </g>
    </g>
    <g id="text_21">
     <!-- country -->
     <g style="fill: #262626" transform="translate(567.299688 557.255625) scale(0.12 -0.12)">
      <use xlink:href="#DejaVuSans-63"/>
      <use xlink:href="#DejaVuSans-6f" x="54.980469"/>
      <use xlink:href="#DejaVuSans-75" x="116.162109"/>
      <use xlink:href="#DejaVuSans-6e" x="179.541016"/>
      <use xlink:href="#DejaVuSans-74" x="242.919922"/>
      <use xlink:href="#DejaVuSans-72" x="282.128906"/>
      <use xlink:href="#DejaVuSans-79" x="323.242188"/>
     </g>
    </g>
   </g>
   <g id="matplotlib.axis_2">
    <g id="ytick_1">
     <g id="line2d_21">
      <path d="M 43.61 414 
L 1136.88 414 
" clip-path="url(#pea13d56ed9)" style="fill: none; stroke: #ffffff; stroke-linecap: round"/>
     </g>
     <g id="text_22">
      <!-- 0 -->
      <g style="fill: #262626" transform="translate(27.7475 417.799219) scale(0.1 -0.1)">
       <defs>
        <path id="DejaVuSans-30" d="M 2034 4250 
Q 1547 4250 1301 3770 
Q 1056 3291 1056 2328 
Q 1056 1369 1301 889 
Q 1547 409 2034 409 
Q 2525 409 2770 889 
Q 3016 1369 3016 2328 
Q 3016 3291 2770 3770 
Q 2525 4250 2034 4250 
z
M 2034 4750 
Q 2819 4750 3233 4129 
Q 3647 3509 3647 2328 
Q 3647 1150 3233 529 
Q 2819 -91 2034 -91 
Q 1250 -91 836 529 
Q 422 1150 422 2328 
Q 422 3509 836 4129 
Q 1250 4750 2034 4750 
z
" transform="scale(0.015625)"/>
       </defs>
       <use xlink:href="#DejaVuSans-30"/>
      </g>
     </g>
    </g>
    <g id="ytick_2">
     <g id="line2d_22">
      <path d="M 43.61 363.348571 
L 1136.88 363.348571 
" clip-path="url(#pea13d56ed9)" style="fill: none; stroke: #ffffff; stroke-linecap: round"/>
     </g>
     <g id="text_23">
      <!-- 50 -->
      <g style="fill: #262626" transform="translate(21.385 367.14779) scale(0.1 -0.1)">
       <defs>
        <path id="DejaVuSans-35" d="M 691 4666 
L 3169 4666 
L 3169 4134 
L 1269 4134 
L 1269 2991 
Q 1406 3038 1543 3061 
Q 1681 3084 1819 3084 
Q 2600 3084 3056 2656 
Q 3513 2228 3513 1497 
Q 3513 744 3044 326 
Q 2575 -91 1722 -91 
Q 1428 -91 1123 -41 
Q 819 9 494 109 
L 494 744 
Q 775 591 1075 516 
Q 1375 441 1709 441 
Q 2250 441 2565 725 
Q 2881 1009 2881 1497 
Q 2881 1984 2565 2268 
Q 2250 2553 1709 2553 
Q 1456 2553 1204 2497 
Q 953 2441 691 2322 
L 691 4666 
z
" transform="scale(0.015625)"/>
       </defs>
       <use xlink:href="#DejaVuSans-35"/>
       <use xlink:href="#DejaVuSans-30" x="63.623047"/>
      </g>
     </g>
    </g>
    <g id="ytick_3">
     <g id="line2d_23">
      <path d="M 43.61 312.697143 
L 1136.88 312.697143 
" clip-path="url(#pea13d56ed9)" style="fill: none; stroke: #ffffff; stroke-linecap: round"/>
     </g>
     <g id="text_24">
      <!-- 100 -->
      <g style="fill: #262626" transform="translate(15.0225 316.496362) scale(0.1 -0.1)">
       <defs>
        <path id="DejaVuSans-31" d="M 794 531 
L 1825 531 
L 1825 4091 
L 703 3866 
L 703 4441 
L 1819 4666 
L 2450 4666 
L 2450 531 
L 3481 531 
L 3481 0 
L 794 0 
L 794 531 
z
" transform="scale(0.015625)"/>
       </defs>
       <use xlink:href="#DejaVuSans-31"/>
       <use xlink:href="#DejaVuSans-30" x="63.623047"/>
       <use xlink:href="#DejaVuSans-30" x="127.246094"/>
      </g>
     </g>
    </g>
    <g id="ytick_4">
     <g id="line2d_24">
      <path d="M 43.61 262.045714 
L 1136.88 262.045714 
" clip-path="url(#pea13d56ed9)" style="fill: none; stroke: #ffffff; stroke-linecap: round"/>
     </g>
     <g id="text_25">
      <!-- 150 -->
      <g style="fill: #262626" transform="translate(15.0225 265.844933) scale(0.1 -0.1)">
       <use xlink:href="#DejaVuSans-31"/>
       <use xlink:href="#DejaVuSans-35" x="63.623047"/>
       <use xlink:href="#DejaVuSans-30" x="127.246094"/>
      </g>
     </g>
    </g>
    <g id="ytick_5">
     <g id="line2d_25">
      <path d="M 43.61 211.394286 
L 1136.88 211.394286 
" clip-path="url(#pea13d56ed9)" style="fill: none; stroke: #ffffff; stroke-linecap: round"/>
     </g>
     <g id="text_26">
      <!-- 200 -->
      <g style="fill: #262626" transform="translate(15.0225 215.193504) scale(0.1 -0.1)">
       <defs>
        <path id="DejaVuSans-32" d="M 1228 531 
L 3431 531 
L 3431 0 
L 469 0 
L 469 531 
Q 828 903 1448 1529 
Q 2069 2156 2228 2338 
Q 2531 2678 2651 2914 
Q 2772 3150 2772 3378 
Q 2772 3750 2511 3984 
Q 2250 4219 1831 4219 
Q 1534 4219 1204 4116 
Q 875 4013 500 3803 
L 500 4441 
Q 881 4594 1212 4672 
Q 1544 4750 1819 4750 
Q 2544 4750 2975 4387 
Q 3406 4025 3406 3419 
Q 3406 3131 3298 2873 
Q 3191 2616 2906 2266 
Q 2828 2175 2409 1742 
Q 1991 1309 1228 531 
z
" transform="scale(0.015625)"/>
       </defs>
       <use xlink:href="#DejaVuSans-32"/>
       <use xlink:href="#DejaVuSans-30" x="63.623047"/>
       <use xlink:href="#DejaVuSans-30" x="127.246094"/>
      </g>
     </g>
    </g>
    <g id="ytick_6">
     <g id="line2d_26">
      <path d="M 43.61 160.742857 
L 1136.88 160.742857 
" clip-path="url(#pea13d56ed9)" style="fill: none; stroke: #ffffff; stroke-linecap: round"/>
     </g>
     <g id="text_27">
      <!-- 250 -->
      <g style="fill: #262626" transform="translate(15.0225 164.542076) scale(0.1 -0.1)">
       <use xlink:href="#DejaVuSans-32"/>
       <use xlink:href="#DejaVuSans-35" x="63.623047"/>
       <use xlink:href="#DejaVuSans-30" x="127.246094"/>
      </g>
     </g>
    </g>
    <g id="ytick_7">
     <g id="line2d_27">
      <path d="M 43.61 110.091429 
L 1136.88 110.091429 
" clip-path="url(#pea13d56ed9)" style="fill: none; stroke: #ffffff; stroke-linecap: round"/>
     </g>
     <g id="text_28">
      <!-- 300 -->
      <g style="fill: #262626" transform="translate(15.0225 113.890647) scale(0.1 -0.1)">
       <defs>
        <path id="DejaVuSans-33" d="M 2597 2516 
Q 3050 2419 3304 2112 
Q 3559 1806 3559 1356 
Q 3559 666 3084 287 
Q 2609 -91 1734 -91 
Q 1441 -91 1130 -33 
Q 819 25 488 141 
L 488 750 
Q 750 597 1062 519 
Q 1375 441 1716 441 
Q 2309 441 2620 675 
Q 2931 909 2931 1356 
Q 2931 1769 2642 2001 
Q 2353 2234 1838 2234 
L 1294 2234 
L 1294 2753 
L 1863 2753 
Q 2328 2753 2575 2939 
Q 2822 3125 2822 3475 
Q 2822 3834 2567 4026 
Q 2313 4219 1838 4219 
Q 1578 4219 1281 4162 
Q 984 4106 628 3988 
L 628 4550 
Q 988 4650 1302 4700 
Q 1616 4750 1894 4750 
Q 2613 4750 3031 4423 
Q 3450 4097 3450 3541 
Q 3450 3153 3228 2886 
Q 3006 2619 2597 2516 
z
" transform="scale(0.015625)"/>
       </defs>
       <use xlink:href="#DejaVuSans-33"/>
       <use xlink:href="#DejaVuSans-30" x="63.623047"/>
       <use xlink:href="#DejaVuSans-30" x="127.246094"/>
      </g>
     </g>
    </g>
    <g id="ytick_8">
     <g id="line2d_28">
      <path d="M 43.61 59.44 
L 1136.88 59.44 
" clip-path="url(#pea13d56ed9)" style="fill: none; stroke: #ffffff; stroke-linecap: round"/>
     </g>
     <g id="text_29">
      <!-- 350 -->
      <g style="fill: #262626" transform="translate(15.0225 63.239219) scale(0.1 -0.1)">
       <use xlink:href="#DejaVuSans-33"/>
       <use xlink:href="#DejaVuSans-35" x="63.623047"/>
       <use xlink:href="#DejaVuSans-30" x="127.246094"/>
      </g>
     </g>
    </g>
   </g>
   <g id="patch_3">
    <path d="M 57.275875 414 
L 84.607625 414 
L 84.607625 414 
L 57.275875 414 
z
" clip-path="url(#pea13d56ed9)" style="fill: #4c72b0; stroke: #ffffff; stroke-linejoin: miter"/>
   </g>
   <g id="patch_4">
    <path d="M 111.939375 414 
L 139.271125 414 
L 139.271125 414 
L 111.939375 414 
z
" clip-path="url(#pea13d56ed9)" style="fill: #4c72b0; stroke: #ffffff; stroke-linejoin: miter"/>
   </g>
   <g id="patch_5">
    <path d="M 166.602875 414 
L 193.934625 414 
L 193.934625 399.528163 
L 166.602875 399.528163 
z
" clip-path="url(#pea13d56ed9)" style="fill: #4c72b0; stroke: #ffffff; stroke-linejoin: miter"/>
   </g>
   <g id="patch_6">
    <path d="M 221.266375 414 
L 248.598125 414 
L 248.598125 414 
L 221.266375 414 
z
" clip-path="url(#pea13d56ed9)" style="fill: #4c72b0; stroke: #ffffff; stroke-linejoin: miter"/>
   </g>
   <g id="patch_7">
    <path d="M 275.929875 414 
L 303.261625 414 
L 303.261625 393.739429 
L 275.929875 393.739429 
z
" clip-path="url(#pea13d56ed9)" style="fill: #4c72b0; stroke: #ffffff; stroke-linejoin: miter"/>
   </g>
   <g id="patch_8">
    <path d="M 330.593375 414 
L 357.925125 414 
L 357.925125 414 
L 330.593375 414 
z
" clip-path="url(#pea13d56ed9)" style="fill: #4c72b0; stroke: #ffffff; stroke-linejoin: miter"/>
   </g>
   <g id="patch_9">
    <path d="M 385.256875 414 
L 412.588625 414 
L 412.588625 414 
L 385.256875 414 
z
" clip-path="url(#pea13d56ed9)" style="fill: #4c72b0; stroke: #ffffff; stroke-linejoin: miter"/>
   </g>
   <g id="patch_10">
    <path d="M 439.920375 414 
L 467.252125 414 
L 467.252125 414 
L 439.920375 414 
z
" clip-path="url(#pea13d56ed9)" style="fill: #4c72b0; stroke: #ffffff; stroke-linejoin: miter"/>
   </g>
   <g id="patch_11">
    <path d="M 494.583875 414 
L 521.915625 414 
L 521.915625 399.528163 
L 494.583875 399.528163 
z
" clip-path="url(#pea13d56ed9)" style="fill: #4c72b0; stroke: #ffffff; stroke-linejoin: miter"/>
   </g>
   <g id="patch_12">
    <path d="M 549.247375 414 
L 576.579125 414 
L 576.579125 414 
L 549.247375 414 
z
" clip-path="url(#pea13d56ed9)" style="fill: #4c72b0; stroke: #ffffff; stroke-linejoin: miter"/>
   </g>
   <g id="patch_13">
    <path d="M 603.910875 414 
L 631.242625 414 
L 631.242625 397.11619 
L 603.910875 397.11619 
z
" clip-path="url(#pea13d56ed9)" style="fill: #4c72b0; stroke: #ffffff; stroke-linejoin: miter"/>
   </g>
   <g id="patch_14">
    <path d="M 658.574375 414 
L 685.906125 414 
L 685.906125 414 
L 658.574375 414 
z
" clip-path="url(#pea13d56ed9)" style="fill: #4c72b0; stroke: #ffffff; stroke-linejoin: miter"/>
   </g>
   <g id="patch_15">
    <path d="M 713.237875 414 
L 740.569625 414 
L 740.569625 414 
L 713.237875 414 
z
" clip-path="url(#pea13d56ed9)" style="fill: #4c72b0; stroke: #ffffff; stroke-linejoin: miter"/>
   </g>
   <g id="patch_16">
    <path d="M 767.901375 414 
L 795.233125 414 
L 795.233125 414 
L 767.901375 414 
z
" clip-path="url(#pea13d56ed9)" style="fill: #4c72b0; stroke: #ffffff; stroke-linejoin: miter"/>
   </g>
   <g id="patch_17">
    <path d="M 822.564875 414 
L 849.896625 414 
L 849.896625 414 
L 822.564875 414 
z
" clip-path="url(#pea13d56ed9)" style="fill: #4c72b0; stroke: #ffffff; stroke-linejoin: miter"/>
   </g>
   <g id="patch_18">
    <path d="M 877.228375 414 
L 904.560125 414 
L 904.560125 414 
L 877.228375 414 
z
" clip-path="url(#pea13d56ed9)" style="fill: #4c72b0; stroke: #ffffff; stroke-linejoin: miter"/>
   </g>
   <g id="patch_19">
    <path d="M 931.891875 414 
L 959.223625 414 
L 959.223625 414 
L 931.891875 414 
z
" clip-path="url(#pea13d56ed9)" style="fill: #4c72b0; stroke: #ffffff; stroke-linejoin: miter"/>
   </g>
   <g id="patch_20">
    <path d="M 986.555375 414 
L 1013.887125 414 
L 1013.887125 414 
L 986.555375 414 
z
" clip-path="url(#pea13d56ed9)" style="fill: #4c72b0; stroke: #ffffff; stroke-linejoin: miter"/>
   </g>
   <g id="patch_21">
    <path d="M 1041.218875 414 
L 1068.550625 414 
L 1068.550625 414 
L 1041.218875 414 
z
" clip-path="url(#pea13d56ed9)" style="fill: #4c72b0; stroke: #ffffff; stroke-linejoin: miter"/>
   </g>
   <g id="patch_22">
    <path d="M 1095.882375 414 
L 1123.214125 414 
L 1123.214125 414 
L 1095.882375 414 
z
" clip-path="url(#pea13d56ed9)" style="fill: #4c72b0; stroke: #ffffff; stroke-linejoin: miter"/>
   </g>
   <g id="patch_23">
    <path d="M 1150.545875 414 
L 1177.877625 414 
L 1177.877625 414 
L 1150.545875 414 
z
" clip-path="url(#pea13d56ed9)" style="fill: #4c72b0; stroke: #ffffff; stroke-linejoin: miter"/>
   </g>
   <g id="patch_24">
    <path d="M 1205.209375 414 
L 1232.541125 414 
L 1232.541125 414 
L 1205.209375 414 
z
" clip-path="url(#pea13d56ed9)" style="fill: #4c72b0; stroke: #ffffff; stroke-linejoin: miter"/>
   </g>
   <g id="patch_25">
    <path d="M 1259.872875 414 
L 1287.204625 414 
L 1287.204625 414 
L 1259.872875 414 
z
" clip-path="url(#pea13d56ed9)" style="fill: #4c72b0; stroke: #ffffff; stroke-linejoin: miter"/>
   </g>
   <g id="patch_26">
    <path d="M 1314.536375 414 
L 1341.868125 414 
L 1341.868125 414 
L 1314.536375 414 
z
" clip-path="url(#pea13d56ed9)" style="fill: #4c72b0; stroke: #ffffff; stroke-linejoin: miter"/>
   </g>
   <g id="patch_27">
    <path d="M 1369.199875 414 
L 1396.531625 414 
L 1396.531625 414 
L 1369.199875 414 
z
" clip-path="url(#pea13d56ed9)" style="fill: #4c72b0; stroke: #ffffff; stroke-linejoin: miter"/>
   </g>
   <g id="patch_28">
    <path d="M 1423.863375 414 
L 1451.195125 414 
L 1451.195125 397.11619 
L 1423.863375 397.11619 
z
" clip-path="url(#pea13d56ed9)" style="fill: #4c72b0; stroke: #ffffff; stroke-linejoin: miter"/>
   </g>
   <g id="patch_29">
    <path d="M 1478.526875 414 
L 1505.858625 414 
L 1505.858625 414 
L 1478.526875 414 
z
" clip-path="url(#pea13d56ed9)" style="fill: #4c72b0; stroke: #ffffff; stroke-linejoin: miter"/>
   </g>
   <g id="patch_30">
    <path d="M 1533.190375 414 
L 1560.522125 414 
L 1560.522125 388.674286 
L 1533.190375 388.674286 
z
" clip-path="url(#pea13d56ed9)" style="fill: #4c72b0; stroke: #ffffff; stroke-linejoin: miter"/>
   </g>
   <g id="patch_31">
    <path d="M 1587.853875 414 
L 1615.185625 414 
L 1615.185625 414 
L 1587.853875 414 
z
" clip-path="url(#pea13d56ed9)" style="fill: #4c72b0; stroke: #ffffff; stroke-linejoin: miter"/>
   </g>
   <g id="patch_32">
    <path d="M 1642.517375 414 
L 1669.849125 414 
L 1669.849125 414 
L 1642.517375 414 
z
" clip-path="url(#pea13d56ed9)" style="fill: #4c72b0; stroke: #ffffff; stroke-linejoin: miter"/>
   </g>
   <g id="patch_33">
    <path d="M 1697.180875 414 
L 1724.512625 414 
L 1724.512625 397.11619 
L 1697.180875 397.11619 
z
" clip-path="url(#pea13d56ed9)" style="fill: #4c72b0; stroke: #ffffff; stroke-linejoin: miter"/>
   </g>
   <g id="patch_34">
    <path d="M 1751.844375 414 
L 1779.176125 414 
L 1779.176125 414 
L 1751.844375 414 
z
" clip-path="url(#pea13d56ed9)" style="fill: #4c72b0; stroke: #ffffff; stroke-linejoin: miter"/>
   </g>
   <g id="patch_35">
    <path d="M 1806.507875 414 
L 1833.839625 414 
L 1833.839625 414 
L 1806.507875 414 
z
" clip-path="url(#pea13d56ed9)" style="fill: #4c72b0; stroke: #ffffff; stroke-linejoin: miter"/>
   </g>
   <g id="patch_36">
    <path d="M 1861.171375 414 
L 1888.503125 414 
L 1888.503125 414 
L 1861.171375 414 
z
" clip-path="url(#pea13d56ed9)" style="fill: #4c72b0; stroke: #ffffff; stroke-linejoin: miter"/>
   </g>
   <g id="patch_37">
    <path d="M 1915.834875 414 
L 1943.166625 414 
L 1943.166625 393.739429 
L 1915.834875 393.739429 
z
" clip-path="url(#pea13d56ed9)" style="fill: #4c72b0; stroke: #ffffff; stroke-linejoin: miter"/>
   </g>
   <g id="patch_38">
    <path d="M 1970.498375 414 
L 1997.830125 414 
L 1997.830125 414 
L 1970.498375 414 
z
" clip-path="url(#pea13d56ed9)" style="fill: #4c72b0; stroke: #ffffff; stroke-linejoin: miter"/>
   </g>
   <g id="patch_39">
    <path d="M 2025.161875 414 
L 2052.493625 414 
L 2052.493625 414 
L 2025.161875 414 
z
" clip-path="url(#pea13d56ed9)" style="fill: #4c72b0; stroke: #ffffff; stroke-linejoin: miter"/>
   </g>
   <g id="patch_40">
    <path d="M 2079.825375 414 
L 2107.157125 414 
L 2107.157125 388.674286 
L 2079.825375 388.674286 
z
" clip-path="url(#pea13d56ed9)" style="fill: #4c72b0; stroke: #ffffff; stroke-linejoin: miter"/>
   </g>
   <g id="patch_41">
    <path d="M 2134.488875 414 
L 2161.820625 414 
L 2161.820625 414 
L 2134.488875 414 
z
" clip-path="url(#pea13d56ed9)" style="fill: #4c72b0; stroke: #ffffff; stroke-linejoin: miter"/>
   </g>
   <g id="patch_42">
    <path d="M 2189.152375 414 
L 2216.484125 414 
L 2216.484125 414 
L 2189.152375 414 
z
" clip-path="url(#pea13d56ed9)" style="fill: #4c72b0; stroke: #ffffff; stroke-linejoin: miter"/>
   </g>
   <g id="patch_43">
    <path d="M 2243.815875 414 
L 2271.147625 414 
L 2271.147625 414 
L 2243.815875 414 
z
" clip-path="url(#pea13d56ed9)" style="fill: #4c72b0; stroke: #ffffff; stroke-linejoin: miter"/>
   </g>
   <g id="patch_44">
    <path d="M 2298.479375 414 
L 2325.811125 414 
L 2325.811125 414 
L 2298.479375 414 
z
" clip-path="url(#pea13d56ed9)" style="fill: #4c72b0; stroke: #ffffff; stroke-linejoin: miter"/>
   </g>
   <g id="patch_45">
    <path d="M 2353.142875 414 
L 2380.474625 414 
L 2380.474625 414 
L 2353.142875 414 
z
" clip-path="url(#pea13d56ed9)" style="fill: #4c72b0; stroke: #ffffff; stroke-linejoin: miter"/>
   </g>
   <g id="patch_46">
    <path d="M 2407.806375 414 
L 2435.138125 414 
L 2435.138125 414 
L 2407.806375 414 
z
" clip-path="url(#pea13d56ed9)" style="fill: #4c72b0; stroke: #ffffff; stroke-linejoin: miter"/>
   </g>
   <g id="patch_47">
    <path d="M 2462.469875 414 
L 2489.801625 414 
L 2489.801625 397.11619 
L 2462.469875 397.11619 
z
" clip-path="url(#pea13d56ed9)" style="fill: #4c72b0; stroke: #ffffff; stroke-linejoin: miter"/>
   </g>
   <g id="patch_48">
    <path d="M 2517.133375 414 
L 2544.465125 414 
L 2544.465125 401.337143 
L 2517.133375 401.337143 
z
" clip-path="url(#pea13d56ed9)" style="fill: #4c72b0; stroke: #ffffff; stroke-linejoin: miter"/>
   </g>
   <g id="patch_49">
    <path d="M 2571.796875 414 
L 2599.128625 414 
L 2599.128625 397.11619 
L 2571.796875 397.11619 
z
" clip-path="url(#pea13d56ed9)" style="fill: #4c72b0; stroke: #ffffff; stroke-linejoin: miter"/>
   </g>
   <g id="patch_50">
    <path d="M 2626.460375 414 
L 2653.792125 414 
L 2653.792125 414 
L 2626.460375 414 
z
" clip-path="url(#pea13d56ed9)" style="fill: #4c72b0; stroke: #ffffff; stroke-linejoin: miter"/>
   </g>
   <g id="patch_51">
    <path d="M 2681.123875 414 
L 2708.455625 414 
L 2708.455625 414 
L 2681.123875 414 
z
" clip-path="url(#pea13d56ed9)" style="fill: #4c72b0; stroke: #ffffff; stroke-linejoin: miter"/>
   </g>
   <g id="patch_52">
    <path d="M 2735.787375 414 
L 2763.119125 414 
L 2763.119125 414 
L 2735.787375 414 
z
" clip-path="url(#pea13d56ed9)" style="fill: #4c72b0; stroke: #ffffff; stroke-linejoin: miter"/>
   </g>
   <g id="patch_53">
    <path d="M 2790.450875 414 
L 2817.782625 414 
L 2817.782625 414 
L 2790.450875 414 
z
" clip-path="url(#pea13d56ed9)" style="fill: #4c72b0; stroke: #ffffff; stroke-linejoin: miter"/>
   </g>
   <g id="patch_54">
    <path d="M 2845.114375 414 
L 2872.446125 414 
L 2872.446125 414 
L 2845.114375 414 
z
" clip-path="url(#pea13d56ed9)" style="fill: #4c72b0; stroke: #ffffff; stroke-linejoin: miter"/>
   </g>
   <g id="patch_55">
    <path d="M 2899.777875 414 
L 2927.109625 414 
L 2927.109625 414 
L 2899.777875 414 
z
" clip-path="url(#pea13d56ed9)" style="fill: #4c72b0; stroke: #ffffff; stroke-linejoin: miter"/>
   </g>
   <g id="patch_56">
    <path d="M 2954.441375 414 
L 2981.773125 414 
L 2981.773125 414 
L 2954.441375 414 
z
" clip-path="url(#pea13d56ed9)" style="fill: #4c72b0; stroke: #ffffff; stroke-linejoin: miter"/>
   </g>
   <g id="patch_57">
    <path d="M 3009.104875 414 
L 3036.436625 414 
L 3036.436625 414 
L 3009.104875 414 
z
" clip-path="url(#pea13d56ed9)" style="fill: #4c72b0; stroke: #ffffff; stroke-linejoin: miter"/>
   </g>
   <g id="patch_58">
    <path d="M 3063.768375 414 
L 3091.100125 414 
L 3091.100125 414 
L 3063.768375 414 
z
" clip-path="url(#pea13d56ed9)" style="fill: #4c72b0; stroke: #ffffff; stroke-linejoin: miter"/>
   </g>
   <g id="patch_59">
    <path d="M 3118.431875 414 
L 3145.763625 414 
L 3145.763625 414 
L 3118.431875 414 
z
" clip-path="url(#pea13d56ed9)" style="fill: #4c72b0; stroke: #ffffff; stroke-linejoin: miter"/>
   </g>
   <g id="patch_60">
    <path d="M 3173.095375 414 
L 3200.427125 414 
L 3200.427125 414 
L 3173.095375 414 
z
" clip-path="url(#pea13d56ed9)" style="fill: #4c72b0; stroke: #ffffff; stroke-linejoin: miter"/>
   </g>
   <g id="patch_61">
    <path d="M 3227.758875 414 
L 3255.090625 414 
L 3255.090625 414 
L 3227.758875 414 
z
" clip-path="url(#pea13d56ed9)" style="fill: #4c72b0; stroke: #ffffff; stroke-linejoin: miter"/>
   </g>
   <g id="patch_62">
    <path d="M 3282.422375 414 
L 3309.754125 414 
L 3309.754125 414 
L 3282.422375 414 
z
" clip-path="url(#pea13d56ed9)" style="fill: #4c72b0; stroke: #ffffff; stroke-linejoin: miter"/>
   </g>
   <g id="patch_63">
    <path d="M 3337.085875 414 
L 3364.417625 414 
L 3364.417625 414 
L 3337.085875 414 
z
" clip-path="url(#pea13d56ed9)" style="fill: #4c72b0; stroke: #ffffff; stroke-linejoin: miter"/>
   </g>
   <g id="patch_64">
    <path d="M 3391.749375 414 
L 3419.081125 414 
L 3419.081125 414 
L 3391.749375 414 
z
" clip-path="url(#pea13d56ed9)" style="fill: #4c72b0; stroke: #ffffff; stroke-linejoin: miter"/>
   </g>
   <g id="patch_65">
    <path d="M 3446.412875 414 
L 3473.744625 414 
L 3473.744625 402.744127 
L 3446.412875 402.744127 
z
" clip-path="url(#pea13d56ed9)" style="fill: #4c72b0; stroke: #ffffff; stroke-linejoin: miter"/>
   </g>
   <g id="patch_66">
    <path d="M 3501.076375 414 
L 3528.408125 414 
L 3528.408125 402.744127 
L 3501.076375 402.744127 
z
" clip-path="url(#pea13d56ed9)" style="fill: #4c72b0; stroke: #ffffff; stroke-linejoin: miter"/>
   </g>
   <g id="patch_67">
    <path d="M 3555.739875 414 
L 3583.071625 414 
L 3583.071625 414 
L 3555.739875 414 
z
" clip-path="url(#pea13d56ed9)" style="fill: #4c72b0; stroke: #ffffff; stroke-linejoin: miter"/>
   </g>
   <g id="patch_68">
    <path d="M 3610.403375 414 
L 3637.735125 414 
L 3637.735125 397.11619 
L 3610.403375 397.11619 
z
" clip-path="url(#pea13d56ed9)" style="fill: #4c72b0; stroke: #ffffff; stroke-linejoin: miter"/>
   </g>
   <g id="patch_69">
    <path d="M 3665.066875 414 
L 3692.398625 414 
L 3692.398625 414 
L 3665.066875 414 
z
" clip-path="url(#pea13d56ed9)" style="fill: #4c72b0; stroke: #ffffff; stroke-linejoin: miter"/>
   </g>
   <g id="patch_70">
    <path d="M 3719.730375 414 
L 3747.062125 414 
L 3747.062125 414 
L 3719.730375 414 
z
" clip-path="url(#pea13d56ed9)" style="fill: #4c72b0; stroke: #ffffff; stroke-linejoin: miter"/>
   </g>
   <g id="patch_71">
    <path d="M 3774.393875 414 
L 3801.725625 414 
L 3801.725625 414 
L 3774.393875 414 
z
" clip-path="url(#pea13d56ed9)" style="fill: #4c72b0; stroke: #ffffff; stroke-linejoin: miter"/>
   </g>
   <g id="patch_72">
    <path d="M 3829.057375 414 
L 3856.389125 414 
L 3856.389125 414 
L 3829.057375 414 
z
" clip-path="url(#pea13d56ed9)" style="fill: #4c72b0; stroke: #ffffff; stroke-linejoin: miter"/>
   </g>
   <g id="patch_73">
    <path d="M 3883.720875 414 
L 3911.052625 414 
L 3911.052625 414 
L 3883.720875 414 
z
" clip-path="url(#pea13d56ed9)" style="fill: #4c72b0; stroke: #ffffff; stroke-linejoin: miter"/>
   </g>
   <g id="patch_74">
    <path d="M 3938.384375 414 
L 3965.716125 414 
L 3965.716125 414 
L 3938.384375 414 
z
" clip-path="url(#pea13d56ed9)" style="fill: #4c72b0; stroke: #ffffff; stroke-linejoin: miter"/>
   </g>
   <g id="patch_75">
    <path d="M 3993.047875 414 
L 4020.379625 414 
L 4020.379625 414 
L 3993.047875 414 
z
" clip-path="url(#pea13d56ed9)" style="fill: #4c72b0; stroke: #ffffff; stroke-linejoin: miter"/>
   </g>
   <g id="patch_76">
    <path d="M 4047.711375 414 
L 4075.043125 414 
L 4075.043125 414 
L 4047.711375 414 
z
" clip-path="url(#pea13d56ed9)" style="fill: #4c72b0; stroke: #ffffff; stroke-linejoin: miter"/>
   </g>
   <g id="patch_77">
    <path d="M 4102.374875 414 
L 4129.706625 414 
L 4129.706625 414 
L 4102.374875 414 
z
" clip-path="url(#pea13d56ed9)" style="fill: #4c72b0; stroke: #ffffff; stroke-linejoin: miter"/>
   </g>
   <g id="patch_78">
    <path d="M 4157.038375 414 
L 4184.370125 414 
L 4184.370125 391.488254 
L 4157.038375 391.488254 
z
" clip-path="url(#pea13d56ed9)" style="fill: #4c72b0; stroke: #ffffff; stroke-linejoin: miter"/>
   </g>
   <g id="patch_79">
    <path d="M 4211.701875 414 
L 4239.033625 414 
L 4239.033625 403.869714 
L 4211.701875 403.869714 
z
" clip-path="url(#pea13d56ed9)" style="fill: #4c72b0; stroke: #ffffff; stroke-linejoin: miter"/>
   </g>
   <g id="patch_80">
    <path d="M 4266.365375 414 
L 4293.697125 414 
L 4293.697125 414 
L 4266.365375 414 
z
" clip-path="url(#pea13d56ed9)" style="fill: #4c72b0; stroke: #ffffff; stroke-linejoin: miter"/>
   </g>
   <g id="patch_81">
    <path d="M 4321.028875 414 
L 4348.360625 414 
L 4348.360625 404.790649 
L 4321.028875 404.790649 
z
" clip-path="url(#pea13d56ed9)" style="fill: #4c72b0; stroke: #ffffff; stroke-linejoin: miter"/>
   </g>
   <g id="patch_82">
    <path d="M 4375.692375 414 
L 4403.024125 414 
L 4403.024125 414 
L 4375.692375 414 
z
" clip-path="url(#pea13d56ed9)" style="fill: #4c72b0; stroke: #ffffff; stroke-linejoin: miter"/>
   </g>
   <g id="patch_83">
    <path d="M 4430.355875 414 
L 4457.687625 414 
L 4457.687625 414 
L 4430.355875 414 
z
" clip-path="url(#pea13d56ed9)" style="fill: #4c72b0; stroke: #ffffff; stroke-linejoin: miter"/>
   </g>
   <g id="patch_84">
    <path d="M 4485.019375 414 
L 4512.351125 414 
L 4512.351125 402.744127 
L 4485.019375 402.744127 
z
" clip-path="url(#pea13d56ed9)" style="fill: #4c72b0; stroke: #ffffff; stroke-linejoin: miter"/>
   </g>
   <g id="patch_85">
    <path d="M 4539.682875 414 
L 4567.014625 414 
L 4567.014625 399.528163 
L 4539.682875 399.528163 
z
" clip-path="url(#pea13d56ed9)" style="fill: #4c72b0; stroke: #ffffff; stroke-linejoin: miter"/>
   </g>
   <g id="patch_86">
    <path d="M 4594.346375 414 
L 4621.678125 414 
L 4621.678125 414 
L 4594.346375 414 
z
" clip-path="url(#pea13d56ed9)" style="fill: #4c72b0; stroke: #ffffff; stroke-linejoin: miter"/>
   </g>
   <g id="patch_87">
    <path d="M 4649.009875 414 
L 4676.341625 414 
L 4676.341625 414 
L 4649.009875 414 
z
" clip-path="url(#pea13d56ed9)" style="fill: #4c72b0; stroke: #ffffff; stroke-linejoin: miter"/>
   </g>
   <g id="patch_88">
    <path d="M 4703.673375 414 
L 4731.005125 414 
L 4731.005125 404.790649 
L 4703.673375 404.790649 
z
" clip-path="url(#pea13d56ed9)" style="fill: #4c72b0; stroke: #ffffff; stroke-linejoin: miter"/>
   </g>
   <g id="patch_89">
    <path d="M 4758.336875 414 
L 4785.668625 414 
L 4785.668625 414 
L 4758.336875 414 
z
" clip-path="url(#pea13d56ed9)" style="fill: #4c72b0; stroke: #ffffff; stroke-linejoin: miter"/>
   </g>
   <g id="patch_90">
    <path d="M 4813.000375 414 
L 4840.332125 414 
L 4840.332125 404.790649 
L 4813.000375 404.790649 
z
" clip-path="url(#pea13d56ed9)" style="fill: #4c72b0; stroke: #ffffff; stroke-linejoin: miter"/>
   </g>
   <g id="patch_91">
    <path d="M 4867.663875 414 
L 4894.995625 414 
L 4894.995625 414 
L 4867.663875 414 
z
" clip-path="url(#pea13d56ed9)" style="fill: #4c72b0; stroke: #ffffff; stroke-linejoin: miter"/>
   </g>
   <g id="patch_92">
    <path d="M 4922.327375 414 
L 4949.659125 414 
L 4949.659125 414 
L 4922.327375 414 
z
" clip-path="url(#pea13d56ed9)" style="fill: #4c72b0; stroke: #ffffff; stroke-linejoin: miter"/>
   </g>
   <g id="patch_93">
    <path d="M 4976.990875 414 
L 5004.322625 414 
L 5004.322625 385.056327 
L 4976.990875 385.056327 
z
" clip-path="url(#pea13d56ed9)" style="fill: #4c72b0; stroke: #ffffff; stroke-linejoin: miter"/>
   </g>
   <g id="patch_94">
    <path d="M 5031.654375 414 
L 5058.986125 414 
L 5058.986125 399.528163 
L 5031.654375 399.528163 
z
" clip-path="url(#pea13d56ed9)" style="fill: #4c72b0; stroke: #ffffff; stroke-linejoin: miter"/>
   </g>
   <g id="patch_95">
    <path d="M 5086.317875 414 
L 5113.649625 414 
L 5113.649625 404.790649 
L 5086.317875 404.790649 
z
" clip-path="url(#pea13d56ed9)" style="fill: #4c72b0; stroke: #ffffff; stroke-linejoin: miter"/>
   </g>
   <g id="patch_96">
    <path d="M 5140.981375 414 
L 5168.313125 414 
L 5168.313125 414 
L 5140.981375 414 
z
" clip-path="url(#pea13d56ed9)" style="fill: #4c72b0; stroke: #ffffff; stroke-linejoin: miter"/>
   </g>
   <g id="patch_97">
    <path d="M 5195.644875 414 
L 5222.976625 414 
L 5222.976625 404.790649 
L 5195.644875 404.790649 
z
" clip-path="url(#pea13d56ed9)" style="fill: #4c72b0; stroke: #ffffff; stroke-linejoin: miter"/>
   </g>
   <g id="patch_98">
    <path d="M 5250.308375 414 
L 5277.640125 414 
L 5277.640125 406.764082 
L 5250.308375 406.764082 
z
" clip-path="url(#pea13d56ed9)" style="fill: #4c72b0; stroke: #ffffff; stroke-linejoin: miter"/>
   </g>
   <g id="patch_99">
    <path d="M 5304.971875 414 
L 5332.303625 414 
L 5332.303625 404.790649 
L 5304.971875 404.790649 
z
" clip-path="url(#pea13d56ed9)" style="fill: #4c72b0; stroke: #ffffff; stroke-linejoin: miter"/>
   </g>
   <g id="patch_100">
    <path d="M 5359.635375 414 
L 5386.967125 414 
L 5386.967125 414 
L 5359.635375 414 
z
" clip-path="url(#pea13d56ed9)" style="fill: #4c72b0; stroke: #ffffff; stroke-linejoin: miter"/>
   </g>
   <g id="patch_101">
    <path d="M 5414.298875 414 
L 5441.630625 414 
L 5441.630625 414 
L 5414.298875 414 
z
" clip-path="url(#pea13d56ed9)" style="fill: #4c72b0; stroke: #ffffff; stroke-linejoin: miter"/>
   </g>
   <g id="patch_102">
    <path d="M 5468.962375 414 
L 5496.294125 414 
L 5496.294125 414 
L 5468.962375 414 
z
" clip-path="url(#pea13d56ed9)" style="fill: #4c72b0; stroke: #ffffff; stroke-linejoin: miter"/>
   </g>
   <g id="patch_103">
    <path d="M 5523.625875 414 
L 5550.957625 414 
L 5550.957625 414 
L 5523.625875 414 
z
" clip-path="url(#pea13d56ed9)" style="fill: #4c72b0; stroke: #ffffff; stroke-linejoin: miter"/>
   </g>
   <g id="patch_104">
    <path d="M 5578.289375 414 
L 5605.621125 414 
L 5605.621125 414 
L 5578.289375 414 
z
" clip-path="url(#pea13d56ed9)" style="fill: #4c72b0; stroke: #ffffff; stroke-linejoin: miter"/>
   </g>
   <g id="patch_105">
    <path d="M 5632.952875 414 
L 5660.284625 414 
L 5660.284625 404.790649 
L 5632.952875 404.790649 
z
" clip-path="url(#pea13d56ed9)" style="fill: #4c72b0; stroke: #ffffff; stroke-linejoin: miter"/>
   </g>
   <g id="patch_106">
    <path d="M 5687.616375 414 
L 5714.948125 414 
L 5714.948125 388.674286 
L 5687.616375 388.674286 
z
" clip-path="url(#pea13d56ed9)" style="fill: #4c72b0; stroke: #ffffff; stroke-linejoin: miter"/>
   </g>
   <g id="patch_107">
    <path d="M 5742.279875 414 
L 5769.611625 414 
L 5769.611625 414 
L 5742.279875 414 
z
" clip-path="url(#pea13d56ed9)" style="fill: #4c72b0; stroke: #ffffff; stroke-linejoin: miter"/>
   </g>
   <g id="patch_108">
    <path d="M 5796.943375 414 
L 5824.275125 414 
L 5824.275125 414 
L 5796.943375 414 
z
" clip-path="url(#pea13d56ed9)" style="fill: #4c72b0; stroke: #ffffff; stroke-linejoin: miter"/>
   </g>
   <g id="patch_109">
    <path d="M 5851.606875 414 
L 5878.938625 414 
L 5878.938625 404.790649 
L 5851.606875 404.790649 
z
" clip-path="url(#pea13d56ed9)" style="fill: #4c72b0; stroke: #ffffff; stroke-linejoin: miter"/>
   </g>
   <g id="patch_110">
    <path d="M 5906.270375 414 
L 5933.602125 414 
L 5933.602125 405.558095 
L 5906.270375 405.558095 
z
" clip-path="url(#pea13d56ed9)" style="fill: #4c72b0; stroke: #ffffff; stroke-linejoin: miter"/>
   </g>
   <g id="patch_111">
    <path d="M 5960.933875 414 
L 5988.265625 414 
L 5988.265625 375.037363 
L 5960.933875 375.037363 
z
" clip-path="url(#pea13d56ed9)" style="fill: #4c72b0; stroke: #ffffff; stroke-linejoin: miter"/>
   </g>
   <g id="patch_112">
    <path d="M 6015.597375 414 
L 6042.929125 414 
L 6042.929125 414 
L 6015.597375 414 
z
" clip-path="url(#pea13d56ed9)" style="fill: #4c72b0; stroke: #ffffff; stroke-linejoin: miter"/>
   </g>
   <g id="patch_113">
    <path d="M 6070.260875 414 
L 6097.592625 414 
L 6097.592625 392.292245 
L 6070.260875 392.292245 
z
" clip-path="url(#pea13d56ed9)" style="fill: #4c72b0; stroke: #ffffff; stroke-linejoin: miter"/>
   </g>
   <g id="patch_114">
    <path d="M 6124.924375 414 
L 6152.256125 414 
L 6152.256125 414 
L 6124.924375 414 
z
" clip-path="url(#pea13d56ed9)" style="fill: #4c72b0; stroke: #ffffff; stroke-linejoin: miter"/>
   </g>
   <g id="patch_115">
    <path d="M 6179.587875 414 
L 6206.919625 414 
L 6206.919625 405.558095 
L 6179.587875 405.558095 
z
" clip-path="url(#pea13d56ed9)" style="fill: #4c72b0; stroke: #ffffff; stroke-linejoin: miter"/>
   </g>
   <g id="patch_116">
    <path d="M 6234.251375 414 
L 6261.583125 414 
L 6261.583125 398.414945 
L 6234.251375 398.414945 
z
" clip-path="url(#pea13d56ed9)" style="fill: #4c72b0; stroke: #ffffff; stroke-linejoin: miter"/>
   </g>
   <g id="patch_117">
    <path d="M 6288.914875 414 
L 6316.246625 414 
L 6316.246625 393.739429 
L 6288.914875 393.739429 
z
" clip-path="url(#pea13d56ed9)" style="fill: #4c72b0; stroke: #ffffff; stroke-linejoin: miter"/>
   </g>
   <g id="patch_118">
    <path d="M 6343.578375 414 
L 6370.910125 414 
L 6370.910125 414 
L 6343.578375 414 
z
" clip-path="url(#pea13d56ed9)" style="fill: #4c72b0; stroke: #ffffff; stroke-linejoin: miter"/>
   </g>
   <g id="patch_119">
    <path d="M 6398.241875 414 
L 6425.573625 414 
L 6425.573625 414 
L 6398.241875 414 
z
" clip-path="url(#pea13d56ed9)" style="fill: #4c72b0; stroke: #ffffff; stroke-linejoin: miter"/>
   </g>
   <g id="patch_120">
    <path d="M 6452.905375 414 
L 6480.237125 414 
L 6480.237125 382.82989 
L 6452.905375 382.82989 
z
" clip-path="url(#pea13d56ed9)" style="fill: #4c72b0; stroke: #ffffff; stroke-linejoin: miter"/>
   </g>
   <g id="patch_121">
    <path d="M 6507.568875 414 
L 6534.900625 414 
L 6534.900625 406.764082 
L 6507.568875 406.764082 
z
" clip-path="url(#pea13d56ed9)" style="fill: #4c72b0; stroke: #ffffff; stroke-linejoin: miter"/>
   </g>
   <g id="patch_122">
    <path d="M 6562.232375 414 
L 6589.564125 414 
L 6589.564125 377.162597 
L 6562.232375 377.162597 
z
" clip-path="url(#pea13d56ed9)" style="fill: #4c72b0; stroke: #ffffff; stroke-linejoin: miter"/>
   </g>
   <g id="patch_123">
    <path d="M 6616.895875 414 
L 6644.227625 414 
L 6644.227625 406.207473 
L 6616.895875 406.207473 
z
" clip-path="url(#pea13d56ed9)" style="fill: #4c72b0; stroke: #ffffff; stroke-linejoin: miter"/>
   </g>
   <g id="patch_124">
    <path d="M 6671.559375 414 
L 6698.891125 414 
L 6698.891125 397.11619 
L 6671.559375 397.11619 
z
" clip-path="url(#pea13d56ed9)" style="fill: #4c72b0; stroke: #ffffff; stroke-linejoin: miter"/>
   </g>
   <g id="patch_125">
    <path d="M 6726.222875 414 
L 6753.554625 414 
L 6753.554625 377.162597 
L 6726.222875 377.162597 
z
" clip-path="url(#pea13d56ed9)" style="fill: #4c72b0; stroke: #ffffff; stroke-linejoin: miter"/>
   </g>
   <g id="patch_126">
    <path d="M 57.275875 414 
L 84.607625 414 
L 84.607625 34.114286 
L 57.275875 34.114286 
z
" clip-path="url(#pea13d56ed9)" style="fill: #4c72b0; stroke: #ffffff; stroke-linejoin: miter"/>
   </g>
   <g id="patch_127">
    <path d="M 111.939375 414 
L 139.271125 414 
L 139.271125 292.436571 
L 111.939375 292.436571 
z
" clip-path="url(#pea13d56ed9)" style="fill: #4c72b0; stroke: #ffffff; stroke-linejoin: miter"/>
   </g>
   <g id="patch_128">
    <path d="M 166.602875 414 
L 193.934625 414 
L 193.934625 327.892571 
L 166.602875 327.892571 
z
" clip-path="url(#pea13d56ed9)" style="fill: #4c72b0; stroke: #ffffff; stroke-linejoin: miter"/>
   </g>
   <g id="patch_129">
    <path d="M 221.266375 414 
L 248.598125 414 
L 248.598125 346.127086 
L 221.266375 346.127086 
z
" clip-path="url(#pea13d56ed9)" style="fill: #4c72b0; stroke: #ffffff; stroke-linejoin: miter"/>
   </g>
   <g id="patch_130">
    <path d="M 275.929875 414 
L 303.261625 414 
L 303.261625 380.570057 
L 275.929875 380.570057 
z
" clip-path="url(#pea13d56ed9)" style="fill: #4c72b0; stroke: #ffffff; stroke-linejoin: miter"/>
   </g>
   <g id="patch_131">
    <path d="M 330.593375 414 
L 357.925125 414 
L 357.925125 389.687314 
L 330.593375 389.687314 
z
" clip-path="url(#pea13d56ed9)" style="fill: #4c72b0; stroke: #ffffff; stroke-linejoin: miter"/>
   </g>
   <g id="patch_132">
    <path d="M 385.256875 414 
L 412.588625 414 
L 412.588625 391.713371 
L 385.256875 391.713371 
z
" clip-path="url(#pea13d56ed9)" style="fill: #4c72b0; stroke: #ffffff; stroke-linejoin: miter"/>
   </g>
   <g id="patch_133">
    <path d="M 439.920375 414 
L 467.252125 414 
L 467.252125 393.739429 
L 439.920375 393.739429 
z
" clip-path="url(#pea13d56ed9)" style="fill: #4c72b0; stroke: #ffffff; stroke-linejoin: miter"/>
   </g>
   <g id="patch_134">
    <path d="M 494.583875 414 
L 521.915625 414 
L 521.915625 395.765486 
L 494.583875 395.765486 
z
" clip-path="url(#pea13d56ed9)" style="fill: #4c72b0; stroke: #ffffff; stroke-linejoin: miter"/>
   </g>
   <g id="patch_135">
    <path d="M 549.247375 414 
L 576.579125 414 
L 576.579125 397.791543 
L 549.247375 397.791543 
z
" clip-path="url(#pea13d56ed9)" style="fill: #4c72b0; stroke: #ffffff; stroke-linejoin: miter"/>
   </g>
   <g id="patch_136">
    <path d="M 603.910875 414 
L 631.242625 414 
L 631.242625 398.804571 
L 603.910875 398.804571 
z
" clip-path="url(#pea13d56ed9)" style="fill: #4c72b0; stroke: #ffffff; stroke-linejoin: miter"/>
   </g>
   <g id="patch_137">
    <path d="M 658.574375 414 
L 685.906125 414 
L 685.906125 399.8176 
L 658.574375 399.8176 
z
" clip-path="url(#pea13d56ed9)" style="fill: #4c72b0; stroke: #ffffff; stroke-linejoin: miter"/>
   </g>
   <g id="patch_138">
    <path d="M 713.237875 414 
L 740.569625 414 
L 740.569625 399.8176 
L 713.237875 399.8176 
z
" clip-path="url(#pea13d56ed9)" style="fill: #4c72b0; stroke: #ffffff; stroke-linejoin: miter"/>
   </g>
   <g id="patch_139">
    <path d="M 767.901375 414 
L 795.233125 414 
L 795.233125 399.8176 
L 767.901375 399.8176 
z
" clip-path="url(#pea13d56ed9)" style="fill: #4c72b0; stroke: #ffffff; stroke-linejoin: miter"/>
   </g>
   <g id="patch_140">
    <path d="M 822.564875 414 
L 849.896625 414 
L 849.896625 401.843657 
L 822.564875 401.843657 
z
" clip-path="url(#pea13d56ed9)" style="fill: #4c72b0; stroke: #ffffff; stroke-linejoin: miter"/>
   </g>
   <g id="patch_141">
    <path d="M 877.228375 414 
L 904.560125 414 
L 904.560125 403.869714 
L 877.228375 403.869714 
z
" clip-path="url(#pea13d56ed9)" style="fill: #4c72b0; stroke: #ffffff; stroke-linejoin: miter"/>
   </g>
   <g id="patch_142">
    <path d="M 931.891875 414 
L 959.223625 414 
L 959.223625 403.869714 
L 931.891875 403.869714 
z
" clip-path="url(#pea13d56ed9)" style="fill: #4c72b0; stroke: #ffffff; stroke-linejoin: miter"/>
   </g>
   <g id="patch_143">
    <path d="M 986.555375 414 
L 1013.887125 414 
L 1013.887125 404.882743 
L 986.555375 404.882743 
z
" clip-path="url(#pea13d56ed9)" style="fill: #4c72b0; stroke: #ffffff; stroke-linejoin: miter"/>
   </g>
   <g id="patch_144">
    <path d="M 1041.218875 414 
L 1068.550625 414 
L 1068.550625 405.895771 
L 1041.218875 405.895771 
z
" clip-path="url(#pea13d56ed9)" style="fill: #4c72b0; stroke: #ffffff; stroke-linejoin: miter"/>
   </g>
   <g id="patch_145">
    <path d="M 1095.882375 414 
L 1123.214125 414 
L 1123.214125 406.9088 
L 1095.882375 406.9088 
z
" clip-path="url(#pea13d56ed9)" style="fill: #4c72b0; stroke: #ffffff; stroke-linejoin: miter"/>
   </g>
   <g id="patch_146">
    <path d="M 43.61 414 
L 43.61 15.12 
" style="fill: none; stroke: #ffffff; stroke-width: 1.25; stroke-linejoin: miter; stroke-linecap: square"/>
   </g>
   <g id="patch_147">
    <path d="M 1136.88 414 
L 1136.88 15.12 
" style="fill: none; stroke: #ffffff; stroke-width: 1.25; stroke-linejoin: miter; stroke-linecap: square"/>
   </g>
   <g id="patch_148">
    <path d="M 43.61 414 
L 1136.88 414 
" style="fill: none; stroke: #ffffff; stroke-width: 1.25; stroke-linejoin: miter; stroke-linecap: square"/>
   </g>
   <g id="patch_149">
    <path d="M 43.61 15.12 
L 1136.88 15.12 
" style="fill: none; stroke: #ffffff; stroke-width: 1.25; stroke-linejoin: miter; stroke-linecap: square"/>
   </g>
  </g>
 </g>
 <defs>
  <clipPath id="pea13d56ed9">
   <rect x="43.61" y="15.12" width="1093.27" height="398.88"/>
  </clipPath>
 </defs>
</svg>
