<?xml version="1.0" encoding="utf-8" standalone="no"?>
<!DOCTYPE svg PUBLIC "-//W3C//DTD SVG 1.1//EN"
  "http://www.w3.org/Graphics/SVG/1.1/DTD/svg11.dtd">
<svg xmlns:xlink="http://www.w3.org/1999/xlink" width="576pt" height="288pt" viewBox="0 0 576 288" xmlns="http://www.w3.org/2000/svg" version="1.1">
 <metadata>
  <rdf:RDF xmlns:dc="http://purl.org/dc/elements/1.1/" xmlns:cc="http://creativecommons.org/ns#" xmlns:rdf="http://www.w3.org/1999/02/22-rdf-syntax-ns#">
   <cc:Work>
    <dc:type rdf:resource="http://purl.org/dc/dcmitype/StillImage"/>
    <dc:date>2023-12-02T16:06:04.846267</dc:date>
    <dc:format>image/svg+xml</dc:format>
    <dc:creator>
     <cc:Agent>
      <dc:title>Matplotlib v3.8.2, https://matplotlib.org/</dc:title>
     </cc:Agent>
    </dc:creator>
   </cc:Work>
  </rdf:RDF>
 </metadata>
 <defs>
  <style type="text/css">*{stroke-linejoin: round; stroke-linecap: butt}</style>
 </defs>
 <g id="figure_1">
  <g id="patch_1">
   <path d="M 0 288 
L 576 288 
L 576 0 
L 0 0 
z
" style="fill: #ffffff"/>
  </g>
  <g id="axes_1">
   <g id="patch_2">
    <path d="M 82.35 221.22 
L 556.56 221.22 
L 556.56 19.44 
L 82.35 19.44 
z
" style="fill: #eaeaf2"/>
   </g>
   <g id="matplotlib.axis_1">
    <g id="xtick_1">
     <g id="text_1">
      <!-- male -->
      <g style="fill: #262626" transform="translate(180.4425 243.257422) scale(0.165 -0.165)">
       <defs>
        <path id="DejaVuSans-6d" d="M 3328 2828 
Q 3544 3216 3844 3400 
Q 4144 3584 4550 3584 
Q 5097 3584 5394 3201 
Q 5691 2819 5691 2113 
L 5691 0 
L 5113 0 
L 5113 2094 
Q 5113 2597 4934 2840 
Q 4756 3084 4391 3084 
Q 3944 3084 3684 2787 
Q 3425 2491 3425 1978 
L 3425 0 
L 2847 0 
L 2847 2094 
Q 2847 2600 2669 2842 
Q 2491 3084 2119 3084 
Q 1678 3084 1418 2786 
Q 1159 2488 1159 1978 
L 1159 0 
L 581 0 
L 581 3500 
L 1159 3500 
L 1159 2956 
Q 1356 3278 1631 3431 
Q 1906 3584 2284 3584 
Q 2666 3584 2933 3390 
Q 3200 3197 3328 2828 
z
" transform="scale(0.015625)"/>
        <path id="DejaVuSans-61" d="M 2194 1759 
Q 1497 1759 1228 1600 
Q 959 1441 959 1056 
Q 959 750 1161 570 
Q 1363 391 1709 391 
Q 2188 391 2477 730 
Q 2766 1069 2766 1631 
L 2766 1759 
L 2194 1759 
z
M 3341 1997 
L 3341 0 
L 2766 0 
L 2766 531 
Q 2569 213 2275 61 
Q 1981 -91 1556 -91 
Q 1019 -91 701 211 
Q 384 513 384 1019 
Q 384 1609 779 1909 
Q 1175 2209 1959 2209 
L 2766 2209 
L 2766 2266 
Q 2766 2663 2505 2880 
Q 2244 3097 1772 3097 
Q 1472 3097 1187 3025 
Q 903 2953 641 2809 
L 641 3341 
Q 956 3463 1253 3523 
Q 1550 3584 1831 3584 
Q 2591 3584 2966 3190 
Q 3341 2797 3341 1997 
z
" transform="scale(0.015625)"/>
        <path id="DejaVuSans-6c" d="M 603 4863 
L 1178 4863 
L 1178 0 
L 603 0 
L 603 4863 
z
" transform="scale(0.015625)"/>
        <path id="DejaVuSans-65" d="M 3597 1894 
L 3597 1613 
L 953 1613 
Q 991 1019 1311 708 
Q 1631 397 2203 397 
Q 2534 397 2845 478 
Q 3156 559 3463 722 
L 3463 178 
Q 3153 47 2828 -22 
Q 2503 -91 2169 -91 
Q 1331 -91 842 396 
Q 353 884 353 1716 
Q 353 2575 817 3079 
Q 1281 3584 2069 3584 
Q 2775 3584 3186 3129 
Q 3597 2675 3597 1894 
z
M 3022 2063 
Q 3016 2534 2758 2815 
Q 2500 3097 2075 3097 
Q 1594 3097 1305 2825 
Q 1016 2553 972 2059 
L 3022 2063 
z
" transform="scale(0.015625)"/>
       </defs>
       <use xlink:href="#DejaVuSans-6d"/>
       <use xlink:href="#DejaVuSans-61" x="97.412109"/>
       <use xlink:href="#DejaVuSans-6c" x="158.691406"/>
       <use xlink:href="#DejaVuSans-65" x="186.474609"/>
      </g>
     </g>
    </g>
    <g id="xtick_2">
     <g id="text_2">
      <!-- female -->
      <g style="fill: #262626" transform="translate(409.566914 243.257422) scale(0.165 -0.165)">
       <defs>
        <path id="DejaVuSans-66" d="M 2375 4863 
L 2375 4384 
L 1825 4384 
Q 1516 4384 1395 4259 
Q 1275 4134 1275 3809 
L 1275 3500 
L 2222 3500 
L 2222 3053 
L 1275 3053 
L 1275 0 
L 697 0 
L 697 3053 
L 147 3053 
L 147 3500 
L 697 3500 
L 697 3744 
Q 697 4328 969 4595 
Q 1241 4863 1831 4863 
L 2375 4863 
z
" transform="scale(0.015625)"/>
       </defs>
       <use xlink:href="#DejaVuSans-66"/>
       <use xlink:href="#DejaVuSans-65" x="35.205078"/>
       <use xlink:href="#DejaVuSans-6d" x="96.728516"/>
       <use xlink:href="#DejaVuSans-61" x="194.140625"/>
       <use xlink:href="#DejaVuSans-6c" x="255.419922"/>
       <use xlink:href="#DejaVuSans-65" x="283.203125"/>
      </g>
     </g>
    </g>
    <g id="text_3">
     <!-- gender -->
     <g style="fill: #262626" transform="translate(287.548594 264.366094) scale(0.18 -0.18)">
      <defs>
       <path id="DejaVuSans-67" d="M 2906 1791 
Q 2906 2416 2648 2759 
Q 2391 3103 1925 3103 
Q 1463 3103 1205 2759 
Q 947 2416 947 1791 
Q 947 1169 1205 825 
Q 1463 481 1925 481 
Q 2391 481 2648 825 
Q 2906 1169 2906 1791 
z
M 3481 434 
Q 3481 -459 3084 -895 
Q 2688 -1331 1869 -1331 
Q 1566 -1331 1297 -1286 
Q 1028 -1241 775 -1147 
L 775 -588 
Q 1028 -725 1275 -790 
Q 1522 -856 1778 -856 
Q 2344 -856 2625 -561 
Q 2906 -266 2906 331 
L 2906 616 
Q 2728 306 2450 153 
Q 2172 0 1784 0 
Q 1141 0 747 490 
Q 353 981 353 1791 
Q 353 2603 747 3093 
Q 1141 3584 1784 3584 
Q 2172 3584 2450 3431 
Q 2728 3278 2906 2969 
L 2906 3500 
L 3481 3500 
L 3481 434 
z
" transform="scale(0.015625)"/>
       <path id="DejaVuSans-6e" d="M 3513 2113 
L 3513 0 
L 2938 0 
L 2938 2094 
Q 2938 2591 2744 2837 
Q 2550 3084 2163 3084 
Q 1697 3084 1428 2787 
Q 1159 2491 1159 1978 
L 1159 0 
L 581 0 
L 581 3500 
L 1159 3500 
L 1159 2956 
Q 1366 3272 1645 3428 
Q 1925 3584 2291 3584 
Q 2894 3584 3203 3211 
Q 3513 2838 3513 2113 
z
" transform="scale(0.015625)"/>
       <path id="DejaVuSans-64" d="M 2906 2969 
L 2906 4863 
L 3481 4863 
L 3481 0 
L 2906 0 
L 2906 525 
Q 2725 213 2448 61 
Q 2172 -91 1784 -91 
Q 1150 -91 751 415 
Q 353 922 353 1747 
Q 353 2572 751 3078 
Q 1150 3584 1784 3584 
Q 2172 3584 2448 3432 
Q 2725 3281 2906 2969 
z
M 947 1747 
Q 947 1113 1208 752 
Q 1469 391 1925 391 
Q 2381 391 2643 752 
Q 2906 1113 2906 1747 
Q 2906 2381 2643 2742 
Q 2381 3103 1925 3103 
Q 1469 3103 1208 2742 
Q 947 2381 947 1747 
z
" transform="scale(0.015625)"/>
       <path id="DejaVuSans-72" d="M 2631 2963 
Q 2534 3019 2420 3045 
Q 2306 3072 2169 3072 
Q 1681 3072 1420 2755 
Q 1159 2438 1159 1844 
L 1159 0 
L 581 0 
L 581 3500 
L 1159 3500 
L 1159 2956 
Q 1341 3275 1631 3429 
Q 1922 3584 2338 3584 
Q 2397 3584 2469 3576 
Q 2541 3569 2628 3553 
L 2631 2963 
z
" transform="scale(0.015625)"/>
      </defs>
      <use xlink:href="#DejaVuSans-67"/>
      <use xlink:href="#DejaVuSans-65" x="63.476562"/>
      <use xlink:href="#DejaVuSans-6e" x="125"/>
      <use xlink:href="#DejaVuSans-64" x="188.378906"/>
      <use xlink:href="#DejaVuSans-65" x="251.855469"/>
      <use xlink:href="#DejaVuSans-72" x="313.378906"/>
     </g>
    </g>
   </g>
   <g id="matplotlib.axis_2">
    <g id="ytick_1">
     <g id="line2d_1">
      <path d="M 82.35 197.197621 
L 556.56 197.197621 
" clip-path="url(#pab0a64e92d)" style="fill: none; stroke: #ffffff; stroke-linecap: round"/>
     </g>
     <g id="text_4">
      <!-- 40 -->
      <g style="fill: #262626" transform="translate(51.85375 203.466332) scale(0.165 -0.165)">
       <defs>
        <path id="DejaVuSans-34" d="M 2419 4116 
L 825 1625 
L 2419 1625 
L 2419 4116 
z
M 2253 4666 
L 3047 4666 
L 3047 1625 
L 3713 1625 
L 3713 1100 
L 3047 1100 
L 3047 0 
L 2419 0 
L 2419 1100 
L 313 1100 
L 313 1709 
L 2253 4666 
z
" transform="scale(0.015625)"/>
        <path id="DejaVuSans-30" d="M 2034 4250 
Q 1547 4250 1301 3770 
Q 1056 3291 1056 2328 
Q 1056 1369 1301 889 
Q 1547 409 2034 409 
Q 2525 409 2770 889 
Q 3016 1369 3016 2328 
Q 3016 3291 2770 3770 
Q 2525 4250 2034 4250 
z
M 2034 4750 
Q 2819 4750 3233 4129 
Q 3647 3509 3647 2328 
Q 3647 1150 3233 529 
Q 2819 -91 2034 -91 
Q 1250 -91 836 529 
Q 422 1150 422 2328 
Q 422 3509 836 4129 
Q 1250 4750 2034 4750 
z
" transform="scale(0.015625)"/>
       </defs>
       <use xlink:href="#DejaVuSans-34"/>
       <use xlink:href="#DejaVuSans-30" x="63.623047"/>
      </g>
     </g>
    </g>
    <g id="ytick_2">
     <g id="line2d_2">
      <path d="M 82.35 152.42644 
L 556.56 152.42644 
" clip-path="url(#pab0a64e92d)" style="fill: none; stroke: #ffffff; stroke-linecap: round"/>
     </g>
     <g id="text_5">
      <!-- 60 -->
      <g style="fill: #262626" transform="translate(51.85375 158.695151) scale(0.165 -0.165)">
       <defs>
        <path id="DejaVuSans-36" d="M 2113 2584 
Q 1688 2584 1439 2293 
Q 1191 2003 1191 1497 
Q 1191 994 1439 701 
Q 1688 409 2113 409 
Q 2538 409 2786 701 
Q 3034 994 3034 1497 
Q 3034 2003 2786 2293 
Q 2538 2584 2113 2584 
z
M 3366 4563 
L 3366 3988 
Q 3128 4100 2886 4159 
Q 2644 4219 2406 4219 
Q 1781 4219 1451 3797 
Q 1122 3375 1075 2522 
Q 1259 2794 1537 2939 
Q 1816 3084 2150 3084 
Q 2853 3084 3261 2657 
Q 3669 2231 3669 1497 
Q 3669 778 3244 343 
Q 2819 -91 2113 -91 
Q 1303 -91 875 529 
Q 447 1150 447 2328 
Q 447 3434 972 4092 
Q 1497 4750 2381 4750 
Q 2619 4750 2861 4703 
Q 3103 4656 3366 4563 
z
" transform="scale(0.015625)"/>
       </defs>
       <use xlink:href="#DejaVuSans-36"/>
       <use xlink:href="#DejaVuSans-30" x="63.623047"/>
      </g>
     </g>
    </g>
    <g id="ytick_3">
     <g id="line2d_3">
      <path d="M 82.35 107.65526 
L 556.56 107.65526 
" clip-path="url(#pab0a64e92d)" style="fill: none; stroke: #ffffff; stroke-linecap: round"/>
     </g>
     <g id="text_6">
      <!-- 80 -->
      <g style="fill: #262626" transform="translate(51.85375 113.923971) scale(0.165 -0.165)">
       <defs>
        <path id="DejaVuSans-38" d="M 2034 2216 
Q 1584 2216 1326 1975 
Q 1069 1734 1069 1313 
Q 1069 891 1326 650 
Q 1584 409 2034 409 
Q 2484 409 2743 651 
Q 3003 894 3003 1313 
Q 3003 1734 2745 1975 
Q 2488 2216 2034 2216 
z
M 1403 2484 
Q 997 2584 770 2862 
Q 544 3141 544 3541 
Q 544 4100 942 4425 
Q 1341 4750 2034 4750 
Q 2731 4750 3128 4425 
Q 3525 4100 3525 3541 
Q 3525 3141 3298 2862 
Q 3072 2584 2669 2484 
Q 3125 2378 3379 2068 
Q 3634 1759 3634 1313 
Q 3634 634 3220 271 
Q 2806 -91 2034 -91 
Q 1263 -91 848 271 
Q 434 634 434 1313 
Q 434 1759 690 2068 
Q 947 2378 1403 2484 
z
M 1172 3481 
Q 1172 3119 1398 2916 
Q 1625 2713 2034 2713 
Q 2441 2713 2670 2916 
Q 2900 3119 2900 3481 
Q 2900 3844 2670 4047 
Q 2441 4250 2034 4250 
Q 1625 4250 1398 4047 
Q 1172 3844 1172 3481 
z
" transform="scale(0.015625)"/>
       </defs>
       <use xlink:href="#DejaVuSans-38"/>
       <use xlink:href="#DejaVuSans-30" x="63.623047"/>
      </g>
     </g>
    </g>
    <g id="ytick_4">
     <g id="line2d_4">
      <path d="M 82.35 62.88408 
L 556.56 62.88408 
" clip-path="url(#pab0a64e92d)" style="fill: none; stroke: #ffffff; stroke-linecap: round"/>
     </g>
     <g id="text_7">
      <!-- 100 -->
      <g style="fill: #262626" transform="translate(41.355625 69.152791) scale(0.165 -0.165)">
       <defs>
        <path id="DejaVuSans-31" d="M 794 531 
L 1825 531 
L 1825 4091 
L 703 3866 
L 703 4441 
L 1819 4666 
L 2450 4666 
L 2450 531 
L 3481 531 
L 3481 0 
L 794 0 
L 794 531 
z
" transform="scale(0.015625)"/>
       </defs>
       <use xlink:href="#DejaVuSans-31"/>
       <use xlink:href="#DejaVuSans-30" x="63.623047"/>
       <use xlink:href="#DejaVuSans-30" x="127.246094"/>
      </g>
     </g>
    </g>
    <g id="text_8">
     <!-- age_at_death -->
     <g style="fill: #262626" transform="translate(33.111562 181.139062) rotate(-90) scale(0.18 -0.18)">
      <defs>
       <path id="DejaVuSans-5f" d="M 3263 -1063 
L 3263 -1509 
L -63 -1509 
L -63 -1063 
L 3263 -1063 
z
" transform="scale(0.015625)"/>
       <path id="DejaVuSans-74" d="M 1172 4494 
L 1172 3500 
L 2356 3500 
L 2356 3053 
L 1172 3053 
L 1172 1153 
Q 1172 725 1289 603 
Q 1406 481 1766 481 
L 2356 481 
L 2356 0 
L 1766 0 
Q 1100 0 847 248 
Q 594 497 594 1153 
L 594 3053 
L 172 3053 
L 172 3500 
L 594 3500 
L 594 4494 
L 1172 4494 
z
" transform="scale(0.015625)"/>
       <path id="DejaVuSans-68" d="M 3513 2113 
L 3513 0 
L 2938 0 
L 2938 2094 
Q 2938 2591 2744 2837 
Q 2550 3084 2163 3084 
Q 1697 3084 1428 2787 
Q 1159 2491 1159 1978 
L 1159 0 
L 581 0 
L 581 4863 
L 1159 4863 
L 1159 2956 
Q 1366 3272 1645 3428 
Q 1925 3584 2291 3584 
Q 2894 3584 3203 3211 
Q 3513 2838 3513 2113 
z
" transform="scale(0.015625)"/>
      </defs>
      <use xlink:href="#DejaVuSans-61"/>
      <use xlink:href="#DejaVuSans-67" x="61.279297"/>
      <use xlink:href="#DejaVuSans-65" x="124.755859"/>
      <use xlink:href="#DejaVuSans-5f" x="186.279297"/>
      <use xlink:href="#DejaVuSans-61" x="236.279297"/>
      <use xlink:href="#DejaVuSans-74" x="297.558594"/>
      <use xlink:href="#DejaVuSans-5f" x="336.767578"/>
      <use xlink:href="#DejaVuSans-64" x="386.767578"/>
      <use xlink:href="#DejaVuSans-65" x="450.244141"/>
      <use xlink:href="#DejaVuSans-61" x="511.767578"/>
      <use xlink:href="#DejaVuSans-74" x="573.046875"/>
      <use xlink:href="#DejaVuSans-68" x="612.255859"/>
     </g>
    </g>
   </g>
   <g id="PolyCollection_1">
    <defs>
     <path id="m5dff1c9f17" d="M 200.974319 -75.951818 
L 200.830681 -75.951818 
L 200.785146 -77.65357 
L 200.722487 -79.355321 
L 200.642793 -81.057072 
L 200.549075 -82.758824 
L 200.446874 -84.460575 
L 200.342576 -86.162326 
L 200.240861 -87.864077 
L 200.142277 -89.565829 
L 200.042154 -91.26758 
L 199.931607 -92.969331 
L 199.800483 -94.671083 
L 199.641174 -96.372834 
L 199.451828 -98.074585 
L 199.237718 -99.776337 
L 199.010274 -101.478088 
L 198.784008 -103.179839 
L 198.572137 -104.881591 
L 198.381982 -106.583342 
L 198.211247 -108.285093 
L 198.046162 -109.986845 
L 197.86208 -111.688596 
L 197.626537 -113.390347 
L 197.304186 -115.092099 
L 196.862599 -116.79385 
L 196.277873 -118.495601 
L 195.539187 -120.197353 
L 194.651628 -121.899104 
L 193.6366 -123.600855 
L 192.529107 -125.302607 
L 191.371347 -127.004358 
L 190.202729 -128.706109 
L 189.04773 -130.407861 
L 187.904367 -132.109612 
L 186.73708 -133.811363 
L 185.477643 -135.513115 
L 184.036107 -137.214866 
L 182.32097 -138.916617 
L 180.26449 -140.618369 
L 177.846553 -142.32012 
L 175.109737 -144.021871 
L 172.159719 -145.723623 
L 169.14872 -147.425374 
L 166.244311 -149.127125 
L 163.590367 -150.828877 
L 161.270112 -152.530628 
L 159.281911 -154.232379 
L 157.536422 -155.934131 
L 155.878493 -157.635882 
L 154.129773 -159.337633 
L 152.140245 -161.039385 
L 149.832009 -162.741136 
L 147.219624 -164.442887 
L 144.399196 -166.144639 
L 141.5104 -167.84639 
L 138.686386 -169.548141 
L 136.010601 -171.249893 
L 133.495094 -172.951644 
L 131.084708 -174.653395 
L 128.681523 -176.355147 
L 126.178786 -178.056898 
L 123.494464 -179.758649 
L 120.598744 -181.460401 
L 117.533327 -183.162152 
L 114.420828 -184.863903 
L 111.460821 -186.565655 
L 108.908132 -188.267406 
L 107.031831 -189.969157 
L 106.0605 -191.670909 
L 106.127607 -193.37266 
L 107.235195 -195.074411 
L 109.250976 -196.776163 
L 111.943401 -198.477914 
L 115.045695 -200.179665 
L 118.329119 -201.881417 
L 121.662287 -203.583168 
L 125.038289 -205.284919 
L 128.562367 -206.986671 
L 132.405608 -208.688422 
L 136.740222 -210.390173 
L 141.676361 -212.091925 
L 147.218465 -213.793676 
L 153.25208 -215.495427 
L 159.562648 -217.197179 
L 165.878656 -218.89893 
L 171.925242 -220.600681 
L 177.472618 -222.302433 
L 182.367007 -224.004184 
L 186.538982 -225.705935 
L 189.992109 -227.407687 
L 192.78037 -229.109438 
L 194.984001 -230.811189 
L 196.690662 -232.512941 
L 197.984408 -234.214692 
L 198.941277 -235.916443 
L 199.62867 -237.618195 
L 200.105906 -239.319946 
L 200.424551 -241.021697 
L 200.628249 -242.723449 
L 200.752436 -244.4252 
L 201.052564 -244.4252 
L 201.052564 -244.4252 
L 201.176751 -242.723449 
L 201.380449 -241.021697 
L 201.699094 -239.319946 
L 202.17633 -237.618195 
L 202.863723 -235.916443 
L 203.820592 -234.214692 
L 205.114338 -232.512941 
L 206.820999 -230.811189 
L 209.02463 -229.109438 
L 211.812891 -227.407687 
L 215.266018 -225.705935 
L 219.437993 -224.004184 
L 224.332382 -222.302433 
L 229.879758 -220.600681 
L 235.926344 -218.89893 
L 242.242352 -217.197179 
L 248.55292 -215.495427 
L 254.586535 -213.793676 
L 260.128639 -212.091925 
L 265.064778 -210.390173 
L 269.399392 -208.688422 
L 273.242633 -206.986671 
L 276.766711 -205.284919 
L 280.142713 -203.583168 
L 283.475881 -201.881417 
L 286.759305 -200.179665 
L 289.861599 -198.477914 
L 292.554024 -196.776163 
L 294.569805 -195.074411 
L 295.677393 -193.37266 
L 295.7445 -191.670909 
L 294.773169 -189.969157 
L 292.896868 -188.267406 
L 290.344179 -186.565655 
L 287.384172 -184.863903 
L 284.271673 -183.162152 
L 281.206256 -181.460401 
L 278.310536 -179.758649 
L 275.626214 -178.056898 
L 273.123477 -176.355147 
L 270.720292 -174.653395 
L 268.309906 -172.951644 
L 265.794399 -171.249893 
L 263.118614 -169.548141 
L 260.2946 -167.84639 
L 257.405804 -166.144639 
L 254.585376 -164.442887 
L 251.972991 -162.741136 
L 249.664755 -161.039385 
L 247.675227 -159.337633 
L 245.926507 -157.635882 
L 244.268578 -155.934131 
L 242.523089 -154.232379 
L 240.534888 -152.530628 
L 238.214633 -150.828877 
L 235.560689 -149.127125 
L 232.65628 -147.425374 
L 229.645281 -145.723623 
L 226.695263 -144.021871 
L 223.958447 -142.32012 
L 221.54051 -140.618369 
L 219.48403 -138.916617 
L 217.768893 -137.214866 
L 216.327357 -135.513115 
L 215.06792 -133.811363 
L 213.900633 -132.109612 
L 212.75727 -130.407861 
L 211.602271 -128.706109 
L 210.433653 -127.004358 
L 209.275893 -125.302607 
L 208.1684 -123.600855 
L 207.153372 -121.899104 
L 206.265813 -120.197353 
L 205.527127 -118.495601 
L 204.942401 -116.79385 
L 204.500814 -115.092099 
L 204.178463 -113.390347 
L 203.94292 -111.688596 
L 203.758838 -109.986845 
L 203.593753 -108.285093 
L 203.423018 -106.583342 
L 203.232863 -104.881591 
L 203.020992 -103.179839 
L 202.794726 -101.478088 
L 202.567282 -99.776337 
L 202.353172 -98.074585 
L 202.163826 -96.372834 
L 202.004517 -94.671083 
L 201.873393 -92.969331 
L 201.762846 -91.26758 
L 201.662723 -89.565829 
L 201.564139 -87.864077 
L 201.462424 -86.162326 
L 201.358126 -84.460575 
L 201.255925 -82.758824 
L 201.162207 -81.057072 
L 201.082513 -79.355321 
L 201.019854 -77.65357 
L 200.974319 -75.951818 
z
" style="stroke: #4c4c4c; stroke-width: 1.25"/>
    </defs>
    <g clip-path="url(#pab0a64e92d)">
     <use xlink:href="#m5dff1c9f17" x="0" y="288" style="fill: #5875a4; stroke: #4c4c4c; stroke-width: 1.25"/>
    </g>
   </g>
   <g id="PolyCollection_2">
    <defs>
     <path id="mb09451fc16" d="M 439.218322 -106.471449 
L 436.796678 -106.471449 
L 436.431405 -108.016062 
L 435.979333 -109.560676 
L 435.426709 -111.105289 
L 434.759292 -112.649903 
L 433.962718 -114.194516 
L 433.022924 -115.73913 
L 431.926628 -117.283743 
L 430.661846 -118.828357 
L 429.218453 -120.37297 
L 427.58877 -121.917584 
L 425.768177 -123.462197 
L 423.755742 -125.006811 
L 421.554846 -126.551424 
L 419.173791 -128.096037 
L 416.626334 -129.640651 
L 413.932111 -131.185264 
L 411.11687 -132.729878 
L 408.212436 -134.274491 
L 405.256331 -135.819105 
L 402.290981 -137.363718 
L 399.362448 -138.908332 
L 396.518711 -140.452945 
L 393.807508 -141.997559 
L 391.27386 -143.542172 
L 388.957435 -145.086786 
L 386.88994 -146.631399 
L 385.0928 -148.176012 
L 383.575341 -149.720626 
L 382.333714 -151.265239 
L 381.350708 -152.809853 
L 380.596565 -154.354466 
L 380.030773 -155.89908 
L 379.604754 -157.443693 
L 379.265241 -158.988307 
L 378.958081 -160.53292 
L 378.632127 -162.077534 
L 378.242891 -163.622147 
L 377.755633 -165.166761 
L 377.147613 -166.711374 
L 376.409321 -168.255987 
L 375.544617 -169.800601 
L 374.569787 -171.345214 
L 373.511676 -172.889828 
L 372.405112 -174.434441 
L 371.289915 -175.979055 
L 370.20782 -177.523668 
L 369.199619 -179.068282 
L 368.3028 -180.612895 
L 367.549867 -182.157509 
L 366.967455 -183.702122 
L 366.576209 -185.246736 
L 366.39135 -186.791349 
L 366.423714 -188.335963 
L 366.681049 -189.880576 
L 367.169285 -191.425189 
L 367.893568 -192.969803 
L 368.858849 -194.514416 
L 370.069932 -196.05903 
L 371.530961 -197.603643 
L 373.244411 -199.148257 
L 375.209743 -200.69287 
L 377.421922 -202.237484 
L 379.870031 -203.782097 
L 382.536203 -205.326711 
L 385.395058 -206.871324 
L 388.413769 -208.415938 
L 391.552814 -209.960551 
L 394.767364 -211.505164 
L 398.009231 -213.049778 
L 401.229173 -214.594391 
L 404.379379 -216.139005 
L 407.415893 -217.683618 
L 410.300765 -219.228232 
L 413.003756 -220.772845 
L 415.50345 -222.317459 
L 417.787715 -223.862072 
L 419.853488 -225.406686 
L 421.70596 -226.951299 
L 423.357256 -228.495913 
L 424.824761 -230.040526 
L 426.129263 -231.585139 
L 427.293092 -233.129753 
L 428.338396 -234.674366 
L 429.285699 -236.21898 
L 430.152826 -237.763593 
L 430.954234 -239.308207 
L 431.700746 -240.85282 
L 432.399662 -242.397434 
L 433.055156 -243.942047 
L 433.668889 -245.486661 
L 434.240729 -247.031274 
L 434.769489 -248.575888 
L 435.253614 -250.120501 
L 435.691749 -251.665115 
L 436.083159 -253.209728 
L 436.427988 -254.754341 
L 436.727366 -256.298955 
L 436.983385 -257.843568 
L 437.198969 -259.388182 
L 438.816031 -259.388182 
L 438.816031 -259.388182 
L 439.031615 -257.843568 
L 439.287634 -256.298955 
L 439.587012 -254.754341 
L 439.931841 -253.209728 
L 440.323251 -251.665115 
L 440.761386 -250.120501 
L 441.245511 -248.575888 
L 441.774271 -247.031274 
L 442.346111 -245.486661 
L 442.959844 -243.942047 
L 443.615338 -242.397434 
L 444.314254 -240.85282 
L 445.060766 -239.308207 
L 445.862174 -237.763593 
L 446.729301 -236.21898 
L 447.676604 -234.674366 
L 448.721908 -233.129753 
L 449.885737 -231.585139 
L 451.190239 -230.040526 
L 452.657744 -228.495913 
L 454.30904 -226.951299 
L 456.161512 -225.406686 
L 458.227285 -223.862072 
L 460.51155 -222.317459 
L 463.011244 -220.772845 
L 465.714235 -219.228232 
L 468.599107 -217.683618 
L 471.635621 -216.139005 
L 474.785827 -214.594391 
L 478.005769 -213.049778 
L 481.247636 -211.505164 
L 484.462186 -209.960551 
L 487.601231 -208.415938 
L 490.619942 -206.871324 
L 493.478797 -205.326711 
L 496.144969 -203.782097 
L 498.593078 -202.237484 
L 500.805257 -200.69287 
L 502.770589 -199.148257 
L 504.484039 -197.603643 
L 505.945068 -196.05903 
L 507.156151 -194.514416 
L 508.121432 -192.969803 
L 508.845715 -191.425189 
L 509.333951 -189.880576 
L 509.591286 -188.335963 
L 509.62365 -186.791349 
L 509.438791 -185.246736 
L 509.047545 -183.702122 
L 508.465133 -182.157509 
L 507.7122 -180.612895 
L 506.815381 -179.068282 
L 505.80718 -177.523668 
L 504.725085 -175.979055 
L 503.609888 -174.434441 
L 502.503324 -172.889828 
L 501.445213 -171.345214 
L 500.470383 -169.800601 
L 499.605679 -168.255987 
L 498.867387 -166.711374 
L 498.259367 -165.166761 
L 497.772109 -163.622147 
L 497.382873 -162.077534 
L 497.056919 -160.53292 
L 496.749759 -158.988307 
L 496.410246 -157.443693 
L 495.984227 -155.89908 
L 495.418435 -154.354466 
L 494.664292 -152.809853 
L 493.681286 -151.265239 
L 492.439659 -149.720626 
L 490.9222 -148.176012 
L 489.12506 -146.631399 
L 487.057565 -145.086786 
L 484.74114 -143.542172 
L 482.207492 -141.997559 
L 479.496289 -140.452945 
L 476.652552 -138.908332 
L 473.724019 -137.363718 
L 470.758669 -135.819105 
L 467.802564 -134.274491 
L 464.89813 -132.729878 
L 462.082889 -131.185264 
L 459.388666 -129.640651 
L 456.841209 -128.096037 
L 454.460154 -126.551424 
L 452.259258 -125.006811 
L 450.246823 -123.462197 
L 448.42623 -121.917584 
L 446.796547 -120.37297 
L 445.353154 -118.828357 
L 444.088372 -117.283743 
L 442.992076 -115.73913 
L 442.052282 -114.194516 
L 441.255708 -112.649903 
L 440.588291 -111.105289 
L 440.035667 -109.560676 
L 439.583595 -108.016062 
L 439.218322 -106.471449 
z
" style="stroke: #4c4c4c; stroke-width: 1.25"/>
    </defs>
    <g clip-path="url(#pab0a64e92d)">
     <use xlink:href="#mb09451fc16" x="0" y="288" style="fill: #5875a4; stroke: #4c4c4c; stroke-width: 1.25"/>
    </g>
   </g>
   <g id="line2d_5">
    <path d="M 200.9025 164.894908 
L 200.9025 56.732643 
" clip-path="url(#pab0a64e92d)" style="fill: none; stroke: #4c4c4c; stroke-width: 1.875; stroke-linecap: round"/>
   </g>
   <g id="line2d_6">
    <path d="M 200.9025 119.846207 
L 200.9025 87.988139 
" clip-path="url(#pab0a64e92d)" style="fill: none; stroke: #4c4c4c; stroke-width: 5.625; stroke-linecap: round"/>
   </g>
   <g id="line2d_7">
    <path d="M 200.9025 101.681681 
" clip-path="url(#pab0a64e92d)" style="fill: none; stroke: #4c4c4c; stroke-width: 1.5; stroke-linecap: round"/>
    <defs>
     <path id="md1b5fe2032" d="M 2.34375 0 
L -2.34375 -0 
" style="stroke: #ffffff; stroke-width: 1.125"/>
    </defs>
    <g clip-path="url(#pab0a64e92d)">
     <use xlink:href="#md1b5fe2032" x="200.9025" y="101.681681" style="fill: #ffffff; stroke: #ffffff; stroke-width: 1.125"/>
    </g>
   </g>
   <g id="line2d_8">
    <path d="M 438.0075 155.676951 
L 438.0075 54.463418 
" clip-path="url(#pab0a64e92d)" style="fill: none; stroke: #4c4c4c; stroke-width: 1.875; stroke-linecap: round"/>
   </g>
   <g id="line2d_9">
    <path d="M 438.0075 134.953414 
L 438.0075 88.581511 
" clip-path="url(#pab0a64e92d)" style="fill: none; stroke: #4c4c4c; stroke-width: 5.625; stroke-linecap: round"/>
   </g>
   <g id="line2d_10">
    <path d="M 438.0075 106.465451 
" clip-path="url(#pab0a64e92d)" style="fill: none; stroke: #4c4c4c; stroke-width: 1.5; stroke-linecap: round"/>
    <g clip-path="url(#pab0a64e92d)">
     <use xlink:href="#md1b5fe2032" x="438.0075" y="106.465451" style="fill: #ffffff; stroke: #ffffff; stroke-width: 1.125"/>
    </g>
   </g>
   <g id="patch_3">
    <path d="M 82.35 221.22 
L 82.35 19.44 
" style="fill: none; stroke: #ffffff; stroke-width: 1.25; stroke-linejoin: miter; stroke-linecap: square"/>
   </g>
   <g id="patch_4">
    <path d="M 556.56 221.22 
L 556.56 19.44 
" style="fill: none; stroke: #ffffff; stroke-width: 1.25; stroke-linejoin: miter; stroke-linecap: square"/>
   </g>
   <g id="patch_5">
    <path d="M 82.35 221.22 
L 556.56 221.22 
" style="fill: none; stroke: #ffffff; stroke-width: 1.25; stroke-linejoin: miter; stroke-linecap: square"/>
   </g>
   <g id="patch_6">
    <path d="M 82.35 19.44 
L 556.56 19.44 
" style="fill: none; stroke: #ffffff; stroke-width: 1.25; stroke-linejoin: miter; stroke-linecap: square"/>
   </g>
  </g>
 </g>
 <defs>
  <clipPath id="pab0a64e92d">
   <rect x="82.35" y="19.44" width="474.21" height="201.78"/>
  </clipPath>
 </defs>
</svg>
