<?xml version="1.0" encoding="utf-8" standalone="no"?>
<!DOCTYPE svg PUBLIC "-//W3C//DTD SVG 1.1//EN"
  "http://www.w3.org/Graphics/SVG/1.1/DTD/svg11.dtd">
<svg xmlns:xlink="http://www.w3.org/1999/xlink" width="576pt" height="288pt" viewBox="0 0 576 288" xmlns="http://www.w3.org/2000/svg" version="1.1">
 <metadata>
  <rdf:RDF xmlns:dc="http://purl.org/dc/elements/1.1/" xmlns:cc="http://creativecommons.org/ns#" xmlns:rdf="http://www.w3.org/1999/02/22-rdf-syntax-ns#">
   <cc:Work>
    <dc:type rdf:resource="http://purl.org/dc/dcmitype/StillImage"/>
    <dc:date>2023-11-24T20:50:22.865429</dc:date>
    <dc:format>image/svg+xml</dc:format>
    <dc:creator>
     <cc:Agent>
      <dc:title>Matplotlib v3.8.1, https://matplotlib.org/</dc:title>
     </cc:Agent>
    </dc:creator>
   </cc:Work>
  </rdf:RDF>
 </metadata>
 <defs>
  <style type="text/css">*{stroke-linejoin: round; stroke-linecap: butt}</style>
 </defs>
 <g id="figure_1">
  <g id="patch_1">
   <path d="M 0 288 
L 576 288 
L 576 0 
L 0 0 
z
" style="fill: #ffffff"/>
  </g>
  <g id="axes_1">
   <g id="patch_2">
    <path d="M 62.46 237.78 
L 563.04 237.78 
L 563.04 12.96 
L 62.46 12.96 
z
" style="fill: #eaeaf2"/>
   </g>
   <g id="matplotlib.axis_1">
    <g id="xtick_1">
     <g id="line2d_1">
      <path d="M 85.213636 237.78 
L 85.213636 12.96 
" clip-path="url(#p4bb4ca4c6e)" style="fill: none; stroke: #ffffff; stroke-linecap: round"/>
     </g>
     <g id="text_1">
      <!-- 0 -->
      <g style="fill: #262626" transform="translate(81.714261 255.638281) scale(0.11 -0.11)">
       <defs>
        <path id="DejaVuSans-30" d="M 2034 4250 
Q 1547 4250 1301 3770 
Q 1056 3291 1056 2328 
Q 1056 1369 1301 889 
Q 1547 409 2034 409 
Q 2525 409 2770 889 
Q 3016 1369 3016 2328 
Q 3016 3291 2770 3770 
Q 2525 4250 2034 4250 
z
M 2034 4750 
Q 2819 4750 3233 4129 
Q 3647 3509 3647 2328 
Q 3647 1150 3233 529 
Q 2819 -91 2034 -91 
Q 1250 -91 836 529 
Q 422 1150 422 2328 
Q 422 3509 836 4129 
Q 1250 4750 2034 4750 
z
" transform="scale(0.015625)"/>
       </defs>
       <use xlink:href="#DejaVuSans-30"/>
      </g>
     </g>
    </g>
    <g id="xtick_2">
     <g id="line2d_2">
      <path d="M 177.147521 237.78 
L 177.147521 12.96 
" clip-path="url(#p4bb4ca4c6e)" style="fill: none; stroke: #ffffff; stroke-linecap: round"/>
     </g>
     <g id="text_2">
      <!-- 20 -->
      <g style="fill: #262626" transform="translate(170.148771 255.638281) scale(0.11 -0.11)">
       <defs>
        <path id="DejaVuSans-32" d="M 1228 531 
L 3431 531 
L 3431 0 
L 469 0 
L 469 531 
Q 828 903 1448 1529 
Q 2069 2156 2228 2338 
Q 2531 2678 2651 2914 
Q 2772 3150 2772 3378 
Q 2772 3750 2511 3984 
Q 2250 4219 1831 4219 
Q 1534 4219 1204 4116 
Q 875 4013 500 3803 
L 500 4441 
Q 881 4594 1212 4672 
Q 1544 4750 1819 4750 
Q 2544 4750 2975 4387 
Q 3406 4025 3406 3419 
Q 3406 3131 3298 2873 
Q 3191 2616 2906 2266 
Q 2828 2175 2409 1742 
Q 1991 1309 1228 531 
z
" transform="scale(0.015625)"/>
       </defs>
       <use xlink:href="#DejaVuSans-32"/>
       <use xlink:href="#DejaVuSans-30" x="63.623047"/>
      </g>
     </g>
    </g>
    <g id="xtick_3">
     <g id="line2d_3">
      <path d="M 269.081405 237.78 
L 269.081405 12.96 
" clip-path="url(#p4bb4ca4c6e)" style="fill: none; stroke: #ffffff; stroke-linecap: round"/>
     </g>
     <g id="text_3">
      <!-- 40 -->
      <g style="fill: #262626" transform="translate(262.082655 255.638281) scale(0.11 -0.11)">
       <defs>
        <path id="DejaVuSans-34" d="M 2419 4116 
L 825 1625 
L 2419 1625 
L 2419 4116 
z
M 2253 4666 
L 3047 4666 
L 3047 1625 
L 3713 1625 
L 3713 1100 
L 3047 1100 
L 3047 0 
L 2419 0 
L 2419 1100 
L 313 1100 
L 313 1709 
L 2253 4666 
z
" transform="scale(0.015625)"/>
       </defs>
       <use xlink:href="#DejaVuSans-34"/>
       <use xlink:href="#DejaVuSans-30" x="63.623047"/>
      </g>
     </g>
    </g>
    <g id="xtick_4">
     <g id="line2d_4">
      <path d="M 361.015289 237.78 
L 361.015289 12.96 
" clip-path="url(#p4bb4ca4c6e)" style="fill: none; stroke: #ffffff; stroke-linecap: round"/>
     </g>
     <g id="text_4">
      <!-- 60 -->
      <g style="fill: #262626" transform="translate(354.016539 255.638281) scale(0.11 -0.11)">
       <defs>
        <path id="DejaVuSans-36" d="M 2113 2584 
Q 1688 2584 1439 2293 
Q 1191 2003 1191 1497 
Q 1191 994 1439 701 
Q 1688 409 2113 409 
Q 2538 409 2786 701 
Q 3034 994 3034 1497 
Q 3034 2003 2786 2293 
Q 2538 2584 2113 2584 
z
M 3366 4563 
L 3366 3988 
Q 3128 4100 2886 4159 
Q 2644 4219 2406 4219 
Q 1781 4219 1451 3797 
Q 1122 3375 1075 2522 
Q 1259 2794 1537 2939 
Q 1816 3084 2150 3084 
Q 2853 3084 3261 2657 
Q 3669 2231 3669 1497 
Q 3669 778 3244 343 
Q 2819 -91 2113 -91 
Q 1303 -91 875 529 
Q 447 1150 447 2328 
Q 447 3434 972 4092 
Q 1497 4750 2381 4750 
Q 2619 4750 2861 4703 
Q 3103 4656 3366 4563 
z
" transform="scale(0.015625)"/>
       </defs>
       <use xlink:href="#DejaVuSans-36"/>
       <use xlink:href="#DejaVuSans-30" x="63.623047"/>
      </g>
     </g>
    </g>
    <g id="xtick_5">
     <g id="line2d_5">
      <path d="M 452.949174 237.78 
L 452.949174 12.96 
" clip-path="url(#p4bb4ca4c6e)" style="fill: none; stroke: #ffffff; stroke-linecap: round"/>
     </g>
     <g id="text_5">
      <!-- 80 -->
      <g style="fill: #262626" transform="translate(445.950424 255.638281) scale(0.11 -0.11)">
       <defs>
        <path id="DejaVuSans-38" d="M 2034 2216 
Q 1584 2216 1326 1975 
Q 1069 1734 1069 1313 
Q 1069 891 1326 650 
Q 1584 409 2034 409 
Q 2484 409 2743 651 
Q 3003 894 3003 1313 
Q 3003 1734 2745 1975 
Q 2488 2216 2034 2216 
z
M 1403 2484 
Q 997 2584 770 2862 
Q 544 3141 544 3541 
Q 544 4100 942 4425 
Q 1341 4750 2034 4750 
Q 2731 4750 3128 4425 
Q 3525 4100 3525 3541 
Q 3525 3141 3298 2862 
Q 3072 2584 2669 2484 
Q 3125 2378 3379 2068 
Q 3634 1759 3634 1313 
Q 3634 634 3220 271 
Q 2806 -91 2034 -91 
Q 1263 -91 848 271 
Q 434 634 434 1313 
Q 434 1759 690 2068 
Q 947 2378 1403 2484 
z
M 1172 3481 
Q 1172 3119 1398 2916 
Q 1625 2713 2034 2713 
Q 2441 2713 2670 2916 
Q 2900 3119 2900 3481 
Q 2900 3844 2670 4047 
Q 2441 4250 2034 4250 
Q 1625 4250 1398 4047 
Q 1172 3844 1172 3481 
z
" transform="scale(0.015625)"/>
       </defs>
       <use xlink:href="#DejaVuSans-38"/>
       <use xlink:href="#DejaVuSans-30" x="63.623047"/>
      </g>
     </g>
    </g>
    <g id="xtick_6">
     <g id="line2d_6">
      <path d="M 544.883058 237.78 
L 544.883058 12.96 
" clip-path="url(#p4bb4ca4c6e)" style="fill: none; stroke: #ffffff; stroke-linecap: round"/>
     </g>
     <g id="text_6">
      <!-- 100 -->
      <g style="fill: #262626" transform="translate(534.384933 255.638281) scale(0.11 -0.11)">
       <defs>
        <path id="DejaVuSans-31" d="M 794 531 
L 1825 531 
L 1825 4091 
L 703 3866 
L 703 4441 
L 1819 4666 
L 2450 4666 
L 2450 531 
L 3481 531 
L 3481 0 
L 794 0 
L 794 531 
z
" transform="scale(0.015625)"/>
       </defs>
       <use xlink:href="#DejaVuSans-31"/>
       <use xlink:href="#DejaVuSans-30" x="63.623047"/>
       <use xlink:href="#DejaVuSans-30" x="127.246094"/>
      </g>
     </g>
    </g>
    <g id="text_7">
     <!-- dummy x -->
     <g style="fill: #262626" transform="translate(284.440313 271.044062) scale(0.12 -0.12)">
      <defs>
       <path id="DejaVuSans-64" d="M 2906 2969 
L 2906 4863 
L 3481 4863 
L 3481 0 
L 2906 0 
L 2906 525 
Q 2725 213 2448 61 
Q 2172 -91 1784 -91 
Q 1150 -91 751 415 
Q 353 922 353 1747 
Q 353 2572 751 3078 
Q 1150 3584 1784 3584 
Q 2172 3584 2448 3432 
Q 2725 3281 2906 2969 
z
M 947 1747 
Q 947 1113 1208 752 
Q 1469 391 1925 391 
Q 2381 391 2643 752 
Q 2906 1113 2906 1747 
Q 2906 2381 2643 2742 
Q 2381 3103 1925 3103 
Q 1469 3103 1208 2742 
Q 947 2381 947 1747 
z
" transform="scale(0.015625)"/>
       <path id="DejaVuSans-75" d="M 544 1381 
L 544 3500 
L 1119 3500 
L 1119 1403 
Q 1119 906 1312 657 
Q 1506 409 1894 409 
Q 2359 409 2629 706 
Q 2900 1003 2900 1516 
L 2900 3500 
L 3475 3500 
L 3475 0 
L 2900 0 
L 2900 538 
Q 2691 219 2414 64 
Q 2138 -91 1772 -91 
Q 1169 -91 856 284 
Q 544 659 544 1381 
z
M 1991 3584 
L 1991 3584 
z
" transform="scale(0.015625)"/>
       <path id="DejaVuSans-6d" d="M 3328 2828 
Q 3544 3216 3844 3400 
Q 4144 3584 4550 3584 
Q 5097 3584 5394 3201 
Q 5691 2819 5691 2113 
L 5691 0 
L 5113 0 
L 5113 2094 
Q 5113 2597 4934 2840 
Q 4756 3084 4391 3084 
Q 3944 3084 3684 2787 
Q 3425 2491 3425 1978 
L 3425 0 
L 2847 0 
L 2847 2094 
Q 2847 2600 2669 2842 
Q 2491 3084 2119 3084 
Q 1678 3084 1418 2786 
Q 1159 2488 1159 1978 
L 1159 0 
L 581 0 
L 581 3500 
L 1159 3500 
L 1159 2956 
Q 1356 3278 1631 3431 
Q 1906 3584 2284 3584 
Q 2666 3584 2933 3390 
Q 3200 3197 3328 2828 
z
" transform="scale(0.015625)"/>
       <path id="DejaVuSans-79" d="M 2059 -325 
Q 1816 -950 1584 -1140 
Q 1353 -1331 966 -1331 
L 506 -1331 
L 506 -850 
L 844 -850 
Q 1081 -850 1212 -737 
Q 1344 -625 1503 -206 
L 1606 56 
L 191 3500 
L 800 3500 
L 1894 763 
L 2988 3500 
L 3597 3500 
L 2059 -325 
z
" transform="scale(0.015625)"/>
       <path id="DejaVuSans-20" transform="scale(0.015625)"/>
       <path id="DejaVuSans-78" d="M 3513 3500 
L 2247 1797 
L 3578 0 
L 2900 0 
L 1881 1375 
L 863 0 
L 184 0 
L 1544 1831 
L 300 3500 
L 978 3500 
L 1906 2253 
L 2834 3500 
L 3513 3500 
z
" transform="scale(0.015625)"/>
      </defs>
      <use xlink:href="#DejaVuSans-64"/>
      <use xlink:href="#DejaVuSans-75" x="63.476562"/>
      <use xlink:href="#DejaVuSans-6d" x="126.855469"/>
      <use xlink:href="#DejaVuSans-6d" x="224.267578"/>
      <use xlink:href="#DejaVuSans-79" x="321.679688"/>
      <use xlink:href="#DejaVuSans-20" x="380.859375"/>
      <use xlink:href="#DejaVuSans-78" x="412.646484"/>
     </g>
    </g>
   </g>
   <g id="matplotlib.axis_2">
    <g id="ytick_1">
     <g id="line2d_7">
      <path d="M 62.46 222.831728 
L 563.04 222.831728 
" clip-path="url(#p4bb4ca4c6e)" style="fill: none; stroke: #ffffff; stroke-linecap: round"/>
     </g>
     <g id="text_8">
      <!-- −20 -->
      <g style="fill: #262626" transform="translate(29.744844 227.010868) scale(0.11 -0.11)">
       <defs>
        <path id="DejaVuSans-2212" d="M 678 2272 
L 4684 2272 
L 4684 1741 
L 678 1741 
L 678 2272 
z
" transform="scale(0.015625)"/>
       </defs>
       <use xlink:href="#DejaVuSans-2212"/>
       <use xlink:href="#DejaVuSans-32" x="83.789062"/>
       <use xlink:href="#DejaVuSans-30" x="147.412109"/>
      </g>
     </g>
    </g>
    <g id="ytick_2">
     <g id="line2d_8">
      <path d="M 62.46 181.75067 
L 563.04 181.75067 
" clip-path="url(#p4bb4ca4c6e)" style="fill: none; stroke: #ffffff; stroke-linecap: round"/>
     </g>
     <g id="text_9">
      <!-- 0 -->
      <g style="fill: #262626" transform="translate(45.96125 185.929811) scale(0.11 -0.11)">
       <use xlink:href="#DejaVuSans-30"/>
      </g>
     </g>
    </g>
    <g id="ytick_3">
     <g id="line2d_9">
      <path d="M 62.46 140.669613 
L 563.04 140.669613 
" clip-path="url(#p4bb4ca4c6e)" style="fill: none; stroke: #ffffff; stroke-linecap: round"/>
     </g>
     <g id="text_10">
      <!-- 20 -->
      <g style="fill: #262626" transform="translate(38.9625 144.848754) scale(0.11 -0.11)">
       <use xlink:href="#DejaVuSans-32"/>
       <use xlink:href="#DejaVuSans-30" x="63.623047"/>
      </g>
     </g>
    </g>
    <g id="ytick_4">
     <g id="line2d_10">
      <path d="M 62.46 99.588556 
L 563.04 99.588556 
" clip-path="url(#p4bb4ca4c6e)" style="fill: none; stroke: #ffffff; stroke-linecap: round"/>
     </g>
     <g id="text_11">
      <!-- 40 -->
      <g style="fill: #262626" transform="translate(38.9625 103.767696) scale(0.11 -0.11)">
       <use xlink:href="#DejaVuSans-34"/>
       <use xlink:href="#DejaVuSans-30" x="63.623047"/>
      </g>
     </g>
    </g>
    <g id="ytick_5">
     <g id="line2d_11">
      <path d="M 62.46 58.507498 
L 563.04 58.507498 
" clip-path="url(#p4bb4ca4c6e)" style="fill: none; stroke: #ffffff; stroke-linecap: round"/>
     </g>
     <g id="text_12">
      <!-- 60 -->
      <g style="fill: #262626" transform="translate(38.9625 62.686639) scale(0.11 -0.11)">
       <use xlink:href="#DejaVuSans-36"/>
       <use xlink:href="#DejaVuSans-30" x="63.623047"/>
      </g>
     </g>
    </g>
    <g id="ytick_6">
     <g id="line2d_12">
      <path d="M 62.46 17.426441 
L 563.04 17.426441 
" clip-path="url(#p4bb4ca4c6e)" style="fill: none; stroke: #ffffff; stroke-linecap: round"/>
     </g>
     <g id="text_13">
      <!-- 80 -->
      <g style="fill: #262626" transform="translate(38.9625 21.605582) scale(0.11 -0.11)">
       <use xlink:href="#DejaVuSans-38"/>
       <use xlink:href="#DejaVuSans-30" x="63.623047"/>
      </g>
     </g>
    </g>
    <g id="text_14">
     <!-- dummy y -->
     <g style="fill: #262626" transform="translate(23.249219 153.679688) rotate(-90) scale(0.12 -0.12)">
      <use xlink:href="#DejaVuSans-64"/>
      <use xlink:href="#DejaVuSans-75" x="63.476562"/>
      <use xlink:href="#DejaVuSans-6d" x="126.855469"/>
      <use xlink:href="#DejaVuSans-6d" x="224.267578"/>
      <use xlink:href="#DejaVuSans-79" x="321.679688"/>
      <use xlink:href="#DejaVuSans-20" x="380.859375"/>
      <use xlink:href="#DejaVuSans-79" x="412.646484"/>
     </g>
    </g>
   </g>
   <g id="PathCollection_1">
    <defs>
     <path id="m6baa6e750c" d="M -0 4.242641 
L 4.242641 0 
L 0 -4.242641 
L -4.242641 -0 
z
" style="stroke: #708090; stroke-opacity: 0.8"/>
    </defs>
    <g clip-path="url(#p4bb4ca4c6e)">
     <use xlink:href="#m6baa6e750c" x="85.213636" y="172.25472" style="fill: #708090; fill-opacity: 0.8; stroke: #708090; stroke-opacity: 0.8"/>
     <use xlink:href="#m6baa6e750c" x="89.810331" y="163.769801" style="fill: #708090; fill-opacity: 0.8; stroke: #708090; stroke-opacity: 0.8"/>
     <use xlink:href="#m6baa6e750c" x="94.407025" y="137.481413" style="fill: #708090; fill-opacity: 0.8; stroke: #708090; stroke-opacity: 0.8"/>
     <use xlink:href="#m6baa6e750c" x="99.003719" y="227.560909" style="fill: #708090; fill-opacity: 0.8; stroke: #708090; stroke-opacity: 0.8"/>
     <use xlink:href="#m6baa6e750c" x="103.600413" y="155.150621" style="fill: #708090; fill-opacity: 0.8; stroke: #708090; stroke-opacity: 0.8"/>
     <use xlink:href="#m6baa6e750c" x="108.197107" y="143.478954" style="fill: #708090; fill-opacity: 0.8; stroke: #708090; stroke-opacity: 0.8"/>
     <use xlink:href="#m6baa6e750c" x="112.793802" y="141.043679" style="fill: #708090; fill-opacity: 0.8; stroke: #708090; stroke-opacity: 0.8"/>
     <use xlink:href="#m6baa6e750c" x="117.390496" y="200.605108" style="fill: #708090; fill-opacity: 0.8; stroke: #708090; stroke-opacity: 0.8"/>
     <use xlink:href="#m6baa6e750c" x="121.98719" y="163.359363" style="fill: #708090; fill-opacity: 0.8; stroke: #708090; stroke-opacity: 0.8"/>
     <use xlink:href="#m6baa6e750c" x="126.583884" y="157.346209" style="fill: #708090; fill-opacity: 0.8; stroke: #708090; stroke-opacity: 0.8"/>
     <use xlink:href="#m6baa6e750c" x="131.180579" y="195.830503" style="fill: #708090; fill-opacity: 0.8; stroke: #708090; stroke-opacity: 0.8"/>
     <use xlink:href="#m6baa6e750c" x="135.777273" y="179.382864" style="fill: #708090; fill-opacity: 0.8; stroke: #708090; stroke-opacity: 0.8"/>
     <use xlink:href="#m6baa6e750c" x="140.373967" y="198.488748" style="fill: #708090; fill-opacity: 0.8; stroke: #708090; stroke-opacity: 0.8"/>
     <use xlink:href="#m6baa6e750c" x="144.970661" y="141.8165" style="fill: #708090; fill-opacity: 0.8; stroke: #708090; stroke-opacity: 0.8"/>
     <use xlink:href="#m6baa6e750c" x="149.567355" y="164.635975" style="fill: #708090; fill-opacity: 0.8; stroke: #708090; stroke-opacity: 0.8"/>
     <use xlink:href="#m6baa6e750c" x="154.16405" y="148.777844" style="fill: #708090; fill-opacity: 0.8; stroke: #708090; stroke-opacity: 0.8"/>
     <use xlink:href="#m6baa6e750c" x="158.760744" y="144.040725" style="fill: #708090; fill-opacity: 0.8; stroke: #708090; stroke-opacity: 0.8"/>
     <use xlink:href="#m6baa6e750c" x="163.357438" y="155.627413" style="fill: #708090; fill-opacity: 0.8; stroke: #708090; stroke-opacity: 0.8"/>
     <use xlink:href="#m6baa6e750c" x="167.954132" y="168.602889" style="fill: #708090; fill-opacity: 0.8; stroke: #708090; stroke-opacity: 0.8"/>
     <use xlink:href="#m6baa6e750c" x="172.550826" y="143.186868" style="fill: #708090; fill-opacity: 0.8; stroke: #708090; stroke-opacity: 0.8"/>
     <use xlink:href="#m6baa6e750c" x="177.147521" y="150.547851" style="fill: #708090; fill-opacity: 0.8; stroke: #708090; stroke-opacity: 0.8"/>
     <use xlink:href="#m6baa6e750c" x="181.744215" y="201.501705" style="fill: #708090; fill-opacity: 0.8; stroke: #708090; stroke-opacity: 0.8"/>
     <use xlink:href="#m6baa6e750c" x="186.340909" y="137.923821" style="fill: #708090; fill-opacity: 0.8; stroke: #708090; stroke-opacity: 0.8"/>
     <use xlink:href="#m6baa6e750c" x="190.937603" y="169.601483" style="fill: #708090; fill-opacity: 0.8; stroke: #708090; stroke-opacity: 0.8"/>
     <use xlink:href="#m6baa6e750c" x="195.534298" y="169.832821" style="fill: #708090; fill-opacity: 0.8; stroke: #708090; stroke-opacity: 0.8"/>
     <use xlink:href="#m6baa6e750c" x="200.130992" y="150.182267" style="fill: #708090; fill-opacity: 0.8; stroke: #708090; stroke-opacity: 0.8"/>
     <use xlink:href="#m6baa6e750c" x="204.727686" y="169.715469" style="fill: #708090; fill-opacity: 0.8; stroke: #708090; stroke-opacity: 0.8"/>
     <use xlink:href="#m6baa6e750c" x="209.32438" y="154.177622" style="fill: #708090; fill-opacity: 0.8; stroke: #708090; stroke-opacity: 0.8"/>
     <use xlink:href="#m6baa6e750c" x="213.921074" y="202.389615" style="fill: #708090; fill-opacity: 0.8; stroke: #708090; stroke-opacity: 0.8"/>
     <use xlink:href="#m6baa6e750c" x="218.517769" y="174.676205" style="fill: #708090; fill-opacity: 0.8; stroke: #708090; stroke-opacity: 0.8"/>
     <use xlink:href="#m6baa6e750c" x="223.114463" y="172.172488" style="fill: #708090; fill-opacity: 0.8; stroke: #708090; stroke-opacity: 0.8"/>
     <use xlink:href="#m6baa6e750c" x="227.711157" y="138.759368" style="fill: #708090; fill-opacity: 0.8; stroke: #708090; stroke-opacity: 0.8"/>
     <use xlink:href="#m6baa6e750c" x="232.307851" y="161.107983" style="fill: #708090; fill-opacity: 0.8; stroke: #708090; stroke-opacity: 0.8"/>
     <use xlink:href="#m6baa6e750c" x="236.904545" y="145.130537" style="fill: #708090; fill-opacity: 0.8; stroke: #708090; stroke-opacity: 0.8"/>
     <use xlink:href="#m6baa6e750c" x="241.50124" y="190.472617" style="fill: #708090; fill-opacity: 0.8; stroke: #708090; stroke-opacity: 0.8"/>
     <use xlink:href="#m6baa6e750c" x="246.097934" y="128.298429" style="fill: #708090; fill-opacity: 0.8; stroke: #708090; stroke-opacity: 0.8"/>
     <use xlink:href="#m6baa6e750c" x="250.694628" y="163.27646" style="fill: #708090; fill-opacity: 0.8; stroke: #708090; stroke-opacity: 0.8"/>
     <use xlink:href="#m6baa6e750c" x="255.291322" y="146.587406" style="fill: #708090; fill-opacity: 0.8; stroke: #708090; stroke-opacity: 0.8"/>
     <use xlink:href="#m6baa6e750c" x="259.888017" y="164.910681" style="fill: #708090; fill-opacity: 0.8; stroke: #708090; stroke-opacity: 0.8"/>
     <use xlink:href="#m6baa6e750c" x="264.484711" y="140.487219" style="fill: #708090; fill-opacity: 0.8; stroke: #708090; stroke-opacity: 0.8"/>
     <use xlink:href="#m6baa6e750c" x="269.081405" y="117.773589" style="fill: #708090; fill-opacity: 0.8; stroke: #708090; stroke-opacity: 0.8"/>
     <use xlink:href="#m6baa6e750c" x="273.678099" y="163.72951" style="fill: #708090; fill-opacity: 0.8; stroke: #708090; stroke-opacity: 0.8"/>
     <use xlink:href="#m6baa6e750c" x="278.274793" y="154.909012" style="fill: #708090; fill-opacity: 0.8; stroke: #708090; stroke-opacity: 0.8"/>
     <use xlink:href="#m6baa6e750c" x="282.871488" y="143.785159" style="fill: #708090; fill-opacity: 0.8; stroke: #708090; stroke-opacity: 0.8"/>
     <use xlink:href="#m6baa6e750c" x="287.468182" y="149.336772" style="fill: #708090; fill-opacity: 0.8; stroke: #708090; stroke-opacity: 0.8"/>
     <use xlink:href="#m6baa6e750c" x="292.064876" y="134.631242" style="fill: #708090; fill-opacity: 0.8; stroke: #708090; stroke-opacity: 0.8"/>
     <use xlink:href="#m6baa6e750c" x="296.66157" y="134.838592" style="fill: #708090; fill-opacity: 0.8; stroke: #708090; stroke-opacity: 0.8"/>
     <use xlink:href="#m6baa6e750c" x="301.258264" y="128.645885" style="fill: #708090; fill-opacity: 0.8; stroke: #708090; stroke-opacity: 0.8"/>
     <use xlink:href="#m6baa6e750c" x="305.854959" y="106.772449" style="fill: #708090; fill-opacity: 0.8; stroke: #708090; stroke-opacity: 0.8"/>
     <use xlink:href="#m6baa6e750c" x="310.451653" y="168.544816" style="fill: #708090; fill-opacity: 0.8; stroke: #708090; stroke-opacity: 0.8"/>
     <use xlink:href="#m6baa6e750c" x="315.048347" y="111.805146" style="fill: #708090; fill-opacity: 0.8; stroke: #708090; stroke-opacity: 0.8"/>
     <use xlink:href="#m6baa6e750c" x="319.645041" y="105.026263" style="fill: #708090; fill-opacity: 0.8; stroke: #708090; stroke-opacity: 0.8"/>
     <use xlink:href="#m6baa6e750c" x="324.241736" y="144.11634" style="fill: #708090; fill-opacity: 0.8; stroke: #708090; stroke-opacity: 0.8"/>
     <use xlink:href="#m6baa6e750c" x="328.83843" y="133.81846" style="fill: #708090; fill-opacity: 0.8; stroke: #708090; stroke-opacity: 0.8"/>
     <use xlink:href="#m6baa6e750c" x="333.435124" y="103.518319" style="fill: #708090; fill-opacity: 0.8; stroke: #708090; stroke-opacity: 0.8"/>
     <use xlink:href="#m6baa6e750c" x="338.031818" y="75.664264" style="fill: #708090; fill-opacity: 0.8; stroke: #708090; stroke-opacity: 0.8"/>
     <use xlink:href="#m6baa6e750c" x="342.628512" y="129.284538" style="fill: #708090; fill-opacity: 0.8; stroke: #708090; stroke-opacity: 0.8"/>
     <use xlink:href="#m6baa6e750c" x="347.225207" y="141.279638" style="fill: #708090; fill-opacity: 0.8; stroke: #708090; stroke-opacity: 0.8"/>
     <use xlink:href="#m6baa6e750c" x="351.821901" y="104.834949" style="fill: #708090; fill-opacity: 0.8; stroke: #708090; stroke-opacity: 0.8"/>
     <use xlink:href="#m6baa6e750c" x="356.418595" y="134.28056" style="fill: #708090; fill-opacity: 0.8; stroke: #708090; stroke-opacity: 0.8"/>
     <use xlink:href="#m6baa6e750c" x="361.015289" y="100.762779" style="fill: #708090; fill-opacity: 0.8; stroke: #708090; stroke-opacity: 0.8"/>
     <use xlink:href="#m6baa6e750c" x="365.611983" y="133.639306" style="fill: #708090; fill-opacity: 0.8; stroke: #708090; stroke-opacity: 0.8"/>
     <use xlink:href="#m6baa6e750c" x="370.208678" y="105.392804" style="fill: #708090; fill-opacity: 0.8; stroke: #708090; stroke-opacity: 0.8"/>
     <use xlink:href="#m6baa6e750c" x="374.805372" y="135.235426" style="fill: #708090; fill-opacity: 0.8; stroke: #708090; stroke-opacity: 0.8"/>
     <use xlink:href="#m6baa6e750c" x="379.402066" y="94.84697" style="fill: #708090; fill-opacity: 0.8; stroke: #708090; stroke-opacity: 0.8"/>
     <use xlink:href="#m6baa6e750c" x="383.99876" y="97.143567" style="fill: #708090; fill-opacity: 0.8; stroke: #708090; stroke-opacity: 0.8"/>
     <use xlink:href="#m6baa6e750c" x="388.595455" y="97.16693" style="fill: #708090; fill-opacity: 0.8; stroke: #708090; stroke-opacity: 0.8"/>
     <use xlink:href="#m6baa6e750c" x="393.192149" y="144.046297" style="fill: #708090; fill-opacity: 0.8; stroke: #708090; stroke-opacity: 0.8"/>
     <use xlink:href="#m6baa6e750c" x="397.788843" y="91.146297" style="fill: #708090; fill-opacity: 0.8; stroke: #708090; stroke-opacity: 0.8"/>
     <use xlink:href="#m6baa6e750c" x="402.385537" y="85.760721" style="fill: #708090; fill-opacity: 0.8; stroke: #708090; stroke-opacity: 0.8"/>
     <use xlink:href="#m6baa6e750c" x="406.982231" y="115.822635" style="fill: #708090; fill-opacity: 0.8; stroke: #708090; stroke-opacity: 0.8"/>
     <use xlink:href="#m6baa6e750c" x="411.578926" y="138.093431" style="fill: #708090; fill-opacity: 0.8; stroke: #708090; stroke-opacity: 0.8"/>
     <use xlink:href="#m6baa6e750c" x="416.17562" y="88.786366" style="fill: #708090; fill-opacity: 0.8; stroke: #708090; stroke-opacity: 0.8"/>
     <use xlink:href="#m6baa6e750c" x="420.772314" y="135.365998" style="fill: #708090; fill-opacity: 0.8; stroke: #708090; stroke-opacity: 0.8"/>
     <use xlink:href="#m6baa6e750c" x="425.369008" y="119.671569" style="fill: #708090; fill-opacity: 0.8; stroke: #708090; stroke-opacity: 0.8"/>
     <use xlink:href="#m6baa6e750c" x="429.965702" y="89.581966" style="fill: #708090; fill-opacity: 0.8; stroke: #708090; stroke-opacity: 0.8"/>
     <use xlink:href="#m6baa6e750c" x="434.562397" y="116.123987" style="fill: #708090; fill-opacity: 0.8; stroke: #708090; stroke-opacity: 0.8"/>
     <use xlink:href="#m6baa6e750c" x="439.159091" y="82.531554" style="fill: #708090; fill-opacity: 0.8; stroke: #708090; stroke-opacity: 0.8"/>
     <use xlink:href="#m6baa6e750c" x="443.755785" y="129.164584" style="fill: #708090; fill-opacity: 0.8; stroke: #708090; stroke-opacity: 0.8"/>
     <use xlink:href="#m6baa6e750c" x="448.352479" y="54.976272" style="fill: #708090; fill-opacity: 0.8; stroke: #708090; stroke-opacity: 0.8"/>
     <use xlink:href="#m6baa6e750c" x="452.949174" y="86.781361" style="fill: #708090; fill-opacity: 0.8; stroke: #708090; stroke-opacity: 0.8"/>
     <use xlink:href="#m6baa6e750c" x="457.545868" y="92.172473" style="fill: #708090; fill-opacity: 0.8; stroke: #708090; stroke-opacity: 0.8"/>
     <use xlink:href="#m6baa6e750c" x="462.142562" y="84.655193" style="fill: #708090; fill-opacity: 0.8; stroke: #708090; stroke-opacity: 0.8"/>
     <use xlink:href="#m6baa6e750c" x="466.739256" y="96.524623" style="fill: #708090; fill-opacity: 0.8; stroke: #708090; stroke-opacity: 0.8"/>
     <use xlink:href="#m6baa6e750c" x="471.33595" y="112.646878" style="fill: #708090; fill-opacity: 0.8; stroke: #708090; stroke-opacity: 0.8"/>
     <use xlink:href="#m6baa6e750c" x="475.932645" y="91.992568" style="fill: #708090; fill-opacity: 0.8; stroke: #708090; stroke-opacity: 0.8"/>
     <use xlink:href="#m6baa6e750c" x="480.529339" y="113.741604" style="fill: #708090; fill-opacity: 0.8; stroke: #708090; stroke-opacity: 0.8"/>
     <use xlink:href="#m6baa6e750c" x="485.126033" y="123.589605" style="fill: #708090; fill-opacity: 0.8; stroke: #708090; stroke-opacity: 0.8"/>
     <use xlink:href="#m6baa6e750c" x="489.722727" y="111.039539" style="fill: #708090; fill-opacity: 0.8; stroke: #708090; stroke-opacity: 0.8"/>
     <use xlink:href="#m6baa6e750c" x="494.319421" y="95.181371" style="fill: #708090; fill-opacity: 0.8; stroke: #708090; stroke-opacity: 0.8"/>
     <use xlink:href="#m6baa6e750c" x="498.916116" y="88.949979" style="fill: #708090; fill-opacity: 0.8; stroke: #708090; stroke-opacity: 0.8"/>
     <use xlink:href="#m6baa6e750c" x="503.51281" y="74.977262" style="fill: #708090; fill-opacity: 0.8; stroke: #708090; stroke-opacity: 0.8"/>
     <use xlink:href="#m6baa6e750c" x="508.109504" y="44.92442" style="fill: #708090; fill-opacity: 0.8; stroke: #708090; stroke-opacity: 0.8"/>
     <use xlink:href="#m6baa6e750c" x="512.706198" y="66.354185" style="fill: #708090; fill-opacity: 0.8; stroke: #708090; stroke-opacity: 0.8"/>
     <use xlink:href="#m6baa6e750c" x="517.302893" y="56.625706" style="fill: #708090; fill-opacity: 0.8; stroke: #708090; stroke-opacity: 0.8"/>
     <use xlink:href="#m6baa6e750c" x="521.899587" y="79.381057" style="fill: #708090; fill-opacity: 0.8; stroke: #708090; stroke-opacity: 0.8"/>
     <use xlink:href="#m6baa6e750c" x="526.496281" y="82.609721" style="fill: #708090; fill-opacity: 0.8; stroke: #708090; stroke-opacity: 0.8"/>
     <use xlink:href="#m6baa6e750c" x="531.092975" y="23.179091" style="fill: #708090; fill-opacity: 0.8; stroke: #708090; stroke-opacity: 0.8"/>
     <use xlink:href="#m6baa6e750c" x="535.689669" y="85.285265" style="fill: #708090; fill-opacity: 0.8; stroke: #708090; stroke-opacity: 0.8"/>
     <use xlink:href="#m6baa6e750c" x="540.286364" y="96.942948" style="fill: #708090; fill-opacity: 0.8; stroke: #708090; stroke-opacity: 0.8"/>
    </g>
   </g>
   <g id="PolyCollection_1">
    <defs>
     <path id="medbc96ac79" d="M 85.213636 -109.923973 
L 85.213636 -100.34437 
L 89.810331 -101.484972 
L 94.407025 -102.610124 
L 99.003719 -103.752116 
L 103.600413 -104.902358 
L 108.197107 -106.039008 
L 112.793802 -107.213525 
L 117.390496 -108.398062 
L 121.98719 -109.553008 
L 126.583884 -110.721558 
L 131.180579 -111.857949 
L 135.777273 -113.009344 
L 140.373967 -114.17344 
L 144.970661 -115.340819 
L 149.567355 -116.48228 
L 154.16405 -117.606174 
L 158.760744 -118.74619 
L 163.357438 -119.913508 
L 167.954132 -121.115163 
L 172.550826 -122.290751 
L 177.147521 -123.439061 
L 181.744215 -124.573326 
L 186.340909 -125.718125 
L 190.937603 -126.842374 
L 195.534298 -127.999786 
L 200.130992 -129.154995 
L 204.727686 -130.251489 
L 209.32438 -131.370867 
L 213.921074 -132.503869 
L 218.517769 -133.604583 
L 223.114463 -134.722547 
L 227.711157 -135.846988 
L 232.307851 -136.96051 
L 236.904545 -138.086077 
L 241.50124 -139.222506 
L 246.097934 -140.33378 
L 250.694628 -141.417827 
L 255.291322 -142.522779 
L 259.888017 -143.643851 
L 264.484711 -144.766319 
L 269.081405 -145.853954 
L 273.678099 -146.958334 
L 278.274793 -148.014389 
L 282.871488 -149.066526 
L 287.468182 -150.186348 
L 292.064876 -151.264072 
L 296.66157 -152.303862 
L 301.258264 -153.377668 
L 305.854959 -154.449278 
L 310.451653 -155.499357 
L 315.048347 -156.570378 
L 319.645041 -157.672197 
L 324.241736 -158.737626 
L 328.83843 -159.770717 
L 333.435124 -160.83588 
L 338.031818 -161.884101 
L 342.628512 -162.95365 
L 347.225207 -164.004901 
L 351.821901 -165.076119 
L 356.418595 -166.145537 
L 361.015289 -167.197502 
L 365.611983 -168.237178 
L 370.208678 -169.25827 
L 374.805372 -170.295054 
L 379.402066 -171.31142 
L 383.99876 -172.370328 
L 388.595455 -173.384775 
L 393.192149 -174.416205 
L 397.788843 -175.421634 
L 402.385537 -176.420407 
L 406.982231 -177.389832 
L 411.578926 -178.42 
L 416.17562 -179.426182 
L 420.772314 -180.447422 
L 425.369008 -181.42917 
L 429.965702 -182.467295 
L 434.562397 -183.473821 
L 439.159091 -184.453566 
L 443.755785 -185.440611 
L 448.352479 -186.418194 
L 452.949174 -187.412855 
L 457.545868 -188.393599 
L 462.142562 -189.384415 
L 466.739256 -190.395123 
L 471.33595 -191.347924 
L 475.932645 -192.314674 
L 480.529339 -193.358429 
L 485.126033 -194.307609 
L 489.722727 -195.32295 
L 494.319421 -196.352829 
L 498.916116 -197.320526 
L 503.51281 -198.295926 
L 508.109504 -199.310041 
L 512.706198 -200.334194 
L 517.302893 -201.347132 
L 521.899587 -202.344647 
L 526.496281 -203.357812 
L 531.092975 -204.341239 
L 535.689669 -205.336266 
L 540.286364 -206.317647 
L 540.286364 -215.938546 
L 540.286364 -215.938546 
L 535.689669 -214.77439 
L 531.092975 -213.605464 
L 526.496281 -212.45468 
L 521.899587 -211.296038 
L 517.302893 -210.153482 
L 512.706198 -209.041419 
L 508.109504 -207.905792 
L 503.51281 -206.754275 
L 498.916116 -205.610108 
L 494.319421 -204.478379 
L 489.722727 -203.339668 
L 485.126033 -202.199102 
L 480.529339 -201.055845 
L 475.932645 -199.917281 
L 471.33595 -198.758342 
L 466.739256 -197.616728 
L 462.142562 -196.465079 
L 457.545868 -195.312761 
L 452.949174 -194.21457 
L 448.352479 -193.05904 
L 443.755785 -191.950186 
L 439.159091 -190.801577 
L 434.562397 -189.651729 
L 429.965702 -188.535056 
L 425.369008 -187.366453 
L 420.772314 -186.251972 
L 416.17562 -185.107135 
L 411.578926 -183.976598 
L 406.982231 -182.843612 
L 402.385537 -181.688334 
L 397.788843 -180.590867 
L 393.192149 -179.461274 
L 388.595455 -178.30529 
L 383.99876 -177.200497 
L 379.402066 -176.092432 
L 374.805372 -174.979161 
L 370.208678 -173.857281 
L 365.611983 -172.74761 
L 361.015289 -171.634402 
L 356.418595 -170.512441 
L 351.821901 -169.387356 
L 347.225207 -168.318553 
L 342.628512 -167.215428 
L 338.031818 -166.136355 
L 333.435124 -165.073684 
L 328.83843 -163.967607 
L 324.241736 -162.918577 
L 319.645041 -161.849377 
L 315.048347 -160.748746 
L 310.451653 -159.68042 
L 305.854959 -158.566591 
L 301.258264 -157.490127 
L 296.66157 -156.458102 
L 292.064876 -155.445561 
L 287.468182 -154.366858 
L 282.871488 -153.27136 
L 278.274793 -152.231106 
L 273.678099 -151.222864 
L 269.081405 -150.239186 
L 264.484711 -149.208088 
L 259.888017 -148.141063 
L 255.291322 -147.154332 
L 250.694628 -146.137139 
L 246.097934 -145.149649 
L 241.50124 -144.137224 
L 236.904545 -143.098933 
L 232.307851 -142.034136 
L 227.711157 -141.020292 
L 223.114463 -139.967941 
L 218.517769 -138.967245 
L 213.921074 -137.925856 
L 209.32438 -136.91029 
L 204.727686 -135.92433 
L 200.130992 -134.959668 
L 195.534298 -133.941276 
L 190.937603 -132.945595 
L 186.340909 -131.94594 
L 181.744215 -130.942658 
L 177.147521 -129.988061 
L 172.550826 -128.965878 
L 167.954132 -127.932505 
L 163.357438 -126.922382 
L 158.760744 -125.921342 
L 154.16405 -124.891932 
L 149.567355 -123.889548 
L 144.970661 -122.903255 
L 140.373967 -121.904676 
L 135.777273 -120.872723 
L 131.180579 -119.871953 
L 126.583884 -118.84664 
L 121.98719 -117.874384 
L 117.390496 -116.863521 
L 112.793802 -115.875407 
L 108.197107 -114.908405 
L 103.600413 -113.931701 
L 99.003719 -112.939346 
L 94.407025 -111.948056 
L 89.810331 -110.93533 
L 85.213636 -109.923973 
z
" style="stroke: #ffffff; stroke-opacity: 0.15"/>
    </defs>
    <g clip-path="url(#p4bb4ca4c6e)">
     <use xlink:href="#medbc96ac79" x="0" y="288" style="fill: #2e8b57; fill-opacity: 0.15; stroke: #ffffff; stroke-opacity: 0.15"/>
    </g>
   </g>
   <g id="line2d_13">
    <path d="M 85.213636 182.96489 
L 89.810331 181.89158 
L 94.407025 180.818269 
L 99.003719 179.744959 
L 103.600413 178.671649 
L 108.197107 177.598338 
L 112.793802 176.525028 
L 117.390496 175.451718 
L 121.98719 174.378407 
L 126.583884 173.305097 
L 131.180579 172.231787 
L 135.777273 171.158476 
L 140.373967 170.085166 
L 144.970661 169.011856 
L 149.567355 167.938546 
L 154.16405 166.865235 
L 158.760744 165.791925 
L 163.357438 164.718615 
L 167.954132 163.645304 
L 172.550826 162.571994 
L 177.147521 161.498684 
L 181.744215 160.425373 
L 186.340909 159.352063 
L 190.937603 158.278753 
L 195.534298 157.205442 
L 200.130992 156.132132 
L 204.727686 155.058822 
L 209.32438 153.985512 
L 213.921074 152.912201 
L 218.517769 151.838891 
L 223.114463 150.765581 
L 227.711157 149.69227 
L 232.307851 148.61896 
L 236.904545 147.54565 
L 241.50124 146.472339 
L 246.097934 145.399029 
L 250.694628 144.325719 
L 255.291322 143.252408 
L 259.888017 142.179098 
L 264.484711 141.105788 
L 269.081405 140.032478 
L 273.678099 138.959167 
L 278.274793 137.885857 
L 282.871488 136.812547 
L 287.468182 135.739236 
L 292.064876 134.665926 
L 296.66157 133.592616 
L 301.258264 132.519305 
L 305.854959 131.445995 
L 310.451653 130.372685 
L 315.048347 129.299375 
L 319.645041 128.226064 
L 324.241736 127.152754 
L 328.83843 126.079444 
L 333.435124 125.006133 
L 338.031818 123.932823 
L 342.628512 122.859513 
L 347.225207 121.786202 
L 351.821901 120.712892 
L 356.418595 119.639582 
L 361.015289 118.566271 
L 365.611983 117.492961 
L 370.208678 116.419651 
L 374.805372 115.346341 
L 379.402066 114.27303 
L 383.99876 113.19972 
L 388.595455 112.12641 
L 393.192149 111.053099 
L 397.788843 109.979789 
L 402.385537 108.906479 
L 406.982231 107.833168 
L 411.578926 106.759858 
L 416.17562 105.686548 
L 420.772314 104.613237 
L 425.369008 103.539927 
L 429.965702 102.466617 
L 434.562397 101.393307 
L 439.159091 100.319996 
L 443.755785 99.246686 
L 448.352479 98.173376 
L 452.949174 97.100065 
L 457.545868 96.026755 
L 462.142562 94.953445 
L 466.739256 93.880134 
L 471.33595 92.806824 
L 475.932645 91.733514 
L 480.529339 90.660204 
L 485.126033 89.586893 
L 489.722727 88.513583 
L 494.319421 87.440273 
L 498.916116 86.366962 
L 503.51281 85.293652 
L 508.109504 84.220342 
L 512.706198 83.147031 
L 517.302893 82.073721 
L 521.899587 81.000411 
L 526.496281 79.9271 
L 531.092975 78.85379 
L 535.689669 77.78048 
L 540.286364 76.70717 
" clip-path="url(#p4bb4ca4c6e)" style="fill: none; stroke-dasharray: 7.4,3.2; stroke-dashoffset: 0; stroke: #2e8b57; stroke-width: 2"/>
   </g>
   <g id="patch_3">
    <path d="M 62.46 237.78 
L 62.46 12.96 
" style="fill: none; stroke: #ffffff; stroke-width: 1.25; stroke-linejoin: miter; stroke-linecap: square"/>
   </g>
   <g id="patch_4">
    <path d="M 62.46 237.78 
L 563.04 237.78 
" style="fill: none; stroke: #ffffff; stroke-width: 1.25; stroke-linejoin: miter; stroke-linecap: square"/>
   </g>
  </g>
 </g>
 <defs>
  <clipPath id="p4bb4ca4c6e">
   <rect x="62.46" y="12.96" width="500.58" height="224.82"/>
  </clipPath>
 </defs>
</svg>
