<?xml version="1.0" encoding="utf-8" standalone="no"?>
<!DOCTYPE svg PUBLIC "-//W3C//DTD SVG 1.1//EN"
  "http://www.w3.org/Graphics/SVG/1.1/DTD/svg11.dtd">
<svg xmlns:xlink="http://www.w3.org/1999/xlink" width="576pt" height="288pt" viewBox="0 0 576 288" xmlns="http://www.w3.org/2000/svg" version="1.1">
 <metadata>
  <rdf:RDF xmlns:dc="http://purl.org/dc/elements/1.1/" xmlns:cc="http://creativecommons.org/ns#" xmlns:rdf="http://www.w3.org/1999/02/22-rdf-syntax-ns#">
   <cc:Work>
    <dc:type rdf:resource="http://purl.org/dc/dcmitype/StillImage"/>
    <dc:date>2023-11-25T18:41:03.460416</dc:date>
    <dc:format>image/svg+xml</dc:format>
    <dc:creator>
     <cc:Agent>
      <dc:title>Matplotlib v3.8.1, https://matplotlib.org/</dc:title>
     </cc:Agent>
    </dc:creator>
   </cc:Work>
  </rdf:RDF>
 </metadata>
 <defs>
  <style type="text/css">*{stroke-linejoin: round; stroke-linecap: butt}</style>
 </defs>
 <g id="figure_1">
  <g id="patch_1">
   <path d="M 0 288 
L 576 288 
L 576 0 
L 0 0 
z
" style="fill: #ffffff"/>
  </g>
  <g id="axes_1">
   <g id="patch_2">
    <path d="M 62.46 237.78 
L 563.04 237.78 
L 563.04 12.96 
L 62.46 12.96 
z
" style="fill: #eaeaf2"/>
   </g>
   <g id="matplotlib.axis_1">
    <g id="xtick_1">
     <g id="line2d_1">
      <path d="M 85.213636 237.78 
L 85.213636 12.96 
" clip-path="url(#pfb42992444)" style="fill: none; stroke: #ffffff; stroke-linecap: round"/>
     </g>
     <g id="text_1">
      <!-- 0 -->
      <g style="fill: #262626" transform="translate(81.714261 255.638281) scale(0.11 -0.11)">
       <defs>
        <path id="DejaVuSans-30" d="M 2034 4250 
Q 1547 4250 1301 3770 
Q 1056 3291 1056 2328 
Q 1056 1369 1301 889 
Q 1547 409 2034 409 
Q 2525 409 2770 889 
Q 3016 1369 3016 2328 
Q 3016 3291 2770 3770 
Q 2525 4250 2034 4250 
z
M 2034 4750 
Q 2819 4750 3233 4129 
Q 3647 3509 3647 2328 
Q 3647 1150 3233 529 
Q 2819 -91 2034 -91 
Q 1250 -91 836 529 
Q 422 1150 422 2328 
Q 422 3509 836 4129 
Q 1250 4750 2034 4750 
z
" transform="scale(0.015625)"/>
       </defs>
       <use xlink:href="#DejaVuSans-30"/>
      </g>
     </g>
    </g>
    <g id="xtick_2">
     <g id="line2d_2">
      <path d="M 177.147521 237.78 
L 177.147521 12.96 
" clip-path="url(#pfb42992444)" style="fill: none; stroke: #ffffff; stroke-linecap: round"/>
     </g>
     <g id="text_2">
      <!-- 20 -->
      <g style="fill: #262626" transform="translate(170.148771 255.638281) scale(0.11 -0.11)">
       <defs>
        <path id="DejaVuSans-32" d="M 1228 531 
L 3431 531 
L 3431 0 
L 469 0 
L 469 531 
Q 828 903 1448 1529 
Q 2069 2156 2228 2338 
Q 2531 2678 2651 2914 
Q 2772 3150 2772 3378 
Q 2772 3750 2511 3984 
Q 2250 4219 1831 4219 
Q 1534 4219 1204 4116 
Q 875 4013 500 3803 
L 500 4441 
Q 881 4594 1212 4672 
Q 1544 4750 1819 4750 
Q 2544 4750 2975 4387 
Q 3406 4025 3406 3419 
Q 3406 3131 3298 2873 
Q 3191 2616 2906 2266 
Q 2828 2175 2409 1742 
Q 1991 1309 1228 531 
z
" transform="scale(0.015625)"/>
       </defs>
       <use xlink:href="#DejaVuSans-32"/>
       <use xlink:href="#DejaVuSans-30" x="63.623047"/>
      </g>
     </g>
    </g>
    <g id="xtick_3">
     <g id="line2d_3">
      <path d="M 269.081405 237.78 
L 269.081405 12.96 
" clip-path="url(#pfb42992444)" style="fill: none; stroke: #ffffff; stroke-linecap: round"/>
     </g>
     <g id="text_3">
      <!-- 40 -->
      <g style="fill: #262626" transform="translate(262.082655 255.638281) scale(0.11 -0.11)">
       <defs>
        <path id="DejaVuSans-34" d="M 2419 4116 
L 825 1625 
L 2419 1625 
L 2419 4116 
z
M 2253 4666 
L 3047 4666 
L 3047 1625 
L 3713 1625 
L 3713 1100 
L 3047 1100 
L 3047 0 
L 2419 0 
L 2419 1100 
L 313 1100 
L 313 1709 
L 2253 4666 
z
" transform="scale(0.015625)"/>
       </defs>
       <use xlink:href="#DejaVuSans-34"/>
       <use xlink:href="#DejaVuSans-30" x="63.623047"/>
      </g>
     </g>
    </g>
    <g id="xtick_4">
     <g id="line2d_4">
      <path d="M 361.015289 237.78 
L 361.015289 12.96 
" clip-path="url(#pfb42992444)" style="fill: none; stroke: #ffffff; stroke-linecap: round"/>
     </g>
     <g id="text_4">
      <!-- 60 -->
      <g style="fill: #262626" transform="translate(354.016539 255.638281) scale(0.11 -0.11)">
       <defs>
        <path id="DejaVuSans-36" d="M 2113 2584 
Q 1688 2584 1439 2293 
Q 1191 2003 1191 1497 
Q 1191 994 1439 701 
Q 1688 409 2113 409 
Q 2538 409 2786 701 
Q 3034 994 3034 1497 
Q 3034 2003 2786 2293 
Q 2538 2584 2113 2584 
z
M 3366 4563 
L 3366 3988 
Q 3128 4100 2886 4159 
Q 2644 4219 2406 4219 
Q 1781 4219 1451 3797 
Q 1122 3375 1075 2522 
Q 1259 2794 1537 2939 
Q 1816 3084 2150 3084 
Q 2853 3084 3261 2657 
Q 3669 2231 3669 1497 
Q 3669 778 3244 343 
Q 2819 -91 2113 -91 
Q 1303 -91 875 529 
Q 447 1150 447 2328 
Q 447 3434 972 4092 
Q 1497 4750 2381 4750 
Q 2619 4750 2861 4703 
Q 3103 4656 3366 4563 
z
" transform="scale(0.015625)"/>
       </defs>
       <use xlink:href="#DejaVuSans-36"/>
       <use xlink:href="#DejaVuSans-30" x="63.623047"/>
      </g>
     </g>
    </g>
    <g id="xtick_5">
     <g id="line2d_5">
      <path d="M 452.949174 237.78 
L 452.949174 12.96 
" clip-path="url(#pfb42992444)" style="fill: none; stroke: #ffffff; stroke-linecap: round"/>
     </g>
     <g id="text_5">
      <!-- 80 -->
      <g style="fill: #262626" transform="translate(445.950424 255.638281) scale(0.11 -0.11)">
       <defs>
        <path id="DejaVuSans-38" d="M 2034 2216 
Q 1584 2216 1326 1975 
Q 1069 1734 1069 1313 
Q 1069 891 1326 650 
Q 1584 409 2034 409 
Q 2484 409 2743 651 
Q 3003 894 3003 1313 
Q 3003 1734 2745 1975 
Q 2488 2216 2034 2216 
z
M 1403 2484 
Q 997 2584 770 2862 
Q 544 3141 544 3541 
Q 544 4100 942 4425 
Q 1341 4750 2034 4750 
Q 2731 4750 3128 4425 
Q 3525 4100 3525 3541 
Q 3525 3141 3298 2862 
Q 3072 2584 2669 2484 
Q 3125 2378 3379 2068 
Q 3634 1759 3634 1313 
Q 3634 634 3220 271 
Q 2806 -91 2034 -91 
Q 1263 -91 848 271 
Q 434 634 434 1313 
Q 434 1759 690 2068 
Q 947 2378 1403 2484 
z
M 1172 3481 
Q 1172 3119 1398 2916 
Q 1625 2713 2034 2713 
Q 2441 2713 2670 2916 
Q 2900 3119 2900 3481 
Q 2900 3844 2670 4047 
Q 2441 4250 2034 4250 
Q 1625 4250 1398 4047 
Q 1172 3844 1172 3481 
z
" transform="scale(0.015625)"/>
       </defs>
       <use xlink:href="#DejaVuSans-38"/>
       <use xlink:href="#DejaVuSans-30" x="63.623047"/>
      </g>
     </g>
    </g>
    <g id="xtick_6">
     <g id="line2d_6">
      <path d="M 544.883058 237.78 
L 544.883058 12.96 
" clip-path="url(#pfb42992444)" style="fill: none; stroke: #ffffff; stroke-linecap: round"/>
     </g>
     <g id="text_6">
      <!-- 100 -->
      <g style="fill: #262626" transform="translate(534.384933 255.638281) scale(0.11 -0.11)">
       <defs>
        <path id="DejaVuSans-31" d="M 794 531 
L 1825 531 
L 1825 4091 
L 703 3866 
L 703 4441 
L 1819 4666 
L 2450 4666 
L 2450 531 
L 3481 531 
L 3481 0 
L 794 0 
L 794 531 
z
" transform="scale(0.015625)"/>
       </defs>
       <use xlink:href="#DejaVuSans-31"/>
       <use xlink:href="#DejaVuSans-30" x="63.623047"/>
       <use xlink:href="#DejaVuSans-30" x="127.246094"/>
      </g>
     </g>
    </g>
    <g id="text_7">
     <!-- dummy x -->
     <g style="fill: #262626" transform="translate(284.440313 271.044062) scale(0.12 -0.12)">
      <defs>
       <path id="DejaVuSans-64" d="M 2906 2969 
L 2906 4863 
L 3481 4863 
L 3481 0 
L 2906 0 
L 2906 525 
Q 2725 213 2448 61 
Q 2172 -91 1784 -91 
Q 1150 -91 751 415 
Q 353 922 353 1747 
Q 353 2572 751 3078 
Q 1150 3584 1784 3584 
Q 2172 3584 2448 3432 
Q 2725 3281 2906 2969 
z
M 947 1747 
Q 947 1113 1208 752 
Q 1469 391 1925 391 
Q 2381 391 2643 752 
Q 2906 1113 2906 1747 
Q 2906 2381 2643 2742 
Q 2381 3103 1925 3103 
Q 1469 3103 1208 2742 
Q 947 2381 947 1747 
z
" transform="scale(0.015625)"/>
       <path id="DejaVuSans-75" d="M 544 1381 
L 544 3500 
L 1119 3500 
L 1119 1403 
Q 1119 906 1312 657 
Q 1506 409 1894 409 
Q 2359 409 2629 706 
Q 2900 1003 2900 1516 
L 2900 3500 
L 3475 3500 
L 3475 0 
L 2900 0 
L 2900 538 
Q 2691 219 2414 64 
Q 2138 -91 1772 -91 
Q 1169 -91 856 284 
Q 544 659 544 1381 
z
M 1991 3584 
L 1991 3584 
z
" transform="scale(0.015625)"/>
       <path id="DejaVuSans-6d" d="M 3328 2828 
Q 3544 3216 3844 3400 
Q 4144 3584 4550 3584 
Q 5097 3584 5394 3201 
Q 5691 2819 5691 2113 
L 5691 0 
L 5113 0 
L 5113 2094 
Q 5113 2597 4934 2840 
Q 4756 3084 4391 3084 
Q 3944 3084 3684 2787 
Q 3425 2491 3425 1978 
L 3425 0 
L 2847 0 
L 2847 2094 
Q 2847 2600 2669 2842 
Q 2491 3084 2119 3084 
Q 1678 3084 1418 2786 
Q 1159 2488 1159 1978 
L 1159 0 
L 581 0 
L 581 3500 
L 1159 3500 
L 1159 2956 
Q 1356 3278 1631 3431 
Q 1906 3584 2284 3584 
Q 2666 3584 2933 3390 
Q 3200 3197 3328 2828 
z
" transform="scale(0.015625)"/>
       <path id="DejaVuSans-79" d="M 2059 -325 
Q 1816 -950 1584 -1140 
Q 1353 -1331 966 -1331 
L 506 -1331 
L 506 -850 
L 844 -850 
Q 1081 -850 1212 -737 
Q 1344 -625 1503 -206 
L 1606 56 
L 191 3500 
L 800 3500 
L 1894 763 
L 2988 3500 
L 3597 3500 
L 2059 -325 
z
" transform="scale(0.015625)"/>
       <path id="DejaVuSans-20" transform="scale(0.015625)"/>
       <path id="DejaVuSans-78" d="M 3513 3500 
L 2247 1797 
L 3578 0 
L 2900 0 
L 1881 1375 
L 863 0 
L 184 0 
L 1544 1831 
L 300 3500 
L 978 3500 
L 1906 2253 
L 2834 3500 
L 3513 3500 
z
" transform="scale(0.015625)"/>
      </defs>
      <use xlink:href="#DejaVuSans-64"/>
      <use xlink:href="#DejaVuSans-75" x="63.476562"/>
      <use xlink:href="#DejaVuSans-6d" x="126.855469"/>
      <use xlink:href="#DejaVuSans-6d" x="224.267578"/>
      <use xlink:href="#DejaVuSans-79" x="321.679688"/>
      <use xlink:href="#DejaVuSans-20" x="380.859375"/>
      <use xlink:href="#DejaVuSans-78" x="412.646484"/>
     </g>
    </g>
   </g>
   <g id="matplotlib.axis_2">
    <g id="ytick_1">
     <g id="line2d_7">
      <path d="M 62.46 230.170309 
L 563.04 230.170309 
" clip-path="url(#pfb42992444)" style="fill: none; stroke: #ffffff; stroke-linecap: round"/>
     </g>
     <g id="text_8">
      <!-- −20 -->
      <g style="fill: #262626" transform="translate(29.744844 234.34945) scale(0.11 -0.11)">
       <defs>
        <path id="DejaVuSans-2212" d="M 678 2272 
L 4684 2272 
L 4684 1741 
L 678 1741 
L 678 2272 
z
" transform="scale(0.015625)"/>
       </defs>
       <use xlink:href="#DejaVuSans-2212"/>
       <use xlink:href="#DejaVuSans-32" x="83.789062"/>
       <use xlink:href="#DejaVuSans-30" x="147.412109"/>
      </g>
     </g>
    </g>
    <g id="ytick_2">
     <g id="line2d_8">
      <path d="M 62.46 204.301707 
L 563.04 204.301707 
" clip-path="url(#pfb42992444)" style="fill: none; stroke: #ffffff; stroke-linecap: round"/>
     </g>
     <g id="text_9">
      <!-- −10 -->
      <g style="fill: #262626" transform="translate(29.744844 208.480848) scale(0.11 -0.11)">
       <use xlink:href="#DejaVuSans-2212"/>
       <use xlink:href="#DejaVuSans-31" x="83.789062"/>
       <use xlink:href="#DejaVuSans-30" x="147.412109"/>
      </g>
     </g>
    </g>
    <g id="ytick_3">
     <g id="line2d_9">
      <path d="M 62.46 178.433105 
L 563.04 178.433105 
" clip-path="url(#pfb42992444)" style="fill: none; stroke: #ffffff; stroke-linecap: round"/>
     </g>
     <g id="text_10">
      <!-- 0 -->
      <g style="fill: #262626" transform="translate(45.96125 182.612246) scale(0.11 -0.11)">
       <use xlink:href="#DejaVuSans-30"/>
      </g>
     </g>
    </g>
    <g id="ytick_4">
     <g id="line2d_10">
      <path d="M 62.46 152.564503 
L 563.04 152.564503 
" clip-path="url(#pfb42992444)" style="fill: none; stroke: #ffffff; stroke-linecap: round"/>
     </g>
     <g id="text_11">
      <!-- 10 -->
      <g style="fill: #262626" transform="translate(38.9625 156.743644) scale(0.11 -0.11)">
       <use xlink:href="#DejaVuSans-31"/>
       <use xlink:href="#DejaVuSans-30" x="63.623047"/>
      </g>
     </g>
    </g>
    <g id="ytick_5">
     <g id="line2d_11">
      <path d="M 62.46 126.695901 
L 563.04 126.695901 
" clip-path="url(#pfb42992444)" style="fill: none; stroke: #ffffff; stroke-linecap: round"/>
     </g>
     <g id="text_12">
      <!-- 20 -->
      <g style="fill: #262626" transform="translate(38.9625 130.875042) scale(0.11 -0.11)">
       <use xlink:href="#DejaVuSans-32"/>
       <use xlink:href="#DejaVuSans-30" x="63.623047"/>
      </g>
     </g>
    </g>
    <g id="ytick_6">
     <g id="line2d_12">
      <path d="M 62.46 100.827299 
L 563.04 100.827299 
" clip-path="url(#pfb42992444)" style="fill: none; stroke: #ffffff; stroke-linecap: round"/>
     </g>
     <g id="text_13">
      <!-- 30 -->
      <g style="fill: #262626" transform="translate(38.9625 105.006439) scale(0.11 -0.11)">
       <defs>
        <path id="DejaVuSans-33" d="M 2597 2516 
Q 3050 2419 3304 2112 
Q 3559 1806 3559 1356 
Q 3559 666 3084 287 
Q 2609 -91 1734 -91 
Q 1441 -91 1130 -33 
Q 819 25 488 141 
L 488 750 
Q 750 597 1062 519 
Q 1375 441 1716 441 
Q 2309 441 2620 675 
Q 2931 909 2931 1356 
Q 2931 1769 2642 2001 
Q 2353 2234 1838 2234 
L 1294 2234 
L 1294 2753 
L 1863 2753 
Q 2328 2753 2575 2939 
Q 2822 3125 2822 3475 
Q 2822 3834 2567 4026 
Q 2313 4219 1838 4219 
Q 1578 4219 1281 4162 
Q 984 4106 628 3988 
L 628 4550 
Q 988 4650 1302 4700 
Q 1616 4750 1894 4750 
Q 2613 4750 3031 4423 
Q 3450 4097 3450 3541 
Q 3450 3153 3228 2886 
Q 3006 2619 2597 2516 
z
" transform="scale(0.015625)"/>
       </defs>
       <use xlink:href="#DejaVuSans-33"/>
       <use xlink:href="#DejaVuSans-30" x="63.623047"/>
      </g>
     </g>
    </g>
    <g id="ytick_7">
     <g id="line2d_13">
      <path d="M 62.46 74.958697 
L 563.04 74.958697 
" clip-path="url(#pfb42992444)" style="fill: none; stroke: #ffffff; stroke-linecap: round"/>
     </g>
     <g id="text_14">
      <!-- 40 -->
      <g style="fill: #262626" transform="translate(38.9625 79.137837) scale(0.11 -0.11)">
       <use xlink:href="#DejaVuSans-34"/>
       <use xlink:href="#DejaVuSans-30" x="63.623047"/>
      </g>
     </g>
    </g>
    <g id="ytick_8">
     <g id="line2d_14">
      <path d="M 62.46 49.090095 
L 563.04 49.090095 
" clip-path="url(#pfb42992444)" style="fill: none; stroke: #ffffff; stroke-linecap: round"/>
     </g>
     <g id="text_15">
      <!-- 50 -->
      <g style="fill: #262626" transform="translate(38.9625 53.269235) scale(0.11 -0.11)">
       <defs>
        <path id="DejaVuSans-35" d="M 691 4666 
L 3169 4666 
L 3169 4134 
L 1269 4134 
L 1269 2991 
Q 1406 3038 1543 3061 
Q 1681 3084 1819 3084 
Q 2600 3084 3056 2656 
Q 3513 2228 3513 1497 
Q 3513 744 3044 326 
Q 2575 -91 1722 -91 
Q 1428 -91 1123 -41 
Q 819 9 494 109 
L 494 744 
Q 775 591 1075 516 
Q 1375 441 1709 441 
Q 2250 441 2565 725 
Q 2881 1009 2881 1497 
Q 2881 1984 2565 2268 
Q 2250 2553 1709 2553 
Q 1456 2553 1204 2497 
Q 953 2441 691 2322 
L 691 4666 
z
" transform="scale(0.015625)"/>
       </defs>
       <use xlink:href="#DejaVuSans-35"/>
       <use xlink:href="#DejaVuSans-30" x="63.623047"/>
      </g>
     </g>
    </g>
    <g id="ytick_9">
     <g id="line2d_15">
      <path d="M 62.46 23.221492 
L 563.04 23.221492 
" clip-path="url(#pfb42992444)" style="fill: none; stroke: #ffffff; stroke-linecap: round"/>
     </g>
     <g id="text_16">
      <!-- 60 -->
      <g style="fill: #262626" transform="translate(38.9625 27.400633) scale(0.11 -0.11)">
       <use xlink:href="#DejaVuSans-36"/>
       <use xlink:href="#DejaVuSans-30" x="63.623047"/>
      </g>
     </g>
    </g>
    <g id="text_17">
     <!-- dummy y -->
     <g style="fill: #262626" transform="translate(23.249219 153.679688) rotate(-90) scale(0.12 -0.12)">
      <use xlink:href="#DejaVuSans-64"/>
      <use xlink:href="#DejaVuSans-75" x="63.476562"/>
      <use xlink:href="#DejaVuSans-6d" x="126.855469"/>
      <use xlink:href="#DejaVuSans-6d" x="224.267578"/>
      <use xlink:href="#DejaVuSans-79" x="321.679688"/>
      <use xlink:href="#DejaVuSans-20" x="380.859375"/>
      <use xlink:href="#DejaVuSans-79" x="412.646484"/>
     </g>
    </g>
   </g>
   <g id="PathCollection_1">
    <defs>
     <path id="m4170d1465f" d="M -0 4.242641 
L 4.242641 0 
L 0 -4.242641 
L -4.242641 -0 
z
" style="stroke: #708090; stroke-opacity: 0.8"/>
    </defs>
    <g clip-path="url(#pfb42992444)">
     <use xlink:href="#m4170d1465f" x="85.213636" y="192.756606" style="fill: #708090; fill-opacity: 0.8; stroke: #708090; stroke-opacity: 0.8"/>
     <use xlink:href="#m4170d1465f" x="89.810331" y="145.17559" style="fill: #708090; fill-opacity: 0.8; stroke: #708090; stroke-opacity: 0.8"/>
     <use xlink:href="#m4170d1465f" x="94.407025" y="129.570771" style="fill: #708090; fill-opacity: 0.8; stroke: #708090; stroke-opacity: 0.8"/>
     <use xlink:href="#m4170d1465f" x="99.003719" y="176.161938" style="fill: #708090; fill-opacity: 0.8; stroke: #708090; stroke-opacity: 0.8"/>
     <use xlink:href="#m4170d1465f" x="103.600413" y="222.084678" style="fill: #708090; fill-opacity: 0.8; stroke: #708090; stroke-opacity: 0.8"/>
     <use xlink:href="#m4170d1465f" x="108.197107" y="146.340888" style="fill: #708090; fill-opacity: 0.8; stroke: #708090; stroke-opacity: 0.8"/>
     <use xlink:href="#m4170d1465f" x="112.793802" y="155.428289" style="fill: #708090; fill-opacity: 0.8; stroke: #708090; stroke-opacity: 0.8"/>
     <use xlink:href="#m4170d1465f" x="117.390496" y="188.460437" style="fill: #708090; fill-opacity: 0.8; stroke: #708090; stroke-opacity: 0.8"/>
     <use xlink:href="#m4170d1465f" x="121.98719" y="194.178648" style="fill: #708090; fill-opacity: 0.8; stroke: #708090; stroke-opacity: 0.8"/>
     <use xlink:href="#m4170d1465f" x="126.583884" y="203.125921" style="fill: #708090; fill-opacity: 0.8; stroke: #708090; stroke-opacity: 0.8"/>
     <use xlink:href="#m4170d1465f" x="131.180579" y="150.062479" style="fill: #708090; fill-opacity: 0.8; stroke: #708090; stroke-opacity: 0.8"/>
     <use xlink:href="#m4170d1465f" x="135.777273" y="227.560909" style="fill: #708090; fill-opacity: 0.8; stroke: #708090; stroke-opacity: 0.8"/>
     <use xlink:href="#m4170d1465f" x="140.373967" y="170.027006" style="fill: #708090; fill-opacity: 0.8; stroke: #708090; stroke-opacity: 0.8"/>
     <use xlink:href="#m4170d1465f" x="144.970661" y="180.248387" style="fill: #708090; fill-opacity: 0.8; stroke: #708090; stroke-opacity: 0.8"/>
     <use xlink:href="#m4170d1465f" x="149.567355" y="129.199535" style="fill: #708090; fill-opacity: 0.8; stroke: #708090; stroke-opacity: 0.8"/>
     <use xlink:href="#m4170d1465f" x="154.16405" y="199.042033" style="fill: #708090; fill-opacity: 0.8; stroke: #708090; stroke-opacity: 0.8"/>
     <use xlink:href="#m4170d1465f" x="158.760744" y="99.848446" style="fill: #708090; fill-opacity: 0.8; stroke: #708090; stroke-opacity: 0.8"/>
     <use xlink:href="#m4170d1465f" x="163.357438" y="162.615339" style="fill: #708090; fill-opacity: 0.8; stroke: #708090; stroke-opacity: 0.8"/>
     <use xlink:href="#m4170d1465f" x="167.954132" y="192.326047" style="fill: #708090; fill-opacity: 0.8; stroke: #708090; stroke-opacity: 0.8"/>
     <use xlink:href="#m4170d1465f" x="172.550826" y="156.903769" style="fill: #708090; fill-opacity: 0.8; stroke: #708090; stroke-opacity: 0.8"/>
     <use xlink:href="#m4170d1465f" x="177.147521" y="126.291654" style="fill: #708090; fill-opacity: 0.8; stroke: #708090; stroke-opacity: 0.8"/>
     <use xlink:href="#m4170d1465f" x="181.744215" y="115.481839" style="fill: #708090; fill-opacity: 0.8; stroke: #708090; stroke-opacity: 0.8"/>
     <use xlink:href="#m4170d1465f" x="186.340909" y="95.188603" style="fill: #708090; fill-opacity: 0.8; stroke: #708090; stroke-opacity: 0.8"/>
     <use xlink:href="#m4170d1465f" x="190.937603" y="160.412057" style="fill: #708090; fill-opacity: 0.8; stroke: #708090; stroke-opacity: 0.8"/>
     <use xlink:href="#m4170d1465f" x="195.534298" y="129.096916" style="fill: #708090; fill-opacity: 0.8; stroke: #708090; stroke-opacity: 0.8"/>
     <use xlink:href="#m4170d1465f" x="200.130992" y="127.308475" style="fill: #708090; fill-opacity: 0.8; stroke: #708090; stroke-opacity: 0.8"/>
     <use xlink:href="#m4170d1465f" x="204.727686" y="179.328396" style="fill: #708090; fill-opacity: 0.8; stroke: #708090; stroke-opacity: 0.8"/>
     <use xlink:href="#m4170d1465f" x="209.32438" y="165.503849" style="fill: #708090; fill-opacity: 0.8; stroke: #708090; stroke-opacity: 0.8"/>
     <use xlink:href="#m4170d1465f" x="213.921074" y="116.902139" style="fill: #708090; fill-opacity: 0.8; stroke: #708090; stroke-opacity: 0.8"/>
     <use xlink:href="#m4170d1465f" x="218.517769" y="133.960281" style="fill: #708090; fill-opacity: 0.8; stroke: #708090; stroke-opacity: 0.8"/>
     <use xlink:href="#m4170d1465f" x="223.114463" y="123.929525" style="fill: #708090; fill-opacity: 0.8; stroke: #708090; stroke-opacity: 0.8"/>
     <use xlink:href="#m4170d1465f" x="227.711157" y="175.096444" style="fill: #708090; fill-opacity: 0.8; stroke: #708090; stroke-opacity: 0.8"/>
     <use xlink:href="#m4170d1465f" x="232.307851" y="107.003903" style="fill: #708090; fill-opacity: 0.8; stroke: #708090; stroke-opacity: 0.8"/>
     <use xlink:href="#m4170d1465f" x="236.904545" y="148.130564" style="fill: #708090; fill-opacity: 0.8; stroke: #708090; stroke-opacity: 0.8"/>
     <use xlink:href="#m4170d1465f" x="241.50124" y="146.501101" style="fill: #708090; fill-opacity: 0.8; stroke: #708090; stroke-opacity: 0.8"/>
     <use xlink:href="#m4170d1465f" x="246.097934" y="124.165252" style="fill: #708090; fill-opacity: 0.8; stroke: #708090; stroke-opacity: 0.8"/>
     <use xlink:href="#m4170d1465f" x="250.694628" y="136.378616" style="fill: #708090; fill-opacity: 0.8; stroke: #708090; stroke-opacity: 0.8"/>
     <use xlink:href="#m4170d1465f" x="255.291322" y="129.384524" style="fill: #708090; fill-opacity: 0.8; stroke: #708090; stroke-opacity: 0.8"/>
     <use xlink:href="#m4170d1465f" x="259.888017" y="125.503642" style="fill: #708090; fill-opacity: 0.8; stroke: #708090; stroke-opacity: 0.8"/>
     <use xlink:href="#m4170d1465f" x="264.484711" y="184.31434" style="fill: #708090; fill-opacity: 0.8; stroke: #708090; stroke-opacity: 0.8"/>
     <use xlink:href="#m4170d1465f" x="269.081405" y="91.564125" style="fill: #708090; fill-opacity: 0.8; stroke: #708090; stroke-opacity: 0.8"/>
     <use xlink:href="#m4170d1465f" x="273.678099" y="172.659658" style="fill: #708090; fill-opacity: 0.8; stroke: #708090; stroke-opacity: 0.8"/>
     <use xlink:href="#m4170d1465f" x="278.274793" y="132.422399" style="fill: #708090; fill-opacity: 0.8; stroke: #708090; stroke-opacity: 0.8"/>
     <use xlink:href="#m4170d1465f" x="282.871488" y="127.284005" style="fill: #708090; fill-opacity: 0.8; stroke: #708090; stroke-opacity: 0.8"/>
     <use xlink:href="#m4170d1465f" x="287.468182" y="130.475413" style="fill: #708090; fill-opacity: 0.8; stroke: #708090; stroke-opacity: 0.8"/>
     <use xlink:href="#m4170d1465f" x="292.064876" y="123.428577" style="fill: #708090; fill-opacity: 0.8; stroke: #708090; stroke-opacity: 0.8"/>
     <use xlink:href="#m4170d1465f" x="296.66157" y="196.220486" style="fill: #708090; fill-opacity: 0.8; stroke: #708090; stroke-opacity: 0.8"/>
     <use xlink:href="#m4170d1465f" x="301.258264" y="124.237714" style="fill: #708090; fill-opacity: 0.8; stroke: #708090; stroke-opacity: 0.8"/>
     <use xlink:href="#m4170d1465f" x="305.854959" y="125.128182" style="fill: #708090; fill-opacity: 0.8; stroke: #708090; stroke-opacity: 0.8"/>
     <use xlink:href="#m4170d1465f" x="310.451653" y="137.624631" style="fill: #708090; fill-opacity: 0.8; stroke: #708090; stroke-opacity: 0.8"/>
     <use xlink:href="#m4170d1465f" x="315.048347" y="94.961659" style="fill: #708090; fill-opacity: 0.8; stroke: #708090; stroke-opacity: 0.8"/>
     <use xlink:href="#m4170d1465f" x="319.645041" y="98.198569" style="fill: #708090; fill-opacity: 0.8; stroke: #708090; stroke-opacity: 0.8"/>
     <use xlink:href="#m4170d1465f" x="324.241736" y="140.808751" style="fill: #708090; fill-opacity: 0.8; stroke: #708090; stroke-opacity: 0.8"/>
     <use xlink:href="#m4170d1465f" x="328.83843" y="98.909599" style="fill: #708090; fill-opacity: 0.8; stroke: #708090; stroke-opacity: 0.8"/>
     <use xlink:href="#m4170d1465f" x="333.435124" y="95.424675" style="fill: #708090; fill-opacity: 0.8; stroke: #708090; stroke-opacity: 0.8"/>
     <use xlink:href="#m4170d1465f" x="338.031818" y="129.192628" style="fill: #708090; fill-opacity: 0.8; stroke: #708090; stroke-opacity: 0.8"/>
     <use xlink:href="#m4170d1465f" x="342.628512" y="76.066786" style="fill: #708090; fill-opacity: 0.8; stroke: #708090; stroke-opacity: 0.8"/>
     <use xlink:href="#m4170d1465f" x="347.225207" y="73.14113" style="fill: #708090; fill-opacity: 0.8; stroke: #708090; stroke-opacity: 0.8"/>
     <use xlink:href="#m4170d1465f" x="351.821901" y="103.458574" style="fill: #708090; fill-opacity: 0.8; stroke: #708090; stroke-opacity: 0.8"/>
     <use xlink:href="#m4170d1465f" x="356.418595" y="95.461425" style="fill: #708090; fill-opacity: 0.8; stroke: #708090; stroke-opacity: 0.8"/>
     <use xlink:href="#m4170d1465f" x="361.015289" y="95.782631" style="fill: #708090; fill-opacity: 0.8; stroke: #708090; stroke-opacity: 0.8"/>
     <use xlink:href="#m4170d1465f" x="365.611983" y="87.196039" style="fill: #708090; fill-opacity: 0.8; stroke: #708090; stroke-opacity: 0.8"/>
     <use xlink:href="#m4170d1465f" x="370.208678" y="90.752602" style="fill: #708090; fill-opacity: 0.8; stroke: #708090; stroke-opacity: 0.8"/>
     <use xlink:href="#m4170d1465f" x="374.805372" y="115.058201" style="fill: #708090; fill-opacity: 0.8; stroke: #708090; stroke-opacity: 0.8"/>
     <use xlink:href="#m4170d1465f" x="379.402066" y="91.754493" style="fill: #708090; fill-opacity: 0.8; stroke: #708090; stroke-opacity: 0.8"/>
     <use xlink:href="#m4170d1465f" x="383.99876" y="63.715985" style="fill: #708090; fill-opacity: 0.8; stroke: #708090; stroke-opacity: 0.8"/>
     <use xlink:href="#m4170d1465f" x="388.595455" y="123.4405" style="fill: #708090; fill-opacity: 0.8; stroke: #708090; stroke-opacity: 0.8"/>
     <use xlink:href="#m4170d1465f" x="393.192149" y="112.038006" style="fill: #708090; fill-opacity: 0.8; stroke: #708090; stroke-opacity: 0.8"/>
     <use xlink:href="#m4170d1465f" x="397.788843" y="48.385203" style="fill: #708090; fill-opacity: 0.8; stroke: #708090; stroke-opacity: 0.8"/>
     <use xlink:href="#m4170d1465f" x="402.385537" y="103.874782" style="fill: #708090; fill-opacity: 0.8; stroke: #708090; stroke-opacity: 0.8"/>
     <use xlink:href="#m4170d1465f" x="406.982231" y="74.02417" style="fill: #708090; fill-opacity: 0.8; stroke: #708090; stroke-opacity: 0.8"/>
     <use xlink:href="#m4170d1465f" x="411.578926" y="117.15976" style="fill: #708090; fill-opacity: 0.8; stroke: #708090; stroke-opacity: 0.8"/>
     <use xlink:href="#m4170d1465f" x="416.17562" y="60.076595" style="fill: #708090; fill-opacity: 0.8; stroke: #708090; stroke-opacity: 0.8"/>
     <use xlink:href="#m4170d1465f" x="420.772314" y="115.821812" style="fill: #708090; fill-opacity: 0.8; stroke: #708090; stroke-opacity: 0.8"/>
     <use xlink:href="#m4170d1465f" x="425.369008" y="95.644763" style="fill: #708090; fill-opacity: 0.8; stroke: #708090; stroke-opacity: 0.8"/>
     <use xlink:href="#m4170d1465f" x="429.965702" y="93.884591" style="fill: #708090; fill-opacity: 0.8; stroke: #708090; stroke-opacity: 0.8"/>
     <use xlink:href="#m4170d1465f" x="434.562397" y="75.55435" style="fill: #708090; fill-opacity: 0.8; stroke: #708090; stroke-opacity: 0.8"/>
     <use xlink:href="#m4170d1465f" x="439.159091" y="41.250962" style="fill: #708090; fill-opacity: 0.8; stroke: #708090; stroke-opacity: 0.8"/>
     <use xlink:href="#m4170d1465f" x="443.755785" y="61.847324" style="fill: #708090; fill-opacity: 0.8; stroke: #708090; stroke-opacity: 0.8"/>
     <use xlink:href="#m4170d1465f" x="448.352479" y="89.646293" style="fill: #708090; fill-opacity: 0.8; stroke: #708090; stroke-opacity: 0.8"/>
     <use xlink:href="#m4170d1465f" x="452.949174" y="77.91874" style="fill: #708090; fill-opacity: 0.8; stroke: #708090; stroke-opacity: 0.8"/>
     <use xlink:href="#m4170d1465f" x="457.545868" y="81.246124" style="fill: #708090; fill-opacity: 0.8; stroke: #708090; stroke-opacity: 0.8"/>
     <use xlink:href="#m4170d1465f" x="462.142562" y="45.500365" style="fill: #708090; fill-opacity: 0.8; stroke: #708090; stroke-opacity: 0.8"/>
     <use xlink:href="#m4170d1465f" x="466.739256" y="85.529136" style="fill: #708090; fill-opacity: 0.8; stroke: #708090; stroke-opacity: 0.8"/>
     <use xlink:href="#m4170d1465f" x="471.33595" y="33.038268" style="fill: #708090; fill-opacity: 0.8; stroke: #708090; stroke-opacity: 0.8"/>
     <use xlink:href="#m4170d1465f" x="475.932645" y="91.34465" style="fill: #708090; fill-opacity: 0.8; stroke: #708090; stroke-opacity: 0.8"/>
     <use xlink:href="#m4170d1465f" x="480.529339" y="72.443513" style="fill: #708090; fill-opacity: 0.8; stroke: #708090; stroke-opacity: 0.8"/>
     <use xlink:href="#m4170d1465f" x="485.126033" y="67.127943" style="fill: #708090; fill-opacity: 0.8; stroke: #708090; stroke-opacity: 0.8"/>
     <use xlink:href="#m4170d1465f" x="489.722727" y="109.751439" style="fill: #708090; fill-opacity: 0.8; stroke: #708090; stroke-opacity: 0.8"/>
     <use xlink:href="#m4170d1465f" x="494.319421" y="47.937735" style="fill: #708090; fill-opacity: 0.8; stroke: #708090; stroke-opacity: 0.8"/>
     <use xlink:href="#m4170d1465f" x="498.916116" y="91.144591" style="fill: #708090; fill-opacity: 0.8; stroke: #708090; stroke-opacity: 0.8"/>
     <use xlink:href="#m4170d1465f" x="503.51281" y="86.753721" style="fill: #708090; fill-opacity: 0.8; stroke: #708090; stroke-opacity: 0.8"/>
     <use xlink:href="#m4170d1465f" x="508.109504" y="23.386351" style="fill: #708090; fill-opacity: 0.8; stroke: #708090; stroke-opacity: 0.8"/>
     <use xlink:href="#m4170d1465f" x="512.706198" y="56.151997" style="fill: #708090; fill-opacity: 0.8; stroke: #708090; stroke-opacity: 0.8"/>
     <use xlink:href="#m4170d1465f" x="517.302893" y="28.418236" style="fill: #708090; fill-opacity: 0.8; stroke: #708090; stroke-opacity: 0.8"/>
     <use xlink:href="#m4170d1465f" x="521.899587" y="64.259944" style="fill: #708090; fill-opacity: 0.8; stroke: #708090; stroke-opacity: 0.8"/>
     <use xlink:href="#m4170d1465f" x="526.496281" y="67.906389" style="fill: #708090; fill-opacity: 0.8; stroke: #708090; stroke-opacity: 0.8"/>
     <use xlink:href="#m4170d1465f" x="531.092975" y="86.545896" style="fill: #708090; fill-opacity: 0.8; stroke: #708090; stroke-opacity: 0.8"/>
     <use xlink:href="#m4170d1465f" x="535.689669" y="49.037946" style="fill: #708090; fill-opacity: 0.8; stroke: #708090; stroke-opacity: 0.8"/>
     <use xlink:href="#m4170d1465f" x="540.286364" y="23.179091" style="fill: #708090; fill-opacity: 0.8; stroke: #708090; stroke-opacity: 0.8"/>
    </g>
   </g>
   <g id="PolyCollection_1">
    <defs>
     <path id="mb3920eaa03" d="M 85.213636 -113.800641 
L 85.213636 -102.018413 
L 89.810331 -103.42908 
L 94.407025 -104.837156 
L 99.003719 -106.256727 
L 103.600413 -107.650895 
L 108.197107 -109.014738 
L 112.793802 -110.379293 
L 117.390496 -111.767863 
L 121.98719 -113.143388 
L 126.583884 -114.523449 
L 131.180579 -115.905591 
L 135.777273 -117.261605 
L 140.373967 -118.613293 
L 144.970661 -120.002098 
L 149.567355 -121.369093 
L 154.16405 -122.737661 
L 158.760744 -124.107246 
L 163.357438 -125.488169 
L 167.954132 -126.855831 
L 172.550826 -128.251572 
L 177.147521 -129.649602 
L 181.744215 -131.053067 
L 186.340909 -132.438456 
L 190.937603 -133.771351 
L 195.534298 -135.17676 
L 200.130992 -136.557477 
L 204.727686 -137.932807 
L 209.32438 -139.337437 
L 213.921074 -140.712147 
L 218.517769 -142.085275 
L 223.114463 -143.462672 
L 227.711157 -144.816326 
L 232.307851 -146.161088 
L 236.904545 -147.545075 
L 241.50124 -148.877648 
L 246.097934 -150.193255 
L 250.694628 -151.534019 
L 255.291322 -152.918713 
L 259.888017 -154.233404 
L 264.484711 -155.573176 
L 269.081405 -156.865672 
L 273.678099 -158.200389 
L 278.274793 -159.535337 
L 282.871488 -160.859118 
L 287.468182 -162.218555 
L 292.064876 -163.520045 
L 296.66157 -164.815992 
L 301.258264 -166.145783 
L 305.854959 -167.409492 
L 310.451653 -168.714929 
L 315.048347 -170.033657 
L 319.645041 -171.372436 
L 324.241736 -172.688159 
L 328.83843 -174.002812 
L 333.435124 -175.286297 
L 338.031818 -176.652439 
L 342.628512 -177.95587 
L 347.225207 -179.233121 
L 351.821901 -180.497225 
L 356.418595 -181.752713 
L 361.015289 -183.024862 
L 365.611983 -184.252133 
L 370.208678 -185.507387 
L 374.805372 -186.748237 
L 379.402066 -188.041556 
L 383.99876 -189.284326 
L 388.595455 -190.55913 
L 393.192149 -191.848234 
L 397.788843 -193.039868 
L 402.385537 -194.298623 
L 406.982231 -195.547632 
L 411.578926 -196.818874 
L 416.17562 -198.061448 
L 420.772314 -199.281261 
L 425.369008 -200.526805 
L 429.965702 -201.738736 
L 434.562397 -202.955074 
L 439.159091 -204.223583 
L 443.755785 -205.441458 
L 448.352479 -206.702114 
L 452.949174 -207.948888 
L 457.545868 -209.147264 
L 462.142562 -210.388474 
L 466.739256 -211.623784 
L 471.33595 -212.881558 
L 475.932645 -214.151556 
L 480.529339 -215.397852 
L 485.126033 -216.602299 
L 489.722727 -217.81821 
L 494.319421 -219.036548 
L 498.916116 -220.274664 
L 503.51281 -221.516093 
L 508.109504 -222.760472 
L 512.706198 -224.007675 
L 517.302893 -225.247543 
L 521.899587 -226.444951 
L 526.496281 -227.664889 
L 531.092975 -228.891526 
L 535.689669 -230.096606 
L 540.286364 -231.269318 
L 540.286364 -241.145111 
L 540.286364 -241.145111 
L 535.689669 -239.806238 
L 531.092975 -238.396019 
L 526.496281 -236.988348 
L 521.899587 -235.587065 
L 517.302893 -234.166879 
L 512.706198 -232.804785 
L 508.109504 -231.429703 
L 503.51281 -230.042474 
L 498.916116 -228.731995 
L 494.319421 -227.412035 
L 489.722727 -226.028428 
L 485.126033 -224.653081 
L 480.529339 -223.262431 
L 475.932645 -221.934161 
L 471.33595 -220.558992 
L 466.739256 -219.166797 
L 462.142562 -217.814151 
L 457.545868 -216.398013 
L 452.949174 -215.046812 
L 448.352479 -213.680916 
L 443.755785 -212.28253 
L 439.159091 -210.949398 
L 434.562397 -209.608046 
L 429.965702 -208.246523 
L 425.369008 -206.922615 
L 420.772314 -205.636008 
L 416.17562 -204.29806 
L 411.578926 -202.953893 
L 406.982231 -201.660633 
L 402.385537 -200.328816 
L 397.788843 -198.949765 
L 393.192149 -197.608943 
L 388.595455 -196.311215 
L 383.99876 -194.996122 
L 379.402066 -193.683358 
L 374.805372 -192.331308 
L 370.208678 -190.96136 
L 365.611983 -189.646357 
L 361.015289 -188.341462 
L 356.418595 -187.022595 
L 351.821901 -185.712375 
L 347.225207 -184.443108 
L 342.628512 -183.134319 
L 338.031818 -181.816222 
L 333.435124 -180.519951 
L 328.83843 -179.227023 
L 324.241736 -177.977457 
L 319.645041 -176.59316 
L 315.048347 -175.307753 
L 310.451653 -174.052157 
L 305.854959 -172.79414 
L 301.258264 -171.518961 
L 296.66157 -170.264288 
L 292.064876 -169.000102 
L 287.468182 -167.733718 
L 282.871488 -166.437781 
L 278.274793 -165.141453 
L 273.678099 -163.92814 
L 269.081405 -162.65161 
L 264.484711 -161.36643 
L 259.888017 -160.149335 
L 255.291322 -158.906263 
L 250.694628 -157.688915 
L 246.097934 -156.464819 
L 241.50124 -155.250311 
L 236.904545 -154.022251 
L 232.307851 -152.788569 
L 227.711157 -151.535546 
L 223.114463 -150.252093 
L 218.517769 -149.039238 
L 213.921074 -147.794797 
L 209.32438 -146.551708 
L 204.727686 -145.362241 
L 200.130992 -144.194096 
L 195.534298 -142.99317 
L 190.937603 -141.709086 
L 186.340909 -140.533136 
L 181.744215 -139.327676 
L 177.147521 -138.159824 
L 172.550826 -136.957248 
L 167.954132 -135.735269 
L 163.357438 -134.510589 
L 158.760744 -133.29627 
L 154.16405 -132.073144 
L 149.567355 -130.811296 
L 144.970661 -129.567245 
L 140.373967 -128.383758 
L 135.777273 -127.141476 
L 131.180579 -125.951929 
L 126.583884 -124.722302 
L 121.98719 -123.478952 
L 117.390496 -122.273604 
L 112.793802 -121.063451 
L 108.197107 -119.865145 
L 103.600413 -118.63929 
L 99.003719 -117.425856 
L 94.407025 -116.220338 
L 89.810331 -115.05149 
L 85.213636 -113.800641 
z
" style="stroke: #ffffff; stroke-opacity: 0.15"/>
    </defs>
    <g clip-path="url(#pfb42992444)">
     <use xlink:href="#mb3920eaa03" x="0" y="288" style="fill: #2e8b57; fill-opacity: 0.15; stroke: #ffffff; stroke-opacity: 0.15"/>
    </g>
   </g>
   <g id="line2d_16">
    <path d="M 85.213636 180.223729 
L 89.810331 178.922886 
L 94.407025 177.622043 
L 99.003719 176.3212 
L 103.600413 175.020357 
L 108.197107 173.719514 
L 112.793802 172.418671 
L 117.390496 171.117828 
L 121.98719 169.816985 
L 126.583884 168.516142 
L 131.180579 167.215299 
L 135.777273 165.914456 
L 140.373967 164.613613 
L 144.970661 163.31277 
L 149.567355 162.011927 
L 154.16405 160.711084 
L 158.760744 159.410241 
L 163.357438 158.109398 
L 167.954132 156.808555 
L 172.550826 155.507712 
L 177.147521 154.206869 
L 181.744215 152.906026 
L 186.340909 151.605183 
L 190.937603 150.30434 
L 195.534298 149.003497 
L 200.130992 147.702654 
L 204.727686 146.401811 
L 209.32438 145.100968 
L 213.921074 143.800125 
L 218.517769 142.499282 
L 223.114463 141.198439 
L 227.711157 139.897596 
L 232.307851 138.596753 
L 236.904545 137.29591 
L 241.50124 135.995066 
L 246.097934 134.694223 
L 250.694628 133.39338 
L 255.291322 132.092537 
L 259.888017 130.791694 
L 264.484711 129.490851 
L 269.081405 128.190008 
L 273.678099 126.889165 
L 278.274793 125.588322 
L 282.871488 124.287479 
L 287.468182 122.986636 
L 292.064876 121.685793 
L 296.66157 120.38495 
L 301.258264 119.084107 
L 305.854959 117.783264 
L 310.451653 116.482421 
L 315.048347 115.181578 
L 319.645041 113.880735 
L 324.241736 112.579892 
L 328.83843 111.279049 
L 333.435124 109.978206 
L 338.031818 108.677363 
L 342.628512 107.37652 
L 347.225207 106.075677 
L 351.821901 104.774834 
L 356.418595 103.473991 
L 361.015289 102.173148 
L 365.611983 100.872305 
L 370.208678 99.571462 
L 374.805372 98.270619 
L 379.402066 96.969776 
L 383.99876 95.668933 
L 388.595455 94.36809 
L 393.192149 93.067247 
L 397.788843 91.766404 
L 402.385537 90.465561 
L 406.982231 89.164718 
L 411.578926 87.863875 
L 416.17562 86.563031 
L 420.772314 85.262188 
L 425.369008 83.961345 
L 429.965702 82.660502 
L 434.562397 81.359659 
L 439.159091 80.058816 
L 443.755785 78.757973 
L 448.352479 77.45713 
L 452.949174 76.156287 
L 457.545868 74.855444 
L 462.142562 73.554601 
L 466.739256 72.253758 
L 471.33595 70.952915 
L 475.932645 69.652072 
L 480.529339 68.351229 
L 485.126033 67.050386 
L 489.722727 65.749543 
L 494.319421 64.4487 
L 498.916116 63.147857 
L 503.51281 61.847014 
L 508.109504 60.546171 
L 512.706198 59.245328 
L 517.302893 57.944485 
L 521.899587 56.643642 
L 526.496281 55.342799 
L 531.092975 54.041956 
L 535.689669 52.741113 
L 540.286364 51.44027 
" clip-path="url(#pfb42992444)" style="fill: none; stroke-dasharray: 7.4,3.2; stroke-dashoffset: 0; stroke: #2e8b57; stroke-width: 2"/>
   </g>
   <g id="patch_3">
    <path d="M 62.46 237.78 
L 62.46 12.96 
" style="fill: none; stroke: #ffffff; stroke-width: 1.25; stroke-linejoin: miter; stroke-linecap: square"/>
   </g>
   <g id="patch_4">
    <path d="M 62.46 237.78 
L 563.04 237.78 
" style="fill: none; stroke: #ffffff; stroke-width: 1.25; stroke-linejoin: miter; stroke-linecap: square"/>
   </g>
  </g>
 </g>
 <defs>
  <clipPath id="pfb42992444">
   <rect x="62.46" y="12.96" width="500.58" height="224.82"/>
  </clipPath>
 </defs>
</svg>
