<?xml version="1.0" encoding="utf-8" standalone="no"?>
<!DOCTYPE svg PUBLIC "-//W3C//DTD SVG 1.1//EN"
  "http://www.w3.org/Graphics/SVG/1.1/DTD/svg11.dtd">
<svg xmlns:xlink="http://www.w3.org/1999/xlink" width="576pt" height="576pt" viewBox="0 0 576 576" xmlns="http://www.w3.org/2000/svg" version="1.1">
 <metadata>
  <rdf:RDF xmlns:dc="http://purl.org/dc/elements/1.1/" xmlns:cc="http://creativecommons.org/ns#" xmlns:rdf="http://www.w3.org/1999/02/22-rdf-syntax-ns#">
   <cc:Work>
    <dc:type rdf:resource="http://purl.org/dc/dcmitype/StillImage"/>
    <dc:date>2023-11-23T20:17:28.778426</dc:date>
    <dc:format>image/svg+xml</dc:format>
    <dc:creator>
     <cc:Agent>
      <dc:title>Matplotlib v3.8.1, https://matplotlib.org/</dc:title>
     </cc:Agent>
    </dc:creator>
   </cc:Work>
  </rdf:RDF>
 </metadata>
 <defs>
  <style type="text/css">*{stroke-linejoin: round; stroke-linecap: butt}</style>
 </defs>
 <g id="figure_1">
  <g id="patch_1">
   <path d="M 0 576 
L 576 576 
L 576 0 
L 0 0 
z
" style="fill: #ffffff"/>
  </g>
  <g id="axes_1">
   <g id="patch_2">
    <path d="M 72 199.567059 
L 518.4 199.567059 
L 518.4 69.12 
L 72 69.12 
z
" style="fill: #ffffff"/>
   </g>
   <g id="matplotlib.axis_1">
    <g id="xtick_1">
     <g id="line2d_1">
      <defs>
       <path id="m4dda504f6e" d="M 0 0 
L 0 3.5 
" style="stroke: #000000; stroke-width: 0.8"/>
      </defs>
      <g>
       <use xlink:href="#m4dda504f6e" x="94.330196" y="199.567059" style="stroke: #000000; stroke-width: 0.8"/>
      </g>
     </g>
    </g>
    <g id="xtick_2">
     <g id="line2d_2">
      <g>
       <use xlink:href="#m4dda504f6e" x="157.548104" y="199.567059" style="stroke: #000000; stroke-width: 0.8"/>
      </g>
     </g>
    </g>
    <g id="xtick_3">
     <g id="line2d_3">
      <g>
       <use xlink:href="#m4dda504f6e" x="216.687437" y="199.567059" style="stroke: #000000; stroke-width: 0.8"/>
      </g>
     </g>
    </g>
    <g id="xtick_4">
     <g id="line2d_4">
      <g>
       <use xlink:href="#m4dda504f6e" x="279.905345" y="199.567059" style="stroke: #000000; stroke-width: 0.8"/>
      </g>
     </g>
    </g>
    <g id="xtick_5">
     <g id="line2d_5">
      <g>
       <use xlink:href="#m4dda504f6e" x="341.083965" y="199.567059" style="stroke: #000000; stroke-width: 0.8"/>
      </g>
     </g>
    </g>
    <g id="xtick_6">
     <g id="line2d_6">
      <g>
       <use xlink:href="#m4dda504f6e" x="404.301873" y="199.567059" style="stroke: #000000; stroke-width: 0.8"/>
      </g>
     </g>
    </g>
    <g id="xtick_7">
     <g id="line2d_7">
      <g>
       <use xlink:href="#m4dda504f6e" x="465.480493" y="199.567059" style="stroke: #000000; stroke-width: 0.8"/>
      </g>
     </g>
    </g>
   </g>
   <g id="matplotlib.axis_2">
    <g id="ytick_1">
     <g id="line2d_8">
      <defs>
       <path id="mdeb70ebbaa" d="M 0 0 
L -3.5 0 
" style="stroke: #000000; stroke-width: 0.8"/>
      </defs>
      <g>
       <use xlink:href="#mdeb70ebbaa" x="72" y="199.398408" style="stroke: #000000; stroke-width: 0.8"/>
      </g>
     </g>
     <g id="text_1">
      <!-- −20 -->
      <g transform="translate(43.895313 203.197627) scale(0.1 -0.1)">
       <defs>
        <path id="DejaVuSans-2212" d="M 678 2272 
L 4684 2272 
L 4684 1741 
L 678 1741 
L 678 2272 
z
" transform="scale(0.015625)"/>
        <path id="DejaVuSans-32" d="M 1228 531 
L 3431 531 
L 3431 0 
L 469 0 
L 469 531 
Q 828 903 1448 1529 
Q 2069 2156 2228 2338 
Q 2531 2678 2651 2914 
Q 2772 3150 2772 3378 
Q 2772 3750 2511 3984 
Q 2250 4219 1831 4219 
Q 1534 4219 1204 4116 
Q 875 4013 500 3803 
L 500 4441 
Q 881 4594 1212 4672 
Q 1544 4750 1819 4750 
Q 2544 4750 2975 4387 
Q 3406 4025 3406 3419 
Q 3406 3131 3298 2873 
Q 3191 2616 2906 2266 
Q 2828 2175 2409 1742 
Q 1991 1309 1228 531 
z
" transform="scale(0.015625)"/>
        <path id="DejaVuSans-30" d="M 2034 4250 
Q 1547 4250 1301 3770 
Q 1056 3291 1056 2328 
Q 1056 1369 1301 889 
Q 1547 409 2034 409 
Q 2525 409 2770 889 
Q 3016 1369 3016 2328 
Q 3016 3291 2770 3770 
Q 2525 4250 2034 4250 
z
M 2034 4750 
Q 2819 4750 3233 4129 
Q 3647 3509 3647 2328 
Q 3647 1150 3233 529 
Q 2819 -91 2034 -91 
Q 1250 -91 836 529 
Q 422 1150 422 2328 
Q 422 3509 836 4129 
Q 1250 4750 2034 4750 
z
" transform="scale(0.015625)"/>
       </defs>
       <use xlink:href="#DejaVuSans-2212"/>
       <use xlink:href="#DejaVuSans-32" x="83.789062"/>
       <use xlink:href="#DejaVuSans-30" x="147.412109"/>
      </g>
     </g>
    </g>
    <g id="ytick_2">
     <g id="line2d_9">
      <g>
       <use xlink:href="#mdeb70ebbaa" x="72" y="174.155615" style="stroke: #000000; stroke-width: 0.8"/>
      </g>
     </g>
     <g id="text_2">
      <!-- −10 -->
      <g transform="translate(43.895313 177.954834) scale(0.1 -0.1)">
       <defs>
        <path id="DejaVuSans-31" d="M 794 531 
L 1825 531 
L 1825 4091 
L 703 3866 
L 703 4441 
L 1819 4666 
L 2450 4666 
L 2450 531 
L 3481 531 
L 3481 0 
L 794 0 
L 794 531 
z
" transform="scale(0.015625)"/>
       </defs>
       <use xlink:href="#DejaVuSans-2212"/>
       <use xlink:href="#DejaVuSans-31" x="83.789062"/>
       <use xlink:href="#DejaVuSans-30" x="147.412109"/>
      </g>
     </g>
    </g>
    <g id="ytick_3">
     <g id="line2d_10">
      <g>
       <use xlink:href="#mdeb70ebbaa" x="72" y="148.912822" style="stroke: #000000; stroke-width: 0.8"/>
      </g>
     </g>
     <g id="text_3">
      <!-- 0 -->
      <g transform="translate(58.6375 152.712041) scale(0.1 -0.1)">
       <use xlink:href="#DejaVuSans-30"/>
      </g>
     </g>
    </g>
    <g id="ytick_4">
     <g id="line2d_11">
      <g>
       <use xlink:href="#mdeb70ebbaa" x="72" y="123.67003" style="stroke: #000000; stroke-width: 0.8"/>
      </g>
     </g>
     <g id="text_4">
      <!-- 10 -->
      <g transform="translate(52.275 127.469248) scale(0.1 -0.1)">
       <use xlink:href="#DejaVuSans-31"/>
       <use xlink:href="#DejaVuSans-30" x="63.623047"/>
      </g>
     </g>
    </g>
    <g id="ytick_5">
     <g id="line2d_12">
      <g>
       <use xlink:href="#mdeb70ebbaa" x="72" y="98.427237" style="stroke: #000000; stroke-width: 0.8"/>
      </g>
     </g>
     <g id="text_5">
      <!-- 20 -->
      <g transform="translate(52.275 102.226456) scale(0.1 -0.1)">
       <use xlink:href="#DejaVuSans-32"/>
       <use xlink:href="#DejaVuSans-30" x="63.623047"/>
      </g>
     </g>
    </g>
    <g id="ytick_6">
     <g id="line2d_13">
      <g>
       <use xlink:href="#mdeb70ebbaa" x="72" y="73.184444" style="stroke: #000000; stroke-width: 0.8"/>
      </g>
     </g>
     <g id="text_6">
      <!-- 30 -->
      <g transform="translate(52.275 76.983663) scale(0.1 -0.1)">
       <defs>
        <path id="DejaVuSans-33" d="M 2597 2516 
Q 3050 2419 3304 2112 
Q 3559 1806 3559 1356 
Q 3559 666 3084 287 
Q 2609 -91 1734 -91 
Q 1441 -91 1130 -33 
Q 819 25 488 141 
L 488 750 
Q 750 597 1062 519 
Q 1375 441 1716 441 
Q 2309 441 2620 675 
Q 2931 909 2931 1356 
Q 2931 1769 2642 2001 
Q 2353 2234 1838 2234 
L 1294 2234 
L 1294 2753 
L 1863 2753 
Q 2328 2753 2575 2939 
Q 2822 3125 2822 3475 
Q 2822 3834 2567 4026 
Q 2313 4219 1838 4219 
Q 1578 4219 1281 4162 
Q 984 4106 628 3988 
L 628 4550 
Q 988 4650 1302 4700 
Q 1616 4750 1894 4750 
Q 2613 4750 3031 4423 
Q 3450 4097 3450 3541 
Q 3450 3153 3228 2886 
Q 3006 2619 2597 2516 
z
" transform="scale(0.015625)"/>
       </defs>
       <use xlink:href="#DejaVuSans-33"/>
       <use xlink:href="#DejaVuSans-30" x="63.623047"/>
      </g>
     </g>
    </g>
    <g id="text_7">
     <!-- Cum. sum -->
     <g transform="translate(37.815625 159.695873) rotate(-90) scale(0.1 -0.1)">
      <defs>
       <path id="DejaVuSans-43" d="M 4122 4306 
L 4122 3641 
Q 3803 3938 3442 4084 
Q 3081 4231 2675 4231 
Q 1875 4231 1450 3742 
Q 1025 3253 1025 2328 
Q 1025 1406 1450 917 
Q 1875 428 2675 428 
Q 3081 428 3442 575 
Q 3803 722 4122 1019 
L 4122 359 
Q 3791 134 3420 21 
Q 3050 -91 2638 -91 
Q 1578 -91 968 557 
Q 359 1206 359 2328 
Q 359 3453 968 4101 
Q 1578 4750 2638 4750 
Q 3056 4750 3426 4639 
Q 3797 4528 4122 4306 
z
" transform="scale(0.015625)"/>
       <path id="DejaVuSans-75" d="M 544 1381 
L 544 3500 
L 1119 3500 
L 1119 1403 
Q 1119 906 1312 657 
Q 1506 409 1894 409 
Q 2359 409 2629 706 
Q 2900 1003 2900 1516 
L 2900 3500 
L 3475 3500 
L 3475 0 
L 2900 0 
L 2900 538 
Q 2691 219 2414 64 
Q 2138 -91 1772 -91 
Q 1169 -91 856 284 
Q 544 659 544 1381 
z
M 1991 3584 
L 1991 3584 
z
" transform="scale(0.015625)"/>
       <path id="DejaVuSans-6d" d="M 3328 2828 
Q 3544 3216 3844 3400 
Q 4144 3584 4550 3584 
Q 5097 3584 5394 3201 
Q 5691 2819 5691 2113 
L 5691 0 
L 5113 0 
L 5113 2094 
Q 5113 2597 4934 2840 
Q 4756 3084 4391 3084 
Q 3944 3084 3684 2787 
Q 3425 2491 3425 1978 
L 3425 0 
L 2847 0 
L 2847 2094 
Q 2847 2600 2669 2842 
Q 2491 3084 2119 3084 
Q 1678 3084 1418 2786 
Q 1159 2488 1159 1978 
L 1159 0 
L 581 0 
L 581 3500 
L 1159 3500 
L 1159 2956 
Q 1356 3278 1631 3431 
Q 1906 3584 2284 3584 
Q 2666 3584 2933 3390 
Q 3200 3197 3328 2828 
z
" transform="scale(0.015625)"/>
       <path id="DejaVuSans-2e" d="M 684 794 
L 1344 794 
L 1344 0 
L 684 0 
L 684 794 
z
" transform="scale(0.015625)"/>
       <path id="DejaVuSans-20" transform="scale(0.015625)"/>
       <path id="DejaVuSans-73" d="M 2834 3397 
L 2834 2853 
Q 2591 2978 2328 3040 
Q 2066 3103 1784 3103 
Q 1356 3103 1142 2972 
Q 928 2841 928 2578 
Q 928 2378 1081 2264 
Q 1234 2150 1697 2047 
L 1894 2003 
Q 2506 1872 2764 1633 
Q 3022 1394 3022 966 
Q 3022 478 2636 193 
Q 2250 -91 1575 -91 
Q 1294 -91 989 -36 
Q 684 19 347 128 
L 347 722 
Q 666 556 975 473 
Q 1284 391 1588 391 
Q 1994 391 2212 530 
Q 2431 669 2431 922 
Q 2431 1156 2273 1281 
Q 2116 1406 1581 1522 
L 1381 1569 
Q 847 1681 609 1914 
Q 372 2147 372 2553 
Q 372 3047 722 3315 
Q 1072 3584 1716 3584 
Q 2034 3584 2315 3537 
Q 2597 3491 2834 3397 
z
" transform="scale(0.015625)"/>
      </defs>
      <use xlink:href="#DejaVuSans-43"/>
      <use xlink:href="#DejaVuSans-75" x="69.824219"/>
      <use xlink:href="#DejaVuSans-6d" x="133.203125"/>
      <use xlink:href="#DejaVuSans-2e" x="230.615234"/>
      <use xlink:href="#DejaVuSans-20" x="262.402344"/>
      <use xlink:href="#DejaVuSans-73" x="294.189453"/>
      <use xlink:href="#DejaVuSans-75" x="346.289062"/>
      <use xlink:href="#DejaVuSans-6d" x="409.667969"/>
     </g>
    </g>
   </g>
   <g id="line2d_14">
    <path d="M 92.290909 147.671149 
L 94.330196 147.757861 
L 98.408771 145.268809 
L 100.448058 143.15688 
L 102.487346 145.03709 
L 104.526633 146.232972 
L 108.605208 151.544561 
L 112.683783 149.834772 
L 114.72307 151.544659 
L 116.762357 155.535789 
L 118.801645 148.549127 
L 120.840932 145.386819 
L 122.880219 142.613413 
L 124.919507 142.908309 
L 126.958794 141.434551 
L 128.998081 139.481042 
L 131.037369 138.996058 
L 133.076656 140.967844 
L 135.115943 141.164278 
L 137.155231 140.68043 
L 139.194518 134.836156 
L 141.233805 136.802066 
L 143.273093 135.494845 
L 145.31238 137.850092 
L 147.351667 134.866773 
L 149.390955 133.658734 
L 151.430242 129.124802 
L 153.469529 129.585991 
L 155.508817 128.945686 
L 157.548104 127.142747 
L 159.587392 126.256088 
L 161.626679 123.775669 
L 163.665966 122.622076 
L 165.705254 123.488295 
L 167.744541 122.89862 
L 169.783828 126.906028 
L 171.823116 125.283636 
L 173.862403 122.557245 
L 175.90169 122.414397 
L 177.940978 124.547245 
L 179.980265 126.112351 
L 182.019552 127.03135 
L 184.05884 123.683741 
L 186.098127 124.689169 
L 188.137414 122.981631 
L 190.176702 121.787158 
L 192.215989 120.005584 
L 194.255276 116.476377 
L 196.294564 114.290762 
L 198.333851 115.127509 
L 200.373138 113.581319 
L 202.412426 110.228802 
L 204.451713 106.442424 
L 206.491 107.564007 
L 208.530288 106.946748 
L 210.569575 104.73145 
L 212.608862 105.359402 
L 214.64815 108.20068 
L 216.687437 106.176422 
L 218.726725 105.837582 
L 220.766012 106.338362 
L 222.805299 104.116634 
L 224.844587 102.224747 
L 226.883874 100.057282 
L 228.923161 102.427383 
L 230.962449 100.816734 
L 235.041023 106.392022 
L 237.080311 106.18585 
L 239.119598 107.635155 
L 241.158885 102.979104 
L 243.198173 102.112834 
L 245.23746 101.851946 
L 247.276747 104.004933 
L 249.316035 106.630769 
L 251.355322 112.223856 
L 253.394609 108.601992 
L 255.433897 105.316195 
L 257.473184 103.139251 
L 259.512471 104.219581 
L 263.591046 95.404915 
L 265.630333 91.733141 
L 267.669621 89.772247 
L 269.708908 87.476443 
L 271.748196 95.224539 
L 273.787483 96.159498 
L 275.82677 96.329427 
L 277.866058 95.804825 
L 279.905345 92.676123 
L 281.944632 95.00609 
L 283.98392 95.167644 
L 286.023207 96.902299 
L 288.062494 96.254841 
L 290.101782 98.232222 
L 292.141069 94.752411 
L 294.180356 95.487126 
L 296.219644 93.562075 
L 298.258931 93.365942 
L 300.298218 88.867839 
L 302.337506 89.659677 
L 304.376793 92.588535 
L 306.41608 94.491743 
L 308.455368 94.413478 
L 310.494655 94.494048 
L 314.57323 96.262473 
L 316.612517 96.84047 
L 318.651804 97.171908 
L 320.691092 93.231495 
L 322.730379 94.875411 
L 324.769667 95.752916 
L 326.808954 89.333679 
L 328.848241 90.168196 
L 330.887529 89.144087 
L 332.926816 88.891883 
L 334.966103 90.793584 
L 337.005391 94.255118 
L 339.044678 93.020855 
L 341.083965 94.849052 
L 343.123253 96.080408 
L 345.16254 94.036069 
L 347.201827 95.259466 
L 349.241115 92.851749 
L 351.280402 96.532284 
L 353.319689 91.741119 
L 355.358977 88.981285 
L 357.398264 87.432637 
L 359.437551 89.427039 
L 361.476839 88.125947 
L 363.516126 84.359337 
L 365.555413 81.661147 
L 367.594701 83.66584 
L 369.633988 79.613971 
L 371.673275 80.092165 
L 373.712563 79.951009 
L 375.75185 86.307083 
L 377.791138 87.598747 
L 379.830425 90.727007 
L 381.869712 88.691437 
L 383.909 88.555345 
L 385.948287 89.363535 
L 387.987574 87.096167 
L 390.026862 87.618544 
L 392.066149 85.850213 
L 394.105436 87.518358 
L 396.144724 81.889502 
L 398.184011 80.400719 
L 400.223298 80.846047 
L 402.262586 77.828375 
L 404.301873 81.569838 
L 406.34116 82.309964 
L 408.380448 79.983467 
L 410.419735 84.61321 
L 412.459022 85.795312 
L 414.49831 88.356809 
L 416.537597 88.36334 
L 418.576884 87.906156 
L 420.616172 85.033126 
L 422.655459 85.137859 
L 426.734034 86.030436 
L 428.773321 86.144646 
L 430.812608 84.500261 
L 432.851896 78.898411 
L 434.891183 77.521403 
L 436.930471 82.55182 
L 438.969758 83.928 
L 441.009045 83.038957 
L 443.048333 84.20271 
L 445.08762 81.152381 
L 447.126907 81.847165 
L 449.166195 84.268689 
L 451.205482 79.768957 
L 453.244769 81.979617 
L 455.284057 82.467 
L 457.323344 80.907022 
L 459.362631 80.502212 
L 461.401919 81.134341 
L 463.441206 80.574279 
L 465.480493 75.049412 
L 469.559068 76.266747 
L 471.598355 79.796884 
L 473.637643 77.877699 
L 475.67693 79.949365 
L 477.716217 77.356289 
L 479.755505 80.111414 
L 481.794792 79.987274 
L 483.834079 83.459137 
L 485.873367 79.025801 
L 487.912654 77.95488 
L 489.951942 79.825402 
L 491.991229 83.496159 
L 494.030516 86.180082 
L 496.069804 92.32637 
L 498.109091 88.95508 
L 498.109091 88.95508 
" clip-path="url(#p40ad6588b8)" style="fill: none; stroke: #0000ff; stroke-width: 1.5; stroke-linecap: square"/>
   </g>
   <g id="patch_3">
    <path d="M 72 199.567059 
L 72 69.12 
" style="fill: none; stroke: #000000; stroke-width: 0.8; stroke-linejoin: miter; stroke-linecap: square"/>
   </g>
   <g id="patch_4">
    <path d="M 518.4 199.567059 
L 518.4 69.12 
" style="fill: none; stroke: #000000; stroke-width: 0.8; stroke-linejoin: miter; stroke-linecap: square"/>
   </g>
   <g id="patch_5">
    <path d="M 72 199.567059 
L 518.4 199.567059 
" style="fill: none; stroke: #000000; stroke-width: 0.8; stroke-linejoin: miter; stroke-linecap: square"/>
   </g>
   <g id="patch_6">
    <path d="M 72 69.12 
L 518.4 69.12 
" style="fill: none; stroke: #000000; stroke-width: 0.8; stroke-linejoin: miter; stroke-linecap: square"/>
   </g>
   <g id="legend_1">
    <g id="patch_7">
     <path d="M 77.831 88.010878 
L 117.613258 88.010878 
Q 119.279258 88.010878 119.279258 86.344878 
L 119.279258 74.951 
Q 119.279258 73.285 117.613258 73.285 
L 77.831 73.285 
Q 76.165 73.285 76.165 74.951 
L 76.165 86.344878 
Q 76.165 88.010878 77.831 88.010878 
z
" style="fill: #ffffff; opacity: 0.5; stroke: #cccccc; stroke-linejoin: miter"/>
    </g>
    <g id="line2d_15">
     <path d="M 79.497 80.030998 
L 87.827 80.030998 
L 96.157 80.030998 
" style="fill: none; stroke: #0000ff; stroke-width: 1.5; stroke-linecap: square"/>
    </g>
    <g id="text_8">
     <!-- foo -->
     <g transform="translate(102.821 82.946498) scale(0.0833 -0.0833)">
      <defs>
       <path id="DejaVuSans-66" d="M 2375 4863 
L 2375 4384 
L 1825 4384 
Q 1516 4384 1395 4259 
Q 1275 4134 1275 3809 
L 1275 3500 
L 2222 3500 
L 2222 3053 
L 1275 3053 
L 1275 0 
L 697 0 
L 697 3053 
L 147 3053 
L 147 3500 
L 697 3500 
L 697 3744 
Q 697 4328 969 4595 
Q 1241 4863 1831 4863 
L 2375 4863 
z
" transform="scale(0.015625)"/>
       <path id="DejaVuSans-6f" d="M 1959 3097 
Q 1497 3097 1228 2736 
Q 959 2375 959 1747 
Q 959 1119 1226 758 
Q 1494 397 1959 397 
Q 2419 397 2687 759 
Q 2956 1122 2956 1747 
Q 2956 2369 2687 2733 
Q 2419 3097 1959 3097 
z
M 1959 3584 
Q 2709 3584 3137 3096 
Q 3566 2609 3566 1747 
Q 3566 888 3137 398 
Q 2709 -91 1959 -91 
Q 1206 -91 779 398 
Q 353 888 353 1747 
Q 353 2609 779 3096 
Q 1206 3584 1959 3584 
z
" transform="scale(0.015625)"/>
      </defs>
      <use xlink:href="#DejaVuSans-66"/>
      <use xlink:href="#DejaVuSans-6f" x="35.205078"/>
      <use xlink:href="#DejaVuSans-6f" x="96.386719"/>
     </g>
    </g>
   </g>
  </g>
  <g id="axes_2">
   <g id="patch_8">
    <path d="M 72 356.103529 
L 518.4 356.103529 
L 518.4 225.656471 
L 72 225.656471 
z
" style="fill: #ffffff"/>
   </g>
   <g id="matplotlib.axis_3">
    <g id="xtick_8">
     <g id="line2d_16">
      <g>
       <use xlink:href="#m4dda504f6e" x="94.330196" y="356.103529" style="stroke: #000000; stroke-width: 0.8"/>
      </g>
     </g>
    </g>
    <g id="xtick_9">
     <g id="line2d_17">
      <g>
       <use xlink:href="#m4dda504f6e" x="157.548104" y="356.103529" style="stroke: #000000; stroke-width: 0.8"/>
      </g>
     </g>
    </g>
    <g id="xtick_10">
     <g id="line2d_18">
      <g>
       <use xlink:href="#m4dda504f6e" x="216.687437" y="356.103529" style="stroke: #000000; stroke-width: 0.8"/>
      </g>
     </g>
    </g>
    <g id="xtick_11">
     <g id="line2d_19">
      <g>
       <use xlink:href="#m4dda504f6e" x="279.905345" y="356.103529" style="stroke: #000000; stroke-width: 0.8"/>
      </g>
     </g>
    </g>
    <g id="xtick_12">
     <g id="line2d_20">
      <g>
       <use xlink:href="#m4dda504f6e" x="341.083965" y="356.103529" style="stroke: #000000; stroke-width: 0.8"/>
      </g>
     </g>
    </g>
    <g id="xtick_13">
     <g id="line2d_21">
      <g>
       <use xlink:href="#m4dda504f6e" x="404.301873" y="356.103529" style="stroke: #000000; stroke-width: 0.8"/>
      </g>
     </g>
    </g>
    <g id="xtick_14">
     <g id="line2d_22">
      <g>
       <use xlink:href="#m4dda504f6e" x="465.480493" y="356.103529" style="stroke: #000000; stroke-width: 0.8"/>
      </g>
     </g>
    </g>
   </g>
   <g id="matplotlib.axis_4">
    <g id="ytick_7">
     <g id="line2d_23">
      <g>
       <use xlink:href="#mdeb70ebbaa" x="72" y="355.934879" style="stroke: #000000; stroke-width: 0.8"/>
      </g>
     </g>
     <g id="text_9">
      <!-- −20 -->
      <g transform="translate(43.895313 359.734097) scale(0.1 -0.1)">
       <use xlink:href="#DejaVuSans-2212"/>
       <use xlink:href="#DejaVuSans-32" x="83.789062"/>
       <use xlink:href="#DejaVuSans-30" x="147.412109"/>
      </g>
     </g>
    </g>
    <g id="ytick_8">
     <g id="line2d_24">
      <g>
       <use xlink:href="#mdeb70ebbaa" x="72" y="330.692086" style="stroke: #000000; stroke-width: 0.8"/>
      </g>
     </g>
     <g id="text_10">
      <!-- −10 -->
      <g transform="translate(43.895313 334.491305) scale(0.1 -0.1)">
       <use xlink:href="#DejaVuSans-2212"/>
       <use xlink:href="#DejaVuSans-31" x="83.789062"/>
       <use xlink:href="#DejaVuSans-30" x="147.412109"/>
      </g>
     </g>
    </g>
    <g id="ytick_9">
     <g id="line2d_25">
      <g>
       <use xlink:href="#mdeb70ebbaa" x="72" y="305.449293" style="stroke: #000000; stroke-width: 0.8"/>
      </g>
     </g>
     <g id="text_11">
      <!-- 0 -->
      <g transform="translate(58.6375 309.248512) scale(0.1 -0.1)">
       <use xlink:href="#DejaVuSans-30"/>
      </g>
     </g>
    </g>
    <g id="ytick_10">
     <g id="line2d_26">
      <g>
       <use xlink:href="#mdeb70ebbaa" x="72" y="280.2065" style="stroke: #000000; stroke-width: 0.8"/>
      </g>
     </g>
     <g id="text_12">
      <!-- 10 -->
      <g transform="translate(52.275 284.005719) scale(0.1 -0.1)">
       <use xlink:href="#DejaVuSans-31"/>
       <use xlink:href="#DejaVuSans-30" x="63.623047"/>
      </g>
     </g>
    </g>
    <g id="ytick_11">
     <g id="line2d_27">
      <g>
       <use xlink:href="#mdeb70ebbaa" x="72" y="254.963708" style="stroke: #000000; stroke-width: 0.8"/>
      </g>
     </g>
     <g id="text_13">
      <!-- 20 -->
      <g transform="translate(52.275 258.762926) scale(0.1 -0.1)">
       <use xlink:href="#DejaVuSans-32"/>
       <use xlink:href="#DejaVuSans-30" x="63.623047"/>
      </g>
     </g>
    </g>
    <g id="ytick_12">
     <g id="line2d_28">
      <g>
       <use xlink:href="#mdeb70ebbaa" x="72" y="229.720915" style="stroke: #000000; stroke-width: 0.8"/>
      </g>
     </g>
     <g id="text_14">
      <!-- 30 -->
      <g transform="translate(52.275 233.520134) scale(0.1 -0.1)">
       <use xlink:href="#DejaVuSans-33"/>
       <use xlink:href="#DejaVuSans-30" x="63.623047"/>
      </g>
     </g>
    </g>
    <g id="text_15">
     <!-- Cum. sum -->
     <g transform="translate(37.815625 316.232344) rotate(-90) scale(0.1 -0.1)">
      <use xlink:href="#DejaVuSans-43"/>
      <use xlink:href="#DejaVuSans-75" x="69.824219"/>
      <use xlink:href="#DejaVuSans-6d" x="133.203125"/>
      <use xlink:href="#DejaVuSans-2e" x="230.615234"/>
      <use xlink:href="#DejaVuSans-20" x="262.402344"/>
      <use xlink:href="#DejaVuSans-73" x="294.189453"/>
      <use xlink:href="#DejaVuSans-75" x="346.289062"/>
      <use xlink:href="#DejaVuSans-6d" x="409.667969"/>
     </g>
    </g>
   </g>
   <g id="line2d_29">
    <path d="M 92.290909 306.374354 
L 94.330196 307.27401 
L 96.369484 308.492266 
L 98.408771 306.540886 
L 100.448058 310.154637 
L 102.487346 308.56274 
L 104.526633 309.690738 
L 106.565921 310.217843 
L 108.605208 314.036863 
L 110.644495 311.299618 
L 112.683783 311.181757 
L 114.72307 313.414499 
L 116.762357 312.505926 
L 118.801645 314.314176 
L 120.840932 315.658556 
L 122.880219 310.71983 
L 124.919507 310.39621 
L 126.958794 313.537246 
L 128.998081 308.379607 
L 131.037369 304.333146 
L 133.076656 305.657472 
L 135.115943 306.51013 
L 137.155231 308.623302 
L 141.233805 306.898824 
L 143.273093 304.729031 
L 145.31238 307.321826 
L 147.351667 309.24473 
L 149.390955 308.971629 
L 151.430242 310.420014 
L 153.469529 308.144124 
L 155.508817 311.121109 
L 157.548104 306.883049 
L 159.587392 309.861763 
L 161.626679 309.177465 
L 163.665966 310.688049 
L 165.705254 307.542994 
L 167.744541 310.487684 
L 169.783828 312.13009 
L 171.823116 311.670222 
L 173.862403 314.582766 
L 175.90169 317.223701 
L 177.940978 318.535963 
L 179.980265 314.700344 
L 182.019552 309.894007 
L 184.05884 312.054181 
L 186.098127 312.956082 
L 188.137414 312.273809 
L 190.176702 314.352024 
L 192.215989 314.282317 
L 194.255276 317.97154 
L 196.294564 318.331771 
L 198.333851 317.130722 
L 200.373138 318.442787 
L 202.412426 318.207514 
L 204.451713 316.878454 
L 206.491 317.088253 
L 208.530288 321.74846 
L 210.569575 321.581134 
L 212.608862 317.32532 
L 214.64815 318.56145 
L 216.687437 322.802773 
L 218.726725 324.883789 
L 220.766012 325.938233 
L 222.805299 330.620138 
L 224.844587 328.115306 
L 226.883874 326.135623 
L 228.923161 327.086669 
L 230.962449 329.444002 
L 233.001736 330.144833 
L 235.041023 327.997531 
L 237.080311 323.847081 
L 239.119598 326.572856 
L 241.158885 324.217148 
L 243.198173 324.332165 
L 245.23746 324.318793 
L 247.276747 322.463158 
L 249.316035 325.098138 
L 251.355322 325.207787 
L 253.394609 325.17882 
L 255.433897 324.71134 
L 257.473184 327.345075 
L 259.512471 325.682128 
L 261.551759 322.489274 
L 263.591046 323.800103 
L 265.630333 326.50045 
L 267.669621 327.584723 
L 269.708908 326.566385 
L 271.748196 327.561583 
L 273.787483 325.636848 
L 275.82677 323.445356 
L 277.866058 325.017566 
L 279.905345 322.742478 
L 281.944632 322.265587 
L 283.98392 328.900521 
L 286.023207 330.932743 
L 288.062494 329.190647 
L 290.101782 329.733659 
L 292.141069 332.353305 
L 294.180356 330.247108 
L 296.219644 329.635589 
L 298.258931 329.987874 
L 300.298218 327.050804 
L 304.376793 327.417751 
L 306.41608 329.845048 
L 308.455368 333.084545 
L 310.494655 334.007902 
L 312.533942 333.091853 
L 314.57323 330.379548 
L 318.651804 334.007422 
L 320.691092 334.608377 
L 322.730379 336.169746 
L 324.769667 333.943088 
L 326.808954 336.500148 
L 328.848241 331.499617 
L 330.887529 331.549864 
L 332.926816 330.191864 
L 337.005391 334.653748 
L 339.044678 334.545719 
L 341.083965 332.994345 
L 343.123253 330.727089 
L 345.16254 330.344079 
L 347.201827 328.842404 
L 349.241115 329.291347 
L 351.280402 330.733572 
L 353.319689 327.174682 
L 355.358977 328.126611 
L 357.398264 326.914263 
L 359.437551 328.729429 
L 361.476839 327.411219 
L 363.516126 330.059272 
L 365.555413 328.022087 
L 367.594701 329.273685 
L 369.633988 329.364846 
L 371.673275 328.717986 
L 373.712563 330.761094 
L 375.75185 333.104132 
L 377.791138 329.641565 
L 379.830425 331.742984 
L 381.869712 332.526217 
L 383.909 331.73699 
L 385.948287 335.689034 
L 387.987574 335.155272 
L 390.026862 335.693102 
L 392.066149 334.703013 
L 394.105436 332.159327 
L 396.144724 327.150476 
L 398.184011 326.09257 
L 400.223298 324.025421 
L 402.262586 320.333898 
L 404.301873 317.136057 
L 406.34116 316.876535 
L 408.380448 319.96825 
L 410.419735 319.120748 
L 412.459022 319.421571 
L 414.49831 320.834652 
L 416.537597 323.238754 
L 418.576884 325.388542 
L 420.616172 323.06547 
L 422.655459 321.666017 
L 424.694746 324.105161 
L 426.734034 324.657804 
L 428.773321 322.056815 
L 430.812608 321.595407 
L 432.851896 323.158273 
L 434.891183 326.514529 
L 436.930471 328.965424 
L 438.969758 328.024941 
L 441.009045 327.983254 
L 443.048333 326.271121 
L 445.08762 322.533621 
L 447.126907 320.050644 
L 449.166195 318.53446 
L 451.205482 317.177732 
L 453.244769 314.674308 
L 455.284057 313.461477 
L 457.323344 310.574908 
L 459.362631 313.969757 
L 461.401919 316.558953 
L 463.441206 316.695655 
L 465.480493 314.225097 
L 467.519781 316.375477 
L 469.559068 320.31805 
L 471.598355 318.333851 
L 473.637643 317.044279 
L 475.67693 316.63958 
L 477.716217 315.838461 
L 479.755505 314.192033 
L 481.794792 316.384242 
L 483.834079 315.363609 
L 485.873367 311.329089 
L 487.912654 310.912731 
L 489.951942 311.7685 
L 491.991229 314.461251 
L 494.030516 315.508423 
L 496.069804 316.124202 
L 498.109091 320.883942 
L 498.109091 320.883942 
" clip-path="url(#p7594982094)" style="fill: none; stroke: #008000; stroke-width: 1.5; stroke-linecap: square"/>
   </g>
   <g id="patch_9">
    <path d="M 72 356.103529 
L 72 225.656471 
" style="fill: none; stroke: #000000; stroke-width: 0.8; stroke-linejoin: miter; stroke-linecap: square"/>
   </g>
   <g id="patch_10">
    <path d="M 518.4 356.103529 
L 518.4 225.656471 
" style="fill: none; stroke: #000000; stroke-width: 0.8; stroke-linejoin: miter; stroke-linecap: square"/>
   </g>
   <g id="patch_11">
    <path d="M 72 356.103529 
L 518.4 356.103529 
" style="fill: none; stroke: #000000; stroke-width: 0.8; stroke-linejoin: miter; stroke-linecap: square"/>
   </g>
   <g id="patch_12">
    <path d="M 72 225.656471 
L 518.4 225.656471 
" style="fill: none; stroke: #000000; stroke-width: 0.8; stroke-linejoin: miter; stroke-linecap: square"/>
   </g>
   <g id="legend_2">
    <g id="patch_13">
     <path d="M 77.831 244.547349 
L 118.304388 244.547349 
Q 119.970388 244.547349 119.970388 242.881349 
L 119.970388 231.487471 
Q 119.970388 229.821471 118.304388 229.821471 
L 77.831 229.821471 
Q 76.165 229.821471 76.165 231.487471 
L 76.165 242.881349 
Q 76.165 244.547349 77.831 244.547349 
z
" style="fill: #ffffff; opacity: 0.5; stroke: #cccccc; stroke-linejoin: miter"/>
    </g>
    <g id="line2d_30">
     <path d="M 79.497 236.567469 
L 87.827 236.567469 
L 96.157 236.567469 
" style="fill: none; stroke: #008000; stroke-width: 1.5; stroke-linecap: square"/>
    </g>
    <g id="text_16">
     <!-- bar -->
     <g transform="translate(102.821 239.482969) scale(0.0833 -0.0833)">
      <defs>
       <path id="DejaVuSans-62" d="M 3116 1747 
Q 3116 2381 2855 2742 
Q 2594 3103 2138 3103 
Q 1681 3103 1420 2742 
Q 1159 2381 1159 1747 
Q 1159 1113 1420 752 
Q 1681 391 2138 391 
Q 2594 391 2855 752 
Q 3116 1113 3116 1747 
z
M 1159 2969 
Q 1341 3281 1617 3432 
Q 1894 3584 2278 3584 
Q 2916 3584 3314 3078 
Q 3713 2572 3713 1747 
Q 3713 922 3314 415 
Q 2916 -91 2278 -91 
Q 1894 -91 1617 61 
Q 1341 213 1159 525 
L 1159 0 
L 581 0 
L 581 4863 
L 1159 4863 
L 1159 2969 
z
" transform="scale(0.015625)"/>
       <path id="DejaVuSans-61" d="M 2194 1759 
Q 1497 1759 1228 1600 
Q 959 1441 959 1056 
Q 959 750 1161 570 
Q 1363 391 1709 391 
Q 2188 391 2477 730 
Q 2766 1069 2766 1631 
L 2766 1759 
L 2194 1759 
z
M 3341 1997 
L 3341 0 
L 2766 0 
L 2766 531 
Q 2569 213 2275 61 
Q 1981 -91 1556 -91 
Q 1019 -91 701 211 
Q 384 513 384 1019 
Q 384 1609 779 1909 
Q 1175 2209 1959 2209 
L 2766 2209 
L 2766 2266 
Q 2766 2663 2505 2880 
Q 2244 3097 1772 3097 
Q 1472 3097 1187 3025 
Q 903 2953 641 2809 
L 641 3341 
Q 956 3463 1253 3523 
Q 1550 3584 1831 3584 
Q 2591 3584 2966 3190 
Q 3341 2797 3341 1997 
z
" transform="scale(0.015625)"/>
       <path id="DejaVuSans-72" d="M 2631 2963 
Q 2534 3019 2420 3045 
Q 2306 3072 2169 3072 
Q 1681 3072 1420 2755 
Q 1159 2438 1159 1844 
L 1159 0 
L 581 0 
L 581 3500 
L 1159 3500 
L 1159 2956 
Q 1341 3275 1631 3429 
Q 1922 3584 2338 3584 
Q 2397 3584 2469 3576 
Q 2541 3569 2628 3553 
L 2631 2963 
z
" transform="scale(0.015625)"/>
      </defs>
      <use xlink:href="#DejaVuSans-62"/>
      <use xlink:href="#DejaVuSans-61" x="63.476562"/>
      <use xlink:href="#DejaVuSans-72" x="124.755859"/>
     </g>
    </g>
   </g>
  </g>
  <g id="axes_3">
   <g id="patch_14">
    <path d="M 72 512.64 
L 518.4 512.64 
L 518.4 382.192941 
L 72 382.192941 
z
" style="fill: #ffffff"/>
   </g>
   <g id="matplotlib.axis_5">
    <g id="xtick_15">
     <g id="line2d_31">
      <g>
       <use xlink:href="#m4dda504f6e" x="94.330196" y="512.64" style="stroke: #000000; stroke-width: 0.8"/>
      </g>
     </g>
     <g id="text_17">
      <!-- 2024-01 -->
      <g transform="translate(73.43879 527.238438) scale(0.1 -0.1)">
       <defs>
        <path id="DejaVuSans-34" d="M 2419 4116 
L 825 1625 
L 2419 1625 
L 2419 4116 
z
M 2253 4666 
L 3047 4666 
L 3047 1625 
L 3713 1625 
L 3713 1100 
L 3047 1100 
L 3047 0 
L 2419 0 
L 2419 1100 
L 313 1100 
L 313 1709 
L 2253 4666 
z
" transform="scale(0.015625)"/>
        <path id="DejaVuSans-2d" d="M 313 2009 
L 1997 2009 
L 1997 1497 
L 313 1497 
L 313 2009 
z
" transform="scale(0.015625)"/>
       </defs>
       <use xlink:href="#DejaVuSans-32"/>
       <use xlink:href="#DejaVuSans-30" x="63.623047"/>
       <use xlink:href="#DejaVuSans-32" x="127.246094"/>
       <use xlink:href="#DejaVuSans-34" x="190.869141"/>
       <use xlink:href="#DejaVuSans-2d" x="254.492188"/>
       <use xlink:href="#DejaVuSans-30" x="290.576172"/>
       <use xlink:href="#DejaVuSans-31" x="354.199219"/>
      </g>
     </g>
    </g>
    <g id="xtick_16">
     <g id="line2d_32">
      <g>
       <use xlink:href="#m4dda504f6e" x="157.548104" y="512.64" style="stroke: #000000; stroke-width: 0.8"/>
      </g>
     </g>
     <g id="text_18">
      <!-- 2024-02 -->
      <g transform="translate(136.656698 527.238438) scale(0.1 -0.1)">
       <use xlink:href="#DejaVuSans-32"/>
       <use xlink:href="#DejaVuSans-30" x="63.623047"/>
       <use xlink:href="#DejaVuSans-32" x="127.246094"/>
       <use xlink:href="#DejaVuSans-34" x="190.869141"/>
       <use xlink:href="#DejaVuSans-2d" x="254.492188"/>
       <use xlink:href="#DejaVuSans-30" x="290.576172"/>
       <use xlink:href="#DejaVuSans-32" x="354.199219"/>
      </g>
     </g>
    </g>
    <g id="xtick_17">
     <g id="line2d_33">
      <g>
       <use xlink:href="#m4dda504f6e" x="216.687437" y="512.64" style="stroke: #000000; stroke-width: 0.8"/>
      </g>
     </g>
     <g id="text_19">
      <!-- 2024-03 -->
      <g transform="translate(195.796031 527.238438) scale(0.1 -0.1)">
       <use xlink:href="#DejaVuSans-32"/>
       <use xlink:href="#DejaVuSans-30" x="63.623047"/>
       <use xlink:href="#DejaVuSans-32" x="127.246094"/>
       <use xlink:href="#DejaVuSans-34" x="190.869141"/>
       <use xlink:href="#DejaVuSans-2d" x="254.492188"/>
       <use xlink:href="#DejaVuSans-30" x="290.576172"/>
       <use xlink:href="#DejaVuSans-33" x="354.199219"/>
      </g>
     </g>
    </g>
    <g id="xtick_18">
     <g id="line2d_34">
      <g>
       <use xlink:href="#m4dda504f6e" x="279.905345" y="512.64" style="stroke: #000000; stroke-width: 0.8"/>
      </g>
     </g>
     <g id="text_20">
      <!-- 2024-04 -->
      <g transform="translate(259.013939 527.238438) scale(0.1 -0.1)">
       <use xlink:href="#DejaVuSans-32"/>
       <use xlink:href="#DejaVuSans-30" x="63.623047"/>
       <use xlink:href="#DejaVuSans-32" x="127.246094"/>
       <use xlink:href="#DejaVuSans-34" x="190.869141"/>
       <use xlink:href="#DejaVuSans-2d" x="254.492188"/>
       <use xlink:href="#DejaVuSans-30" x="290.576172"/>
       <use xlink:href="#DejaVuSans-34" x="354.199219"/>
      </g>
     </g>
    </g>
    <g id="xtick_19">
     <g id="line2d_35">
      <g>
       <use xlink:href="#m4dda504f6e" x="341.083965" y="512.64" style="stroke: #000000; stroke-width: 0.8"/>
      </g>
     </g>
     <g id="text_21">
      <!-- 2024-05 -->
      <g transform="translate(320.192559 527.238438) scale(0.1 -0.1)">
       <defs>
        <path id="DejaVuSans-35" d="M 691 4666 
L 3169 4666 
L 3169 4134 
L 1269 4134 
L 1269 2991 
Q 1406 3038 1543 3061 
Q 1681 3084 1819 3084 
Q 2600 3084 3056 2656 
Q 3513 2228 3513 1497 
Q 3513 744 3044 326 
Q 2575 -91 1722 -91 
Q 1428 -91 1123 -41 
Q 819 9 494 109 
L 494 744 
Q 775 591 1075 516 
Q 1375 441 1709 441 
Q 2250 441 2565 725 
Q 2881 1009 2881 1497 
Q 2881 1984 2565 2268 
Q 2250 2553 1709 2553 
Q 1456 2553 1204 2497 
Q 953 2441 691 2322 
L 691 4666 
z
" transform="scale(0.015625)"/>
       </defs>
       <use xlink:href="#DejaVuSans-32"/>
       <use xlink:href="#DejaVuSans-30" x="63.623047"/>
       <use xlink:href="#DejaVuSans-32" x="127.246094"/>
       <use xlink:href="#DejaVuSans-34" x="190.869141"/>
       <use xlink:href="#DejaVuSans-2d" x="254.492188"/>
       <use xlink:href="#DejaVuSans-30" x="290.576172"/>
       <use xlink:href="#DejaVuSans-35" x="354.199219"/>
      </g>
     </g>
    </g>
    <g id="xtick_20">
     <g id="line2d_36">
      <g>
       <use xlink:href="#m4dda504f6e" x="404.301873" y="512.64" style="stroke: #000000; stroke-width: 0.8"/>
      </g>
     </g>
     <g id="text_22">
      <!-- 2024-06 -->
      <g transform="translate(383.410467 527.238438) scale(0.1 -0.1)">
       <defs>
        <path id="DejaVuSans-36" d="M 2113 2584 
Q 1688 2584 1439 2293 
Q 1191 2003 1191 1497 
Q 1191 994 1439 701 
Q 1688 409 2113 409 
Q 2538 409 2786 701 
Q 3034 994 3034 1497 
Q 3034 2003 2786 2293 
Q 2538 2584 2113 2584 
z
M 3366 4563 
L 3366 3988 
Q 3128 4100 2886 4159 
Q 2644 4219 2406 4219 
Q 1781 4219 1451 3797 
Q 1122 3375 1075 2522 
Q 1259 2794 1537 2939 
Q 1816 3084 2150 3084 
Q 2853 3084 3261 2657 
Q 3669 2231 3669 1497 
Q 3669 778 3244 343 
Q 2819 -91 2113 -91 
Q 1303 -91 875 529 
Q 447 1150 447 2328 
Q 447 3434 972 4092 
Q 1497 4750 2381 4750 
Q 2619 4750 2861 4703 
Q 3103 4656 3366 4563 
z
" transform="scale(0.015625)"/>
       </defs>
       <use xlink:href="#DejaVuSans-32"/>
       <use xlink:href="#DejaVuSans-30" x="63.623047"/>
       <use xlink:href="#DejaVuSans-32" x="127.246094"/>
       <use xlink:href="#DejaVuSans-34" x="190.869141"/>
       <use xlink:href="#DejaVuSans-2d" x="254.492188"/>
       <use xlink:href="#DejaVuSans-30" x="290.576172"/>
       <use xlink:href="#DejaVuSans-36" x="354.199219"/>
      </g>
     </g>
    </g>
    <g id="xtick_21">
     <g id="line2d_37">
      <g>
       <use xlink:href="#m4dda504f6e" x="465.480493" y="512.64" style="stroke: #000000; stroke-width: 0.8"/>
      </g>
     </g>
     <g id="text_23">
      <!-- 2024-07 -->
      <g transform="translate(444.589087 527.238438) scale(0.1 -0.1)">
       <defs>
        <path id="DejaVuSans-37" d="M 525 4666 
L 3525 4666 
L 3525 4397 
L 1831 0 
L 1172 0 
L 2766 4134 
L 525 4134 
L 525 4666 
z
" transform="scale(0.015625)"/>
       </defs>
       <use xlink:href="#DejaVuSans-32"/>
       <use xlink:href="#DejaVuSans-30" x="63.623047"/>
       <use xlink:href="#DejaVuSans-32" x="127.246094"/>
       <use xlink:href="#DejaVuSans-34" x="190.869141"/>
       <use xlink:href="#DejaVuSans-2d" x="254.492188"/>
       <use xlink:href="#DejaVuSans-30" x="290.576172"/>
       <use xlink:href="#DejaVuSans-37" x="354.199219"/>
      </g>
     </g>
    </g>
    <g id="text_24">
     <!-- Date -->
     <g transform="translate(283.249219 540.916563) scale(0.1 -0.1)">
      <defs>
       <path id="DejaVuSans-44" d="M 1259 4147 
L 1259 519 
L 2022 519 
Q 2988 519 3436 956 
Q 3884 1394 3884 2338 
Q 3884 3275 3436 3711 
Q 2988 4147 2022 4147 
L 1259 4147 
z
M 628 4666 
L 1925 4666 
Q 3281 4666 3915 4102 
Q 4550 3538 4550 2338 
Q 4550 1131 3912 565 
Q 3275 0 1925 0 
L 628 0 
L 628 4666 
z
" transform="scale(0.015625)"/>
       <path id="DejaVuSans-74" d="M 1172 4494 
L 1172 3500 
L 2356 3500 
L 2356 3053 
L 1172 3053 
L 1172 1153 
Q 1172 725 1289 603 
Q 1406 481 1766 481 
L 2356 481 
L 2356 0 
L 1766 0 
Q 1100 0 847 248 
Q 594 497 594 1153 
L 594 3053 
L 172 3053 
L 172 3500 
L 594 3500 
L 594 4494 
L 1172 4494 
z
" transform="scale(0.015625)"/>
       <path id="DejaVuSans-65" d="M 3597 1894 
L 3597 1613 
L 953 1613 
Q 991 1019 1311 708 
Q 1631 397 2203 397 
Q 2534 397 2845 478 
Q 3156 559 3463 722 
L 3463 178 
Q 3153 47 2828 -22 
Q 2503 -91 2169 -91 
Q 1331 -91 842 396 
Q 353 884 353 1716 
Q 353 2575 817 3079 
Q 1281 3584 2069 3584 
Q 2775 3584 3186 3129 
Q 3597 2675 3597 1894 
z
M 3022 2063 
Q 3016 2534 2758 2815 
Q 2500 3097 2075 3097 
Q 1594 3097 1305 2825 
Q 1016 2553 972 2059 
L 3022 2063 
z
" transform="scale(0.015625)"/>
      </defs>
      <use xlink:href="#DejaVuSans-44"/>
      <use xlink:href="#DejaVuSans-61" x="77.001953"/>
      <use xlink:href="#DejaVuSans-74" x="138.28125"/>
      <use xlink:href="#DejaVuSans-65" x="177.490234"/>
     </g>
    </g>
   </g>
   <g id="matplotlib.axis_6">
    <g id="ytick_13">
     <g id="line2d_38">
      <g>
       <use xlink:href="#mdeb70ebbaa" x="72" y="512.471349" style="stroke: #000000; stroke-width: 0.8"/>
      </g>
     </g>
     <g id="text_25">
      <!-- −20 -->
      <g transform="translate(43.895313 516.270568) scale(0.1 -0.1)">
       <use xlink:href="#DejaVuSans-2212"/>
       <use xlink:href="#DejaVuSans-32" x="83.789062"/>
       <use xlink:href="#DejaVuSans-30" x="147.412109"/>
      </g>
     </g>
    </g>
    <g id="ytick_14">
     <g id="line2d_39">
      <g>
       <use xlink:href="#mdeb70ebbaa" x="72" y="487.228556" style="stroke: #000000; stroke-width: 0.8"/>
      </g>
     </g>
     <g id="text_26">
      <!-- −10 -->
      <g transform="translate(43.895313 491.027775) scale(0.1 -0.1)">
       <use xlink:href="#DejaVuSans-2212"/>
       <use xlink:href="#DejaVuSans-31" x="83.789062"/>
       <use xlink:href="#DejaVuSans-30" x="147.412109"/>
      </g>
     </g>
    </g>
    <g id="ytick_15">
     <g id="line2d_40">
      <g>
       <use xlink:href="#mdeb70ebbaa" x="72" y="461.985764" style="stroke: #000000; stroke-width: 0.8"/>
      </g>
     </g>
     <g id="text_27">
      <!-- 0 -->
      <g transform="translate(58.6375 465.784982) scale(0.1 -0.1)">
       <use xlink:href="#DejaVuSans-30"/>
      </g>
     </g>
    </g>
    <g id="ytick_16">
     <g id="line2d_41">
      <g>
       <use xlink:href="#mdeb70ebbaa" x="72" y="436.742971" style="stroke: #000000; stroke-width: 0.8"/>
      </g>
     </g>
     <g id="text_28">
      <!-- 10 -->
      <g transform="translate(52.275 440.54219) scale(0.1 -0.1)">
       <use xlink:href="#DejaVuSans-31"/>
       <use xlink:href="#DejaVuSans-30" x="63.623047"/>
      </g>
     </g>
    </g>
    <g id="ytick_17">
     <g id="line2d_42">
      <g>
       <use xlink:href="#mdeb70ebbaa" x="72" y="411.500178" style="stroke: #000000; stroke-width: 0.8"/>
      </g>
     </g>
     <g id="text_29">
      <!-- 20 -->
      <g transform="translate(52.275 415.299397) scale(0.1 -0.1)">
       <use xlink:href="#DejaVuSans-32"/>
       <use xlink:href="#DejaVuSans-30" x="63.623047"/>
      </g>
     </g>
    </g>
    <g id="ytick_18">
     <g id="line2d_43">
      <g>
       <use xlink:href="#mdeb70ebbaa" x="72" y="386.257385" style="stroke: #000000; stroke-width: 0.8"/>
      </g>
     </g>
     <g id="text_30">
      <!-- 30 -->
      <g transform="translate(52.275 390.056604) scale(0.1 -0.1)">
       <use xlink:href="#DejaVuSans-33"/>
       <use xlink:href="#DejaVuSans-30" x="63.623047"/>
      </g>
     </g>
    </g>
    <g id="text_31">
     <!-- Cum. sum -->
     <g transform="translate(37.815625 472.768814) rotate(-90) scale(0.1 -0.1)">
      <use xlink:href="#DejaVuSans-43"/>
      <use xlink:href="#DejaVuSans-75" x="69.824219"/>
      <use xlink:href="#DejaVuSans-6d" x="133.203125"/>
      <use xlink:href="#DejaVuSans-2e" x="230.615234"/>
      <use xlink:href="#DejaVuSans-20" x="262.402344"/>
      <use xlink:href="#DejaVuSans-73" x="294.189453"/>
      <use xlink:href="#DejaVuSans-75" x="346.289062"/>
      <use xlink:href="#DejaVuSans-6d" x="409.667969"/>
     </g>
    </g>
   </g>
   <g id="line2d_44">
    <path d="M 92.290909 461.056923 
L 94.330196 461.864617 
L 96.369484 467.0329 
L 98.408771 465.841116 
L 100.448058 465.470188 
L 102.487346 465.907741 
L 104.526633 464.388882 
L 106.565921 461.768245 
L 108.605208 464.65111 
L 110.644495 465.980093 
L 112.683783 467.650421 
L 114.72307 470.796453 
L 116.762357 475.18094 
L 118.801645 475.473383 
L 120.840932 475.980284 
L 122.880219 478.226966 
L 124.919507 482.391652 
L 126.958794 481.866088 
L 128.998081 484.378591 
L 131.037369 483.809851 
L 133.076656 485.207249 
L 135.115943 488.055475 
L 137.155231 488.818922 
L 139.194518 486.418006 
L 141.233805 487.220792 
L 143.273093 488.81185 
L 145.31238 487.413281 
L 147.351667 491.606395 
L 149.390955 491.602333 
L 151.430242 491.981265 
L 153.469529 488.599859 
L 155.508817 488.938179 
L 157.548104 488.410959 
L 159.587392 485.085106 
L 161.626679 486.820747 
L 163.665966 487.315021 
L 165.705254 486.050563 
L 167.744541 488.129958 
L 169.783828 482.741346 
L 171.823116 480.208912 
L 173.862403 479.271436 
L 175.90169 480.060801 
L 177.940978 479.298243 
L 179.980265 476.279708 
L 182.019552 476.447075 
L 184.05884 477.277065 
L 186.098127 478.678547 
L 188.137414 476.87685 
L 190.176702 475.236195 
L 192.215989 476.279623 
L 194.255276 475.093626 
L 196.294564 476.537461 
L 198.333851 477.784562 
L 200.373138 481.640379 
L 202.412426 479.971389 
L 204.451713 481.389591 
L 206.491 480.912602 
L 208.530288 479.436814 
L 210.569575 480.64903 
L 212.608862 474.992718 
L 214.64815 474.938147 
L 216.687437 475.709914 
L 218.726725 479.649818 
L 220.766012 476.691997 
L 222.805299 475.22763 
L 224.844587 475.261057 
L 226.883874 474.592751 
L 228.923161 473.611706 
L 230.962449 474.870473 
L 233.001736 477.314564 
L 235.041023 483.294656 
L 237.080311 486.103807 
L 241.158885 489.726531 
L 243.198173 490.748849 
L 245.23746 487.943457 
L 247.276747 489.129884 
L 249.316035 487.643319 
L 251.355322 485.994625 
L 253.394609 485.807877 
L 255.433897 481.276557 
L 257.473184 484.137498 
L 259.512471 485.786107 
L 261.551759 488.715945 
L 265.630333 489.202192 
L 269.708908 487.987398 
L 271.748196 486.885786 
L 273.787483 487.094469 
L 275.82677 485.401152 
L 277.866058 483.483742 
L 281.944632 478.917151 
L 283.98392 480.714579 
L 288.062494 472.459496 
L 290.101782 474.897823 
L 292.141069 473.795327 
L 294.180356 471.287548 
L 296.219644 469.876812 
L 298.258931 470.67385 
L 300.298218 474.207301 
L 302.337506 473.741878 
L 304.376793 474.676117 
L 306.41608 475.037566 
L 308.455368 478.274013 
L 310.494655 479.94334 
L 312.533942 476.852625 
L 314.57323 480.530547 
L 316.612517 482.080474 
L 320.691092 477.878492 
L 322.730379 480.676345 
L 324.769667 485.485744 
L 328.848241 482.269224 
L 330.887529 483.580528 
L 332.926816 487.238392 
L 334.966103 485.219659 
L 337.005391 488.097251 
L 339.044678 486.002028 
L 341.083965 481.250146 
L 343.123253 477.468225 
L 345.16254 480.729405 
L 347.201827 480.15233 
L 349.241115 480.244215 
L 351.280402 483.805142 
L 353.319689 485.391148 
L 355.358977 486.751099 
L 357.398264 486.01086 
L 359.437551 486.471447 
L 361.476839 485.675488 
L 363.516126 485.674986 
L 365.555413 489.060736 
L 367.594701 488.892195 
L 369.633988 493.404592 
L 371.673275 491.887502 
L 373.712563 491.262543 
L 375.75185 499.659936 
L 377.791138 503.036676 
L 379.830425 502.336349 
L 381.869712 502.104373 
L 383.909 503.405888 
L 385.948287 502.77085 
L 387.987574 505.250066 
L 390.026862 506.710588 
L 392.066149 504.341911 
L 394.105436 502.505253 
L 396.144724 498.429704 
L 398.184011 500.873583 
L 400.223298 497.786207 
L 402.262586 497.673772 
L 404.301873 497.096948 
L 406.34116 496.799444 
L 408.380448 498.556411 
L 410.419735 496.862779 
L 412.459022 494.995464 
L 414.49831 495.539198 
L 416.537597 498.593207 
L 418.576884 494.543492 
L 420.616172 494.127922 
L 422.655459 494.542921 
L 424.694746 495.820553 
L 428.773321 500.984921 
L 430.812608 502.34138 
L 432.851896 502.175706 
L 434.891183 499.752636 
L 436.930471 495.843178 
L 438.969758 493.110619 
L 441.009045 492.439004 
L 443.048333 490.03478 
L 445.08762 490.268449 
L 447.126907 495.84236 
L 449.166195 488.152952 
L 451.205482 484.976031 
L 453.244769 484.965079 
L 455.284057 489.151524 
L 457.323344 488.919454 
L 459.362631 489.536035 
L 461.401919 487.96559 
L 463.441206 489.930781 
L 465.480493 489.18726 
L 467.519781 490.936891 
L 471.598355 485.062173 
L 473.637643 482.900052 
L 475.67693 486.097234 
L 477.716217 490.894662 
L 479.755505 490.492407 
L 481.794792 491.229825 
L 483.834079 489.572471 
L 485.873367 492.300875 
L 487.912654 489.311543 
L 489.951942 490.027924 
L 491.991229 487.578209 
L 494.030516 492.14203 
L 496.069804 495.262011 
L 498.109091 494.793741 
L 498.109091 494.793741 
" clip-path="url(#p7279a0be4e)" style="fill: none; stroke: #ff0000; stroke-width: 1.5; stroke-linecap: square"/>
   </g>
   <g id="patch_15">
    <path d="M 72 512.64 
L 72 382.192941 
" style="fill: none; stroke: #000000; stroke-width: 0.8; stroke-linejoin: miter; stroke-linecap: square"/>
   </g>
   <g id="patch_16">
    <path d="M 518.4 512.64 
L 518.4 382.192941 
" style="fill: none; stroke: #000000; stroke-width: 0.8; stroke-linejoin: miter; stroke-linecap: square"/>
   </g>
   <g id="patch_17">
    <path d="M 72 512.64 
L 518.4 512.64 
" style="fill: none; stroke: #000000; stroke-width: 0.8; stroke-linejoin: miter; stroke-linecap: square"/>
   </g>
   <g id="patch_18">
    <path d="M 72 382.192941 
L 518.4 382.192941 
" style="fill: none; stroke: #000000; stroke-width: 0.8; stroke-linejoin: miter; stroke-linecap: square"/>
   </g>
   <g id="legend_3">
    <g id="patch_19">
     <path d="M 77.831 401.083819 
L 119.251925 401.083819 
Q 120.917925 401.083819 120.917925 399.417819 
L 120.917925 388.023941 
Q 120.917925 386.357941 119.251925 386.357941 
L 77.831 386.357941 
Q 76.165 386.357941 76.165 388.023941 
L 76.165 399.417819 
Q 76.165 401.083819 77.831 401.083819 
z
" style="fill: #ffffff; opacity: 0.5; stroke: #cccccc; stroke-linejoin: miter"/>
    </g>
    <g id="line2d_45">
     <path d="M 79.497 393.10394 
L 87.827 393.10394 
L 96.157 393.10394 
" style="fill: none; stroke: #ff0000; stroke-width: 1.5; stroke-linecap: square"/>
    </g>
    <g id="text_32">
     <!-- baz -->
     <g transform="translate(102.821 396.01944) scale(0.0833 -0.0833)">
      <defs>
       <path id="DejaVuSans-7a" d="M 353 3500 
L 3084 3500 
L 3084 2975 
L 922 459 
L 3084 459 
L 3084 0 
L 275 0 
L 275 525 
L 2438 3041 
L 353 3041 
L 353 3500 
z
" transform="scale(0.015625)"/>
      </defs>
      <use xlink:href="#DejaVuSans-62"/>
      <use xlink:href="#DejaVuSans-61" x="63.476562"/>
      <use xlink:href="#DejaVuSans-7a" x="124.755859"/>
     </g>
    </g>
   </g>
  </g>
  <g id="text_33">
   <!-- Three Random Trends -->
   <g transform="translate(200.83375 23.6775) scale(0.16 -0.16)">
    <defs>
     <path id="DejaVuSans-54" d="M -19 4666 
L 3928 4666 
L 3928 4134 
L 2272 4134 
L 2272 0 
L 1638 0 
L 1638 4134 
L -19 4134 
L -19 4666 
z
" transform="scale(0.015625)"/>
     <path id="DejaVuSans-68" d="M 3513 2113 
L 3513 0 
L 2938 0 
L 2938 2094 
Q 2938 2591 2744 2837 
Q 2550 3084 2163 3084 
Q 1697 3084 1428 2787 
Q 1159 2491 1159 1978 
L 1159 0 
L 581 0 
L 581 4863 
L 1159 4863 
L 1159 2956 
Q 1366 3272 1645 3428 
Q 1925 3584 2291 3584 
Q 2894 3584 3203 3211 
Q 3513 2838 3513 2113 
z
" transform="scale(0.015625)"/>
     <path id="DejaVuSans-52" d="M 2841 2188 
Q 3044 2119 3236 1894 
Q 3428 1669 3622 1275 
L 4263 0 
L 3584 0 
L 2988 1197 
Q 2756 1666 2539 1819 
Q 2322 1972 1947 1972 
L 1259 1972 
L 1259 0 
L 628 0 
L 628 4666 
L 2053 4666 
Q 2853 4666 3247 4331 
Q 3641 3997 3641 3322 
Q 3641 2881 3436 2590 
Q 3231 2300 2841 2188 
z
M 1259 4147 
L 1259 2491 
L 2053 2491 
Q 2509 2491 2742 2702 
Q 2975 2913 2975 3322 
Q 2975 3731 2742 3939 
Q 2509 4147 2053 4147 
L 1259 4147 
z
" transform="scale(0.015625)"/>
     <path id="DejaVuSans-6e" d="M 3513 2113 
L 3513 0 
L 2938 0 
L 2938 2094 
Q 2938 2591 2744 2837 
Q 2550 3084 2163 3084 
Q 1697 3084 1428 2787 
Q 1159 2491 1159 1978 
L 1159 0 
L 581 0 
L 581 3500 
L 1159 3500 
L 1159 2956 
Q 1366 3272 1645 3428 
Q 1925 3584 2291 3584 
Q 2894 3584 3203 3211 
Q 3513 2838 3513 2113 
z
" transform="scale(0.015625)"/>
     <path id="DejaVuSans-64" d="M 2906 2969 
L 2906 4863 
L 3481 4863 
L 3481 0 
L 2906 0 
L 2906 525 
Q 2725 213 2448 61 
Q 2172 -91 1784 -91 
Q 1150 -91 751 415 
Q 353 922 353 1747 
Q 353 2572 751 3078 
Q 1150 3584 1784 3584 
Q 2172 3584 2448 3432 
Q 2725 3281 2906 2969 
z
M 947 1747 
Q 947 1113 1208 752 
Q 1469 391 1925 391 
Q 2381 391 2643 752 
Q 2906 1113 2906 1747 
Q 2906 2381 2643 2742 
Q 2381 3103 1925 3103 
Q 1469 3103 1208 2742 
Q 947 2381 947 1747 
z
" transform="scale(0.015625)"/>
    </defs>
    <use xlink:href="#DejaVuSans-54"/>
    <use xlink:href="#DejaVuSans-68" x="61.083984"/>
    <use xlink:href="#DejaVuSans-72" x="124.462891"/>
    <use xlink:href="#DejaVuSans-65" x="163.326172"/>
    <use xlink:href="#DejaVuSans-65" x="224.849609"/>
    <use xlink:href="#DejaVuSans-20" x="286.373047"/>
    <use xlink:href="#DejaVuSans-52" x="318.160156"/>
    <use xlink:href="#DejaVuSans-61" x="385.392578"/>
    <use xlink:href="#DejaVuSans-6e" x="446.671875"/>
    <use xlink:href="#DejaVuSans-64" x="510.050781"/>
    <use xlink:href="#DejaVuSans-6f" x="573.527344"/>
    <use xlink:href="#DejaVuSans-6d" x="634.708984"/>
    <use xlink:href="#DejaVuSans-20" x="732.121094"/>
    <use xlink:href="#DejaVuSans-54" x="763.908203"/>
    <use xlink:href="#DejaVuSans-72" x="810.242188"/>
    <use xlink:href="#DejaVuSans-65" x="849.105469"/>
    <use xlink:href="#DejaVuSans-6e" x="910.628906"/>
    <use xlink:href="#DejaVuSans-64" x="974.007812"/>
    <use xlink:href="#DejaVuSans-73" x="1037.484375"/>
   </g>
  </g>
 </g>
 <defs>
  <clipPath id="p40ad6588b8">
   <rect x="72" y="69.12" width="446.4" height="130.447059"/>
  </clipPath>
  <clipPath id="p7594982094">
   <rect x="72" y="225.656471" width="446.4" height="130.447059"/>
  </clipPath>
  <clipPath id="p7279a0be4e">
   <rect x="72" y="382.192941" width="446.4" height="130.447059"/>
  </clipPath>
 </defs>
</svg>
