<?xml version="1.0" encoding="utf-8" standalone="no"?>
<!DOCTYPE svg PUBLIC "-//W3C//DTD SVG 1.1//EN"
  "http://www.w3.org/Graphics/SVG/1.1/DTD/svg11.dtd">
<svg xmlns:xlink="http://www.w3.org/1999/xlink" width="576pt" height="288pt" viewBox="0 0 576 288" xmlns="http://www.w3.org/2000/svg" version="1.1">
 <metadata>
  <rdf:RDF xmlns:dc="http://purl.org/dc/elements/1.1/" xmlns:cc="http://creativecommons.org/ns#" xmlns:rdf="http://www.w3.org/1999/02/22-rdf-syntax-ns#">
   <cc:Work>
    <dc:type rdf:resource="http://purl.org/dc/dcmitype/StillImage"/>
    <dc:date>2023-11-24T20:25:44.582372</dc:date>
    <dc:format>image/svg+xml</dc:format>
    <dc:creator>
     <cc:Agent>
      <dc:title>Matplotlib v3.8.1, https://matplotlib.org/</dc:title>
     </cc:Agent>
    </dc:creator>
   </cc:Work>
  </rdf:RDF>
 </metadata>
 <defs>
  <style type="text/css">*{stroke-linejoin: round; stroke-linecap: butt}</style>
 </defs>
 <g id="figure_1">
  <g id="patch_1">
   <path d="M 0 288 
L 576 288 
L 576 0 
L 0 0 
z
" style="fill: #ffffff; stroke: #ff0000; stroke-linejoin: miter"/>
  </g>
  <g id="axes_1">
   <g id="patch_2">
    <path d="M 57.6 259.2 
L 576 259.2 
L 576 0 
L 57.6 0 
z
" style="fill: #ffffff"/>
   </g>
   <g id="matplotlib.axis_1">
    <g id="xtick_1">
     <g id="line2d_1">
      <defs>
       <path id="m5804eba568" d="M 0 0 
L 0 3.5 
" style="stroke: #000000; stroke-width: 0.8"/>
      </defs>
      <g>
       <use xlink:href="#m5804eba568" x="83.531841" y="259.2" style="stroke: #000000; stroke-width: 0.8"/>
      </g>
     </g>
     <g id="text_1">
      <!-- 2024-01 -->
      <g transform="translate(62.640435 273.798437) scale(0.1 -0.1)">
       <defs>
        <path id="DejaVuSans-32" d="M 1228 531 
L 3431 531 
L 3431 0 
L 469 0 
L 469 531 
Q 828 903 1448 1529 
Q 2069 2156 2228 2338 
Q 2531 2678 2651 2914 
Q 2772 3150 2772 3378 
Q 2772 3750 2511 3984 
Q 2250 4219 1831 4219 
Q 1534 4219 1204 4116 
Q 875 4013 500 3803 
L 500 4441 
Q 881 4594 1212 4672 
Q 1544 4750 1819 4750 
Q 2544 4750 2975 4387 
Q 3406 4025 3406 3419 
Q 3406 3131 3298 2873 
Q 3191 2616 2906 2266 
Q 2828 2175 2409 1742 
Q 1991 1309 1228 531 
z
" transform="scale(0.015625)"/>
        <path id="DejaVuSans-30" d="M 2034 4250 
Q 1547 4250 1301 3770 
Q 1056 3291 1056 2328 
Q 1056 1369 1301 889 
Q 1547 409 2034 409 
Q 2525 409 2770 889 
Q 3016 1369 3016 2328 
Q 3016 3291 2770 3770 
Q 2525 4250 2034 4250 
z
M 2034 4750 
Q 2819 4750 3233 4129 
Q 3647 3509 3647 2328 
Q 3647 1150 3233 529 
Q 2819 -91 2034 -91 
Q 1250 -91 836 529 
Q 422 1150 422 2328 
Q 422 3509 836 4129 
Q 1250 4750 2034 4750 
z
" transform="scale(0.015625)"/>
        <path id="DejaVuSans-34" d="M 2419 4116 
L 825 1625 
L 2419 1625 
L 2419 4116 
z
M 2253 4666 
L 3047 4666 
L 3047 1625 
L 3713 1625 
L 3713 1100 
L 3047 1100 
L 3047 0 
L 2419 0 
L 2419 1100 
L 313 1100 
L 313 1709 
L 2253 4666 
z
" transform="scale(0.015625)"/>
        <path id="DejaVuSans-2d" d="M 313 2009 
L 1997 2009 
L 1997 1497 
L 313 1497 
L 313 2009 
z
" transform="scale(0.015625)"/>
        <path id="DejaVuSans-31" d="M 794 531 
L 1825 531 
L 1825 4091 
L 703 3866 
L 703 4441 
L 1819 4666 
L 2450 4666 
L 2450 531 
L 3481 531 
L 3481 0 
L 794 0 
L 794 531 
z
" transform="scale(0.015625)"/>
       </defs>
       <use xlink:href="#DejaVuSans-32"/>
       <use xlink:href="#DejaVuSans-30" x="63.623047"/>
       <use xlink:href="#DejaVuSans-32" x="127.246094"/>
       <use xlink:href="#DejaVuSans-34" x="190.869141"/>
       <use xlink:href="#DejaVuSans-2d" x="254.492188"/>
       <use xlink:href="#DejaVuSans-30" x="290.576172"/>
       <use xlink:href="#DejaVuSans-31" x="354.199219"/>
      </g>
     </g>
    </g>
    <g id="xtick_2">
     <g id="line2d_2">
      <g>
       <use xlink:href="#m5804eba568" x="156.946185" y="259.2" style="stroke: #000000; stroke-width: 0.8"/>
      </g>
     </g>
     <g id="text_2">
      <!-- 2024-02 -->
      <g transform="translate(136.054779 273.798437) scale(0.1 -0.1)">
       <use xlink:href="#DejaVuSans-32"/>
       <use xlink:href="#DejaVuSans-30" x="63.623047"/>
       <use xlink:href="#DejaVuSans-32" x="127.246094"/>
       <use xlink:href="#DejaVuSans-34" x="190.869141"/>
       <use xlink:href="#DejaVuSans-2d" x="254.492188"/>
       <use xlink:href="#DejaVuSans-30" x="290.576172"/>
       <use xlink:href="#DejaVuSans-32" x="354.199219"/>
      </g>
     </g>
    </g>
    <g id="xtick_3">
     <g id="line2d_3">
      <g>
       <use xlink:href="#m5804eba568" x="225.624121" y="259.2" style="stroke: #000000; stroke-width: 0.8"/>
      </g>
     </g>
     <g id="text_3">
      <!-- 2024-03 -->
      <g transform="translate(204.732714 273.798437) scale(0.1 -0.1)">
       <defs>
        <path id="DejaVuSans-33" d="M 2597 2516 
Q 3050 2419 3304 2112 
Q 3559 1806 3559 1356 
Q 3559 666 3084 287 
Q 2609 -91 1734 -91 
Q 1441 -91 1130 -33 
Q 819 25 488 141 
L 488 750 
Q 750 597 1062 519 
Q 1375 441 1716 441 
Q 2309 441 2620 675 
Q 2931 909 2931 1356 
Q 2931 1769 2642 2001 
Q 2353 2234 1838 2234 
L 1294 2234 
L 1294 2753 
L 1863 2753 
Q 2328 2753 2575 2939 
Q 2822 3125 2822 3475 
Q 2822 3834 2567 4026 
Q 2313 4219 1838 4219 
Q 1578 4219 1281 4162 
Q 984 4106 628 3988 
L 628 4550 
Q 988 4650 1302 4700 
Q 1616 4750 1894 4750 
Q 2613 4750 3031 4423 
Q 3450 4097 3450 3541 
Q 3450 3153 3228 2886 
Q 3006 2619 2597 2516 
z
" transform="scale(0.015625)"/>
       </defs>
       <use xlink:href="#DejaVuSans-32"/>
       <use xlink:href="#DejaVuSans-30" x="63.623047"/>
       <use xlink:href="#DejaVuSans-32" x="127.246094"/>
       <use xlink:href="#DejaVuSans-34" x="190.869141"/>
       <use xlink:href="#DejaVuSans-2d" x="254.492188"/>
       <use xlink:href="#DejaVuSans-30" x="290.576172"/>
       <use xlink:href="#DejaVuSans-33" x="354.199219"/>
      </g>
     </g>
    </g>
    <g id="xtick_4">
     <g id="line2d_4">
      <g>
       <use xlink:href="#m5804eba568" x="299.038465" y="259.2" style="stroke: #000000; stroke-width: 0.8"/>
      </g>
     </g>
     <g id="text_4">
      <!-- 2024-04 -->
      <g transform="translate(278.147059 273.798437) scale(0.1 -0.1)">
       <use xlink:href="#DejaVuSans-32"/>
       <use xlink:href="#DejaVuSans-30" x="63.623047"/>
       <use xlink:href="#DejaVuSans-32" x="127.246094"/>
       <use xlink:href="#DejaVuSans-34" x="190.869141"/>
       <use xlink:href="#DejaVuSans-2d" x="254.492188"/>
       <use xlink:href="#DejaVuSans-30" x="290.576172"/>
       <use xlink:href="#DejaVuSans-34" x="354.199219"/>
      </g>
     </g>
    </g>
    <g id="xtick_5">
     <g id="line2d_5">
      <g>
       <use xlink:href="#m5804eba568" x="370.084605" y="259.2" style="stroke: #000000; stroke-width: 0.8"/>
      </g>
     </g>
     <g id="text_5">
      <!-- 2024-05 -->
      <g transform="translate(349.193199 273.798437) scale(0.1 -0.1)">
       <defs>
        <path id="DejaVuSans-35" d="M 691 4666 
L 3169 4666 
L 3169 4134 
L 1269 4134 
L 1269 2991 
Q 1406 3038 1543 3061 
Q 1681 3084 1819 3084 
Q 2600 3084 3056 2656 
Q 3513 2228 3513 1497 
Q 3513 744 3044 326 
Q 2575 -91 1722 -91 
Q 1428 -91 1123 -41 
Q 819 9 494 109 
L 494 744 
Q 775 591 1075 516 
Q 1375 441 1709 441 
Q 2250 441 2565 725 
Q 2881 1009 2881 1497 
Q 2881 1984 2565 2268 
Q 2250 2553 1709 2553 
Q 1456 2553 1204 2497 
Q 953 2441 691 2322 
L 691 4666 
z
" transform="scale(0.015625)"/>
       </defs>
       <use xlink:href="#DejaVuSans-32"/>
       <use xlink:href="#DejaVuSans-30" x="63.623047"/>
       <use xlink:href="#DejaVuSans-32" x="127.246094"/>
       <use xlink:href="#DejaVuSans-34" x="190.869141"/>
       <use xlink:href="#DejaVuSans-2d" x="254.492188"/>
       <use xlink:href="#DejaVuSans-30" x="290.576172"/>
       <use xlink:href="#DejaVuSans-35" x="354.199219"/>
      </g>
     </g>
    </g>
    <g id="xtick_6">
     <g id="line2d_6">
      <g>
       <use xlink:href="#m5804eba568" x="443.498949" y="259.2" style="stroke: #000000; stroke-width: 0.8"/>
      </g>
     </g>
     <g id="text_6">
      <!-- 2024-06 -->
      <g transform="translate(422.607543 273.798437) scale(0.1 -0.1)">
       <defs>
        <path id="DejaVuSans-36" d="M 2113 2584 
Q 1688 2584 1439 2293 
Q 1191 2003 1191 1497 
Q 1191 994 1439 701 
Q 1688 409 2113 409 
Q 2538 409 2786 701 
Q 3034 994 3034 1497 
Q 3034 2003 2786 2293 
Q 2538 2584 2113 2584 
z
M 3366 4563 
L 3366 3988 
Q 3128 4100 2886 4159 
Q 2644 4219 2406 4219 
Q 1781 4219 1451 3797 
Q 1122 3375 1075 2522 
Q 1259 2794 1537 2939 
Q 1816 3084 2150 3084 
Q 2853 3084 3261 2657 
Q 3669 2231 3669 1497 
Q 3669 778 3244 343 
Q 2819 -91 2113 -91 
Q 1303 -91 875 529 
Q 447 1150 447 2328 
Q 447 3434 972 4092 
Q 1497 4750 2381 4750 
Q 2619 4750 2861 4703 
Q 3103 4656 3366 4563 
z
" transform="scale(0.015625)"/>
       </defs>
       <use xlink:href="#DejaVuSans-32"/>
       <use xlink:href="#DejaVuSans-30" x="63.623047"/>
       <use xlink:href="#DejaVuSans-32" x="127.246094"/>
       <use xlink:href="#DejaVuSans-34" x="190.869141"/>
       <use xlink:href="#DejaVuSans-2d" x="254.492188"/>
       <use xlink:href="#DejaVuSans-30" x="290.576172"/>
       <use xlink:href="#DejaVuSans-36" x="354.199219"/>
      </g>
     </g>
    </g>
    <g id="xtick_7">
     <g id="line2d_7">
      <g>
       <use xlink:href="#m5804eba568" x="514.545089" y="259.2" style="stroke: #000000; stroke-width: 0.8"/>
      </g>
     </g>
     <g id="text_7">
      <!-- 2024-07 -->
      <g transform="translate(493.653683 273.798437) scale(0.1 -0.1)">
       <defs>
        <path id="DejaVuSans-37" d="M 525 4666 
L 3525 4666 
L 3525 4397 
L 1831 0 
L 1172 0 
L 2766 4134 
L 525 4134 
L 525 4666 
z
" transform="scale(0.015625)"/>
       </defs>
       <use xlink:href="#DejaVuSans-32"/>
       <use xlink:href="#DejaVuSans-30" x="63.623047"/>
       <use xlink:href="#DejaVuSans-32" x="127.246094"/>
       <use xlink:href="#DejaVuSans-34" x="190.869141"/>
       <use xlink:href="#DejaVuSans-2d" x="254.492188"/>
       <use xlink:href="#DejaVuSans-30" x="290.576172"/>
       <use xlink:href="#DejaVuSans-37" x="354.199219"/>
      </g>
     </g>
    </g>
    <g id="text_8">
     <!-- Date -->
     <g transform="translate(304.849219 287.476562) scale(0.1 -0.1)">
      <defs>
       <path id="DejaVuSans-44" d="M 1259 4147 
L 1259 519 
L 2022 519 
Q 2988 519 3436 956 
Q 3884 1394 3884 2338 
Q 3884 3275 3436 3711 
Q 2988 4147 2022 4147 
L 1259 4147 
z
M 628 4666 
L 1925 4666 
Q 3281 4666 3915 4102 
Q 4550 3538 4550 2338 
Q 4550 1131 3912 565 
Q 3275 0 1925 0 
L 628 0 
L 628 4666 
z
" transform="scale(0.015625)"/>
       <path id="DejaVuSans-61" d="M 2194 1759 
Q 1497 1759 1228 1600 
Q 959 1441 959 1056 
Q 959 750 1161 570 
Q 1363 391 1709 391 
Q 2188 391 2477 730 
Q 2766 1069 2766 1631 
L 2766 1759 
L 2194 1759 
z
M 3341 1997 
L 3341 0 
L 2766 0 
L 2766 531 
Q 2569 213 2275 61 
Q 1981 -91 1556 -91 
Q 1019 -91 701 211 
Q 384 513 384 1019 
Q 384 1609 779 1909 
Q 1175 2209 1959 2209 
L 2766 2209 
L 2766 2266 
Q 2766 2663 2505 2880 
Q 2244 3097 1772 3097 
Q 1472 3097 1187 3025 
Q 903 2953 641 2809 
L 641 3341 
Q 956 3463 1253 3523 
Q 1550 3584 1831 3584 
Q 2591 3584 2966 3190 
Q 3341 2797 3341 1997 
z
" transform="scale(0.015625)"/>
       <path id="DejaVuSans-74" d="M 1172 4494 
L 1172 3500 
L 2356 3500 
L 2356 3053 
L 1172 3053 
L 1172 1153 
Q 1172 725 1289 603 
Q 1406 481 1766 481 
L 2356 481 
L 2356 0 
L 1766 0 
Q 1100 0 847 248 
Q 594 497 594 1153 
L 594 3053 
L 172 3053 
L 172 3500 
L 594 3500 
L 594 4494 
L 1172 4494 
z
" transform="scale(0.015625)"/>
       <path id="DejaVuSans-65" d="M 3597 1894 
L 3597 1613 
L 953 1613 
Q 991 1019 1311 708 
Q 1631 397 2203 397 
Q 2534 397 2845 478 
Q 3156 559 3463 722 
L 3463 178 
Q 3153 47 2828 -22 
Q 2503 -91 2169 -91 
Q 1331 -91 842 396 
Q 353 884 353 1716 
Q 353 2575 817 3079 
Q 1281 3584 2069 3584 
Q 2775 3584 3186 3129 
Q 3597 2675 3597 1894 
z
M 3022 2063 
Q 3016 2534 2758 2815 
Q 2500 3097 2075 3097 
Q 1594 3097 1305 2825 
Q 1016 2553 972 2059 
L 3022 2063 
z
" transform="scale(0.015625)"/>
      </defs>
      <use xlink:href="#DejaVuSans-44"/>
      <use xlink:href="#DejaVuSans-61" x="77.001953"/>
      <use xlink:href="#DejaVuSans-74" x="138.28125"/>
      <use xlink:href="#DejaVuSans-65" x="177.490234"/>
     </g>
    </g>
   </g>
   <g id="matplotlib.axis_2">
    <g id="ytick_1">
     <g id="line2d_8">
      <defs>
       <path id="m83d1af1340" d="M 0 0 
L -3.5 0 
" style="stroke: #000000; stroke-width: 0.8"/>
      </defs>
      <g>
       <use xlink:href="#m83d1af1340" x="57.6" y="224.980091" style="stroke: #000000; stroke-width: 0.8"/>
      </g>
     </g>
     <g id="text_9">
      <!-- −2 -->
      <g transform="translate(35.857813 228.77931) scale(0.1 -0.1)">
       <defs>
        <path id="DejaVuSans-2212" d="M 678 2272 
L 4684 2272 
L 4684 1741 
L 678 1741 
L 678 2272 
z
" transform="scale(0.015625)"/>
       </defs>
       <use xlink:href="#DejaVuSans-2212"/>
       <use xlink:href="#DejaVuSans-32" x="83.789062"/>
      </g>
     </g>
    </g>
    <g id="ytick_2">
     <g id="line2d_9">
      <g>
       <use xlink:href="#m83d1af1340" x="57.6" y="181.133226" style="stroke: #000000; stroke-width: 0.8"/>
      </g>
     </g>
     <g id="text_10">
      <!-- 0 -->
      <g transform="translate(44.2375 184.932445) scale(0.1 -0.1)">
       <use xlink:href="#DejaVuSans-30"/>
      </g>
     </g>
    </g>
    <g id="ytick_3">
     <g id="line2d_10">
      <g>
       <use xlink:href="#m83d1af1340" x="57.6" y="137.286362" style="stroke: #000000; stroke-width: 0.8"/>
      </g>
     </g>
     <g id="text_11">
      <!-- 2 -->
      <g transform="translate(44.2375 141.08558) scale(0.1 -0.1)">
       <use xlink:href="#DejaVuSans-32"/>
      </g>
     </g>
    </g>
    <g id="ytick_4">
     <g id="line2d_11">
      <g>
       <use xlink:href="#m83d1af1340" x="57.6" y="93.439497" style="stroke: #000000; stroke-width: 0.8"/>
      </g>
     </g>
     <g id="text_12">
      <!-- 4 -->
      <g transform="translate(44.2375 97.238716) scale(0.1 -0.1)">
       <use xlink:href="#DejaVuSans-34"/>
      </g>
     </g>
    </g>
    <g id="ytick_5">
     <g id="line2d_12">
      <g>
       <use xlink:href="#m83d1af1340" x="57.6" y="49.592633" style="stroke: #000000; stroke-width: 0.8"/>
      </g>
     </g>
     <g id="text_13">
      <!-- 6 -->
      <g transform="translate(44.2375 53.391851) scale(0.1 -0.1)">
       <use xlink:href="#DejaVuSans-36"/>
      </g>
     </g>
    </g>
    <g id="ytick_6">
     <g id="line2d_13">
      <g>
       <use xlink:href="#m83d1af1340" x="57.6" y="5.745768" style="stroke: #000000; stroke-width: 0.8"/>
      </g>
     </g>
     <g id="text_14">
      <!-- 8 -->
      <g transform="translate(44.2375 9.544987) scale(0.1 -0.1)">
       <defs>
        <path id="DejaVuSans-38" d="M 2034 2216 
Q 1584 2216 1326 1975 
Q 1069 1734 1069 1313 
Q 1069 891 1326 650 
Q 1584 409 2034 409 
Q 2484 409 2743 651 
Q 3003 894 3003 1313 
Q 3003 1734 2745 1975 
Q 2488 2216 2034 2216 
z
M 1403 2484 
Q 997 2584 770 2862 
Q 544 3141 544 3541 
Q 544 4100 942 4425 
Q 1341 4750 2034 4750 
Q 2731 4750 3128 4425 
Q 3525 4100 3525 3541 
Q 3525 3141 3298 2862 
Q 3072 2584 2669 2484 
Q 3125 2378 3379 2068 
Q 3634 1759 3634 1313 
Q 3634 634 3220 271 
Q 2806 -91 2034 -91 
Q 1263 -91 848 271 
Q 434 634 434 1313 
Q 434 1759 690 2068 
Q 947 2378 1403 2484 
z
M 1172 3481 
Q 1172 3119 1398 2916 
Q 1625 2713 2034 2713 
Q 2441 2713 2670 2916 
Q 2900 3119 2900 3481 
Q 2900 3844 2670 4047 
Q 2441 4250 2034 4250 
Q 1625 4250 1398 4047 
Q 1172 3844 1172 3481 
z
" transform="scale(0.015625)"/>
       </defs>
       <use xlink:href="#DejaVuSans-38"/>
      </g>
     </g>
    </g>
    <g id="text_15">
     <!-- Cum. sum -->
     <g transform="translate(29.778125 154.952344) rotate(-90) scale(0.1 -0.1)">
      <defs>
       <path id="DejaVuSans-43" d="M 4122 4306 
L 4122 3641 
Q 3803 3938 3442 4084 
Q 3081 4231 2675 4231 
Q 1875 4231 1450 3742 
Q 1025 3253 1025 2328 
Q 1025 1406 1450 917 
Q 1875 428 2675 428 
Q 3081 428 3442 575 
Q 3803 722 4122 1019 
L 4122 359 
Q 3791 134 3420 21 
Q 3050 -91 2638 -91 
Q 1578 -91 968 557 
Q 359 1206 359 2328 
Q 359 3453 968 4101 
Q 1578 4750 2638 4750 
Q 3056 4750 3426 4639 
Q 3797 4528 4122 4306 
z
" transform="scale(0.015625)"/>
       <path id="DejaVuSans-75" d="M 544 1381 
L 544 3500 
L 1119 3500 
L 1119 1403 
Q 1119 906 1312 657 
Q 1506 409 1894 409 
Q 2359 409 2629 706 
Q 2900 1003 2900 1516 
L 2900 3500 
L 3475 3500 
L 3475 0 
L 2900 0 
L 2900 538 
Q 2691 219 2414 64 
Q 2138 -91 1772 -91 
Q 1169 -91 856 284 
Q 544 659 544 1381 
z
M 1991 3584 
L 1991 3584 
z
" transform="scale(0.015625)"/>
       <path id="DejaVuSans-6d" d="M 3328 2828 
Q 3544 3216 3844 3400 
Q 4144 3584 4550 3584 
Q 5097 3584 5394 3201 
Q 5691 2819 5691 2113 
L 5691 0 
L 5113 0 
L 5113 2094 
Q 5113 2597 4934 2840 
Q 4756 3084 4391 3084 
Q 3944 3084 3684 2787 
Q 3425 2491 3425 1978 
L 3425 0 
L 2847 0 
L 2847 2094 
Q 2847 2600 2669 2842 
Q 2491 3084 2119 3084 
Q 1678 3084 1418 2786 
Q 1159 2488 1159 1978 
L 1159 0 
L 581 0 
L 581 3500 
L 1159 3500 
L 1159 2956 
Q 1356 3278 1631 3431 
Q 1906 3584 2284 3584 
Q 2666 3584 2933 3390 
Q 3200 3197 3328 2828 
z
" transform="scale(0.015625)"/>
       <path id="DejaVuSans-2e" d="M 684 794 
L 1344 794 
L 1344 0 
L 684 0 
L 684 794 
z
" transform="scale(0.015625)"/>
       <path id="DejaVuSans-20" transform="scale(0.015625)"/>
       <path id="DejaVuSans-73" d="M 2834 3397 
L 2834 2853 
Q 2591 2978 2328 3040 
Q 2066 3103 1784 3103 
Q 1356 3103 1142 2972 
Q 928 2841 928 2578 
Q 928 2378 1081 2264 
Q 1234 2150 1697 2047 
L 1894 2003 
Q 2506 1872 2764 1633 
Q 3022 1394 3022 966 
Q 3022 478 2636 193 
Q 2250 -91 1575 -91 
Q 1294 -91 989 -36 
Q 684 19 347 128 
L 347 722 
Q 666 556 975 473 
Q 1284 391 1588 391 
Q 1994 391 2212 530 
Q 2431 669 2431 922 
Q 2431 1156 2273 1281 
Q 2116 1406 1581 1522 
L 1381 1569 
Q 847 1681 609 1914 
Q 372 2147 372 2553 
Q 372 3047 722 3315 
Q 1072 3584 1716 3584 
Q 2034 3584 2315 3537 
Q 2597 3491 2834 3397 
z
" transform="scale(0.015625)"/>
      </defs>
      <use xlink:href="#DejaVuSans-43"/>
      <use xlink:href="#DejaVuSans-75" x="69.824219"/>
      <use xlink:href="#DejaVuSans-6d" x="133.203125"/>
      <use xlink:href="#DejaVuSans-2e" x="230.615234"/>
      <use xlink:href="#DejaVuSans-20" x="262.402344"/>
      <use xlink:href="#DejaVuSans-73" x="294.189453"/>
      <use xlink:href="#DejaVuSans-75" x="346.289062"/>
      <use xlink:href="#DejaVuSans-6d" x="409.667969"/>
     </g>
    </g>
   </g>
   <g id="line2d_14">
    <path d="M 81.163636 163.758001 
L 83.531841 158.586204 
L 85.900046 185.617575 
L 88.26825 186.881248 
L 90.636455 197.473253 
L 93.00466 173.179658 
L 95.372864 178.824519 
L 97.741069 179.259149 
L 100.109274 194.651439 
L 102.477478 174.036809 
L 104.845683 146.774509 
L 107.213888 132.278832 
L 109.582092 151.238103 
L 111.950297 127.049145 
L 114.318502 127.92763 
L 116.686706 142.969602 
L 119.054911 138.848965 
L 121.423116 127.521965 
L 123.79132 126.522246 
L 126.159525 150.852566 
L 128.52773 139.488085 
L 130.895934 113.128201 
L 133.264139 91.897158 
L 135.632344 117.884378 
L 138.000548 141.091541 
L 140.368753 189.882643 
L 142.736958 170.04388 
L 145.105162 203.280918 
L 147.473367 209.247638 
L 149.841571 191.580293 
L 152.209776 175.425526 
L 154.577981 187.941532 
L 156.946185 160.009168 
L 159.31439 144.976195 
L 161.682595 173.102599 
L 164.050799 232.892487 
L 166.419004 232.447157 
L 168.787209 247.418182 
L 171.155413 219.626463 
L 173.523618 220.616561 
L 175.891823 198.636041 
L 178.260027 171.455191 
L 180.628232 160.554662 
L 182.996437 156.036322 
L 185.364641 130.520467 
L 187.732846 157.601759 
L 190.101051 164.125144 
L 192.469255 156.135967 
L 194.83746 126.929898 
L 197.205665 125.52754 
L 199.573869 133.246996 
L 201.942074 82.9295 
L 204.310279 106.24949 
L 206.678483 110.487684 
L 209.046688 158.800932 
L 211.414893 124.475033 
L 213.783097 144.371009 
L 216.151302 135.088183 
L 218.519507 118.803222 
L 220.887711 145.81414 
L 223.255916 186.801183 
L 225.624121 147.961592 
L 227.992325 151.513053 
L 230.36053 156.376028 
L 232.728735 109.213089 
L 235.096939 109.623322 
L 237.465144 97.549497 
L 239.833349 106.189194 
L 242.201553 122.35619 
L 244.569758 148.075755 
L 246.937963 117.323763 
L 249.306167 159.262049 
L 251.674372 124.944001 
L 254.042577 127.419194 
L 256.410781 159.013844 
L 258.778986 155.746019 
L 261.14719 205.009123 
L 263.515395 210.177124 
L 265.8836 185.36046 
L 268.251804 179.804281 
L 270.620009 175.773184 
L 272.988214 168.64091 
L 275.356418 177.029247 
L 277.724623 152.926263 
L 280.092828 156.199866 
L 282.461032 186.184887 
L 284.829237 184.918219 
L 287.197442 173.238413 
L 289.565646 171.198081 
L 291.933851 149.349016 
L 294.302056 152.468556 
L 296.67026 147.587827 
L 299.038465 149.743812 
L 301.40667 133.766297 
L 303.774874 112.145011 
L 306.143079 124.536499 
L 308.511284 120.085119 
L 310.879488 116.669449 
L 313.247693 134.287363 
L 315.615898 117.473529 
L 317.984102 105.632334 
L 320.352307 178.62556 
L 322.720512 150.179549 
L 325.088716 135.361755 
L 327.456921 142.349624 
L 329.825126 148.742381 
L 332.19333 108.376188 
L 334.561535 112.772593 
L 336.92974 104.812587 
L 339.297944 85.674202 
L 341.666149 55.508764 
L 344.034354 78.380588 
L 346.402558 66.921242 
L 348.770763 81.666474 
L 351.138968 89.640144 
L 353.507172 96.84771 
L 355.875377 91.155944 
L 358.243582 100.28955 
L 360.611786 120.614092 
L 362.979991 135.17076 
L 365.348196 163.788172 
L 367.7164 135.819442 
L 370.084605 165.263858 
L 372.45281 174.016464 
L 374.821014 139.636346 
L 379.557423 86.221783 
L 381.925628 56.001344 
L 384.293833 82.303994 
L 386.662037 46.202143 
L 389.030242 18.217422 
L 391.398447 56.998964 
L 393.766651 68.357481 
L 396.134856 111.344953 
L 398.503061 120.135013 
L 400.871265 95.60084 
L 403.23947 77.113019 
L 405.607675 98.878536 
L 407.975879 97.417992 
L 410.344084 66.911166 
L 412.712289 49.213646 
L 415.080493 76.887048 
L 417.448698 71.280136 
L 419.816903 40.345352 
L 422.185107 46.929301 
L 424.553312 74.817993 
L 426.921517 73.60203 
L 429.289721 74.358675 
L 431.657926 93.471725 
L 434.026131 86.158016 
L 436.394335 129.079899 
L 438.76254 155.640841 
L 441.130745 150.261921 
L 443.498949 160.180702 
L 445.867154 174.137608 
L 448.235359 173.771384 
L 450.603563 194.630106 
L 452.971768 185.570171 
L 455.339973 200.212351 
L 457.708177 170.835867 
L 460.076382 188.163193 
L 462.444587 182.96289 
L 464.812791 151.574047 
L 467.180996 133.750842 
L 469.549201 156.813463 
L 471.917405 144.978221 
L 474.28561 128.991404 
L 476.653815 143.414235 
L 479.022019 134.284183 
L 481.390224 104.571044 
L 483.758429 85.365697 
L 486.126633 82.140121 
L 488.494838 49.932923 
L 490.863042 28.498223 
L 493.231247 42.623168 
L 495.599452 26.203112 
L 497.967656 12.091863 
L 500.335861 49.709263 
L 502.704066 37.804041 
L 505.07227 40.782968 
L 507.440475 51.419746 
L 509.80868 40.583948 
L 512.176884 23.798139 
L 514.545089 11.781818 
L 516.913294 37.068353 
L 519.281498 69.775466 
L 521.649703 77.98015 
L 524.017908 95.977137 
L 526.386112 106.43466 
L 528.754317 140.786762 
L 531.122522 138.817639 
L 533.490726 148.077209 
L 535.858931 120.266874 
L 538.227136 102.190146 
L 540.59534 129.207142 
L 542.963545 130.884639 
L 545.33175 133.646239 
L 547.699954 152.661518 
L 550.068159 128.624141 
L 552.436364 97.138491 
L 552.436364 97.138491 
" clip-path="url(#p88f2bd7dd6)" style="fill: none; stroke: #000000; stroke-width: 2; stroke-linecap: square"/>
   </g>
   <g id="patch_3">
    <path d="M 57.6 259.2 
L 57.6 -0 
" style="fill: none; stroke: #000000; stroke-width: 0.8; stroke-linejoin: miter; stroke-linecap: square"/>
   </g>
   <g id="patch_4">
    <path d="M 576 259.2 
L 576 -0 
" style="fill: none; stroke: #000000; stroke-width: 0.8; stroke-linejoin: miter; stroke-linecap: square"/>
   </g>
   <g id="patch_5">
    <path d="M 57.6 259.2 
L 576 259.2 
" style="fill: none; stroke: #000000; stroke-width: 0.8; stroke-linejoin: miter; stroke-linecap: square"/>
   </g>
   <g id="patch_6">
    <path d="M 57.6 0 
L 576 0 
" style="fill: none; stroke: #000000; stroke-width: 0.8; stroke-linejoin: miter; stroke-linecap: square"/>
   </g>
   <g id="text_16">
    <!-- Main Axes with Insert Child Axes -->
    <g transform="translate(219.299063 -6) scale(0.12 -0.12)">
     <defs>
      <path id="DejaVuSans-4d" d="M 628 4666 
L 1569 4666 
L 2759 1491 
L 3956 4666 
L 4897 4666 
L 4897 0 
L 4281 0 
L 4281 4097 
L 3078 897 
L 2444 897 
L 1241 4097 
L 1241 0 
L 628 0 
L 628 4666 
z
" transform="scale(0.015625)"/>
      <path id="DejaVuSans-69" d="M 603 3500 
L 1178 3500 
L 1178 0 
L 603 0 
L 603 3500 
z
M 603 4863 
L 1178 4863 
L 1178 4134 
L 603 4134 
L 603 4863 
z
" transform="scale(0.015625)"/>
      <path id="DejaVuSans-6e" d="M 3513 2113 
L 3513 0 
L 2938 0 
L 2938 2094 
Q 2938 2591 2744 2837 
Q 2550 3084 2163 3084 
Q 1697 3084 1428 2787 
Q 1159 2491 1159 1978 
L 1159 0 
L 581 0 
L 581 3500 
L 1159 3500 
L 1159 2956 
Q 1366 3272 1645 3428 
Q 1925 3584 2291 3584 
Q 2894 3584 3203 3211 
Q 3513 2838 3513 2113 
z
" transform="scale(0.015625)"/>
      <path id="DejaVuSans-41" d="M 2188 4044 
L 1331 1722 
L 3047 1722 
L 2188 4044 
z
M 1831 4666 
L 2547 4666 
L 4325 0 
L 3669 0 
L 3244 1197 
L 1141 1197 
L 716 0 
L 50 0 
L 1831 4666 
z
" transform="scale(0.015625)"/>
      <path id="DejaVuSans-78" d="M 3513 3500 
L 2247 1797 
L 3578 0 
L 2900 0 
L 1881 1375 
L 863 0 
L 184 0 
L 1544 1831 
L 300 3500 
L 978 3500 
L 1906 2253 
L 2834 3500 
L 3513 3500 
z
" transform="scale(0.015625)"/>
      <path id="DejaVuSans-77" d="M 269 3500 
L 844 3500 
L 1563 769 
L 2278 3500 
L 2956 3500 
L 3675 769 
L 4391 3500 
L 4966 3500 
L 4050 0 
L 3372 0 
L 2619 2869 
L 1863 0 
L 1184 0 
L 269 3500 
z
" transform="scale(0.015625)"/>
      <path id="DejaVuSans-68" d="M 3513 2113 
L 3513 0 
L 2938 0 
L 2938 2094 
Q 2938 2591 2744 2837 
Q 2550 3084 2163 3084 
Q 1697 3084 1428 2787 
Q 1159 2491 1159 1978 
L 1159 0 
L 581 0 
L 581 4863 
L 1159 4863 
L 1159 2956 
Q 1366 3272 1645 3428 
Q 1925 3584 2291 3584 
Q 2894 3584 3203 3211 
Q 3513 2838 3513 2113 
z
" transform="scale(0.015625)"/>
      <path id="DejaVuSans-49" d="M 628 4666 
L 1259 4666 
L 1259 0 
L 628 0 
L 628 4666 
z
" transform="scale(0.015625)"/>
      <path id="DejaVuSans-72" d="M 2631 2963 
Q 2534 3019 2420 3045 
Q 2306 3072 2169 3072 
Q 1681 3072 1420 2755 
Q 1159 2438 1159 1844 
L 1159 0 
L 581 0 
L 581 3500 
L 1159 3500 
L 1159 2956 
Q 1341 3275 1631 3429 
Q 1922 3584 2338 3584 
Q 2397 3584 2469 3576 
Q 2541 3569 2628 3553 
L 2631 2963 
z
" transform="scale(0.015625)"/>
      <path id="DejaVuSans-6c" d="M 603 4863 
L 1178 4863 
L 1178 0 
L 603 0 
L 603 4863 
z
" transform="scale(0.015625)"/>
      <path id="DejaVuSans-64" d="M 2906 2969 
L 2906 4863 
L 3481 4863 
L 3481 0 
L 2906 0 
L 2906 525 
Q 2725 213 2448 61 
Q 2172 -91 1784 -91 
Q 1150 -91 751 415 
Q 353 922 353 1747 
Q 353 2572 751 3078 
Q 1150 3584 1784 3584 
Q 2172 3584 2448 3432 
Q 2725 3281 2906 2969 
z
M 947 1747 
Q 947 1113 1208 752 
Q 1469 391 1925 391 
Q 2381 391 2643 752 
Q 2906 1113 2906 1747 
Q 2906 2381 2643 2742 
Q 2381 3103 1925 3103 
Q 1469 3103 1208 2742 
Q 947 2381 947 1747 
z
" transform="scale(0.015625)"/>
     </defs>
     <use xlink:href="#DejaVuSans-4d"/>
     <use xlink:href="#DejaVuSans-61" x="86.279297"/>
     <use xlink:href="#DejaVuSans-69" x="147.558594"/>
     <use xlink:href="#DejaVuSans-6e" x="175.341797"/>
     <use xlink:href="#DejaVuSans-20" x="238.720703"/>
     <use xlink:href="#DejaVuSans-41" x="270.507812"/>
     <use xlink:href="#DejaVuSans-78" x="338.916016"/>
     <use xlink:href="#DejaVuSans-65" x="394.970703"/>
     <use xlink:href="#DejaVuSans-73" x="456.494141"/>
     <use xlink:href="#DejaVuSans-20" x="508.59375"/>
     <use xlink:href="#DejaVuSans-77" x="540.380859"/>
     <use xlink:href="#DejaVuSans-69" x="622.167969"/>
     <use xlink:href="#DejaVuSans-74" x="649.951172"/>
     <use xlink:href="#DejaVuSans-68" x="689.160156"/>
     <use xlink:href="#DejaVuSans-20" x="752.539062"/>
     <use xlink:href="#DejaVuSans-49" x="784.326172"/>
     <use xlink:href="#DejaVuSans-6e" x="813.818359"/>
     <use xlink:href="#DejaVuSans-73" x="877.197266"/>
     <use xlink:href="#DejaVuSans-65" x="929.296875"/>
     <use xlink:href="#DejaVuSans-72" x="990.820312"/>
     <use xlink:href="#DejaVuSans-74" x="1031.933594"/>
     <use xlink:href="#DejaVuSans-20" x="1071.142578"/>
     <use xlink:href="#DejaVuSans-43" x="1102.929688"/>
     <use xlink:href="#DejaVuSans-68" x="1172.753906"/>
     <use xlink:href="#DejaVuSans-69" x="1236.132812"/>
     <use xlink:href="#DejaVuSans-6c" x="1263.916016"/>
     <use xlink:href="#DejaVuSans-64" x="1291.699219"/>
     <use xlink:href="#DejaVuSans-20" x="1355.175781"/>
     <use xlink:href="#DejaVuSans-41" x="1386.962891"/>
     <use xlink:href="#DejaVuSans-78" x="1455.371094"/>
     <use xlink:href="#DejaVuSans-65" x="1511.425781"/>
     <use xlink:href="#DejaVuSans-73" x="1572.949219"/>
    </g>
   </g>
  </g>
  <g id="axes_2">
   <g id="patch_7">
    <path d="M 288 230.4 
L 518.4 230.4 
L 518.4 115.2 
L 288 115.2 
z
" style="fill: #ffffff"/>
   </g>
   <g id="matplotlib.axis_3"/>
   <g id="matplotlib.axis_4">
    <g id="ytick_7">
     <g id="line2d_15">
      <g>
       <use xlink:href="#m83d1af1340" x="288" y="203.651811" style="stroke: #000000; stroke-width: 0.8"/>
      </g>
     </g>
     <g id="text_17">
      <!-- −10 -->
      <g transform="translate(259.895312 207.45103) scale(0.1 -0.1)">
       <use xlink:href="#DejaVuSans-2212"/>
       <use xlink:href="#DejaVuSans-31" x="83.789062"/>
       <use xlink:href="#DejaVuSans-30" x="147.412109"/>
      </g>
     </g>
    </g>
    <g id="ytick_8">
     <g id="line2d_16">
      <g>
       <use xlink:href="#m83d1af1340" x="288" y="171.201846" style="stroke: #000000; stroke-width: 0.8"/>
      </g>
     </g>
     <g id="text_18">
      <!-- −5 -->
      <g transform="translate(266.257812 175.001065) scale(0.1 -0.1)">
       <use xlink:href="#DejaVuSans-2212"/>
       <use xlink:href="#DejaVuSans-35" x="83.789062"/>
      </g>
     </g>
    </g>
    <g id="ytick_9">
     <g id="line2d_17">
      <g>
       <use xlink:href="#m83d1af1340" x="288" y="138.751882" style="stroke: #000000; stroke-width: 0.8"/>
      </g>
     </g>
     <g id="text_19">
      <!-- 0 -->
      <g transform="translate(274.6375 142.5511) scale(0.1 -0.1)">
       <use xlink:href="#DejaVuSans-30"/>
      </g>
     </g>
    </g>
   </g>
   <g id="line2d_18">
    <path d="M 298.472727 140.273025 
L 299.525263 144.673361 
L 300.577798 132.627423 
L 301.630333 126.987083 
L 303.735404 124.230854 
L 304.78794 129.652845 
L 305.840475 131.553756 
L 306.893011 120.436364 
L 307.945546 124.953769 
L 308.998081 123.873804 
L 310.050617 131.605506 
L 311.103152 122.572975 
L 312.155688 132.997199 
L 313.208223 134.72379 
L 314.260758 137.878097 
L 315.313294 145.472913 
L 317.418365 177.425705 
L 318.4709 176.679611 
L 319.523435 177.705531 
L 320.575971 182.341168 
L 321.628506 183.072709 
L 322.681042 184.162249 
L 323.733577 175.330261 
L 324.786112 181.214209 
L 325.838648 181.864065 
L 326.891183 185.860948 
L 327.943719 192.488918 
L 328.996254 188.19822 
L 330.048789 198.800668 
L 331.101325 191.427567 
L 332.15386 176.489186 
L 333.206396 170.56259 
L 334.258931 180.760261 
L 335.311466 184.776275 
L 336.364002 184.455857 
L 337.416537 179.881464 
L 338.469073 192.380142 
L 339.521608 191.87167 
L 340.574143 211.093087 
L 341.626679 211.616411 
L 342.679214 199.074559 
L 343.73175 191.997028 
L 344.784285 176.085617 
L 346.889356 157.09482 
L 347.941891 166.808867 
L 348.994427 164.789225 
L 350.046962 153.993644 
L 351.099497 156.475406 
L 352.152033 148.672867 
L 353.204568 153.969944 
L 354.257104 151.309789 
L 355.309639 154.487095 
L 356.362175 164.600049 
L 357.41471 168.737167 
L 358.467245 170.041951 
L 359.519781 155.70448 
L 360.572316 159.629233 
L 361.624852 152.225185 
L 362.677387 147.080194 
L 363.729922 156.076747 
L 364.782458 151.111661 
L 365.834993 149.75928 
L 366.887529 148.879789 
L 367.940064 148.732713 
L 368.992599 149.75372 
L 370.045135 158.357296 
L 371.09767 166.016394 
L 372.150206 160.994731 
L 373.202741 157.817875 
L 374.255276 156.022633 
L 375.307812 160.23638 
L 376.360347 166.632919 
L 377.412883 166.75664 
L 378.465418 169.508679 
L 379.517953 166.987797 
L 380.570489 166.164213 
L 381.623024 173.310581 
L 382.67556 178.39495 
L 383.728095 185.050365 
L 384.78063 181.327007 
L 385.833166 185.176064 
L 386.885701 201.595612 
L 387.938237 205.018489 
L 388.990772 211.368292 
L 390.043307 203.177406 
L 391.095843 206.863395 
L 392.148378 219.446589 
L 393.200914 220.496455 
L 394.253449 225.163636 
L 395.305984 216.181876 
L 396.35852 213.548268 
L 397.411055 207.443384 
L 399.516126 187.453058 
L 400.568661 172.118072 
L 401.621197 176.807358 
L 402.673732 178.220567 
L 403.726268 178.120421 
L 404.778803 191.173745 
L 405.831339 194.209066 
L 406.883874 189.210276 
L 407.936409 188.882445 
L 410.04148 174.172891 
L 411.094016 171.247868 
L 412.146551 165.883161 
L 413.199086 178.845222 
L 414.251622 170.112149 
L 415.304157 175.179447 
L 416.356693 178.855899 
L 417.409228 178.264864 
L 418.461763 185.87117 
L 419.514299 179.389811 
L 420.566834 186.927032 
L 421.61937 192.831444 
L 422.671905 184.667528 
L 423.72444 182.498357 
L 424.776976 186.872381 
L 425.829511 185.488086 
L 426.882047 176.987906 
L 427.934582 179.917152 
L 428.987117 177.932661 
L 430.039653 180.630368 
L 431.092188 172.461567 
L 432.144724 171.311017 
L 434.249794 163.257735 
L 435.30233 163.727043 
L 436.354865 165.252973 
L 437.407401 172.111944 
L 438.459936 165.168553 
L 439.512471 166.297076 
L 440.565007 166.559305 
L 441.617542 169.086897 
L 442.670078 173.774253 
L 443.722613 179.193293 
L 444.775148 179.992297 
L 445.827684 192.391524 
L 446.880219 197.711152 
L 447.932755 199.085522 
L 448.98529 197.533123 
L 450.037825 195.734833 
L 451.090361 192.252229 
L 452.142896 183.309345 
L 453.195432 194.977691 
L 454.247967 191.62571 
L 455.300503 194.672576 
L 456.353038 198.734512 
L 457.405573 187.415011 
L 458.458109 191.884296 
L 459.510644 185.351436 
L 460.56318 181.044187 
L 462.66825 162.213171 
L 463.720786 162.063942 
L 464.773321 167.993888 
L 465.825857 162.051959 
L 466.878392 165.093527 
L 467.930927 173.924402 
L 468.983463 168.575842 
L 470.035998 166.776285 
L 471.088534 163.846543 
L 472.141069 162.182586 
L 473.193604 161.033867 
L 474.24614 156.444514 
L 475.298675 166.898932 
L 476.351211 165.779192 
L 477.403746 173.910748 
L 478.456281 172.912109 
L 479.508817 174.48326 
L 480.561352 175.720043 
L 481.613888 184.159777 
L 482.666423 180.475179 
L 483.718958 187.864374 
L 484.771494 182.143639 
L 486.876565 191.589202 
L 487.9291 189.845526 
L 488.981635 190.851479 
L 490.034171 185.25427 
L 491.086706 193.499821 
L 493.191777 199.162639 
L 494.244312 188.996189 
L 495.296848 187.687052 
L 496.349383 198.765751 
L 497.401919 192.765668 
L 498.454454 200.497283 
L 499.506989 204.844808 
L 500.559525 204.477994 
L 501.61206 202.888992 
L 502.664596 208.888209 
L 503.717131 215.834564 
L 504.769667 215.594252 
L 505.822202 212.294428 
L 506.874737 214.142007 
L 507.927273 222.782996 
L 507.927273 222.782996 
" clip-path="url(#p4a87b2d7ca)" style="fill: none; stroke: #008000; stroke-width: 2; stroke-linecap: square"/>
   </g>
   <g id="patch_8">
    <path d="M 288 230.4 
L 288 115.2 
" style="fill: none; stroke: #000000; stroke-width: 0.8; stroke-linejoin: miter; stroke-linecap: square"/>
   </g>
   <g id="patch_9">
    <path d="M 518.4 230.4 
L 518.4 115.2 
" style="fill: none; stroke: #000000; stroke-width: 0.8; stroke-linejoin: miter; stroke-linecap: square"/>
   </g>
   <g id="patch_10">
    <path d="M 288 230.4 
L 518.4 230.4 
" style="fill: none; stroke: #000000; stroke-width: 0.8; stroke-linejoin: miter; stroke-linecap: square"/>
   </g>
   <g id="patch_11">
    <path d="M 288 115.2 
L 518.4 115.2 
" style="fill: none; stroke: #000000; stroke-width: 0.8; stroke-linejoin: miter; stroke-linecap: square"/>
   </g>
  </g>
 </g>
 <defs>
  <clipPath id="p88f2bd7dd6">
   <rect x="57.6" y="0" width="518.4" height="259.2"/>
  </clipPath>
  <clipPath id="p4a87b2d7ca">
   <rect x="288" y="115.2" width="230.4" height="115.2"/>
  </clipPath>
 </defs>
</svg>
