<?xml version="1.0" encoding="utf-8" standalone="no"?>
<!DOCTYPE svg PUBLIC "-//W3C//DTD SVG 1.1//EN"
  "http://www.w3.org/Graphics/SVG/1.1/DTD/svg11.dtd">
<svg xmlns:xlink="http://www.w3.org/1999/xlink" width="460.8pt" height="345.6pt" viewBox="0 0 460.8 345.6" xmlns="http://www.w3.org/2000/svg" version="1.1">
 <metadata>
  <rdf:RDF xmlns:dc="http://purl.org/dc/elements/1.1/" xmlns:cc="http://creativecommons.org/ns#" xmlns:rdf="http://www.w3.org/1999/02/22-rdf-syntax-ns#">
   <cc:Work>
    <dc:type rdf:resource="http://purl.org/dc/dcmitype/StillImage"/>
    <dc:date>2023-11-23T08:09:33.214114</dc:date>
    <dc:format>image/svg+xml</dc:format>
    <dc:creator>
     <cc:Agent>
      <dc:title>Matplotlib v3.8.1, https://matplotlib.org/</dc:title>
     </cc:Agent>
    </dc:creator>
   </cc:Work>
  </rdf:RDF>
 </metadata>
 <defs>
  <style type="text/css">*{stroke-linejoin: round; stroke-linecap: butt}</style>
 </defs>
 <g id="figure_1">
  <g id="patch_1">
   <path d="M 0 345.6 
L 460.8 345.6 
L 460.8 0 
L 0 0 
z
" style="fill: #ffffff"/>
  </g>
  <g id="axes_1">
   <g id="patch_2">
    <path d="M 52.582813 304.44375 
L 450 304.44375 
L 450 25.918125 
L 52.582813 25.918125 
z
" style="fill: #ffffff"/>
   </g>
   <g id="matplotlib.axis_1">
    <g id="xtick_1">
     <g id="line2d_1">
      <path d="M 72.462749 304.44375 
L 72.462749 25.918125 
" clip-path="url(#p134b3fd550)" style="fill: none; stroke: #b0b0b0; stroke-width: 0.8; stroke-linecap: square"/>
     </g>
     <g id="line2d_2">
      <defs>
       <path id="m8a3b327c6e" d="M 0 0 
L 0 3.5 
" style="stroke: #000000; stroke-width: 0.8"/>
      </defs>
      <g>
       <use xlink:href="#m8a3b327c6e" x="72.462749" y="304.44375" style="stroke: #000000; stroke-width: 0.8"/>
      </g>
     </g>
     <g id="text_1">
      <!-- 2024-01 -->
      <g transform="translate(51.571343 319.042187) scale(0.1 -0.1)">
       <defs>
        <path id="DejaVuSans-32" d="M 1228 531 
L 3431 531 
L 3431 0 
L 469 0 
L 469 531 
Q 828 903 1448 1529 
Q 2069 2156 2228 2338 
Q 2531 2678 2651 2914 
Q 2772 3150 2772 3378 
Q 2772 3750 2511 3984 
Q 2250 4219 1831 4219 
Q 1534 4219 1204 4116 
Q 875 4013 500 3803 
L 500 4441 
Q 881 4594 1212 4672 
Q 1544 4750 1819 4750 
Q 2544 4750 2975 4387 
Q 3406 4025 3406 3419 
Q 3406 3131 3298 2873 
Q 3191 2616 2906 2266 
Q 2828 2175 2409 1742 
Q 1991 1309 1228 531 
z
" transform="scale(0.015625)"/>
        <path id="DejaVuSans-30" d="M 2034 4250 
Q 1547 4250 1301 3770 
Q 1056 3291 1056 2328 
Q 1056 1369 1301 889 
Q 1547 409 2034 409 
Q 2525 409 2770 889 
Q 3016 1369 3016 2328 
Q 3016 3291 2770 3770 
Q 2525 4250 2034 4250 
z
M 2034 4750 
Q 2819 4750 3233 4129 
Q 3647 3509 3647 2328 
Q 3647 1150 3233 529 
Q 2819 -91 2034 -91 
Q 1250 -91 836 529 
Q 422 1150 422 2328 
Q 422 3509 836 4129 
Q 1250 4750 2034 4750 
z
" transform="scale(0.015625)"/>
        <path id="DejaVuSans-34" d="M 2419 4116 
L 825 1625 
L 2419 1625 
L 2419 4116 
z
M 2253 4666 
L 3047 4666 
L 3047 1625 
L 3713 1625 
L 3713 1100 
L 3047 1100 
L 3047 0 
L 2419 0 
L 2419 1100 
L 313 1100 
L 313 1709 
L 2253 4666 
z
" transform="scale(0.015625)"/>
        <path id="DejaVuSans-2d" d="M 313 2009 
L 1997 2009 
L 1997 1497 
L 313 1497 
L 313 2009 
z
" transform="scale(0.015625)"/>
        <path id="DejaVuSans-31" d="M 794 531 
L 1825 531 
L 1825 4091 
L 703 3866 
L 703 4441 
L 1819 4666 
L 2450 4666 
L 2450 531 
L 3481 531 
L 3481 0 
L 794 0 
L 794 531 
z
" transform="scale(0.015625)"/>
       </defs>
       <use xlink:href="#DejaVuSans-32"/>
       <use xlink:href="#DejaVuSans-30" x="63.623047"/>
       <use xlink:href="#DejaVuSans-32" x="127.246094"/>
       <use xlink:href="#DejaVuSans-34" x="190.869141"/>
       <use xlink:href="#DejaVuSans-2d" x="254.492188"/>
       <use xlink:href="#DejaVuSans-30" x="290.576172"/>
       <use xlink:href="#DejaVuSans-31" x="354.199219"/>
      </g>
     </g>
    </g>
    <g id="xtick_2">
     <g id="line2d_3">
      <path d="M 128.74385 304.44375 
L 128.74385 25.918125 
" clip-path="url(#p134b3fd550)" style="fill: none; stroke: #b0b0b0; stroke-width: 0.8; stroke-linecap: square"/>
     </g>
     <g id="line2d_4">
      <g>
       <use xlink:href="#m8a3b327c6e" x="128.74385" y="304.44375" style="stroke: #000000; stroke-width: 0.8"/>
      </g>
     </g>
     <g id="text_2">
      <!-- 2024-02 -->
      <g transform="translate(107.852443 319.042187) scale(0.1 -0.1)">
       <use xlink:href="#DejaVuSans-32"/>
       <use xlink:href="#DejaVuSans-30" x="63.623047"/>
       <use xlink:href="#DejaVuSans-32" x="127.246094"/>
       <use xlink:href="#DejaVuSans-34" x="190.869141"/>
       <use xlink:href="#DejaVuSans-2d" x="254.492188"/>
       <use xlink:href="#DejaVuSans-30" x="290.576172"/>
       <use xlink:href="#DejaVuSans-32" x="354.199219"/>
      </g>
     </g>
    </g>
    <g id="xtick_3">
     <g id="line2d_5">
      <path d="M 181.393911 304.44375 
L 181.393911 25.918125 
" clip-path="url(#p134b3fd550)" style="fill: none; stroke: #b0b0b0; stroke-width: 0.8; stroke-linecap: square"/>
     </g>
     <g id="line2d_6">
      <g>
       <use xlink:href="#m8a3b327c6e" x="181.393911" y="304.44375" style="stroke: #000000; stroke-width: 0.8"/>
      </g>
     </g>
     <g id="text_3">
      <!-- 2024-03 -->
      <g transform="translate(160.502505 319.042187) scale(0.1 -0.1)">
       <defs>
        <path id="DejaVuSans-33" d="M 2597 2516 
Q 3050 2419 3304 2112 
Q 3559 1806 3559 1356 
Q 3559 666 3084 287 
Q 2609 -91 1734 -91 
Q 1441 -91 1130 -33 
Q 819 25 488 141 
L 488 750 
Q 750 597 1062 519 
Q 1375 441 1716 441 
Q 2309 441 2620 675 
Q 2931 909 2931 1356 
Q 2931 1769 2642 2001 
Q 2353 2234 1838 2234 
L 1294 2234 
L 1294 2753 
L 1863 2753 
Q 2328 2753 2575 2939 
Q 2822 3125 2822 3475 
Q 2822 3834 2567 4026 
Q 2313 4219 1838 4219 
Q 1578 4219 1281 4162 
Q 984 4106 628 3988 
L 628 4550 
Q 988 4650 1302 4700 
Q 1616 4750 1894 4750 
Q 2613 4750 3031 4423 
Q 3450 4097 3450 3541 
Q 3450 3153 3228 2886 
Q 3006 2619 2597 2516 
z
" transform="scale(0.015625)"/>
       </defs>
       <use xlink:href="#DejaVuSans-32"/>
       <use xlink:href="#DejaVuSans-30" x="63.623047"/>
       <use xlink:href="#DejaVuSans-32" x="127.246094"/>
       <use xlink:href="#DejaVuSans-34" x="190.869141"/>
       <use xlink:href="#DejaVuSans-2d" x="254.492188"/>
       <use xlink:href="#DejaVuSans-30" x="290.576172"/>
       <use xlink:href="#DejaVuSans-33" x="354.199219"/>
      </g>
     </g>
    </g>
    <g id="xtick_4">
     <g id="line2d_7">
      <path d="M 237.675011 304.44375 
L 237.675011 25.918125 
" clip-path="url(#p134b3fd550)" style="fill: none; stroke: #b0b0b0; stroke-width: 0.8; stroke-linecap: square"/>
     </g>
     <g id="line2d_8">
      <g>
       <use xlink:href="#m8a3b327c6e" x="237.675011" y="304.44375" style="stroke: #000000; stroke-width: 0.8"/>
      </g>
     </g>
     <g id="text_4">
      <!-- 2024-04 -->
      <g transform="translate(216.783605 319.042187) scale(0.1 -0.1)">
       <use xlink:href="#DejaVuSans-32"/>
       <use xlink:href="#DejaVuSans-30" x="63.623047"/>
       <use xlink:href="#DejaVuSans-32" x="127.246094"/>
       <use xlink:href="#DejaVuSans-34" x="190.869141"/>
       <use xlink:href="#DejaVuSans-2d" x="254.492188"/>
       <use xlink:href="#DejaVuSans-30" x="290.576172"/>
       <use xlink:href="#DejaVuSans-34" x="354.199219"/>
      </g>
     </g>
    </g>
    <g id="xtick_5">
     <g id="line2d_9">
      <path d="M 292.140592 304.44375 
L 292.140592 25.918125 
" clip-path="url(#p134b3fd550)" style="fill: none; stroke: #b0b0b0; stroke-width: 0.8; stroke-linecap: square"/>
     </g>
     <g id="line2d_10">
      <g>
       <use xlink:href="#m8a3b327c6e" x="292.140592" y="304.44375" style="stroke: #000000; stroke-width: 0.8"/>
      </g>
     </g>
     <g id="text_5">
      <!-- 2024-05 -->
      <g transform="translate(271.249186 319.042187) scale(0.1 -0.1)">
       <defs>
        <path id="DejaVuSans-35" d="M 691 4666 
L 3169 4666 
L 3169 4134 
L 1269 4134 
L 1269 2991 
Q 1406 3038 1543 3061 
Q 1681 3084 1819 3084 
Q 2600 3084 3056 2656 
Q 3513 2228 3513 1497 
Q 3513 744 3044 326 
Q 2575 -91 1722 -91 
Q 1428 -91 1123 -41 
Q 819 9 494 109 
L 494 744 
Q 775 591 1075 516 
Q 1375 441 1709 441 
Q 2250 441 2565 725 
Q 2881 1009 2881 1497 
Q 2881 1984 2565 2268 
Q 2250 2553 1709 2553 
Q 1456 2553 1204 2497 
Q 953 2441 691 2322 
L 691 4666 
z
" transform="scale(0.015625)"/>
       </defs>
       <use xlink:href="#DejaVuSans-32"/>
       <use xlink:href="#DejaVuSans-30" x="63.623047"/>
       <use xlink:href="#DejaVuSans-32" x="127.246094"/>
       <use xlink:href="#DejaVuSans-34" x="190.869141"/>
       <use xlink:href="#DejaVuSans-2d" x="254.492188"/>
       <use xlink:href="#DejaVuSans-30" x="290.576172"/>
       <use xlink:href="#DejaVuSans-35" x="354.199219"/>
      </g>
     </g>
    </g>
    <g id="xtick_6">
     <g id="line2d_11">
      <path d="M 348.421692 304.44375 
L 348.421692 25.918125 
" clip-path="url(#p134b3fd550)" style="fill: none; stroke: #b0b0b0; stroke-width: 0.8; stroke-linecap: square"/>
     </g>
     <g id="line2d_12">
      <g>
       <use xlink:href="#m8a3b327c6e" x="348.421692" y="304.44375" style="stroke: #000000; stroke-width: 0.8"/>
      </g>
     </g>
     <g id="text_6">
      <!-- 2024-06 -->
      <g transform="translate(327.530286 319.042187) scale(0.1 -0.1)">
       <defs>
        <path id="DejaVuSans-36" d="M 2113 2584 
Q 1688 2584 1439 2293 
Q 1191 2003 1191 1497 
Q 1191 994 1439 701 
Q 1688 409 2113 409 
Q 2538 409 2786 701 
Q 3034 994 3034 1497 
Q 3034 2003 2786 2293 
Q 2538 2584 2113 2584 
z
M 3366 4563 
L 3366 3988 
Q 3128 4100 2886 4159 
Q 2644 4219 2406 4219 
Q 1781 4219 1451 3797 
Q 1122 3375 1075 2522 
Q 1259 2794 1537 2939 
Q 1816 3084 2150 3084 
Q 2853 3084 3261 2657 
Q 3669 2231 3669 1497 
Q 3669 778 3244 343 
Q 2819 -91 2113 -91 
Q 1303 -91 875 529 
Q 447 1150 447 2328 
Q 447 3434 972 4092 
Q 1497 4750 2381 4750 
Q 2619 4750 2861 4703 
Q 3103 4656 3366 4563 
z
" transform="scale(0.015625)"/>
       </defs>
       <use xlink:href="#DejaVuSans-32"/>
       <use xlink:href="#DejaVuSans-30" x="63.623047"/>
       <use xlink:href="#DejaVuSans-32" x="127.246094"/>
       <use xlink:href="#DejaVuSans-34" x="190.869141"/>
       <use xlink:href="#DejaVuSans-2d" x="254.492188"/>
       <use xlink:href="#DejaVuSans-30" x="290.576172"/>
       <use xlink:href="#DejaVuSans-36" x="354.199219"/>
      </g>
     </g>
    </g>
    <g id="xtick_7">
     <g id="line2d_13">
      <path d="M 402.887273 304.44375 
L 402.887273 25.918125 
" clip-path="url(#p134b3fd550)" style="fill: none; stroke: #b0b0b0; stroke-width: 0.8; stroke-linecap: square"/>
     </g>
     <g id="line2d_14">
      <g>
       <use xlink:href="#m8a3b327c6e" x="402.887273" y="304.44375" style="stroke: #000000; stroke-width: 0.8"/>
      </g>
     </g>
     <g id="text_7">
      <!-- 2024-07 -->
      <g transform="translate(381.995866 319.042187) scale(0.1 -0.1)">
       <defs>
        <path id="DejaVuSans-37" d="M 525 4666 
L 3525 4666 
L 3525 4397 
L 1831 0 
L 1172 0 
L 2766 4134 
L 525 4134 
L 525 4666 
z
" transform="scale(0.015625)"/>
       </defs>
       <use xlink:href="#DejaVuSans-32"/>
       <use xlink:href="#DejaVuSans-30" x="63.623047"/>
       <use xlink:href="#DejaVuSans-32" x="127.246094"/>
       <use xlink:href="#DejaVuSans-34" x="190.869141"/>
       <use xlink:href="#DejaVuSans-2d" x="254.492188"/>
       <use xlink:href="#DejaVuSans-30" x="290.576172"/>
       <use xlink:href="#DejaVuSans-37" x="354.199219"/>
      </g>
     </g>
    </g>
    <g id="text_8">
     <!-- Date -->
     <g transform="translate(239.340625 332.720312) scale(0.1 -0.1)">
      <defs>
       <path id="DejaVuSans-44" d="M 1259 4147 
L 1259 519 
L 2022 519 
Q 2988 519 3436 956 
Q 3884 1394 3884 2338 
Q 3884 3275 3436 3711 
Q 2988 4147 2022 4147 
L 1259 4147 
z
M 628 4666 
L 1925 4666 
Q 3281 4666 3915 4102 
Q 4550 3538 4550 2338 
Q 4550 1131 3912 565 
Q 3275 0 1925 0 
L 628 0 
L 628 4666 
z
" transform="scale(0.015625)"/>
       <path id="DejaVuSans-61" d="M 2194 1759 
Q 1497 1759 1228 1600 
Q 959 1441 959 1056 
Q 959 750 1161 570 
Q 1363 391 1709 391 
Q 2188 391 2477 730 
Q 2766 1069 2766 1631 
L 2766 1759 
L 2194 1759 
z
M 3341 1997 
L 3341 0 
L 2766 0 
L 2766 531 
Q 2569 213 2275 61 
Q 1981 -91 1556 -91 
Q 1019 -91 701 211 
Q 384 513 384 1019 
Q 384 1609 779 1909 
Q 1175 2209 1959 2209 
L 2766 2209 
L 2766 2266 
Q 2766 2663 2505 2880 
Q 2244 3097 1772 3097 
Q 1472 3097 1187 3025 
Q 903 2953 641 2809 
L 641 3341 
Q 956 3463 1253 3523 
Q 1550 3584 1831 3584 
Q 2591 3584 2966 3190 
Q 3341 2797 3341 1997 
z
" transform="scale(0.015625)"/>
       <path id="DejaVuSans-74" d="M 1172 4494 
L 1172 3500 
L 2356 3500 
L 2356 3053 
L 1172 3053 
L 1172 1153 
Q 1172 725 1289 603 
Q 1406 481 1766 481 
L 2356 481 
L 2356 0 
L 1766 0 
Q 1100 0 847 248 
Q 594 497 594 1153 
L 594 3053 
L 172 3053 
L 172 3500 
L 594 3500 
L 594 4494 
L 1172 4494 
z
" transform="scale(0.015625)"/>
       <path id="DejaVuSans-65" d="M 3597 1894 
L 3597 1613 
L 953 1613 
Q 991 1019 1311 708 
Q 1631 397 2203 397 
Q 2534 397 2845 478 
Q 3156 559 3463 722 
L 3463 178 
Q 3153 47 2828 -22 
Q 2503 -91 2169 -91 
Q 1331 -91 842 396 
Q 353 884 353 1716 
Q 353 2575 817 3079 
Q 1281 3584 2069 3584 
Q 2775 3584 3186 3129 
Q 3597 2675 3597 1894 
z
M 3022 2063 
Q 3016 2534 2758 2815 
Q 2500 3097 2075 3097 
Q 1594 3097 1305 2825 
Q 1016 2553 972 2059 
L 3022 2063 
z
" transform="scale(0.015625)"/>
      </defs>
      <use xlink:href="#DejaVuSans-44"/>
      <use xlink:href="#DejaVuSans-61" x="77.001953"/>
      <use xlink:href="#DejaVuSans-74" x="138.28125"/>
      <use xlink:href="#DejaVuSans-65" x="177.490234"/>
     </g>
    </g>
   </g>
   <g id="matplotlib.axis_2">
    <g id="ytick_1">
     <g id="line2d_15">
      <path d="M 52.582813 257.44579 
L 450 257.44579 
" clip-path="url(#p134b3fd550)" style="fill: none; stroke: #b0b0b0; stroke-width: 0.8; stroke-linecap: square"/>
     </g>
     <g id="line2d_16">
      <defs>
       <path id="mf955b51ee2" d="M 0 0 
L -3.5 0 
" style="stroke: #000000; stroke-width: 0.8"/>
      </defs>
      <g>
       <use xlink:href="#mf955b51ee2" x="52.582813" y="257.44579" style="stroke: #000000; stroke-width: 0.8"/>
      </g>
     </g>
     <g id="text_9">
      <!-- −10 -->
      <g transform="translate(24.478125 261.245009) scale(0.1 -0.1)">
       <defs>
        <path id="DejaVuSans-2212" d="M 678 2272 
L 4684 2272 
L 4684 1741 
L 678 1741 
L 678 2272 
z
" transform="scale(0.015625)"/>
       </defs>
       <use xlink:href="#DejaVuSans-2212"/>
       <use xlink:href="#DejaVuSans-31" x="83.789062"/>
       <use xlink:href="#DejaVuSans-30" x="147.412109"/>
      </g>
     </g>
    </g>
    <g id="ytick_2">
     <g id="line2d_17">
      <path d="M 52.582813 207.434175 
L 450 207.434175 
" clip-path="url(#p134b3fd550)" style="fill: none; stroke: #b0b0b0; stroke-width: 0.8; stroke-linecap: square"/>
     </g>
     <g id="line2d_18">
      <g>
       <use xlink:href="#mf955b51ee2" x="52.582813" y="207.434175" style="stroke: #000000; stroke-width: 0.8"/>
      </g>
     </g>
     <g id="text_10">
      <!-- 0 -->
      <g transform="translate(39.220313 211.233394) scale(0.1 -0.1)">
       <use xlink:href="#DejaVuSans-30"/>
      </g>
     </g>
    </g>
    <g id="ytick_3">
     <g id="line2d_19">
      <path d="M 52.582813 157.422559 
L 450 157.422559 
" clip-path="url(#p134b3fd550)" style="fill: none; stroke: #b0b0b0; stroke-width: 0.8; stroke-linecap: square"/>
     </g>
     <g id="line2d_20">
      <g>
       <use xlink:href="#mf955b51ee2" x="52.582813" y="157.422559" style="stroke: #000000; stroke-width: 0.8"/>
      </g>
     </g>
     <g id="text_11">
      <!-- 10 -->
      <g transform="translate(32.857813 161.221778) scale(0.1 -0.1)">
       <use xlink:href="#DejaVuSans-31"/>
       <use xlink:href="#DejaVuSans-30" x="63.623047"/>
      </g>
     </g>
    </g>
    <g id="ytick_4">
     <g id="line2d_21">
      <path d="M 52.582813 107.410944 
L 450 107.410944 
" clip-path="url(#p134b3fd550)" style="fill: none; stroke: #b0b0b0; stroke-width: 0.8; stroke-linecap: square"/>
     </g>
     <g id="line2d_22">
      <g>
       <use xlink:href="#mf955b51ee2" x="52.582813" y="107.410944" style="stroke: #000000; stroke-width: 0.8"/>
      </g>
     </g>
     <g id="text_12">
      <!-- 20 -->
      <g transform="translate(32.857813 111.210163) scale(0.1 -0.1)">
       <use xlink:href="#DejaVuSans-32"/>
       <use xlink:href="#DejaVuSans-30" x="63.623047"/>
      </g>
     </g>
    </g>
    <g id="ytick_5">
     <g id="line2d_23">
      <path d="M 52.582813 57.399329 
L 450 57.399329 
" clip-path="url(#p134b3fd550)" style="fill: none; stroke: #b0b0b0; stroke-width: 0.8; stroke-linecap: square"/>
     </g>
     <g id="line2d_24">
      <g>
       <use xlink:href="#mf955b51ee2" x="52.582813" y="57.399329" style="stroke: #000000; stroke-width: 0.8"/>
      </g>
     </g>
     <g id="text_13">
      <!-- 30 -->
      <g transform="translate(32.857813 61.198548) scale(0.1 -0.1)">
       <use xlink:href="#DejaVuSans-33"/>
       <use xlink:href="#DejaVuSans-30" x="63.623047"/>
      </g>
     </g>
    </g>
    <g id="text_14">
     <!-- Cum. sum -->
     <g transform="translate(18.398438 190.533281) rotate(-90) scale(0.1 -0.1)">
      <defs>
       <path id="DejaVuSans-43" d="M 4122 4306 
L 4122 3641 
Q 3803 3938 3442 4084 
Q 3081 4231 2675 4231 
Q 1875 4231 1450 3742 
Q 1025 3253 1025 2328 
Q 1025 1406 1450 917 
Q 1875 428 2675 428 
Q 3081 428 3442 575 
Q 3803 722 4122 1019 
L 4122 359 
Q 3791 134 3420 21 
Q 3050 -91 2638 -91 
Q 1578 -91 968 557 
Q 359 1206 359 2328 
Q 359 3453 968 4101 
Q 1578 4750 2638 4750 
Q 3056 4750 3426 4639 
Q 3797 4528 4122 4306 
z
" transform="scale(0.015625)"/>
       <path id="DejaVuSans-75" d="M 544 1381 
L 544 3500 
L 1119 3500 
L 1119 1403 
Q 1119 906 1312 657 
Q 1506 409 1894 409 
Q 2359 409 2629 706 
Q 2900 1003 2900 1516 
L 2900 3500 
L 3475 3500 
L 3475 0 
L 2900 0 
L 2900 538 
Q 2691 219 2414 64 
Q 2138 -91 1772 -91 
Q 1169 -91 856 284 
Q 544 659 544 1381 
z
M 1991 3584 
L 1991 3584 
z
" transform="scale(0.015625)"/>
       <path id="DejaVuSans-6d" d="M 3328 2828 
Q 3544 3216 3844 3400 
Q 4144 3584 4550 3584 
Q 5097 3584 5394 3201 
Q 5691 2819 5691 2113 
L 5691 0 
L 5113 0 
L 5113 2094 
Q 5113 2597 4934 2840 
Q 4756 3084 4391 3084 
Q 3944 3084 3684 2787 
Q 3425 2491 3425 1978 
L 3425 0 
L 2847 0 
L 2847 2094 
Q 2847 2600 2669 2842 
Q 2491 3084 2119 3084 
Q 1678 3084 1418 2786 
Q 1159 2488 1159 1978 
L 1159 0 
L 581 0 
L 581 3500 
L 1159 3500 
L 1159 2956 
Q 1356 3278 1631 3431 
Q 1906 3584 2284 3584 
Q 2666 3584 2933 3390 
Q 3200 3197 3328 2828 
z
" transform="scale(0.015625)"/>
       <path id="DejaVuSans-2e" d="M 684 794 
L 1344 794 
L 1344 0 
L 684 0 
L 684 794 
z
" transform="scale(0.015625)"/>
       <path id="DejaVuSans-20" transform="scale(0.015625)"/>
       <path id="DejaVuSans-73" d="M 2834 3397 
L 2834 2853 
Q 2591 2978 2328 3040 
Q 2066 3103 1784 3103 
Q 1356 3103 1142 2972 
Q 928 2841 928 2578 
Q 928 2378 1081 2264 
Q 1234 2150 1697 2047 
L 1894 2003 
Q 2506 1872 2764 1633 
Q 3022 1394 3022 966 
Q 3022 478 2636 193 
Q 2250 -91 1575 -91 
Q 1294 -91 989 -36 
Q 684 19 347 128 
L 347 722 
Q 666 556 975 473 
Q 1284 391 1588 391 
Q 1994 391 2212 530 
Q 2431 669 2431 922 
Q 2431 1156 2273 1281 
Q 2116 1406 1581 1522 
L 1381 1569 
Q 847 1681 609 1914 
Q 372 2147 372 2553 
Q 372 3047 722 3315 
Q 1072 3584 1716 3584 
Q 2034 3584 2315 3537 
Q 2597 3491 2834 3397 
z
" transform="scale(0.015625)"/>
      </defs>
      <use xlink:href="#DejaVuSans-43"/>
      <use xlink:href="#DejaVuSans-75" x="69.824219"/>
      <use xlink:href="#DejaVuSans-6d" x="133.203125"/>
      <use xlink:href="#DejaVuSans-2e" x="230.615234"/>
      <use xlink:href="#DejaVuSans-20" x="262.402344"/>
      <use xlink:href="#DejaVuSans-73" x="294.189453"/>
      <use xlink:href="#DejaVuSans-75" x="346.289062"/>
      <use xlink:href="#DejaVuSans-6d" x="409.667969"/>
     </g>
    </g>
   </g>
   <g id="line2d_25">
    <path d="M 70.64723 199.342074 
L 72.462749 197.23362 
L 74.278269 198.166222 
L 76.093788 196.940105 
L 77.909308 202.156481 
L 79.724827 201.915383 
L 81.540346 201.104904 
L 83.355866 197.12895 
L 85.171385 198.581121 
L 86.986904 202.132332 
L 88.802424 200.910507 
L 90.617943 185.874683 
L 92.433462 179.949464 
L 94.248982 180.820807 
L 96.064501 185.869562 
L 97.88002 176.074168 
L 99.69554 172.923683 
L 101.511059 173.756675 
L 103.326579 179.713229 
L 105.142098 182.136401 
L 106.957617 178.177344 
L 108.773137 176.042275 
L 110.588656 176.60467 
L 112.404175 180.276466 
L 114.219695 179.700794 
L 116.035214 181.337647 
L 117.850733 195.276937 
L 119.666253 188.392433 
L 121.481772 191.114644 
L 123.297292 192.968407 
L 125.112811 186.75446 
L 126.92833 185.588434 
L 128.74385 180.611023 
L 130.559369 179.239131 
L 132.374888 168.510604 
L 134.190408 168.697572 
L 136.005927 168.190653 
L 137.821446 165.769586 
L 139.636966 171.748398 
L 141.452485 181.815893 
L 143.268004 188.414984 
L 145.083524 188.437168 
L 146.899043 193.196187 
L 148.714563 188.625268 
L 150.530082 185.501502 
L 152.345601 184.442732 
L 155.97664 176.747898 
L 157.792159 173.65523 
L 159.607679 174.292509 
L 161.423198 175.992707 
L 163.238717 172.948918 
L 165.054237 172.87637 
L 166.869756 175.645067 
L 168.685275 173.08647 
L 170.500795 170.140702 
L 172.316314 170.123555 
L 174.131834 162.644682 
L 175.947353 163.400405 
L 177.762872 168.367757 
L 179.578392 159.543647 
L 181.393911 163.437367 
L 183.20943 179.13038 
L 185.02495 179.291319 
L 186.840469 175.867055 
L 188.655988 180.472074 
L 190.471508 177.161026 
L 192.287027 174.38319 
L 194.102546 165.312217 
L 195.918066 171.709858 
L 197.733585 180.255157 
L 199.549105 180.62046 
L 201.364624 179.532027 
L 203.180143 185.205371 
L 204.995663 182.941034 
L 208.626701 183.737246 
L 210.442221 190.933039 
L 212.25774 186.332867 
L 214.073259 188.862255 
L 215.888779 194.010545 
L 217.704298 198.062102 
L 219.519817 200.85184 
L 221.335337 206.119054 
L 223.150856 212.442725 
L 224.966376 219.364501 
L 226.781895 217.999692 
L 228.597414 217.712224 
L 230.412934 226.021146 
L 232.228453 229.42182 
L 234.043972 224.496181 
L 235.859492 222.773178 
L 237.675011 210.249637 
L 239.49053 209.512616 
L 241.30605 215.275477 
L 243.121569 214.24448 
L 244.937088 211.438616 
L 246.752608 216.465197 
L 248.568127 225.681446 
L 250.383647 232.058877 
L 252.199166 230.142825 
L 254.014685 233.194442 
L 255.830205 235.220305 
L 257.645724 229.950804 
L 259.461243 227.250965 
L 261.276763 225.089744 
L 263.092282 229.77259 
L 264.907801 224.938715 
L 266.723321 227.989564 
L 268.53884 223.445449 
L 270.35436 242.878419 
L 272.169879 241.32285 
L 273.985398 249.377516 
L 275.800918 242.516803 
L 277.616437 246.392356 
L 279.431956 246.569669 
L 281.247476 245.808458 
L 283.062995 245.632143 
L 284.878514 257.640398 
L 286.694034 261.389022 
L 288.509553 262.466339 
L 290.325072 267.072307 
L 292.140592 274.02865 
L 293.956111 268.690643 
L 295.771631 268.993067 
L 297.58715 270.191604 
L 299.402669 270.665848 
L 301.218189 266.193855 
L 303.033708 262.905737 
L 304.849227 266.487173 
L 306.664747 271.873161 
L 308.480266 273.661207 
L 310.295785 276.3501 
L 312.111305 278.157275 
L 313.926824 277.766676 
L 315.742343 270.742532 
L 317.557863 260.710594 
L 319.373382 249.454007 
L 321.188902 252.533852 
L 323.004421 255.895962 
L 324.81994 255.10746 
L 326.63546 256.855324 
L 328.450979 250.476863 
L 332.082018 252.175533 
L 333.897537 250.116647 
L 335.713056 248.359966 
L 337.528576 248.952053 
L 339.344095 241.943801 
L 341.159614 258.45783 
L 342.975134 263.003842 
L 344.790653 261.61886 
L 346.606173 256.395253 
L 348.421692 263.272406 
L 350.237211 256.933623 
L 352.052731 255.269486 
L 353.86825 257.610354 
L 355.683769 254.962319 
L 357.499289 250.903884 
L 359.314808 257.241851 
L 361.130327 255.598742 
L 362.945847 250.924749 
L 364.761366 250.149515 
L 366.576885 248.225065 
L 368.392405 247.207567 
L 370.207924 252.877868 
L 372.023444 252.088532 
L 373.838963 254.119975 
L 375.654482 251.130637 
L 377.470002 254.270062 
L 379.285521 256.019366 
L 381.10104 262.432487 
L 382.91656 254.280456 
L 384.732079 262.380523 
L 386.547598 262.441086 
L 388.363118 273.558163 
L 390.178637 273.341473 
L 391.994157 275.332045 
L 393.809676 264.571901 
L 395.625195 266.991796 
L 397.440715 264.485142 
L 399.256234 262.417835 
L 401.071753 264.309578 
L 402.887273 270.665072 
L 404.702792 277.445396 
L 406.518311 280.622626 
L 408.333831 273.769746 
L 410.14935 278.605949 
L 411.964869 275.550706 
L 413.780389 285.403138 
L 415.595908 279.505044 
L 417.411428 278.603932 
L 421.042466 277.145612 
L 422.857986 275.377017 
L 424.673505 285.609088 
L 426.489024 280.833038 
L 428.304544 282.988508 
L 430.120063 287.856216 
L 431.935582 291.783494 
L 431.935582 291.783494 
" clip-path="url(#p134b3fd550)" style="fill: none; stroke: #1f77b4; stroke-width: 1.5; stroke-linecap: square"/>
   </g>
   <g id="line2d_26">
    <path d="M 70.64723 207.450729 
L 72.462749 200.771873 
L 76.093788 210.039218 
L 77.909308 208.173254 
L 79.724827 209.105596 
L 81.540346 208.185498 
L 83.355866 199.868359 
L 85.171385 206.745104 
L 86.986904 206.267574 
L 88.802424 214.205855 
L 90.617943 219.24804 
L 92.433462 220.208203 
L 94.248982 215.676957 
L 96.064501 212.56776 
L 97.88002 211.813146 
L 99.69554 210.3965 
L 101.511059 210.463388 
L 103.326579 209.989298 
L 105.142098 204.657614 
L 106.957617 207.294517 
L 108.773137 206.466114 
L 110.588656 215.59868 
L 112.404175 215.605108 
L 114.219695 221.105865 
L 116.035214 232.512362 
L 117.850733 231.078598 
L 119.666253 236.846321 
L 121.481772 230.481749 
L 123.297292 222.845708 
L 125.112811 212.946944 
L 126.92833 206.826111 
L 128.74385 209.915981 
L 130.559369 212.064537 
L 132.374888 215.361971 
L 134.190408 222.915343 
L 136.005927 217.407081 
L 137.821446 218.707633 
L 139.636966 220.255279 
L 141.452485 234.177231 
L 143.268004 233.010608 
L 145.083524 243.866823 
L 146.899043 249.032028 
L 148.714563 244.082975 
L 150.530082 241.382988 
L 152.345601 250.922851 
L 154.161121 245.942622 
L 155.97664 253.847737 
L 157.792159 256.965442 
L 159.607679 260.95751 
L 161.423198 261.946285 
L 163.238717 272.724573 
L 165.054237 275.609017 
L 166.869756 265.507864 
L 168.685275 266.098097 
L 170.500795 264.299359 
L 172.316314 267.115945 
L 174.131834 268.941703 
L 175.947353 269.759831 
L 177.762872 273.561967 
L 179.578392 264.836193 
L 181.393911 259.866419 
L 183.20943 258.654309 
L 185.02495 257.934986 
L 186.840469 260.623541 
L 188.655988 262.824653 
L 190.471508 254.325399 
L 192.287027 259.422042 
L 194.102546 250.166341 
L 195.918066 250.011217 
L 197.733585 244.043232 
L 199.549105 243.706776 
L 201.364624 241.774525 
L 203.180143 242.503469 
L 204.995663 238.687315 
L 206.811182 232.668777 
L 208.626701 238.857207 
L 210.442221 232.712242 
L 212.25774 223.324514 
L 215.888779 211.188054 
L 217.704298 211.364603 
L 219.519817 209.940976 
L 221.335337 205.703099 
L 223.150856 206.440975 
L 224.966376 215.908784 
L 226.781895 213.692379 
L 228.597414 222.305654 
L 230.412934 213.258301 
L 232.228453 214.677817 
L 234.043972 215.459053 
L 235.859492 218.438038 
L 237.675011 215.32383 
L 239.49053 211.489477 
L 241.30605 213.175961 
L 243.121569 209.361635 
L 244.937088 211.346215 
L 246.752608 210.787903 
L 248.568127 207.24525 
L 250.383647 211.192585 
L 252.199166 206.124984 
L 254.014685 199.674959 
L 255.830205 192.135942 
L 257.645724 192.362663 
L 259.461243 193.901477 
L 261.276763 197.398526 
L 263.092282 190.68458 
L 264.907801 193.839916 
L 266.723321 188.919524 
L 268.53884 185.877298 
L 270.35436 176.563251 
L 272.169879 177.987639 
L 273.985398 170.255815 
L 275.800918 171.351846 
L 277.616437 161.054466 
L 279.431956 163.58484 
L 281.247476 165.161258 
L 283.062995 167.494859 
L 284.878514 174.467096 
L 286.694034 185.165123 
L 288.509553 185.155228 
L 290.325072 178.883902 
L 292.140592 174.9459 
L 293.956111 172.233439 
L 295.771631 168.515884 
L 297.58715 168.780357 
L 299.402669 168.906696 
L 301.218189 162.899447 
L 303.033708 172.095318 
L 304.849227 164.221857 
L 306.664747 164.090989 
L 308.480266 161.882264 
L 310.295785 162.583167 
L 312.111305 149.892673 
L 313.926824 150.947013 
L 315.742343 152.655516 
L 317.557863 156.585044 
L 319.373382 164.998892 
L 321.188902 154.547819 
L 323.004421 153.799853 
L 324.81994 163.020762 
L 326.63546 160.329177 
L 328.450979 161.967706 
L 330.266498 158.61007 
L 332.082018 160.562433 
L 333.897537 167.3144 
L 337.528576 159.061357 
L 339.344095 162.423322 
L 341.159614 165.466464 
L 342.975134 159.515188 
L 344.790653 164.526476 
L 346.606173 170.497463 
L 348.421692 169.632023 
L 350.237211 171.628183 
L 352.052731 173.103817 
L 353.86825 177.968294 
L 355.683769 177.091245 
L 357.499289 170.762677 
L 359.314808 168.596 
L 361.130327 175.314468 
L 362.945847 170.02254 
L 364.761366 169.28978 
L 366.576885 177.286264 
L 368.392405 179.629768 
L 370.207924 172.893032 
L 372.023444 173.405396 
L 373.838963 172.644307 
L 375.654482 177.390604 
L 377.470002 177.52346 
L 379.285521 181.024979 
L 381.10104 177.447149 
L 382.91656 176.387469 
L 384.732079 165.893245 
L 386.547598 164.394928 
L 388.363118 161.048808 
L 390.178637 160.928508 
L 391.994157 169.298344 
L 393.809676 164.336485 
L 395.625195 159.803801 
L 397.440715 153.841107 
L 399.256234 150.172618 
L 401.071753 155.507803 
L 402.887273 152.621734 
L 404.702792 150.0178 
L 406.518311 151.223901 
L 408.333831 148.560579 
L 410.14935 145.22424 
L 411.964869 146.283142 
L 413.780389 148.06094 
L 415.595908 139.205131 
L 417.411428 137.506145 
L 419.226947 132.367843 
L 421.042466 128.960166 
L 422.857986 125.911075 
L 424.673505 120.917362 
L 426.489024 114.994604 
L 428.304544 117.083919 
L 430.120063 110.040274 
L 431.935582 109.886861 
L 431.935582 109.886861 
" clip-path="url(#p134b3fd550)" style="fill: none; stroke: #ff7f0e; stroke-width: 1.5; stroke-linecap: square"/>
   </g>
   <g id="line2d_27">
    <path d="M 70.64723 203.752849 
L 72.462749 210.21506 
L 74.278269 201.172219 
L 76.093788 198.393072 
L 77.909308 198.155457 
L 79.724827 194.68431 
L 81.540346 194.941719 
L 83.355866 194.391345 
L 85.171385 182.160894 
L 86.986904 182.775563 
L 88.802424 190.451523 
L 90.617943 194.17174 
L 92.433462 193.05338 
L 96.064501 191.462307 
L 97.88002 193.395648 
L 99.69554 185.700024 
L 103.326579 204.512326 
L 105.142098 206.194762 
L 106.957617 208.174275 
L 108.773137 208.326627 
L 110.588656 198.866049 
L 112.404175 200.984662 
L 114.219695 197.505674 
L 116.035214 192.307383 
L 117.850733 191.029263 
L 119.666253 189.919724 
L 121.481772 177.878943 
L 123.297292 174.064617 
L 125.112811 164.86855 
L 126.92833 170.108365 
L 128.74385 176.930959 
L 130.559369 178.400472 
L 132.374888 178.687951 
L 134.190408 185.127602 
L 136.005927 179.246747 
L 137.821446 178.068647 
L 139.636966 178.474112 
L 141.452485 177.778488 
L 143.268004 183.433482 
L 145.083524 185.762039 
L 146.899043 184.599854 
L 148.714563 188.127744 
L 150.530082 188.409215 
L 152.345601 186.885384 
L 154.161121 179.479131 
L 155.97664 181.702521 
L 157.792159 181.541964 
L 159.607679 177.87916 
L 161.423198 177.104868 
L 163.238717 185.978472 
L 165.054237 178.346599 
L 166.869756 169.808655 
L 168.685275 164.053135 
L 170.500795 168.975452 
L 172.316314 166.513047 
L 174.131834 160.12402 
L 175.947353 159.141936 
L 177.762872 159.446556 
L 179.578392 155.982094 
L 181.393911 158.79238 
L 183.20943 150.62353 
L 185.02495 147.402503 
L 186.840469 139.758926 
L 188.655988 138.41103 
L 190.471508 133.455671 
L 192.287027 132.434475 
L 194.102546 132.314527 
L 195.918066 133.411442 
L 197.733585 140.614263 
L 199.549105 139.102024 
L 201.364624 135.286695 
L 203.180143 137.185885 
L 204.995663 131.582784 
L 206.811182 141.522946 
L 208.626701 146.642486 
L 210.442221 143.056545 
L 212.25774 144.576938 
L 214.073259 139.183528 
L 215.888779 135.645038 
L 217.704298 135.161311 
L 219.519817 139.667324 
L 221.335337 137.501885 
L 223.150856 139.762303 
L 224.966376 136.687043 
L 226.781895 134.824829 
L 228.597414 139.990417 
L 230.412934 141.023762 
L 232.228453 149.070239 
L 234.043972 147.129034 
L 235.859492 149.883515 
L 237.675011 150.289899 
L 239.49053 144.384676 
L 241.30605 139.496704 
L 243.121569 140.941802 
L 244.937088 136.290747 
L 246.752608 134.477924 
L 248.568127 130.718794 
L 250.383647 123.915514 
L 252.199166 119.487524 
L 254.014685 126.870347 
L 255.830205 124.197296 
L 257.645724 127.526724 
L 259.461243 127.435751 
L 261.276763 125.853322 
L 263.092282 127.763443 
L 264.907801 127.107245 
L 266.723321 133.851726 
L 268.53884 133.143179 
L 270.35436 134.519796 
L 272.169879 139.482509 
L 273.985398 138.186643 
L 275.800918 133.788089 
L 279.431956 135.967321 
L 281.247476 136.79292 
L 283.062995 129.562636 
L 284.878514 132.341405 
L 286.694034 133.369482 
L 288.509553 135.444451 
L 290.325072 124.80564 
L 292.140592 129.672696 
L 293.956111 131.632454 
L 295.771631 132.346454 
L 297.58715 117.89337 
L 299.402669 119.73351 
L 301.218189 129.6563 
L 303.033708 129.400933 
L 304.849227 126.267784 
L 306.664747 125.252686 
L 308.480266 129.593475 
L 310.295785 132.531274 
L 312.111305 135.188563 
L 313.926824 134.315888 
L 315.742343 123.366721 
L 317.557863 119.257671 
L 319.373382 124.814693 
L 321.188902 124.70448 
L 323.004421 128.59974 
L 324.81994 130.884515 
L 328.450979 132.984835 
L 330.266498 128.26423 
L 333.897537 122.652761 
L 335.713056 117.625994 
L 337.528576 124.266077 
L 339.344095 124.797463 
L 341.159614 117.81066 
L 342.975134 112.380818 
L 344.790653 107.893952 
L 346.606173 113.345081 
L 348.421692 110.245182 
L 350.237211 109.127405 
L 352.052731 107.418297 
L 353.86825 106.992646 
L 355.683769 103.933651 
L 357.499289 103.448799 
L 359.314808 99.188026 
L 361.130327 95.640118 
L 362.945847 97.052299 
L 364.761366 99.314556 
L 366.576885 100.210796 
L 368.392405 103.387016 
L 370.207924 101.870004 
L 372.023444 105.394071 
L 373.838963 108.204756 
L 375.654482 113.307846 
L 377.470002 112.40072 
L 379.285521 104.926599 
L 381.10104 98.153702 
L 382.91656 99.00981 
L 384.732079 96.119374 
L 386.547598 94.524447 
L 388.363118 85.623466 
L 390.178637 80.493878 
L 391.994157 69.038298 
L 393.809676 73.013252 
L 395.625195 66.27243 
L 397.440715 52.243269 
L 399.256234 54.575015 
L 401.071753 48.061604 
L 402.887273 53.145794 
L 404.702792 50.160064 
L 406.518311 54.65919 
L 408.333831 63.318435 
L 410.14935 59.156026 
L 411.964869 50.628168 
L 413.780389 44.908017 
L 415.595908 38.578381 
L 417.411428 38.631248 
L 419.226947 38.889733 
L 421.042466 43.821401 
L 422.857986 47.844893 
L 424.673505 47.487494 
L 426.489024 51.297067 
L 428.304544 65.668658 
L 430.120063 70.790128 
L 431.935582 69.265337 
L 431.935582 69.265337 
" clip-path="url(#p134b3fd550)" style="fill: none; stroke: #2ca02c; stroke-width: 1.5; stroke-linecap: square"/>
   </g>
   <g id="patch_3">
    <path d="M 52.582813 304.44375 
L 52.582813 25.918125 
" style="fill: none; stroke: #000000; stroke-width: 0.8; stroke-linejoin: miter; stroke-linecap: square"/>
   </g>
   <g id="patch_4">
    <path d="M 450 304.44375 
L 450 25.918125 
" style="fill: none; stroke: #000000; stroke-width: 0.8; stroke-linejoin: miter; stroke-linecap: square"/>
   </g>
   <g id="patch_5">
    <path d="M 52.582812 304.44375 
L 450 304.44375 
" style="fill: none; stroke: #000000; stroke-width: 0.8; stroke-linejoin: miter; stroke-linecap: square"/>
   </g>
   <g id="patch_6">
    <path d="M 52.582812 25.918125 
L 450 25.918125 
" style="fill: none; stroke: #000000; stroke-width: 0.8; stroke-linejoin: miter; stroke-linecap: square"/>
   </g>
   <g id="text_15">
    <!-- Random trends -->
    <g transform="translate(205.433594 19.918125) scale(0.12 -0.12)">
     <defs>
      <path id="DejaVuSans-52" d="M 2841 2188 
Q 3044 2119 3236 1894 
Q 3428 1669 3622 1275 
L 4263 0 
L 3584 0 
L 2988 1197 
Q 2756 1666 2539 1819 
Q 2322 1972 1947 1972 
L 1259 1972 
L 1259 0 
L 628 0 
L 628 4666 
L 2053 4666 
Q 2853 4666 3247 4331 
Q 3641 3997 3641 3322 
Q 3641 2881 3436 2590 
Q 3231 2300 2841 2188 
z
M 1259 4147 
L 1259 2491 
L 2053 2491 
Q 2509 2491 2742 2702 
Q 2975 2913 2975 3322 
Q 2975 3731 2742 3939 
Q 2509 4147 2053 4147 
L 1259 4147 
z
" transform="scale(0.015625)"/>
      <path id="DejaVuSans-6e" d="M 3513 2113 
L 3513 0 
L 2938 0 
L 2938 2094 
Q 2938 2591 2744 2837 
Q 2550 3084 2163 3084 
Q 1697 3084 1428 2787 
Q 1159 2491 1159 1978 
L 1159 0 
L 581 0 
L 581 3500 
L 1159 3500 
L 1159 2956 
Q 1366 3272 1645 3428 
Q 1925 3584 2291 3584 
Q 2894 3584 3203 3211 
Q 3513 2838 3513 2113 
z
" transform="scale(0.015625)"/>
      <path id="DejaVuSans-64" d="M 2906 2969 
L 2906 4863 
L 3481 4863 
L 3481 0 
L 2906 0 
L 2906 525 
Q 2725 213 2448 61 
Q 2172 -91 1784 -91 
Q 1150 -91 751 415 
Q 353 922 353 1747 
Q 353 2572 751 3078 
Q 1150 3584 1784 3584 
Q 2172 3584 2448 3432 
Q 2725 3281 2906 2969 
z
M 947 1747 
Q 947 1113 1208 752 
Q 1469 391 1925 391 
Q 2381 391 2643 752 
Q 2906 1113 2906 1747 
Q 2906 2381 2643 2742 
Q 2381 3103 1925 3103 
Q 1469 3103 1208 2742 
Q 947 2381 947 1747 
z
" transform="scale(0.015625)"/>
      <path id="DejaVuSans-6f" d="M 1959 3097 
Q 1497 3097 1228 2736 
Q 959 2375 959 1747 
Q 959 1119 1226 758 
Q 1494 397 1959 397 
Q 2419 397 2687 759 
Q 2956 1122 2956 1747 
Q 2956 2369 2687 2733 
Q 2419 3097 1959 3097 
z
M 1959 3584 
Q 2709 3584 3137 3096 
Q 3566 2609 3566 1747 
Q 3566 888 3137 398 
Q 2709 -91 1959 -91 
Q 1206 -91 779 398 
Q 353 888 353 1747 
Q 353 2609 779 3096 
Q 1206 3584 1959 3584 
z
" transform="scale(0.015625)"/>
      <path id="DejaVuSans-72" d="M 2631 2963 
Q 2534 3019 2420 3045 
Q 2306 3072 2169 3072 
Q 1681 3072 1420 2755 
Q 1159 2438 1159 1844 
L 1159 0 
L 581 0 
L 581 3500 
L 1159 3500 
L 1159 2956 
Q 1341 3275 1631 3429 
Q 1922 3584 2338 3584 
Q 2397 3584 2469 3576 
Q 2541 3569 2628 3553 
L 2631 2963 
z
" transform="scale(0.015625)"/>
     </defs>
     <use xlink:href="#DejaVuSans-52"/>
     <use xlink:href="#DejaVuSans-61" x="67.232422"/>
     <use xlink:href="#DejaVuSans-6e" x="128.511719"/>
     <use xlink:href="#DejaVuSans-64" x="191.890625"/>
     <use xlink:href="#DejaVuSans-6f" x="255.367188"/>
     <use xlink:href="#DejaVuSans-6d" x="316.548828"/>
     <use xlink:href="#DejaVuSans-20" x="413.960938"/>
     <use xlink:href="#DejaVuSans-74" x="445.748047"/>
     <use xlink:href="#DejaVuSans-72" x="484.957031"/>
     <use xlink:href="#DejaVuSans-65" x="523.820312"/>
     <use xlink:href="#DejaVuSans-6e" x="585.34375"/>
     <use xlink:href="#DejaVuSans-64" x="648.722656"/>
     <use xlink:href="#DejaVuSans-73" x="712.199219"/>
    </g>
   </g>
  </g>
  <g id="text_16">
   <!-- SOME TEXT -->
   <g transform="translate(400.941312 340.064312) scale(0.1 -0.1)">
    <defs>
     <path id="DejaVuSans-53" d="M 3425 4513 
L 3425 3897 
Q 3066 4069 2747 4153 
Q 2428 4238 2131 4238 
Q 1616 4238 1336 4038 
Q 1056 3838 1056 3469 
Q 1056 3159 1242 3001 
Q 1428 2844 1947 2747 
L 2328 2669 
Q 3034 2534 3370 2195 
Q 3706 1856 3706 1288 
Q 3706 609 3251 259 
Q 2797 -91 1919 -91 
Q 1588 -91 1214 -16 
Q 841 59 441 206 
L 441 856 
Q 825 641 1194 531 
Q 1563 422 1919 422 
Q 2459 422 2753 634 
Q 3047 847 3047 1241 
Q 3047 1584 2836 1778 
Q 2625 1972 2144 2069 
L 1759 2144 
Q 1053 2284 737 2584 
Q 422 2884 422 3419 
Q 422 4038 858 4394 
Q 1294 4750 2059 4750 
Q 2388 4750 2728 4690 
Q 3069 4631 3425 4513 
z
" transform="scale(0.015625)"/>
     <path id="DejaVuSans-4f" d="M 2522 4238 
Q 1834 4238 1429 3725 
Q 1025 3213 1025 2328 
Q 1025 1447 1429 934 
Q 1834 422 2522 422 
Q 3209 422 3611 934 
Q 4013 1447 4013 2328 
Q 4013 3213 3611 3725 
Q 3209 4238 2522 4238 
z
M 2522 4750 
Q 3503 4750 4090 4092 
Q 4678 3434 4678 2328 
Q 4678 1225 4090 567 
Q 3503 -91 2522 -91 
Q 1538 -91 948 565 
Q 359 1222 359 2328 
Q 359 3434 948 4092 
Q 1538 4750 2522 4750 
z
" transform="scale(0.015625)"/>
     <path id="DejaVuSans-4d" d="M 628 4666 
L 1569 4666 
L 2759 1491 
L 3956 4666 
L 4897 4666 
L 4897 0 
L 4281 0 
L 4281 4097 
L 3078 897 
L 2444 897 
L 1241 4097 
L 1241 0 
L 628 0 
L 628 4666 
z
" transform="scale(0.015625)"/>
     <path id="DejaVuSans-45" d="M 628 4666 
L 3578 4666 
L 3578 4134 
L 1259 4134 
L 1259 2753 
L 3481 2753 
L 3481 2222 
L 1259 2222 
L 1259 531 
L 3634 531 
L 3634 0 
L 628 0 
L 628 4666 
z
" transform="scale(0.015625)"/>
     <path id="DejaVuSans-54" d="M -19 4666 
L 3928 4666 
L 3928 4134 
L 2272 4134 
L 2272 0 
L 1638 0 
L 1638 4134 
L -19 4134 
L -19 4666 
z
" transform="scale(0.015625)"/>
     <path id="DejaVuSans-58" d="M 403 4666 
L 1081 4666 
L 2241 2931 
L 3406 4666 
L 4084 4666 
L 2584 2425 
L 4184 0 
L 3506 0 
L 2194 1984 
L 872 0 
L 191 0 
L 1856 2491 
L 403 4666 
z
" transform="scale(0.015625)"/>
    </defs>
    <use xlink:href="#DejaVuSans-53"/>
    <use xlink:href="#DejaVuSans-4f" x="63.476562"/>
    <use xlink:href="#DejaVuSans-4d" x="142.1875"/>
    <use xlink:href="#DejaVuSans-45" x="228.466797"/>
    <use xlink:href="#DejaVuSans-20" x="291.650391"/>
    <use xlink:href="#DejaVuSans-54" x="323.4375"/>
    <use xlink:href="#DejaVuSans-45" x="384.521484"/>
    <use xlink:href="#DejaVuSans-58" x="447.705078"/>
    <use xlink:href="#DejaVuSans-54" x="514.460938"/>
   </g>
  </g>
 </g>
 <defs>
  <clipPath id="p134b3fd550">
   <rect x="52.582813" y="25.918125" width="397.417187" height="278.525625"/>
  </clipPath>
 </defs>
</svg>
