<?xml version="1.0" encoding="utf-8" standalone="no"?>
<!DOCTYPE svg PUBLIC "-//W3C//DTD SVG 1.1//EN"
  "http://www.w3.org/Graphics/SVG/1.1/DTD/svg11.dtd">
<svg xmlns:xlink="http://www.w3.org/1999/xlink" width="576pt" height="576pt" viewBox="0 0 576 576" xmlns="http://www.w3.org/2000/svg" version="1.1">
 <metadata>
  <rdf:RDF xmlns:dc="http://purl.org/dc/elements/1.1/" xmlns:cc="http://creativecommons.org/ns#" xmlns:rdf="http://www.w3.org/1999/02/22-rdf-syntax-ns#">
   <cc:Work>
    <dc:type rdf:resource="http://purl.org/dc/dcmitype/StillImage"/>
    <dc:date>2023-11-24T20:25:44.743438</dc:date>
    <dc:format>image/svg+xml</dc:format>
    <dc:creator>
     <cc:Agent>
      <dc:title>Matplotlib v3.8.1, https://matplotlib.org/</dc:title>
     </cc:Agent>
    </dc:creator>
   </cc:Work>
  </rdf:RDF>
 </metadata>
 <defs>
  <style type="text/css">*{stroke-linejoin: round; stroke-linecap: butt}</style>
 </defs>
 <g id="figure_1">
  <g id="patch_1">
   <path d="M 0 576 
L 576 576 
L 576 0 
L 0 0 
z
" style="fill: #ffffff"/>
  </g>
  <g id="axes_1">
   <g id="patch_2">
    <path d="M 72 199.567059 
L 518.4 199.567059 
L 518.4 69.12 
L 72 69.12 
z
" style="fill: #ffffff"/>
   </g>
   <g id="matplotlib.axis_1">
    <g id="xtick_1">
     <g id="line2d_1">
      <defs>
       <path id="md5a34d76a6" d="M 0 0 
L 0 3.5 
" style="stroke: #000000; stroke-width: 0.8"/>
      </defs>
      <g>
       <use xlink:href="#md5a34d76a6" x="94.330196" y="199.567059" style="stroke: #000000; stroke-width: 0.8"/>
      </g>
     </g>
    </g>
    <g id="xtick_2">
     <g id="line2d_2">
      <g>
       <use xlink:href="#md5a34d76a6" x="157.548104" y="199.567059" style="stroke: #000000; stroke-width: 0.8"/>
      </g>
     </g>
    </g>
    <g id="xtick_3">
     <g id="line2d_3">
      <g>
       <use xlink:href="#md5a34d76a6" x="216.687437" y="199.567059" style="stroke: #000000; stroke-width: 0.8"/>
      </g>
     </g>
    </g>
    <g id="xtick_4">
     <g id="line2d_4">
      <g>
       <use xlink:href="#md5a34d76a6" x="279.905345" y="199.567059" style="stroke: #000000; stroke-width: 0.8"/>
      </g>
     </g>
    </g>
    <g id="xtick_5">
     <g id="line2d_5">
      <g>
       <use xlink:href="#md5a34d76a6" x="341.083965" y="199.567059" style="stroke: #000000; stroke-width: 0.8"/>
      </g>
     </g>
    </g>
    <g id="xtick_6">
     <g id="line2d_6">
      <g>
       <use xlink:href="#md5a34d76a6" x="404.301873" y="199.567059" style="stroke: #000000; stroke-width: 0.8"/>
      </g>
     </g>
    </g>
    <g id="xtick_7">
     <g id="line2d_7">
      <g>
       <use xlink:href="#md5a34d76a6" x="465.480493" y="199.567059" style="stroke: #000000; stroke-width: 0.8"/>
      </g>
     </g>
    </g>
   </g>
   <g id="matplotlib.axis_2">
    <g id="ytick_1">
     <g id="line2d_8">
      <defs>
       <path id="m996f405c8d" d="M 0 0 
L -3.5 0 
" style="stroke: #000000; stroke-width: 0.8"/>
      </defs>
      <g>
       <use xlink:href="#m996f405c8d" x="72" y="174.954779" style="stroke: #000000; stroke-width: 0.8"/>
      </g>
     </g>
     <g id="text_1">
      <!-- −10 -->
      <g transform="translate(43.895313 178.753998) scale(0.1 -0.1)">
       <defs>
        <path id="DejaVuSans-2212" d="M 678 2272 
L 4684 2272 
L 4684 1741 
L 678 1741 
L 678 2272 
z
" transform="scale(0.015625)"/>
        <path id="DejaVuSans-31" d="M 794 531 
L 1825 531 
L 1825 4091 
L 703 3866 
L 703 4441 
L 1819 4666 
L 2450 4666 
L 2450 531 
L 3481 531 
L 3481 0 
L 794 0 
L 794 531 
z
" transform="scale(0.015625)"/>
        <path id="DejaVuSans-30" d="M 2034 4250 
Q 1547 4250 1301 3770 
Q 1056 3291 1056 2328 
Q 1056 1369 1301 889 
Q 1547 409 2034 409 
Q 2525 409 2770 889 
Q 3016 1369 3016 2328 
Q 3016 3291 2770 3770 
Q 2525 4250 2034 4250 
z
M 2034 4750 
Q 2819 4750 3233 4129 
Q 3647 3509 3647 2328 
Q 3647 1150 3233 529 
Q 2819 -91 2034 -91 
Q 1250 -91 836 529 
Q 422 1150 422 2328 
Q 422 3509 836 4129 
Q 1250 4750 2034 4750 
z
" transform="scale(0.015625)"/>
       </defs>
       <use xlink:href="#DejaVuSans-2212"/>
       <use xlink:href="#DejaVuSans-31" x="83.789062"/>
       <use xlink:href="#DejaVuSans-30" x="147.412109"/>
      </g>
     </g>
    </g>
    <g id="ytick_2">
     <g id="line2d_9">
      <g>
       <use xlink:href="#m996f405c8d" x="72" y="146.772214" style="stroke: #000000; stroke-width: 0.8"/>
      </g>
     </g>
     <g id="text_2">
      <!-- −5 -->
      <g transform="translate(50.257812 150.571432) scale(0.1 -0.1)">
       <defs>
        <path id="DejaVuSans-35" d="M 691 4666 
L 3169 4666 
L 3169 4134 
L 1269 4134 
L 1269 2991 
Q 1406 3038 1543 3061 
Q 1681 3084 1819 3084 
Q 2600 3084 3056 2656 
Q 3513 2228 3513 1497 
Q 3513 744 3044 326 
Q 2575 -91 1722 -91 
Q 1428 -91 1123 -41 
Q 819 9 494 109 
L 494 744 
Q 775 591 1075 516 
Q 1375 441 1709 441 
Q 2250 441 2565 725 
Q 2881 1009 2881 1497 
Q 2881 1984 2565 2268 
Q 2250 2553 1709 2553 
Q 1456 2553 1204 2497 
Q 953 2441 691 2322 
L 691 4666 
z
" transform="scale(0.015625)"/>
       </defs>
       <use xlink:href="#DejaVuSans-2212"/>
       <use xlink:href="#DejaVuSans-35" x="83.789062"/>
      </g>
     </g>
    </g>
    <g id="ytick_3">
     <g id="line2d_10">
      <g>
       <use xlink:href="#m996f405c8d" x="72" y="118.589648" style="stroke: #000000; stroke-width: 0.8"/>
      </g>
     </g>
     <g id="text_3">
      <!-- 0 -->
      <g transform="translate(58.6375 122.388867) scale(0.1 -0.1)">
       <use xlink:href="#DejaVuSans-30"/>
      </g>
     </g>
    </g>
    <g id="ytick_4">
     <g id="line2d_11">
      <g>
       <use xlink:href="#m996f405c8d" x="72" y="90.407083" style="stroke: #000000; stroke-width: 0.8"/>
      </g>
     </g>
     <g id="text_4">
      <!-- 5 -->
      <g transform="translate(58.6375 94.206302) scale(0.1 -0.1)">
       <use xlink:href="#DejaVuSans-35"/>
      </g>
     </g>
    </g>
    <g id="text_5">
     <!-- Cum. sum -->
     <g transform="translate(37.815625 159.695873) rotate(-90) scale(0.1 -0.1)">
      <defs>
       <path id="DejaVuSans-43" d="M 4122 4306 
L 4122 3641 
Q 3803 3938 3442 4084 
Q 3081 4231 2675 4231 
Q 1875 4231 1450 3742 
Q 1025 3253 1025 2328 
Q 1025 1406 1450 917 
Q 1875 428 2675 428 
Q 3081 428 3442 575 
Q 3803 722 4122 1019 
L 4122 359 
Q 3791 134 3420 21 
Q 3050 -91 2638 -91 
Q 1578 -91 968 557 
Q 359 1206 359 2328 
Q 359 3453 968 4101 
Q 1578 4750 2638 4750 
Q 3056 4750 3426 4639 
Q 3797 4528 4122 4306 
z
" transform="scale(0.015625)"/>
       <path id="DejaVuSans-75" d="M 544 1381 
L 544 3500 
L 1119 3500 
L 1119 1403 
Q 1119 906 1312 657 
Q 1506 409 1894 409 
Q 2359 409 2629 706 
Q 2900 1003 2900 1516 
L 2900 3500 
L 3475 3500 
L 3475 0 
L 2900 0 
L 2900 538 
Q 2691 219 2414 64 
Q 2138 -91 1772 -91 
Q 1169 -91 856 284 
Q 544 659 544 1381 
z
M 1991 3584 
L 1991 3584 
z
" transform="scale(0.015625)"/>
       <path id="DejaVuSans-6d" d="M 3328 2828 
Q 3544 3216 3844 3400 
Q 4144 3584 4550 3584 
Q 5097 3584 5394 3201 
Q 5691 2819 5691 2113 
L 5691 0 
L 5113 0 
L 5113 2094 
Q 5113 2597 4934 2840 
Q 4756 3084 4391 3084 
Q 3944 3084 3684 2787 
Q 3425 2491 3425 1978 
L 3425 0 
L 2847 0 
L 2847 2094 
Q 2847 2600 2669 2842 
Q 2491 3084 2119 3084 
Q 1678 3084 1418 2786 
Q 1159 2488 1159 1978 
L 1159 0 
L 581 0 
L 581 3500 
L 1159 3500 
L 1159 2956 
Q 1356 3278 1631 3431 
Q 1906 3584 2284 3584 
Q 2666 3584 2933 3390 
Q 3200 3197 3328 2828 
z
" transform="scale(0.015625)"/>
       <path id="DejaVuSans-2e" d="M 684 794 
L 1344 794 
L 1344 0 
L 684 0 
L 684 794 
z
" transform="scale(0.015625)"/>
       <path id="DejaVuSans-20" transform="scale(0.015625)"/>
       <path id="DejaVuSans-73" d="M 2834 3397 
L 2834 2853 
Q 2591 2978 2328 3040 
Q 2066 3103 1784 3103 
Q 1356 3103 1142 2972 
Q 928 2841 928 2578 
Q 928 2378 1081 2264 
Q 1234 2150 1697 2047 
L 1894 2003 
Q 2506 1872 2764 1633 
Q 3022 1394 3022 966 
Q 3022 478 2636 193 
Q 2250 -91 1575 -91 
Q 1294 -91 989 -36 
Q 684 19 347 128 
L 347 722 
Q 666 556 975 473 
Q 1284 391 1588 391 
Q 1994 391 2212 530 
Q 2431 669 2431 922 
Q 2431 1156 2273 1281 
Q 2116 1406 1581 1522 
L 1381 1569 
Q 847 1681 609 1914 
Q 372 2147 372 2553 
Q 372 3047 722 3315 
Q 1072 3584 1716 3584 
Q 2034 3584 2315 3537 
Q 2597 3491 2834 3397 
z
" transform="scale(0.015625)"/>
      </defs>
      <use xlink:href="#DejaVuSans-43"/>
      <use xlink:href="#DejaVuSans-75" x="69.824219"/>
      <use xlink:href="#DejaVuSans-6d" x="133.203125"/>
      <use xlink:href="#DejaVuSans-2e" x="230.615234"/>
      <use xlink:href="#DejaVuSans-20" x="262.402344"/>
      <use xlink:href="#DejaVuSans-73" x="294.189453"/>
      <use xlink:href="#DejaVuSans-75" x="346.289062"/>
      <use xlink:href="#DejaVuSans-6d" x="409.667969"/>
     </g>
    </g>
   </g>
   <g id="line2d_12">
    <path d="M 92.290909 114.122479 
L 94.330196 112.79281 
L 96.369484 119.742574 
L 98.408771 120.067464 
L 100.448058 122.790668 
L 102.487346 116.544786 
L 104.526633 117.99608 
L 106.565921 118.107823 
L 108.605208 122.06518 
L 110.644495 116.76516 
L 112.683783 109.756024 
L 114.72307 106.029186 
L 116.762357 110.903614 
L 118.801645 104.684634 
L 120.840932 104.910493 
L 122.880219 108.777783 
L 124.919507 107.718367 
L 126.958794 104.806196 
L 128.998081 104.549169 
L 131.037369 110.804492 
L 133.076656 107.882685 
L 135.115943 101.10556 
L 137.155231 95.647061 
L 139.194518 102.328373 
L 141.233805 108.294933 
L 143.273093 120.839123 
L 145.31238 115.738578 
L 147.351667 124.283818 
L 149.390955 125.817862 
L 151.430242 121.275588 
L 153.469529 117.122199 
L 155.508817 120.340063 
L 157.548104 113.158654 
L 159.587392 109.293678 
L 161.626679 116.524974 
L 163.665966 131.896951 
L 165.705254 131.782456 
L 167.744541 135.631506 
L 169.783828 128.486257 
L 171.823116 128.740811 
L 173.862403 123.089621 
L 175.90169 116.101426 
L 177.940978 113.298901 
L 179.980265 112.137236 
L 182.019552 105.577111 
L 184.05884 112.539709 
L 186.098127 114.216871 
L 188.137414 112.162854 
L 190.176702 104.653976 
L 192.215989 104.29343 
L 194.255276 106.278101 
L 196.294564 93.341476 
L 198.333851 99.337044 
L 200.373138 100.426684 
L 202.412426 112.848017 
L 204.451713 104.02283 
L 206.491 109.138084 
L 208.530288 106.75147 
L 210.569575 102.564608 
L 212.608862 109.509113 
L 214.64815 120.046879 
L 216.687437 110.061223 
L 218.726725 110.974304 
L 220.766012 112.224574 
L 222.805299 100.098985 
L 224.844587 100.204456 
L 226.883874 97.100277 
L 228.923161 99.321542 
L 230.962449 103.478076 
L 233.001736 110.090574 
L 235.041023 102.184239 
L 237.080311 112.96657 
L 239.119598 104.143402 
L 241.158885 104.779774 
L 243.198173 112.902756 
L 245.23746 112.062599 
L 247.276747 124.72814 
L 249.316035 126.056833 
L 251.355322 119.67647 
L 253.394609 118.247976 
L 255.433897 117.211582 
L 257.473184 115.377874 
L 259.512471 117.534515 
L 261.551759 111.33764 
L 263.591046 112.179283 
L 265.630333 119.88843 
L 267.669621 119.56277 
L 269.708908 116.559892 
L 271.748196 116.035323 
L 273.787483 110.41793 
L 275.82677 111.219963 
L 277.866058 109.965128 
L 279.905345 110.519432 
L 281.944632 106.411614 
L 283.98392 100.852782 
L 286.023207 104.038633 
L 288.062494 102.894184 
L 290.101782 102.016015 
L 292.141069 106.54558 
L 294.180356 102.222744 
L 296.219644 99.178373 
L 298.258931 117.944927 
L 300.298218 110.63146 
L 302.337506 106.821806 
L 304.376793 108.618386 
L 306.41608 110.261964 
L 308.455368 99.883818 
L 310.494655 101.014134 
L 312.533942 98.967617 
L 314.57323 94.047139 
L 316.612517 86.291607 
L 318.651804 92.171951 
L 320.691092 89.225754 
L 322.730379 93.016752 
L 324.769667 95.066782 
L 326.808954 96.919847 
L 328.848241 95.456495 
L 330.887529 97.804744 
L 332.926816 103.030182 
L 334.966103 106.772701 
L 337.005391 114.130236 
L 339.044678 106.939477 
L 341.083965 114.509635 
L 343.123253 116.759929 
L 345.16254 107.920803 
L 349.241115 94.187922 
L 351.280402 86.418249 
L 353.319689 93.180659 
L 355.358977 83.898875 
L 357.398264 76.704005 
L 359.437551 86.674737 
L 361.476839 89.595011 
L 363.516126 100.647088 
L 365.555413 102.907011 
L 367.594701 96.599277 
L 369.633988 91.846059 
L 371.673275 97.441972 
L 373.712563 97.066467 
L 375.75185 89.223164 
L 377.791138 84.673132 
L 379.830425 91.787962 
L 381.869712 90.346425 
L 383.909 82.393094 
L 385.948287 84.085827 
L 387.987574 91.256008 
L 390.026862 90.943384 
L 392.066149 91.137918 
L 394.105436 96.051882 
L 396.144724 94.171527 
L 398.184011 105.206741 
L 400.223298 112.035558 
L 402.262586 110.652637 
L 404.301873 113.202756 
L 406.34116 116.791075 
L 408.380448 116.696919 
L 410.419735 122.059695 
L 412.459022 119.730386 
L 414.49831 123.49489 
L 416.537597 115.942198 
L 418.576884 120.397052 
L 420.616172 119.060054 
L 422.655459 110.989985 
L 424.694746 106.40764 
L 426.734034 112.337039 
L 428.773321 109.294199 
L 430.812608 105.183989 
L 432.851896 108.892098 
L 434.891183 106.544762 
L 436.930471 98.905516 
L 438.969758 93.967822 
L 441.009045 93.138527 
L 443.048333 84.858058 
L 445.08762 79.347198 
L 447.126907 82.978721 
L 449.166195 78.757125 
L 451.205482 75.129124 
L 453.244769 84.800555 
L 455.284057 81.739724 
L 457.323344 82.505606 
L 459.362631 85.240321 
L 461.401919 82.454438 
L 463.441206 78.138807 
L 465.480493 75.049412 
L 467.519781 81.550578 
L 469.559068 89.959575 
L 471.598355 92.068999 
L 473.637643 96.696023 
L 475.67693 99.384651 
L 477.716217 108.216575 
L 479.755505 107.710313 
L 481.794792 110.090948 
L 483.834079 102.940913 
L 485.873367 98.293387 
L 487.912654 105.239455 
L 489.951942 105.67074 
L 491.991229 106.380747 
L 494.030516 111.269574 
L 496.069804 105.089566 
L 498.109091 96.994607 
L 498.109091 96.994607 
" clip-path="url(#p30297b0cf4)" style="fill: none; stroke: #0000ff; stroke-width: 2; stroke-linecap: square"/>
   </g>
   <g id="patch_3">
    <path d="M 72 199.567059 
L 72 69.12 
" style="fill: none; stroke: #000000; stroke-width: 0.8; stroke-linejoin: miter; stroke-linecap: square"/>
   </g>
   <g id="patch_4">
    <path d="M 518.4 199.567059 
L 518.4 69.12 
" style="fill: none; stroke: #000000; stroke-width: 0.8; stroke-linejoin: miter; stroke-linecap: square"/>
   </g>
   <g id="patch_5">
    <path d="M 72 199.567059 
L 518.4 199.567059 
" style="fill: none; stroke: #000000; stroke-width: 0.8; stroke-linejoin: miter; stroke-linecap: square"/>
   </g>
   <g id="patch_6">
    <path d="M 72 69.12 
L 518.4 69.12 
" style="fill: none; stroke: #000000; stroke-width: 0.8; stroke-linejoin: miter; stroke-linecap: square"/>
   </g>
   <g id="legend_1">
    <g id="patch_7">
     <path d="M 77.831 88.010878 
L 117.613258 88.010878 
Q 119.279258 88.010878 119.279258 86.344878 
L 119.279258 74.951 
Q 119.279258 73.285 117.613258 73.285 
L 77.831 73.285 
Q 76.165 73.285 76.165 74.951 
L 76.165 86.344878 
Q 76.165 88.010878 77.831 88.010878 
z
" style="fill: #ffffff; opacity: 0.5; stroke: #cccccc; stroke-linejoin: miter"/>
    </g>
    <g id="line2d_13">
     <path d="M 79.497 80.030998 
L 87.827 80.030998 
L 96.157 80.030998 
" style="fill: none; stroke: #0000ff; stroke-width: 2; stroke-linecap: square"/>
    </g>
    <g id="text_6">
     <!-- foo -->
     <g transform="translate(102.821 82.946498) scale(0.0833 -0.0833)">
      <defs>
       <path id="DejaVuSans-66" d="M 2375 4863 
L 2375 4384 
L 1825 4384 
Q 1516 4384 1395 4259 
Q 1275 4134 1275 3809 
L 1275 3500 
L 2222 3500 
L 2222 3053 
L 1275 3053 
L 1275 0 
L 697 0 
L 697 3053 
L 147 3053 
L 147 3500 
L 697 3500 
L 697 3744 
Q 697 4328 969 4595 
Q 1241 4863 1831 4863 
L 2375 4863 
z
" transform="scale(0.015625)"/>
       <path id="DejaVuSans-6f" d="M 1959 3097 
Q 1497 3097 1228 2736 
Q 959 2375 959 1747 
Q 959 1119 1226 758 
Q 1494 397 1959 397 
Q 2419 397 2687 759 
Q 2956 1122 2956 1747 
Q 2956 2369 2687 2733 
Q 2419 3097 1959 3097 
z
M 1959 3584 
Q 2709 3584 3137 3096 
Q 3566 2609 3566 1747 
Q 3566 888 3137 398 
Q 2709 -91 1959 -91 
Q 1206 -91 779 398 
Q 353 888 353 1747 
Q 353 2609 779 3096 
Q 1206 3584 1959 3584 
z
" transform="scale(0.015625)"/>
      </defs>
      <use xlink:href="#DejaVuSans-66"/>
      <use xlink:href="#DejaVuSans-6f" x="35.205078"/>
      <use xlink:href="#DejaVuSans-6f" x="96.386719"/>
     </g>
    </g>
   </g>
  </g>
  <g id="axes_2">
   <g id="patch_8">
    <path d="M 72 356.103529 
L 518.4 356.103529 
L 518.4 225.656471 
L 72 225.656471 
z
" style="fill: #ffffff"/>
   </g>
   <g id="matplotlib.axis_3">
    <g id="xtick_8">
     <g id="line2d_14">
      <g>
       <use xlink:href="#md5a34d76a6" x="94.330196" y="356.103529" style="stroke: #000000; stroke-width: 0.8"/>
      </g>
     </g>
    </g>
    <g id="xtick_9">
     <g id="line2d_15">
      <g>
       <use xlink:href="#md5a34d76a6" x="157.548104" y="356.103529" style="stroke: #000000; stroke-width: 0.8"/>
      </g>
     </g>
    </g>
    <g id="xtick_10">
     <g id="line2d_16">
      <g>
       <use xlink:href="#md5a34d76a6" x="216.687437" y="356.103529" style="stroke: #000000; stroke-width: 0.8"/>
      </g>
     </g>
    </g>
    <g id="xtick_11">
     <g id="line2d_17">
      <g>
       <use xlink:href="#md5a34d76a6" x="279.905345" y="356.103529" style="stroke: #000000; stroke-width: 0.8"/>
      </g>
     </g>
    </g>
    <g id="xtick_12">
     <g id="line2d_18">
      <g>
       <use xlink:href="#md5a34d76a6" x="341.083965" y="356.103529" style="stroke: #000000; stroke-width: 0.8"/>
      </g>
     </g>
    </g>
    <g id="xtick_13">
     <g id="line2d_19">
      <g>
       <use xlink:href="#md5a34d76a6" x="404.301873" y="356.103529" style="stroke: #000000; stroke-width: 0.8"/>
      </g>
     </g>
    </g>
    <g id="xtick_14">
     <g id="line2d_20">
      <g>
       <use xlink:href="#md5a34d76a6" x="465.480493" y="356.103529" style="stroke: #000000; stroke-width: 0.8"/>
      </g>
     </g>
    </g>
   </g>
   <g id="matplotlib.axis_4">
    <g id="ytick_5">
     <g id="line2d_21">
      <g>
       <use xlink:href="#m996f405c8d" x="72" y="331.491249" style="stroke: #000000; stroke-width: 0.8"/>
      </g>
     </g>
     <g id="text_7">
      <!-- −10 -->
      <g transform="translate(43.895313 335.290468) scale(0.1 -0.1)">
       <use xlink:href="#DejaVuSans-2212"/>
       <use xlink:href="#DejaVuSans-31" x="83.789062"/>
       <use xlink:href="#DejaVuSans-30" x="147.412109"/>
      </g>
     </g>
    </g>
    <g id="ytick_6">
     <g id="line2d_22">
      <g>
       <use xlink:href="#m996f405c8d" x="72" y="303.308684" style="stroke: #000000; stroke-width: 0.8"/>
      </g>
     </g>
     <g id="text_8">
      <!-- −5 -->
      <g transform="translate(50.257812 307.107903) scale(0.1 -0.1)">
       <use xlink:href="#DejaVuSans-2212"/>
       <use xlink:href="#DejaVuSans-35" x="83.789062"/>
      </g>
     </g>
    </g>
    <g id="ytick_7">
     <g id="line2d_23">
      <g>
       <use xlink:href="#m996f405c8d" x="72" y="275.126119" style="stroke: #000000; stroke-width: 0.8"/>
      </g>
     </g>
     <g id="text_9">
      <!-- 0 -->
      <g transform="translate(58.6375 278.925338) scale(0.1 -0.1)">
       <use xlink:href="#DejaVuSans-30"/>
      </g>
     </g>
    </g>
    <g id="ytick_8">
     <g id="line2d_24">
      <g>
       <use xlink:href="#m996f405c8d" x="72" y="246.943553" style="stroke: #000000; stroke-width: 0.8"/>
      </g>
     </g>
     <g id="text_10">
      <!-- 5 -->
      <g transform="translate(58.6375 250.742772) scale(0.1 -0.1)">
       <use xlink:href="#DejaVuSans-35"/>
      </g>
     </g>
    </g>
    <g id="text_11">
     <!-- Cum. sum -->
     <g transform="translate(37.815625 316.232344) rotate(-90) scale(0.1 -0.1)">
      <use xlink:href="#DejaVuSans-43"/>
      <use xlink:href="#DejaVuSans-75" x="69.824219"/>
      <use xlink:href="#DejaVuSans-6d" x="133.203125"/>
      <use xlink:href="#DejaVuSans-2e" x="230.615234"/>
      <use xlink:href="#DejaVuSans-20" x="262.402344"/>
      <use xlink:href="#DejaVuSans-73" x="294.189453"/>
      <use xlink:href="#DejaVuSans-75" x="346.289062"/>
      <use xlink:href="#DejaVuSans-6d" x="409.667969"/>
     </g>
    </g>
   </g>
   <g id="line2d_25">
    <path d="M 92.290909 276.447221 
L 94.330196 280.268882 
L 96.369484 269.80707 
L 98.408771 264.908474 
L 102.487346 262.514709 
L 104.526633 267.22367 
L 106.565921 268.874597 
L 108.605208 259.219221 
L 110.644495 263.142555 
L 112.683783 262.204614 
L 114.72307 268.919542 
L 116.762357 261.074853 
L 118.801645 270.128217 
L 120.840932 271.627749 
L 122.880219 274.367243 
L 124.919507 280.963287 
L 126.958794 294.403088 
L 128.998081 308.714061 
L 131.037369 308.066084 
L 133.076656 308.957088 
L 135.115943 312.983106 
L 137.155231 313.618444 
L 139.194518 314.564702 
L 141.233805 306.894183 
L 143.273093 312.00435 
L 145.31238 312.568746 
L 147.351667 316.040011 
L 149.390955 321.796356 
L 151.430242 318.069915 
L 153.469529 327.278066 
L 155.508817 320.87458 
L 157.548104 307.900701 
L 159.587392 302.753495 
L 161.626679 311.6101 
L 163.665966 315.097979 
L 165.705254 314.819699 
L 167.744541 310.84687 
L 169.783828 321.701885 
L 171.823116 321.26028 
L 173.862403 337.953945 
L 175.90169 338.408448 
L 177.940978 327.515938 
L 179.980265 321.369152 
L 182.019552 307.550205 
L 186.098127 291.056831 
L 188.137414 299.493412 
L 190.176702 297.739368 
L 192.215989 288.363482 
L 194.255276 290.518874 
L 196.294564 283.742425 
L 198.333851 288.342899 
L 200.373138 286.032572 
L 202.412426 288.792041 
L 204.451713 297.57507 
L 206.491 301.168128 
L 208.530288 302.301323 
L 210.569575 289.849331 
L 212.608862 293.257951 
L 214.64815 286.827588 
L 216.687437 282.3592 
L 218.726725 290.172642 
L 220.766012 285.8605 
L 222.805299 284.685967 
L 224.844587 283.922135 
L 226.883874 283.794401 
L 228.923161 284.681138 
L 230.962449 292.153283 
L 233.001736 298.805155 
L 235.041023 294.443877 
L 237.080311 291.684799 
L 239.119598 290.125644 
L 241.158885 293.785254 
L 243.198173 299.340603 
L 245.23746 299.448054 
L 247.276747 301.83818 
L 249.316035 299.648812 
L 251.355322 298.933535 
L 253.394609 305.140106 
L 255.433897 309.555844 
L 257.473184 315.336025 
L 259.512471 312.102314 
L 261.551759 315.445193 
L 263.591046 329.705455 
L 265.630333 332.678199 
L 267.669621 338.192959 
L 269.708908 331.079232 
L 271.748196 334.280487 
L 273.787483 345.208902 
L 275.82677 346.120704 
L 277.866058 350.174118 
L 279.905345 342.373522 
L 281.944632 340.086252 
L 283.98392 334.784204 
L 288.062494 317.422746 
L 290.101782 304.10442 
L 292.141069 308.177032 
L 294.180356 309.404394 
L 296.219644 309.317417 
L 298.258931 320.654137 
L 300.298218 323.290292 
L 302.337506 318.948878 
L 304.376793 318.664159 
L 306.41608 312.059869 
L 308.455368 305.889016 
L 310.494655 303.348653 
L 312.533942 298.689443 
L 314.57323 309.946901 
L 316.612517 302.362289 
L 318.651804 306.763202 
L 320.691092 309.956175 
L 322.730379 309.442865 
L 324.769667 316.048888 
L 326.808954 310.419874 
L 328.848241 316.965896 
L 330.887529 322.093837 
L 332.926816 315.003533 
L 334.966103 313.119623 
L 337.005391 316.918433 
L 339.044678 315.716183 
L 341.083965 308.333836 
L 343.123253 310.877865 
L 345.16254 309.154349 
L 347.201827 311.497288 
L 349.241115 304.402743 
L 351.280402 303.403498 
L 353.319689 299.767497 
L 355.358977 296.409279 
L 357.398264 296.81687 
L 359.437551 298.14213 
L 361.476839 304.099098 
L 363.516126 298.068811 
L 365.555413 299.048926 
L 367.594701 299.27667 
L 369.633988 301.471866 
L 371.673275 305.542801 
L 373.712563 310.249199 
L 375.75185 310.943128 
L 377.791138 321.711769 
L 379.830425 326.331829 
L 381.869712 327.52546 
L 383.909 326.177212 
L 385.948287 324.615409 
L 387.987574 321.590793 
L 390.026862 313.823961 
L 392.066149 323.957838 
L 394.105436 321.046665 
L 396.144724 323.692847 
L 398.184011 327.220609 
L 400.223298 317.389703 
L 402.262586 321.271245 
L 404.301873 315.597502 
L 406.34116 311.856687 
L 410.419735 295.502083 
L 412.459022 295.372479 
L 414.49831 300.522595 
L 416.537597 295.362072 
L 418.576884 298.003652 
L 420.616172 305.673205 
L 422.655459 301.028018 
L 424.694746 299.465115 
L 426.734034 296.920655 
L 428.773321 295.47552 
L 430.812608 294.477866 
L 432.851896 290.492045 
L 434.891183 299.571633 
L 436.930471 298.599147 
L 438.969758 305.661346 
L 441.009045 304.794035 
L 443.048333 306.158568 
L 445.08762 307.232706 
L 447.126907 314.562555 
L 449.166195 311.362508 
L 451.205482 317.779972 
L 453.244769 312.811554 
L 455.284057 317.118339 
L 457.323344 321.014959 
L 459.362631 319.500588 
L 461.401919 320.374251 
L 463.441206 315.513114 
L 465.480493 322.674318 
L 469.559068 327.592435 
L 471.598355 318.762945 
L 473.637643 317.625969 
L 475.67693 327.247741 
L 477.716217 322.036711 
L 479.755505 328.751564 
L 481.794792 332.527359 
L 483.834079 332.208784 
L 485.873367 330.828747 
L 487.912654 336.039024 
L 489.951942 342.071885 
L 491.991229 341.863175 
L 494.030516 338.997301 
L 496.069804 340.60191 
L 498.109091 348.106548 
L 498.109091 348.106548 
" clip-path="url(#pd4b027726d)" style="fill: none; stroke: #008000; stroke-width: 2; stroke-linecap: square"/>
   </g>
   <g id="patch_9">
    <path d="M 72 356.103529 
L 72 225.656471 
" style="fill: none; stroke: #000000; stroke-width: 0.8; stroke-linejoin: miter; stroke-linecap: square"/>
   </g>
   <g id="patch_10">
    <path d="M 518.4 356.103529 
L 518.4 225.656471 
" style="fill: none; stroke: #000000; stroke-width: 0.8; stroke-linejoin: miter; stroke-linecap: square"/>
   </g>
   <g id="patch_11">
    <path d="M 72 356.103529 
L 518.4 356.103529 
" style="fill: none; stroke: #000000; stroke-width: 0.8; stroke-linejoin: miter; stroke-linecap: square"/>
   </g>
   <g id="patch_12">
    <path d="M 72 225.656471 
L 518.4 225.656471 
" style="fill: none; stroke: #000000; stroke-width: 0.8; stroke-linejoin: miter; stroke-linecap: square"/>
   </g>
   <g id="legend_2">
    <g id="patch_13">
     <path d="M 77.831 244.547349 
L 118.304388 244.547349 
Q 119.970388 244.547349 119.970388 242.881349 
L 119.970388 231.487471 
Q 119.970388 229.821471 118.304388 229.821471 
L 77.831 229.821471 
Q 76.165 229.821471 76.165 231.487471 
L 76.165 242.881349 
Q 76.165 244.547349 77.831 244.547349 
z
" style="fill: #ffffff; opacity: 0.5; stroke: #cccccc; stroke-linejoin: miter"/>
    </g>
    <g id="line2d_26">
     <path d="M 79.497 236.567469 
L 87.827 236.567469 
L 96.157 236.567469 
" style="fill: none; stroke: #008000; stroke-width: 2; stroke-linecap: square"/>
    </g>
    <g id="text_12">
     <!-- bar -->
     <g transform="translate(102.821 239.482969) scale(0.0833 -0.0833)">
      <defs>
       <path id="DejaVuSans-62" d="M 3116 1747 
Q 3116 2381 2855 2742 
Q 2594 3103 2138 3103 
Q 1681 3103 1420 2742 
Q 1159 2381 1159 1747 
Q 1159 1113 1420 752 
Q 1681 391 2138 391 
Q 2594 391 2855 752 
Q 3116 1113 3116 1747 
z
M 1159 2969 
Q 1341 3281 1617 3432 
Q 1894 3584 2278 3584 
Q 2916 3584 3314 3078 
Q 3713 2572 3713 1747 
Q 3713 922 3314 415 
Q 2916 -91 2278 -91 
Q 1894 -91 1617 61 
Q 1341 213 1159 525 
L 1159 0 
L 581 0 
L 581 4863 
L 1159 4863 
L 1159 2969 
z
" transform="scale(0.015625)"/>
       <path id="DejaVuSans-61" d="M 2194 1759 
Q 1497 1759 1228 1600 
Q 959 1441 959 1056 
Q 959 750 1161 570 
Q 1363 391 1709 391 
Q 2188 391 2477 730 
Q 2766 1069 2766 1631 
L 2766 1759 
L 2194 1759 
z
M 3341 1997 
L 3341 0 
L 2766 0 
L 2766 531 
Q 2569 213 2275 61 
Q 1981 -91 1556 -91 
Q 1019 -91 701 211 
Q 384 513 384 1019 
Q 384 1609 779 1909 
Q 1175 2209 1959 2209 
L 2766 2209 
L 2766 2266 
Q 2766 2663 2505 2880 
Q 2244 3097 1772 3097 
Q 1472 3097 1187 3025 
Q 903 2953 641 2809 
L 641 3341 
Q 956 3463 1253 3523 
Q 1550 3584 1831 3584 
Q 2591 3584 2966 3190 
Q 3341 2797 3341 1997 
z
" transform="scale(0.015625)"/>
       <path id="DejaVuSans-72" d="M 2631 2963 
Q 2534 3019 2420 3045 
Q 2306 3072 2169 3072 
Q 1681 3072 1420 2755 
Q 1159 2438 1159 1844 
L 1159 0 
L 581 0 
L 581 3500 
L 1159 3500 
L 1159 2956 
Q 1341 3275 1631 3429 
Q 1922 3584 2338 3584 
Q 2397 3584 2469 3576 
Q 2541 3569 2628 3553 
L 2631 2963 
z
" transform="scale(0.015625)"/>
      </defs>
      <use xlink:href="#DejaVuSans-62"/>
      <use xlink:href="#DejaVuSans-61" x="63.476562"/>
      <use xlink:href="#DejaVuSans-72" x="124.755859"/>
     </g>
    </g>
   </g>
  </g>
  <g id="axes_3">
   <g id="patch_14">
    <path d="M 72 512.64 
L 518.4 512.64 
L 518.4 382.192941 
L 72 382.192941 
z
" style="fill: #ffffff"/>
   </g>
   <g id="matplotlib.axis_5">
    <g id="xtick_15">
     <g id="line2d_27">
      <g>
       <use xlink:href="#md5a34d76a6" x="94.330196" y="512.64" style="stroke: #000000; stroke-width: 0.8"/>
      </g>
     </g>
     <g id="text_13">
      <!-- 2024-01 -->
      <g transform="translate(73.43879 527.238438) scale(0.1 -0.1)">
       <defs>
        <path id="DejaVuSans-32" d="M 1228 531 
L 3431 531 
L 3431 0 
L 469 0 
L 469 531 
Q 828 903 1448 1529 
Q 2069 2156 2228 2338 
Q 2531 2678 2651 2914 
Q 2772 3150 2772 3378 
Q 2772 3750 2511 3984 
Q 2250 4219 1831 4219 
Q 1534 4219 1204 4116 
Q 875 4013 500 3803 
L 500 4441 
Q 881 4594 1212 4672 
Q 1544 4750 1819 4750 
Q 2544 4750 2975 4387 
Q 3406 4025 3406 3419 
Q 3406 3131 3298 2873 
Q 3191 2616 2906 2266 
Q 2828 2175 2409 1742 
Q 1991 1309 1228 531 
z
" transform="scale(0.015625)"/>
        <path id="DejaVuSans-34" d="M 2419 4116 
L 825 1625 
L 2419 1625 
L 2419 4116 
z
M 2253 4666 
L 3047 4666 
L 3047 1625 
L 3713 1625 
L 3713 1100 
L 3047 1100 
L 3047 0 
L 2419 0 
L 2419 1100 
L 313 1100 
L 313 1709 
L 2253 4666 
z
" transform="scale(0.015625)"/>
        <path id="DejaVuSans-2d" d="M 313 2009 
L 1997 2009 
L 1997 1497 
L 313 1497 
L 313 2009 
z
" transform="scale(0.015625)"/>
       </defs>
       <use xlink:href="#DejaVuSans-32"/>
       <use xlink:href="#DejaVuSans-30" x="63.623047"/>
       <use xlink:href="#DejaVuSans-32" x="127.246094"/>
       <use xlink:href="#DejaVuSans-34" x="190.869141"/>
       <use xlink:href="#DejaVuSans-2d" x="254.492188"/>
       <use xlink:href="#DejaVuSans-30" x="290.576172"/>
       <use xlink:href="#DejaVuSans-31" x="354.199219"/>
      </g>
     </g>
    </g>
    <g id="xtick_16">
     <g id="line2d_28">
      <g>
       <use xlink:href="#md5a34d76a6" x="157.548104" y="512.64" style="stroke: #000000; stroke-width: 0.8"/>
      </g>
     </g>
     <g id="text_14">
      <!-- 2024-02 -->
      <g transform="translate(136.656698 527.238438) scale(0.1 -0.1)">
       <use xlink:href="#DejaVuSans-32"/>
       <use xlink:href="#DejaVuSans-30" x="63.623047"/>
       <use xlink:href="#DejaVuSans-32" x="127.246094"/>
       <use xlink:href="#DejaVuSans-34" x="190.869141"/>
       <use xlink:href="#DejaVuSans-2d" x="254.492188"/>
       <use xlink:href="#DejaVuSans-30" x="290.576172"/>
       <use xlink:href="#DejaVuSans-32" x="354.199219"/>
      </g>
     </g>
    </g>
    <g id="xtick_17">
     <g id="line2d_29">
      <g>
       <use xlink:href="#md5a34d76a6" x="216.687437" y="512.64" style="stroke: #000000; stroke-width: 0.8"/>
      </g>
     </g>
     <g id="text_15">
      <!-- 2024-03 -->
      <g transform="translate(195.796031 527.238438) scale(0.1 -0.1)">
       <defs>
        <path id="DejaVuSans-33" d="M 2597 2516 
Q 3050 2419 3304 2112 
Q 3559 1806 3559 1356 
Q 3559 666 3084 287 
Q 2609 -91 1734 -91 
Q 1441 -91 1130 -33 
Q 819 25 488 141 
L 488 750 
Q 750 597 1062 519 
Q 1375 441 1716 441 
Q 2309 441 2620 675 
Q 2931 909 2931 1356 
Q 2931 1769 2642 2001 
Q 2353 2234 1838 2234 
L 1294 2234 
L 1294 2753 
L 1863 2753 
Q 2328 2753 2575 2939 
Q 2822 3125 2822 3475 
Q 2822 3834 2567 4026 
Q 2313 4219 1838 4219 
Q 1578 4219 1281 4162 
Q 984 4106 628 3988 
L 628 4550 
Q 988 4650 1302 4700 
Q 1616 4750 1894 4750 
Q 2613 4750 3031 4423 
Q 3450 4097 3450 3541 
Q 3450 3153 3228 2886 
Q 3006 2619 2597 2516 
z
" transform="scale(0.015625)"/>
       </defs>
       <use xlink:href="#DejaVuSans-32"/>
       <use xlink:href="#DejaVuSans-30" x="63.623047"/>
       <use xlink:href="#DejaVuSans-32" x="127.246094"/>
       <use xlink:href="#DejaVuSans-34" x="190.869141"/>
       <use xlink:href="#DejaVuSans-2d" x="254.492188"/>
       <use xlink:href="#DejaVuSans-30" x="290.576172"/>
       <use xlink:href="#DejaVuSans-33" x="354.199219"/>
      </g>
     </g>
    </g>
    <g id="xtick_18">
     <g id="line2d_30">
      <g>
       <use xlink:href="#md5a34d76a6" x="279.905345" y="512.64" style="stroke: #000000; stroke-width: 0.8"/>
      </g>
     </g>
     <g id="text_16">
      <!-- 2024-04 -->
      <g transform="translate(259.013939 527.238438) scale(0.1 -0.1)">
       <use xlink:href="#DejaVuSans-32"/>
       <use xlink:href="#DejaVuSans-30" x="63.623047"/>
       <use xlink:href="#DejaVuSans-32" x="127.246094"/>
       <use xlink:href="#DejaVuSans-34" x="190.869141"/>
       <use xlink:href="#DejaVuSans-2d" x="254.492188"/>
       <use xlink:href="#DejaVuSans-30" x="290.576172"/>
       <use xlink:href="#DejaVuSans-34" x="354.199219"/>
      </g>
     </g>
    </g>
    <g id="xtick_19">
     <g id="line2d_31">
      <g>
       <use xlink:href="#md5a34d76a6" x="341.083965" y="512.64" style="stroke: #000000; stroke-width: 0.8"/>
      </g>
     </g>
     <g id="text_17">
      <!-- 2024-05 -->
      <g transform="translate(320.192559 527.238438) scale(0.1 -0.1)">
       <use xlink:href="#DejaVuSans-32"/>
       <use xlink:href="#DejaVuSans-30" x="63.623047"/>
       <use xlink:href="#DejaVuSans-32" x="127.246094"/>
       <use xlink:href="#DejaVuSans-34" x="190.869141"/>
       <use xlink:href="#DejaVuSans-2d" x="254.492188"/>
       <use xlink:href="#DejaVuSans-30" x="290.576172"/>
       <use xlink:href="#DejaVuSans-35" x="354.199219"/>
      </g>
     </g>
    </g>
    <g id="xtick_20">
     <g id="line2d_32">
      <g>
       <use xlink:href="#md5a34d76a6" x="404.301873" y="512.64" style="stroke: #000000; stroke-width: 0.8"/>
      </g>
     </g>
     <g id="text_18">
      <!-- 2024-06 -->
      <g transform="translate(383.410467 527.238438) scale(0.1 -0.1)">
       <defs>
        <path id="DejaVuSans-36" d="M 2113 2584 
Q 1688 2584 1439 2293 
Q 1191 2003 1191 1497 
Q 1191 994 1439 701 
Q 1688 409 2113 409 
Q 2538 409 2786 701 
Q 3034 994 3034 1497 
Q 3034 2003 2786 2293 
Q 2538 2584 2113 2584 
z
M 3366 4563 
L 3366 3988 
Q 3128 4100 2886 4159 
Q 2644 4219 2406 4219 
Q 1781 4219 1451 3797 
Q 1122 3375 1075 2522 
Q 1259 2794 1537 2939 
Q 1816 3084 2150 3084 
Q 2853 3084 3261 2657 
Q 3669 2231 3669 1497 
Q 3669 778 3244 343 
Q 2819 -91 2113 -91 
Q 1303 -91 875 529 
Q 447 1150 447 2328 
Q 447 3434 972 4092 
Q 1497 4750 2381 4750 
Q 2619 4750 2861 4703 
Q 3103 4656 3366 4563 
z
" transform="scale(0.015625)"/>
       </defs>
       <use xlink:href="#DejaVuSans-32"/>
       <use xlink:href="#DejaVuSans-30" x="63.623047"/>
       <use xlink:href="#DejaVuSans-32" x="127.246094"/>
       <use xlink:href="#DejaVuSans-34" x="190.869141"/>
       <use xlink:href="#DejaVuSans-2d" x="254.492188"/>
       <use xlink:href="#DejaVuSans-30" x="290.576172"/>
       <use xlink:href="#DejaVuSans-36" x="354.199219"/>
      </g>
     </g>
    </g>
    <g id="xtick_21">
     <g id="line2d_33">
      <g>
       <use xlink:href="#md5a34d76a6" x="465.480493" y="512.64" style="stroke: #000000; stroke-width: 0.8"/>
      </g>
     </g>
     <g id="text_19">
      <!-- 2024-07 -->
      <g transform="translate(444.589087 527.238438) scale(0.1 -0.1)">
       <defs>
        <path id="DejaVuSans-37" d="M 525 4666 
L 3525 4666 
L 3525 4397 
L 1831 0 
L 1172 0 
L 2766 4134 
L 525 4134 
L 525 4666 
z
" transform="scale(0.015625)"/>
       </defs>
       <use xlink:href="#DejaVuSans-32"/>
       <use xlink:href="#DejaVuSans-30" x="63.623047"/>
       <use xlink:href="#DejaVuSans-32" x="127.246094"/>
       <use xlink:href="#DejaVuSans-34" x="190.869141"/>
       <use xlink:href="#DejaVuSans-2d" x="254.492188"/>
       <use xlink:href="#DejaVuSans-30" x="290.576172"/>
       <use xlink:href="#DejaVuSans-37" x="354.199219"/>
      </g>
     </g>
    </g>
    <g id="text_20">
     <!-- Date -->
     <g transform="translate(283.249219 540.916563) scale(0.1 -0.1)">
      <defs>
       <path id="DejaVuSans-44" d="M 1259 4147 
L 1259 519 
L 2022 519 
Q 2988 519 3436 956 
Q 3884 1394 3884 2338 
Q 3884 3275 3436 3711 
Q 2988 4147 2022 4147 
L 1259 4147 
z
M 628 4666 
L 1925 4666 
Q 3281 4666 3915 4102 
Q 4550 3538 4550 2338 
Q 4550 1131 3912 565 
Q 3275 0 1925 0 
L 628 0 
L 628 4666 
z
" transform="scale(0.015625)"/>
       <path id="DejaVuSans-74" d="M 1172 4494 
L 1172 3500 
L 2356 3500 
L 2356 3053 
L 1172 3053 
L 1172 1153 
Q 1172 725 1289 603 
Q 1406 481 1766 481 
L 2356 481 
L 2356 0 
L 1766 0 
Q 1100 0 847 248 
Q 594 497 594 1153 
L 594 3053 
L 172 3053 
L 172 3500 
L 594 3500 
L 594 4494 
L 1172 4494 
z
" transform="scale(0.015625)"/>
       <path id="DejaVuSans-65" d="M 3597 1894 
L 3597 1613 
L 953 1613 
Q 991 1019 1311 708 
Q 1631 397 2203 397 
Q 2534 397 2845 478 
Q 3156 559 3463 722 
L 3463 178 
Q 3153 47 2828 -22 
Q 2503 -91 2169 -91 
Q 1331 -91 842 396 
Q 353 884 353 1716 
Q 353 2575 817 3079 
Q 1281 3584 2069 3584 
Q 2775 3584 3186 3129 
Q 3597 2675 3597 1894 
z
M 3022 2063 
Q 3016 2534 2758 2815 
Q 2500 3097 2075 3097 
Q 1594 3097 1305 2825 
Q 1016 2553 972 2059 
L 3022 2063 
z
" transform="scale(0.015625)"/>
      </defs>
      <use xlink:href="#DejaVuSans-44"/>
      <use xlink:href="#DejaVuSans-61" x="77.001953"/>
      <use xlink:href="#DejaVuSans-74" x="138.28125"/>
      <use xlink:href="#DejaVuSans-65" x="177.490234"/>
     </g>
    </g>
   </g>
   <g id="matplotlib.axis_6">
    <g id="ytick_9">
     <g id="line2d_34">
      <g>
       <use xlink:href="#m996f405c8d" x="72" y="488.02772" style="stroke: #000000; stroke-width: 0.8"/>
      </g>
     </g>
     <g id="text_21">
      <!-- −10 -->
      <g transform="translate(43.895313 491.826939) scale(0.1 -0.1)">
       <use xlink:href="#DejaVuSans-2212"/>
       <use xlink:href="#DejaVuSans-31" x="83.789062"/>
       <use xlink:href="#DejaVuSans-30" x="147.412109"/>
      </g>
     </g>
    </g>
    <g id="ytick_10">
     <g id="line2d_35">
      <g>
       <use xlink:href="#m996f405c8d" x="72" y="459.845155" style="stroke: #000000; stroke-width: 0.8"/>
      </g>
     </g>
     <g id="text_22">
      <!-- −5 -->
      <g transform="translate(50.257812 463.644373) scale(0.1 -0.1)">
       <use xlink:href="#DejaVuSans-2212"/>
       <use xlink:href="#DejaVuSans-35" x="83.789062"/>
      </g>
     </g>
    </g>
    <g id="ytick_11">
     <g id="line2d_36">
      <g>
       <use xlink:href="#m996f405c8d" x="72" y="431.662589" style="stroke: #000000; stroke-width: 0.8"/>
      </g>
     </g>
     <g id="text_23">
      <!-- 0 -->
      <g transform="translate(58.6375 435.461808) scale(0.1 -0.1)">
       <use xlink:href="#DejaVuSans-30"/>
      </g>
     </g>
    </g>
    <g id="ytick_12">
     <g id="line2d_37">
      <g>
       <use xlink:href="#m996f405c8d" x="72" y="403.480024" style="stroke: #000000; stroke-width: 0.8"/>
      </g>
     </g>
     <g id="text_24">
      <!-- 5 -->
      <g transform="translate(58.6375 407.279243) scale(0.1 -0.1)">
       <use xlink:href="#DejaVuSans-35"/>
      </g>
     </g>
    </g>
    <g id="text_25">
     <!-- Cum. sum -->
     <g transform="translate(37.815625 472.768814) rotate(-90) scale(0.1 -0.1)">
      <use xlink:href="#DejaVuSans-43"/>
      <use xlink:href="#DejaVuSans-75" x="69.824219"/>
      <use xlink:href="#DejaVuSans-6d" x="133.203125"/>
      <use xlink:href="#DejaVuSans-2e" x="230.615234"/>
      <use xlink:href="#DejaVuSans-20" x="262.402344"/>
      <use xlink:href="#DejaVuSans-73" x="294.189453"/>
      <use xlink:href="#DejaVuSans-75" x="346.289062"/>
      <use xlink:href="#DejaVuSans-6d" x="409.667969"/>
     </g>
    </g>
   </g>
   <g id="line2d_38">
    <path d="M 92.290909 437.217338 
L 94.330196 423.659979 
L 96.369484 429.36095 
L 98.408771 432.372136 
L 100.448058 426.809936 
L 102.487346 424.970366 
L 104.526633 428.135698 
L 106.565921 426.456405 
L 108.605208 432.947443 
L 110.644495 420.450699 
L 112.683783 422.65697 
L 114.72307 419.109516 
L 116.762357 417.505698 
L 118.801645 413.324889 
L 120.840932 410.914937 
L 122.880219 418.082957 
L 124.919507 413.01665 
L 126.958794 415.455963 
L 128.998081 412.543565 
L 131.037369 422.499913 
L 133.076656 433.604527 
L 135.115943 431.157274 
L 137.155231 416.006488 
L 139.194518 427.810387 
L 141.233805 421.381017 
L 143.273093 419.123336 
L 145.31238 418.388443 
L 147.351667 413.911459 
L 149.390955 401.49421 
L 151.430242 404.271245 
L 153.469529 397.96161 
L 155.508817 399.373727 
L 157.548104 399.968658 
L 159.587392 415.123318 
L 161.626679 409.174917 
L 163.665966 413.525679 
L 165.705254 404.875177 
L 167.744541 404.009178 
L 169.783828 409.503956 
L 171.823116 413.718591 
L 173.862403 406.376076 
L 175.90169 413.589697 
L 177.940978 416.94083 
L 179.980265 417.970232 
L 182.019552 419.993817 
L 184.05884 416.603184 
L 186.098127 422.52653 
L 188.137414 418.53288 
L 190.176702 416.802463 
L 194.255276 432.504842 
L 196.294564 438.666059 
L 198.333851 449.414618 
L 202.412426 437.469015 
L 204.451713 451.651939 
L 206.491 450.499956 
L 208.530288 449.548232 
L 210.569575 444.681044 
L 212.608862 441.361164 
L 214.64815 446.072314 
L 216.687437 446.530154 
L 218.726725 446.341099 
L 220.766012 442.101994 
L 222.805299 440.008443 
L 224.844587 435.69109 
L 226.883874 427.652432 
L 228.923161 431.955498 
L 230.962449 435.330786 
L 233.001736 434.246376 
L 235.041023 441.809004 
L 237.080311 447.144832 
L 239.119598 446.52374 
L 241.158885 437.853148 
L 243.198173 445.182274 
L 245.23746 437.663235 
L 247.276747 434.447273 
L 249.316035 436.975337 
L 251.355322 441.310943 
L 253.394609 438.473173 
L 255.433897 439.855227 
L 257.473184 434.991748 
L 259.512471 419.028157 
L 261.551759 415.388541 
L 263.591046 415.2502 
L 265.630333 410.949934 
L 267.669621 418.917941 
L 269.708908 414.577941 
L 271.748196 417.113362 
L 273.787483 421.982494 
L 275.82677 421.497573 
L 277.866058 427.432943 
L 279.905345 426.015535 
L 281.944632 428.072423 
L 283.98392 426.047335 
L 286.023207 412.271656 
L 288.062494 412.3871 
L 290.101782 416.027588 
L 292.141069 422.6552 
L 294.180356 421.79666 
L 296.219644 422.761419 
L 298.258931 420.440436 
L 300.298218 431.219375 
L 302.337506 437.51262 
L 304.376793 440.235132 
L 306.41608 432.088863 
L 308.455368 434.618216 
L 310.494655 434.566027 
L 312.533942 443.138734 
L 314.57323 437.723194 
L 316.612517 445.756026 
L 318.651804 448.062857 
L 320.691092 439.785676 
L 322.730379 437.999556 
L 324.769667 438.805061 
L 326.808954 442.971363 
L 328.848241 433.551583 
L 330.887529 432.351195 
L 332.926816 423.317509 
L 334.966103 431.696861 
L 337.005391 442.637574 
L 339.044678 433.92941 
L 341.083965 428.884856 
L 343.123253 430.295093 
L 345.16254 428.031904 
L 347.201827 444.523204 
L 349.241115 445.013558 
L 351.280402 438.942203 
L 353.319689 436.534654 
L 355.358977 434.993819 
L 357.398264 436.597454 
L 359.437551 439.005794 
L 361.476839 447.023572 
L 363.516126 442.286071 
L 365.555413 447.614064 
L 367.594701 447.208106 
L 369.633988 447.239866 
L 371.673275 451.588527 
L 373.712563 434.397676 
L 375.75185 430.918806 
L 377.791138 430.311702 
L 379.830425 433.587454 
L 381.869712 436.094242 
L 383.909 429.072162 
L 385.948287 427.416529 
L 387.987574 422.401272 
L 390.026862 432.231498 
L 392.066149 426.264333 
L 394.105436 436.890017 
L 396.144724 435.824883 
L 398.184011 435.769247 
L 400.223298 444.455402 
L 402.262586 452.045184 
L 404.301873 460.428037 
L 406.34116 456.600027 
L 408.380448 457.157505 
L 410.419735 449.303549 
L 412.459022 444.068779 
L 414.49831 443.035047 
L 416.537597 444.866508 
L 418.576884 449.605787 
L 420.616172 451.516852 
L 422.655459 449.942839 
L 424.694746 449.391383 
L 426.734034 456.240244 
L 428.773321 446.191522 
L 430.812608 444.568503 
L 432.851896 452.0424 
L 434.891183 452.795317 
L 436.930471 454.759713 
L 438.969758 458.889229 
L 441.009045 451.701443 
L 443.048333 462.543885 
L 445.08762 472.59295 
L 447.126907 467.389638 
L 449.166195 473.175475 
L 451.205482 482.995509 
L 453.244769 477.057936 
L 455.284057 478.585862 
L 457.323344 484.29652 
L 459.362631 483.821309 
L 461.401919 483.838948 
L 463.441206 485.128579 
L 465.480493 478.681505 
L 467.519781 476.158606 
L 469.559068 472.998955 
L 471.598355 479.202994 
L 473.637643 483.007889 
L 475.67693 479.781071 
L 477.716217 485.381603 
L 479.755505 484.589431 
L 481.794792 477.557907 
L 483.834079 473.875119 
L 487.912654 484.328381 
L 489.951942 485.542012 
L 491.991229 486.541912 
L 494.030516 489.140077 
L 496.069804 490.100245 
L 498.109091 490.442419 
L 498.109091 490.442419 
" clip-path="url(#p6698bd5229)" style="fill: none; stroke: #ff0000; stroke-width: 2; stroke-linecap: square"/>
   </g>
   <g id="patch_15">
    <path d="M 72 512.64 
L 72 382.192941 
" style="fill: none; stroke: #000000; stroke-width: 0.8; stroke-linejoin: miter; stroke-linecap: square"/>
   </g>
   <g id="patch_16">
    <path d="M 518.4 512.64 
L 518.4 382.192941 
" style="fill: none; stroke: #000000; stroke-width: 0.8; stroke-linejoin: miter; stroke-linecap: square"/>
   </g>
   <g id="patch_17">
    <path d="M 72 512.64 
L 518.4 512.64 
" style="fill: none; stroke: #000000; stroke-width: 0.8; stroke-linejoin: miter; stroke-linecap: square"/>
   </g>
   <g id="patch_18">
    <path d="M 72 382.192941 
L 518.4 382.192941 
" style="fill: none; stroke: #000000; stroke-width: 0.8; stroke-linejoin: miter; stroke-linecap: square"/>
   </g>
   <g id="legend_3">
    <g id="patch_19">
     <path d="M 77.831 401.083819 
L 119.251925 401.083819 
Q 120.917925 401.083819 120.917925 399.417819 
L 120.917925 388.023941 
Q 120.917925 386.357941 119.251925 386.357941 
L 77.831 386.357941 
Q 76.165 386.357941 76.165 388.023941 
L 76.165 399.417819 
Q 76.165 401.083819 77.831 401.083819 
z
" style="fill: #ffffff; opacity: 0.5; stroke: #cccccc; stroke-linejoin: miter"/>
    </g>
    <g id="line2d_39">
     <path d="M 79.497 393.10394 
L 87.827 393.10394 
L 96.157 393.10394 
" style="fill: none; stroke: #ff0000; stroke-width: 2; stroke-linecap: square"/>
    </g>
    <g id="text_26">
     <!-- baz -->
     <g transform="translate(102.821 396.01944) scale(0.0833 -0.0833)">
      <defs>
       <path id="DejaVuSans-7a" d="M 353 3500 
L 3084 3500 
L 3084 2975 
L 922 459 
L 3084 459 
L 3084 0 
L 275 0 
L 275 525 
L 2438 3041 
L 353 3041 
L 353 3500 
z
" transform="scale(0.015625)"/>
      </defs>
      <use xlink:href="#DejaVuSans-62"/>
      <use xlink:href="#DejaVuSans-61" x="63.476562"/>
      <use xlink:href="#DejaVuSans-7a" x="124.755859"/>
     </g>
    </g>
   </g>
  </g>
  <g id="text_27">
   <!-- Three Random Trends -->
   <g transform="translate(200.83375 23.6775) scale(0.16 -0.16)">
    <defs>
     <path id="DejaVuSans-54" d="M -19 4666 
L 3928 4666 
L 3928 4134 
L 2272 4134 
L 2272 0 
L 1638 0 
L 1638 4134 
L -19 4134 
L -19 4666 
z
" transform="scale(0.015625)"/>
     <path id="DejaVuSans-68" d="M 3513 2113 
L 3513 0 
L 2938 0 
L 2938 2094 
Q 2938 2591 2744 2837 
Q 2550 3084 2163 3084 
Q 1697 3084 1428 2787 
Q 1159 2491 1159 1978 
L 1159 0 
L 581 0 
L 581 4863 
L 1159 4863 
L 1159 2956 
Q 1366 3272 1645 3428 
Q 1925 3584 2291 3584 
Q 2894 3584 3203 3211 
Q 3513 2838 3513 2113 
z
" transform="scale(0.015625)"/>
     <path id="DejaVuSans-52" d="M 2841 2188 
Q 3044 2119 3236 1894 
Q 3428 1669 3622 1275 
L 4263 0 
L 3584 0 
L 2988 1197 
Q 2756 1666 2539 1819 
Q 2322 1972 1947 1972 
L 1259 1972 
L 1259 0 
L 628 0 
L 628 4666 
L 2053 4666 
Q 2853 4666 3247 4331 
Q 3641 3997 3641 3322 
Q 3641 2881 3436 2590 
Q 3231 2300 2841 2188 
z
M 1259 4147 
L 1259 2491 
L 2053 2491 
Q 2509 2491 2742 2702 
Q 2975 2913 2975 3322 
Q 2975 3731 2742 3939 
Q 2509 4147 2053 4147 
L 1259 4147 
z
" transform="scale(0.015625)"/>
     <path id="DejaVuSans-6e" d="M 3513 2113 
L 3513 0 
L 2938 0 
L 2938 2094 
Q 2938 2591 2744 2837 
Q 2550 3084 2163 3084 
Q 1697 3084 1428 2787 
Q 1159 2491 1159 1978 
L 1159 0 
L 581 0 
L 581 3500 
L 1159 3500 
L 1159 2956 
Q 1366 3272 1645 3428 
Q 1925 3584 2291 3584 
Q 2894 3584 3203 3211 
Q 3513 2838 3513 2113 
z
" transform="scale(0.015625)"/>
     <path id="DejaVuSans-64" d="M 2906 2969 
L 2906 4863 
L 3481 4863 
L 3481 0 
L 2906 0 
L 2906 525 
Q 2725 213 2448 61 
Q 2172 -91 1784 -91 
Q 1150 -91 751 415 
Q 353 922 353 1747 
Q 353 2572 751 3078 
Q 1150 3584 1784 3584 
Q 2172 3584 2448 3432 
Q 2725 3281 2906 2969 
z
M 947 1747 
Q 947 1113 1208 752 
Q 1469 391 1925 391 
Q 2381 391 2643 752 
Q 2906 1113 2906 1747 
Q 2906 2381 2643 2742 
Q 2381 3103 1925 3103 
Q 1469 3103 1208 2742 
Q 947 2381 947 1747 
z
" transform="scale(0.015625)"/>
    </defs>
    <use xlink:href="#DejaVuSans-54"/>
    <use xlink:href="#DejaVuSans-68" x="61.083984"/>
    <use xlink:href="#DejaVuSans-72" x="124.462891"/>
    <use xlink:href="#DejaVuSans-65" x="163.326172"/>
    <use xlink:href="#DejaVuSans-65" x="224.849609"/>
    <use xlink:href="#DejaVuSans-20" x="286.373047"/>
    <use xlink:href="#DejaVuSans-52" x="318.160156"/>
    <use xlink:href="#DejaVuSans-61" x="385.392578"/>
    <use xlink:href="#DejaVuSans-6e" x="446.671875"/>
    <use xlink:href="#DejaVuSans-64" x="510.050781"/>
    <use xlink:href="#DejaVuSans-6f" x="573.527344"/>
    <use xlink:href="#DejaVuSans-6d" x="634.708984"/>
    <use xlink:href="#DejaVuSans-20" x="732.121094"/>
    <use xlink:href="#DejaVuSans-54" x="763.908203"/>
    <use xlink:href="#DejaVuSans-72" x="810.242188"/>
    <use xlink:href="#DejaVuSans-65" x="849.105469"/>
    <use xlink:href="#DejaVuSans-6e" x="910.628906"/>
    <use xlink:href="#DejaVuSans-64" x="974.007812"/>
    <use xlink:href="#DejaVuSans-73" x="1037.484375"/>
   </g>
  </g>
 </g>
 <defs>
  <clipPath id="p30297b0cf4">
   <rect x="72" y="69.12" width="446.4" height="130.447059"/>
  </clipPath>
  <clipPath id="pd4b027726d">
   <rect x="72" y="225.656471" width="446.4" height="130.447059"/>
  </clipPath>
  <clipPath id="p6698bd5229">
   <rect x="72" y="382.192941" width="446.4" height="130.447059"/>
  </clipPath>
 </defs>
</svg>
