<?xml version="1.0" encoding="utf-8" standalone="no"?>
<!DOCTYPE svg PUBLIC "-//W3C//DTD SVG 1.1//EN"
  "http://www.w3.org/Graphics/SVG/1.1/DTD/svg11.dtd">
<svg xmlns:xlink="http://www.w3.org/1999/xlink" width="576pt" height="288pt" viewBox="0 0 576 288" xmlns="http://www.w3.org/2000/svg" version="1.1">
 <metadata>
  <rdf:RDF xmlns:dc="http://purl.org/dc/elements/1.1/" xmlns:cc="http://creativecommons.org/ns#" xmlns:rdf="http://www.w3.org/1999/02/22-rdf-syntax-ns#">
   <cc:Work>
    <dc:type rdf:resource="http://purl.org/dc/dcmitype/StillImage"/>
    <dc:date>2023-11-23T20:03:07.249530</dc:date>
    <dc:format>image/svg+xml</dc:format>
    <dc:creator>
     <cc:Agent>
      <dc:title>Matplotlib v3.8.1, https://matplotlib.org/</dc:title>
     </cc:Agent>
    </dc:creator>
   </cc:Work>
  </rdf:RDF>
 </metadata>
 <defs>
  <style type="text/css">*{stroke-linejoin: round; stroke-linecap: butt}</style>
 </defs>
 <g id="figure_1">
  <g id="patch_1">
   <path d="M 0 288 
L 576 288 
L 576 0 
L 0 0 
z
" style="fill: #ffffff"/>
  </g>
  <g id="axes_1">
   <g id="patch_2">
    <path d="M 52.94 246.04 
L 565.2 246.04 
L 565.2 26.88 
L 52.94 26.88 
z
" style="fill: #ffffff"/>
   </g>
   <g id="matplotlib.axis_1">
    <g id="xtick_1">
     <g id="line2d_1">
      <path d="M 78.564701 246.04 
L 78.564701 26.88 
" clip-path="url(#p147b3957ed)" style="fill: none; stroke: #b0b0b0; stroke-width: 0.8; stroke-linecap: square"/>
     </g>
     <g id="line2d_2">
      <defs>
       <path id="m55295d243e" d="M 0 0 
L 0 3.5 
" style="stroke: #000000; stroke-width: 0.8"/>
      </defs>
      <g>
       <use xlink:href="#m55295d243e" x="78.564701" y="246.04" style="stroke: #000000; stroke-width: 0.8"/>
      </g>
     </g>
     <g id="text_1">
      <!-- 2024-01 -->
      <g transform="translate(57.673295 260.638438) scale(0.1 -0.1)">
       <defs>
        <path id="DejaVuSans-32" d="M 1228 531 
L 3431 531 
L 3431 0 
L 469 0 
L 469 531 
Q 828 903 1448 1529 
Q 2069 2156 2228 2338 
Q 2531 2678 2651 2914 
Q 2772 3150 2772 3378 
Q 2772 3750 2511 3984 
Q 2250 4219 1831 4219 
Q 1534 4219 1204 4116 
Q 875 4013 500 3803 
L 500 4441 
Q 881 4594 1212 4672 
Q 1544 4750 1819 4750 
Q 2544 4750 2975 4387 
Q 3406 4025 3406 3419 
Q 3406 3131 3298 2873 
Q 3191 2616 2906 2266 
Q 2828 2175 2409 1742 
Q 1991 1309 1228 531 
z
" transform="scale(0.015625)"/>
        <path id="DejaVuSans-30" d="M 2034 4250 
Q 1547 4250 1301 3770 
Q 1056 3291 1056 2328 
Q 1056 1369 1301 889 
Q 1547 409 2034 409 
Q 2525 409 2770 889 
Q 3016 1369 3016 2328 
Q 3016 3291 2770 3770 
Q 2525 4250 2034 4250 
z
M 2034 4750 
Q 2819 4750 3233 4129 
Q 3647 3509 3647 2328 
Q 3647 1150 3233 529 
Q 2819 -91 2034 -91 
Q 1250 -91 836 529 
Q 422 1150 422 2328 
Q 422 3509 836 4129 
Q 1250 4750 2034 4750 
z
" transform="scale(0.015625)"/>
        <path id="DejaVuSans-34" d="M 2419 4116 
L 825 1625 
L 2419 1625 
L 2419 4116 
z
M 2253 4666 
L 3047 4666 
L 3047 1625 
L 3713 1625 
L 3713 1100 
L 3047 1100 
L 3047 0 
L 2419 0 
L 2419 1100 
L 313 1100 
L 313 1709 
L 2253 4666 
z
" transform="scale(0.015625)"/>
        <path id="DejaVuSans-2d" d="M 313 2009 
L 1997 2009 
L 1997 1497 
L 313 1497 
L 313 2009 
z
" transform="scale(0.015625)"/>
        <path id="DejaVuSans-31" d="M 794 531 
L 1825 531 
L 1825 4091 
L 703 3866 
L 703 4441 
L 1819 4666 
L 2450 4666 
L 2450 531 
L 3481 531 
L 3481 0 
L 794 0 
L 794 531 
z
" transform="scale(0.015625)"/>
       </defs>
       <use xlink:href="#DejaVuSans-32"/>
       <use xlink:href="#DejaVuSans-30" x="63.623047"/>
       <use xlink:href="#DejaVuSans-32" x="127.246094"/>
       <use xlink:href="#DejaVuSans-34" x="190.869141"/>
       <use xlink:href="#DejaVuSans-2d" x="254.492188"/>
       <use xlink:href="#DejaVuSans-30" x="290.576172"/>
       <use xlink:href="#DejaVuSans-31" x="354.199219"/>
      </g>
     </g>
    </g>
    <g id="xtick_2">
     <g id="line2d_3">
      <path d="M 151.109516 246.04 
L 151.109516 26.88 
" clip-path="url(#p147b3957ed)" style="fill: none; stroke: #b0b0b0; stroke-width: 0.8; stroke-linecap: square"/>
     </g>
     <g id="line2d_4">
      <g>
       <use xlink:href="#m55295d243e" x="151.109516" y="246.04" style="stroke: #000000; stroke-width: 0.8"/>
      </g>
     </g>
     <g id="text_2">
      <!-- 2024-02 -->
      <g transform="translate(130.21811 260.638438) scale(0.1 -0.1)">
       <use xlink:href="#DejaVuSans-32"/>
       <use xlink:href="#DejaVuSans-30" x="63.623047"/>
       <use xlink:href="#DejaVuSans-32" x="127.246094"/>
       <use xlink:href="#DejaVuSans-34" x="190.869141"/>
       <use xlink:href="#DejaVuSans-2d" x="254.492188"/>
       <use xlink:href="#DejaVuSans-30" x="290.576172"/>
       <use xlink:href="#DejaVuSans-32" x="354.199219"/>
      </g>
     </g>
    </g>
    <g id="xtick_3">
     <g id="line2d_5">
      <path d="M 218.97402 246.04 
L 218.97402 26.88 
" clip-path="url(#p147b3957ed)" style="fill: none; stroke: #b0b0b0; stroke-width: 0.8; stroke-linecap: square"/>
     </g>
     <g id="line2d_6">
      <g>
       <use xlink:href="#m55295d243e" x="218.97402" y="246.04" style="stroke: #000000; stroke-width: 0.8"/>
      </g>
     </g>
     <g id="text_3">
      <!-- 2024-03 -->
      <g transform="translate(198.082614 260.638438) scale(0.1 -0.1)">
       <defs>
        <path id="DejaVuSans-33" d="M 2597 2516 
Q 3050 2419 3304 2112 
Q 3559 1806 3559 1356 
Q 3559 666 3084 287 
Q 2609 -91 1734 -91 
Q 1441 -91 1130 -33 
Q 819 25 488 141 
L 488 750 
Q 750 597 1062 519 
Q 1375 441 1716 441 
Q 2309 441 2620 675 
Q 2931 909 2931 1356 
Q 2931 1769 2642 2001 
Q 2353 2234 1838 2234 
L 1294 2234 
L 1294 2753 
L 1863 2753 
Q 2328 2753 2575 2939 
Q 2822 3125 2822 3475 
Q 2822 3834 2567 4026 
Q 2313 4219 1838 4219 
Q 1578 4219 1281 4162 
Q 984 4106 628 3988 
L 628 4550 
Q 988 4650 1302 4700 
Q 1616 4750 1894 4750 
Q 2613 4750 3031 4423 
Q 3450 4097 3450 3541 
Q 3450 3153 3228 2886 
Q 3006 2619 2597 2516 
z
" transform="scale(0.015625)"/>
       </defs>
       <use xlink:href="#DejaVuSans-32"/>
       <use xlink:href="#DejaVuSans-30" x="63.623047"/>
       <use xlink:href="#DejaVuSans-32" x="127.246094"/>
       <use xlink:href="#DejaVuSans-34" x="190.869141"/>
       <use xlink:href="#DejaVuSans-2d" x="254.492188"/>
       <use xlink:href="#DejaVuSans-30" x="290.576172"/>
       <use xlink:href="#DejaVuSans-33" x="354.199219"/>
      </g>
     </g>
    </g>
    <g id="xtick_4">
     <g id="line2d_7">
      <path d="M 291.518835 246.04 
L 291.518835 26.88 
" clip-path="url(#p147b3957ed)" style="fill: none; stroke: #b0b0b0; stroke-width: 0.8; stroke-linecap: square"/>
     </g>
     <g id="line2d_8">
      <g>
       <use xlink:href="#m55295d243e" x="291.518835" y="246.04" style="stroke: #000000; stroke-width: 0.8"/>
      </g>
     </g>
     <g id="text_4">
      <!-- 2024-04 -->
      <g transform="translate(270.627429 260.638438) scale(0.1 -0.1)">
       <use xlink:href="#DejaVuSans-32"/>
       <use xlink:href="#DejaVuSans-30" x="63.623047"/>
       <use xlink:href="#DejaVuSans-32" x="127.246094"/>
       <use xlink:href="#DejaVuSans-34" x="190.869141"/>
       <use xlink:href="#DejaVuSans-2d" x="254.492188"/>
       <use xlink:href="#DejaVuSans-30" x="290.576172"/>
       <use xlink:href="#DejaVuSans-34" x="354.199219"/>
      </g>
     </g>
    </g>
    <g id="xtick_5">
     <g id="line2d_9">
      <path d="M 361.723495 246.04 
L 361.723495 26.88 
" clip-path="url(#p147b3957ed)" style="fill: none; stroke: #b0b0b0; stroke-width: 0.8; stroke-linecap: square"/>
     </g>
     <g id="line2d_10">
      <g>
       <use xlink:href="#m55295d243e" x="361.723495" y="246.04" style="stroke: #000000; stroke-width: 0.8"/>
      </g>
     </g>
     <g id="text_5">
      <!-- 2024-05 -->
      <g transform="translate(340.832088 260.638438) scale(0.1 -0.1)">
       <defs>
        <path id="DejaVuSans-35" d="M 691 4666 
L 3169 4666 
L 3169 4134 
L 1269 4134 
L 1269 2991 
Q 1406 3038 1543 3061 
Q 1681 3084 1819 3084 
Q 2600 3084 3056 2656 
Q 3513 2228 3513 1497 
Q 3513 744 3044 326 
Q 2575 -91 1722 -91 
Q 1428 -91 1123 -41 
Q 819 9 494 109 
L 494 744 
Q 775 591 1075 516 
Q 1375 441 1709 441 
Q 2250 441 2565 725 
Q 2881 1009 2881 1497 
Q 2881 1984 2565 2268 
Q 2250 2553 1709 2553 
Q 1456 2553 1204 2497 
Q 953 2441 691 2322 
L 691 4666 
z
" transform="scale(0.015625)"/>
       </defs>
       <use xlink:href="#DejaVuSans-32"/>
       <use xlink:href="#DejaVuSans-30" x="63.623047"/>
       <use xlink:href="#DejaVuSans-32" x="127.246094"/>
       <use xlink:href="#DejaVuSans-34" x="190.869141"/>
       <use xlink:href="#DejaVuSans-2d" x="254.492188"/>
       <use xlink:href="#DejaVuSans-30" x="290.576172"/>
       <use xlink:href="#DejaVuSans-35" x="354.199219"/>
      </g>
     </g>
    </g>
    <g id="xtick_6">
     <g id="line2d_11">
      <path d="M 434.26831 246.04 
L 434.26831 26.88 
" clip-path="url(#p147b3957ed)" style="fill: none; stroke: #b0b0b0; stroke-width: 0.8; stroke-linecap: square"/>
     </g>
     <g id="line2d_12">
      <g>
       <use xlink:href="#m55295d243e" x="434.26831" y="246.04" style="stroke: #000000; stroke-width: 0.8"/>
      </g>
     </g>
     <g id="text_6">
      <!-- 2024-06 -->
      <g transform="translate(413.376903 260.638438) scale(0.1 -0.1)">
       <defs>
        <path id="DejaVuSans-36" d="M 2113 2584 
Q 1688 2584 1439 2293 
Q 1191 2003 1191 1497 
Q 1191 994 1439 701 
Q 1688 409 2113 409 
Q 2538 409 2786 701 
Q 3034 994 3034 1497 
Q 3034 2003 2786 2293 
Q 2538 2584 2113 2584 
z
M 3366 4563 
L 3366 3988 
Q 3128 4100 2886 4159 
Q 2644 4219 2406 4219 
Q 1781 4219 1451 3797 
Q 1122 3375 1075 2522 
Q 1259 2794 1537 2939 
Q 1816 3084 2150 3084 
Q 2853 3084 3261 2657 
Q 3669 2231 3669 1497 
Q 3669 778 3244 343 
Q 2819 -91 2113 -91 
Q 1303 -91 875 529 
Q 447 1150 447 2328 
Q 447 3434 972 4092 
Q 1497 4750 2381 4750 
Q 2619 4750 2861 4703 
Q 3103 4656 3366 4563 
z
" transform="scale(0.015625)"/>
       </defs>
       <use xlink:href="#DejaVuSans-32"/>
       <use xlink:href="#DejaVuSans-30" x="63.623047"/>
       <use xlink:href="#DejaVuSans-32" x="127.246094"/>
       <use xlink:href="#DejaVuSans-34" x="190.869141"/>
       <use xlink:href="#DejaVuSans-2d" x="254.492188"/>
       <use xlink:href="#DejaVuSans-30" x="290.576172"/>
       <use xlink:href="#DejaVuSans-36" x="354.199219"/>
      </g>
     </g>
    </g>
    <g id="xtick_7">
     <g id="line2d_13">
      <path d="M 504.472969 246.04 
L 504.472969 26.88 
" clip-path="url(#p147b3957ed)" style="fill: none; stroke: #b0b0b0; stroke-width: 0.8; stroke-linecap: square"/>
     </g>
     <g id="line2d_14">
      <g>
       <use xlink:href="#m55295d243e" x="504.472969" y="246.04" style="stroke: #000000; stroke-width: 0.8"/>
      </g>
     </g>
     <g id="text_7">
      <!-- 2024-07 -->
      <g transform="translate(483.581563 260.638438) scale(0.1 -0.1)">
       <defs>
        <path id="DejaVuSans-37" d="M 525 4666 
L 3525 4666 
L 3525 4397 
L 1831 0 
L 1172 0 
L 2766 4134 
L 525 4134 
L 525 4666 
z
" transform="scale(0.015625)"/>
       </defs>
       <use xlink:href="#DejaVuSans-32"/>
       <use xlink:href="#DejaVuSans-30" x="63.623047"/>
       <use xlink:href="#DejaVuSans-32" x="127.246094"/>
       <use xlink:href="#DejaVuSans-34" x="190.869141"/>
       <use xlink:href="#DejaVuSans-2d" x="254.492188"/>
       <use xlink:href="#DejaVuSans-30" x="290.576172"/>
       <use xlink:href="#DejaVuSans-37" x="354.199219"/>
      </g>
     </g>
    </g>
    <g id="text_8">
     <!-- Date -->
     <g transform="translate(297.119219 274.316562) scale(0.1 -0.1)">
      <defs>
       <path id="DejaVuSans-44" d="M 1259 4147 
L 1259 519 
L 2022 519 
Q 2988 519 3436 956 
Q 3884 1394 3884 2338 
Q 3884 3275 3436 3711 
Q 2988 4147 2022 4147 
L 1259 4147 
z
M 628 4666 
L 1925 4666 
Q 3281 4666 3915 4102 
Q 4550 3538 4550 2338 
Q 4550 1131 3912 565 
Q 3275 0 1925 0 
L 628 0 
L 628 4666 
z
" transform="scale(0.015625)"/>
       <path id="DejaVuSans-61" d="M 2194 1759 
Q 1497 1759 1228 1600 
Q 959 1441 959 1056 
Q 959 750 1161 570 
Q 1363 391 1709 391 
Q 2188 391 2477 730 
Q 2766 1069 2766 1631 
L 2766 1759 
L 2194 1759 
z
M 3341 1997 
L 3341 0 
L 2766 0 
L 2766 531 
Q 2569 213 2275 61 
Q 1981 -91 1556 -91 
Q 1019 -91 701 211 
Q 384 513 384 1019 
Q 384 1609 779 1909 
Q 1175 2209 1959 2209 
L 2766 2209 
L 2766 2266 
Q 2766 2663 2505 2880 
Q 2244 3097 1772 3097 
Q 1472 3097 1187 3025 
Q 903 2953 641 2809 
L 641 3341 
Q 956 3463 1253 3523 
Q 1550 3584 1831 3584 
Q 2591 3584 2966 3190 
Q 3341 2797 3341 1997 
z
" transform="scale(0.015625)"/>
       <path id="DejaVuSans-74" d="M 1172 4494 
L 1172 3500 
L 2356 3500 
L 2356 3053 
L 1172 3053 
L 1172 1153 
Q 1172 725 1289 603 
Q 1406 481 1766 481 
L 2356 481 
L 2356 0 
L 1766 0 
Q 1100 0 847 248 
Q 594 497 594 1153 
L 594 3053 
L 172 3053 
L 172 3500 
L 594 3500 
L 594 4494 
L 1172 4494 
z
" transform="scale(0.015625)"/>
       <path id="DejaVuSans-65" d="M 3597 1894 
L 3597 1613 
L 953 1613 
Q 991 1019 1311 708 
Q 1631 397 2203 397 
Q 2534 397 2845 478 
Q 3156 559 3463 722 
L 3463 178 
Q 3153 47 2828 -22 
Q 2503 -91 2169 -91 
Q 1331 -91 842 396 
Q 353 884 353 1716 
Q 353 2575 817 3079 
Q 1281 3584 2069 3584 
Q 2775 3584 3186 3129 
Q 3597 2675 3597 1894 
z
M 3022 2063 
Q 3016 2534 2758 2815 
Q 2500 3097 2075 3097 
Q 1594 3097 1305 2825 
Q 1016 2553 972 2059 
L 3022 2063 
z
" transform="scale(0.015625)"/>
      </defs>
      <use xlink:href="#DejaVuSans-44"/>
      <use xlink:href="#DejaVuSans-61" x="77.001953"/>
      <use xlink:href="#DejaVuSans-74" x="138.28125"/>
      <use xlink:href="#DejaVuSans-65" x="177.490234"/>
     </g>
    </g>
   </g>
   <g id="matplotlib.axis_2">
    <g id="ytick_1">
     <g id="line2d_15">
      <path d="M 52.94 245.756655 
L 565.2 245.756655 
" clip-path="url(#p147b3957ed)" style="fill: none; stroke: #b0b0b0; stroke-width: 0.8; stroke-linecap: square"/>
     </g>
     <g id="line2d_16">
      <defs>
       <path id="ma36a05b65b" d="M 0 0 
L -3.5 0 
" style="stroke: #000000; stroke-width: 0.8"/>
      </defs>
      <g>
       <use xlink:href="#ma36a05b65b" x="52.94" y="245.756655" style="stroke: #000000; stroke-width: 0.8"/>
      </g>
     </g>
     <g id="text_9">
      <!-- −20 -->
      <g transform="translate(24.835313 249.555874) scale(0.1 -0.1)">
       <defs>
        <path id="DejaVuSans-2212" d="M 678 2272 
L 4684 2272 
L 4684 1741 
L 678 1741 
L 678 2272 
z
" transform="scale(0.015625)"/>
       </defs>
       <use xlink:href="#DejaVuSans-2212"/>
       <use xlink:href="#DejaVuSans-32" x="83.789062"/>
       <use xlink:href="#DejaVuSans-30" x="147.412109"/>
      </g>
     </g>
    </g>
    <g id="ytick_2">
     <g id="line2d_17">
      <path d="M 52.94 203.347033 
L 565.2 203.347033 
" clip-path="url(#p147b3957ed)" style="fill: none; stroke: #b0b0b0; stroke-width: 0.8; stroke-linecap: square"/>
     </g>
     <g id="line2d_18">
      <g>
       <use xlink:href="#ma36a05b65b" x="52.94" y="203.347033" style="stroke: #000000; stroke-width: 0.8"/>
      </g>
     </g>
     <g id="text_10">
      <!-- −10 -->
      <g transform="translate(24.835313 207.146252) scale(0.1 -0.1)">
       <use xlink:href="#DejaVuSans-2212"/>
       <use xlink:href="#DejaVuSans-31" x="83.789062"/>
       <use xlink:href="#DejaVuSans-30" x="147.412109"/>
      </g>
     </g>
    </g>
    <g id="ytick_3">
     <g id="line2d_19">
      <path d="M 52.94 160.937411 
L 565.2 160.937411 
" clip-path="url(#p147b3957ed)" style="fill: none; stroke: #b0b0b0; stroke-width: 0.8; stroke-linecap: square"/>
     </g>
     <g id="line2d_20">
      <g>
       <use xlink:href="#ma36a05b65b" x="52.94" y="160.937411" style="stroke: #000000; stroke-width: 0.8"/>
      </g>
     </g>
     <g id="text_11">
      <!-- 0 -->
      <g transform="translate(39.5775 164.73663) scale(0.1 -0.1)">
       <use xlink:href="#DejaVuSans-30"/>
      </g>
     </g>
    </g>
    <g id="ytick_4">
     <g id="line2d_21">
      <path d="M 52.94 118.527789 
L 565.2 118.527789 
" clip-path="url(#p147b3957ed)" style="fill: none; stroke: #b0b0b0; stroke-width: 0.8; stroke-linecap: square"/>
     </g>
     <g id="line2d_22">
      <g>
       <use xlink:href="#ma36a05b65b" x="52.94" y="118.527789" style="stroke: #000000; stroke-width: 0.8"/>
      </g>
     </g>
     <g id="text_12">
      <!-- 10 -->
      <g transform="translate(33.215 122.327008) scale(0.1 -0.1)">
       <use xlink:href="#DejaVuSans-31"/>
       <use xlink:href="#DejaVuSans-30" x="63.623047"/>
      </g>
     </g>
    </g>
    <g id="ytick_5">
     <g id="line2d_23">
      <path d="M 52.94 76.118167 
L 565.2 76.118167 
" clip-path="url(#p147b3957ed)" style="fill: none; stroke: #b0b0b0; stroke-width: 0.8; stroke-linecap: square"/>
     </g>
     <g id="line2d_24">
      <g>
       <use xlink:href="#ma36a05b65b" x="52.94" y="76.118167" style="stroke: #000000; stroke-width: 0.8"/>
      </g>
     </g>
     <g id="text_13">
      <!-- 20 -->
      <g transform="translate(33.215 79.917386) scale(0.1 -0.1)">
       <use xlink:href="#DejaVuSans-32"/>
       <use xlink:href="#DejaVuSans-30" x="63.623047"/>
      </g>
     </g>
    </g>
    <g id="ytick_6">
     <g id="line2d_25">
      <path d="M 52.94 33.708545 
L 565.2 33.708545 
" clip-path="url(#p147b3957ed)" style="fill: none; stroke: #b0b0b0; stroke-width: 0.8; stroke-linecap: square"/>
     </g>
     <g id="line2d_26">
      <g>
       <use xlink:href="#ma36a05b65b" x="52.94" y="33.708545" style="stroke: #000000; stroke-width: 0.8"/>
      </g>
     </g>
     <g id="text_14">
      <!-- 30 -->
      <g transform="translate(33.215 37.507764) scale(0.1 -0.1)">
       <use xlink:href="#DejaVuSans-33"/>
       <use xlink:href="#DejaVuSans-30" x="63.623047"/>
      </g>
     </g>
    </g>
    <g id="text_15">
     <!-- Cum. sum -->
     <g transform="translate(18.755625 161.812344) rotate(-90) scale(0.1 -0.1)">
      <defs>
       <path id="DejaVuSans-43" d="M 4122 4306 
L 4122 3641 
Q 3803 3938 3442 4084 
Q 3081 4231 2675 4231 
Q 1875 4231 1450 3742 
Q 1025 3253 1025 2328 
Q 1025 1406 1450 917 
Q 1875 428 2675 428 
Q 3081 428 3442 575 
Q 3803 722 4122 1019 
L 4122 359 
Q 3791 134 3420 21 
Q 3050 -91 2638 -91 
Q 1578 -91 968 557 
Q 359 1206 359 2328 
Q 359 3453 968 4101 
Q 1578 4750 2638 4750 
Q 3056 4750 3426 4639 
Q 3797 4528 4122 4306 
z
" transform="scale(0.015625)"/>
       <path id="DejaVuSans-75" d="M 544 1381 
L 544 3500 
L 1119 3500 
L 1119 1403 
Q 1119 906 1312 657 
Q 1506 409 1894 409 
Q 2359 409 2629 706 
Q 2900 1003 2900 1516 
L 2900 3500 
L 3475 3500 
L 3475 0 
L 2900 0 
L 2900 538 
Q 2691 219 2414 64 
Q 2138 -91 1772 -91 
Q 1169 -91 856 284 
Q 544 659 544 1381 
z
M 1991 3584 
L 1991 3584 
z
" transform="scale(0.015625)"/>
       <path id="DejaVuSans-6d" d="M 3328 2828 
Q 3544 3216 3844 3400 
Q 4144 3584 4550 3584 
Q 5097 3584 5394 3201 
Q 5691 2819 5691 2113 
L 5691 0 
L 5113 0 
L 5113 2094 
Q 5113 2597 4934 2840 
Q 4756 3084 4391 3084 
Q 3944 3084 3684 2787 
Q 3425 2491 3425 1978 
L 3425 0 
L 2847 0 
L 2847 2094 
Q 2847 2600 2669 2842 
Q 2491 3084 2119 3084 
Q 1678 3084 1418 2786 
Q 1159 2488 1159 1978 
L 1159 0 
L 581 0 
L 581 3500 
L 1159 3500 
L 1159 2956 
Q 1356 3278 1631 3431 
Q 1906 3584 2284 3584 
Q 2666 3584 2933 3390 
Q 3200 3197 3328 2828 
z
" transform="scale(0.015625)"/>
       <path id="DejaVuSans-2e" d="M 684 794 
L 1344 794 
L 1344 0 
L 684 0 
L 684 794 
z
" transform="scale(0.015625)"/>
       <path id="DejaVuSans-20" transform="scale(0.015625)"/>
       <path id="DejaVuSans-73" d="M 2834 3397 
L 2834 2853 
Q 2591 2978 2328 3040 
Q 2066 3103 1784 3103 
Q 1356 3103 1142 2972 
Q 928 2841 928 2578 
Q 928 2378 1081 2264 
Q 1234 2150 1697 2047 
L 1894 2003 
Q 2506 1872 2764 1633 
Q 3022 1394 3022 966 
Q 3022 478 2636 193 
Q 2250 -91 1575 -91 
Q 1294 -91 989 -36 
Q 684 19 347 128 
L 347 722 
Q 666 556 975 473 
Q 1284 391 1588 391 
Q 1994 391 2212 530 
Q 2431 669 2431 922 
Q 2431 1156 2273 1281 
Q 2116 1406 1581 1522 
L 1381 1569 
Q 847 1681 609 1914 
Q 372 2147 372 2553 
Q 372 3047 722 3315 
Q 1072 3584 1716 3584 
Q 2034 3584 2315 3537 
Q 2597 3491 2834 3397 
z
" transform="scale(0.015625)"/>
      </defs>
      <use xlink:href="#DejaVuSans-43"/>
      <use xlink:href="#DejaVuSans-75" x="69.824219"/>
      <use xlink:href="#DejaVuSans-6d" x="133.203125"/>
      <use xlink:href="#DejaVuSans-2e" x="230.615234"/>
      <use xlink:href="#DejaVuSans-20" x="262.402344"/>
      <use xlink:href="#DejaVuSans-73" x="294.189453"/>
      <use xlink:href="#DejaVuSans-75" x="346.289062"/>
      <use xlink:href="#DejaVuSans-6d" x="409.667969"/>
     </g>
    </g>
   </g>
   <g id="line2d_27">
    <path d="M 76.224545 158.851314 
L 78.564701 158.996996 
L 83.245011 154.815218 
L 85.585167 151.267033 
L 87.925322 154.425914 
L 90.265477 156.435079 
L 94.945788 165.358912 
L 99.626099 162.48635 
L 101.966254 165.359077 
L 104.306409 172.064449 
L 106.646565 160.326378 
L 108.98672 155.013484 
L 111.326875 150.353971 
L 113.667031 150.849418 
L 116.007186 148.373403 
L 118.347341 145.091374 
L 120.687497 144.276566 
L 123.027652 147.589302 
L 125.367807 147.919325 
L 127.707963 147.106427 
L 130.048118 137.287647 
L 132.388273 140.59051 
L 134.728429 138.39429 
L 137.068584 142.351266 
L 139.408739 137.339086 
L 141.748894 135.309497 
L 144.08905 127.692181 
L 146.429205 128.467009 
L 148.76936 127.391254 
L 151.109516 124.362192 
L 153.449671 122.872544 
L 155.789826 118.70527 
L 158.129982 116.767154 
L 160.470137 118.222462 
L 162.810292 117.231768 
L 165.150448 123.964489 
L 167.490603 121.238758 
L 169.830758 116.658234 
L 172.170914 116.41824 
L 174.511069 120.00157 
L 176.851224 122.631056 
L 179.19138 124.175038 
L 181.531535 118.550824 
L 183.87169 120.240012 
L 186.211846 117.371232 
L 188.552001 115.364435 
L 190.892156 112.371269 
L 193.232312 106.441959 
L 195.572467 102.769976 
L 197.912622 104.175769 
L 200.252778 101.578063 
L 202.592933 95.945606 
L 204.933088 89.584231 
L 207.273243 91.468567 
L 209.613399 90.43153 
L 211.953554 86.709677 
L 214.293709 87.764679 
L 216.633865 92.538221 
L 218.97402 89.137328 
L 221.314175 88.568055 
L 223.654331 89.4094 
L 225.994486 85.676743 
L 228.334641 82.498244 
L 230.674797 78.856754 
L 233.014952 82.838686 
L 235.355107 80.132685 
L 240.035418 89.499552 
L 242.375573 89.153169 
L 244.715729 91.588101 
L 247.055884 83.765615 
L 249.396039 82.310223 
L 251.736195 81.871913 
L 254.07635 85.489079 
L 256.416505 89.900664 
L 258.756661 99.297433 
L 261.096816 93.212453 
L 263.436971 87.692089 
L 265.777127 84.034674 
L 268.117282 85.849702 
L 270.457437 78.221806 
L 272.797593 71.040458 
L 275.137748 64.871627 
L 277.477903 61.57719 
L 279.818058 57.720083 
L 282.158214 70.737415 
L 284.498369 72.30821 
L 286.838524 72.593702 
L 289.17868 71.712335 
L 291.518835 66.455901 
L 293.85899 70.370405 
L 296.199146 70.641828 
L 298.539301 73.556167 
L 300.879456 72.468392 
L 303.219612 75.790529 
L 305.559767 69.944207 
L 307.899922 71.17858 
L 310.240078 67.944362 
L 312.580233 67.614844 
L 314.920388 60.057724 
L 317.260544 61.388066 
L 319.600699 66.308747 
L 321.940854 69.506267 
L 324.28101 69.374777 
L 326.621165 69.51014 
L 328.96132 71.089453 
L 331.301476 72.481216 
L 333.641631 73.45229 
L 335.981786 74.009128 
L 338.321942 67.388965 
L 340.662097 70.150856 
L 343.002252 71.625125 
L 345.342407 60.840366 
L 347.682563 62.242411 
L 350.022718 60.521839 
L 352.362873 60.098119 
L 354.703029 63.293107 
L 357.043184 69.108722 
L 359.383339 67.035074 
L 361.723495 70.10657 
L 364.06365 72.175333 
L 366.403805 68.740704 
L 368.743961 70.796095 
L 371.084116 66.750965 
L 373.424271 72.934516 
L 375.764427 64.885031 
L 378.104582 60.248321 
L 380.444737 57.646486 
L 382.784893 60.997217 
L 385.125048 58.811294 
L 387.465203 52.48313 
L 389.805359 47.949986 
L 392.145514 51.318009 
L 394.485669 44.51059 
L 396.825825 45.313989 
L 399.16598 45.076838 
L 401.506135 55.755477 
L 403.846291 57.925561 
L 406.186446 63.181253 
L 408.526601 59.761355 
L 410.866757 59.532711 
L 413.206912 60.890526 
L 415.547067 57.081193 
L 417.887222 57.958821 
L 420.227378 54.987905 
L 422.567533 57.790503 
L 424.907688 48.333638 
L 427.247844 45.832382 
L 429.587999 46.580563 
L 431.928154 41.510667 
L 434.26831 47.796582 
L 436.608465 49.040043 
L 438.94862 45.13137 
L 441.288776 52.909654 
L 443.628931 54.895668 
L 445.969086 59.199158 
L 448.309242 59.21013 
L 450.649397 58.44203 
L 452.989552 53.615142 
L 455.329708 53.791101 
L 457.669863 54.465409 
L 460.010018 55.290691 
L 462.350174 55.482572 
L 464.690329 52.719892 
L 467.030484 43.3084 
L 469.37064 40.994932 
L 471.710795 49.446378 
L 474.05095 51.758455 
L 476.391106 50.264802 
L 478.731261 52.219986 
L 481.071416 47.095225 
L 483.411571 48.262509 
L 485.751727 52.330836 
L 488.091882 44.770978 
L 490.432037 48.485038 
L 492.772193 49.303875 
L 495.112348 46.683004 
L 497.452503 46.002896 
L 499.792659 47.064916 
L 502.132814 46.123974 
L 504.472969 36.841818 
L 509.15328 38.887024 
L 511.493435 44.817898 
L 513.833591 41.593535 
L 516.173746 45.074076 
L 518.513901 40.71753 
L 520.854057 45.346329 
L 523.194212 45.137765 
L 525.534367 50.970732 
L 527.874523 43.522425 
L 530.214678 41.723204 
L 532.554833 44.86581 
L 534.894989 51.032933 
L 537.235144 55.542107 
L 539.575299 65.868292 
L 541.915455 60.204294 
L 541.915455 60.204294 
" clip-path="url(#p147b3957ed)" style="fill: none; stroke: #1f77b4; stroke-width: 1.5; stroke-linecap: square"/>
   </g>
   <g id="line2d_28">
    <path d="M 76.224545 162.491577 
L 78.564701 164.003061 
L 80.904856 166.049814 
L 83.245011 162.771362 
L 85.585167 168.842711 
L 87.925322 166.168216 
L 90.265477 168.063329 
L 92.605633 168.948902 
L 94.945788 175.365117 
L 97.285943 170.766359 
L 99.626099 170.568344 
L 101.966254 174.319503 
L 104.306409 172.793038 
L 106.646565 175.831022 
L 108.98672 178.089672 
L 111.326875 169.792275 
L 113.667031 169.24857 
L 116.007186 174.525725 
L 118.347341 165.860539 
L 120.687497 159.062208 
L 123.027652 161.287166 
L 125.367807 162.719689 
L 127.707963 166.269964 
L 132.388273 163.372722 
L 134.728429 159.727322 
L 137.068584 164.083395 
L 139.408739 167.314005 
L 141.748894 166.855177 
L 144.08905 169.288563 
L 146.429205 165.464911 
L 148.76936 170.46645 
L 151.109516 163.34622 
L 153.449671 168.350662 
L 155.789826 167.200996 
L 158.129982 169.73888 
L 160.470137 164.454973 
L 162.810292 169.402254 
L 165.150448 172.161608 
L 167.490603 171.388999 
L 169.830758 176.282271 
L 172.170914 180.719224 
L 174.511069 182.923914 
L 176.851224 176.47981 
L 179.19138 168.404835 
L 181.531535 172.034076 
L 183.87169 173.549331 
L 186.211846 172.403066 
L 188.552001 175.894609 
L 190.892156 175.777497 
L 193.232312 181.975644 
L 195.572467 182.580856 
L 197.912622 180.563012 
L 200.252778 182.767372 
L 202.592933 182.372097 
L 204.933088 180.139184 
L 207.273243 180.491661 
L 209.613399 188.321129 
L 211.953554 188.040009 
L 214.293709 180.88995 
L 216.633865 182.966734 
L 218.97402 190.092447 
L 221.314175 193.588696 
L 223.654331 195.360235 
L 225.994486 203.226156 
L 228.334641 199.017867 
L 230.674797 195.691862 
L 233.014952 197.289685 
L 235.355107 201.250166 
L 237.695263 202.42761 
L 240.035418 198.819995 
L 242.375573 191.846956 
L 244.715729 196.426445 
L 247.055884 192.468693 
L 249.396039 192.661931 
L 251.736195 192.639465 
L 254.07635 189.52187 
L 256.416505 193.948817 
L 258.756661 194.133036 
L 261.096816 194.084369 
L 263.436971 193.298971 
L 265.777127 197.723825 
L 268.117282 194.929961 
L 270.457437 189.565747 
L 272.797593 191.768029 
L 275.137748 196.304798 
L 277.477903 198.126451 
L 279.818058 196.415573 
L 282.158214 198.087574 
L 284.498369 194.853888 
L 286.838524 191.172031 
L 289.17868 193.813451 
L 291.518835 189.991146 
L 293.85899 189.189938 
L 296.199146 200.337081 
L 298.539301 203.751353 
L 300.879456 200.824513 
L 303.219612 201.73681 
L 305.559767 206.137996 
L 307.899922 202.59944 
L 310.240078 201.572045 
L 312.580233 202.163908 
L 314.920388 197.229431 
L 319.600699 197.845926 
L 321.940854 201.923951 
L 324.28101 207.366528 
L 326.621165 208.917831 
L 328.96132 207.378806 
L 331.301476 202.821947 
L 335.981786 208.917026 
L 338.321942 209.92667 
L 340.662097 212.549877 
L 343.002252 208.80894 
L 345.342407 213.104975 
L 347.682563 204.70374 
L 350.022718 204.788159 
L 352.362873 202.506626 
L 357.043184 210.002897 
L 359.383339 209.8214 
L 361.723495 207.214987 
L 364.06365 203.405841 
L 366.403805 202.762357 
L 368.743961 200.239441 
L 371.084116 200.993696 
L 373.424271 203.416733 
L 375.764427 197.437553 
L 378.104582 199.03686 
L 380.444737 197.000032 
L 382.784893 200.049635 
L 385.125048 197.834953 
L 387.465203 202.283862 
L 389.805359 198.861253 
L 392.145514 200.964022 
L 394.485669 201.11718 
L 396.825825 200.030411 
L 399.16598 203.462971 
L 401.506135 207.399436 
L 403.846291 201.582087 
L 406.186446 205.112615 
L 408.526601 206.4285 
L 410.866757 205.102544 
L 413.206912 211.742248 
L 415.547067 210.845492 
L 417.887222 211.749084 
L 420.227378 210.085665 
L 422.567533 205.812099 
L 424.907688 197.396885 
L 427.247844 195.619531 
L 429.587999 192.14658 
L 431.928154 185.944568 
L 434.26831 180.571976 
L 436.608465 180.135961 
L 438.94862 185.330254 
L 441.288776 183.906392 
L 443.628931 184.411796 
L 445.969086 186.785868 
L 448.309242 190.824924 
L 450.649397 194.436716 
L 452.989552 190.533795 
L 455.329708 188.182618 
L 457.669863 192.280547 
L 460.010018 193.209026 
L 462.350174 188.839185 
L 464.690329 188.063989 
L 467.030484 190.689711 
L 469.37064 196.328451 
L 471.710795 200.446122 
L 474.05095 198.866047 
L 476.391106 198.79601 
L 478.731261 195.919509 
L 481.071416 189.640253 
L 483.411571 185.468682 
L 485.751727 182.921388 
L 488.091882 180.641992 
L 490.432037 176.436069 
L 492.772193 174.398429 
L 495.112348 169.548795 
L 497.452503 175.252374 
L 499.792659 179.602401 
L 502.132814 179.83207 
L 504.472969 175.681363 
L 506.813125 179.294148 
L 509.15328 185.917942 
L 511.493435 182.584351 
L 513.833591 180.417782 
L 516.173746 179.73786 
L 518.513901 178.391925 
L 520.854057 175.625814 
L 523.194212 179.308875 
L 525.534367 177.594142 
L 527.874523 170.815871 
L 530.214678 170.116361 
L 532.554833 171.554111 
L 534.894989 176.078118 
L 537.235144 177.837438 
L 539.575299 178.87199 
L 541.915455 186.868679 
L 541.915455 186.868679 
" clip-path="url(#p147b3957ed)" style="fill: none; stroke: #ff7f0e; stroke-width: 1.5; stroke-linecap: square"/>
   </g>
   <g id="line2d_29">
    <path d="M 76.224545 159.376895 
L 78.564701 160.733876 
L 80.904856 169.416946 
L 83.245011 167.414667 
L 85.585167 166.791483 
L 87.925322 167.526602 
L 90.265477 164.974815 
L 92.605633 160.571965 
L 94.945788 165.415375 
L 97.285943 167.648159 
L 99.626099 170.454424 
L 101.966254 175.739973 
L 104.306409 183.106212 
L 106.646565 183.597535 
L 108.98672 184.449165 
L 111.326875 188.223744 
L 113.667031 195.220702 
L 116.007186 194.337719 
L 118.347341 198.558895 
L 120.687497 197.603373 
L 123.027652 199.951097 
L 125.367807 204.736313 
L 127.707963 206.018957 
L 130.048118 201.985254 
L 132.388273 203.333988 
L 134.728429 206.007075 
L 137.068584 203.657383 
L 139.408739 210.702103 
L 141.748894 210.695278 
L 144.08905 211.331908 
L 146.429205 205.650915 
L 148.76936 206.219315 
L 151.109516 205.333551 
L 153.449671 199.745889 
L 155.789826 202.661885 
L 158.129982 203.4923 
L 160.470137 201.367923 
L 162.810292 204.86145 
L 165.150448 195.808212 
L 167.490603 191.553549 
L 169.830758 189.978525 
L 172.170914 191.304713 
L 174.511069 190.023564 
L 176.851224 184.952217 
L 179.19138 185.233405 
L 181.531535 186.627845 
L 183.87169 188.982431 
L 186.211846 185.955457 
L 188.552001 183.199044 
L 190.892156 184.952074 
L 193.232312 182.959519 
L 195.572467 185.385261 
L 197.912622 187.480475 
L 200.252778 193.958512 
L 202.592933 191.154494 
L 204.933088 193.537172 
L 207.273243 192.735797 
L 209.613399 190.256371 
L 211.953554 192.292977 
L 214.293709 182.789986 
L 216.633865 182.698303 
L 218.97402 183.994924 
L 221.314175 190.614232 
L 223.654331 185.64489 
L 225.994486 183.184654 
L 228.334641 183.240815 
L 230.674797 182.118014 
L 233.014952 180.469791 
L 235.355107 182.584605 
L 237.695263 186.690846 
L 240.035418 196.737812 
L 242.375573 201.457377 
L 247.055884 207.543801 
L 249.396039 209.261366 
L 251.736195 204.548115 
L 254.07635 206.541394 
L 256.416505 204.043863 
L 258.756661 201.273944 
L 261.096816 200.960194 
L 263.436971 193.347266 
L 265.777127 198.153843 
L 268.117282 200.923619 
L 270.457437 205.845948 
L 275.137748 206.662875 
L 277.477903 205.71716 
L 279.818058 204.621939 
L 282.158214 202.771155 
L 284.498369 203.121756 
L 286.838524 200.276869 
L 289.17868 197.055489 
L 293.85899 189.383302 
L 296.199146 192.403104 
L 300.879456 178.534 
L 303.219612 182.630555 
L 305.559767 180.778286 
L 307.899922 176.565046 
L 310.240078 174.194913 
L 312.580233 175.533991 
L 314.920388 181.470432 
L 317.260544 180.688488 
L 319.600699 182.258075 
L 321.940854 182.865333 
L 324.28101 188.302786 
L 326.621165 191.107371 
L 328.96132 185.914757 
L 331.301476 192.093918 
L 333.641631 194.697902 
L 335.981786 191.266808 
L 338.321942 187.638284 
L 340.662097 192.338869 
L 343.002252 200.418988 
L 347.682563 195.015015 
L 350.022718 197.218096 
L 352.362873 203.363557 
L 354.703029 199.971947 
L 357.043184 204.806499 
L 359.383339 201.286381 
L 361.723495 193.302894 
L 364.06365 186.949007 
L 366.403805 192.428012 
L 368.743961 191.458487 
L 371.084116 191.612861 
L 373.424271 197.595463 
L 375.764427 200.26006 
L 378.104582 202.544871 
L 380.444737 201.301219 
L 382.784893 202.075037 
L 385.125048 200.737772 
L 387.465203 200.736929 
L 389.805359 206.425221 
L 392.145514 206.14206 
L 394.485669 213.723196 
L 396.825825 211.174381 
L 399.16598 210.124407 
L 401.506135 224.232603 
L 403.846291 229.905757 
L 406.186446 228.72916 
L 408.526601 228.339425 
L 410.866757 230.526059 
L 413.206912 229.459152 
L 415.547067 233.624404 
L 417.887222 236.078182 
L 420.227378 232.098642 
L 422.567533 229.01293 
L 424.907688 222.165728 
L 427.247844 226.271613 
L 429.587999 221.08461 
L 431.928154 220.895712 
L 434.26831 219.926607 
L 436.608465 219.426781 
L 438.94862 222.378604 
L 441.288776 219.533188 
L 443.628931 216.39597 
L 445.969086 217.30948 
L 448.309242 222.440425 
L 450.649397 215.636626 
L 452.989552 214.93844 
L 455.329708 215.635667 
L 457.669863 217.782176 
L 462.350174 226.458668 
L 464.690329 228.737613 
L 467.030484 228.459269 
L 469.37064 224.388346 
L 471.710795 217.820188 
L 474.05095 213.229301 
L 476.391106 212.100943 
L 478.731261 208.06168 
L 481.071416 208.454261 
L 483.411571 217.818814 
L 485.751727 204.900082 
L 488.091882 199.562636 
L 490.432037 199.544235 
L 492.772193 206.577751 
L 495.112348 206.187857 
L 497.452503 207.223756 
L 499.792659 204.585301 
L 502.132814 207.886955 
L 504.472969 206.637789 
L 506.813125 209.577289 
L 511.493435 199.70736 
L 513.833591 196.07485 
L 516.173746 201.446335 
L 518.513901 209.506342 
L 520.854057 208.830525 
L 523.194212 210.069439 
L 525.534367 207.28497 
L 527.874523 211.868877 
L 530.214678 206.846593 
L 532.554833 208.050162 
L 534.894989 203.934473 
L 537.235144 211.602005 
L 539.575299 216.843788 
L 541.915455 216.057062 
L 541.915455 216.057062 
" clip-path="url(#p147b3957ed)" style="fill: none; stroke: #2ca02c; stroke-width: 1.5; stroke-linecap: square"/>
   </g>
   <g id="patch_3">
    <path d="M 52.94 246.04 
L 52.94 26.88 
" style="fill: none; stroke: #000000; stroke-width: 0.8; stroke-linejoin: miter; stroke-linecap: square"/>
   </g>
   <g id="patch_4">
    <path d="M 565.2 246.04 
L 565.2 26.88 
" style="fill: none; stroke: #000000; stroke-width: 0.8; stroke-linejoin: miter; stroke-linecap: square"/>
   </g>
   <g id="patch_5">
    <path d="M 52.94 246.04 
L 565.2 246.04 
" style="fill: none; stroke: #000000; stroke-width: 0.8; stroke-linejoin: miter; stroke-linecap: square"/>
   </g>
   <g id="patch_6">
    <path d="M 52.94 26.88 
L 565.2 26.88 
" style="fill: none; stroke: #000000; stroke-width: 0.8; stroke-linejoin: miter; stroke-linecap: square"/>
   </g>
   <g id="text_16">
    <!-- Random trends -->
    <g transform="translate(263.212187 20.88) scale(0.12 -0.12)">
     <defs>
      <path id="DejaVuSans-52" d="M 2841 2188 
Q 3044 2119 3236 1894 
Q 3428 1669 3622 1275 
L 4263 0 
L 3584 0 
L 2988 1197 
Q 2756 1666 2539 1819 
Q 2322 1972 1947 1972 
L 1259 1972 
L 1259 0 
L 628 0 
L 628 4666 
L 2053 4666 
Q 2853 4666 3247 4331 
Q 3641 3997 3641 3322 
Q 3641 2881 3436 2590 
Q 3231 2300 2841 2188 
z
M 1259 4147 
L 1259 2491 
L 2053 2491 
Q 2509 2491 2742 2702 
Q 2975 2913 2975 3322 
Q 2975 3731 2742 3939 
Q 2509 4147 2053 4147 
L 1259 4147 
z
" transform="scale(0.015625)"/>
      <path id="DejaVuSans-6e" d="M 3513 2113 
L 3513 0 
L 2938 0 
L 2938 2094 
Q 2938 2591 2744 2837 
Q 2550 3084 2163 3084 
Q 1697 3084 1428 2787 
Q 1159 2491 1159 1978 
L 1159 0 
L 581 0 
L 581 3500 
L 1159 3500 
L 1159 2956 
Q 1366 3272 1645 3428 
Q 1925 3584 2291 3584 
Q 2894 3584 3203 3211 
Q 3513 2838 3513 2113 
z
" transform="scale(0.015625)"/>
      <path id="DejaVuSans-64" d="M 2906 2969 
L 2906 4863 
L 3481 4863 
L 3481 0 
L 2906 0 
L 2906 525 
Q 2725 213 2448 61 
Q 2172 -91 1784 -91 
Q 1150 -91 751 415 
Q 353 922 353 1747 
Q 353 2572 751 3078 
Q 1150 3584 1784 3584 
Q 2172 3584 2448 3432 
Q 2725 3281 2906 2969 
z
M 947 1747 
Q 947 1113 1208 752 
Q 1469 391 1925 391 
Q 2381 391 2643 752 
Q 2906 1113 2906 1747 
Q 2906 2381 2643 2742 
Q 2381 3103 1925 3103 
Q 1469 3103 1208 2742 
Q 947 2381 947 1747 
z
" transform="scale(0.015625)"/>
      <path id="DejaVuSans-6f" d="M 1959 3097 
Q 1497 3097 1228 2736 
Q 959 2375 959 1747 
Q 959 1119 1226 758 
Q 1494 397 1959 397 
Q 2419 397 2687 759 
Q 2956 1122 2956 1747 
Q 2956 2369 2687 2733 
Q 2419 3097 1959 3097 
z
M 1959 3584 
Q 2709 3584 3137 3096 
Q 3566 2609 3566 1747 
Q 3566 888 3137 398 
Q 2709 -91 1959 -91 
Q 1206 -91 779 398 
Q 353 888 353 1747 
Q 353 2609 779 3096 
Q 1206 3584 1959 3584 
z
" transform="scale(0.015625)"/>
      <path id="DejaVuSans-72" d="M 2631 2963 
Q 2534 3019 2420 3045 
Q 2306 3072 2169 3072 
Q 1681 3072 1420 2755 
Q 1159 2438 1159 1844 
L 1159 0 
L 581 0 
L 581 3500 
L 1159 3500 
L 1159 2956 
Q 1341 3275 1631 3429 
Q 1922 3584 2338 3584 
Q 2397 3584 2469 3576 
Q 2541 3569 2628 3553 
L 2631 2963 
z
" transform="scale(0.015625)"/>
     </defs>
     <use xlink:href="#DejaVuSans-52"/>
     <use xlink:href="#DejaVuSans-61" x="67.232422"/>
     <use xlink:href="#DejaVuSans-6e" x="128.511719"/>
     <use xlink:href="#DejaVuSans-64" x="191.890625"/>
     <use xlink:href="#DejaVuSans-6f" x="255.367188"/>
     <use xlink:href="#DejaVuSans-6d" x="316.548828"/>
     <use xlink:href="#DejaVuSans-20" x="413.960938"/>
     <use xlink:href="#DejaVuSans-74" x="445.748047"/>
     <use xlink:href="#DejaVuSans-72" x="484.957031"/>
     <use xlink:href="#DejaVuSans-65" x="523.820312"/>
     <use xlink:href="#DejaVuSans-6e" x="585.34375"/>
     <use xlink:href="#DejaVuSans-64" x="648.722656"/>
     <use xlink:href="#DejaVuSans-73" x="712.199219"/>
    </g>
   </g>
   <g id="legend_1">
    <g id="patch_7">
     <path d="M 58.771 70.357394 
L 100.471761 70.357394 
Q 102.137761 70.357394 102.137761 68.691394 
L 102.137761 32.711 
Q 102.137761 31.045 100.471761 31.045 
L 58.771 31.045 
Q 57.105 31.045 57.105 32.711 
L 57.105 68.691394 
Q 57.105 70.357394 58.771 70.357394 
z
" style="fill: #ffffff; opacity: 0.25; stroke: #cccccc; stroke-linejoin: miter"/>
    </g>
    <g id="line2d_30">
     <path d="M 60.437 37.835252 
L 68.767 37.835252 
L 77.097 37.835252 
" style="fill: none; stroke: #1f77b4; stroke-width: 1.5; stroke-linecap: square"/>
    </g>
    <g id="text_17">
     <!-- foo -->
     <g transform="translate(83.761 40.750752) scale(0.0833 -0.0833)">
      <defs>
       <path id="DejaVuSansMono-66" d="M 3322 4863 
L 3322 4384 
L 2669 4384 
Q 2359 4384 2239 4257 
Q 2119 4131 2119 3809 
L 2119 3500 
L 3322 3500 
L 3322 3053 
L 2119 3053 
L 2119 0 
L 1544 0 
L 1544 3053 
L 609 3053 
L 609 3500 
L 1544 3500 
L 1544 3744 
Q 1544 4319 1808 4591 
Q 2072 4863 2631 4863 
L 3322 4863 
z
" transform="scale(0.015625)"/>
       <path id="DejaVuSansMono-6f" d="M 1925 3097 
Q 1488 3097 1263 2756 
Q 1038 2416 1038 1747 
Q 1038 1081 1263 739 
Q 1488 397 1925 397 
Q 2366 397 2591 739 
Q 2816 1081 2816 1747 
Q 2816 2416 2591 2756 
Q 2366 3097 1925 3097 
z
M 1925 3584 
Q 2653 3584 3039 3112 
Q 3425 2641 3425 1747 
Q 3425 850 3040 379 
Q 2656 -91 1925 -91 
Q 1197 -91 812 379 
Q 428 850 428 1747 
Q 428 2641 812 3112 
Q 1197 3584 1925 3584 
z
" transform="scale(0.015625)"/>
      </defs>
      <use xlink:href="#DejaVuSansMono-66"/>
      <use xlink:href="#DejaVuSansMono-6f" x="60.205078"/>
      <use xlink:href="#DejaVuSansMono-6f" x="120.410156"/>
     </g>
    </g>
    <g id="line2d_31">
     <path d="M 60.437 50.106383 
L 68.767 50.106383 
L 77.097 50.106383 
" style="fill: none; stroke: #ff7f0e; stroke-width: 1.5; stroke-linecap: square"/>
    </g>
    <g id="text_18">
     <!-- bar -->
     <g transform="translate(83.761 53.021883) scale(0.0833 -0.0833)">
      <defs>
       <path id="DejaVuSansMono-62" d="M 2869 1747 
Q 2869 2416 2656 2756 
Q 2444 3097 2028 3097 
Q 1609 3097 1393 2755 
Q 1178 2413 1178 1747 
Q 1178 1084 1393 740 
Q 1609 397 2028 397 
Q 2444 397 2656 737 
Q 2869 1078 2869 1747 
z
M 1178 3053 
Q 1316 3309 1558 3446 
Q 1800 3584 2119 3584 
Q 2750 3584 3112 3098 
Q 3475 2613 3475 1759 
Q 3475 894 3111 401 
Q 2747 -91 2113 -91 
Q 1800 -91 1561 45 
Q 1322 181 1178 441 
L 1178 0 
L 603 0 
L 603 4863 
L 1178 4863 
L 1178 3053 
z
" transform="scale(0.015625)"/>
       <path id="DejaVuSansMono-61" d="M 2194 1759 
L 2003 1759 
Q 1500 1759 1245 1582 
Q 991 1406 991 1056 
Q 991 741 1181 566 
Q 1372 391 1709 391 
Q 2184 391 2456 720 
Q 2728 1050 2731 1631 
L 2731 1759 
L 2194 1759 
z
M 3309 1997 
L 3309 0 
L 2731 0 
L 2731 519 
Q 2547 206 2267 57 
Q 1988 -91 1588 -91 
Q 1053 -91 734 211 
Q 416 513 416 1019 
Q 416 1603 808 1906 
Q 1200 2209 1959 2209 
L 2731 2209 
L 2731 2300 
Q 2728 2719 2518 2908 
Q 2309 3097 1850 3097 
Q 1556 3097 1256 3012 
Q 956 2928 672 2766 
L 672 3341 
Q 991 3463 1283 3523 
Q 1575 3584 1850 3584 
Q 2284 3584 2592 3456 
Q 2900 3328 3091 3072 
Q 3209 2916 3259 2686 
Q 3309 2456 3309 1997 
z
" transform="scale(0.015625)"/>
       <path id="DejaVuSansMono-72" d="M 3609 2778 
Q 3425 2922 3234 2987 
Q 3044 3053 2816 3053 
Q 2278 3053 1993 2715 
Q 1709 2378 1709 1741 
L 1709 0 
L 1131 0 
L 1131 3500 
L 1709 3500 
L 1709 2816 
Q 1853 3188 2151 3386 
Q 2450 3584 2859 3584 
Q 3072 3584 3256 3531 
Q 3441 3478 3609 3366 
L 3609 2778 
z
" transform="scale(0.015625)"/>
      </defs>
      <use xlink:href="#DejaVuSansMono-62"/>
      <use xlink:href="#DejaVuSansMono-61" x="60.205078"/>
      <use xlink:href="#DejaVuSansMono-72" x="120.410156"/>
     </g>
    </g>
    <g id="line2d_32">
     <path d="M 60.437 62.377514 
L 68.767 62.377514 
L 77.097 62.377514 
" style="fill: none; stroke: #2ca02c; stroke-width: 1.5; stroke-linecap: square"/>
    </g>
    <g id="text_19">
     <!-- baz -->
     <g transform="translate(83.761 65.293014) scale(0.0833 -0.0833)">
      <defs>
       <path id="DejaVuSansMono-7a" d="M 709 3506 
L 3250 3506 
L 3250 2981 
L 1241 469 
L 3250 469 
L 3250 0 
L 634 0 
L 634 531 
L 2644 3047 
L 709 3047 
L 709 3506 
z
" transform="scale(0.015625)"/>
      </defs>
      <use xlink:href="#DejaVuSansMono-62"/>
      <use xlink:href="#DejaVuSansMono-61" x="60.205078"/>
      <use xlink:href="#DejaVuSansMono-7a" x="120.410156"/>
     </g>
    </g>
   </g>
  </g>
  <g id="text_20">
   <!-- SOME TEXT -->
   <g transform="translate(515.565313 283.040313) scale(0.1 -0.1)">
    <defs>
     <path id="DejaVuSans-53" d="M 3425 4513 
L 3425 3897 
Q 3066 4069 2747 4153 
Q 2428 4238 2131 4238 
Q 1616 4238 1336 4038 
Q 1056 3838 1056 3469 
Q 1056 3159 1242 3001 
Q 1428 2844 1947 2747 
L 2328 2669 
Q 3034 2534 3370 2195 
Q 3706 1856 3706 1288 
Q 3706 609 3251 259 
Q 2797 -91 1919 -91 
Q 1588 -91 1214 -16 
Q 841 59 441 206 
L 441 856 
Q 825 641 1194 531 
Q 1563 422 1919 422 
Q 2459 422 2753 634 
Q 3047 847 3047 1241 
Q 3047 1584 2836 1778 
Q 2625 1972 2144 2069 
L 1759 2144 
Q 1053 2284 737 2584 
Q 422 2884 422 3419 
Q 422 4038 858 4394 
Q 1294 4750 2059 4750 
Q 2388 4750 2728 4690 
Q 3069 4631 3425 4513 
z
" transform="scale(0.015625)"/>
     <path id="DejaVuSans-4f" d="M 2522 4238 
Q 1834 4238 1429 3725 
Q 1025 3213 1025 2328 
Q 1025 1447 1429 934 
Q 1834 422 2522 422 
Q 3209 422 3611 934 
Q 4013 1447 4013 2328 
Q 4013 3213 3611 3725 
Q 3209 4238 2522 4238 
z
M 2522 4750 
Q 3503 4750 4090 4092 
Q 4678 3434 4678 2328 
Q 4678 1225 4090 567 
Q 3503 -91 2522 -91 
Q 1538 -91 948 565 
Q 359 1222 359 2328 
Q 359 3434 948 4092 
Q 1538 4750 2522 4750 
z
" transform="scale(0.015625)"/>
     <path id="DejaVuSans-4d" d="M 628 4666 
L 1569 4666 
L 2759 1491 
L 3956 4666 
L 4897 4666 
L 4897 0 
L 4281 0 
L 4281 4097 
L 3078 897 
L 2444 897 
L 1241 4097 
L 1241 0 
L 628 0 
L 628 4666 
z
" transform="scale(0.015625)"/>
     <path id="DejaVuSans-45" d="M 628 4666 
L 3578 4666 
L 3578 4134 
L 1259 4134 
L 1259 2753 
L 3481 2753 
L 3481 2222 
L 1259 2222 
L 1259 531 
L 3634 531 
L 3634 0 
L 628 0 
L 628 4666 
z
" transform="scale(0.015625)"/>
     <path id="DejaVuSans-54" d="M -19 4666 
L 3928 4666 
L 3928 4134 
L 2272 4134 
L 2272 0 
L 1638 0 
L 1638 4134 
L -19 4134 
L -19 4666 
z
" transform="scale(0.015625)"/>
     <path id="DejaVuSans-58" d="M 403 4666 
L 1081 4666 
L 2241 2931 
L 3406 4666 
L 4084 4666 
L 2584 2425 
L 4184 0 
L 3506 0 
L 2194 1984 
L 872 0 
L 191 0 
L 1856 2491 
L 403 4666 
z
" transform="scale(0.015625)"/>
    </defs>
    <use xlink:href="#DejaVuSans-53"/>
    <use xlink:href="#DejaVuSans-4f" x="63.476562"/>
    <use xlink:href="#DejaVuSans-4d" x="142.1875"/>
    <use xlink:href="#DejaVuSans-45" x="228.466797"/>
    <use xlink:href="#DejaVuSans-20" x="291.650391"/>
    <use xlink:href="#DejaVuSans-54" x="323.4375"/>
    <use xlink:href="#DejaVuSans-45" x="384.521484"/>
    <use xlink:href="#DejaVuSans-58" x="447.705078"/>
    <use xlink:href="#DejaVuSans-54" x="514.460938"/>
   </g>
  </g>
 </g>
 <defs>
  <clipPath id="p147b3957ed">
   <rect x="52.94" y="26.88" width="512.26" height="219.16"/>
  </clipPath>
 </defs>
</svg>
