<?xml version="1.0" encoding="utf-8" standalone="no"?>
<!DOCTYPE svg PUBLIC "-//W3C//DTD SVG 1.1//EN"
  "http://www.w3.org/Graphics/SVG/1.1/DTD/svg11.dtd">
<svg xmlns:xlink="http://www.w3.org/1999/xlink" width="576pt" height="288pt" viewBox="0 0 576 288" xmlns="http://www.w3.org/2000/svg" version="1.1">
 <metadata>
  <rdf:RDF xmlns:dc="http://purl.org/dc/elements/1.1/" xmlns:cc="http://creativecommons.org/ns#" xmlns:rdf="http://www.w3.org/1999/02/22-rdf-syntax-ns#">
   <cc:Work>
    <dc:type rdf:resource="http://purl.org/dc/dcmitype/StillImage"/>
    <dc:date>2023-11-24T20:25:44.395505</dc:date>
    <dc:format>image/svg+xml</dc:format>
    <dc:creator>
     <cc:Agent>
      <dc:title>Matplotlib v3.8.1, https://matplotlib.org/</dc:title>
     </cc:Agent>
    </dc:creator>
   </cc:Work>
  </rdf:RDF>
 </metadata>
 <defs>
  <style type="text/css">*{stroke-linejoin: round; stroke-linecap: butt}</style>
 </defs>
 <g id="figure_1">
  <g id="patch_1">
   <path d="M 0 288 
L 576 288 
L 576 0 
L 0 0 
z
" style="fill: #ffffff"/>
  </g>
  <g id="axes_1">
   <g id="patch_2">
    <path d="M 72 256.32 
L 518.4 256.32 
L 518.4 34.56 
L 72 34.56 
z
" style="fill: #ffffff"/>
   </g>
   <g id="matplotlib.axis_1">
    <g id="xtick_1">
     <g id="line2d_1">
      <defs>
       <path id="m354c17357f" d="M 0 0 
L 0 3.5 
" style="stroke: #000000; stroke-width: 0.8"/>
      </defs>
      <g>
       <use xlink:href="#m354c17357f" x="94.330196" y="256.32" style="stroke: #000000; stroke-width: 0.8"/>
      </g>
     </g>
     <g id="text_1">
      <!-- 2024-01 -->
      <g transform="translate(73.43879 270.918437) scale(0.1 -0.1)">
       <defs>
        <path id="DejaVuSans-32" d="M 1228 531 
L 3431 531 
L 3431 0 
L 469 0 
L 469 531 
Q 828 903 1448 1529 
Q 2069 2156 2228 2338 
Q 2531 2678 2651 2914 
Q 2772 3150 2772 3378 
Q 2772 3750 2511 3984 
Q 2250 4219 1831 4219 
Q 1534 4219 1204 4116 
Q 875 4013 500 3803 
L 500 4441 
Q 881 4594 1212 4672 
Q 1544 4750 1819 4750 
Q 2544 4750 2975 4387 
Q 3406 4025 3406 3419 
Q 3406 3131 3298 2873 
Q 3191 2616 2906 2266 
Q 2828 2175 2409 1742 
Q 1991 1309 1228 531 
z
" transform="scale(0.015625)"/>
        <path id="DejaVuSans-30" d="M 2034 4250 
Q 1547 4250 1301 3770 
Q 1056 3291 1056 2328 
Q 1056 1369 1301 889 
Q 1547 409 2034 409 
Q 2525 409 2770 889 
Q 3016 1369 3016 2328 
Q 3016 3291 2770 3770 
Q 2525 4250 2034 4250 
z
M 2034 4750 
Q 2819 4750 3233 4129 
Q 3647 3509 3647 2328 
Q 3647 1150 3233 529 
Q 2819 -91 2034 -91 
Q 1250 -91 836 529 
Q 422 1150 422 2328 
Q 422 3509 836 4129 
Q 1250 4750 2034 4750 
z
" transform="scale(0.015625)"/>
        <path id="DejaVuSans-34" d="M 2419 4116 
L 825 1625 
L 2419 1625 
L 2419 4116 
z
M 2253 4666 
L 3047 4666 
L 3047 1625 
L 3713 1625 
L 3713 1100 
L 3047 1100 
L 3047 0 
L 2419 0 
L 2419 1100 
L 313 1100 
L 313 1709 
L 2253 4666 
z
" transform="scale(0.015625)"/>
        <path id="DejaVuSans-2d" d="M 313 2009 
L 1997 2009 
L 1997 1497 
L 313 1497 
L 313 2009 
z
" transform="scale(0.015625)"/>
        <path id="DejaVuSans-31" d="M 794 531 
L 1825 531 
L 1825 4091 
L 703 3866 
L 703 4441 
L 1819 4666 
L 2450 4666 
L 2450 531 
L 3481 531 
L 3481 0 
L 794 0 
L 794 531 
z
" transform="scale(0.015625)"/>
       </defs>
       <use xlink:href="#DejaVuSans-32"/>
       <use xlink:href="#DejaVuSans-30" x="63.623047"/>
       <use xlink:href="#DejaVuSans-32" x="127.246094"/>
       <use xlink:href="#DejaVuSans-34" x="190.869141"/>
       <use xlink:href="#DejaVuSans-2d" x="254.492188"/>
       <use xlink:href="#DejaVuSans-30" x="290.576172"/>
       <use xlink:href="#DejaVuSans-31" x="354.199219"/>
      </g>
     </g>
    </g>
    <g id="xtick_2">
     <g id="line2d_2">
      <g>
       <use xlink:href="#m354c17357f" x="157.548104" y="256.32" style="stroke: #000000; stroke-width: 0.8"/>
      </g>
     </g>
     <g id="text_2">
      <!-- 2024-02 -->
      <g transform="translate(136.656698 270.918437) scale(0.1 -0.1)">
       <use xlink:href="#DejaVuSans-32"/>
       <use xlink:href="#DejaVuSans-30" x="63.623047"/>
       <use xlink:href="#DejaVuSans-32" x="127.246094"/>
       <use xlink:href="#DejaVuSans-34" x="190.869141"/>
       <use xlink:href="#DejaVuSans-2d" x="254.492188"/>
       <use xlink:href="#DejaVuSans-30" x="290.576172"/>
       <use xlink:href="#DejaVuSans-32" x="354.199219"/>
      </g>
     </g>
    </g>
    <g id="xtick_3">
     <g id="line2d_3">
      <g>
       <use xlink:href="#m354c17357f" x="216.687437" y="256.32" style="stroke: #000000; stroke-width: 0.8"/>
      </g>
     </g>
     <g id="text_3">
      <!-- 2024-03 -->
      <g transform="translate(195.796031 270.918437) scale(0.1 -0.1)">
       <defs>
        <path id="DejaVuSans-33" d="M 2597 2516 
Q 3050 2419 3304 2112 
Q 3559 1806 3559 1356 
Q 3559 666 3084 287 
Q 2609 -91 1734 -91 
Q 1441 -91 1130 -33 
Q 819 25 488 141 
L 488 750 
Q 750 597 1062 519 
Q 1375 441 1716 441 
Q 2309 441 2620 675 
Q 2931 909 2931 1356 
Q 2931 1769 2642 2001 
Q 2353 2234 1838 2234 
L 1294 2234 
L 1294 2753 
L 1863 2753 
Q 2328 2753 2575 2939 
Q 2822 3125 2822 3475 
Q 2822 3834 2567 4026 
Q 2313 4219 1838 4219 
Q 1578 4219 1281 4162 
Q 984 4106 628 3988 
L 628 4550 
Q 988 4650 1302 4700 
Q 1616 4750 1894 4750 
Q 2613 4750 3031 4423 
Q 3450 4097 3450 3541 
Q 3450 3153 3228 2886 
Q 3006 2619 2597 2516 
z
" transform="scale(0.015625)"/>
       </defs>
       <use xlink:href="#DejaVuSans-32"/>
       <use xlink:href="#DejaVuSans-30" x="63.623047"/>
       <use xlink:href="#DejaVuSans-32" x="127.246094"/>
       <use xlink:href="#DejaVuSans-34" x="190.869141"/>
       <use xlink:href="#DejaVuSans-2d" x="254.492188"/>
       <use xlink:href="#DejaVuSans-30" x="290.576172"/>
       <use xlink:href="#DejaVuSans-33" x="354.199219"/>
      </g>
     </g>
    </g>
    <g id="xtick_4">
     <g id="line2d_4">
      <g>
       <use xlink:href="#m354c17357f" x="279.905345" y="256.32" style="stroke: #000000; stroke-width: 0.8"/>
      </g>
     </g>
     <g id="text_4">
      <!-- 2024-04 -->
      <g transform="translate(259.013939 270.918437) scale(0.1 -0.1)">
       <use xlink:href="#DejaVuSans-32"/>
       <use xlink:href="#DejaVuSans-30" x="63.623047"/>
       <use xlink:href="#DejaVuSans-32" x="127.246094"/>
       <use xlink:href="#DejaVuSans-34" x="190.869141"/>
       <use xlink:href="#DejaVuSans-2d" x="254.492188"/>
       <use xlink:href="#DejaVuSans-30" x="290.576172"/>
       <use xlink:href="#DejaVuSans-34" x="354.199219"/>
      </g>
     </g>
    </g>
    <g id="xtick_5">
     <g id="line2d_5">
      <g>
       <use xlink:href="#m354c17357f" x="341.083965" y="256.32" style="stroke: #000000; stroke-width: 0.8"/>
      </g>
     </g>
     <g id="text_5">
      <!-- 2024-05 -->
      <g transform="translate(320.192559 270.918437) scale(0.1 -0.1)">
       <defs>
        <path id="DejaVuSans-35" d="M 691 4666 
L 3169 4666 
L 3169 4134 
L 1269 4134 
L 1269 2991 
Q 1406 3038 1543 3061 
Q 1681 3084 1819 3084 
Q 2600 3084 3056 2656 
Q 3513 2228 3513 1497 
Q 3513 744 3044 326 
Q 2575 -91 1722 -91 
Q 1428 -91 1123 -41 
Q 819 9 494 109 
L 494 744 
Q 775 591 1075 516 
Q 1375 441 1709 441 
Q 2250 441 2565 725 
Q 2881 1009 2881 1497 
Q 2881 1984 2565 2268 
Q 2250 2553 1709 2553 
Q 1456 2553 1204 2497 
Q 953 2441 691 2322 
L 691 4666 
z
" transform="scale(0.015625)"/>
       </defs>
       <use xlink:href="#DejaVuSans-32"/>
       <use xlink:href="#DejaVuSans-30" x="63.623047"/>
       <use xlink:href="#DejaVuSans-32" x="127.246094"/>
       <use xlink:href="#DejaVuSans-34" x="190.869141"/>
       <use xlink:href="#DejaVuSans-2d" x="254.492188"/>
       <use xlink:href="#DejaVuSans-30" x="290.576172"/>
       <use xlink:href="#DejaVuSans-35" x="354.199219"/>
      </g>
     </g>
    </g>
    <g id="xtick_6">
     <g id="line2d_6">
      <g>
       <use xlink:href="#m354c17357f" x="404.301873" y="256.32" style="stroke: #000000; stroke-width: 0.8"/>
      </g>
     </g>
     <g id="text_6">
      <!-- 2024-06 -->
      <g transform="translate(383.410467 270.918437) scale(0.1 -0.1)">
       <defs>
        <path id="DejaVuSans-36" d="M 2113 2584 
Q 1688 2584 1439 2293 
Q 1191 2003 1191 1497 
Q 1191 994 1439 701 
Q 1688 409 2113 409 
Q 2538 409 2786 701 
Q 3034 994 3034 1497 
Q 3034 2003 2786 2293 
Q 2538 2584 2113 2584 
z
M 3366 4563 
L 3366 3988 
Q 3128 4100 2886 4159 
Q 2644 4219 2406 4219 
Q 1781 4219 1451 3797 
Q 1122 3375 1075 2522 
Q 1259 2794 1537 2939 
Q 1816 3084 2150 3084 
Q 2853 3084 3261 2657 
Q 3669 2231 3669 1497 
Q 3669 778 3244 343 
Q 2819 -91 2113 -91 
Q 1303 -91 875 529 
Q 447 1150 447 2328 
Q 447 3434 972 4092 
Q 1497 4750 2381 4750 
Q 2619 4750 2861 4703 
Q 3103 4656 3366 4563 
z
" transform="scale(0.015625)"/>
       </defs>
       <use xlink:href="#DejaVuSans-32"/>
       <use xlink:href="#DejaVuSans-30" x="63.623047"/>
       <use xlink:href="#DejaVuSans-32" x="127.246094"/>
       <use xlink:href="#DejaVuSans-34" x="190.869141"/>
       <use xlink:href="#DejaVuSans-2d" x="254.492188"/>
       <use xlink:href="#DejaVuSans-30" x="290.576172"/>
       <use xlink:href="#DejaVuSans-36" x="354.199219"/>
      </g>
     </g>
    </g>
    <g id="xtick_7">
     <g id="line2d_7">
      <g>
       <use xlink:href="#m354c17357f" x="465.480493" y="256.32" style="stroke: #000000; stroke-width: 0.8"/>
      </g>
     </g>
     <g id="text_7">
      <!-- 2024-07 -->
      <g transform="translate(444.589087 270.918437) scale(0.1 -0.1)">
       <defs>
        <path id="DejaVuSans-37" d="M 525 4666 
L 3525 4666 
L 3525 4397 
L 1831 0 
L 1172 0 
L 2766 4134 
L 525 4134 
L 525 4666 
z
" transform="scale(0.015625)"/>
       </defs>
       <use xlink:href="#DejaVuSans-32"/>
       <use xlink:href="#DejaVuSans-30" x="63.623047"/>
       <use xlink:href="#DejaVuSans-32" x="127.246094"/>
       <use xlink:href="#DejaVuSans-34" x="190.869141"/>
       <use xlink:href="#DejaVuSans-2d" x="254.492188"/>
       <use xlink:href="#DejaVuSans-30" x="290.576172"/>
       <use xlink:href="#DejaVuSans-37" x="354.199219"/>
      </g>
     </g>
    </g>
   </g>
   <g id="matplotlib.axis_2">
    <g id="ytick_1">
     <g id="line2d_8">
      <defs>
       <path id="m5583229658" d="M 0 0 
L -3.5 0 
" style="stroke: #000000; stroke-width: 0.8"/>
      </defs>
      <g>
       <use xlink:href="#m5583229658" x="72" y="214.479124" style="stroke: #000000; stroke-width: 0.8"/>
      </g>
     </g>
     <g id="text_8">
      <!-- −10 -->
      <g transform="translate(43.895313 218.278343) scale(0.1 -0.1)">
       <defs>
        <path id="DejaVuSans-2212" d="M 678 2272 
L 4684 2272 
L 4684 1741 
L 678 1741 
L 678 2272 
z
" transform="scale(0.015625)"/>
       </defs>
       <use xlink:href="#DejaVuSans-2212"/>
       <use xlink:href="#DejaVuSans-31" x="83.789062"/>
       <use xlink:href="#DejaVuSans-30" x="147.412109"/>
      </g>
     </g>
    </g>
    <g id="ytick_2">
     <g id="line2d_9">
      <g>
       <use xlink:href="#m5583229658" x="72" y="166.568763" style="stroke: #000000; stroke-width: 0.8"/>
      </g>
     </g>
     <g id="text_9">
      <!-- −5 -->
      <g transform="translate(50.257812 170.367982) scale(0.1 -0.1)">
       <use xlink:href="#DejaVuSans-2212"/>
       <use xlink:href="#DejaVuSans-35" x="83.789062"/>
      </g>
     </g>
    </g>
    <g id="ytick_3">
     <g id="line2d_10">
      <g>
       <use xlink:href="#m5583229658" x="72" y="118.658402" style="stroke: #000000; stroke-width: 0.8"/>
      </g>
     </g>
     <g id="text_10">
      <!-- 0 -->
      <g transform="translate(58.6375 122.457621) scale(0.1 -0.1)">
       <use xlink:href="#DejaVuSans-30"/>
      </g>
     </g>
    </g>
    <g id="ytick_4">
     <g id="line2d_11">
      <g>
       <use xlink:href="#m5583229658" x="72" y="70.748041" style="stroke: #000000; stroke-width: 0.8"/>
      </g>
     </g>
     <g id="text_11">
      <!-- 5 -->
      <g transform="translate(58.6375 74.54726) scale(0.1 -0.1)">
       <use xlink:href="#DejaVuSans-35"/>
      </g>
     </g>
    </g>
   </g>
   <g id="line2d_12">
    <path d="M 92.290909 111.064214 
L 94.330196 108.803777 
L 96.369484 120.618376 
L 98.408771 121.170689 
L 100.448058 125.800136 
L 102.487346 115.182137 
L 104.526633 117.649336 
L 106.565921 117.839299 
L 108.605208 124.566806 
L 110.644495 115.556772 
L 112.683783 103.641241 
L 114.72307 97.305617 
L 116.762357 105.592144 
L 118.801645 95.019878 
L 120.840932 95.403838 
L 122.880219 101.978231 
L 124.919507 100.177225 
L 126.958794 95.226534 
L 128.998081 94.789586 
L 131.037369 105.423637 
L 133.076656 100.456564 
L 135.115943 88.935453 
L 137.155231 79.656003 
L 139.194518 91.014235 
L 141.233805 101.157387 
L 143.273093 122.482509 
L 145.31238 113.811582 
L 147.351667 128.338491 
L 149.390955 130.946365 
L 151.430242 123.2245 
L 153.469529 116.163738 
L 155.508817 121.634107 
L 157.548104 109.425712 
L 159.587392 102.855252 
L 161.626679 115.148456 
L 163.665966 141.280816 
L 165.705254 141.086176 
L 167.744541 147.62956 
L 169.783828 135.482637 
L 171.823116 135.915379 
L 173.862403 126.308355 
L 175.90169 114.428424 
L 177.940978 109.664131 
L 179.980265 107.689301 
L 182.019552 96.537089 
L 184.05884 108.373506 
L 186.098127 111.224681 
L 188.137414 107.732853 
L 190.176702 94.967759 
L 192.215989 94.35483 
L 194.255276 97.728772 
L 196.294564 75.73651 
L 198.333851 85.928975 
L 200.373138 87.781362 
L 202.412426 108.897629 
L 204.451713 93.894812 
L 206.491 102.590743 
L 208.530288 98.5335 
L 210.569575 91.415834 
L 212.608862 103.221493 
L 214.64815 121.135695 
L 216.687437 104.160079 
L 218.726725 105.712316 
L 220.766012 107.837776 
L 222.805299 87.224275 
L 224.844587 87.403576 
L 226.883874 82.12647 
L 228.923161 85.902622 
L 230.962449 92.968729 
L 233.001736 104.209976 
L 235.041023 90.769207 
L 237.080311 109.099169 
L 239.119598 94.099783 
L 241.158885 95.181616 
L 243.198173 108.990686 
L 245.23746 107.562418 
L 247.276747 129.093838 
L 249.316035 131.352615 
L 251.355322 120.505999 
L 253.394609 118.07756 
L 255.433897 116.315689 
L 257.473184 113.198386 
L 259.512471 116.864676 
L 261.551759 106.329988 
L 263.591046 107.760781 
L 265.630333 120.866331 
L 267.669621 120.312708 
L 269.708908 115.207817 
L 271.748196 114.316049 
L 273.787483 104.76648 
L 275.82677 106.129937 
L 277.866058 103.996718 
L 279.905345 104.939034 
L 281.944632 97.955743 
L 283.98392 88.50573 
L 286.023207 93.921676 
L 288.062494 91.976112 
L 290.101782 90.483225 
L 292.141069 98.183485 
L 294.180356 90.834665 
L 296.219644 85.659235 
L 298.258931 117.562377 
L 300.298218 105.129482 
L 302.337506 98.65307 
L 304.376793 101.707257 
L 306.41608 104.501339 
L 308.455368 86.858491 
L 310.494655 88.780027 
L 312.533942 85.300948 
L 314.57323 76.936136 
L 316.612517 63.751732 
L 318.651804 73.748317 
L 320.691092 68.739782 
L 322.730379 75.184479 
L 324.769667 78.66953 
L 326.808954 81.81974 
L 328.848241 79.332041 
L 330.887529 83.324065 
L 332.926816 92.20731 
L 334.966103 98.569592 
L 337.005391 111.077401 
L 339.044678 98.853111 
L 341.083965 111.722379 
L 343.123253 115.547879 
L 345.16254 100.521365 
L 349.241115 77.175468 
L 351.280402 63.967024 
L 353.319689 75.46312 
L 355.358977 59.684088 
L 357.398264 47.452809 
L 359.437551 64.403053 
L 361.476839 69.367519 
L 363.516126 88.156049 
L 365.555413 91.997919 
L 367.594701 81.274771 
L 369.633988 73.194301 
L 371.673275 82.707353 
L 373.712563 82.068993 
L 375.75185 68.735378 
L 377.791138 61.000325 
L 379.830425 73.095536 
L 381.869712 70.644923 
L 383.909 57.124261 
L 385.948287 60.001907 
L 387.987574 72.191214 
L 390.026862 71.659753 
L 392.066149 71.99046 
L 394.105436 80.344199 
L 396.144724 77.147597 
L 398.184011 95.90746 
L 400.223298 107.516448 
L 402.262586 105.165484 
L 404.301873 109.500684 
L 406.34116 115.600828 
L 408.380448 115.440762 
L 410.419735 124.557482 
L 412.459022 120.597657 
L 414.49831 126.997313 
L 416.537597 114.157736 
L 418.576884 121.730989 
L 420.616172 119.458093 
L 422.655459 105.738974 
L 424.694746 97.948988 
L 426.734034 108.028966 
L 428.773321 102.856137 
L 430.812608 95.868781 
L 432.851896 102.172566 
L 434.891183 98.182096 
L 436.930471 85.195377 
L 438.969758 76.801298 
L 441.009045 75.391496 
L 443.048333 61.314699 
L 445.08762 51.946237 
L 447.126907 58.119825 
L 449.166195 50.943113 
L 451.205482 44.775511 
L 453.244769 61.216944 
L 455.284057 56.01353 
L 457.323344 57.31553 
L 459.362631 61.964545 
L 461.401919 57.228544 
L 463.441206 49.891972 
L 465.480493 44.64 
L 467.519781 55.691983 
L 469.559068 69.987277 
L 471.598355 73.573298 
L 473.637643 81.439239 
L 475.67693 86.009907 
L 477.716217 101.024177 
L 479.755505 100.163533 
L 481.794792 104.210612 
L 483.834079 92.055552 
L 485.873367 84.154758 
L 487.912654 95.963074 
L 489.951942 96.696257 
L 491.991229 97.903269 
L 494.030516 106.214275 
L 496.069804 95.708261 
L 498.109091 81.946832 
L 498.109091 81.946832 
" clip-path="url(#p33f3c1704f)" style="fill: none; stroke: #000000; stroke-width: 2; stroke-linecap: square"/>
   </g>
   <g id="line2d_13">
    <path d="M 92.290909 120.904276 
L 94.330196 127.401099 
L 96.369484 109.616019 
L 98.408771 101.288406 
L 100.448058 99.172503 
L 102.487346 97.219006 
L 104.526633 105.224238 
L 106.565921 108.030815 
L 108.605208 91.616675 
L 110.644495 98.286344 
L 112.683783 96.691844 
L 114.72307 108.107221 
L 116.762357 94.77125 
L 118.801645 110.16197 
L 120.840932 112.711174 
L 122.880219 117.368313 
L 124.919507 128.581588 
L 126.958794 151.42925 
L 128.998081 175.757905 
L 131.037369 174.656343 
L 133.076656 176.17105 
L 135.115943 183.01528 
L 137.155231 184.095355 
L 139.194518 185.703994 
L 141.233805 172.664112 
L 143.273093 181.351395 
L 145.31238 182.310868 
L 147.351667 188.212018 
L 149.390955 197.997805 
L 151.430242 191.662855 
L 153.469529 207.316712 
L 155.508817 196.430785 
L 157.548104 174.375192 
L 159.587392 165.624941 
L 161.626679 180.68117 
L 163.665966 186.610565 
L 165.705254 186.137488 
L 167.744541 179.38368 
L 169.783828 197.837204 
L 171.823116 197.086475 
L 173.862403 225.465707 
L 175.90169 226.238362 
L 177.940978 207.721095 
L 179.980265 197.271559 
L 182.019552 173.779348 
L 186.098127 145.740613 
L 188.137414 160.082801 
L 190.176702 157.100925 
L 192.215989 141.16192 
L 194.255276 144.826086 
L 196.294564 133.306122 
L 198.333851 141.126928 
L 200.373138 137.199373 
L 202.412426 141.890469 
L 204.451713 156.821618 
L 206.491 162.929817 
L 208.530288 164.85625 
L 210.569575 143.687863 
L 212.608862 149.482517 
L 214.64815 138.5509 
L 216.687437 130.95464 
L 218.726725 144.237492 
L 220.766012 136.90685 
L 222.805299 134.910144 
L 224.844587 133.61163 
L 226.883874 133.394481 
L 228.923161 134.901934 
L 230.962449 147.604581 
L 233.001736 158.912764 
L 235.041023 151.49859 
L 237.080311 146.808158 
L 239.119598 144.157595 
L 241.158885 150.378932 
L 243.198173 159.823025 
L 245.23746 160.005692 
L 247.276747 164.068906 
L 249.316035 160.346981 
L 251.355322 159.131009 
L 253.394609 169.68218 
L 255.433897 177.188934 
L 257.473184 187.015242 
L 259.512471 181.517934 
L 261.551759 187.200828 
L 263.591046 211.443274 
L 265.630333 216.496939 
L 267.669621 225.87203 
L 269.708908 213.778694 
L 271.748196 219.220828 
L 273.787483 237.799134 
L 275.82677 239.349197 
L 277.866058 246.24 
L 279.905345 232.978987 
L 281.944632 229.090629 
L 283.98392 220.077146 
L 288.062494 190.562669 
L 290.101782 167.921513 
L 292.141069 174.844954 
L 294.180356 176.931469 
L 296.219644 176.783609 
L 298.258931 196.056032 
L 300.298218 200.537496 
L 302.337506 193.157092 
L 304.376793 192.67307 
L 306.41608 181.445777 
L 308.455368 170.955327 
L 310.494655 166.636711 
L 312.533942 158.716053 
L 314.57323 177.853733 
L 316.612517 164.959892 
L 318.651804 172.441444 
L 320.691092 177.869498 
L 322.730379 176.99687 
L 324.769667 188.227109 
L 326.808954 178.657785 
L 328.848241 189.786024 
L 330.887529 198.503523 
L 332.926816 186.450007 
L 334.966103 183.24736 
L 337.005391 189.705336 
L 339.044678 187.66151 
L 341.083965 175.111521 
L 343.123253 179.436371 
L 345.16254 176.506393 
L 347.201827 180.48939 
L 349.241115 168.428663 
L 351.280402 166.729947 
L 353.319689 160.548744 
L 355.358977 154.839775 
L 357.398264 155.532679 
L 359.437551 157.785621 
L 361.476839 167.912466 
L 363.516126 157.660979 
L 365.555413 159.327174 
L 367.594701 159.714338 
L 369.633988 163.446172 
L 371.673275 170.366762 
L 373.712563 178.367638 
L 375.75185 179.547318 
L 377.791138 197.854008 
L 379.830425 205.708109 
L 381.869712 207.737282 
L 383.909 205.44526 
L 385.948287 202.790196 
L 387.987574 197.648348 
L 390.026862 184.444733 
L 392.066149 201.672324 
L 394.105436 196.723331 
L 396.144724 201.221841 
L 398.184011 207.219036 
L 400.223298 190.506495 
L 402.262586 197.105117 
L 404.301873 187.459754 
L 406.34116 181.100368 
L 410.419735 153.297541 
L 412.459022 153.077214 
L 414.49831 161.832411 
L 416.537597 153.059522 
L 418.576884 157.550209 
L 420.616172 170.588448 
L 422.655459 162.691631 
L 424.694746 160.034696 
L 426.734034 155.709113 
L 428.773321 153.252384 
L 430.812608 151.556372 
L 432.851896 144.780477 
L 434.891183 160.215776 
L 436.930471 158.562551 
L 438.969758 170.568288 
L 441.009045 169.09386 
L 443.048333 171.413566 
L 445.08762 173.2396 
L 447.126907 185.700343 
L 449.166195 180.260264 
L 451.205482 191.169952 
L 453.244769 182.723641 
L 455.284057 190.045176 
L 457.323344 196.66943 
L 459.362631 194.095 
L 461.401919 195.580228 
L 463.441206 187.316294 
L 465.480493 199.49034 
L 469.559068 207.85114 
L 471.598355 192.841007 
L 473.637643 190.908147 
L 475.67693 207.265159 
L 477.716217 198.406409 
L 479.755505 209.821659 
L 481.794792 216.24051 
L 483.834079 215.698932 
L 485.873367 213.352869 
L 487.912654 222.210341 
L 489.951942 232.466204 
L 491.991229 232.111397 
L 494.030516 227.239411 
L 496.069804 229.967247 
L 498.109091 242.725131 
L 498.109091 242.725131 
" clip-path="url(#p33f3c1704f)" style="fill: none; stroke-dasharray: 7.4,3.2; stroke-dashoffset: 0; stroke: #bfbf00; stroke-width: 2"/>
   </g>
   <g id="line2d_14">
    <path d="M 92.290909 128.101474 
L 94.330196 105.053964 
L 96.369484 114.745615 
L 98.408771 119.864631 
L 100.448058 110.408891 
L 102.487346 107.281622 
L 104.526633 112.662687 
L 106.565921 109.807889 
L 108.605208 120.842652 
L 110.644495 99.598189 
L 112.683783 103.348849 
L 114.72307 97.318178 
L 116.762357 94.591687 
L 118.801645 87.484311 
L 120.840932 83.387394 
L 122.880219 95.573028 
L 124.919507 86.960305 
L 126.958794 91.107137 
L 128.998081 86.15606 
L 131.037369 103.081852 
L 133.076656 121.959696 
L 135.115943 117.799365 
L 137.155231 92.043029 
L 139.194518 112.109658 
L 141.233805 101.179729 
L 143.273093 97.341671 
L 145.31238 96.092353 
L 147.351667 88.481481 
L 149.390955 67.372156 
L 151.430242 72.093116 
L 153.469529 61.366737 
L 155.508817 63.767336 
L 157.548104 64.778719 
L 159.587392 90.54164 
L 161.626679 80.429359 
L 163.665966 87.825655 
L 165.705254 73.119801 
L 167.744541 71.647602 
L 169.783828 80.988725 
L 171.823116 88.153604 
L 173.862403 75.671329 
L 175.90169 87.934485 
L 177.940978 93.631411 
L 179.980265 95.381394 
L 182.019552 98.821489 
L 184.05884 93.057413 
L 186.098127 103.127101 
L 188.137414 96.337896 
L 190.176702 93.396187 
L 194.255276 120.090231 
L 196.294564 130.5643 
L 198.333851 148.83685 
L 202.412426 128.529326 
L 204.451713 152.640297 
L 206.491 150.681925 
L 208.530288 149.063994 
L 210.569575 140.789775 
L 212.608862 135.145979 
L 214.64815 143.154933 
L 216.687437 143.933262 
L 218.726725 143.611868 
L 220.766012 136.40539 
L 222.805299 132.846353 
L 224.844587 125.506853 
L 226.883874 111.841135 
L 228.923161 119.156346 
L 230.962449 124.894336 
L 233.001736 123.050839 
L 235.041023 135.907306 
L 237.080311 144.978214 
L 239.119598 143.922358 
L 241.158885 129.182352 
L 243.198173 141.641866 
L 245.23746 128.8595 
L 247.276747 123.392364 
L 249.316035 127.690073 
L 251.355322 135.060603 
L 253.394609 130.236394 
L 255.433897 132.585887 
L 257.473184 124.317971 
L 259.512471 97.179867 
L 261.551759 90.99252 
L 263.591046 90.75734 
L 265.630333 83.446887 
L 267.669621 96.9925 
L 269.708908 89.614499 
L 271.748196 93.924716 
L 273.787483 102.20224 
L 275.82677 101.377874 
L 277.866058 111.468004 
L 279.905345 109.058409 
L 281.944632 112.55512 
L 283.98392 109.112469 
L 286.023207 85.693816 
L 288.062494 85.89007 
L 290.101782 92.078899 
L 292.141069 103.34584 
L 294.180356 101.886323 
L 296.219644 103.526412 
L 298.258931 99.580742 
L 300.298218 117.904938 
L 302.337506 128.603454 
L 304.376793 133.231725 
L 306.41608 119.383067 
L 308.455368 123.682968 
L 310.494655 123.594246 
L 312.533942 138.167848 
L 314.57323 128.961429 
L 316.612517 142.617244 
L 318.651804 146.538857 
L 320.691092 132.46765 
L 322.730379 129.431246 
L 324.769667 130.800603 
L 326.808954 137.883318 
L 328.848241 121.869692 
L 330.887529 119.829031 
L 332.926816 104.471766 
L 334.966103 118.716664 
L 337.005391 137.315876 
L 339.044678 122.511997 
L 341.083965 113.936255 
L 343.123253 116.333658 
L 345.16254 112.486237 
L 347.201827 140.521446 
L 349.241115 141.355049 
L 351.280402 131.033744 
L 353.319689 126.940912 
L 355.358977 124.321493 
L 357.398264 127.047672 
L 359.437551 131.141851 
L 361.476839 144.772073 
L 363.516126 136.718321 
L 365.555413 145.775908 
L 367.594701 145.08578 
L 369.633988 145.139771 
L 371.673275 152.532496 
L 373.712563 123.308049 
L 375.75185 117.39397 
L 377.791138 116.361894 
L 379.830425 121.930672 
L 381.869712 126.192212 
L 383.909 114.254675 
L 385.948287 111.4401 
L 387.987574 102.914163 
L 390.026862 119.625547 
L 392.066149 109.481365 
L 394.105436 127.545029 
L 396.144724 125.734301 
L 398.184011 125.63972 
L 400.223298 140.406183 
L 402.262586 153.308814 
L 404.301873 167.559664 
L 406.34116 161.052045 
L 408.380448 161.999759 
L 410.419735 148.648034 
L 412.459022 139.748925 
L 414.49831 137.99158 
L 416.537597 141.105063 
L 418.576884 149.161838 
L 420.616172 152.410648 
L 422.655459 149.734827 
L 424.694746 148.797351 
L 426.734034 160.440414 
L 428.773321 143.357588 
L 430.812608 140.598455 
L 432.851896 153.304081 
L 434.891183 154.584039 
L 436.930471 157.923512 
L 438.969758 164.943689 
L 441.009045 152.724453 
L 443.048333 171.156604 
L 445.08762 188.240015 
L 447.126907 179.394384 
L 449.166195 189.230308 
L 451.205482 205.924366 
L 453.244769 195.830492 
L 455.284057 198.427966 
L 457.323344 208.136084 
L 459.362631 207.328226 
L 461.401919 207.358212 
L 463.441206 209.550584 
L 465.480493 198.590558 
L 467.519781 194.301631 
L 469.559068 188.930224 
L 471.598355 199.477089 
L 473.637643 205.945411 
L 475.67693 200.459821 
L 477.716217 209.980726 
L 479.755505 208.634032 
L 481.794792 196.680443 
L 483.834079 190.419703 
L 487.912654 208.190248 
L 489.951942 210.25342 
L 491.991229 211.953251 
L 494.030516 216.370132 
L 496.069804 218.002416 
L 498.109091 218.584112 
L 498.109091 218.584112 
" clip-path="url(#p33f3c1704f)" style="fill: none; stroke-dasharray: 12.8,3.2,2,3.2; stroke-dashoffset: 0; stroke: #bf00bf; stroke-width: 2"/>
   </g>
   <g id="patch_3">
    <path d="M 72 256.32 
L 72 34.56 
" style="fill: none; stroke: #000000; stroke-width: 0.8; stroke-linejoin: miter; stroke-linecap: square"/>
   </g>
   <g id="patch_4">
    <path d="M 518.4 256.32 
L 518.4 34.56 
" style="fill: none; stroke: #000000; stroke-width: 0.8; stroke-linejoin: miter; stroke-linecap: square"/>
   </g>
   <g id="patch_5">
    <path d="M 72 256.32 
L 518.4 256.32 
" style="fill: none; stroke: #000000; stroke-width: 0.8; stroke-linejoin: miter; stroke-linecap: square"/>
   </g>
   <g id="patch_6">
    <path d="M 72 34.56 
L 518.4 34.56 
" style="fill: none; stroke: #000000; stroke-width: 0.8; stroke-linejoin: miter; stroke-linecap: square"/>
   </g>
  </g>
 </g>
 <defs>
  <clipPath id="p33f3c1704f">
   <rect x="72" y="34.56" width="446.4" height="221.76"/>
  </clipPath>
 </defs>
</svg>
