<?xml version="1.0" encoding="utf-8" standalone="no"?>
<!DOCTYPE svg PUBLIC "-//W3C//DTD SVG 1.1//EN"
  "http://www.w3.org/Graphics/SVG/1.1/DTD/svg11.dtd">
<svg xmlns:xlink="http://www.w3.org/1999/xlink" width="576pt" height="288pt" viewBox="0 0 576 288" xmlns="http://www.w3.org/2000/svg" version="1.1">
 <metadata>
  <rdf:RDF xmlns:dc="http://purl.org/dc/elements/1.1/" xmlns:cc="http://creativecommons.org/ns#" xmlns:rdf="http://www.w3.org/1999/02/22-rdf-syntax-ns#">
   <cc:Work>
    <dc:type rdf:resource="http://purl.org/dc/dcmitype/StillImage"/>
    <dc:date>2023-11-24T20:25:44.685880</dc:date>
    <dc:format>image/svg+xml</dc:format>
    <dc:creator>
     <cc:Agent>
      <dc:title>Matplotlib v3.8.1, https://matplotlib.org/</dc:title>
     </cc:Agent>
    </dc:creator>
   </cc:Work>
  </rdf:RDF>
 </metadata>
 <defs>
  <style type="text/css">*{stroke-linejoin: round; stroke-linecap: butt}</style>
 </defs>
 <g id="figure_1">
  <g id="patch_1">
   <path d="M 0 288 
L 576 288 
L 576 0 
L 0 0 
z
" style="fill: #ffffff"/>
  </g>
  <g id="axes_1">
   <g id="patch_2">
    <path d="M 52.94 246.04 
L 565.2 246.04 
L 565.2 26.88 
L 52.94 26.88 
z
" style="fill: #ffffff"/>
   </g>
   <g id="matplotlib.axis_1">
    <g id="xtick_1">
     <g id="line2d_1">
      <path d="M 78.564701 246.04 
L 78.564701 26.88 
" clip-path="url(#peebdfee2cf)" style="fill: none; stroke: #b0b0b0; stroke-width: 0.8; stroke-linecap: square"/>
     </g>
     <g id="line2d_2">
      <defs>
       <path id="mda0589b783" d="M 0 0 
L 0 3.5 
" style="stroke: #000000; stroke-width: 0.8"/>
      </defs>
      <g>
       <use xlink:href="#mda0589b783" x="78.564701" y="246.04" style="stroke: #000000; stroke-width: 0.8"/>
      </g>
     </g>
     <g id="text_1">
      <!-- 2024-01 -->
      <g transform="translate(57.673295 260.638438) scale(0.1 -0.1)">
       <defs>
        <path id="DejaVuSans-32" d="M 1228 531 
L 3431 531 
L 3431 0 
L 469 0 
L 469 531 
Q 828 903 1448 1529 
Q 2069 2156 2228 2338 
Q 2531 2678 2651 2914 
Q 2772 3150 2772 3378 
Q 2772 3750 2511 3984 
Q 2250 4219 1831 4219 
Q 1534 4219 1204 4116 
Q 875 4013 500 3803 
L 500 4441 
Q 881 4594 1212 4672 
Q 1544 4750 1819 4750 
Q 2544 4750 2975 4387 
Q 3406 4025 3406 3419 
Q 3406 3131 3298 2873 
Q 3191 2616 2906 2266 
Q 2828 2175 2409 1742 
Q 1991 1309 1228 531 
z
" transform="scale(0.015625)"/>
        <path id="DejaVuSans-30" d="M 2034 4250 
Q 1547 4250 1301 3770 
Q 1056 3291 1056 2328 
Q 1056 1369 1301 889 
Q 1547 409 2034 409 
Q 2525 409 2770 889 
Q 3016 1369 3016 2328 
Q 3016 3291 2770 3770 
Q 2525 4250 2034 4250 
z
M 2034 4750 
Q 2819 4750 3233 4129 
Q 3647 3509 3647 2328 
Q 3647 1150 3233 529 
Q 2819 -91 2034 -91 
Q 1250 -91 836 529 
Q 422 1150 422 2328 
Q 422 3509 836 4129 
Q 1250 4750 2034 4750 
z
" transform="scale(0.015625)"/>
        <path id="DejaVuSans-34" d="M 2419 4116 
L 825 1625 
L 2419 1625 
L 2419 4116 
z
M 2253 4666 
L 3047 4666 
L 3047 1625 
L 3713 1625 
L 3713 1100 
L 3047 1100 
L 3047 0 
L 2419 0 
L 2419 1100 
L 313 1100 
L 313 1709 
L 2253 4666 
z
" transform="scale(0.015625)"/>
        <path id="DejaVuSans-2d" d="M 313 2009 
L 1997 2009 
L 1997 1497 
L 313 1497 
L 313 2009 
z
" transform="scale(0.015625)"/>
        <path id="DejaVuSans-31" d="M 794 531 
L 1825 531 
L 1825 4091 
L 703 3866 
L 703 4441 
L 1819 4666 
L 2450 4666 
L 2450 531 
L 3481 531 
L 3481 0 
L 794 0 
L 794 531 
z
" transform="scale(0.015625)"/>
       </defs>
       <use xlink:href="#DejaVuSans-32"/>
       <use xlink:href="#DejaVuSans-30" x="63.623047"/>
       <use xlink:href="#DejaVuSans-32" x="127.246094"/>
       <use xlink:href="#DejaVuSans-34" x="190.869141"/>
       <use xlink:href="#DejaVuSans-2d" x="254.492188"/>
       <use xlink:href="#DejaVuSans-30" x="290.576172"/>
       <use xlink:href="#DejaVuSans-31" x="354.199219"/>
      </g>
     </g>
    </g>
    <g id="xtick_2">
     <g id="line2d_3">
      <path d="M 151.109516 246.04 
L 151.109516 26.88 
" clip-path="url(#peebdfee2cf)" style="fill: none; stroke: #b0b0b0; stroke-width: 0.8; stroke-linecap: square"/>
     </g>
     <g id="line2d_4">
      <g>
       <use xlink:href="#mda0589b783" x="151.109516" y="246.04" style="stroke: #000000; stroke-width: 0.8"/>
      </g>
     </g>
     <g id="text_2">
      <!-- 2024-02 -->
      <g transform="translate(130.21811 260.638438) scale(0.1 -0.1)">
       <use xlink:href="#DejaVuSans-32"/>
       <use xlink:href="#DejaVuSans-30" x="63.623047"/>
       <use xlink:href="#DejaVuSans-32" x="127.246094"/>
       <use xlink:href="#DejaVuSans-34" x="190.869141"/>
       <use xlink:href="#DejaVuSans-2d" x="254.492188"/>
       <use xlink:href="#DejaVuSans-30" x="290.576172"/>
       <use xlink:href="#DejaVuSans-32" x="354.199219"/>
      </g>
     </g>
    </g>
    <g id="xtick_3">
     <g id="line2d_5">
      <path d="M 218.97402 246.04 
L 218.97402 26.88 
" clip-path="url(#peebdfee2cf)" style="fill: none; stroke: #b0b0b0; stroke-width: 0.8; stroke-linecap: square"/>
     </g>
     <g id="line2d_6">
      <g>
       <use xlink:href="#mda0589b783" x="218.97402" y="246.04" style="stroke: #000000; stroke-width: 0.8"/>
      </g>
     </g>
     <g id="text_3">
      <!-- 2024-03 -->
      <g transform="translate(198.082614 260.638438) scale(0.1 -0.1)">
       <defs>
        <path id="DejaVuSans-33" d="M 2597 2516 
Q 3050 2419 3304 2112 
Q 3559 1806 3559 1356 
Q 3559 666 3084 287 
Q 2609 -91 1734 -91 
Q 1441 -91 1130 -33 
Q 819 25 488 141 
L 488 750 
Q 750 597 1062 519 
Q 1375 441 1716 441 
Q 2309 441 2620 675 
Q 2931 909 2931 1356 
Q 2931 1769 2642 2001 
Q 2353 2234 1838 2234 
L 1294 2234 
L 1294 2753 
L 1863 2753 
Q 2328 2753 2575 2939 
Q 2822 3125 2822 3475 
Q 2822 3834 2567 4026 
Q 2313 4219 1838 4219 
Q 1578 4219 1281 4162 
Q 984 4106 628 3988 
L 628 4550 
Q 988 4650 1302 4700 
Q 1616 4750 1894 4750 
Q 2613 4750 3031 4423 
Q 3450 4097 3450 3541 
Q 3450 3153 3228 2886 
Q 3006 2619 2597 2516 
z
" transform="scale(0.015625)"/>
       </defs>
       <use xlink:href="#DejaVuSans-32"/>
       <use xlink:href="#DejaVuSans-30" x="63.623047"/>
       <use xlink:href="#DejaVuSans-32" x="127.246094"/>
       <use xlink:href="#DejaVuSans-34" x="190.869141"/>
       <use xlink:href="#DejaVuSans-2d" x="254.492188"/>
       <use xlink:href="#DejaVuSans-30" x="290.576172"/>
       <use xlink:href="#DejaVuSans-33" x="354.199219"/>
      </g>
     </g>
    </g>
    <g id="xtick_4">
     <g id="line2d_7">
      <path d="M 291.518835 246.04 
L 291.518835 26.88 
" clip-path="url(#peebdfee2cf)" style="fill: none; stroke: #b0b0b0; stroke-width: 0.8; stroke-linecap: square"/>
     </g>
     <g id="line2d_8">
      <g>
       <use xlink:href="#mda0589b783" x="291.518835" y="246.04" style="stroke: #000000; stroke-width: 0.8"/>
      </g>
     </g>
     <g id="text_4">
      <!-- 2024-04 -->
      <g transform="translate(270.627429 260.638438) scale(0.1 -0.1)">
       <use xlink:href="#DejaVuSans-32"/>
       <use xlink:href="#DejaVuSans-30" x="63.623047"/>
       <use xlink:href="#DejaVuSans-32" x="127.246094"/>
       <use xlink:href="#DejaVuSans-34" x="190.869141"/>
       <use xlink:href="#DejaVuSans-2d" x="254.492188"/>
       <use xlink:href="#DejaVuSans-30" x="290.576172"/>
       <use xlink:href="#DejaVuSans-34" x="354.199219"/>
      </g>
     </g>
    </g>
    <g id="xtick_5">
     <g id="line2d_9">
      <path d="M 361.723495 246.04 
L 361.723495 26.88 
" clip-path="url(#peebdfee2cf)" style="fill: none; stroke: #b0b0b0; stroke-width: 0.8; stroke-linecap: square"/>
     </g>
     <g id="line2d_10">
      <g>
       <use xlink:href="#mda0589b783" x="361.723495" y="246.04" style="stroke: #000000; stroke-width: 0.8"/>
      </g>
     </g>
     <g id="text_5">
      <!-- 2024-05 -->
      <g transform="translate(340.832088 260.638438) scale(0.1 -0.1)">
       <defs>
        <path id="DejaVuSans-35" d="M 691 4666 
L 3169 4666 
L 3169 4134 
L 1269 4134 
L 1269 2991 
Q 1406 3038 1543 3061 
Q 1681 3084 1819 3084 
Q 2600 3084 3056 2656 
Q 3513 2228 3513 1497 
Q 3513 744 3044 326 
Q 2575 -91 1722 -91 
Q 1428 -91 1123 -41 
Q 819 9 494 109 
L 494 744 
Q 775 591 1075 516 
Q 1375 441 1709 441 
Q 2250 441 2565 725 
Q 2881 1009 2881 1497 
Q 2881 1984 2565 2268 
Q 2250 2553 1709 2553 
Q 1456 2553 1204 2497 
Q 953 2441 691 2322 
L 691 4666 
z
" transform="scale(0.015625)"/>
       </defs>
       <use xlink:href="#DejaVuSans-32"/>
       <use xlink:href="#DejaVuSans-30" x="63.623047"/>
       <use xlink:href="#DejaVuSans-32" x="127.246094"/>
       <use xlink:href="#DejaVuSans-34" x="190.869141"/>
       <use xlink:href="#DejaVuSans-2d" x="254.492188"/>
       <use xlink:href="#DejaVuSans-30" x="290.576172"/>
       <use xlink:href="#DejaVuSans-35" x="354.199219"/>
      </g>
     </g>
    </g>
    <g id="xtick_6">
     <g id="line2d_11">
      <path d="M 434.26831 246.04 
L 434.26831 26.88 
" clip-path="url(#peebdfee2cf)" style="fill: none; stroke: #b0b0b0; stroke-width: 0.8; stroke-linecap: square"/>
     </g>
     <g id="line2d_12">
      <g>
       <use xlink:href="#mda0589b783" x="434.26831" y="246.04" style="stroke: #000000; stroke-width: 0.8"/>
      </g>
     </g>
     <g id="text_6">
      <!-- 2024-06 -->
      <g transform="translate(413.376903 260.638438) scale(0.1 -0.1)">
       <defs>
        <path id="DejaVuSans-36" d="M 2113 2584 
Q 1688 2584 1439 2293 
Q 1191 2003 1191 1497 
Q 1191 994 1439 701 
Q 1688 409 2113 409 
Q 2538 409 2786 701 
Q 3034 994 3034 1497 
Q 3034 2003 2786 2293 
Q 2538 2584 2113 2584 
z
M 3366 4563 
L 3366 3988 
Q 3128 4100 2886 4159 
Q 2644 4219 2406 4219 
Q 1781 4219 1451 3797 
Q 1122 3375 1075 2522 
Q 1259 2794 1537 2939 
Q 1816 3084 2150 3084 
Q 2853 3084 3261 2657 
Q 3669 2231 3669 1497 
Q 3669 778 3244 343 
Q 2819 -91 2113 -91 
Q 1303 -91 875 529 
Q 447 1150 447 2328 
Q 447 3434 972 4092 
Q 1497 4750 2381 4750 
Q 2619 4750 2861 4703 
Q 3103 4656 3366 4563 
z
" transform="scale(0.015625)"/>
       </defs>
       <use xlink:href="#DejaVuSans-32"/>
       <use xlink:href="#DejaVuSans-30" x="63.623047"/>
       <use xlink:href="#DejaVuSans-32" x="127.246094"/>
       <use xlink:href="#DejaVuSans-34" x="190.869141"/>
       <use xlink:href="#DejaVuSans-2d" x="254.492188"/>
       <use xlink:href="#DejaVuSans-30" x="290.576172"/>
       <use xlink:href="#DejaVuSans-36" x="354.199219"/>
      </g>
     </g>
    </g>
    <g id="xtick_7">
     <g id="line2d_13">
      <path d="M 504.472969 246.04 
L 504.472969 26.88 
" clip-path="url(#peebdfee2cf)" style="fill: none; stroke: #b0b0b0; stroke-width: 0.8; stroke-linecap: square"/>
     </g>
     <g id="line2d_14">
      <g>
       <use xlink:href="#mda0589b783" x="504.472969" y="246.04" style="stroke: #000000; stroke-width: 0.8"/>
      </g>
     </g>
     <g id="text_7">
      <!-- 2024-07 -->
      <g transform="translate(483.581563 260.638438) scale(0.1 -0.1)">
       <defs>
        <path id="DejaVuSans-37" d="M 525 4666 
L 3525 4666 
L 3525 4397 
L 1831 0 
L 1172 0 
L 2766 4134 
L 525 4134 
L 525 4666 
z
" transform="scale(0.015625)"/>
       </defs>
       <use xlink:href="#DejaVuSans-32"/>
       <use xlink:href="#DejaVuSans-30" x="63.623047"/>
       <use xlink:href="#DejaVuSans-32" x="127.246094"/>
       <use xlink:href="#DejaVuSans-34" x="190.869141"/>
       <use xlink:href="#DejaVuSans-2d" x="254.492188"/>
       <use xlink:href="#DejaVuSans-30" x="290.576172"/>
       <use xlink:href="#DejaVuSans-37" x="354.199219"/>
      </g>
     </g>
    </g>
    <g id="text_8">
     <!-- Date -->
     <g transform="translate(297.119219 274.316562) scale(0.1 -0.1)">
      <defs>
       <path id="DejaVuSans-44" d="M 1259 4147 
L 1259 519 
L 2022 519 
Q 2988 519 3436 956 
Q 3884 1394 3884 2338 
Q 3884 3275 3436 3711 
Q 2988 4147 2022 4147 
L 1259 4147 
z
M 628 4666 
L 1925 4666 
Q 3281 4666 3915 4102 
Q 4550 3538 4550 2338 
Q 4550 1131 3912 565 
Q 3275 0 1925 0 
L 628 0 
L 628 4666 
z
" transform="scale(0.015625)"/>
       <path id="DejaVuSans-61" d="M 2194 1759 
Q 1497 1759 1228 1600 
Q 959 1441 959 1056 
Q 959 750 1161 570 
Q 1363 391 1709 391 
Q 2188 391 2477 730 
Q 2766 1069 2766 1631 
L 2766 1759 
L 2194 1759 
z
M 3341 1997 
L 3341 0 
L 2766 0 
L 2766 531 
Q 2569 213 2275 61 
Q 1981 -91 1556 -91 
Q 1019 -91 701 211 
Q 384 513 384 1019 
Q 384 1609 779 1909 
Q 1175 2209 1959 2209 
L 2766 2209 
L 2766 2266 
Q 2766 2663 2505 2880 
Q 2244 3097 1772 3097 
Q 1472 3097 1187 3025 
Q 903 2953 641 2809 
L 641 3341 
Q 956 3463 1253 3523 
Q 1550 3584 1831 3584 
Q 2591 3584 2966 3190 
Q 3341 2797 3341 1997 
z
" transform="scale(0.015625)"/>
       <path id="DejaVuSans-74" d="M 1172 4494 
L 1172 3500 
L 2356 3500 
L 2356 3053 
L 1172 3053 
L 1172 1153 
Q 1172 725 1289 603 
Q 1406 481 1766 481 
L 2356 481 
L 2356 0 
L 1766 0 
Q 1100 0 847 248 
Q 594 497 594 1153 
L 594 3053 
L 172 3053 
L 172 3500 
L 594 3500 
L 594 4494 
L 1172 4494 
z
" transform="scale(0.015625)"/>
       <path id="DejaVuSans-65" d="M 3597 1894 
L 3597 1613 
L 953 1613 
Q 991 1019 1311 708 
Q 1631 397 2203 397 
Q 2534 397 2845 478 
Q 3156 559 3463 722 
L 3463 178 
Q 3153 47 2828 -22 
Q 2503 -91 2169 -91 
Q 1331 -91 842 396 
Q 353 884 353 1716 
Q 353 2575 817 3079 
Q 1281 3584 2069 3584 
Q 2775 3584 3186 3129 
Q 3597 2675 3597 1894 
z
M 3022 2063 
Q 3016 2534 2758 2815 
Q 2500 3097 2075 3097 
Q 1594 3097 1305 2825 
Q 1016 2553 972 2059 
L 3022 2063 
z
" transform="scale(0.015625)"/>
      </defs>
      <use xlink:href="#DejaVuSans-44"/>
      <use xlink:href="#DejaVuSans-61" x="77.001953"/>
      <use xlink:href="#DejaVuSans-74" x="138.28125"/>
      <use xlink:href="#DejaVuSans-65" x="177.490234"/>
     </g>
    </g>
   </g>
   <g id="matplotlib.axis_2">
    <g id="ytick_1">
     <g id="line2d_15">
      <path d="M 52.94 204.689683 
L 565.2 204.689683 
" clip-path="url(#peebdfee2cf)" style="fill: none; stroke: #b0b0b0; stroke-width: 0.8; stroke-linecap: square"/>
     </g>
     <g id="line2d_16">
      <defs>
       <path id="m9604f13756" d="M 0 0 
L -3.5 0 
" style="stroke: #000000; stroke-width: 0.8"/>
      </defs>
      <g>
       <use xlink:href="#m9604f13756" x="52.94" y="204.689683" style="stroke: #000000; stroke-width: 0.8"/>
      </g>
     </g>
     <g id="text_9">
      <!-- −10 -->
      <g transform="translate(24.835313 208.488901) scale(0.1 -0.1)">
       <defs>
        <path id="DejaVuSans-2212" d="M 678 2272 
L 4684 2272 
L 4684 1741 
L 678 1741 
L 678 2272 
z
" transform="scale(0.015625)"/>
       </defs>
       <use xlink:href="#DejaVuSans-2212"/>
       <use xlink:href="#DejaVuSans-31" x="83.789062"/>
       <use xlink:href="#DejaVuSans-30" x="147.412109"/>
      </g>
     </g>
    </g>
    <g id="ytick_2">
     <g id="line2d_17">
      <path d="M 52.94 157.341041 
L 565.2 157.341041 
" clip-path="url(#peebdfee2cf)" style="fill: none; stroke: #b0b0b0; stroke-width: 0.8; stroke-linecap: square"/>
     </g>
     <g id="line2d_18">
      <g>
       <use xlink:href="#m9604f13756" x="52.94" y="157.341041" style="stroke: #000000; stroke-width: 0.8"/>
      </g>
     </g>
     <g id="text_10">
      <!-- −5 -->
      <g transform="translate(31.197813 161.14026) scale(0.1 -0.1)">
       <use xlink:href="#DejaVuSans-2212"/>
       <use xlink:href="#DejaVuSans-35" x="83.789062"/>
      </g>
     </g>
    </g>
    <g id="ytick_3">
     <g id="line2d_19">
      <path d="M 52.94 109.9924 
L 565.2 109.9924 
" clip-path="url(#peebdfee2cf)" style="fill: none; stroke: #b0b0b0; stroke-width: 0.8; stroke-linecap: square"/>
     </g>
     <g id="line2d_20">
      <g>
       <use xlink:href="#m9604f13756" x="52.94" y="109.9924" style="stroke: #000000; stroke-width: 0.8"/>
      </g>
     </g>
     <g id="text_11">
      <!-- 0 -->
      <g transform="translate(39.5775 113.791618) scale(0.1 -0.1)">
       <use xlink:href="#DejaVuSans-30"/>
      </g>
     </g>
    </g>
    <g id="ytick_4">
     <g id="line2d_21">
      <path d="M 52.94 62.643758 
L 565.2 62.643758 
" clip-path="url(#peebdfee2cf)" style="fill: none; stroke: #b0b0b0; stroke-width: 0.8; stroke-linecap: square"/>
     </g>
     <g id="line2d_22">
      <g>
       <use xlink:href="#m9604f13756" x="52.94" y="62.643758" style="stroke: #000000; stroke-width: 0.8"/>
      </g>
     </g>
     <g id="text_12">
      <!-- 5 -->
      <g transform="translate(39.5775 66.442977) scale(0.1 -0.1)">
       <use xlink:href="#DejaVuSans-35"/>
      </g>
     </g>
    </g>
    <g id="text_13">
     <!-- Cum. sum -->
     <g transform="translate(18.755625 161.812344) rotate(-90) scale(0.1 -0.1)">
      <defs>
       <path id="DejaVuSans-43" d="M 4122 4306 
L 4122 3641 
Q 3803 3938 3442 4084 
Q 3081 4231 2675 4231 
Q 1875 4231 1450 3742 
Q 1025 3253 1025 2328 
Q 1025 1406 1450 917 
Q 1875 428 2675 428 
Q 3081 428 3442 575 
Q 3803 722 4122 1019 
L 4122 359 
Q 3791 134 3420 21 
Q 3050 -91 2638 -91 
Q 1578 -91 968 557 
Q 359 1206 359 2328 
Q 359 3453 968 4101 
Q 1578 4750 2638 4750 
Q 3056 4750 3426 4639 
Q 3797 4528 4122 4306 
z
" transform="scale(0.015625)"/>
       <path id="DejaVuSans-75" d="M 544 1381 
L 544 3500 
L 1119 3500 
L 1119 1403 
Q 1119 906 1312 657 
Q 1506 409 1894 409 
Q 2359 409 2629 706 
Q 2900 1003 2900 1516 
L 2900 3500 
L 3475 3500 
L 3475 0 
L 2900 0 
L 2900 538 
Q 2691 219 2414 64 
Q 2138 -91 1772 -91 
Q 1169 -91 856 284 
Q 544 659 544 1381 
z
M 1991 3584 
L 1991 3584 
z
" transform="scale(0.015625)"/>
       <path id="DejaVuSans-6d" d="M 3328 2828 
Q 3544 3216 3844 3400 
Q 4144 3584 4550 3584 
Q 5097 3584 5394 3201 
Q 5691 2819 5691 2113 
L 5691 0 
L 5113 0 
L 5113 2094 
Q 5113 2597 4934 2840 
Q 4756 3084 4391 3084 
Q 3944 3084 3684 2787 
Q 3425 2491 3425 1978 
L 3425 0 
L 2847 0 
L 2847 2094 
Q 2847 2600 2669 2842 
Q 2491 3084 2119 3084 
Q 1678 3084 1418 2786 
Q 1159 2488 1159 1978 
L 1159 0 
L 581 0 
L 581 3500 
L 1159 3500 
L 1159 2956 
Q 1356 3278 1631 3431 
Q 1906 3584 2284 3584 
Q 2666 3584 2933 3390 
Q 3200 3197 3328 2828 
z
" transform="scale(0.015625)"/>
       <path id="DejaVuSans-2e" d="M 684 794 
L 1344 794 
L 1344 0 
L 684 0 
L 684 794 
z
" transform="scale(0.015625)"/>
       <path id="DejaVuSans-20" transform="scale(0.015625)"/>
       <path id="DejaVuSans-73" d="M 2834 3397 
L 2834 2853 
Q 2591 2978 2328 3040 
Q 2066 3103 1784 3103 
Q 1356 3103 1142 2972 
Q 928 2841 928 2578 
Q 928 2378 1081 2264 
Q 1234 2150 1697 2047 
L 1894 2003 
Q 2506 1872 2764 1633 
Q 3022 1394 3022 966 
Q 3022 478 2636 193 
Q 2250 -91 1575 -91 
Q 1294 -91 989 -36 
Q 684 19 347 128 
L 347 722 
Q 666 556 975 473 
Q 1284 391 1588 391 
Q 1994 391 2212 530 
Q 2431 669 2431 922 
Q 2431 1156 2273 1281 
Q 2116 1406 1581 1522 
L 1381 1569 
Q 847 1681 609 1914 
Q 372 2147 372 2553 
Q 372 3047 722 3315 
Q 1072 3584 1716 3584 
Q 2034 3584 2315 3537 
Q 2597 3491 2834 3397 
z
" transform="scale(0.015625)"/>
      </defs>
      <use xlink:href="#DejaVuSans-43"/>
      <use xlink:href="#DejaVuSans-75" x="69.824219"/>
      <use xlink:href="#DejaVuSans-6d" x="133.203125"/>
      <use xlink:href="#DejaVuSans-2e" x="230.615234"/>
      <use xlink:href="#DejaVuSans-20" x="262.402344"/>
      <use xlink:href="#DejaVuSans-73" x="294.189453"/>
      <use xlink:href="#DejaVuSans-75" x="346.289062"/>
      <use xlink:href="#DejaVuSans-6d" x="409.667969"/>
     </g>
    </g>
   </g>
   <g id="line2d_23">
    <path d="M 76.224545 102.487249 
L 78.564701 100.253314 
L 80.904856 111.929394 
L 83.245011 112.475232 
L 85.585167 117.050401 
L 87.925322 106.556892 
L 90.265477 108.995164 
L 92.605633 109.1829 
L 94.945788 115.831531 
L 97.285943 106.927134 
L 99.626099 95.151306 
L 101.966254 88.889963 
L 104.306409 97.079335 
L 106.646565 86.631023 
L 108.98672 87.010481 
L 111.326875 93.507793 
L 113.667031 91.727903 
L 116.007186 86.835256 
L 118.347341 86.403432 
L 120.687497 96.912804 
L 123.027652 92.003968 
L 125.367807 80.617934 
L 127.707963 71.44728 
L 130.048118 82.672343 
L 132.388273 92.696573 
L 134.728429 113.771671 
L 137.068584 105.202406 
L 139.408739 119.558996 
L 141.748894 122.136294 
L 144.08905 114.504963 
L 146.429205 107.526984 
L 148.76936 112.933217 
L 151.109516 100.867957 
L 153.449671 94.374532 
L 155.789826 106.523606 
L 158.129982 132.34958 
L 160.470137 132.157222 
L 162.810292 138.623889 
L 165.150448 126.619381 
L 167.490603 127.047049 
L 169.830758 117.552662 
L 172.170914 105.812016 
L 174.511069 101.103581 
L 176.851224 99.151905 
L 179.19138 88.130445 
L 181.531535 99.828088 
L 183.87169 102.645835 
L 186.211846 99.194946 
L 188.552001 86.579515 
L 190.892156 85.973773 
L 193.232312 89.308157 
L 195.572467 67.57374 
L 197.912622 77.646705 
L 200.252778 79.477374 
L 202.592933 100.346065 
L 204.933088 85.519147 
L 207.273243 94.113125 
L 209.613399 90.103449 
L 211.953554 83.069234 
L 214.293709 94.736479 
L 216.633865 112.440648 
L 218.97402 95.664061 
L 221.314175 97.198099 
L 223.654331 99.298639 
L 225.994486 78.926819 
L 228.334641 79.104017 
L 230.674797 73.888783 
L 233.014952 77.620661 
L 235.355107 84.603922 
L 237.695263 95.713373 
L 240.035418 82.430188 
L 242.375573 100.545243 
L 244.715729 85.721716 
L 247.055884 86.790864 
L 249.396039 100.438032 
L 251.736195 99.026509 
L 254.07635 120.305486 
L 256.416505 122.537781 
L 258.756661 111.818335 
L 261.096816 109.418368 
L 263.436971 107.677154 
L 265.777127 104.5964 
L 268.117282 108.219704 
L 270.457437 97.808528 
L 272.797593 99.222546 
L 275.137748 112.174442 
L 277.477903 111.627311 
L 279.818058 106.582271 
L 282.158214 105.700958 
L 284.498369 96.263352 
L 286.838524 97.610824 
L 289.17868 95.502615 
L 291.518835 96.433883 
L 293.85899 89.532467 
L 296.199146 80.193249 
L 298.539301 85.545697 
L 300.879456 83.622943 
L 303.219612 82.14756 
L 305.559767 89.757539 
L 307.899922 82.494879 
L 310.240078 77.380128 
L 312.580233 108.909225 
L 314.920388 96.622098 
L 317.260544 90.221618 
L 319.600699 93.239997 
L 321.940854 96.001319 
L 324.28101 78.565323 
L 326.621165 80.464331 
L 328.96132 77.026042 
L 331.301476 68.759302 
L 333.641631 55.729477 
L 335.981786 65.608858 
L 338.321942 60.659045 
L 340.662097 67.028182 
L 343.002252 70.472373 
L 345.342407 73.585649 
L 347.682563 71.127116 
L 350.022718 75.072336 
L 352.362873 83.851431 
L 354.703029 90.139119 
L 357.043184 102.500281 
L 359.383339 90.419314 
L 361.723495 103.137697 
L 364.06365 106.918346 
L 366.403805 92.068008 
L 371.084116 68.995827 
L 373.424271 55.942244 
L 375.764427 67.303556 
L 378.104582 51.709523 
L 380.444737 39.621648 
L 382.784893 56.373162 
L 385.125048 61.279422 
L 387.465203 79.847668 
L 389.805359 83.644495 
L 392.145514 73.047069 
L 394.485669 65.061337 
L 396.825825 74.462855 
L 399.16598 73.83198 
L 401.506135 60.654693 
L 403.846291 53.010328 
L 406.186446 64.96373 
L 408.526601 62.54185 
L 410.866757 49.179708 
L 413.206912 52.023616 
L 415.547067 64.070011 
L 417.887222 63.544781 
L 420.227378 63.871611 
L 422.567533 72.127407 
L 424.907688 68.968283 
L 427.247844 87.508198 
L 429.587999 98.981078 
L 431.928154 96.657678 
L 434.26831 100.942051 
L 436.608465 106.970674 
L 438.94862 106.812485 
L 441.288776 115.822316 
L 443.628931 111.908918 
L 445.969086 118.233542 
L 448.309242 105.544501 
L 450.649397 113.028962 
L 452.989552 110.782715 
L 455.329708 97.224445 
L 457.669863 89.525791 
L 460.010018 99.487587 
L 462.350174 94.375407 
L 464.690329 87.469973 
L 467.030484 93.699851 
L 469.37064 89.756166 
L 471.710795 76.921709 
L 474.05095 68.626045 
L 476.391106 67.232772 
L 478.731261 53.321017 
L 481.071416 44.062394 
L 483.411571 50.163601 
L 485.751727 43.071031 
L 488.091882 36.975741 
L 490.432037 53.224408 
L 492.772193 48.082001 
L 495.112348 49.368735 
L 497.452503 53.963244 
L 499.792659 49.282769 
L 502.132814 42.032214 
L 504.472969 36.841818 
L 506.813125 47.764223 
L 509.15328 61.891914 
L 511.493435 65.435891 
L 513.833591 73.209609 
L 516.173746 77.726689 
L 518.513901 92.564925 
L 520.854057 91.714371 
L 523.194212 95.714001 
L 525.534367 83.701452 
L 527.874523 75.89329 
L 530.214678 87.56316 
L 532.554833 88.287748 
L 534.894989 89.480609 
L 537.235144 97.694173 
L 539.575299 87.311336 
L 541.915455 73.71125 
L 541.915455 73.71125 
" clip-path="url(#peebdfee2cf)" style="fill: none; stroke: #000000; stroke-width: 2; stroke-linecap: square"/>
   </g>
   <g id="line2d_24">
    <path d="M 76.224545 112.211943 
L 78.564701 118.632594 
L 80.904856 101.056033 
L 83.245011 92.826057 
L 85.585167 90.734961 
L 87.925322 88.804367 
L 90.265477 96.715743 
L 92.605633 99.489415 
L 94.945788 83.267721 
L 97.285943 89.859192 
L 99.626099 88.283386 
L 101.966254 99.564925 
L 104.306409 86.38531 
L 106.646565 101.595583 
L 108.98672 104.114899 
L 111.326875 108.717436 
L 113.667031 119.799242 
L 116.007186 142.37903 
L 118.347341 166.422446 
L 120.687497 165.333799 
L 123.027652 166.830747 
L 125.367807 173.594733 
L 127.707963 174.662145 
L 130.048118 176.251923 
L 132.388273 163.364926 
L 134.728429 171.950356 
L 137.068584 172.89858 
L 139.408739 178.730542 
L 141.748894 188.401597 
L 144.08905 182.14092 
L 146.429205 197.611245 
L 148.76936 186.85295 
L 151.109516 165.055945 
L 153.449671 156.408285 
L 155.789826 171.287989 
L 158.129982 177.147865 
L 160.470137 176.680335 
L 162.810292 170.005711 
L 165.150448 188.242879 
L 167.490603 187.500952 
L 169.830758 215.547454 
L 172.170914 216.31105 
L 174.511069 198.010887 
L 176.851224 187.683866 
L 179.19138 164.467086 
L 183.87169 136.757088 
L 186.211846 150.931123 
L 188.552001 147.984208 
L 190.892156 132.232078 
L 193.232312 135.853284 
L 195.572467 124.468384 
L 197.912622 132.197496 
L 200.252778 128.315989 
L 202.592933 132.952085 
L 204.933088 147.708176 
L 207.273243 153.74476 
L 209.613399 155.648606 
L 211.953554 134.728406 
L 214.293709 140.455121 
L 216.633865 129.65167 
L 218.97402 122.144472 
L 221.314175 135.27159 
L 223.654331 128.026896 
L 225.994486 126.0536 
L 228.334641 124.77031 
L 230.674797 124.555707 
L 233.014952 126.045487 
L 235.355107 138.599203 
L 237.695263 149.774804 
L 240.035418 142.447557 
L 242.375573 137.812118 
L 244.715729 135.192631 
L 247.055884 141.341026 
L 249.396039 150.674393 
L 251.736195 150.854918 
L 254.07635 154.870493 
L 256.416505 151.192206 
L 258.756661 149.99049 
L 261.096816 160.417955 
L 263.436971 167.836698 
L 265.777127 177.547798 
L 268.117282 172.114943 
L 270.457437 177.731208 
L 272.797593 201.689426 
L 275.137748 206.68384 
L 277.477903 215.949013 
L 279.818058 203.997465 
L 282.158214 209.375793 
L 284.498369 227.73628 
L 286.838524 229.268169 
L 289.17868 236.078182 
L 291.518835 222.972646 
L 293.85899 219.129876 
L 296.199146 210.222072 
L 300.879456 181.053633 
L 303.219612 158.677932 
L 305.559767 165.520199 
L 307.899922 167.582251 
L 310.240078 167.436124 
L 312.580233 186.482591 
L 314.920388 190.911511 
L 317.260544 183.617639 
L 319.600699 183.139291 
L 321.940854 172.043631 
L 324.28101 161.676175 
L 326.621165 157.408192 
L 328.96132 149.5804 
L 331.301476 168.493701 
L 333.641631 155.751033 
L 335.981786 163.144868 
L 338.321942 168.509282 
L 340.662097 167.646885 
L 343.002252 178.745456 
L 345.342407 169.288327 
L 347.682563 180.286094 
L 350.022718 188.901386 
L 352.362873 176.98919 
L 354.703029 173.824092 
L 357.043184 180.206352 
L 359.383339 178.186489 
L 361.723495 165.783641 
L 364.06365 170.057785 
L 366.403805 167.162158 
L 368.743961 171.098458 
L 371.084116 159.179135 
L 373.424271 157.500336 
L 375.764427 151.391604 
L 378.104582 145.749568 
L 380.444737 146.434348 
L 382.784893 148.660876 
L 385.125048 158.66899 
L 387.465203 148.537696 
L 389.805359 150.184355 
L 392.145514 150.566981 
L 394.485669 154.25506 
L 396.825825 161.094511 
L 399.16598 169.001582 
L 401.506135 170.16743 
L 403.846291 188.259486 
L 406.186446 196.021502 
L 408.526601 198.026884 
L 410.866757 195.761735 
L 413.206912 193.1378 
L 415.547067 188.056237 
L 417.887222 175.007427 
L 420.227378 192.033035 
L 422.567533 187.142065 
L 424.907688 191.587833 
L 427.247844 197.514715 
L 429.587999 180.998118 
L 431.928154 187.519375 
L 434.26831 177.987098 
L 436.608465 171.702272 
L 438.94862 157.609574 
L 441.288776 144.225416 
L 443.628931 144.007673 
L 445.969086 152.66022 
L 448.309242 143.990188 
L 450.649397 148.428224 
L 452.989552 161.313598 
L 455.329708 153.509366 
L 457.669863 150.883582 
L 460.010018 146.608714 
L 462.350174 144.180788 
L 464.690329 142.504661 
L 467.030484 135.808209 
L 469.37064 151.062539 
L 471.710795 149.428697 
L 474.05095 161.293674 
L 476.391106 159.836533 
L 478.731261 162.129042 
L 481.071416 163.933667 
L 483.411571 176.248316 
L 485.751727 170.872017 
L 488.091882 181.653796 
L 490.432037 173.306513 
L 492.772193 180.542208 
L 495.112348 187.088796 
L 497.452503 184.54455 
L 499.792659 186.012364 
L 502.132814 177.845321 
L 504.472969 189.876633 
L 509.15328 198.139407 
L 511.493435 183.305259 
L 513.833591 181.395061 
L 516.173746 197.560297 
L 518.513901 188.80541 
L 520.854057 200.086823 
L 523.194212 206.430418 
L 525.534367 205.895189 
L 527.874523 203.576633 
L 530.214678 212.330256 
L 532.554833 222.465875 
L 534.894989 222.115229 
L 537.235144 217.300363 
L 539.575299 219.996217 
L 541.915455 232.604523 
L 541.915455 232.604523 
" clip-path="url(#peebdfee2cf)" style="fill: none; stroke: #bfbf00; stroke-width: 2; stroke-linecap: square"/>
   </g>
   <g id="line2d_25">
    <path d="M 76.224545 119.324758 
L 78.564701 96.547466 
L 80.904856 106.125488 
L 83.245011 111.184487 
L 85.585167 101.83961 
L 87.925322 98.749006 
L 90.265477 104.066981 
L 92.605633 101.245654 
L 94.945788 112.151041 
L 97.285943 91.155656 
L 99.626099 94.862342 
L 101.966254 88.902377 
L 104.306409 86.207852 
L 106.646565 79.183806 
L 108.98672 75.134922 
L 111.326875 87.177687 
L 113.667031 78.665943 
L 116.007186 82.764156 
L 118.347341 77.871128 
L 120.687497 94.598476 
L 123.027652 113.254988 
L 125.367807 109.143435 
L 127.707963 83.689076 
L 130.048118 103.520436 
L 132.388273 92.718653 
L 134.728429 88.925594 
L 137.068584 87.690924 
L 139.408739 80.169284 
L 141.748894 59.307454 
L 144.08905 63.973064 
L 146.429205 53.372444 
L 148.76936 55.744897 
L 151.109516 56.744423 
L 153.449671 82.20529 
L 155.789826 72.211569 
L 158.129982 79.521147 
L 160.470137 64.987711 
L 162.810292 63.532773 
L 165.150448 72.764377 
L 167.490603 79.845252 
L 169.830758 67.509324 
L 172.170914 79.628702 
L 174.511069 85.258835 
L 176.851224 86.9883 
L 179.19138 90.388063 
L 181.531535 84.691566 
L 183.87169 94.643194 
L 186.211846 87.933588 
L 188.552001 85.026369 
L 193.232312 111.407441 
L 195.572467 121.758708 
L 197.912622 139.817024 
L 202.592933 119.747593 
L 204.933088 143.575878 
L 207.273243 141.640467 
L 209.613399 140.041505 
L 211.953554 131.864296 
L 214.293709 126.28667 
L 216.633865 134.201724 
L 218.97402 134.970928 
L 221.314175 134.653301 
L 223.654331 127.531315 
L 225.994486 124.014006 
L 228.334641 116.760557 
L 230.674797 103.255061 
L 233.014952 110.484506 
L 235.355107 116.155221 
L 237.695263 114.333338 
L 240.035418 127.039071 
L 242.375573 136.003628 
L 244.715729 134.960152 
L 247.055884 120.392963 
L 249.396039 132.706397 
L 251.736195 120.073896 
L 254.07635 114.670859 
L 256.416505 118.91818 
L 258.756661 126.202295 
L 261.096816 121.434647 
L 263.436971 123.756593 
L 265.777127 115.585614 
L 268.117282 88.765687 
L 270.457437 82.650884 
L 272.797593 82.418461 
L 275.137748 75.193718 
L 277.477903 88.580517 
L 279.818058 81.289019 
L 282.158214 85.548701 
L 284.498369 93.729176 
L 286.838524 92.914476 
L 289.17868 102.886304 
L 291.518835 100.504961 
L 293.85899 103.960675 
L 296.199146 100.558387 
L 298.539301 77.414303 
L 300.879456 77.608257 
L 303.219612 83.724525 
L 305.559767 94.859368 
L 307.899922 93.416963 
L 310.240078 95.037823 
L 312.580233 91.138414 
L 314.920388 109.24777 
L 317.260544 119.820853 
L 319.600699 124.39486 
L 321.940854 110.708569 
L 324.28101 114.958056 
L 326.621165 114.870374 
L 328.96132 129.27311 
L 331.301476 120.17463 
L 333.641631 133.670339 
L 335.981786 137.545973 
L 338.321942 123.639742 
L 340.662097 120.638939 
L 343.002252 121.992241 
L 345.342407 128.991915 
L 347.682563 113.166039 
L 350.022718 111.149304 
L 352.362873 95.972093 
L 354.703029 110.049979 
L 357.043184 128.431127 
L 359.383339 113.800814 
L 361.723495 105.325617 
L 364.06365 107.694912 
L 366.403805 103.8926 
L 368.743961 131.599113 
L 371.084116 132.422942 
L 373.424271 122.222649 
L 375.764427 118.177803 
L 378.104582 115.589095 
L 380.444737 118.283311 
L 382.784893 122.329488 
L 385.125048 135.799904 
L 387.465203 127.840578 
L 389.805359 136.79197 
L 392.145514 136.109933 
L 394.485669 136.163291 
L 396.825825 143.46934 
L 399.16598 114.587532 
L 401.506135 108.742793 
L 403.846291 107.722817 
L 406.186446 113.226305 
L 408.526601 117.43788 
L 410.866757 105.640304 
L 413.206912 102.858728 
L 415.547067 94.432753 
L 417.887222 110.948206 
L 420.227378 100.922958 
L 422.567533 118.774837 
L 424.907688 116.985338 
L 427.247844 116.891866 
L 429.587999 131.485201 
L 431.928154 144.236557 
L 434.26831 158.320324 
L 436.608465 151.889003 
L 438.94862 152.825606 
L 441.288776 139.630422 
L 443.628931 130.835649 
L 445.969086 129.098909 
L 448.309242 132.175887 
L 450.649397 140.138202 
L 452.989552 143.348921 
L 455.329708 140.704473 
L 457.669863 139.777988 
L 460.010018 151.284544 
L 462.350174 134.402003 
L 464.690329 131.67522 
L 467.030484 144.231879 
L 469.37064 145.496831 
L 471.710795 148.79715 
L 474.05095 155.73502 
L 476.391106 143.659048 
L 478.731261 161.875093 
L 481.071416 178.758212 
L 483.411571 170.01629 
L 485.751727 179.736893 
L 488.091882 196.235224 
L 490.432037 186.259694 
L 492.772193 188.826714 
L 495.112348 198.421011 
L 497.452503 197.622624 
L 499.792659 197.652258 
L 502.132814 199.818927 
L 504.472969 188.9874 
L 506.813125 184.748758 
L 509.15328 179.440328 
L 511.493435 189.863537 
L 513.833591 196.256023 
L 516.173746 190.834747 
L 518.513901 200.244025 
L 520.854057 198.913121 
L 523.194212 187.09968 
L 525.534367 180.912343 
L 527.874523 189.945472 
L 530.214678 198.47454 
L 532.554833 200.513523 
L 534.894989 202.193423 
L 537.235144 206.558519 
L 539.575299 208.171666 
L 541.915455 208.746542 
L 541.915455 208.746542 
" clip-path="url(#peebdfee2cf)" style="fill: none; stroke: #bf00bf; stroke-width: 2; stroke-linecap: square"/>
   </g>
   <g id="patch_3">
    <path d="M 52.94 246.04 
L 52.94 26.88 
" style="fill: none; stroke: #000000; stroke-width: 0.8; stroke-linejoin: miter; stroke-linecap: square"/>
   </g>
   <g id="patch_4">
    <path d="M 565.2 246.04 
L 565.2 26.88 
" style="fill: none; stroke: #000000; stroke-width: 0.8; stroke-linejoin: miter; stroke-linecap: square"/>
   </g>
   <g id="patch_5">
    <path d="M 52.94 246.04 
L 565.2 246.04 
" style="fill: none; stroke: #000000; stroke-width: 0.8; stroke-linejoin: miter; stroke-linecap: square"/>
   </g>
   <g id="patch_6">
    <path d="M 52.94 26.88 
L 565.2 26.88 
" style="fill: none; stroke: #000000; stroke-width: 0.8; stroke-linejoin: miter; stroke-linecap: square"/>
   </g>
   <g id="text_14">
    <!-- Random trends -->
    <g transform="translate(263.212187 20.88) scale(0.12 -0.12)">
     <defs>
      <path id="DejaVuSans-52" d="M 2841 2188 
Q 3044 2119 3236 1894 
Q 3428 1669 3622 1275 
L 4263 0 
L 3584 0 
L 2988 1197 
Q 2756 1666 2539 1819 
Q 2322 1972 1947 1972 
L 1259 1972 
L 1259 0 
L 628 0 
L 628 4666 
L 2053 4666 
Q 2853 4666 3247 4331 
Q 3641 3997 3641 3322 
Q 3641 2881 3436 2590 
Q 3231 2300 2841 2188 
z
M 1259 4147 
L 1259 2491 
L 2053 2491 
Q 2509 2491 2742 2702 
Q 2975 2913 2975 3322 
Q 2975 3731 2742 3939 
Q 2509 4147 2053 4147 
L 1259 4147 
z
" transform="scale(0.015625)"/>
      <path id="DejaVuSans-6e" d="M 3513 2113 
L 3513 0 
L 2938 0 
L 2938 2094 
Q 2938 2591 2744 2837 
Q 2550 3084 2163 3084 
Q 1697 3084 1428 2787 
Q 1159 2491 1159 1978 
L 1159 0 
L 581 0 
L 581 3500 
L 1159 3500 
L 1159 2956 
Q 1366 3272 1645 3428 
Q 1925 3584 2291 3584 
Q 2894 3584 3203 3211 
Q 3513 2838 3513 2113 
z
" transform="scale(0.015625)"/>
      <path id="DejaVuSans-64" d="M 2906 2969 
L 2906 4863 
L 3481 4863 
L 3481 0 
L 2906 0 
L 2906 525 
Q 2725 213 2448 61 
Q 2172 -91 1784 -91 
Q 1150 -91 751 415 
Q 353 922 353 1747 
Q 353 2572 751 3078 
Q 1150 3584 1784 3584 
Q 2172 3584 2448 3432 
Q 2725 3281 2906 2969 
z
M 947 1747 
Q 947 1113 1208 752 
Q 1469 391 1925 391 
Q 2381 391 2643 752 
Q 2906 1113 2906 1747 
Q 2906 2381 2643 2742 
Q 2381 3103 1925 3103 
Q 1469 3103 1208 2742 
Q 947 2381 947 1747 
z
" transform="scale(0.015625)"/>
      <path id="DejaVuSans-6f" d="M 1959 3097 
Q 1497 3097 1228 2736 
Q 959 2375 959 1747 
Q 959 1119 1226 758 
Q 1494 397 1959 397 
Q 2419 397 2687 759 
Q 2956 1122 2956 1747 
Q 2956 2369 2687 2733 
Q 2419 3097 1959 3097 
z
M 1959 3584 
Q 2709 3584 3137 3096 
Q 3566 2609 3566 1747 
Q 3566 888 3137 398 
Q 2709 -91 1959 -91 
Q 1206 -91 779 398 
Q 353 888 353 1747 
Q 353 2609 779 3096 
Q 1206 3584 1959 3584 
z
" transform="scale(0.015625)"/>
      <path id="DejaVuSans-72" d="M 2631 2963 
Q 2534 3019 2420 3045 
Q 2306 3072 2169 3072 
Q 1681 3072 1420 2755 
Q 1159 2438 1159 1844 
L 1159 0 
L 581 0 
L 581 3500 
L 1159 3500 
L 1159 2956 
Q 1341 3275 1631 3429 
Q 1922 3584 2338 3584 
Q 2397 3584 2469 3576 
Q 2541 3569 2628 3553 
L 2631 2963 
z
" transform="scale(0.015625)"/>
     </defs>
     <use xlink:href="#DejaVuSans-52"/>
     <use xlink:href="#DejaVuSans-61" x="67.232422"/>
     <use xlink:href="#DejaVuSans-6e" x="128.511719"/>
     <use xlink:href="#DejaVuSans-64" x="191.890625"/>
     <use xlink:href="#DejaVuSans-6f" x="255.367188"/>
     <use xlink:href="#DejaVuSans-6d" x="316.548828"/>
     <use xlink:href="#DejaVuSans-20" x="413.960938"/>
     <use xlink:href="#DejaVuSans-74" x="445.748047"/>
     <use xlink:href="#DejaVuSans-72" x="484.957031"/>
     <use xlink:href="#DejaVuSans-65" x="523.820312"/>
     <use xlink:href="#DejaVuSans-6e" x="585.34375"/>
     <use xlink:href="#DejaVuSans-64" x="648.722656"/>
     <use xlink:href="#DejaVuSans-73" x="712.199219"/>
    </g>
   </g>
   <g id="legend_1">
    <g id="patch_7">
     <path d="M 517.668239 70.357394 
L 559.369 70.357394 
Q 561.035 70.357394 561.035 68.691394 
L 561.035 32.711 
Q 561.035 31.045 559.369 31.045 
L 517.668239 31.045 
Q 516.002239 31.045 516.002239 32.711 
L 516.002239 68.691394 
Q 516.002239 70.357394 517.668239 70.357394 
z
" style="fill: #ffffff; opacity: 0.25; stroke: #cccccc; stroke-linejoin: miter"/>
    </g>
    <g id="line2d_26">
     <path d="M 519.334239 37.835252 
L 527.664239 37.835252 
L 535.994239 37.835252 
" style="fill: none; stroke: #000000; stroke-width: 2; stroke-linecap: square"/>
    </g>
    <g id="text_15">
     <!-- foo -->
     <g transform="translate(542.658239 40.750752) scale(0.0833 -0.0833)">
      <defs>
       <path id="DejaVuSansMono-66" d="M 3322 4863 
L 3322 4384 
L 2669 4384 
Q 2359 4384 2239 4257 
Q 2119 4131 2119 3809 
L 2119 3500 
L 3322 3500 
L 3322 3053 
L 2119 3053 
L 2119 0 
L 1544 0 
L 1544 3053 
L 609 3053 
L 609 3500 
L 1544 3500 
L 1544 3744 
Q 1544 4319 1808 4591 
Q 2072 4863 2631 4863 
L 3322 4863 
z
" transform="scale(0.015625)"/>
       <path id="DejaVuSansMono-6f" d="M 1925 3097 
Q 1488 3097 1263 2756 
Q 1038 2416 1038 1747 
Q 1038 1081 1263 739 
Q 1488 397 1925 397 
Q 2366 397 2591 739 
Q 2816 1081 2816 1747 
Q 2816 2416 2591 2756 
Q 2366 3097 1925 3097 
z
M 1925 3584 
Q 2653 3584 3039 3112 
Q 3425 2641 3425 1747 
Q 3425 850 3040 379 
Q 2656 -91 1925 -91 
Q 1197 -91 812 379 
Q 428 850 428 1747 
Q 428 2641 812 3112 
Q 1197 3584 1925 3584 
z
" transform="scale(0.015625)"/>
      </defs>
      <use xlink:href="#DejaVuSansMono-66"/>
      <use xlink:href="#DejaVuSansMono-6f" x="60.205078"/>
      <use xlink:href="#DejaVuSansMono-6f" x="120.410156"/>
     </g>
    </g>
    <g id="line2d_27">
     <path d="M 519.334239 50.106383 
L 527.664239 50.106383 
L 535.994239 50.106383 
" style="fill: none; stroke: #bfbf00; stroke-width: 2; stroke-linecap: square"/>
    </g>
    <g id="text_16">
     <!-- bar -->
     <g transform="translate(542.658239 53.021883) scale(0.0833 -0.0833)">
      <defs>
       <path id="DejaVuSansMono-62" d="M 2869 1747 
Q 2869 2416 2656 2756 
Q 2444 3097 2028 3097 
Q 1609 3097 1393 2755 
Q 1178 2413 1178 1747 
Q 1178 1084 1393 740 
Q 1609 397 2028 397 
Q 2444 397 2656 737 
Q 2869 1078 2869 1747 
z
M 1178 3053 
Q 1316 3309 1558 3446 
Q 1800 3584 2119 3584 
Q 2750 3584 3112 3098 
Q 3475 2613 3475 1759 
Q 3475 894 3111 401 
Q 2747 -91 2113 -91 
Q 1800 -91 1561 45 
Q 1322 181 1178 441 
L 1178 0 
L 603 0 
L 603 4863 
L 1178 4863 
L 1178 3053 
z
" transform="scale(0.015625)"/>
       <path id="DejaVuSansMono-61" d="M 2194 1759 
L 2003 1759 
Q 1500 1759 1245 1582 
Q 991 1406 991 1056 
Q 991 741 1181 566 
Q 1372 391 1709 391 
Q 2184 391 2456 720 
Q 2728 1050 2731 1631 
L 2731 1759 
L 2194 1759 
z
M 3309 1997 
L 3309 0 
L 2731 0 
L 2731 519 
Q 2547 206 2267 57 
Q 1988 -91 1588 -91 
Q 1053 -91 734 211 
Q 416 513 416 1019 
Q 416 1603 808 1906 
Q 1200 2209 1959 2209 
L 2731 2209 
L 2731 2300 
Q 2728 2719 2518 2908 
Q 2309 3097 1850 3097 
Q 1556 3097 1256 3012 
Q 956 2928 672 2766 
L 672 3341 
Q 991 3463 1283 3523 
Q 1575 3584 1850 3584 
Q 2284 3584 2592 3456 
Q 2900 3328 3091 3072 
Q 3209 2916 3259 2686 
Q 3309 2456 3309 1997 
z
" transform="scale(0.015625)"/>
       <path id="DejaVuSansMono-72" d="M 3609 2778 
Q 3425 2922 3234 2987 
Q 3044 3053 2816 3053 
Q 2278 3053 1993 2715 
Q 1709 2378 1709 1741 
L 1709 0 
L 1131 0 
L 1131 3500 
L 1709 3500 
L 1709 2816 
Q 1853 3188 2151 3386 
Q 2450 3584 2859 3584 
Q 3072 3584 3256 3531 
Q 3441 3478 3609 3366 
L 3609 2778 
z
" transform="scale(0.015625)"/>
      </defs>
      <use xlink:href="#DejaVuSansMono-62"/>
      <use xlink:href="#DejaVuSansMono-61" x="60.205078"/>
      <use xlink:href="#DejaVuSansMono-72" x="120.410156"/>
     </g>
    </g>
    <g id="line2d_28">
     <path d="M 519.334239 62.377514 
L 527.664239 62.377514 
L 535.994239 62.377514 
" style="fill: none; stroke: #bf00bf; stroke-width: 2; stroke-linecap: square"/>
    </g>
    <g id="text_17">
     <!-- baz -->
     <g transform="translate(542.658239 65.293014) scale(0.0833 -0.0833)">
      <defs>
       <path id="DejaVuSansMono-7a" d="M 709 3506 
L 3250 3506 
L 3250 2981 
L 1241 469 
L 3250 469 
L 3250 0 
L 634 0 
L 634 531 
L 2644 3047 
L 709 3047 
L 709 3506 
z
" transform="scale(0.015625)"/>
      </defs>
      <use xlink:href="#DejaVuSansMono-62"/>
      <use xlink:href="#DejaVuSansMono-61" x="60.205078"/>
      <use xlink:href="#DejaVuSansMono-7a" x="120.410156"/>
     </g>
    </g>
   </g>
  </g>
  <g id="text_18">
   <!-- SOME TEXT -->
   <g transform="translate(515.565313 283.040313) scale(0.1 -0.1)">
    <defs>
     <path id="DejaVuSans-53" d="M 3425 4513 
L 3425 3897 
Q 3066 4069 2747 4153 
Q 2428 4238 2131 4238 
Q 1616 4238 1336 4038 
Q 1056 3838 1056 3469 
Q 1056 3159 1242 3001 
Q 1428 2844 1947 2747 
L 2328 2669 
Q 3034 2534 3370 2195 
Q 3706 1856 3706 1288 
Q 3706 609 3251 259 
Q 2797 -91 1919 -91 
Q 1588 -91 1214 -16 
Q 841 59 441 206 
L 441 856 
Q 825 641 1194 531 
Q 1563 422 1919 422 
Q 2459 422 2753 634 
Q 3047 847 3047 1241 
Q 3047 1584 2836 1778 
Q 2625 1972 2144 2069 
L 1759 2144 
Q 1053 2284 737 2584 
Q 422 2884 422 3419 
Q 422 4038 858 4394 
Q 1294 4750 2059 4750 
Q 2388 4750 2728 4690 
Q 3069 4631 3425 4513 
z
" transform="scale(0.015625)"/>
     <path id="DejaVuSans-4f" d="M 2522 4238 
Q 1834 4238 1429 3725 
Q 1025 3213 1025 2328 
Q 1025 1447 1429 934 
Q 1834 422 2522 422 
Q 3209 422 3611 934 
Q 4013 1447 4013 2328 
Q 4013 3213 3611 3725 
Q 3209 4238 2522 4238 
z
M 2522 4750 
Q 3503 4750 4090 4092 
Q 4678 3434 4678 2328 
Q 4678 1225 4090 567 
Q 3503 -91 2522 -91 
Q 1538 -91 948 565 
Q 359 1222 359 2328 
Q 359 3434 948 4092 
Q 1538 4750 2522 4750 
z
" transform="scale(0.015625)"/>
     <path id="DejaVuSans-4d" d="M 628 4666 
L 1569 4666 
L 2759 1491 
L 3956 4666 
L 4897 4666 
L 4897 0 
L 4281 0 
L 4281 4097 
L 3078 897 
L 2444 897 
L 1241 4097 
L 1241 0 
L 628 0 
L 628 4666 
z
" transform="scale(0.015625)"/>
     <path id="DejaVuSans-45" d="M 628 4666 
L 3578 4666 
L 3578 4134 
L 1259 4134 
L 1259 2753 
L 3481 2753 
L 3481 2222 
L 1259 2222 
L 1259 531 
L 3634 531 
L 3634 0 
L 628 0 
L 628 4666 
z
" transform="scale(0.015625)"/>
     <path id="DejaVuSans-54" d="M -19 4666 
L 3928 4666 
L 3928 4134 
L 2272 4134 
L 2272 0 
L 1638 0 
L 1638 4134 
L -19 4134 
L -19 4666 
z
" transform="scale(0.015625)"/>
     <path id="DejaVuSans-58" d="M 403 4666 
L 1081 4666 
L 2241 2931 
L 3406 4666 
L 4084 4666 
L 2584 2425 
L 4184 0 
L 3506 0 
L 2194 1984 
L 872 0 
L 191 0 
L 1856 2491 
L 403 4666 
z
" transform="scale(0.015625)"/>
    </defs>
    <use xlink:href="#DejaVuSans-53"/>
    <use xlink:href="#DejaVuSans-4f" x="63.476562"/>
    <use xlink:href="#DejaVuSans-4d" x="142.1875"/>
    <use xlink:href="#DejaVuSans-45" x="228.466797"/>
    <use xlink:href="#DejaVuSans-20" x="291.650391"/>
    <use xlink:href="#DejaVuSans-54" x="323.4375"/>
    <use xlink:href="#DejaVuSans-45" x="384.521484"/>
    <use xlink:href="#DejaVuSans-58" x="447.705078"/>
    <use xlink:href="#DejaVuSans-54" x="514.460938"/>
   </g>
  </g>
 </g>
 <defs>
  <clipPath id="peebdfee2cf">
   <rect x="52.94" y="26.88" width="512.26" height="219.16"/>
  </clipPath>
 </defs>
</svg>
