<?xml version="1.0" encoding="utf-8" standalone="no"?>
<!DOCTYPE svg PUBLIC "-//W3C//DTD SVG 1.1//EN"
  "http://www.w3.org/Graphics/SVG/1.1/DTD/svg11.dtd">
<svg xmlns:xlink="http://www.w3.org/1999/xlink" width="460.8pt" height="345.6pt" viewBox="0 0 460.8 345.6" xmlns="http://www.w3.org/2000/svg" version="1.1">
 <metadata>
  <rdf:RDF xmlns:dc="http://purl.org/dc/elements/1.1/" xmlns:cc="http://creativecommons.org/ns#" xmlns:rdf="http://www.w3.org/1999/02/22-rdf-syntax-ns#">
   <cc:Work>
    <dc:type rdf:resource="http://purl.org/dc/dcmitype/StillImage"/>
    <dc:date>2023-11-22T22:05:09.256900</dc:date>
    <dc:format>image/svg+xml</dc:format>
    <dc:creator>
     <cc:Agent>
      <dc:title>Matplotlib v3.8.1, https://matplotlib.org/</dc:title>
     </cc:Agent>
    </dc:creator>
   </cc:Work>
  </rdf:RDF>
 </metadata>
 <defs>
  <style type="text/css">*{stroke-linejoin: round; stroke-linecap: butt}</style>
 </defs>
 <g id="figure_1">
  <g id="patch_1">
   <path d="M 0 345.6 
L 460.8 345.6 
L 460.8 0 
L 0 0 
z
" style="fill: #ffffff"/>
  </g>
  <g id="axes_1">
   <g id="patch_2">
    <path d="M 57.6 307.584 
L 414.72 307.584 
L 414.72 41.472 
L 57.6 41.472 
z
" style="fill: #ffffff"/>
   </g>
   <g id="matplotlib.axis_1">
    <g id="xtick_1">
     <g id="line2d_1">
      <defs>
       <path id="m7eb77e831e" d="M 0 0 
L 0 3.5 
" style="stroke: #000000; stroke-width: 0.8"/>
      </defs>
      <g>
       <use xlink:href="#m7eb77e831e" x="75.464157" y="307.584" style="stroke: #000000; stroke-width: 0.8"/>
      </g>
     </g>
     <g id="text_1">
      <!-- 2024-01 -->
      <g transform="translate(54.572751 322.182437) scale(0.1 -0.1)">
       <defs>
        <path id="DejaVuSans-32" d="M 1228 531 
L 3431 531 
L 3431 0 
L 469 0 
L 469 531 
Q 828 903 1448 1529 
Q 2069 2156 2228 2338 
Q 2531 2678 2651 2914 
Q 2772 3150 2772 3378 
Q 2772 3750 2511 3984 
Q 2250 4219 1831 4219 
Q 1534 4219 1204 4116 
Q 875 4013 500 3803 
L 500 4441 
Q 881 4594 1212 4672 
Q 1544 4750 1819 4750 
Q 2544 4750 2975 4387 
Q 3406 4025 3406 3419 
Q 3406 3131 3298 2873 
Q 3191 2616 2906 2266 
Q 2828 2175 2409 1742 
Q 1991 1309 1228 531 
z
" transform="scale(0.015625)"/>
        <path id="DejaVuSans-30" d="M 2034 4250 
Q 1547 4250 1301 3770 
Q 1056 3291 1056 2328 
Q 1056 1369 1301 889 
Q 1547 409 2034 409 
Q 2525 409 2770 889 
Q 3016 1369 3016 2328 
Q 3016 3291 2770 3770 
Q 2525 4250 2034 4250 
z
M 2034 4750 
Q 2819 4750 3233 4129 
Q 3647 3509 3647 2328 
Q 3647 1150 3233 529 
Q 2819 -91 2034 -91 
Q 1250 -91 836 529 
Q 422 1150 422 2328 
Q 422 3509 836 4129 
Q 1250 4750 2034 4750 
z
" transform="scale(0.015625)"/>
        <path id="DejaVuSans-34" d="M 2419 4116 
L 825 1625 
L 2419 1625 
L 2419 4116 
z
M 2253 4666 
L 3047 4666 
L 3047 1625 
L 3713 1625 
L 3713 1100 
L 3047 1100 
L 3047 0 
L 2419 0 
L 2419 1100 
L 313 1100 
L 313 1709 
L 2253 4666 
z
" transform="scale(0.015625)"/>
        <path id="DejaVuSans-2d" d="M 313 2009 
L 1997 2009 
L 1997 1497 
L 313 1497 
L 313 2009 
z
" transform="scale(0.015625)"/>
        <path id="DejaVuSans-31" d="M 794 531 
L 1825 531 
L 1825 4091 
L 703 3866 
L 703 4441 
L 1819 4666 
L 2450 4666 
L 2450 531 
L 3481 531 
L 3481 0 
L 794 0 
L 794 531 
z
" transform="scale(0.015625)"/>
       </defs>
       <use xlink:href="#DejaVuSans-32"/>
       <use xlink:href="#DejaVuSans-30" x="63.623047"/>
       <use xlink:href="#DejaVuSans-32" x="127.246094"/>
       <use xlink:href="#DejaVuSans-34" x="190.869141"/>
       <use xlink:href="#DejaVuSans-2d" x="254.492188"/>
       <use xlink:href="#DejaVuSans-30" x="290.576172"/>
       <use xlink:href="#DejaVuSans-31" x="354.199219"/>
      </g>
     </g>
    </g>
    <g id="xtick_2">
     <g id="line2d_2">
      <g>
       <use xlink:href="#m7eb77e831e" x="126.038483" y="307.584" style="stroke: #000000; stroke-width: 0.8"/>
      </g>
     </g>
     <g id="text_2">
      <!-- 2024-02 -->
      <g transform="translate(105.147077 322.182437) scale(0.1 -0.1)">
       <use xlink:href="#DejaVuSans-32"/>
       <use xlink:href="#DejaVuSans-30" x="63.623047"/>
       <use xlink:href="#DejaVuSans-32" x="127.246094"/>
       <use xlink:href="#DejaVuSans-34" x="190.869141"/>
       <use xlink:href="#DejaVuSans-2d" x="254.492188"/>
       <use xlink:href="#DejaVuSans-30" x="290.576172"/>
       <use xlink:href="#DejaVuSans-32" x="354.199219"/>
      </g>
     </g>
    </g>
    <g id="xtick_3">
     <g id="line2d_3">
      <g>
       <use xlink:href="#m7eb77e831e" x="173.34995" y="307.584" style="stroke: #000000; stroke-width: 0.8"/>
      </g>
     </g>
     <g id="text_3">
      <!-- 2024-03 -->
      <g transform="translate(152.458543 322.182437) scale(0.1 -0.1)">
       <defs>
        <path id="DejaVuSans-33" d="M 2597 2516 
Q 3050 2419 3304 2112 
Q 3559 1806 3559 1356 
Q 3559 666 3084 287 
Q 2609 -91 1734 -91 
Q 1441 -91 1130 -33 
Q 819 25 488 141 
L 488 750 
Q 750 597 1062 519 
Q 1375 441 1716 441 
Q 2309 441 2620 675 
Q 2931 909 2931 1356 
Q 2931 1769 2642 2001 
Q 2353 2234 1838 2234 
L 1294 2234 
L 1294 2753 
L 1863 2753 
Q 2328 2753 2575 2939 
Q 2822 3125 2822 3475 
Q 2822 3834 2567 4026 
Q 2313 4219 1838 4219 
Q 1578 4219 1281 4162 
Q 984 4106 628 3988 
L 628 4550 
Q 988 4650 1302 4700 
Q 1616 4750 1894 4750 
Q 2613 4750 3031 4423 
Q 3450 4097 3450 3541 
Q 3450 3153 3228 2886 
Q 3006 2619 2597 2516 
z
" transform="scale(0.015625)"/>
       </defs>
       <use xlink:href="#DejaVuSans-32"/>
       <use xlink:href="#DejaVuSans-30" x="63.623047"/>
       <use xlink:href="#DejaVuSans-32" x="127.246094"/>
       <use xlink:href="#DejaVuSans-34" x="190.869141"/>
       <use xlink:href="#DejaVuSans-2d" x="254.492188"/>
       <use xlink:href="#DejaVuSans-30" x="290.576172"/>
       <use xlink:href="#DejaVuSans-33" x="354.199219"/>
      </g>
     </g>
    </g>
    <g id="xtick_4">
     <g id="line2d_4">
      <g>
       <use xlink:href="#m7eb77e831e" x="223.924276" y="307.584" style="stroke: #000000; stroke-width: 0.8"/>
      </g>
     </g>
     <g id="text_4">
      <!-- 2024-04 -->
      <g transform="translate(203.03287 322.182437) scale(0.1 -0.1)">
       <use xlink:href="#DejaVuSans-32"/>
       <use xlink:href="#DejaVuSans-30" x="63.623047"/>
       <use xlink:href="#DejaVuSans-32" x="127.246094"/>
       <use xlink:href="#DejaVuSans-34" x="190.869141"/>
       <use xlink:href="#DejaVuSans-2d" x="254.492188"/>
       <use xlink:href="#DejaVuSans-30" x="290.576172"/>
       <use xlink:href="#DejaVuSans-34" x="354.199219"/>
      </g>
     </g>
    </g>
    <g id="xtick_5">
     <g id="line2d_5">
      <g>
       <use xlink:href="#m7eb77e831e" x="272.867172" y="307.584" style="stroke: #000000; stroke-width: 0.8"/>
      </g>
     </g>
     <g id="text_5">
      <!-- 2024-05 -->
      <g transform="translate(251.975766 322.182437) scale(0.1 -0.1)">
       <defs>
        <path id="DejaVuSans-35" d="M 691 4666 
L 3169 4666 
L 3169 4134 
L 1269 4134 
L 1269 2991 
Q 1406 3038 1543 3061 
Q 1681 3084 1819 3084 
Q 2600 3084 3056 2656 
Q 3513 2228 3513 1497 
Q 3513 744 3044 326 
Q 2575 -91 1722 -91 
Q 1428 -91 1123 -41 
Q 819 9 494 109 
L 494 744 
Q 775 591 1075 516 
Q 1375 441 1709 441 
Q 2250 441 2565 725 
Q 2881 1009 2881 1497 
Q 2881 1984 2565 2268 
Q 2250 2553 1709 2553 
Q 1456 2553 1204 2497 
Q 953 2441 691 2322 
L 691 4666 
z
" transform="scale(0.015625)"/>
       </defs>
       <use xlink:href="#DejaVuSans-32"/>
       <use xlink:href="#DejaVuSans-30" x="63.623047"/>
       <use xlink:href="#DejaVuSans-32" x="127.246094"/>
       <use xlink:href="#DejaVuSans-34" x="190.869141"/>
       <use xlink:href="#DejaVuSans-2d" x="254.492188"/>
       <use xlink:href="#DejaVuSans-30" x="290.576172"/>
       <use xlink:href="#DejaVuSans-35" x="354.199219"/>
      </g>
     </g>
    </g>
    <g id="xtick_6">
     <g id="line2d_6">
      <g>
       <use xlink:href="#m7eb77e831e" x="323.441498" y="307.584" style="stroke: #000000; stroke-width: 0.8"/>
      </g>
     </g>
     <g id="text_6">
      <!-- 2024-06 -->
      <g transform="translate(302.550092 322.182437) scale(0.1 -0.1)">
       <defs>
        <path id="DejaVuSans-36" d="M 2113 2584 
Q 1688 2584 1439 2293 
Q 1191 2003 1191 1497 
Q 1191 994 1439 701 
Q 1688 409 2113 409 
Q 2538 409 2786 701 
Q 3034 994 3034 1497 
Q 3034 2003 2786 2293 
Q 2538 2584 2113 2584 
z
M 3366 4563 
L 3366 3988 
Q 3128 4100 2886 4159 
Q 2644 4219 2406 4219 
Q 1781 4219 1451 3797 
Q 1122 3375 1075 2522 
Q 1259 2794 1537 2939 
Q 1816 3084 2150 3084 
Q 2853 3084 3261 2657 
Q 3669 2231 3669 1497 
Q 3669 778 3244 343 
Q 2819 -91 2113 -91 
Q 1303 -91 875 529 
Q 447 1150 447 2328 
Q 447 3434 972 4092 
Q 1497 4750 2381 4750 
Q 2619 4750 2861 4703 
Q 3103 4656 3366 4563 
z
" transform="scale(0.015625)"/>
       </defs>
       <use xlink:href="#DejaVuSans-32"/>
       <use xlink:href="#DejaVuSans-30" x="63.623047"/>
       <use xlink:href="#DejaVuSans-32" x="127.246094"/>
       <use xlink:href="#DejaVuSans-34" x="190.869141"/>
       <use xlink:href="#DejaVuSans-2d" x="254.492188"/>
       <use xlink:href="#DejaVuSans-30" x="290.576172"/>
       <use xlink:href="#DejaVuSans-36" x="354.199219"/>
      </g>
     </g>
    </g>
    <g id="xtick_7">
     <g id="line2d_7">
      <g>
       <use xlink:href="#m7eb77e831e" x="372.384395" y="307.584" style="stroke: #000000; stroke-width: 0.8"/>
      </g>
     </g>
     <g id="text_7">
      <!-- 2024-07 -->
      <g transform="translate(351.492988 322.182437) scale(0.1 -0.1)">
       <defs>
        <path id="DejaVuSans-37" d="M 525 4666 
L 3525 4666 
L 3525 4397 
L 1831 0 
L 1172 0 
L 2766 4134 
L 525 4134 
L 525 4666 
z
" transform="scale(0.015625)"/>
       </defs>
       <use xlink:href="#DejaVuSans-32"/>
       <use xlink:href="#DejaVuSans-30" x="63.623047"/>
       <use xlink:href="#DejaVuSans-32" x="127.246094"/>
       <use xlink:href="#DejaVuSans-34" x="190.869141"/>
       <use xlink:href="#DejaVuSans-2d" x="254.492188"/>
       <use xlink:href="#DejaVuSans-30" x="290.576172"/>
       <use xlink:href="#DejaVuSans-37" x="354.199219"/>
      </g>
     </g>
    </g>
   </g>
   <g id="matplotlib.axis_2">
    <g id="ytick_1">
     <g id="line2d_8">
      <defs>
       <path id="m46e0ef9dc5" d="M 0 0 
L -3.5 0 
" style="stroke: #000000; stroke-width: 0.8"/>
      </defs>
      <g>
       <use xlink:href="#m46e0ef9dc5" x="57.6" y="285.398743" style="stroke: #000000; stroke-width: 0.8"/>
      </g>
     </g>
     <g id="text_8">
      <!-- −20 -->
      <g transform="translate(29.495313 289.197962) scale(0.1 -0.1)">
       <defs>
        <path id="DejaVuSans-2212" d="M 678 2272 
L 4684 2272 
L 4684 1741 
L 678 1741 
L 678 2272 
z
" transform="scale(0.015625)"/>
       </defs>
       <use xlink:href="#DejaVuSans-2212"/>
       <use xlink:href="#DejaVuSans-32" x="83.789062"/>
       <use xlink:href="#DejaVuSans-30" x="147.412109"/>
      </g>
     </g>
    </g>
    <g id="ytick_2">
     <g id="line2d_9">
      <g>
       <use xlink:href="#m46e0ef9dc5" x="57.6" y="246.82025" style="stroke: #000000; stroke-width: 0.8"/>
      </g>
     </g>
     <g id="text_9">
      <!-- −15 -->
      <g transform="translate(29.495313 250.619469) scale(0.1 -0.1)">
       <use xlink:href="#DejaVuSans-2212"/>
       <use xlink:href="#DejaVuSans-31" x="83.789062"/>
       <use xlink:href="#DejaVuSans-35" x="147.412109"/>
      </g>
     </g>
    </g>
    <g id="ytick_3">
     <g id="line2d_10">
      <g>
       <use xlink:href="#m46e0ef9dc5" x="57.6" y="208.241757" style="stroke: #000000; stroke-width: 0.8"/>
      </g>
     </g>
     <g id="text_10">
      <!-- −10 -->
      <g transform="translate(29.495313 212.040976) scale(0.1 -0.1)">
       <use xlink:href="#DejaVuSans-2212"/>
       <use xlink:href="#DejaVuSans-31" x="83.789062"/>
       <use xlink:href="#DejaVuSans-30" x="147.412109"/>
      </g>
     </g>
    </g>
    <g id="ytick_4">
     <g id="line2d_11">
      <g>
       <use xlink:href="#m46e0ef9dc5" x="57.6" y="169.663265" style="stroke: #000000; stroke-width: 0.8"/>
      </g>
     </g>
     <g id="text_11">
      <!-- −5 -->
      <g transform="translate(35.857813 173.462483) scale(0.1 -0.1)">
       <use xlink:href="#DejaVuSans-2212"/>
       <use xlink:href="#DejaVuSans-35" x="83.789062"/>
      </g>
     </g>
    </g>
    <g id="ytick_5">
     <g id="line2d_12">
      <g>
       <use xlink:href="#m46e0ef9dc5" x="57.6" y="131.084772" style="stroke: #000000; stroke-width: 0.8"/>
      </g>
     </g>
     <g id="text_12">
      <!-- 0 -->
      <g transform="translate(44.2375 134.88399) scale(0.1 -0.1)">
       <use xlink:href="#DejaVuSans-30"/>
      </g>
     </g>
    </g>
    <g id="ytick_6">
     <g id="line2d_13">
      <g>
       <use xlink:href="#m46e0ef9dc5" x="57.6" y="92.506279" style="stroke: #000000; stroke-width: 0.8"/>
      </g>
     </g>
     <g id="text_13">
      <!-- 5 -->
      <g transform="translate(44.2375 96.305497) scale(0.1 -0.1)">
       <use xlink:href="#DejaVuSans-35"/>
      </g>
     </g>
    </g>
    <g id="ytick_7">
     <g id="line2d_14">
      <g>
       <use xlink:href="#m46e0ef9dc5" x="57.6" y="53.927786" style="stroke: #000000; stroke-width: 0.8"/>
      </g>
     </g>
     <g id="text_14">
      <!-- 10 -->
      <g transform="translate(37.875 57.727004) scale(0.1 -0.1)">
       <use xlink:href="#DejaVuSans-31"/>
       <use xlink:href="#DejaVuSans-30" x="63.623047"/>
      </g>
     </g>
    </g>
   </g>
   <g id="line2d_15">
    <path d="M 73.832727 127.324829 
L 75.464157 137.894604 
L 77.095587 132.868903 
L 78.727017 136.456665 
L 80.358447 123.949926 
L 81.989877 109.729404 
L 85.252736 115.970176 
L 86.884166 129.159625 
L 88.515596 128.321576 
L 90.147026 124.957417 
L 91.778456 129.067297 
L 93.409886 135.363903 
L 95.041316 132.109513 
L 96.672746 147.739615 
L 98.304175 142.978063 
L 99.935605 142.057348 
L 101.567035 137.838833 
L 103.198465 142.757898 
L 104.829895 142.995444 
L 106.461325 138.784441 
L 108.092755 132.183116 
L 109.724185 143.233982 
L 111.355614 151.383523 
L 112.987044 155.346303 
L 114.618474 152.735429 
L 116.249904 147.497877 
L 117.881334 145.599182 
L 119.512764 151.027895 
L 121.144194 149.916135 
L 122.775624 140.40909 
L 124.407053 134.490049 
L 126.038483 148.972498 
L 127.669913 152.649559 
L 129.301343 157.986568 
L 130.932773 161.227464 
L 132.564203 167.217844 
L 134.195633 153.442859 
L 135.827063 152.051457 
L 137.458492 147.90927 
L 139.089922 152.433525 
L 140.721352 151.981405 
L 142.352782 159.544131 
L 143.984212 156.510133 
L 145.615642 149.634979 
L 147.247072 148.605164 
L 148.878502 143.924176 
L 150.509931 150.103132 
L 152.141361 150.38843 
L 153.772791 153.513248 
L 155.404221 143.14985 
L 157.035651 144.470594 
L 158.667081 134.544352 
L 161.929941 143.648371 
L 163.56137 143.275765 
L 165.1928 134.508821 
L 166.82423 130.941149 
L 168.45566 149.702745 
L 170.08709 159.606949 
L 171.71852 163.112271 
L 173.34995 173.437937 
L 174.98138 176.007981 
L 176.61281 176.923732 
L 178.244239 169.756609 
L 179.875669 183.01631 
L 181.507099 183.042352 
L 183.138529 185.749105 
L 184.769959 179.481486 
L 186.401389 165.022936 
L 188.032819 174.629212 
L 189.664249 168.135234 
L 191.295678 169.760572 
L 192.927108 164.754775 
L 194.558538 168.54098 
L 196.189968 161.5266 
L 197.821398 158.978382 
L 199.452828 154.820955 
L 201.084258 168.541139 
L 202.715688 172.384492 
L 204.347117 165.575944 
L 205.978547 165.898626 
L 207.609977 160.507735 
L 209.241407 160.024392 
L 210.872837 156.41457 
L 212.504267 160.589638 
L 214.135697 160.240477 
L 215.767127 177.677589 
L 217.398556 190.511127 
L 219.029986 183.154406 
L 220.661416 173.777077 
L 222.292846 185.427175 
L 223.924276 175.084063 
L 225.555706 166.574944 
L 227.187136 164.879456 
L 228.818566 159.704419 
L 230.449995 153.95197 
L 232.081425 139.070829 
L 233.712855 141.708307 
L 235.344285 137.979377 
L 236.975715 135.553265 
L 238.607145 131.148556 
L 240.238575 121.887229 
L 241.870005 133.511748 
L 243.501434 123.253134 
L 245.132864 131.37686 
L 246.764294 140.420129 
L 248.395724 138.062215 
L 250.027154 139.011355 
L 251.658584 148.216469 
L 253.290014 153.351184 
L 258.184303 167.570808 
L 259.815733 167.593412 
L 261.447163 167.995304 
L 263.078593 158.974929 
L 264.710023 162.266396 
L 266.341453 166.373435 
L 267.972883 163.835367 
L 269.604312 170.704919 
L 271.235742 172.537889 
L 272.867172 184.314712 
L 274.498602 170.195834 
L 276.130032 165.523194 
L 277.761462 163.263986 
L 279.392892 160.546167 
L 281.024322 147.631994 
L 282.655751 150.094918 
L 284.287181 152.921006 
L 285.918611 156.479501 
L 287.550041 163.870917 
L 289.181471 168.65316 
L 290.812901 172.057493 
L 292.444331 171.910927 
L 294.075761 168.776533 
L 295.70719 159.583647 
L 297.33862 169.286272 
L 298.97005 166.998193 
L 300.60148 157.044675 
L 302.23291 168.852605 
L 303.86434 158.317767 
L 305.49577 151.283035 
L 307.1272 150.965468 
L 308.75863 141.03377 
L 310.390059 143.033108 
L 312.021489 138.524588 
L 313.652919 138.337269 
L 315.284349 134.702281 
L 316.915779 132.331945 
L 318.547209 123.630635 
L 320.178639 118.085431 
L 321.810069 114.995034 
L 325.072928 104.695785 
L 326.704358 97.405851 
L 328.335788 83.967249 
L 329.967218 80.973623 
L 331.598648 92.864377 
L 333.230078 93.215978 
L 334.861508 101.522662 
L 336.492937 102.758574 
L 338.124367 103.192612 
L 339.755797 98.375295 
L 341.387227 104.561135 
L 343.018657 105.534218 
L 344.650087 94.466912 
L 346.281517 110.809482 
L 347.912947 110.20505 
L 351.175806 83.022677 
L 352.807236 75.116824 
L 354.438666 83.43038 
L 356.070096 85.844939 
L 357.701526 82.213297 
L 359.332956 69.729213 
L 360.964386 79.50853 
L 362.595815 73.230215 
L 364.227245 85.358813 
L 365.858675 86.603626 
L 367.490105 85.717281 
L 369.121535 83.238445 
L 370.752965 87.89882 
L 372.384395 75.062622 
L 374.015825 66.436042 
L 375.647254 72.938837 
L 377.278684 70.076349 
L 378.910114 64.796776 
L 380.541544 78.710442 
L 382.172974 76.291652 
L 383.804404 77.794527 
L 385.435834 76.024253 
L 387.067264 67.838203 
L 388.698693 73.014879 
L 390.330123 60.028219 
L 391.961553 53.568 
L 393.592983 64.651825 
L 395.224413 69.543948 
L 396.855843 75.095722 
L 398.487273 71.703404 
L 398.487273 71.703404 
" clip-path="url(#pf34524fb31)" style="fill: none; stroke: #000000; stroke-width: 2; stroke-linecap: square"/>
   </g>
   <g id="line2d_16">
    <path d="M 73.832727 148.057531 
L 75.464157 142.199574 
L 77.095587 138.89721 
L 78.727017 138.640288 
L 80.358447 147.898032 
L 81.989877 149.137817 
L 83.621307 148.584604 
L 85.252736 157.938804 
L 86.884166 169.173552 
L 88.515596 165.282247 
L 90.147026 169.146554 
L 91.778456 178.61489 
L 93.409886 177.697002 
L 95.041316 173.136541 
L 96.672746 191.994947 
L 98.304175 189.102683 
L 99.935605 178.801573 
L 101.567035 173.584195 
L 103.198465 164.776085 
L 104.829895 158.095664 
L 106.461325 168.806696 
L 108.092755 155.574195 
L 109.724185 151.993913 
L 111.355614 132.181433 
L 112.987044 137.543974 
L 114.618474 137.219125 
L 116.249904 136.137529 
L 117.881334 141.675034 
L 119.512764 143.897157 
L 121.144194 156.641488 
L 122.775624 167.239475 
L 124.407053 150.734602 
L 126.038483 145.698577 
L 127.669913 144.068058 
L 129.301343 149.785051 
L 130.932773 139.45229 
L 132.564203 147.000599 
L 134.195633 157.178913 
L 135.827063 159.88172 
L 137.458492 165.832855 
L 139.089922 160.074249 
L 140.721352 151.958726 
L 142.352782 151.271646 
L 143.984212 156.046011 
L 145.615642 138.268156 
L 147.247072 151.784537 
L 148.878502 160.899422 
L 152.141361 147.329241 
L 153.772791 147.613024 
L 155.404221 153.906122 
L 158.667081 182.229457 
L 160.298511 183.564589 
L 161.929941 187.375976 
L 163.56137 168.312947 
L 165.1928 177.907254 
L 166.82423 183.001381 
L 168.45566 173.538643 
L 170.08709 188.224355 
L 171.71852 196.806858 
L 173.34995 209.402634 
L 174.98138 208.887332 
L 176.61281 217.975405 
L 178.244239 210.352733 
L 179.875669 202.060234 
L 181.507099 199.354853 
L 183.138529 211.181823 
L 184.769959 207.028314 
L 186.401389 208.484085 
L 188.032819 204.765256 
L 189.664249 198.066605 
L 191.295678 200.817964 
L 192.927108 186.610148 
L 194.558538 184.302922 
L 196.189968 201.066144 
L 197.821398 206.622348 
L 199.452828 188.704815 
L 201.084258 180.583796 
L 202.715688 184.989343 
L 204.347117 190.326659 
L 205.978547 197.820285 
L 207.609977 204.312102 
L 209.241407 182.4546 
L 210.872837 182.537468 
L 212.504267 202.145497 
L 214.135697 201.456512 
L 215.767127 212.491521 
L 217.398556 198.650744 
L 219.029986 201.069754 
L 220.661416 202.594318 
L 222.292846 208.182486 
L 223.924276 214.525964 
L 225.555706 212.338188 
L 227.187136 211.144065 
L 228.818566 205.48822 
L 230.449995 214.099267 
L 232.081425 213.176398 
L 233.712855 219.797419 
L 235.344285 232.669149 
L 236.975715 212.156945 
L 238.607145 216.843366 
L 240.238575 224.423269 
L 241.870005 222.328615 
L 243.501434 221.892916 
L 245.132864 222.365309 
L 246.764294 212.652453 
L 248.395724 195.069804 
L 250.027154 213.352851 
L 251.658584 205.344798 
L 253.290014 200.368117 
L 254.921444 195.838798 
L 256.552873 198.655019 
L 258.184303 207.412809 
L 259.815733 215.311363 
L 261.447163 211.00354 
L 263.078593 212.049949 
L 264.710023 186.162973 
L 266.341453 180.301826 
L 267.972883 180.079616 
L 269.604312 195.565431 
L 271.235742 182.482345 
L 272.867172 188.956313 
L 274.498602 187.101357 
L 276.130032 188.704189 
L 277.761462 194.620271 
L 281.024322 196.237191 
L 282.655751 194.233122 
L 284.287181 199.84352 
L 285.918611 203.511847 
L 287.550041 210.172721 
L 289.181471 212.703363 
L 290.812901 215.949283 
L 292.444331 224.970081 
L 294.075761 204.521957 
L 295.70719 205.231238 
L 297.33862 196.033455 
L 300.60148 192.498082 
L 302.23291 200.186802 
L 303.86434 203.000143 
L 305.49577 205.584283 
L 307.1272 198.765232 
L 308.75863 208.395254 
L 310.390059 223.115381 
L 312.021489 227.092135 
L 313.652919 226.519115 
L 315.284349 233.928071 
L 316.915779 225.168091 
L 318.547209 237.257805 
L 320.178639 223.427529 
L 321.810069 223.943726 
L 323.441498 218.797145 
L 325.072928 225.313847 
L 326.704358 215.403271 
L 328.335788 211.042195 
L 329.967218 216.702763 
L 331.598648 212.064866 
L 333.230078 221.231473 
L 334.861508 231.876435 
L 336.492937 214.797438 
L 338.124367 207.440954 
L 339.755797 213.602032 
L 341.387227 207.840815 
L 343.018657 194.885314 
L 344.650087 188.67335 
L 346.281517 191.241796 
L 347.912947 174.754342 
L 349.544376 163.590837 
L 351.175806 164.819196 
L 352.807236 163.330498 
L 354.438666 170.46645 
L 356.070096 175.12867 
L 357.701526 174.183358 
L 359.332956 171.946153 
L 360.964386 177.295473 
L 362.595815 169.375736 
L 364.227245 166.942227 
L 365.858675 172.922131 
L 367.490105 174.900242 
L 369.121535 172.588192 
L 370.752965 162.868283 
L 372.384395 172.871303 
L 374.015825 165.691141 
L 375.647254 171.400372 
L 377.278684 174.073993 
L 378.910114 175.995892 
L 380.541544 172.948144 
L 382.172974 184.62128 
L 383.804404 190.580329 
L 385.435834 187.987218 
L 387.067264 184.246637 
L 388.698693 171.088551 
L 390.330123 187.408321 
L 391.961553 190.379942 
L 393.592983 181.297695 
L 395.224413 191.550496 
L 396.855843 204.712433 
L 398.487273 205.356969 
L 398.487273 205.356969 
" clip-path="url(#pf34524fb31)" style="fill: none; stroke: #bfbf00; stroke-width: 2; stroke-linecap: square"/>
   </g>
   <g id="line2d_17">
    <path d="M 73.832727 126.322281 
L 75.464157 137.72117 
L 77.095587 139.24274 
L 78.727017 143.877763 
L 80.358447 137.187824 
L 81.989877 139.988048 
L 83.621307 150.556943 
L 85.252736 140.850351 
L 86.884166 144.663852 
L 88.515596 145.872287 
L 90.147026 145.128251 
L 91.778456 157.669939 
L 93.409886 178.015416 
L 95.041316 176.668213 
L 96.672746 166.88784 
L 98.304175 167.663704 
L 99.935605 182.506066 
L 101.567035 173.979522 
L 103.198465 181.491665 
L 104.829895 182.352944 
L 106.461325 179.473704 
L 108.092755 186.764714 
L 109.724185 182.412761 
L 111.355614 182.281899 
L 112.987044 192.397208 
L 114.618474 199.606937 
L 116.249904 194.451175 
L 117.881334 190.825694 
L 119.512764 185.521946 
L 121.144194 192.776316 
L 122.775624 194.295 
L 124.407053 189.452618 
L 126.038483 209.10126 
L 127.669913 213.392189 
L 129.301343 215.897358 
L 130.932773 223.073105 
L 132.564203 225.706152 
L 134.195633 221.894733 
L 135.827063 213.965313 
L 137.458492 210.637507 
L 139.089922 217.32515 
L 140.721352 220.655266 
L 142.352782 212.85882 
L 143.984212 208.601475 
L 145.615642 222.197767 
L 147.247072 215.473206 
L 148.878502 221.228498 
L 150.509931 214.376913 
L 152.141361 227.074568 
L 153.772791 224.862746 
L 155.404221 235.299648 
L 157.035651 227.099228 
L 158.667081 234.289828 
L 160.298511 243.193945 
L 161.929941 230.609194 
L 163.56137 222.570057 
L 165.1928 224.440072 
L 166.82423 221.558853 
L 168.45566 226.770148 
L 170.08709 214.887065 
L 171.71852 213.541898 
L 173.34995 187.766984 
L 174.98138 187.348438 
L 176.61281 192.130527 
L 178.244239 188.471761 
L 179.875669 192.49313 
L 181.507099 200.087843 
L 183.138529 200.161991 
L 184.769959 202.018117 
L 186.401389 185.244586 
L 188.032819 192.101069 
L 189.664249 200.115872 
L 191.295678 205.686152 
L 192.927108 199.302439 
L 194.558538 201.933475 
L 196.189968 203.748539 
L 197.821398 206.426492 
L 199.452828 209.608854 
L 201.084258 206.107642 
L 202.715688 189.814104 
L 204.347117 185.050858 
L 205.978547 183.219493 
L 207.609977 182.105588 
L 209.241407 185.746993 
L 210.872837 176.113141 
L 212.504267 182.079259 
L 214.135697 167.633577 
L 215.767127 177.995927 
L 217.398556 166.430716 
L 219.029986 148.221637 
L 220.661416 165.46925 
L 222.292846 166.367679 
L 223.924276 159.300338 
L 225.555706 161.891291 
L 227.187136 161.607709 
L 228.818566 178.090677 
L 230.449995 182.276804 
L 232.081425 181.492675 
L 233.712855 189.689436 
L 235.344285 196.174023 
L 236.975715 206.224354 
L 238.607145 200.011505 
L 241.870005 212.49781 
L 243.501434 223.75541 
L 246.764294 234.609002 
L 248.395724 241.912793 
L 250.027154 231.356595 
L 251.658584 224.51923 
L 253.290014 225.92081 
L 254.921444 237.378459 
L 256.552873 245.904291 
L 258.184303 243.004949 
L 259.815733 250.130926 
L 261.447163 242.712899 
L 263.078593 232.932316 
L 264.710023 230.596798 
L 266.341453 230.976935 
L 267.972883 227.958213 
L 269.604312 219.910938 
L 271.235742 221.64085 
L 272.867172 219.737893 
L 274.498602 218.938079 
L 276.130032 218.791817 
L 277.761462 216.883841 
L 279.392892 221.931118 
L 281.024322 212.913245 
L 282.655751 215.249049 
L 284.287181 203.56629 
L 285.918611 213.640183 
L 287.550041 226.364234 
L 289.181471 224.397402 
L 290.812901 223.992295 
L 292.444331 227.987506 
L 294.075761 234.888654 
L 295.70719 227.216119 
L 297.33862 233.698688 
L 298.97005 235.639931 
L 300.60148 238.332898 
L 303.86434 253.730696 
L 305.49577 262.940696 
L 307.1272 261.143339 
L 308.75863 251.318175 
L 310.390059 253.523461 
L 312.021489 261.550478 
L 313.652919 261.899972 
L 315.284349 248.070383 
L 316.915779 235.983623 
L 318.547209 238.791627 
L 320.178639 239.464761 
L 321.810069 238.122642 
L 325.072928 250.547213 
L 326.704358 262.213376 
L 328.335788 270.142494 
L 329.967218 255.500994 
L 331.598648 253.87651 
L 333.230078 251.656748 
L 334.861508 253.034864 
L 336.492937 235.972531 
L 338.124367 237.248746 
L 339.755797 253.391606 
L 341.387227 244.019975 
L 343.018657 256.184924 
L 344.650087 248.229443 
L 346.281517 253.467231 
L 347.912947 257.949819 
L 349.544376 254.778586 
L 351.175806 264.892133 
L 352.807236 268.184304 
L 354.438666 272.137273 
L 356.070096 272.116398 
L 357.701526 267.676229 
L 359.332956 269.030878 
L 360.964386 273.14349 
L 362.595815 275.767884 
L 364.227245 280.641827 
L 365.858675 286.579057 
L 367.490105 286.187526 
L 369.121535 283.996653 
L 370.752965 277.524737 
L 372.384395 280.765224 
L 374.015825 278.868965 
L 375.647254 285.142168 
L 377.278684 283.003902 
L 378.910114 274.46364 
L 380.541544 269.086105 
L 382.172974 268.952065 
L 383.804404 279.849651 
L 385.435834 278.904563 
L 387.067264 275.605878 
L 390.330123 295.488 
L 391.961553 291.013034 
L 393.592983 277.1446 
L 395.224413 273.488626 
L 398.487273 286.066647 
L 398.487273 286.066647 
" clip-path="url(#pf34524fb31)" style="fill: none; stroke: #bf00bf; stroke-width: 2; stroke-linecap: square"/>
   </g>
   <g id="patch_3">
    <path d="M 57.6 307.584 
L 57.6 41.472 
" style="fill: none; stroke: #000000; stroke-width: 0.8; stroke-linejoin: miter; stroke-linecap: square"/>
   </g>
   <g id="patch_4">
    <path d="M 414.72 307.584 
L 414.72 41.472 
" style="fill: none; stroke: #000000; stroke-width: 0.8; stroke-linejoin: miter; stroke-linecap: square"/>
   </g>
   <g id="patch_5">
    <path d="M 57.6 307.584 
L 414.72 307.584 
" style="fill: none; stroke: #000000; stroke-width: 0.8; stroke-linejoin: miter; stroke-linecap: square"/>
   </g>
   <g id="patch_6">
    <path d="M 57.6 41.472 
L 414.72 41.472 
" style="fill: none; stroke: #000000; stroke-width: 0.8; stroke-linejoin: miter; stroke-linecap: square"/>
   </g>
  </g>
 </g>
 <defs>
  <clipPath id="pf34524fb31">
   <rect x="57.6" y="41.472" width="357.12" height="266.112"/>
  </clipPath>
 </defs>
</svg>
