<?xml version="1.0" encoding="utf-8" standalone="no"?>
<!DOCTYPE svg PUBLIC "-//W3C//DTD SVG 1.1//EN"
  "http://www.w3.org/Graphics/SVG/1.1/DTD/svg11.dtd">
<svg xmlns:xlink="http://www.w3.org/1999/xlink" width="576pt" height="288pt" viewBox="0 0 576 288" xmlns="http://www.w3.org/2000/svg" version="1.1">
 <metadata>
  <rdf:RDF xmlns:dc="http://purl.org/dc/elements/1.1/" xmlns:cc="http://creativecommons.org/ns#" xmlns:rdf="http://www.w3.org/1999/02/22-rdf-syntax-ns#">
   <cc:Work>
    <dc:type rdf:resource="http://purl.org/dc/dcmitype/StillImage"/>
    <dc:date>2023-11-22T22:05:37.923520</dc:date>
    <dc:format>image/svg+xml</dc:format>
    <dc:creator>
     <cc:Agent>
      <dc:title>Matplotlib v3.8.1, https://matplotlib.org/</dc:title>
     </cc:Agent>
    </dc:creator>
   </cc:Work>
  </rdf:RDF>
 </metadata>
 <defs>
  <style type="text/css">*{stroke-linejoin: round; stroke-linecap: butt}</style>
 </defs>
 <g id="figure_1">
  <g id="patch_1">
   <path d="M 0 288 
L 576 288 
L 576 0 
L 0 0 
z
" style="fill: #ffffff"/>
  </g>
  <g id="axes_1">
   <g id="patch_2">
    <path d="M 72 256.32 
L 518.4 256.32 
L 518.4 34.56 
L 72 34.56 
z
" style="fill: #ffffff"/>
   </g>
   <g id="matplotlib.axis_1">
    <g id="xtick_1">
     <g id="line2d_1">
      <defs>
       <path id="m94d49c81cb" d="M 0 0 
L 0 3.5 
" style="stroke: #000000; stroke-width: 0.8"/>
      </defs>
      <g>
       <use xlink:href="#m94d49c81cb" x="94.330196" y="256.32" style="stroke: #000000; stroke-width: 0.8"/>
      </g>
     </g>
     <g id="text_1">
      <!-- 2024-01 -->
      <g transform="translate(73.43879 270.918437) scale(0.1 -0.1)">
       <defs>
        <path id="DejaVuSans-32" d="M 1228 531 
L 3431 531 
L 3431 0 
L 469 0 
L 469 531 
Q 828 903 1448 1529 
Q 2069 2156 2228 2338 
Q 2531 2678 2651 2914 
Q 2772 3150 2772 3378 
Q 2772 3750 2511 3984 
Q 2250 4219 1831 4219 
Q 1534 4219 1204 4116 
Q 875 4013 500 3803 
L 500 4441 
Q 881 4594 1212 4672 
Q 1544 4750 1819 4750 
Q 2544 4750 2975 4387 
Q 3406 4025 3406 3419 
Q 3406 3131 3298 2873 
Q 3191 2616 2906 2266 
Q 2828 2175 2409 1742 
Q 1991 1309 1228 531 
z
" transform="scale(0.015625)"/>
        <path id="DejaVuSans-30" d="M 2034 4250 
Q 1547 4250 1301 3770 
Q 1056 3291 1056 2328 
Q 1056 1369 1301 889 
Q 1547 409 2034 409 
Q 2525 409 2770 889 
Q 3016 1369 3016 2328 
Q 3016 3291 2770 3770 
Q 2525 4250 2034 4250 
z
M 2034 4750 
Q 2819 4750 3233 4129 
Q 3647 3509 3647 2328 
Q 3647 1150 3233 529 
Q 2819 -91 2034 -91 
Q 1250 -91 836 529 
Q 422 1150 422 2328 
Q 422 3509 836 4129 
Q 1250 4750 2034 4750 
z
" transform="scale(0.015625)"/>
        <path id="DejaVuSans-34" d="M 2419 4116 
L 825 1625 
L 2419 1625 
L 2419 4116 
z
M 2253 4666 
L 3047 4666 
L 3047 1625 
L 3713 1625 
L 3713 1100 
L 3047 1100 
L 3047 0 
L 2419 0 
L 2419 1100 
L 313 1100 
L 313 1709 
L 2253 4666 
z
" transform="scale(0.015625)"/>
        <path id="DejaVuSans-2d" d="M 313 2009 
L 1997 2009 
L 1997 1497 
L 313 1497 
L 313 2009 
z
" transform="scale(0.015625)"/>
        <path id="DejaVuSans-31" d="M 794 531 
L 1825 531 
L 1825 4091 
L 703 3866 
L 703 4441 
L 1819 4666 
L 2450 4666 
L 2450 531 
L 3481 531 
L 3481 0 
L 794 0 
L 794 531 
z
" transform="scale(0.015625)"/>
       </defs>
       <use xlink:href="#DejaVuSans-32"/>
       <use xlink:href="#DejaVuSans-30" x="63.623047"/>
       <use xlink:href="#DejaVuSans-32" x="127.246094"/>
       <use xlink:href="#DejaVuSans-34" x="190.869141"/>
       <use xlink:href="#DejaVuSans-2d" x="254.492188"/>
       <use xlink:href="#DejaVuSans-30" x="290.576172"/>
       <use xlink:href="#DejaVuSans-31" x="354.199219"/>
      </g>
     </g>
    </g>
    <g id="xtick_2">
     <g id="line2d_2">
      <g>
       <use xlink:href="#m94d49c81cb" x="157.548104" y="256.32" style="stroke: #000000; stroke-width: 0.8"/>
      </g>
     </g>
     <g id="text_2">
      <!-- 2024-02 -->
      <g transform="translate(136.656698 270.918437) scale(0.1 -0.1)">
       <use xlink:href="#DejaVuSans-32"/>
       <use xlink:href="#DejaVuSans-30" x="63.623047"/>
       <use xlink:href="#DejaVuSans-32" x="127.246094"/>
       <use xlink:href="#DejaVuSans-34" x="190.869141"/>
       <use xlink:href="#DejaVuSans-2d" x="254.492188"/>
       <use xlink:href="#DejaVuSans-30" x="290.576172"/>
       <use xlink:href="#DejaVuSans-32" x="354.199219"/>
      </g>
     </g>
    </g>
    <g id="xtick_3">
     <g id="line2d_3">
      <g>
       <use xlink:href="#m94d49c81cb" x="216.687437" y="256.32" style="stroke: #000000; stroke-width: 0.8"/>
      </g>
     </g>
     <g id="text_3">
      <!-- 2024-03 -->
      <g transform="translate(195.796031 270.918437) scale(0.1 -0.1)">
       <defs>
        <path id="DejaVuSans-33" d="M 2597 2516 
Q 3050 2419 3304 2112 
Q 3559 1806 3559 1356 
Q 3559 666 3084 287 
Q 2609 -91 1734 -91 
Q 1441 -91 1130 -33 
Q 819 25 488 141 
L 488 750 
Q 750 597 1062 519 
Q 1375 441 1716 441 
Q 2309 441 2620 675 
Q 2931 909 2931 1356 
Q 2931 1769 2642 2001 
Q 2353 2234 1838 2234 
L 1294 2234 
L 1294 2753 
L 1863 2753 
Q 2328 2753 2575 2939 
Q 2822 3125 2822 3475 
Q 2822 3834 2567 4026 
Q 2313 4219 1838 4219 
Q 1578 4219 1281 4162 
Q 984 4106 628 3988 
L 628 4550 
Q 988 4650 1302 4700 
Q 1616 4750 1894 4750 
Q 2613 4750 3031 4423 
Q 3450 4097 3450 3541 
Q 3450 3153 3228 2886 
Q 3006 2619 2597 2516 
z
" transform="scale(0.015625)"/>
       </defs>
       <use xlink:href="#DejaVuSans-32"/>
       <use xlink:href="#DejaVuSans-30" x="63.623047"/>
       <use xlink:href="#DejaVuSans-32" x="127.246094"/>
       <use xlink:href="#DejaVuSans-34" x="190.869141"/>
       <use xlink:href="#DejaVuSans-2d" x="254.492188"/>
       <use xlink:href="#DejaVuSans-30" x="290.576172"/>
       <use xlink:href="#DejaVuSans-33" x="354.199219"/>
      </g>
     </g>
    </g>
    <g id="xtick_4">
     <g id="line2d_4">
      <g>
       <use xlink:href="#m94d49c81cb" x="279.905345" y="256.32" style="stroke: #000000; stroke-width: 0.8"/>
      </g>
     </g>
     <g id="text_4">
      <!-- 2024-04 -->
      <g transform="translate(259.013939 270.918437) scale(0.1 -0.1)">
       <use xlink:href="#DejaVuSans-32"/>
       <use xlink:href="#DejaVuSans-30" x="63.623047"/>
       <use xlink:href="#DejaVuSans-32" x="127.246094"/>
       <use xlink:href="#DejaVuSans-34" x="190.869141"/>
       <use xlink:href="#DejaVuSans-2d" x="254.492188"/>
       <use xlink:href="#DejaVuSans-30" x="290.576172"/>
       <use xlink:href="#DejaVuSans-34" x="354.199219"/>
      </g>
     </g>
    </g>
    <g id="xtick_5">
     <g id="line2d_5">
      <g>
       <use xlink:href="#m94d49c81cb" x="341.083965" y="256.32" style="stroke: #000000; stroke-width: 0.8"/>
      </g>
     </g>
     <g id="text_5">
      <!-- 2024-05 -->
      <g transform="translate(320.192559 270.918437) scale(0.1 -0.1)">
       <defs>
        <path id="DejaVuSans-35" d="M 691 4666 
L 3169 4666 
L 3169 4134 
L 1269 4134 
L 1269 2991 
Q 1406 3038 1543 3061 
Q 1681 3084 1819 3084 
Q 2600 3084 3056 2656 
Q 3513 2228 3513 1497 
Q 3513 744 3044 326 
Q 2575 -91 1722 -91 
Q 1428 -91 1123 -41 
Q 819 9 494 109 
L 494 744 
Q 775 591 1075 516 
Q 1375 441 1709 441 
Q 2250 441 2565 725 
Q 2881 1009 2881 1497 
Q 2881 1984 2565 2268 
Q 2250 2553 1709 2553 
Q 1456 2553 1204 2497 
Q 953 2441 691 2322 
L 691 4666 
z
" transform="scale(0.015625)"/>
       </defs>
       <use xlink:href="#DejaVuSans-32"/>
       <use xlink:href="#DejaVuSans-30" x="63.623047"/>
       <use xlink:href="#DejaVuSans-32" x="127.246094"/>
       <use xlink:href="#DejaVuSans-34" x="190.869141"/>
       <use xlink:href="#DejaVuSans-2d" x="254.492188"/>
       <use xlink:href="#DejaVuSans-30" x="290.576172"/>
       <use xlink:href="#DejaVuSans-35" x="354.199219"/>
      </g>
     </g>
    </g>
    <g id="xtick_6">
     <g id="line2d_6">
      <g>
       <use xlink:href="#m94d49c81cb" x="404.301873" y="256.32" style="stroke: #000000; stroke-width: 0.8"/>
      </g>
     </g>
     <g id="text_6">
      <!-- 2024-06 -->
      <g transform="translate(383.410467 270.918437) scale(0.1 -0.1)">
       <defs>
        <path id="DejaVuSans-36" d="M 2113 2584 
Q 1688 2584 1439 2293 
Q 1191 2003 1191 1497 
Q 1191 994 1439 701 
Q 1688 409 2113 409 
Q 2538 409 2786 701 
Q 3034 994 3034 1497 
Q 3034 2003 2786 2293 
Q 2538 2584 2113 2584 
z
M 3366 4563 
L 3366 3988 
Q 3128 4100 2886 4159 
Q 2644 4219 2406 4219 
Q 1781 4219 1451 3797 
Q 1122 3375 1075 2522 
Q 1259 2794 1537 2939 
Q 1816 3084 2150 3084 
Q 2853 3084 3261 2657 
Q 3669 2231 3669 1497 
Q 3669 778 3244 343 
Q 2819 -91 2113 -91 
Q 1303 -91 875 529 
Q 447 1150 447 2328 
Q 447 3434 972 4092 
Q 1497 4750 2381 4750 
Q 2619 4750 2861 4703 
Q 3103 4656 3366 4563 
z
" transform="scale(0.015625)"/>
       </defs>
       <use xlink:href="#DejaVuSans-32"/>
       <use xlink:href="#DejaVuSans-30" x="63.623047"/>
       <use xlink:href="#DejaVuSans-32" x="127.246094"/>
       <use xlink:href="#DejaVuSans-34" x="190.869141"/>
       <use xlink:href="#DejaVuSans-2d" x="254.492188"/>
       <use xlink:href="#DejaVuSans-30" x="290.576172"/>
       <use xlink:href="#DejaVuSans-36" x="354.199219"/>
      </g>
     </g>
    </g>
    <g id="xtick_7">
     <g id="line2d_7">
      <g>
       <use xlink:href="#m94d49c81cb" x="465.480493" y="256.32" style="stroke: #000000; stroke-width: 0.8"/>
      </g>
     </g>
     <g id="text_7">
      <!-- 2024-07 -->
      <g transform="translate(444.589087 270.918437) scale(0.1 -0.1)">
       <defs>
        <path id="DejaVuSans-37" d="M 525 4666 
L 3525 4666 
L 3525 4397 
L 1831 0 
L 1172 0 
L 2766 4134 
L 525 4134 
L 525 4666 
z
" transform="scale(0.015625)"/>
       </defs>
       <use xlink:href="#DejaVuSans-32"/>
       <use xlink:href="#DejaVuSans-30" x="63.623047"/>
       <use xlink:href="#DejaVuSans-32" x="127.246094"/>
       <use xlink:href="#DejaVuSans-34" x="190.869141"/>
       <use xlink:href="#DejaVuSans-2d" x="254.492188"/>
       <use xlink:href="#DejaVuSans-30" x="290.576172"/>
       <use xlink:href="#DejaVuSans-37" x="354.199219"/>
      </g>
     </g>
    </g>
   </g>
   <g id="matplotlib.axis_2">
    <g id="ytick_1">
     <g id="line2d_8">
      <defs>
       <path id="madd9424acb" d="M 0 0 
L -3.5 0 
" style="stroke: #000000; stroke-width: 0.8"/>
      </defs>
      <g>
       <use xlink:href="#madd9424acb" x="72" y="237.832286" style="stroke: #000000; stroke-width: 0.8"/>
      </g>
     </g>
     <g id="text_8">
      <!-- −20 -->
      <g transform="translate(43.895313 241.631505) scale(0.1 -0.1)">
       <defs>
        <path id="DejaVuSans-2212" d="M 678 2272 
L 4684 2272 
L 4684 1741 
L 678 1741 
L 678 2272 
z
" transform="scale(0.015625)"/>
       </defs>
       <use xlink:href="#DejaVuSans-2212"/>
       <use xlink:href="#DejaVuSans-32" x="83.789062"/>
       <use xlink:href="#DejaVuSans-30" x="147.412109"/>
      </g>
     </g>
    </g>
    <g id="ytick_2">
     <g id="line2d_9">
      <g>
       <use xlink:href="#madd9424acb" x="72" y="205.683542" style="stroke: #000000; stroke-width: 0.8"/>
      </g>
     </g>
     <g id="text_9">
      <!-- −15 -->
      <g transform="translate(43.895313 209.482761) scale(0.1 -0.1)">
       <use xlink:href="#DejaVuSans-2212"/>
       <use xlink:href="#DejaVuSans-31" x="83.789062"/>
       <use xlink:href="#DejaVuSans-35" x="147.412109"/>
      </g>
     </g>
    </g>
    <g id="ytick_3">
     <g id="line2d_10">
      <g>
       <use xlink:href="#madd9424acb" x="72" y="173.534798" style="stroke: #000000; stroke-width: 0.8"/>
      </g>
     </g>
     <g id="text_10">
      <!-- −10 -->
      <g transform="translate(43.895313 177.334017) scale(0.1 -0.1)">
       <use xlink:href="#DejaVuSans-2212"/>
       <use xlink:href="#DejaVuSans-31" x="83.789062"/>
       <use xlink:href="#DejaVuSans-30" x="147.412109"/>
      </g>
     </g>
    </g>
    <g id="ytick_4">
     <g id="line2d_11">
      <g>
       <use xlink:href="#madd9424acb" x="72" y="141.386054" style="stroke: #000000; stroke-width: 0.8"/>
      </g>
     </g>
     <g id="text_11">
      <!-- −5 -->
      <g transform="translate(50.257812 145.185273) scale(0.1 -0.1)">
       <use xlink:href="#DejaVuSans-2212"/>
       <use xlink:href="#DejaVuSans-35" x="83.789062"/>
      </g>
     </g>
    </g>
    <g id="ytick_5">
     <g id="line2d_12">
      <g>
       <use xlink:href="#madd9424acb" x="72" y="109.23731" style="stroke: #000000; stroke-width: 0.8"/>
      </g>
     </g>
     <g id="text_12">
      <!-- 0 -->
      <g transform="translate(58.6375 113.036528) scale(0.1 -0.1)">
       <use xlink:href="#DejaVuSans-30"/>
      </g>
     </g>
    </g>
    <g id="ytick_6">
     <g id="line2d_13">
      <g>
       <use xlink:href="#madd9424acb" x="72" y="77.088565" style="stroke: #000000; stroke-width: 0.8"/>
      </g>
     </g>
     <g id="text_13">
      <!-- 5 -->
      <g transform="translate(58.6375 80.887784) scale(0.1 -0.1)">
       <use xlink:href="#DejaVuSans-35"/>
      </g>
     </g>
    </g>
    <g id="ytick_7">
     <g id="line2d_14">
      <g>
       <use xlink:href="#madd9424acb" x="72" y="44.939821" style="stroke: #000000; stroke-width: 0.8"/>
      </g>
     </g>
     <g id="text_14">
      <!-- 10 -->
      <g transform="translate(52.275 48.73904) scale(0.1 -0.1)">
       <use xlink:href="#DejaVuSans-31"/>
       <use xlink:href="#DejaVuSans-30" x="63.623047"/>
      </g>
     </g>
    </g>
   </g>
   <g id="line2d_15">
    <path d="M 92.290909 106.104024 
L 94.330196 114.91217 
L 96.369484 110.724086 
L 98.408771 113.713887 
L 100.448058 103.291605 
L 102.487346 91.44117 
L 106.565921 96.641813 
L 108.605208 107.633021 
L 110.644495 106.934646 
L 112.683783 104.131181 
L 114.72307 107.556081 
L 116.762357 112.803253 
L 118.801645 110.091261 
L 120.840932 123.116346 
L 122.880219 119.148386 
L 124.919507 118.381123 
L 126.958794 114.865695 
L 128.998081 118.964915 
L 131.037369 119.16287 
L 133.076656 115.653701 
L 135.115943 110.152597 
L 137.155231 119.361651 
L 139.194518 126.152935 
L 141.233805 129.455253 
L 143.273093 127.279525 
L 145.31238 122.914898 
L 147.351667 121.332652 
L 149.390955 125.856579 
L 151.430242 124.930113 
L 153.469529 117.007575 
L 155.508817 112.075041 
L 157.548104 124.143749 
L 159.587392 127.207966 
L 161.626679 131.655473 
L 163.665966 134.35622 
L 165.705254 139.348203 
L 167.744541 127.869049 
L 169.783828 126.709548 
L 171.823116 123.257725 
L 173.862403 127.027938 
L 175.90169 126.651171 
L 177.940978 132.953443 
L 179.980265 130.425111 
L 182.019552 124.695816 
L 184.05884 123.837637 
L 186.098127 119.936814 
L 188.137414 125.085943 
L 190.176702 125.323691 
L 192.215989 127.927707 
L 194.255276 119.291542 
L 196.294564 120.392162 
L 198.333851 112.120293 
L 202.412426 119.706976 
L 204.451713 119.39647 
L 206.491 112.090684 
L 208.530288 109.117624 
L 210.569575 124.752287 
L 212.608862 133.005791 
L 214.64815 135.926892 
L 216.687437 144.531614 
L 218.726725 146.673317 
L 220.766012 147.436444 
L 222.805299 141.463841 
L 224.844587 152.513592 
L 226.883874 152.535293 
L 228.923161 154.790921 
L 230.962449 149.567905 
L 233.001736 137.519113 
L 235.041023 145.524344 
L 237.080311 140.112695 
L 239.119598 141.467143 
L 241.158885 137.295646 
L 243.198173 140.450817 
L 245.23746 134.6055 
L 247.276747 132.481985 
L 249.316035 129.017463 
L 251.355322 140.45095 
L 253.394609 143.653744 
L 255.433897 137.979953 
L 257.473184 138.248855 
L 259.512471 133.756445 
L 261.551759 133.35366 
L 263.591046 130.345475 
L 265.630333 133.824698 
L 267.669621 133.533731 
L 269.708908 148.064658 
L 271.748196 158.759272 
L 273.787483 152.628671 
L 275.82677 144.814231 
L 277.866058 154.522646 
L 279.905345 145.903386 
L 281.944632 138.812454 
L 283.98392 137.399547 
L 286.023207 133.087015 
L 288.062494 128.293308 
L 290.101782 115.892357 
L 292.141069 118.090256 
L 294.180356 114.982814 
L 296.219644 112.961055 
L 298.258931 109.290463 
L 300.298218 101.57269 
L 302.337506 111.25979 
L 304.376793 102.710945 
L 306.41608 109.480717 
L 308.455368 117.016774 
L 310.494655 115.051846 
L 312.533942 115.842796 
L 314.57323 123.513724 
L 316.612517 127.792653 
L 322.730379 139.64234 
L 324.769667 139.661177 
L 326.808954 139.996086 
L 328.848241 132.479107 
L 330.887529 135.221997 
L 332.926816 138.64453 
L 334.966103 136.529472 
L 337.005391 142.254099 
L 339.044678 143.781574 
L 341.083965 153.595593 
L 343.123253 141.829862 
L 345.16254 137.935995 
L 347.201827 136.053322 
L 349.241115 133.788473 
L 351.280402 123.026661 
L 353.319689 125.079098 
L 355.358977 127.434172 
L 357.398264 130.399585 
L 359.437551 136.559098 
L 361.476839 140.5443 
L 363.516126 143.381245 
L 365.555413 143.259106 
L 367.594701 140.647111 
L 369.633988 132.986372 
L 371.673275 141.071894 
L 373.712563 139.165161 
L 375.75185 130.870562 
L 377.791138 140.710505 
L 379.830425 131.931473 
L 381.869712 126.069195 
L 383.909 125.804557 
L 385.948287 117.528141 
L 387.987574 119.194256 
L 390.026862 115.437157 
L 392.066149 115.281058 
L 394.105436 112.251901 
L 396.144724 110.276621 
L 398.184011 103.025529 
L 400.223298 98.404526 
L 402.262586 95.829195 
L 406.34116 87.246488 
L 408.380448 81.171542 
L 410.419735 69.972708 
L 412.459022 67.478019 
L 414.49831 77.38698 
L 416.537597 77.679982 
L 418.576884 84.602218 
L 420.616172 85.632145 
L 422.655459 85.993843 
L 424.694746 81.979413 
L 426.734034 87.134279 
L 428.773321 87.945182 
L 430.812608 78.722427 
L 432.851896 92.341235 
L 434.891183 91.837542 
L 438.969758 69.185564 
L 441.009045 62.597353 
L 443.048333 69.525316 
L 445.08762 71.537449 
L 447.126907 68.511081 
L 449.166195 58.107678 
L 451.205482 66.257108 
L 453.244769 61.025179 
L 455.284057 71.132344 
L 457.323344 72.169689 
L 459.362631 71.431067 
L 461.401919 69.365371 
L 463.441206 73.249017 
L 465.480493 62.552185 
L 467.519781 55.363368 
L 469.559068 60.782364 
L 471.598355 58.396958 
L 473.637643 53.997313 
L 475.67693 65.592035 
L 477.716217 63.576376 
L 479.755505 64.828773 
L 481.794792 63.353544 
L 483.834079 56.531836 
L 485.873367 60.845732 
L 487.912654 50.023516 
L 489.951942 44.64 
L 491.991229 53.876521 
L 494.030516 57.95329 
L 496.069804 62.579768 
L 498.109091 59.752837 
L 498.109091 59.752837 
" clip-path="url(#pf1cb08e5d0)" style="fill: none; stroke: #000000; stroke-width: 2; stroke-linecap: square"/>
   </g>
   <g id="line2d_16">
    <path d="M 92.290909 123.381276 
L 94.330196 118.499645 
L 96.369484 115.747675 
L 98.408771 115.533574 
L 100.448058 123.24836 
L 102.487346 124.281514 
L 104.526633 123.820503 
L 106.565921 131.61567 
L 108.605208 140.97796 
L 110.644495 137.735206 
L 112.683783 140.955462 
L 114.72307 148.845742 
L 116.762357 148.080835 
L 118.801645 144.280451 
L 120.840932 159.995789 
L 122.880219 157.585569 
L 124.919507 149.001311 
L 126.958794 144.653495 
L 128.998081 137.313404 
L 131.037369 131.746387 
L 133.076656 140.672246 
L 135.115943 129.645163 
L 137.155231 126.661594 
L 139.194518 110.151195 
L 141.233805 114.619978 
L 143.273093 114.349271 
L 145.31238 113.447941 
L 147.351667 118.062528 
L 149.390955 119.914298 
L 151.430242 130.534573 
L 153.469529 139.366229 
L 155.508817 125.612168 
L 157.548104 121.415481 
L 159.587392 120.056715 
L 161.626679 124.820876 
L 163.665966 116.210242 
L 165.705254 122.500499 
L 167.744541 130.982427 
L 169.783828 133.234767 
L 171.823116 138.194046 
L 173.862403 133.395208 
L 175.90169 126.632272 
L 177.940978 126.059705 
L 179.980265 130.038343 
L 182.019552 115.223463 
L 184.05884 126.487114 
L 186.098127 134.082852 
L 190.176702 122.774367 
L 192.215989 123.010853 
L 194.255276 128.255102 
L 196.294564 140.466494 
L 198.333851 151.857881 
L 200.373138 152.970491 
L 202.412426 156.146646 
L 204.451713 140.260789 
L 206.491 148.256045 
L 208.530288 152.50115 
L 210.569575 144.615536 
L 212.608862 156.853629 
L 214.64815 164.005715 
L 216.687437 174.502195 
L 218.726725 174.072777 
L 220.766012 181.646171 
L 222.805299 175.293944 
L 224.844587 168.383528 
L 226.883874 166.129044 
L 228.923161 175.984853 
L 230.962449 172.523595 
L 233.001736 173.736737 
L 235.041023 170.637713 
L 237.080311 165.055504 
L 239.119598 167.348303 
L 241.158885 155.508457 
L 243.198173 153.585769 
L 245.23746 167.55512 
L 247.276747 172.18529 
L 249.316035 157.254012 
L 251.355322 150.486497 
L 253.394609 154.157786 
L 255.433897 158.605549 
L 257.473184 164.850237 
L 259.512471 170.260085 
L 261.551759 152.0455 
L 263.591046 152.114557 
L 265.630333 168.454581 
L 267.669621 167.880426 
L 269.708908 177.076268 
L 271.748196 165.542286 
L 273.787483 167.558128 
L 275.82677 168.828598 
L 277.866058 173.485405 
L 279.905345 178.771637 
L 281.944632 176.94849 
L 283.98392 175.953387 
L 286.023207 171.240184 
L 288.062494 178.416056 
L 290.101782 177.646998 
L 292.141069 183.164516 
L 294.180356 193.890958 
L 296.219644 176.797454 
L 298.258931 180.702805 
L 300.298218 187.019391 
L 302.337506 185.273846 
L 304.376793 184.910764 
L 306.41608 185.304424 
L 308.455368 177.210378 
L 310.494655 162.55817 
L 312.533942 177.794043 
L 314.57323 171.120665 
L 316.612517 166.973431 
L 318.651804 163.198998 
L 320.691092 165.545849 
L 322.730379 172.844008 
L 324.769667 179.426136 
L 326.808954 175.836283 
L 328.848241 176.708291 
L 330.887529 155.13581 
L 332.926816 150.251522 
L 334.966103 150.066347 
L 337.005391 162.971193 
L 339.044678 152.068621 
L 341.083965 157.463594 
L 343.123253 155.917797 
L 345.16254 157.253491 
L 347.201827 162.18356 
L 351.280402 163.530993 
L 353.319689 161.860935 
L 355.358977 166.536267 
L 357.398264 169.593206 
L 359.437551 175.143934 
L 361.476839 177.252802 
L 363.516126 179.957736 
L 365.555413 187.475067 
L 367.594701 170.434964 
L 369.633988 171.026031 
L 371.673275 163.361212 
L 375.75185 160.415068 
L 377.791138 166.822335 
L 379.830425 169.166786 
L 381.869712 171.320236 
L 383.909 165.637693 
L 385.948287 173.662712 
L 387.987574 185.929484 
L 390.026862 189.243446 
L 392.066149 188.765929 
L 394.105436 194.940059 
L 396.144724 187.640076 
L 398.184011 197.714837 
L 400.223298 186.189608 
L 402.262586 186.619772 
L 404.301873 182.330954 
L 406.34116 187.761539 
L 408.380448 179.502726 
L 410.419735 175.868496 
L 412.459022 180.585636 
L 414.49831 176.720722 
L 416.537597 184.359561 
L 418.576884 193.230362 
L 420.616172 178.997865 
L 422.655459 172.867461 
L 424.694746 178.001693 
L 426.734034 173.200679 
L 428.773321 162.404429 
L 430.812608 157.227792 
L 432.851896 159.368164 
L 434.891183 145.628618 
L 436.930471 136.325698 
L 438.969758 137.34933 
L 441.009045 136.108749 
L 443.048333 142.055375 
L 445.08762 145.940559 
L 447.126907 145.152798 
L 449.166195 143.288461 
L 451.205482 147.746228 
L 453.244769 141.146446 
L 455.284057 139.118523 
L 457.323344 144.101776 
L 459.362631 145.750202 
L 461.401919 143.823493 
L 463.441206 135.723569 
L 465.480493 144.059419 
L 467.519781 138.075951 
L 469.559068 142.833643 
L 471.598355 145.061661 
L 473.637643 146.663244 
L 475.67693 144.123454 
L 477.716217 153.851067 
L 479.755505 158.81694 
L 481.794792 156.656015 
L 483.834079 153.538864 
L 485.873367 142.573792 
L 487.912654 156.173601 
L 489.951942 158.649952 
L 491.991229 151.081413 
L 494.030516 159.625413 
L 496.069804 170.593694 
L 498.109091 171.130807 
L 498.109091 171.130807 
" clip-path="url(#pf1cb08e5d0)" style="fill: none; stroke: #bfbf00; stroke-width: 2; stroke-linecap: square"/>
   </g>
   <g id="line2d_17">
    <path d="M 92.290909 105.268568 
L 94.330196 114.767642 
L 96.369484 116.035616 
L 98.408771 119.898135 
L 100.448058 114.323187 
L 102.487346 116.656707 
L 104.526633 125.46412 
L 106.565921 117.375293 
L 108.605208 120.55321 
L 110.644495 121.560239 
L 112.683783 120.940209 
L 114.72307 131.391616 
L 116.762357 148.34618 
L 118.801645 147.223511 
L 120.840932 139.0732 
L 122.880219 139.719753 
L 124.919507 152.088388 
L 126.958794 144.982935 
L 128.998081 151.243054 
L 131.037369 151.960786 
L 133.076656 149.56142 
L 135.115943 155.637262 
L 137.155231 152.010634 
L 139.194518 151.901583 
L 141.233805 160.331006 
L 143.273093 166.339114 
L 145.31238 162.042646 
L 147.351667 159.021411 
L 149.390955 154.601622 
L 151.430242 160.64693 
L 153.469529 161.9125 
L 155.508817 157.877181 
L 157.548104 174.25105 
L 159.587392 177.826824 
L 161.626679 179.914465 
L 163.665966 185.894254 
L 165.705254 188.08846 
L 167.744541 184.912277 
L 169.783828 178.304428 
L 171.823116 175.531256 
L 173.862403 181.104292 
L 175.90169 183.879388 
L 177.940978 177.38235 
L 179.980265 173.834563 
L 182.019552 185.164806 
L 184.05884 179.561005 
L 186.098127 184.357082 
L 188.137414 178.647428 
L 190.176702 189.228807 
L 192.215989 187.385622 
L 194.255276 196.08304 
L 196.294564 189.249357 
L 198.333851 195.241523 
L 200.373138 202.661621 
L 202.412426 192.174328 
L 204.451713 185.475048 
L 206.491 187.033393 
L 208.530288 184.632378 
L 210.569575 188.975123 
L 212.608862 179.072554 
L 214.64815 177.951582 
L 216.687437 156.472486 
L 218.726725 156.123698 
L 220.766012 160.108773 
L 222.805299 157.059801 
L 224.844587 160.410941 
L 226.883874 166.739869 
L 228.923161 166.801659 
L 230.962449 168.348431 
L 233.001736 154.370489 
L 235.041023 160.084224 
L 237.080311 166.763227 
L 239.119598 171.405127 
L 241.158885 166.085366 
L 243.198173 168.277896 
L 245.23746 169.790449 
L 247.276747 172.022077 
L 249.316035 174.674045 
L 251.355322 171.756368 
L 253.394609 158.17842 
L 255.433897 154.209048 
L 257.473184 152.682911 
L 259.512471 151.754657 
L 261.551759 154.789161 
L 263.591046 146.760951 
L 265.630333 151.732716 
L 267.669621 139.694647 
L 269.708908 148.329939 
L 271.748196 138.692264 
L 273.787483 123.518031 
L 275.82677 137.891042 
L 277.866058 138.639732 
L 279.905345 132.750282 
L 281.944632 134.909409 
L 283.98392 134.67309 
L 286.023207 148.408898 
L 288.062494 151.897337 
L 290.101782 151.243896 
L 292.141069 158.07453 
L 294.180356 163.478353 
L 296.219644 171.853628 
L 298.258931 166.676254 
L 302.337506 177.081509 
L 304.376793 186.462841 
L 308.455368 195.507502 
L 310.494655 201.593994 
L 312.533942 192.797162 
L 314.57323 187.099358 
L 316.612517 188.267342 
L 318.651804 197.815383 
L 320.691092 204.920243 
L 322.730379 202.504124 
L 324.769667 208.442439 
L 326.808954 202.260749 
L 328.848241 194.110263 
L 330.887529 192.163998 
L 332.926816 192.480779 
L 334.966103 189.965178 
L 337.005391 183.259115 
L 339.044678 184.700708 
L 341.083965 183.11491 
L 343.123253 182.448399 
L 345.16254 182.326514 
L 347.201827 180.736534 
L 349.241115 184.942599 
L 351.280402 177.427704 
L 353.319689 179.374208 
L 355.358977 169.638575 
L 357.398264 178.033486 
L 359.437551 188.636862 
L 361.476839 186.997835 
L 363.516126 186.660246 
L 365.555413 189.989589 
L 367.594701 195.740545 
L 369.633988 189.346766 
L 371.673275 194.748907 
L 373.712563 196.366609 
L 375.75185 198.610748 
L 379.830425 211.442247 
L 381.869712 219.117247 
L 383.909 217.619449 
L 385.948287 209.431813 
L 387.987574 211.269551 
L 390.026862 217.958732 
L 392.066149 218.249976 
L 394.105436 206.725319 
L 396.144724 196.653019 
L 398.184011 198.993023 
L 400.223298 199.553967 
L 402.262586 198.435535 
L 406.34116 208.789344 
L 408.380448 218.511146 
L 410.419735 225.118745 
L 412.459022 212.917495 
L 414.49831 211.563758 
L 416.537597 209.713956 
L 418.576884 210.862386 
L 420.616172 196.643775 
L 422.655459 197.707288 
L 424.694746 211.159672 
L 426.734034 203.349979 
L 428.773321 213.487437 
L 430.812608 206.857869 
L 432.851896 211.222692 
L 434.891183 214.958183 
L 436.930471 212.315488 
L 438.969758 220.743444 
L 441.009045 223.48692 
L 443.048333 226.781061 
L 445.08762 226.763665 
L 447.126907 223.063524 
L 449.166195 224.192398 
L 451.205482 227.619575 
L 453.244769 229.80657 
L 455.284057 233.868189 
L 457.323344 238.815881 
L 459.362631 238.489605 
L 461.401919 236.663877 
L 463.441206 231.270614 
L 465.480493 233.97102 
L 467.519781 232.390804 
L 469.559068 237.618473 
L 471.598355 235.836585 
L 473.637643 228.7197 
L 475.67693 224.238421 
L 477.716217 224.126721 
L 479.755505 233.208043 
L 481.794792 232.42047 
L 483.834079 229.671565 
L 487.912654 246.24 
L 489.951942 242.510862 
L 491.991229 230.953833 
L 494.030516 227.907188 
L 498.109091 238.388873 
L 498.109091 238.388873 
" clip-path="url(#pf1cb08e5d0)" style="fill: none; stroke: #bf00bf; stroke-width: 2; stroke-linecap: square"/>
   </g>
   <g id="patch_3">
    <path d="M 72 256.32 
L 72 34.56 
" style="fill: none; stroke: #000000; stroke-width: 0.8; stroke-linejoin: miter; stroke-linecap: square"/>
   </g>
   <g id="patch_4">
    <path d="M 518.4 256.32 
L 518.4 34.56 
" style="fill: none; stroke: #000000; stroke-width: 0.8; stroke-linejoin: miter; stroke-linecap: square"/>
   </g>
   <g id="patch_5">
    <path d="M 72 256.32 
L 518.4 256.32 
" style="fill: none; stroke: #000000; stroke-width: 0.8; stroke-linejoin: miter; stroke-linecap: square"/>
   </g>
   <g id="patch_6">
    <path d="M 72 34.56 
L 518.4 34.56 
" style="fill: none; stroke: #000000; stroke-width: 0.8; stroke-linejoin: miter; stroke-linecap: square"/>
   </g>
  </g>
 </g>
 <defs>
  <clipPath id="pf1cb08e5d0">
   <rect x="72" y="34.56" width="446.4" height="221.76"/>
  </clipPath>
 </defs>
</svg>
