<?xml version="1.0" encoding="utf-8" standalone="no"?>
<!DOCTYPE svg PUBLIC "-//W3C//DTD SVG 1.1//EN"
  "http://www.w3.org/Graphics/SVG/1.1/DTD/svg11.dtd">
<svg xmlns:xlink="http://www.w3.org/1999/xlink" width="576pt" height="288pt" viewBox="0 0 576 288" xmlns="http://www.w3.org/2000/svg" version="1.1">
 <metadata>
  <rdf:RDF xmlns:dc="http://purl.org/dc/elements/1.1/" xmlns:cc="http://creativecommons.org/ns#" xmlns:rdf="http://www.w3.org/1999/02/22-rdf-syntax-ns#">
   <cc:Work>
    <dc:type rdf:resource="http://purl.org/dc/dcmitype/StillImage"/>
    <dc:date>2023-11-24T20:25:44.539373</dc:date>
    <dc:format>image/svg+xml</dc:format>
    <dc:creator>
     <cc:Agent>
      <dc:title>Matplotlib v3.8.1, https://matplotlib.org/</dc:title>
     </cc:Agent>
    </dc:creator>
   </cc:Work>
  </rdf:RDF>
 </metadata>
 <defs>
  <style type="text/css">*{stroke-linejoin: round; stroke-linecap: butt}</style>
 </defs>
 <g id="figure_1">
  <g id="patch_1">
   <path d="M 0 288 
L 576 288 
L 576 0 
L 0 0 
z
" style="fill: #ffffff"/>
  </g>
  <g id="axes_1">
   <g id="patch_2">
    <path d="M 52.582813 246.84375 
L 565.2 246.84375 
L 565.2 25.918125 
L 52.582813 25.918125 
z
" style="fill: #ffffff"/>
   </g>
   <g id="matplotlib.axis_1">
    <g id="xtick_1">
     <g id="line2d_1">
      <path d="M 78.225381 246.84375 
L 78.225381 25.918125 
" clip-path="url(#p637322b23b)" style="fill: none; stroke: #b0b0b0; stroke-width: 0.8; stroke-linecap: square"/>
     </g>
     <g id="line2d_2">
      <defs>
       <path id="m636c3427a0" d="M 0 0 
L 0 3.5 
" style="stroke: #000000; stroke-width: 0.8"/>
      </defs>
      <g>
       <use xlink:href="#m636c3427a0" x="78.225381" y="246.84375" style="stroke: #000000; stroke-width: 0.8"/>
      </g>
     </g>
     <g id="text_1">
      <!-- 2024-01 -->
      <g transform="translate(57.333975 261.442187) scale(0.1 -0.1)">
       <defs>
        <path id="DejaVuSans-32" d="M 1228 531 
L 3431 531 
L 3431 0 
L 469 0 
L 469 531 
Q 828 903 1448 1529 
Q 2069 2156 2228 2338 
Q 2531 2678 2651 2914 
Q 2772 3150 2772 3378 
Q 2772 3750 2511 3984 
Q 2250 4219 1831 4219 
Q 1534 4219 1204 4116 
Q 875 4013 500 3803 
L 500 4441 
Q 881 4594 1212 4672 
Q 1544 4750 1819 4750 
Q 2544 4750 2975 4387 
Q 3406 4025 3406 3419 
Q 3406 3131 3298 2873 
Q 3191 2616 2906 2266 
Q 2828 2175 2409 1742 
Q 1991 1309 1228 531 
z
" transform="scale(0.015625)"/>
        <path id="DejaVuSans-30" d="M 2034 4250 
Q 1547 4250 1301 3770 
Q 1056 3291 1056 2328 
Q 1056 1369 1301 889 
Q 1547 409 2034 409 
Q 2525 409 2770 889 
Q 3016 1369 3016 2328 
Q 3016 3291 2770 3770 
Q 2525 4250 2034 4250 
z
M 2034 4750 
Q 2819 4750 3233 4129 
Q 3647 3509 3647 2328 
Q 3647 1150 3233 529 
Q 2819 -91 2034 -91 
Q 1250 -91 836 529 
Q 422 1150 422 2328 
Q 422 3509 836 4129 
Q 1250 4750 2034 4750 
z
" transform="scale(0.015625)"/>
        <path id="DejaVuSans-34" d="M 2419 4116 
L 825 1625 
L 2419 1625 
L 2419 4116 
z
M 2253 4666 
L 3047 4666 
L 3047 1625 
L 3713 1625 
L 3713 1100 
L 3047 1100 
L 3047 0 
L 2419 0 
L 2419 1100 
L 313 1100 
L 313 1709 
L 2253 4666 
z
" transform="scale(0.015625)"/>
        <path id="DejaVuSans-2d" d="M 313 2009 
L 1997 2009 
L 1997 1497 
L 313 1497 
L 313 2009 
z
" transform="scale(0.015625)"/>
        <path id="DejaVuSans-31" d="M 794 531 
L 1825 531 
L 1825 4091 
L 703 3866 
L 703 4441 
L 1819 4666 
L 2450 4666 
L 2450 531 
L 3481 531 
L 3481 0 
L 794 0 
L 794 531 
z
" transform="scale(0.015625)"/>
       </defs>
       <use xlink:href="#DejaVuSans-32"/>
       <use xlink:href="#DejaVuSans-30" x="63.623047"/>
       <use xlink:href="#DejaVuSans-32" x="127.246094"/>
       <use xlink:href="#DejaVuSans-34" x="190.869141"/>
       <use xlink:href="#DejaVuSans-2d" x="254.492188"/>
       <use xlink:href="#DejaVuSans-30" x="290.576172"/>
       <use xlink:href="#DejaVuSans-31" x="354.199219"/>
      </g>
     </g>
    </g>
    <g id="xtick_2">
     <g id="line2d_3">
      <path d="M 150.82078 246.84375 
L 150.82078 25.918125 
" clip-path="url(#p637322b23b)" style="fill: none; stroke: #b0b0b0; stroke-width: 0.8; stroke-linecap: square"/>
     </g>
     <g id="line2d_4">
      <g>
       <use xlink:href="#m636c3427a0" x="150.82078" y="246.84375" style="stroke: #000000; stroke-width: 0.8"/>
      </g>
     </g>
     <g id="text_2">
      <!-- 2024-02 -->
      <g transform="translate(129.929373 261.442187) scale(0.1 -0.1)">
       <use xlink:href="#DejaVuSans-32"/>
       <use xlink:href="#DejaVuSans-30" x="63.623047"/>
       <use xlink:href="#DejaVuSans-32" x="127.246094"/>
       <use xlink:href="#DejaVuSans-34" x="190.869141"/>
       <use xlink:href="#DejaVuSans-2d" x="254.492188"/>
       <use xlink:href="#DejaVuSans-30" x="290.576172"/>
       <use xlink:href="#DejaVuSans-32" x="354.199219"/>
      </g>
     </g>
    </g>
    <g id="xtick_3">
     <g id="line2d_5">
      <path d="M 218.732604 246.84375 
L 218.732604 25.918125 
" clip-path="url(#p637322b23b)" style="fill: none; stroke: #b0b0b0; stroke-width: 0.8; stroke-linecap: square"/>
     </g>
     <g id="line2d_6">
      <g>
       <use xlink:href="#m636c3427a0" x="218.732604" y="246.84375" style="stroke: #000000; stroke-width: 0.8"/>
      </g>
     </g>
     <g id="text_3">
      <!-- 2024-03 -->
      <g transform="translate(197.841198 261.442187) scale(0.1 -0.1)">
       <defs>
        <path id="DejaVuSans-33" d="M 2597 2516 
Q 3050 2419 3304 2112 
Q 3559 1806 3559 1356 
Q 3559 666 3084 287 
Q 2609 -91 1734 -91 
Q 1441 -91 1130 -33 
Q 819 25 488 141 
L 488 750 
Q 750 597 1062 519 
Q 1375 441 1716 441 
Q 2309 441 2620 675 
Q 2931 909 2931 1356 
Q 2931 1769 2642 2001 
Q 2353 2234 1838 2234 
L 1294 2234 
L 1294 2753 
L 1863 2753 
Q 2328 2753 2575 2939 
Q 2822 3125 2822 3475 
Q 2822 3834 2567 4026 
Q 2313 4219 1838 4219 
Q 1578 4219 1281 4162 
Q 984 4106 628 3988 
L 628 4550 
Q 988 4650 1302 4700 
Q 1616 4750 1894 4750 
Q 2613 4750 3031 4423 
Q 3450 4097 3450 3541 
Q 3450 3153 3228 2886 
Q 3006 2619 2597 2516 
z
" transform="scale(0.015625)"/>
       </defs>
       <use xlink:href="#DejaVuSans-32"/>
       <use xlink:href="#DejaVuSans-30" x="63.623047"/>
       <use xlink:href="#DejaVuSans-32" x="127.246094"/>
       <use xlink:href="#DejaVuSans-34" x="190.869141"/>
       <use xlink:href="#DejaVuSans-2d" x="254.492188"/>
       <use xlink:href="#DejaVuSans-30" x="290.576172"/>
       <use xlink:href="#DejaVuSans-33" x="354.199219"/>
      </g>
     </g>
    </g>
    <g id="xtick_4">
     <g id="line2d_7">
      <path d="M 291.328003 246.84375 
L 291.328003 25.918125 
" clip-path="url(#p637322b23b)" style="fill: none; stroke: #b0b0b0; stroke-width: 0.8; stroke-linecap: square"/>
     </g>
     <g id="line2d_8">
      <g>
       <use xlink:href="#m636c3427a0" x="291.328003" y="246.84375" style="stroke: #000000; stroke-width: 0.8"/>
      </g>
     </g>
     <g id="text_4">
      <!-- 2024-04 -->
      <g transform="translate(270.436597 261.442187) scale(0.1 -0.1)">
       <use xlink:href="#DejaVuSans-32"/>
       <use xlink:href="#DejaVuSans-30" x="63.623047"/>
       <use xlink:href="#DejaVuSans-32" x="127.246094"/>
       <use xlink:href="#DejaVuSans-34" x="190.869141"/>
       <use xlink:href="#DejaVuSans-2d" x="254.492188"/>
       <use xlink:href="#DejaVuSans-30" x="290.576172"/>
       <use xlink:href="#DejaVuSans-34" x="354.199219"/>
      </g>
     </g>
    </g>
    <g id="xtick_5">
     <g id="line2d_9">
      <path d="M 361.581615 246.84375 
L 361.581615 25.918125 
" clip-path="url(#p637322b23b)" style="fill: none; stroke: #b0b0b0; stroke-width: 0.8; stroke-linecap: square"/>
     </g>
     <g id="line2d_10">
      <g>
       <use xlink:href="#m636c3427a0" x="361.581615" y="246.84375" style="stroke: #000000; stroke-width: 0.8"/>
      </g>
     </g>
     <g id="text_5">
      <!-- 2024-05 -->
      <g transform="translate(340.690209 261.442187) scale(0.1 -0.1)">
       <defs>
        <path id="DejaVuSans-35" d="M 691 4666 
L 3169 4666 
L 3169 4134 
L 1269 4134 
L 1269 2991 
Q 1406 3038 1543 3061 
Q 1681 3084 1819 3084 
Q 2600 3084 3056 2656 
Q 3513 2228 3513 1497 
Q 3513 744 3044 326 
Q 2575 -91 1722 -91 
Q 1428 -91 1123 -41 
Q 819 9 494 109 
L 494 744 
Q 775 591 1075 516 
Q 1375 441 1709 441 
Q 2250 441 2565 725 
Q 2881 1009 2881 1497 
Q 2881 1984 2565 2268 
Q 2250 2553 1709 2553 
Q 1456 2553 1204 2497 
Q 953 2441 691 2322 
L 691 4666 
z
" transform="scale(0.015625)"/>
       </defs>
       <use xlink:href="#DejaVuSans-32"/>
       <use xlink:href="#DejaVuSans-30" x="63.623047"/>
       <use xlink:href="#DejaVuSans-32" x="127.246094"/>
       <use xlink:href="#DejaVuSans-34" x="190.869141"/>
       <use xlink:href="#DejaVuSans-2d" x="254.492188"/>
       <use xlink:href="#DejaVuSans-30" x="290.576172"/>
       <use xlink:href="#DejaVuSans-35" x="354.199219"/>
      </g>
     </g>
    </g>
    <g id="xtick_6">
     <g id="line2d_11">
      <path d="M 434.177014 246.84375 
L 434.177014 25.918125 
" clip-path="url(#p637322b23b)" style="fill: none; stroke: #b0b0b0; stroke-width: 0.8; stroke-linecap: square"/>
     </g>
     <g id="line2d_12">
      <g>
       <use xlink:href="#m636c3427a0" x="434.177014" y="246.84375" style="stroke: #000000; stroke-width: 0.8"/>
      </g>
     </g>
     <g id="text_6">
      <!-- 2024-06 -->
      <g transform="translate(413.285608 261.442187) scale(0.1 -0.1)">
       <defs>
        <path id="DejaVuSans-36" d="M 2113 2584 
Q 1688 2584 1439 2293 
Q 1191 2003 1191 1497 
Q 1191 994 1439 701 
Q 1688 409 2113 409 
Q 2538 409 2786 701 
Q 3034 994 3034 1497 
Q 3034 2003 2786 2293 
Q 2538 2584 2113 2584 
z
M 3366 4563 
L 3366 3988 
Q 3128 4100 2886 4159 
Q 2644 4219 2406 4219 
Q 1781 4219 1451 3797 
Q 1122 3375 1075 2522 
Q 1259 2794 1537 2939 
Q 1816 3084 2150 3084 
Q 2853 3084 3261 2657 
Q 3669 2231 3669 1497 
Q 3669 778 3244 343 
Q 2819 -91 2113 -91 
Q 1303 -91 875 529 
Q 447 1150 447 2328 
Q 447 3434 972 4092 
Q 1497 4750 2381 4750 
Q 2619 4750 2861 4703 
Q 3103 4656 3366 4563 
z
" transform="scale(0.015625)"/>
       </defs>
       <use xlink:href="#DejaVuSans-32"/>
       <use xlink:href="#DejaVuSans-30" x="63.623047"/>
       <use xlink:href="#DejaVuSans-32" x="127.246094"/>
       <use xlink:href="#DejaVuSans-34" x="190.869141"/>
       <use xlink:href="#DejaVuSans-2d" x="254.492188"/>
       <use xlink:href="#DejaVuSans-30" x="290.576172"/>
       <use xlink:href="#DejaVuSans-36" x="354.199219"/>
      </g>
     </g>
    </g>
    <g id="xtick_7">
     <g id="line2d_13">
      <path d="M 504.430626 246.84375 
L 504.430626 25.918125 
" clip-path="url(#p637322b23b)" style="fill: none; stroke: #b0b0b0; stroke-width: 0.8; stroke-linecap: square"/>
     </g>
     <g id="line2d_14">
      <g>
       <use xlink:href="#m636c3427a0" x="504.430626" y="246.84375" style="stroke: #000000; stroke-width: 0.8"/>
      </g>
     </g>
     <g id="text_7">
      <!-- 2024-07 -->
      <g transform="translate(483.53922 261.442187) scale(0.1 -0.1)">
       <defs>
        <path id="DejaVuSans-37" d="M 525 4666 
L 3525 4666 
L 3525 4397 
L 1831 0 
L 1172 0 
L 2766 4134 
L 525 4134 
L 525 4666 
z
" transform="scale(0.015625)"/>
       </defs>
       <use xlink:href="#DejaVuSans-32"/>
       <use xlink:href="#DejaVuSans-30" x="63.623047"/>
       <use xlink:href="#DejaVuSans-32" x="127.246094"/>
       <use xlink:href="#DejaVuSans-34" x="190.869141"/>
       <use xlink:href="#DejaVuSans-2d" x="254.492188"/>
       <use xlink:href="#DejaVuSans-30" x="290.576172"/>
       <use xlink:href="#DejaVuSans-37" x="354.199219"/>
      </g>
     </g>
    </g>
    <g id="text_8">
     <!-- Date -->
     <g transform="translate(296.940625 275.120313) scale(0.1 -0.1)">
      <defs>
       <path id="DejaVuSans-44" d="M 1259 4147 
L 1259 519 
L 2022 519 
Q 2988 519 3436 956 
Q 3884 1394 3884 2338 
Q 3884 3275 3436 3711 
Q 2988 4147 2022 4147 
L 1259 4147 
z
M 628 4666 
L 1925 4666 
Q 3281 4666 3915 4102 
Q 4550 3538 4550 2338 
Q 4550 1131 3912 565 
Q 3275 0 1925 0 
L 628 0 
L 628 4666 
z
" transform="scale(0.015625)"/>
       <path id="DejaVuSans-61" d="M 2194 1759 
Q 1497 1759 1228 1600 
Q 959 1441 959 1056 
Q 959 750 1161 570 
Q 1363 391 1709 391 
Q 2188 391 2477 730 
Q 2766 1069 2766 1631 
L 2766 1759 
L 2194 1759 
z
M 3341 1997 
L 3341 0 
L 2766 0 
L 2766 531 
Q 2569 213 2275 61 
Q 1981 -91 1556 -91 
Q 1019 -91 701 211 
Q 384 513 384 1019 
Q 384 1609 779 1909 
Q 1175 2209 1959 2209 
L 2766 2209 
L 2766 2266 
Q 2766 2663 2505 2880 
Q 2244 3097 1772 3097 
Q 1472 3097 1187 3025 
Q 903 2953 641 2809 
L 641 3341 
Q 956 3463 1253 3523 
Q 1550 3584 1831 3584 
Q 2591 3584 2966 3190 
Q 3341 2797 3341 1997 
z
" transform="scale(0.015625)"/>
       <path id="DejaVuSans-74" d="M 1172 4494 
L 1172 3500 
L 2356 3500 
L 2356 3053 
L 1172 3053 
L 1172 1153 
Q 1172 725 1289 603 
Q 1406 481 1766 481 
L 2356 481 
L 2356 0 
L 1766 0 
Q 1100 0 847 248 
Q 594 497 594 1153 
L 594 3053 
L 172 3053 
L 172 3500 
L 594 3500 
L 594 4494 
L 1172 4494 
z
" transform="scale(0.015625)"/>
       <path id="DejaVuSans-65" d="M 3597 1894 
L 3597 1613 
L 953 1613 
Q 991 1019 1311 708 
Q 1631 397 2203 397 
Q 2534 397 2845 478 
Q 3156 559 3463 722 
L 3463 178 
Q 3153 47 2828 -22 
Q 2503 -91 2169 -91 
Q 1331 -91 842 396 
Q 353 884 353 1716 
Q 353 2575 817 3079 
Q 1281 3584 2069 3584 
Q 2775 3584 3186 3129 
Q 3597 2675 3597 1894 
z
M 3022 2063 
Q 3016 2534 2758 2815 
Q 2500 3097 2075 3097 
Q 1594 3097 1305 2825 
Q 1016 2553 972 2059 
L 3022 2063 
z
" transform="scale(0.015625)"/>
      </defs>
      <use xlink:href="#DejaVuSans-44"/>
      <use xlink:href="#DejaVuSans-61" x="77.001953"/>
      <use xlink:href="#DejaVuSans-74" x="138.28125"/>
      <use xlink:href="#DejaVuSans-65" x="177.490234"/>
     </g>
    </g>
   </g>
   <g id="matplotlib.axis_2">
    <g id="ytick_1">
     <g id="line2d_15">
      <path d="M 52.582813 205.160301 
L 565.2 205.160301 
" clip-path="url(#p637322b23b)" style="fill: none; stroke: #b0b0b0; stroke-width: 0.8; stroke-linecap: square"/>
     </g>
     <g id="line2d_16">
      <defs>
       <path id="m7aa7a81ac6" d="M 0 0 
L -3.5 0 
" style="stroke: #000000; stroke-width: 0.8"/>
      </defs>
      <g>
       <use xlink:href="#m7aa7a81ac6" x="52.582813" y="205.160301" style="stroke: #000000; stroke-width: 0.8"/>
      </g>
     </g>
     <g id="text_9">
      <!-- −10 -->
      <g transform="translate(24.478125 208.95952) scale(0.1 -0.1)">
       <defs>
        <path id="DejaVuSans-2212" d="M 678 2272 
L 4684 2272 
L 4684 1741 
L 678 1741 
L 678 2272 
z
" transform="scale(0.015625)"/>
       </defs>
       <use xlink:href="#DejaVuSans-2212"/>
       <use xlink:href="#DejaVuSans-31" x="83.789062"/>
       <use xlink:href="#DejaVuSans-30" x="147.412109"/>
      </g>
     </g>
    </g>
    <g id="ytick_2">
     <g id="line2d_17">
      <path d="M 52.582813 157.430203 
L 565.2 157.430203 
" clip-path="url(#p637322b23b)" style="fill: none; stroke: #b0b0b0; stroke-width: 0.8; stroke-linecap: square"/>
     </g>
     <g id="line2d_18">
      <g>
       <use xlink:href="#m7aa7a81ac6" x="52.582813" y="157.430203" style="stroke: #000000; stroke-width: 0.8"/>
      </g>
     </g>
     <g id="text_10">
      <!-- −5 -->
      <g transform="translate(30.840625 161.229422) scale(0.1 -0.1)">
       <use xlink:href="#DejaVuSans-2212"/>
       <use xlink:href="#DejaVuSans-35" x="83.789062"/>
      </g>
     </g>
    </g>
    <g id="ytick_3">
     <g id="line2d_19">
      <path d="M 52.582813 109.700106 
L 565.2 109.700106 
" clip-path="url(#p637322b23b)" style="fill: none; stroke: #b0b0b0; stroke-width: 0.8; stroke-linecap: square"/>
     </g>
     <g id="line2d_20">
      <g>
       <use xlink:href="#m7aa7a81ac6" x="52.582813" y="109.700106" style="stroke: #000000; stroke-width: 0.8"/>
      </g>
     </g>
     <g id="text_11">
      <!-- 0 -->
      <g transform="translate(39.220313 113.499324) scale(0.1 -0.1)">
       <use xlink:href="#DejaVuSans-30"/>
      </g>
     </g>
    </g>
    <g id="ytick_4">
     <g id="line2d_21">
      <path d="M 52.582813 61.970008 
L 565.2 61.970008 
" clip-path="url(#p637322b23b)" style="fill: none; stroke: #b0b0b0; stroke-width: 0.8; stroke-linecap: square"/>
     </g>
     <g id="line2d_22">
      <g>
       <use xlink:href="#m7aa7a81ac6" x="52.582813" y="61.970008" style="stroke: #000000; stroke-width: 0.8"/>
      </g>
     </g>
     <g id="text_12">
      <!-- 5 -->
      <g transform="translate(39.220313 65.769227) scale(0.1 -0.1)">
       <use xlink:href="#DejaVuSans-35"/>
      </g>
     </g>
    </g>
    <g id="text_13">
     <!-- Cum. sum -->
     <g transform="translate(18.398438 161.733281) rotate(-90) scale(0.1 -0.1)">
      <defs>
       <path id="DejaVuSans-43" d="M 4122 4306 
L 4122 3641 
Q 3803 3938 3442 4084 
Q 3081 4231 2675 4231 
Q 1875 4231 1450 3742 
Q 1025 3253 1025 2328 
Q 1025 1406 1450 917 
Q 1875 428 2675 428 
Q 3081 428 3442 575 
Q 3803 722 4122 1019 
L 4122 359 
Q 3791 134 3420 21 
Q 3050 -91 2638 -91 
Q 1578 -91 968 557 
Q 359 1206 359 2328 
Q 359 3453 968 4101 
Q 1578 4750 2638 4750 
Q 3056 4750 3426 4639 
Q 3797 4528 4122 4306 
z
" transform="scale(0.015625)"/>
       <path id="DejaVuSans-75" d="M 544 1381 
L 544 3500 
L 1119 3500 
L 1119 1403 
Q 1119 906 1312 657 
Q 1506 409 1894 409 
Q 2359 409 2629 706 
Q 2900 1003 2900 1516 
L 2900 3500 
L 3475 3500 
L 3475 0 
L 2900 0 
L 2900 538 
Q 2691 219 2414 64 
Q 2138 -91 1772 -91 
Q 1169 -91 856 284 
Q 544 659 544 1381 
z
M 1991 3584 
L 1991 3584 
z
" transform="scale(0.015625)"/>
       <path id="DejaVuSans-6d" d="M 3328 2828 
Q 3544 3216 3844 3400 
Q 4144 3584 4550 3584 
Q 5097 3584 5394 3201 
Q 5691 2819 5691 2113 
L 5691 0 
L 5113 0 
L 5113 2094 
Q 5113 2597 4934 2840 
Q 4756 3084 4391 3084 
Q 3944 3084 3684 2787 
Q 3425 2491 3425 1978 
L 3425 0 
L 2847 0 
L 2847 2094 
Q 2847 2600 2669 2842 
Q 2491 3084 2119 3084 
Q 1678 3084 1418 2786 
Q 1159 2488 1159 1978 
L 1159 0 
L 581 0 
L 581 3500 
L 1159 3500 
L 1159 2956 
Q 1356 3278 1631 3431 
Q 1906 3584 2284 3584 
Q 2666 3584 2933 3390 
Q 3200 3197 3328 2828 
z
" transform="scale(0.015625)"/>
       <path id="DejaVuSans-2e" d="M 684 794 
L 1344 794 
L 1344 0 
L 684 0 
L 684 794 
z
" transform="scale(0.015625)"/>
       <path id="DejaVuSans-20" transform="scale(0.015625)"/>
       <path id="DejaVuSans-73" d="M 2834 3397 
L 2834 2853 
Q 2591 2978 2328 3040 
Q 2066 3103 1784 3103 
Q 1356 3103 1142 2972 
Q 928 2841 928 2578 
Q 928 2378 1081 2264 
Q 1234 2150 1697 2047 
L 1894 2003 
Q 2506 1872 2764 1633 
Q 3022 1394 3022 966 
Q 3022 478 2636 193 
Q 2250 -91 1575 -91 
Q 1294 -91 989 -36 
Q 684 19 347 128 
L 347 722 
Q 666 556 975 473 
Q 1284 391 1588 391 
Q 1994 391 2212 530 
Q 2431 669 2431 922 
Q 2431 1156 2273 1281 
Q 2116 1406 1581 1522 
L 1381 1569 
Q 847 1681 609 1914 
Q 372 2147 372 2553 
Q 372 3047 722 3315 
Q 1072 3584 1716 3584 
Q 2034 3584 2315 3537 
Q 2597 3491 2834 3397 
z
" transform="scale(0.015625)"/>
      </defs>
      <use xlink:href="#DejaVuSans-43"/>
      <use xlink:href="#DejaVuSans-75" x="69.824219"/>
      <use xlink:href="#DejaVuSans-6d" x="133.203125"/>
      <use xlink:href="#DejaVuSans-2e" x="230.615234"/>
      <use xlink:href="#DejaVuSans-20" x="262.402344"/>
      <use xlink:href="#DejaVuSans-73" x="294.189453"/>
      <use xlink:href="#DejaVuSans-75" x="346.289062"/>
      <use xlink:href="#DejaVuSans-6d" x="409.667969"/>
     </g>
    </g>
   </g>
   <g id="line2d_23">
    <path d="M 75.883594 102.134491 
L 78.225381 99.882559 
L 80.567168 111.652705 
L 82.908955 112.20294 
L 85.250742 116.814968 
L 87.592529 106.23692 
L 89.934316 108.694836 
L 92.276103 108.884085 
L 94.61789 115.586279 
L 96.959677 106.610145 
L 99.301464 94.739447 
L 101.643251 88.427661 
L 103.985038 96.683009 
L 106.326826 86.150522 
L 108.668613 86.533037 
L 111.0104 93.082694 
L 113.352187 91.288464 
L 115.693974 86.3564 
L 118.035761 85.921097 
L 120.377548 96.515137 
L 122.719335 91.566753 
L 125.061122 80.088989 
L 127.402909 70.844454 
L 129.744696 82.15995 
L 132.086483 92.264938 
L 134.42827 113.509824 
L 136.770057 104.871522 
L 139.111844 119.343773 
L 141.453631 121.941835 
L 143.795418 114.249024 
L 146.137206 107.214828 
L 148.478993 112.664615 
L 150.82078 100.502154 
L 153.162567 93.956415 
L 155.504354 106.203366 
L 157.846141 132.237403 
L 160.187928 132.043495 
L 162.529715 138.56226 
L 164.871502 126.461039 
L 167.213289 126.892153 
L 169.555076 117.321276 
L 171.896863 105.486043 
L 174.23865 100.739676 
L 176.580437 98.772276 
L 178.922224 87.662024 
L 181.264011 99.453907 
L 183.605799 102.294354 
L 185.947586 98.815664 
L 188.289373 86.098599 
L 190.63116 85.487977 
L 192.972947 88.849224 
L 195.314734 66.939707 
L 197.656521 77.093824 
L 199.998308 78.939241 
L 202.340095 99.976057 
L 204.681882 85.029689 
L 207.023669 93.692902 
L 209.365456 89.650923 
L 211.707243 82.560038 
L 214.04903 94.321278 
L 216.390817 112.168078 
L 218.732604 95.256333 
L 221.074391 96.80273 
L 223.416179 98.920192 
L 225.757966 78.38425 
L 228.099753 78.562876 
L 230.44154 73.305626 
L 232.783327 77.067569 
L 235.125114 84.10709 
L 237.466901 95.306042 
L 239.808688 81.915844 
L 242.150475 100.176839 
L 244.492262 85.233889 
L 246.834049 86.311651 
L 249.175836 100.068764 
L 251.517623 98.64587 
L 253.85941 120.096278 
L 256.201197 122.346557 
L 258.542984 111.540751 
L 260.884772 109.121449 
L 263.226559 107.366207 
L 265.568346 104.260633 
L 267.910133 107.913129 
L 270.25192 97.418077 
L 272.593707 98.843487 
L 274.935494 111.899727 
L 277.277281 111.348188 
L 279.619068 106.262503 
L 281.960855 105.374091 
L 284.302642 95.860453 
L 286.644429 97.218779 
L 288.986216 95.093586 
L 291.328003 96.032357 
L 293.66979 89.075341 
L 296.011577 79.660883 
L 298.353364 85.056452 
L 300.695152 83.118208 
L 303.036939 81.630939 
L 305.378726 89.302226 
L 307.720513 81.981056 
L 310.0623 76.825098 
L 312.404087 108.608204 
L 314.745874 96.222088 
L 317.087661 89.770044 
L 319.429448 92.81274 
L 321.771235 95.596308 
L 324.113022 78.019842 
L 326.454809 79.934149 
L 328.796596 76.46816 
L 331.138383 68.134821 
L 333.48017 55.000022 
L 335.821957 64.958996 
L 338.163745 59.969305 
L 340.505532 66.389754 
L 342.847319 69.861692 
L 345.189106 73.00005 
L 347.530893 70.52171 
L 349.87268 74.498715 
L 352.214467 83.348536 
L 354.556254 89.68688 
L 356.898041 102.147628 
L 359.239828 89.969332 
L 361.581615 102.790179 
L 363.923402 106.601286 
L 366.265189 91.631309 
L 370.948763 68.373251 
L 373.29055 55.214504 
L 375.632337 66.667346 
L 377.974125 50.947683 
L 380.315912 38.762424 
L 382.657699 55.648893 
L 384.999486 60.59468 
L 387.341273 79.312518 
L 389.68306 83.139933 
L 392.024847 72.457131 
L 394.366634 64.407064 
L 396.708421 73.884323 
L 399.050208 73.248365 
L 401.391995 59.964918 
L 403.733782 52.258968 
L 406.075569 64.30867 
L 408.417356 61.867278 
L 410.759143 48.397487 
L 413.10093 51.264306 
L 415.442717 63.407751 
L 417.784505 62.87829 
L 420.126292 63.207753 
L 422.468079 71.53006 
L 424.809866 68.345485 
L 427.151653 87.034764 
L 429.49344 98.600073 
L 431.835227 96.257955 
L 434.177014 100.576844 
L 436.518801 106.654036 
L 438.860588 106.494572 
L 441.202375 115.57699 
L 443.544162 111.632064 
L 445.885949 118.007641 
L 448.227736 105.216373 
L 450.569523 112.761132 
L 452.91131 110.496787 
L 455.253098 96.829288 
L 457.594885 89.068611 
L 459.936672 99.110663 
L 462.278459 93.957297 
L 464.620246 86.996231 
L 466.962033 93.276298 
L 469.30382 89.300842 
L 471.645607 76.362986 
L 473.987394 68.00049 
L 476.329181 66.595992 
L 478.670968 52.572159 
L 481.012755 43.238946 
L 483.354542 49.389306 
L 485.696329 42.239597 
L 488.038116 36.0952 
L 490.379903 52.474772 
L 492.72169 47.290936 
L 495.063478 48.588037 
L 497.405265 53.21956 
L 499.747052 48.501378 
L 502.088839 41.19241 
L 504.430626 35.960199 
L 506.772413 46.970599 
L 509.1142 61.212107 
L 511.455987 64.784635 
L 513.797774 72.62098 
L 516.139561 77.174451 
L 518.481348 92.13223 
L 520.823135 91.274823 
L 523.164922 95.306675 
L 525.506709 83.197349 
L 527.848496 75.326282 
L 530.190283 87.090169 
L 532.532071 87.820594 
L 534.873858 89.023065 
L 537.215645 97.3028 
L 539.557432 86.836315 
L 541.899219 73.126663 
L 541.899219 73.126663 
" clip-path="url(#p637322b23b)" style="fill: none; stroke: #000000; stroke-width: 2; stroke-linecap: square"/>
   </g>
   <g id="line2d_24">
    <path d="M 75.883594 111.93753 
L 78.225381 118.409908 
L 80.567168 100.691745 
L 82.908955 92.395465 
L 85.250742 90.287523 
L 87.592529 88.341375 
L 89.934316 96.316488 
L 92.276103 99.112505 
L 94.61789 82.760124 
L 96.959677 89.404698 
L 99.301464 87.816197 
L 101.643251 99.188624 
L 103.985038 85.902829 
L 106.326826 101.235641 
L 108.668613 103.775254 
L 111.0104 108.414871 
L 113.352187 119.585955 
L 115.693974 142.347653 
L 118.035761 166.584771 
L 120.377548 165.487354 
L 122.719335 166.996361 
L 125.061122 173.81484 
L 127.402909 174.890851 
L 129.744696 176.493438 
L 132.086483 163.502618 
L 134.42827 172.157215 
L 136.770057 173.113079 
L 139.111844 178.992025 
L 141.453631 188.740993 
L 143.795418 182.429878 
L 146.137206 198.024837 
L 148.478993 187.179869 
L 150.82078 165.207261 
L 153.162567 156.489932 
L 155.504354 171.489512 
L 157.846141 177.396598 
L 160.187928 176.925301 
L 162.529715 170.196904 
L 164.871502 188.580996 
L 167.213289 187.833092 
L 169.555076 216.105546 
L 171.896863 216.875294 
L 174.23865 198.427699 
L 176.580437 188.017479 
L 178.922224 164.613658 
L 183.605799 136.680419 
L 185.947586 150.968645 
L 188.289373 147.997988 
L 190.63116 132.118954 
L 192.972947 135.769333 
L 195.314734 124.292714 
L 197.656521 132.084094 
L 199.998308 128.171316 
L 202.340095 132.844762 
L 204.681882 147.719732 
L 207.023669 153.804949 
L 209.365456 155.724134 
L 211.707243 134.635393 
L 214.04903 140.408244 
L 216.390817 129.517757 
L 218.732604 121.950078 
L 221.074391 135.182954 
L 223.416179 127.879894 
L 225.757966 125.8907 
L 228.099753 124.597072 
L 230.44154 124.38074 
L 232.783327 125.882521 
L 235.125114 138.537374 
L 237.466901 149.80301 
L 239.808688 142.416732 
L 242.150475 137.743948 
L 244.492262 135.103358 
L 246.834049 141.301287 
L 249.175836 150.709847 
L 251.517623 150.891826 
L 253.85941 154.939752 
L 256.201197 151.231831 
L 258.542984 150.020434 
L 260.884772 160.531906 
L 263.226559 168.010416 
L 265.568346 177.799752 
L 267.910133 172.323128 
L 270.25192 177.98464 
L 272.593707 202.135873 
L 274.935494 207.170524 
L 277.277281 216.51034 
L 279.619068 204.462506 
L 281.960855 209.884164 
L 284.302642 228.392569 
L 286.644429 229.9368 
L 288.986216 236.801676 
L 291.328003 223.590558 
L 293.66979 219.716829 
L 296.011577 210.73726 
L 300.695152 181.333832 
L 303.036939 158.777864 
L 305.378726 165.675255 
L 307.720513 167.75392 
L 310.0623 167.606616 
L 312.404087 186.806526 
L 314.745874 191.271128 
L 317.087661 183.918494 
L 319.429448 183.436292 
L 321.771235 172.251242 
L 324.113022 161.800262 
L 326.454809 157.497895 
L 328.796596 149.607039 
L 331.138383 168.672713 
L 333.48017 155.827386 
L 335.821957 163.280788 
L 338.163745 168.688419 
L 340.505532 167.819074 
L 342.847319 179.007059 
L 345.189106 169.473741 
L 347.530893 180.560109 
L 349.87268 189.244808 
L 352.214467 177.236643 
L 354.556254 174.046047 
L 356.898041 180.479725 
L 359.239828 178.443589 
L 361.581615 165.940819 
L 363.923402 170.249397 
L 366.265189 167.330443 
L 368.606976 171.298454 
L 370.948763 159.283105 
L 373.29055 157.590781 
L 375.632337 151.432835 
L 377.974125 145.745346 
L 380.315912 146.435642 
L 382.657699 148.680108 
L 384.999486 158.76885 
L 387.341273 148.555935 
L 389.68306 150.21586 
L 392.024847 150.601569 
L 394.366634 154.319361 
L 396.708421 161.213912 
L 399.050208 169.184685 
L 401.391995 170.359926 
L 403.733782 188.597737 
L 406.075569 196.422287 
L 408.417356 198.443825 
L 410.759143 196.160427 
L 413.10093 193.515352 
L 415.442717 188.392851 
L 417.784505 175.238915 
L 420.126292 192.401687 
L 422.468079 187.471314 
L 424.809866 191.952898 
L 427.151653 197.927529 
L 429.49344 181.277869 
L 431.835227 187.851664 
L 434.177014 178.242592 
L 436.518801 171.907133 
L 438.860588 157.7009 
L 441.202375 144.208914 
L 443.544162 143.989417 
L 445.885949 152.711672 
L 448.227736 143.971791 
L 450.569523 148.445581 
L 452.91131 161.434764 
L 455.253098 153.567659 
L 457.594885 150.920721 
L 459.936672 146.611413 
L 462.278459 144.163927 
L 464.620246 142.474296 
L 466.962033 135.723896 
L 469.30382 151.10112 
L 471.645607 149.454114 
L 473.987394 161.41468 
L 476.329181 159.9458 
L 478.670968 162.256778 
L 481.012755 164.075941 
L 483.354542 176.489801 
L 485.696329 171.070189 
L 488.038116 181.93883 
L 490.379903 173.524298 
L 492.72169 180.818286 
L 495.063478 187.417616 
L 497.405265 184.852872 
L 499.747052 186.332512 
L 502.088839 178.099672 
L 504.430626 190.227913 
L 509.1142 198.557254 
L 511.455987 183.603597 
L 513.797774 181.67801 
L 516.139561 197.973479 
L 518.481348 189.148059 
L 520.823135 200.520359 
L 523.164922 206.91506 
L 525.506709 206.375519 
L 527.848496 204.038284 
L 530.190283 212.862429 
L 532.532071 223.079704 
L 534.873858 222.726233 
L 537.215645 217.872577 
L 539.557432 220.59015 
L 541.899219 233.300032 
L 541.899219 233.300032 
" clip-path="url(#p637322b23b)" style="fill: none; stroke: #bfbf00; stroke-width: 2; stroke-linecap: square"/>
   </g>
   <g id="line2d_25">
    <path d="M 75.883594 119.107648 
L 78.225381 96.146855 
L 80.567168 105.802041 
L 82.908955 110.901797 
L 85.250742 101.481634 
L 87.592529 98.366131 
L 89.934316 103.72695 
L 92.276103 100.882893 
L 94.61789 111.876138 
L 96.959677 90.711607 
L 99.301464 94.448155 
L 101.643251 88.440174 
L 103.985038 85.723941 
L 106.326826 78.643308 
L 108.668613 74.561805 
L 111.0104 86.70159 
L 113.352187 78.121273 
L 115.693974 82.252502 
L 118.035761 77.320054 
L 120.377548 94.182163 
L 122.719335 112.988979 
L 125.061122 108.844301 
L 127.402909 83.184873 
L 129.744696 103.176001 
L 132.086483 92.287196 
L 134.42827 88.463579 
L 136.770057 87.218962 
L 139.111844 79.636725 
L 141.453631 58.606825 
L 143.795418 63.310022 
L 146.137206 52.624001 
L 148.478993 55.015568 
L 150.82078 56.023146 
L 153.162567 81.689133 
L 155.504354 71.6149 
L 157.846141 78.983367 
L 160.187928 64.332844 
L 162.529715 62.866185 
L 164.871502 72.172161 
L 167.213289 79.310082 
L 169.555076 66.874772 
L 171.896863 79.091788 
L 174.23865 84.767279 
L 176.580437 86.510678 
L 178.922224 89.93783 
L 181.264011 84.19544 
L 183.605799 94.227241 
L 185.947586 87.463581 
L 188.289373 84.53294 
L 192.972947 111.126547 
L 195.314734 121.561207 
L 197.656521 139.765007 
L 202.340095 119.53389 
L 204.681882 143.554143 
L 207.023669 141.60314 
L 209.365456 139.991297 
L 211.707243 131.748209 
L 214.04903 126.125648 
L 216.390817 134.104468 
L 218.732604 134.879869 
L 221.074391 134.559683 
L 223.416179 127.38032 
L 225.757966 123.834674 
L 228.099753 116.522789 
L 230.44154 102.908488 
L 232.783327 110.196176 
L 235.125114 115.912576 
L 237.466901 114.076016 
L 239.808688 126.88411 
L 242.150475 135.920889 
L 244.492262 134.869006 
L 246.834049 120.184459 
L 249.175836 132.597094 
L 251.517623 119.862822 
L 253.85941 114.416256 
L 256.201197 118.697795 
L 258.542984 126.040593 
L 260.884772 121.234536 
L 263.226559 123.575188 
L 265.568346 115.338381 
L 267.910133 88.302384 
L 270.25192 82.138317 
L 272.593707 81.904022 
L 274.935494 74.621075 
L 277.277281 88.115721 
L 279.619068 80.765481 
L 281.960855 85.059481 
L 284.302642 93.30586 
L 286.644429 92.484596 
L 288.986216 102.536761 
L 291.328003 100.136233 
L 293.66979 103.619787 
L 296.011577 100.19009 
L 298.353364 76.859549 
L 300.695152 77.055065 
L 303.036939 83.220609 
L 305.378726 94.445157 
L 307.720513 92.991132 
L 310.0623 94.62505 
L 312.404087 90.694225 
L 314.745874 108.949476 
L 317.087661 119.60774 
L 319.429448 124.218596 
L 321.771235 110.422044 
L 324.113022 114.705766 
L 326.454809 114.617378 
L 328.796596 129.136147 
L 331.138383 119.964367 
L 333.48017 133.568802 
L 335.821957 137.47566 
L 338.163745 123.457396 
L 340.505532 120.432416 
L 342.847319 121.796622 
L 345.189106 128.852687 
L 347.530893 112.899313 
L 349.87268 110.866331 
L 352.214467 95.566847 
L 354.556254 109.758148 
L 356.898041 128.287381 
L 359.239828 113.539202 
L 361.581615 104.995726 
L 363.923402 107.384109 
L 366.265189 103.551164 
L 368.606976 131.48089 
L 370.948763 132.311356 
L 373.29055 122.028886 
L 375.632337 117.951453 
L 377.974125 115.341889 
L 380.315912 118.057811 
L 382.657699 122.136585 
L 384.999486 135.715523 
L 387.341273 127.692074 
L 389.68306 136.715582 
L 392.024847 136.02805 
L 394.366634 136.081838 
L 396.708421 143.446747 
L 399.050208 114.332258 
L 401.391995 108.440431 
L 403.733782 107.412238 
L 406.075569 112.960064 
L 408.417356 117.205569 
L 410.759143 105.312948 
L 413.10093 102.508962 
L 415.442717 94.015105 
L 417.784505 110.663612 
L 420.126292 100.557598 
L 422.468079 118.553297 
L 424.809866 116.749382 
L 427.151653 116.655156 
L 429.49344 131.36606 
L 431.835227 144.220145 
L 434.177014 158.417375 
L 436.518801 151.934242 
L 438.860588 152.87839 
L 441.202375 139.576901 
L 443.544162 130.711275 
L 445.885949 128.960543 
L 448.227736 132.062311 
L 450.569523 140.088772 
L 452.91131 143.325358 
L 455.253098 140.659605 
L 457.594885 139.725656 
L 459.936672 151.324912 
L 462.278459 134.306361 
L 464.620246 131.557609 
L 466.962033 144.215429 
L 469.30382 145.490572 
L 471.645607 148.81748 
L 473.987394 155.811244 
L 476.329181 143.637983 
L 478.670968 162.000783 
L 481.012755 179.019917 
L 483.354542 170.207568 
L 485.696329 180.006484 
L 488.038116 196.63773 
L 490.379903 186.581834 
L 492.72169 189.169535 
L 495.063478 198.841127 
L 497.405265 198.036308 
L 499.747052 198.066181 
L 502.088839 200.250305 
L 504.430626 189.331516 
L 506.772413 185.058726 
L 509.1142 179.707529 
L 511.455987 190.214711 
L 513.797774 196.658696 
L 516.139561 191.193745 
L 518.481348 200.678828 
L 520.823135 199.337201 
L 523.164922 187.428587 
L 525.506709 181.191404 
L 527.848496 190.297306 
L 530.190283 198.895087 
L 532.532071 200.950496 
L 534.873858 202.643931 
L 537.215645 207.044194 
L 539.557432 208.670336 
L 541.899219 209.249843 
L 541.899219 209.249843 
" clip-path="url(#p637322b23b)" style="fill: none; stroke: #bf00bf; stroke-width: 2; stroke-linecap: square"/>
   </g>
   <g id="patch_3">
    <path d="M 52.582813 246.84375 
L 52.582813 25.918125 
" style="fill: none; stroke: #000000; stroke-width: 0.8; stroke-linejoin: miter; stroke-linecap: square"/>
   </g>
   <g id="patch_4">
    <path d="M 565.2 246.84375 
L 565.2 25.918125 
" style="fill: none; stroke: #000000; stroke-width: 0.8; stroke-linejoin: miter; stroke-linecap: square"/>
   </g>
   <g id="patch_5">
    <path d="M 52.582813 246.84375 
L 565.2 246.84375 
" style="fill: none; stroke: #000000; stroke-width: 0.8; stroke-linejoin: miter; stroke-linecap: square"/>
   </g>
   <g id="patch_6">
    <path d="M 52.582813 25.918125 
L 565.2 25.918125 
" style="fill: none; stroke: #000000; stroke-width: 0.8; stroke-linejoin: miter; stroke-linecap: square"/>
   </g>
   <g id="text_14">
    <!-- Random trends -->
    <g transform="translate(263.033594 19.918125) scale(0.12 -0.12)">
     <defs>
      <path id="DejaVuSans-52" d="M 2841 2188 
Q 3044 2119 3236 1894 
Q 3428 1669 3622 1275 
L 4263 0 
L 3584 0 
L 2988 1197 
Q 2756 1666 2539 1819 
Q 2322 1972 1947 1972 
L 1259 1972 
L 1259 0 
L 628 0 
L 628 4666 
L 2053 4666 
Q 2853 4666 3247 4331 
Q 3641 3997 3641 3322 
Q 3641 2881 3436 2590 
Q 3231 2300 2841 2188 
z
M 1259 4147 
L 1259 2491 
L 2053 2491 
Q 2509 2491 2742 2702 
Q 2975 2913 2975 3322 
Q 2975 3731 2742 3939 
Q 2509 4147 2053 4147 
L 1259 4147 
z
" transform="scale(0.015625)"/>
      <path id="DejaVuSans-6e" d="M 3513 2113 
L 3513 0 
L 2938 0 
L 2938 2094 
Q 2938 2591 2744 2837 
Q 2550 3084 2163 3084 
Q 1697 3084 1428 2787 
Q 1159 2491 1159 1978 
L 1159 0 
L 581 0 
L 581 3500 
L 1159 3500 
L 1159 2956 
Q 1366 3272 1645 3428 
Q 1925 3584 2291 3584 
Q 2894 3584 3203 3211 
Q 3513 2838 3513 2113 
z
" transform="scale(0.015625)"/>
      <path id="DejaVuSans-64" d="M 2906 2969 
L 2906 4863 
L 3481 4863 
L 3481 0 
L 2906 0 
L 2906 525 
Q 2725 213 2448 61 
Q 2172 -91 1784 -91 
Q 1150 -91 751 415 
Q 353 922 353 1747 
Q 353 2572 751 3078 
Q 1150 3584 1784 3584 
Q 2172 3584 2448 3432 
Q 2725 3281 2906 2969 
z
M 947 1747 
Q 947 1113 1208 752 
Q 1469 391 1925 391 
Q 2381 391 2643 752 
Q 2906 1113 2906 1747 
Q 2906 2381 2643 2742 
Q 2381 3103 1925 3103 
Q 1469 3103 1208 2742 
Q 947 2381 947 1747 
z
" transform="scale(0.015625)"/>
      <path id="DejaVuSans-6f" d="M 1959 3097 
Q 1497 3097 1228 2736 
Q 959 2375 959 1747 
Q 959 1119 1226 758 
Q 1494 397 1959 397 
Q 2419 397 2687 759 
Q 2956 1122 2956 1747 
Q 2956 2369 2687 2733 
Q 2419 3097 1959 3097 
z
M 1959 3584 
Q 2709 3584 3137 3096 
Q 3566 2609 3566 1747 
Q 3566 888 3137 398 
Q 2709 -91 1959 -91 
Q 1206 -91 779 398 
Q 353 888 353 1747 
Q 353 2609 779 3096 
Q 1206 3584 1959 3584 
z
" transform="scale(0.015625)"/>
      <path id="DejaVuSans-72" d="M 2631 2963 
Q 2534 3019 2420 3045 
Q 2306 3072 2169 3072 
Q 1681 3072 1420 2755 
Q 1159 2438 1159 1844 
L 1159 0 
L 581 0 
L 581 3500 
L 1159 3500 
L 1159 2956 
Q 1341 3275 1631 3429 
Q 1922 3584 2338 3584 
Q 2397 3584 2469 3576 
Q 2541 3569 2628 3553 
L 2631 2963 
z
" transform="scale(0.015625)"/>
     </defs>
     <use xlink:href="#DejaVuSans-52"/>
     <use xlink:href="#DejaVuSans-61" x="67.232422"/>
     <use xlink:href="#DejaVuSans-6e" x="128.511719"/>
     <use xlink:href="#DejaVuSans-64" x="191.890625"/>
     <use xlink:href="#DejaVuSans-6f" x="255.367188"/>
     <use xlink:href="#DejaVuSans-6d" x="316.548828"/>
     <use xlink:href="#DejaVuSans-20" x="413.960938"/>
     <use xlink:href="#DejaVuSans-74" x="445.748047"/>
     <use xlink:href="#DejaVuSans-72" x="484.957031"/>
     <use xlink:href="#DejaVuSans-65" x="523.820312"/>
     <use xlink:href="#DejaVuSans-6e" x="585.34375"/>
     <use xlink:href="#DejaVuSans-64" x="648.722656"/>
     <use xlink:href="#DejaVuSans-73" x="712.199219"/>
    </g>
   </g>
  </g>
  <g id="text_15">
   <!-- SOME TEXT -->
   <g transform="translate(515.565313 283.040313) scale(0.1 -0.1)">
    <defs>
     <path id="DejaVuSans-53" d="M 3425 4513 
L 3425 3897 
Q 3066 4069 2747 4153 
Q 2428 4238 2131 4238 
Q 1616 4238 1336 4038 
Q 1056 3838 1056 3469 
Q 1056 3159 1242 3001 
Q 1428 2844 1947 2747 
L 2328 2669 
Q 3034 2534 3370 2195 
Q 3706 1856 3706 1288 
Q 3706 609 3251 259 
Q 2797 -91 1919 -91 
Q 1588 -91 1214 -16 
Q 841 59 441 206 
L 441 856 
Q 825 641 1194 531 
Q 1563 422 1919 422 
Q 2459 422 2753 634 
Q 3047 847 3047 1241 
Q 3047 1584 2836 1778 
Q 2625 1972 2144 2069 
L 1759 2144 
Q 1053 2284 737 2584 
Q 422 2884 422 3419 
Q 422 4038 858 4394 
Q 1294 4750 2059 4750 
Q 2388 4750 2728 4690 
Q 3069 4631 3425 4513 
z
" transform="scale(0.015625)"/>
     <path id="DejaVuSans-4f" d="M 2522 4238 
Q 1834 4238 1429 3725 
Q 1025 3213 1025 2328 
Q 1025 1447 1429 934 
Q 1834 422 2522 422 
Q 3209 422 3611 934 
Q 4013 1447 4013 2328 
Q 4013 3213 3611 3725 
Q 3209 4238 2522 4238 
z
M 2522 4750 
Q 3503 4750 4090 4092 
Q 4678 3434 4678 2328 
Q 4678 1225 4090 567 
Q 3503 -91 2522 -91 
Q 1538 -91 948 565 
Q 359 1222 359 2328 
Q 359 3434 948 4092 
Q 1538 4750 2522 4750 
z
" transform="scale(0.015625)"/>
     <path id="DejaVuSans-4d" d="M 628 4666 
L 1569 4666 
L 2759 1491 
L 3956 4666 
L 4897 4666 
L 4897 0 
L 4281 0 
L 4281 4097 
L 3078 897 
L 2444 897 
L 1241 4097 
L 1241 0 
L 628 0 
L 628 4666 
z
" transform="scale(0.015625)"/>
     <path id="DejaVuSans-45" d="M 628 4666 
L 3578 4666 
L 3578 4134 
L 1259 4134 
L 1259 2753 
L 3481 2753 
L 3481 2222 
L 1259 2222 
L 1259 531 
L 3634 531 
L 3634 0 
L 628 0 
L 628 4666 
z
" transform="scale(0.015625)"/>
     <path id="DejaVuSans-54" d="M -19 4666 
L 3928 4666 
L 3928 4134 
L 2272 4134 
L 2272 0 
L 1638 0 
L 1638 4134 
L -19 4134 
L -19 4666 
z
" transform="scale(0.015625)"/>
     <path id="DejaVuSans-58" d="M 403 4666 
L 1081 4666 
L 2241 2931 
L 3406 4666 
L 4084 4666 
L 2584 2425 
L 4184 0 
L 3506 0 
L 2194 1984 
L 872 0 
L 191 0 
L 1856 2491 
L 403 4666 
z
" transform="scale(0.015625)"/>
    </defs>
    <use xlink:href="#DejaVuSans-53"/>
    <use xlink:href="#DejaVuSans-4f" x="63.476562"/>
    <use xlink:href="#DejaVuSans-4d" x="142.1875"/>
    <use xlink:href="#DejaVuSans-45" x="228.466797"/>
    <use xlink:href="#DejaVuSans-20" x="291.650391"/>
    <use xlink:href="#DejaVuSans-54" x="323.4375"/>
    <use xlink:href="#DejaVuSans-45" x="384.521484"/>
    <use xlink:href="#DejaVuSans-58" x="447.705078"/>
    <use xlink:href="#DejaVuSans-54" x="514.460938"/>
   </g>
  </g>
 </g>
 <defs>
  <clipPath id="p637322b23b">
   <rect x="52.582813" y="25.918125" width="512.617187" height="220.925625"/>
  </clipPath>
 </defs>
</svg>
