<?xml version="1.0" encoding="utf-8" standalone="no"?>
<!DOCTYPE svg PUBLIC "-//W3C//DTD SVG 1.1//EN"
  "http://www.w3.org/Graphics/SVG/1.1/DTD/svg11.dtd">
<svg xmlns:xlink="http://www.w3.org/1999/xlink" width="576pt" height="288pt" viewBox="0 0 576 288" xmlns="http://www.w3.org/2000/svg" version="1.1">
 <metadata>
  <rdf:RDF xmlns:dc="http://purl.org/dc/elements/1.1/" xmlns:cc="http://creativecommons.org/ns#" xmlns:rdf="http://www.w3.org/1999/02/22-rdf-syntax-ns#">
   <cc:Work>
    <dc:type rdf:resource="http://purl.org/dc/dcmitype/StillImage"/>
    <dc:date>2023-11-24T20:25:45.373406</dc:date>
    <dc:format>image/svg+xml</dc:format>
    <dc:creator>
     <cc:Agent>
      <dc:title>Matplotlib v3.8.1, https://matplotlib.org/</dc:title>
     </cc:Agent>
    </dc:creator>
   </cc:Work>
  </rdf:RDF>
 </metadata>
 <defs>
  <style type="text/css">*{stroke-linejoin: round; stroke-linecap: butt}</style>
 </defs>
 <g id="figure_1">
  <g id="patch_1">
   <path d="M 0 288 
L 576 288 
L 576 0 
L 0 0 
z
" style="fill: #ffffff"/>
  </g>
  <g id="axes_1">
   <g id="patch_2">
    <path d="M 72 256.32 
L 518.4 256.32 
L 518.4 34.56 
L 72 34.56 
z
" style="fill: #ffffff"/>
   </g>
   <g id="PathCollection_1">
    <path d="M 92.290909 252.894426 
C 94.055683 252.894426 95.748415 252.193273 96.996299 250.945389 
C 98.244182 249.697506 98.945335 248.004774 98.945335 246.24 
C 98.945335 244.475226 98.244182 242.782494 96.996299 241.534611 
C 95.748415 240.286727 94.055683 239.585574 92.290909 239.585574 
C 90.526135 239.585574 88.833404 240.286727 87.58552 241.534611 
C 86.337636 242.782494 85.636484 244.475226 85.636484 246.24 
C 85.636484 248.004774 86.337636 249.697506 87.58552 250.945389 
C 88.833404 252.193273 90.526135 252.894426 92.290909 252.894426 
z
" clip-path="url(#pcccdab0b36)" style="fill: #2c728e; fill-opacity: 0.5; stroke: #2c728e; stroke-opacity: 0.5"/>
    <path d="M 96.390083 205.361789 
C 97.120833 205.361789 97.821753 205.071459 98.338472 204.55474 
C 98.855191 204.038021 99.145521 203.337102 99.145521 202.606351 
C 99.145521 201.8756 98.855191 201.174681 98.338472 200.657962 
C 97.821753 200.141243 97.120833 199.850913 96.390083 199.850913 
C 95.659332 199.850913 94.958412 200.141243 94.441694 200.657962 
C 93.924975 201.174681 93.634644 201.8756 93.634644 202.606351 
C 93.634644 203.337102 93.924975 204.038021 94.441694 204.55474 
C 94.958412 205.071459 95.659332 205.361789 96.390083 205.361789 
z
" clip-path="url(#pcccdab0b36)" style="fill: #440256; fill-opacity: 0.5; stroke: #440256; stroke-opacity: 0.5"/>
    <path d="M 100.489256 222.82113 
C 101.125746 222.82113 101.736252 222.56825 102.186318 222.118184 
C 102.636384 221.668118 102.889264 221.057612 102.889264 220.421123 
C 102.889264 219.784633 102.636384 219.174127 102.186318 218.724061 
C 101.736252 218.273995 101.125746 218.021115 100.489256 218.021115 
C 99.852767 218.021115 99.242261 218.273995 98.792195 218.724061 
C 98.342129 219.174127 98.089249 219.784633 98.089249 220.421123 
C 98.089249 221.057612 98.342129 221.668118 98.792195 222.118184 
C 99.242261 222.56825 99.852767 222.82113 100.489256 222.82113 
z
" clip-path="url(#pcccdab0b36)" style="fill: #46337f; fill-opacity: 0.5; stroke: #46337f; stroke-opacity: 0.5"/>
    <path d="M 104.58843 169.135568 
C 105.765646 169.135568 106.894806 168.667855 107.727223 167.835437 
C 108.559641 167.00302 109.027354 165.87386 109.027354 164.696644 
C 109.027354 163.519427 108.559641 162.390268 107.727223 161.55785 
C 106.894806 160.725432 105.765646 160.257719 104.58843 160.257719 
C 103.411213 160.257719 102.282054 160.725432 101.449636 161.55785 
C 100.617218 162.390268 100.149505 163.519427 100.149505 164.696644 
C 100.149505 165.87386 100.617218 167.00302 101.449636 167.835437 
C 102.282054 168.667855 103.411213 169.135568 104.58843 169.135568 
z
" clip-path="url(#pcccdab0b36)" style="fill: #c0df25; fill-opacity: 0.5; stroke: #c0df25; stroke-opacity: 0.5"/>
    <path d="M 108.687603 212.451882 
C 110.166531 212.451882 111.585084 211.864297 112.630844 210.818538 
C 113.676603 209.772778 114.264187 208.354225 114.264187 206.875298 
C 114.264187 205.39637 113.676603 203.977817 112.630844 202.932057 
C 111.585084 201.886298 110.166531 201.298714 108.687603 201.298714 
C 107.208676 201.298714 105.790123 201.886298 104.744363 202.932057 
C 103.698603 203.977817 103.111019 205.39637 103.111019 206.875298 
C 103.111019 208.354225 103.698603 209.772778 104.744363 210.818538 
C 105.790123 211.864297 107.208676 212.451882 108.687603 212.451882 
z
" clip-path="url(#pcccdab0b36)" style="fill: #29af7f; fill-opacity: 0.5; stroke: #29af7f; stroke-opacity: 0.5"/>
    <path d="M 112.786777 203.476214 
C 114.010927 203.476214 115.185104 202.989854 116.050709 202.124249 
C 116.916314 201.258644 117.402674 200.084467 117.402674 198.860317 
C 117.402674 197.636166 116.916314 196.461989 116.050709 195.596384 
C 115.185104 194.730779 114.010927 194.244419 112.786777 194.244419 
C 111.562627 194.244419 110.38845 194.730779 109.522845 195.596384 
C 108.65724 196.461989 108.17088 197.636166 108.17088 198.860317 
C 108.17088 200.084467 108.65724 201.258644 109.522845 202.124249 
C 110.38845 202.989854 111.562627 203.476214 112.786777 203.476214 
z
" clip-path="url(#pcccdab0b36)" style="fill: #1fa187; fill-opacity: 0.5; stroke: #1fa187; stroke-opacity: 0.5"/>
    <path d="M 116.88595 211.610689 
C 118.444637 211.610689 119.939694 210.991417 121.041851 209.889259 
C 122.144009 208.787101 122.763282 207.292044 122.763282 205.733358 
C 122.763282 204.174671 122.144009 202.679614 121.041851 201.577457 
C 119.939694 200.475299 118.444637 199.856026 116.88595 199.856026 
C 115.327264 199.856026 113.832207 200.475299 112.730049 201.577457 
C 111.627891 202.679614 111.008619 204.174671 111.008619 205.733358 
C 111.008619 207.292044 111.627891 208.787101 112.730049 209.889259 
C 113.832207 210.991417 115.327264 211.610689 116.88595 211.610689 
z
" clip-path="url(#pcccdab0b36)" style="fill: #297a8e; fill-opacity: 0.5; stroke: #297a8e; stroke-opacity: 0.5"/>
    <path d="M 120.985124 188.035595 
C 121.78695 188.035595 122.556044 187.717026 123.12302 187.15005 
C 123.689997 186.583073 124.008566 185.813979 124.008566 185.012153 
C 124.008566 184.210327 123.689997 183.441233 123.12302 182.874257 
C 122.556044 182.30728 121.78695 181.988711 120.985124 181.988711 
C 120.183298 181.988711 119.414204 182.30728 118.847228 182.874257 
C 118.280251 183.441233 117.961682 184.210327 117.961682 185.012153 
C 117.961682 185.813979 118.280251 186.583073 118.847228 187.15005 
C 119.414204 187.717026 120.183298 188.035595 120.985124 188.035595 
z
" clip-path="url(#pcccdab0b36)" style="fill: #3c4f8a; fill-opacity: 0.5; stroke: #3c4f8a; stroke-opacity: 0.5"/>
    <path d="M 125.084298 214.675672 
C 126.69557 214.675672 128.241066 214.035506 129.380407 212.896165 
C 130.519749 211.756823 131.159914 210.211327 131.159914 208.600055 
C 131.159914 206.988782 130.519749 205.443287 129.380407 204.303945 
C 128.241066 203.164603 126.69557 202.524438 125.084298 202.524438 
C 123.473025 202.524438 121.927529 203.164603 120.788188 204.303945 
C 119.648846 205.443287 119.008681 206.988782 119.008681 208.600055 
C 119.008681 210.211327 119.648846 211.756823 120.788188 212.896165 
C 121.927529 214.035506 123.473025 214.675672 125.084298 214.675672 
z
" clip-path="url(#pcccdab0b36)" style="fill: #277f8e; fill-opacity: 0.5; stroke: #277f8e; stroke-opacity: 0.5"/>
    <path d="M 129.183471 198.285903 
C 130.359187 198.285903 131.486907 197.818786 132.318264 196.987429 
C 133.149621 196.156072 133.616738 195.028352 133.616738 193.852636 
C 133.616738 192.67692 133.149621 191.5492 132.318264 190.717843 
C 131.486907 189.886486 130.359187 189.419369 129.183471 189.419369 
C 128.007755 189.419369 126.880035 189.886486 126.048678 190.717843 
C 125.217321 191.5492 124.750204 192.67692 124.750204 193.852636 
C 124.750204 195.028352 125.217321 196.156072 126.048678 196.987429 
C 126.880035 197.818786 128.007755 198.285903 129.183471 198.285903 
z
" clip-path="url(#pcccdab0b36)" style="fill: #440154; fill-opacity: 0.5; stroke: #440154; stroke-opacity: 0.5"/>
    <path d="M 133.282645 172.927981 
C 133.832812 172.927981 134.36052 172.709397 134.749547 172.32037 
C 135.138574 171.931343 135.357158 171.403635 135.357158 170.853468 
C 135.357158 170.3033 135.138574 169.775593 134.749547 169.386565 
C 134.36052 168.997538 133.832812 168.778955 133.282645 168.778955 
C 132.732477 168.778955 132.204769 168.997538 131.815742 169.386565 
C 131.426715 169.775593 131.208132 170.3033 131.208132 170.853468 
C 131.208132 171.403635 131.426715 171.931343 131.815742 172.32037 
C 132.204769 172.709397 132.732477 172.927981 133.282645 172.927981 
z
" clip-path="url(#pcccdab0b36)" style="fill: #481f70; fill-opacity: 0.5; stroke: #481f70; stroke-opacity: 0.5"/>
    <path d="M 137.381818 215.628594 
C 138.355983 215.628594 139.290379 215.241554 139.979217 214.552716 
C 140.668055 213.863878 141.055095 212.929481 141.055095 211.955317 
C 141.055095 210.981153 140.668055 210.046756 139.979217 209.357918 
C 139.290379 208.66908 138.355983 208.28204 137.381818 208.28204 
C 136.407654 208.28204 135.473257 208.66908 134.784419 209.357918 
C 134.095581 210.046756 133.708541 210.981153 133.708541 211.955317 
C 133.708541 212.929481 134.095581 213.863878 134.784419 214.552716 
C 135.473257 215.241554 136.407654 215.628594 137.381818 215.628594 
z
" clip-path="url(#pcccdab0b36)" style="fill: #424186; fill-opacity: 0.5; stroke: #424186; stroke-opacity: 0.5"/>
    <path d="M 141.480992 153.865271 
C 141.951521 153.865271 142.402842 153.678328 142.735556 153.345614 
C 143.068271 153.012899 143.255214 152.561578 143.255214 152.091049 
C 143.255214 151.62052 143.068271 151.169199 142.735556 150.836484 
C 142.402842 150.50377 141.951521 150.316826 141.480992 150.316826 
C 141.010462 150.316826 140.559141 150.50377 140.226427 150.836484 
C 139.893713 151.169199 139.706769 151.62052 139.706769 152.091049 
C 139.706769 152.561578 139.893713 153.012899 140.226427 153.345614 
C 140.559141 153.678328 141.010462 153.865271 141.480992 153.865271 
z
" clip-path="url(#pcccdab0b36)" style="fill: #5cc863; fill-opacity: 0.5; stroke: #5cc863; stroke-opacity: 0.5"/>
    <path d="M 145.580165 170.632158 
C 147.756872 170.632158 149.84472 169.767343 151.383885 168.228178 
C 152.923049 166.689014 153.787864 164.601166 153.787864 162.424459 
C 153.787864 160.247752 152.923049 158.159904 151.383885 156.62074 
C 149.84472 155.081575 147.756872 154.21676 145.580165 154.21676 
C 143.403458 154.21676 141.31561 155.081575 139.776446 156.62074 
C 138.237282 158.159904 137.372467 160.247752 137.372467 162.424459 
C 137.372467 164.601166 138.237282 166.689014 139.776446 168.228178 
C 141.31561 169.767343 143.403458 170.632158 145.580165 170.632158 
z
" clip-path="url(#pcccdab0b36)" style="fill: #c0df25; fill-opacity: 0.5; stroke: #c0df25; stroke-opacity: 0.5"/>
    <path d="M 149.679339 174.132021 
C 150.536569 174.132021 151.358806 173.79144 151.964959 173.185287 
C 152.571113 172.579133 152.911694 171.756897 152.911694 170.899666 
C 152.911694 170.042436 152.571113 169.2202 151.964959 168.614046 
C 151.358806 168.007892 150.536569 167.667311 149.679339 167.667311 
C 148.822108 167.667311 147.999872 168.007892 147.393719 168.614046 
C 146.787565 169.2202 146.446984 170.042436 146.446984 170.899666 
C 146.446984 171.756897 146.787565 172.579133 147.393719 173.185287 
C 147.999872 173.79144 148.822108 174.132021 149.679339 174.132021 
z
" clip-path="url(#pcccdab0b36)" style="fill: #2d708e; fill-opacity: 0.5; stroke: #2d708e; stroke-opacity: 0.5"/>
    <path d="M 153.778512 229.579429 
C 154.545764 229.579429 155.281694 229.274597 155.824222 228.732068 
C 156.366751 228.189539 156.671583 227.453609 156.671583 226.686358 
C 156.671583 225.919107 156.366751 225.183176 155.824222 224.640648 
C 155.281694 224.098119 154.545764 223.793287 153.778512 223.793287 
C 153.011261 223.793287 152.275331 224.098119 151.732802 224.640648 
C 151.190274 225.183176 150.885441 225.919107 150.885441 226.686358 
C 150.885441 227.453609 151.190274 228.189539 151.732802 228.732068 
C 152.275331 229.274597 153.011261 229.579429 153.778512 229.579429 
z
" clip-path="url(#pcccdab0b36)" style="fill: #365c8d; fill-opacity: 0.5; stroke: #365c8d; stroke-opacity: 0.5"/>
    <path d="M 157.877686 134.119066 
C 159.131951 134.119066 160.335014 133.620741 161.221913 132.733842 
C 162.108813 131.846942 162.607138 130.643879 162.607138 129.389614 
C 162.607138 128.135349 162.108813 126.932286 161.221913 126.045387 
C 160.335014 125.158487 159.131951 124.660162 157.877686 124.660162 
C 156.623421 124.660162 155.420358 125.158487 154.533459 126.045387 
C 153.646559 126.932286 153.148234 128.135349 153.148234 129.389614 
C 153.148234 130.643879 153.646559 131.846942 154.533459 132.733842 
C 155.420358 133.620741 156.623421 134.119066 157.877686 134.119066 
z
" clip-path="url(#pcccdab0b36)" style="fill: #a5db36; fill-opacity: 0.5; stroke: #a5db36; stroke-opacity: 0.5"/>
    <path d="M 161.97686 187.98827 
C 164.248669 187.98827 166.427736 187.085671 168.034148 185.479259 
C 169.640559 183.872848 170.543158 181.69378 170.543158 179.421971 
C 170.543158 177.150162 169.640559 174.971095 168.034148 173.364683 
C 166.427736 171.758272 164.248669 170.855672 161.97686 170.855672 
C 159.70505 170.855672 157.525983 171.758272 155.919571 173.364683 
C 154.31316 174.971095 153.410561 177.150162 153.410561 179.421971 
C 153.410561 181.69378 154.31316 183.872848 155.919571 185.479259 
C 157.525983 187.085671 159.70505 187.98827 161.97686 187.98827 
z
" clip-path="url(#pcccdab0b36)" style="fill: #23898e; fill-opacity: 0.5; stroke: #23898e; stroke-opacity: 0.5"/>
    <path d="M 166.076033 157.829704 
C 166.606758 157.829704 167.115817 157.618845 167.491096 157.243566 
C 167.866375 156.868287 168.077234 156.359228 168.077234 155.828504 
C 168.077234 155.297779 167.866375 154.78872 167.491096 154.413441 
C 167.115817 154.038162 166.606758 153.827303 166.076033 153.827303 
C 165.545308 153.827303 165.036249 154.038162 164.66097 154.413441 
C 164.285691 154.78872 164.074832 155.297779 164.074832 155.828504 
C 164.074832 156.359228 164.285691 156.868287 164.66097 157.243566 
C 165.036249 157.618845 165.545308 157.829704 166.076033 157.829704 
z
" clip-path="url(#pcccdab0b36)" style="fill: #28ae80; fill-opacity: 0.5; stroke: #28ae80; stroke-opacity: 0.5"/>
    <path d="M 170.175207 195.05785 
C 172.31193 195.05785 174.361426 194.208921 175.872318 192.698029 
C 177.383209 191.187138 178.232138 189.137642 178.232138 187.000918 
C 178.232138 184.864195 177.383209 182.814699 175.872318 181.303807 
C 174.361426 179.792916 172.31193 178.943987 170.175207 178.943987 
C 168.038483 178.943987 165.988987 179.792916 164.478096 181.303807 
C 162.967204 182.814699 162.118275 184.864195 162.118275 187.000918 
C 162.118275 189.137642 162.967204 191.187138 164.478096 192.698029 
C 165.988987 194.208921 168.038483 195.05785 170.175207 195.05785 
z
" clip-path="url(#pcccdab0b36)" style="fill: #482374; fill-opacity: 0.5; stroke: #482374; stroke-opacity: 0.5"/>
    <path d="M 174.27438 202.18717 
C 175.878839 202.18717 177.417799 201.549712 178.552323 200.415188 
C 179.686846 199.280664 180.324305 197.741704 180.324305 196.137245 
C 180.324305 194.532787 179.686846 192.993826 178.552323 191.859303 
C 177.417799 190.724779 175.878839 190.087321 174.27438 190.087321 
C 172.669921 190.087321 171.130961 190.724779 169.996438 191.859303 
C 168.861914 192.993826 168.224456 194.532787 168.224456 196.137245 
C 168.224456 197.741704 168.861914 199.280664 169.996438 200.415188 
C 171.130961 201.549712 172.669921 202.18717 174.27438 202.18717 
z
" clip-path="url(#pcccdab0b36)" style="fill: #443a83; fill-opacity: 0.5; stroke: #443a83; stroke-opacity: 0.5"/>
    <path d="M 178.373554 180.809649 
C 178.887774 180.809649 179.381003 180.605347 179.744612 180.241739 
C 180.10822 179.87813 180.312522 179.384901 180.312522 178.870681 
C 180.312522 178.35646 180.10822 177.863232 179.744612 177.499623 
C 179.381003 177.136014 178.887774 176.931712 178.373554 176.931712 
C 177.859333 176.931712 177.366105 177.136014 177.002496 177.499623 
C 176.638887 177.863232 176.434585 178.35646 176.434585 178.870681 
C 176.434585 179.384901 176.638887 179.87813 177.002496 180.241739 
C 177.366105 180.605347 177.859333 180.809649 178.373554 180.809649 
z
" clip-path="url(#pcccdab0b36)" style="fill: #365d8d; fill-opacity: 0.5; stroke: #365d8d; stroke-opacity: 0.5"/>
    <path d="M 182.472727 217.803271 
C 184.056392 217.803271 185.575406 217.174074 186.695226 216.054254 
C 187.815046 214.934434 188.444243 213.41542 188.444243 211.831755 
C 188.444243 210.248091 187.815046 208.729076 186.695226 207.609256 
C 185.575406 206.489436 184.056392 205.86024 182.472727 205.86024 
C 180.889063 205.86024 179.370048 206.489436 178.250228 207.609256 
C 177.130408 208.729076 176.501212 210.248091 176.501212 211.831755 
C 176.501212 213.41542 177.130408 214.934434 178.250228 216.054254 
C 179.370048 217.174074 180.889063 217.803271 182.472727 217.803271 
z
" clip-path="url(#pcccdab0b36)" style="fill: #2c728e; fill-opacity: 0.5; stroke: #2c728e; stroke-opacity: 0.5"/>
    <path d="M 186.571901 193.857387 
C 188.395172 193.857387 190.144012 193.132994 191.433259 191.843746 
C 192.722507 190.554499 193.4469 188.805659 193.4469 186.982388 
C 193.4469 185.159117 192.722507 183.410276 191.433259 182.121029 
C 190.144012 180.831782 188.395172 180.107388 186.571901 180.107388 
C 184.74863 180.107388 182.99979 180.831782 181.710542 182.121029 
C 180.421295 183.410276 179.696902 185.159117 179.696902 186.982388 
C 179.696902 188.805659 180.421295 190.554499 181.710542 191.843746 
C 182.99979 193.132994 184.74863 193.857387 186.571901 193.857387 
z
" clip-path="url(#pcccdab0b36)" style="fill: #22a785; fill-opacity: 0.5; stroke: #22a785; stroke-opacity: 0.5"/>
    <path d="M 190.671074 193.041029 
C 191.732741 193.041029 192.751067 192.619224 193.501778 191.868513 
C 194.252489 191.117802 194.674294 190.099476 194.674294 189.037809 
C 194.674294 187.976143 194.252489 186.957817 193.501778 186.207106 
C 192.751067 185.456394 191.732741 185.03459 190.671074 185.03459 
C 189.609408 185.03459 188.591082 185.456394 187.840371 186.207106 
C 187.089659 186.957817 186.667855 187.976143 186.667855 189.037809 
C 186.667855 190.099476 187.089659 191.117802 187.840371 191.868513 
C 188.591082 192.619224 189.609408 193.041029 190.671074 193.041029 
z
" clip-path="url(#pcccdab0b36)" style="fill: #2cb17e; fill-opacity: 0.5; stroke: #2cb17e; stroke-opacity: 0.5"/>
    <path d="M 194.770248 186.236433 
C 196.292614 186.236433 197.752832 185.631591 198.829308 184.555116 
C 199.905783 183.47864 200.510625 182.018422 200.510625 180.496056 
C 200.510625 178.97369 199.905783 177.513471 198.829308 176.436996 
C 197.752832 175.360521 196.292614 174.755679 194.770248 174.755679 
C 193.247882 174.755679 191.787663 175.360521 190.711188 176.436996 
C 189.634713 177.513471 189.029871 178.97369 189.029871 180.496056 
C 189.029871 182.018422 189.634713 183.47864 190.711188 184.555116 
C 191.787663 185.631591 193.247882 186.236433 194.770248 186.236433 
z
" clip-path="url(#pcccdab0b36)" style="fill: #472d7b; fill-opacity: 0.5; stroke: #472d7b; stroke-opacity: 0.5"/>
    <path d="M 198.869421 186.942557 
C 200.039745 186.942557 201.162292 186.477583 201.989835 185.650039 
C 202.817379 184.822496 203.282353 183.699949 203.282353 182.529626 
C 203.282353 181.359302 202.817379 180.236755 201.989835 179.409212 
C 201.162292 178.581668 200.039745 178.116694 198.869421 178.116694 
C 197.699098 178.116694 196.576551 178.581668 195.749008 179.409212 
C 194.921464 180.236755 194.45649 181.359302 194.45649 182.529626 
C 194.45649 183.699949 194.921464 184.822496 195.749008 185.650039 
C 196.576551 186.477583 197.699098 186.942557 198.869421 186.942557 
z
" clip-path="url(#pcccdab0b36)" style="fill: #20938c; fill-opacity: 0.5; stroke: #20938c; stroke-opacity: 0.5"/>
    <path d="M 202.968595 160.031518 
C 204.508432 160.031518 205.985408 159.419735 207.074237 158.330906 
C 208.163066 157.242077 208.77485 155.7651 208.77485 154.225264 
C 208.77485 152.685427 208.163066 151.20845 207.074237 150.119621 
C 205.985408 149.030792 204.508432 148.419009 202.968595 148.419009 
C 201.428758 148.419009 199.951782 149.030792 198.862953 150.119621 
C 197.774124 151.20845 197.16234 152.685427 197.16234 154.225264 
C 197.16234 155.7651 197.774124 157.242077 198.862953 158.330906 
C 199.951782 159.419735 201.428758 160.031518 202.968595 160.031518 
z
" clip-path="url(#pcccdab0b36)" style="fill: #21a585; fill-opacity: 0.5; stroke: #21a585; stroke-opacity: 0.5"/>
    <path d="M 207.067769 197.482322 
C 208.286906 197.482322 209.456274 196.997954 210.318334 196.135894 
C 211.180394 195.273834 211.664763 194.104465 211.664763 192.885328 
C 211.664763 191.666191 211.180394 190.496823 210.318334 189.634762 
C 209.456274 188.772702 208.286906 188.288334 207.067769 188.288334 
C 205.848632 188.288334 204.679263 188.772702 203.817203 189.634762 
C 202.955143 190.496823 202.470774 191.666191 202.470774 192.885328 
C 202.470774 194.104465 202.955143 195.273834 203.817203 196.135894 
C 204.679263 196.997954 205.848632 197.482322 207.067769 197.482322 
z
" clip-path="url(#pcccdab0b36)" style="fill: #8bd646; fill-opacity: 0.5; stroke: #8bd646; stroke-opacity: 0.5"/>
    <path d="M 211.166942 154.861607 
C 213.375651 154.861607 215.494195 153.984078 217.055988 152.422285 
C 218.617781 150.860492 219.49531 148.741948 219.49531 146.533239 
C 219.49531 144.32453 218.617781 142.205987 217.055988 140.644194 
C 215.494195 139.082401 213.375651 138.204871 211.166942 138.204871 
C 208.958233 138.204871 206.83969 139.082401 205.277897 140.644194 
C 203.716104 142.205987 202.838574 144.32453 202.838574 146.533239 
C 202.838574 148.741948 203.716104 150.860492 205.277897 152.422285 
C 206.83969 153.984078 208.958233 154.861607 211.166942 154.861607 
z
" clip-path="url(#pcccdab0b36)" style="fill: #277e8e; fill-opacity: 0.5; stroke: #277e8e; stroke-opacity: 0.5"/>
    <path d="M 215.266116 219.552993 
C 216.300297 219.552993 217.292261 219.142109 218.023537 218.410832 
C 218.754814 217.679555 219.165699 216.687592 219.165699 215.65341 
C 219.165699 214.619229 218.754814 213.627265 218.023537 212.895988 
C 217.292261 212.164712 216.300297 211.753827 215.266116 211.753827 
C 214.231934 211.753827 213.239971 212.164712 212.508694 212.895988 
C 211.777417 213.627265 211.366532 214.619229 211.366532 215.65341 
C 211.366532 216.687592 211.777417 217.679555 212.508694 218.410832 
C 213.239971 219.142109 214.231934 219.552993 215.266116 219.552993 
z
" clip-path="url(#pcccdab0b36)" style="fill: #75d054; fill-opacity: 0.5; stroke: #75d054; stroke-opacity: 0.5"/>
    <path d="M 219.365289 136.083817 
C 221.667913 136.083817 223.876537 135.168975 225.504738 133.540774 
C 227.132939 131.912573 228.047781 129.703949 228.047781 127.401325 
C 228.047781 125.098702 227.132939 122.890077 225.504738 121.261877 
C 223.876537 119.633676 221.667913 118.718834 219.365289 118.718834 
C 217.062666 118.718834 214.854041 119.633676 213.22584 121.261877 
C 211.59764 122.890077 210.682798 125.098702 210.682798 127.401325 
C 210.682798 129.703949 211.59764 131.912573 213.22584 133.540774 
C 214.854041 135.168975 217.062666 136.083817 219.365289 136.083817 
z
" clip-path="url(#pcccdab0b36)" style="fill: #60ca60; fill-opacity: 0.5; stroke: #60ca60; stroke-opacity: 0.5"/>
    <path d="M 223.464463 172.797391 
C 224.306619 172.797391 225.114397 172.462798 225.709892 171.867304 
C 226.305386 171.271809 226.639979 170.464032 226.639979 169.621875 
C 226.639979 168.779718 226.305386 167.971941 225.709892 167.376446 
C 225.114397 166.780952 224.306619 166.446359 223.464463 166.446359 
C 222.622306 166.446359 221.814529 166.780952 221.219034 167.376446 
C 220.623539 167.971941 220.288947 168.779718 220.288947 169.621875 
C 220.288947 170.464032 220.623539 171.271809 221.219034 171.867304 
C 221.814529 172.462798 222.622306 172.797391 223.464463 172.797391 
z
" clip-path="url(#pcccdab0b36)" style="fill: #2cb17e; fill-opacity: 0.5; stroke: #2cb17e; stroke-opacity: 0.5"/>
    <path d="M 227.563636 133.886992 
C 229.198513 133.886992 230.766649 133.237448 231.922681 132.081416 
C 233.078713 130.925384 233.728256 129.357248 233.728256 127.722372 
C 233.728256 126.087496 233.078713 124.519359 231.922681 123.363327 
C 230.766649 122.207295 229.198513 121.557752 227.563636 121.557752 
C 225.92876 121.557752 224.360624 122.207295 223.204592 123.363327 
C 222.04856 124.519359 221.399017 126.087496 221.399017 127.722372 
C 221.399017 129.357248 222.04856 130.925384 223.204592 132.081416 
C 224.360624 133.237448 225.92876 133.886992 227.563636 133.886992 
z
" clip-path="url(#pcccdab0b36)" style="fill: #f8e621; fill-opacity: 0.5; stroke: #f8e621; stroke-opacity: 0.5"/>
    <path d="M 231.66281 156.505525 
C 232.30839 156.505525 232.927615 156.249033 233.384109 155.792539 
C 233.840603 155.336046 234.097095 154.71682 234.097095 154.07124 
C 234.097095 153.42566 233.840603 152.806434 233.384109 152.34994 
C 232.927615 151.893446 232.30839 151.636955 231.66281 151.636955 
C 231.01723 151.636955 230.398004 151.893446 229.94151 152.34994 
C 229.485016 152.806434 229.228525 153.42566 229.228525 154.07124 
C 229.228525 154.71682 229.485016 155.336046 229.94151 155.792539 
C 230.398004 156.249033 231.01723 156.505525 231.66281 156.505525 
z
" clip-path="url(#pcccdab0b36)" style="fill: #34618d; fill-opacity: 0.5; stroke: #34618d; stroke-opacity: 0.5"/>
    <path d="M 235.761983 172.262816 
C 236.359589 172.262816 236.932798 172.025385 237.355369 171.602814 
C 237.77794 171.180244 238.015371 170.607034 238.015371 170.009429 
C 238.015371 169.411823 237.77794 168.838614 237.355369 168.416043 
C 236.932798 167.993472 236.359589 167.756041 235.761983 167.756041 
C 235.164378 167.756041 234.591168 167.993472 234.168598 168.416043 
C 233.746027 168.838614 233.508596 169.411823 233.508596 170.009429 
C 233.508596 170.607034 233.746027 171.180244 234.168598 171.602814 
C 234.591168 172.025385 235.164378 172.262816 235.761983 172.262816 
z
" clip-path="url(#pcccdab0b36)" style="fill: #433e85; fill-opacity: 0.5; stroke: #433e85; stroke-opacity: 0.5"/>
    <path d="M 239.861157 182.236496 
C 241.88153 182.236496 243.819425 181.433794 245.248044 180.005175 
C 246.676663 178.576555 247.479366 176.63866 247.479366 174.618287 
C 247.479366 172.597915 246.676663 170.660019 245.248044 169.2314 
C 243.819425 167.802781 241.88153 167.000079 239.861157 167.000079 
C 237.840784 167.000079 235.902889 167.802781 234.47427 169.2314 
C 233.045651 170.660019 232.242948 172.597915 232.242948 174.618287 
C 232.242948 176.63866 233.045651 178.576555 234.47427 180.005175 
C 235.902889 181.433794 237.840784 182.236496 239.861157 182.236496 
z
" clip-path="url(#pcccdab0b36)" style="fill: #3aba76; fill-opacity: 0.5; stroke: #3aba76; stroke-opacity: 0.5"/>
    <path d="M 243.960331 144.599049 
C 245.331839 144.599049 246.647358 144.054143 247.617161 143.08434 
C 248.586964 142.114537 249.13187 140.799018 249.13187 139.427509 
C 249.13187 138.056001 248.586964 136.740482 247.617161 135.770679 
C 246.647358 134.800876 245.331839 134.25597 243.960331 134.25597 
C 242.588822 134.25597 241.273303 134.800876 240.3035 135.770679 
C 239.333697 136.740482 238.788791 138.056001 238.788791 139.427509 
C 238.788791 140.799018 239.333697 142.114537 240.3035 143.08434 
C 241.273303 144.054143 242.588822 144.599049 243.960331 144.599049 
z
" clip-path="url(#pcccdab0b36)" style="fill: #b5de2b; fill-opacity: 0.5; stroke: #b5de2b; stroke-opacity: 0.5"/>
    <path d="M 248.059504 179.39018 
C 249.803495 179.39018 251.476292 178.697285 252.70948 177.464097 
C 253.942667 176.230909 254.635562 174.558113 254.635562 172.814122 
C 254.635562 171.070131 253.942667 169.397334 252.70948 168.164146 
C 251.476292 166.930958 249.803495 166.238063 248.059504 166.238063 
C 246.315513 166.238063 244.642717 166.930958 243.409529 168.164146 
C 242.176341 169.397334 241.483446 171.070131 241.483446 172.814122 
C 241.483446 174.558113 242.176341 176.230909 243.409529 177.464097 
C 244.642717 178.697285 246.315513 179.39018 248.059504 179.39018 
z
" clip-path="url(#pcccdab0b36)" style="fill: #470d60; fill-opacity: 0.5; stroke: #470d60; stroke-opacity: 0.5"/>
    <path d="M 252.158678 186.667738 
C 253.661375 186.667738 255.102729 186.07071 256.165296 185.008143 
C 257.227864 183.945575 257.824892 182.504222 257.824892 181.001524 
C 257.824892 179.498826 257.227864 178.057473 256.165296 176.994905 
C 255.102729 175.932337 253.661375 175.335309 252.158678 175.335309 
C 250.65598 175.335309 249.214627 175.932337 248.152059 176.994905 
C 247.089491 178.057473 246.492463 179.498826 246.492463 181.001524 
C 246.492463 182.504222 247.089491 183.945575 248.152059 185.008143 
C 249.214627 186.07071 250.65598 186.667738 252.158678 186.667738 
z
" clip-path="url(#pcccdab0b36)" style="fill: #aadc32; fill-opacity: 0.5; stroke: #aadc32; stroke-opacity: 0.5"/>
    <path d="M 256.257851 143.07457 
C 256.899338 143.07457 257.514638 142.819704 257.968238 142.366105 
C 258.421837 141.912505 258.676703 141.297205 258.676703 140.655718 
C 258.676703 140.014232 258.421837 139.398932 257.968238 138.945332 
C 257.514638 138.491732 256.899338 138.236867 256.257851 138.236867 
C 255.616364 138.236867 255.001065 138.491732 254.547465 138.945332 
C 254.093865 139.398932 253.839 140.014232 253.839 140.655718 
C 253.839 141.297205 254.093865 141.912505 254.547465 142.366105 
C 255.001065 142.819704 255.616364 143.07457 256.257851 143.07457 
z
" clip-path="url(#pcccdab0b36)" style="fill: #a2da37; fill-opacity: 0.5; stroke: #a2da37; stroke-opacity: 0.5"/>
    <path d="M 260.357025 161.88362 
C 261.557717 161.88362 262.709393 161.40658 263.55841 160.557562 
C 264.407428 159.708545 264.884468 158.556869 264.884468 157.356177 
C 264.884468 156.155485 264.407428 155.003809 263.55841 154.154791 
C 262.709393 153.305774 261.557717 152.828734 260.357025 152.828734 
C 259.156333 152.828734 258.004657 153.305774 257.155639 154.154791 
C 256.306622 155.003809 255.829582 156.155485 255.829582 157.356177 
C 255.829582 158.556869 256.306622 159.708545 257.155639 160.557562 
C 258.004657 161.40658 259.156333 161.88362 260.357025 161.88362 
z
" clip-path="url(#pcccdab0b36)" style="fill: #460b5e; fill-opacity: 0.5; stroke: #460b5e; stroke-opacity: 0.5"/>
    <path d="M 264.456198 153.760965 
C 264.954009 153.760965 265.431497 153.563183 265.783502 153.211178 
C 266.135508 152.859173 266.33329 152.381684 266.33329 151.883874 
C 266.33329 151.386063 266.135508 150.908575 265.783502 150.55657 
C 265.431497 150.204565 264.954009 150.006782 264.456198 150.006782 
C 263.958388 150.006782 263.480899 150.204565 263.128894 150.55657 
C 262.776889 150.908575 262.579107 151.386063 262.579107 151.883874 
C 262.579107 152.381684 262.776889 152.859173 263.128894 153.211178 
C 263.480899 153.563183 263.958388 153.760965 264.456198 153.760965 
z
" clip-path="url(#pcccdab0b36)" style="fill: #31678e; fill-opacity: 0.5; stroke: #31678e; stroke-opacity: 0.5"/>
    <path d="M 268.555372 155.884944 
C 270.363468 155.884944 272.097753 155.16658 273.376271 153.888062 
C 274.654788 152.609545 275.373152 150.87526 275.373152 149.067164 
C 275.373152 147.259067 274.654788 145.524782 273.376271 144.246265 
C 272.097753 142.967747 270.363468 142.249383 268.555372 142.249383 
C 266.747275 142.249383 265.01299 142.967747 263.734473 144.246265 
C 262.455956 145.524782 261.737591 147.259067 261.737591 149.067164 
C 261.737591 150.87526 262.455956 152.609545 263.734473 153.888062 
C 265.01299 155.16658 266.747275 155.884944 268.555372 155.884944 
z
" clip-path="url(#pcccdab0b36)" style="fill: #297b8e; fill-opacity: 0.5; stroke: #297b8e; stroke-opacity: 0.5"/>
    <path d="M 272.654545 116.784947 
C 274.322455 116.784947 275.922276 116.122279 277.101666 114.942889 
C 278.281056 113.763499 278.943723 112.163678 278.943723 110.495769 
C 278.943723 108.82786 278.281056 107.228039 277.101666 106.048649 
C 275.922276 104.869259 274.322455 104.206591 272.654545 104.206591 
C 270.986636 104.206591 269.386815 104.869259 268.207425 106.048649 
C 267.028035 107.228039 266.365368 108.82786 266.365368 110.495769 
C 266.365368 112.163678 267.028035 113.763499 268.207425 114.942889 
C 269.386815 116.122279 270.986636 116.784947 272.654545 116.784947 
z
" clip-path="url(#pcccdab0b36)" style="fill: #fde725; fill-opacity: 0.5; stroke: #fde725; stroke-opacity: 0.5"/>
    <path d="M 276.753719 161.708395 
C 278.027807 161.708395 279.249883 161.202194 280.1508 160.301278 
C 281.051716 159.400362 281.557916 158.178286 281.557916 156.904198 
C 281.557916 155.630109 281.051716 154.408033 280.1508 153.507117 
C 279.249883 152.606201 278.027807 152.1 276.753719 152.1 
C 275.479631 152.1 274.257555 152.606201 273.356638 153.507117 
C 272.455722 154.408033 271.949522 155.630109 271.949522 156.904198 
C 271.949522 158.178286 272.455722 159.400362 273.356638 160.301278 
C 274.257555 161.202194 275.479631 161.708395 276.753719 161.708395 
z
" clip-path="url(#pcccdab0b36)" style="fill: #40bd72; fill-opacity: 0.5; stroke: #40bd72; stroke-opacity: 0.5"/>
    <path d="M 280.852893 137.226226 
C 282.309059 137.226226 283.705781 136.647685 284.735446 135.61802 
C 285.765111 134.588355 286.343653 133.191633 286.343653 131.735466 
C 286.343653 130.2793 285.765111 128.882578 284.735446 127.852913 
C 283.705781 126.823248 282.309059 126.244706 280.852893 126.244706 
C 279.396726 126.244706 278.000004 126.823248 276.970339 127.852913 
C 275.940674 128.882578 275.362133 130.2793 275.362133 131.735466 
C 275.362133 133.191633 275.940674 134.588355 276.970339 135.61802 
C 278.000004 136.647685 279.396726 137.226226 280.852893 137.226226 
z
" clip-path="url(#pcccdab0b36)" style="fill: #e2e418; fill-opacity: 0.5; stroke: #e2e418; stroke-opacity: 0.5"/>
    <path d="M 284.952066 176.937271 
C 285.530844 176.937271 286.085994 176.707321 286.495251 176.298063 
C 286.904509 175.888806 287.134459 175.333655 287.134459 174.754878 
C 287.134459 174.176101 286.904509 173.62095 286.495251 173.211693 
C 286.085994 172.802436 285.530844 172.572485 284.952066 172.572485 
C 284.373289 172.572485 283.818139 172.802436 283.408881 173.211693 
C 282.999624 173.62095 282.769673 174.176101 282.769673 174.754878 
C 282.769673 175.333655 282.999624 175.888806 283.408881 176.298063 
C 283.818139 176.707321 284.373289 176.937271 284.952066 176.937271 
z
" clip-path="url(#pcccdab0b36)" style="fill: #9bd93c; fill-opacity: 0.5; stroke: #9bd93c; stroke-opacity: 0.5"/>
    <path d="M 289.05124 121.390021 
C 290.239104 121.390021 291.378477 120.918078 292.218424 120.078131 
C 293.058371 119.238184 293.530315 118.098811 293.530315 116.910946 
C 293.530315 115.723082 293.058371 114.583709 292.218424 113.743762 
C 291.378477 112.903815 290.239104 112.431871 289.05124 112.431871 
C 287.863375 112.431871 286.724002 112.903815 285.884055 113.743762 
C 285.044108 114.583709 284.572165 115.723082 284.572165 116.910946 
C 284.572165 118.098811 285.044108 119.238184 285.884055 120.078131 
C 286.724002 120.918078 287.863375 121.390021 289.05124 121.390021 
z
" clip-path="url(#pcccdab0b36)" style="fill: #3d4d8a; fill-opacity: 0.5; stroke: #3d4d8a; stroke-opacity: 0.5"/>
    <path d="M 293.150413 119.827504 
C 293.822707 119.827504 294.467556 119.560399 294.942939 119.085016 
C 295.418322 118.609632 295.685427 117.964784 295.685427 117.29249 
C 295.685427 116.620196 295.418322 115.975348 294.942939 115.499964 
C 294.467556 115.024581 293.822707 114.757476 293.150413 114.757476 
C 292.47812 114.757476 291.833271 115.024581 291.357888 115.499964 
C 290.882504 115.975348 290.615399 116.620196 290.615399 117.29249 
C 290.615399 117.964784 290.882504 118.609632 291.357888 119.085016 
C 291.833271 119.560399 292.47812 119.827504 293.150413 119.827504 
z
" clip-path="url(#pcccdab0b36)" style="fill: #60ca60; fill-opacity: 0.5; stroke: #60ca60; stroke-opacity: 0.5"/>
    <path d="M 297.249587 164.846581 
C 298.671665 164.846581 300.035691 164.281583 301.041252 163.276021 
C 302.046814 162.27046 302.611812 160.906434 302.611812 159.484356 
C 302.611812 158.062277 302.046814 156.698252 301.041252 155.69269 
C 300.035691 154.687129 298.671665 154.122131 297.249587 154.122131 
C 295.827508 154.122131 294.463483 154.687129 293.457921 155.69269 
C 292.45236 156.698252 291.887362 158.062277 291.887362 159.484356 
C 291.887362 160.906434 292.45236 162.27046 293.457921 163.276021 
C 294.463483 164.281583 295.827508 164.846581 297.249587 164.846581 
z
" clip-path="url(#pcccdab0b36)" style="fill: #6ccd5a; fill-opacity: 0.5; stroke: #6ccd5a; stroke-opacity: 0.5"/>
    <path d="M 301.34876 191.137401 
C 302.768551 191.137401 304.130382 190.573312 305.134326 189.569368 
C 306.138269 188.565424 306.702358 187.203593 306.702358 185.783803 
C 306.702358 184.364012 306.138269 183.002181 305.134326 181.998237 
C 304.130382 180.994294 302.768551 180.430205 301.34876 180.430205 
C 299.92897 180.430205 298.567139 180.994294 297.563195 181.998237 
C 296.559251 183.002181 295.995162 184.364012 295.995162 185.783803 
C 295.995162 187.203593 296.559251 188.565424 297.563195 189.569368 
C 298.567139 190.573312 299.92897 191.137401 301.34876 191.137401 
z
" clip-path="url(#pcccdab0b36)" style="fill: #355e8d; fill-opacity: 0.5; stroke: #355e8d; stroke-opacity: 0.5"/>
    <path d="M 305.447934 146.231044 
C 307.27685 146.231044 309.031104 145.504408 310.324343 144.211169 
C 311.617581 142.91793 312.344217 141.163676 312.344217 139.33476 
C 312.344217 137.505844 311.617581 135.75159 310.324343 134.458351 
C 309.031104 133.165113 307.27685 132.438477 305.447934 132.438477 
C 303.619018 132.438477 301.864764 133.165113 300.571525 134.458351 
C 299.278286 135.75159 298.55165 137.505844 298.55165 139.33476 
C 298.55165 141.163676 299.278286 142.91793 300.571525 144.211169 
C 301.864764 145.504408 303.619018 146.231044 305.447934 146.231044 
z
" clip-path="url(#pcccdab0b36)" style="fill: #34608d; fill-opacity: 0.5; stroke: #34608d; stroke-opacity: 0.5"/>
    <path d="M 309.547107 155.611724 
C 310.458744 155.611724 311.333165 155.249527 311.977789 154.604903 
C 312.622414 153.960278 312.984611 153.085857 312.984611 152.174221 
C 312.984611 151.262584 312.622414 150.388163 311.977789 149.743539 
C 311.333165 149.098915 310.458744 148.736718 309.547107 148.736718 
C 308.635471 148.736718 307.76105 149.098915 307.116426 149.743539 
C 306.471801 150.388163 306.109604 151.262584 306.109604 152.174221 
C 306.109604 153.085857 306.471801 153.960278 307.116426 154.604903 
C 307.76105 155.249527 308.635471 155.611724 309.547107 155.611724 
z
" clip-path="url(#pcccdab0b36)" style="fill: #56c667; fill-opacity: 0.5; stroke: #56c667; stroke-opacity: 0.5"/>
    <path d="M 313.646281 148.606996 
C 315.186733 148.606996 316.664299 147.994968 317.753563 146.905705 
C 318.842827 145.816441 319.454855 144.338874 319.454855 142.798423 
C 319.454855 141.257971 318.842827 139.780404 317.753563 138.691141 
C 316.664299 137.601877 315.186733 136.989849 313.646281 136.989849 
C 312.105829 136.989849 310.628263 137.601877 309.538999 138.691141 
C 308.449735 139.780404 307.837707 141.257971 307.837707 142.798423 
C 307.837707 144.338874 308.449735 145.816441 309.538999 146.905705 
C 310.628263 147.994968 312.105829 148.606996 313.646281 148.606996 
z
" clip-path="url(#pcccdab0b36)" style="fill: #2a778e; fill-opacity: 0.5; stroke: #2a778e; stroke-opacity: 0.5"/>
    <path d="M 317.745455 175.22492 
C 319.747972 175.22492 321.668741 174.429311 323.084734 173.013317 
C 324.500728 171.597324 325.296337 169.676555 325.296337 167.674038 
C 325.296337 165.67152 324.500728 163.750751 323.084734 162.334758 
C 321.668741 160.918764 319.747972 160.123155 317.745455 160.123155 
C 315.742937 160.123155 313.822168 160.918764 312.406175 162.334758 
C 310.990181 163.750751 310.194572 165.67152 310.194572 167.674038 
C 310.194572 169.676555 310.990181 171.597324 312.406175 173.013317 
C 313.822168 174.429311 315.742937 175.22492 317.745455 175.22492 
z
" clip-path="url(#pcccdab0b36)" style="fill: #c0df25; fill-opacity: 0.5; stroke: #c0df25; stroke-opacity: 0.5"/>
    <path d="M 321.844628 205.237333 
C 322.872179 205.237333 323.857782 204.829083 324.58437 204.102495 
C 325.310959 203.375907 325.719209 202.390303 325.719209 201.362752 
C 325.719209 200.335202 325.310959 199.349598 324.58437 198.62301 
C 323.857782 197.896422 322.872179 197.488172 321.844628 197.488172 
C 320.817077 197.488172 319.831474 197.896422 319.104886 198.62301 
C 318.378298 199.349598 317.970047 200.335202 317.970047 201.362752 
C 317.970047 202.390303 318.378298 203.375907 319.104886 204.102495 
C 319.831474 204.829083 320.817077 205.237333 321.844628 205.237333 
z
" clip-path="url(#pcccdab0b36)" style="fill: #c2df23; fill-opacity: 0.5; stroke: #c2df23; stroke-opacity: 0.5"/>
    <path d="M 325.943802 166.586477 
C 326.945673 166.586477 327.906645 166.188429 328.615075 165.479999 
C 329.323505 164.771569 329.721553 163.810597 329.721553 162.808726 
C 329.721553 161.806855 329.323505 160.845883 328.615075 160.137453 
C 327.906645 159.429023 326.945673 159.030975 325.943802 159.030975 
C 324.94193 159.030975 323.980958 159.429023 323.272528 160.137453 
C 322.564098 160.845883 322.166051 161.806855 322.166051 162.808726 
C 322.166051 163.810597 322.564098 164.771569 323.272528 165.479999 
C 323.980958 166.188429 324.94193 166.586477 325.943802 166.586477 
z
" clip-path="url(#pcccdab0b36)" style="fill: #5ac864; fill-opacity: 0.5; stroke: #5ac864; stroke-opacity: 0.5"/>
    <path d="M 330.042975 199.032709 
C 331.964703 199.032709 333.807981 198.269198 335.166848 196.910331 
C 336.525714 195.551464 337.289225 193.708187 337.289225 191.786459 
C 337.289225 189.864731 336.525714 188.021453 335.166848 186.662587 
C 333.807981 185.30372 331.964703 184.540209 330.042975 184.540209 
C 328.121247 184.540209 326.27797 185.30372 324.919103 186.662587 
C 323.560236 188.021453 322.796725 189.864731 322.796725 191.786459 
C 322.796725 193.708187 323.560236 195.551464 324.919103 196.910331 
C 326.27797 198.269198 328.121247 199.032709 330.042975 199.032709 
z
" clip-path="url(#pcccdab0b36)" style="fill: #1f978b; fill-opacity: 0.5; stroke: #1f978b; stroke-opacity: 0.5"/>
    <path d="M 334.142149 160.085974 
C 336.376845 160.085974 338.520314 159.19812 340.100483 157.617951 
C 341.680651 156.037783 342.568506 153.894313 342.568506 151.659617 
C 342.568506 149.424921 341.680651 147.281452 340.100483 145.701283 
C 338.520314 144.121115 336.376845 143.23326 334.142149 143.23326 
C 331.907453 143.23326 329.763983 144.121115 328.183815 145.701283 
C 326.603646 147.281452 325.715792 149.424921 325.715792 151.659617 
C 325.715792 153.894313 326.603646 156.037783 328.183815 157.617951 
C 329.763983 159.19812 331.907453 160.085974 334.142149 160.085974 
z
" clip-path="url(#pcccdab0b36)" style="fill: #dde318; fill-opacity: 0.5; stroke: #dde318; stroke-opacity: 0.5"/>
    <path d="M 338.241322 117.778107 
C 339.698188 117.778107 341.095581 117.199288 342.12574 116.169128 
C 343.1559 115.138968 343.734719 113.741576 343.734719 112.28471 
C 343.734719 110.827844 343.1559 109.430452 342.12574 108.400292 
C 341.095581 107.370133 339.698188 106.791314 338.241322 106.791314 
C 336.784457 106.791314 335.387064 107.370133 334.356904 108.400292 
C 333.326745 109.430452 332.747926 110.827844 332.747926 112.28471 
C 332.747926 113.741576 333.326745 115.138968 334.356904 116.169128 
C 335.387064 117.199288 336.784457 117.778107 338.241322 117.778107 
z
" clip-path="url(#pcccdab0b36)" style="fill: #365d8d; fill-opacity: 0.5; stroke: #365d8d; stroke-opacity: 0.5"/>
    <path d="M 342.340496 167.728537 
C 342.876082 167.728537 343.389804 167.515746 343.768521 167.137029 
C 344.147237 166.758313 344.360028 166.244591 344.360028 165.709005 
C 344.360028 165.173419 344.147237 164.659697 343.768521 164.28098 
C 343.389804 163.902264 342.876082 163.689473 342.340496 163.689473 
C 341.80491 163.689473 341.291188 163.902264 340.912471 164.28098 
C 340.533755 164.659697 340.320964 165.173419 340.320964 165.709005 
C 340.320964 166.244591 340.533755 166.758313 340.912471 167.137029 
C 341.291188 167.515746 341.80491 167.728537 342.340496 167.728537 
z
" clip-path="url(#pcccdab0b36)" style="fill: #1f998a; fill-opacity: 0.5; stroke: #1f998a; stroke-opacity: 0.5"/>
    <path d="M 346.439669 93.557 
C 347.261118 93.557 348.049034 93.230635 348.629886 92.649783 
C 349.210738 92.06893 349.537103 91.281015 349.537103 90.459566 
C 349.537103 89.638117 349.210738 88.850202 348.629886 88.26935 
C 348.049034 87.688497 347.261118 87.362132 346.439669 87.362132 
C 345.61822 87.362132 344.830305 87.688497 344.249453 88.26935 
C 343.668601 88.850202 343.342236 89.638117 343.342236 90.459566 
C 343.342236 91.281015 343.668601 92.06893 344.249453 92.649783 
C 344.830305 93.230635 345.61822 93.557 346.439669 93.557 
z
" clip-path="url(#pcccdab0b36)" style="fill: #3e4c8a; fill-opacity: 0.5; stroke: #3e4c8a; stroke-opacity: 0.5"/>
    <path d="M 350.538843 135.736253 
C 352.432382 135.736253 354.248621 134.983942 355.587555 133.645008 
C 356.92649 132.306073 357.678801 130.489834 357.678801 128.596295 
C 357.678801 126.702756 356.92649 124.886517 355.587555 123.547583 
C 354.248621 122.208648 352.432382 121.456338 350.538843 121.456338 
C 348.645304 121.456338 346.829065 122.208648 345.490131 123.547583 
C 344.151196 124.886517 343.398885 126.702756 343.398885 128.596295 
C 343.398885 130.489834 344.151196 132.306073 345.490131 133.645008 
C 346.829065 134.983942 348.645304 135.736253 350.538843 135.736253 
z
" clip-path="url(#pcccdab0b36)" style="fill: #453882; fill-opacity: 0.5; stroke: #453882; stroke-opacity: 0.5"/>
    <path d="M 354.638017 142.688605 
C 355.985247 142.688605 357.27748 142.153345 358.230116 141.200709 
C 359.182752 140.248073 359.718013 138.95584 359.718013 137.608609 
C 359.718013 136.261378 359.182752 134.969145 358.230116 134.016509 
C 357.27748 133.063873 355.985247 132.528613 354.638017 132.528613 
C 353.290786 132.528613 351.998553 133.063873 351.045917 134.016509 
C 350.093281 134.969145 349.55802 136.261378 349.55802 137.608609 
C 349.55802 138.95584 350.093281 140.248073 351.045917 141.200709 
C 351.998553 142.153345 353.290786 142.688605 354.638017 142.688605 
z
" clip-path="url(#pcccdab0b36)" style="fill: #355f8d; fill-opacity: 0.5; stroke: #355f8d; stroke-opacity: 0.5"/>
    <path d="M 358.73719 100.860162 
C 359.646673 100.860162 360.519028 100.498821 361.16213 99.85572 
C 361.805231 99.212618 362.166572 98.340263 362.166572 97.43078 
C 362.166572 96.521297 361.805231 95.648942 361.16213 95.005841 
C 360.519028 94.362739 359.646673 94.001398 358.73719 94.001398 
C 357.827707 94.001398 356.955352 94.362739 356.312251 95.005841 
C 355.669149 95.648942 355.307808 96.521297 355.307808 97.43078 
C 355.307808 98.340263 355.669149 99.212618 356.312251 99.85572 
C 356.955352 100.498821 357.827707 100.860162 358.73719 100.860162 
z
" clip-path="url(#pcccdab0b36)" style="fill: #2fb47c; fill-opacity: 0.5; stroke: #2fb47c; stroke-opacity: 0.5"/>
    <path d="M 362.836364 132.318341 
C 363.434627 132.318341 364.008467 132.080649 364.431503 131.657613 
C 364.854539 131.234577 365.092232 130.660736 365.092232 130.062473 
C 365.092232 129.46421 364.854539 128.890369 364.431503 128.467333 
C 364.008467 128.044297 363.434627 127.806605 362.836364 127.806605 
C 362.2381 127.806605 361.66426 128.044297 361.241224 128.467333 
C 360.818188 128.890369 360.580495 129.46421 360.580495 130.062473 
C 360.580495 130.660736 360.818188 131.234577 361.241224 131.657613 
C 361.66426 132.080649 362.2381 132.318341 362.836364 132.318341 
z
" clip-path="url(#pcccdab0b36)" style="fill: #1fa088; fill-opacity: 0.5; stroke: #1fa088; stroke-opacity: 0.5"/>
    <path d="M 366.935537 162.551085 
C 367.725022 162.551085 368.482279 162.237419 369.040529 161.679169 
C 369.598779 161.120918 369.912445 160.363662 369.912445 159.574177 
C 369.912445 158.784692 369.598779 158.027435 369.040529 157.469185 
C 368.482279 156.910935 367.725022 156.597269 366.935537 156.597269 
C 366.146052 156.597269 365.388796 156.910935 364.830545 157.469185 
C 364.272295 158.027435 363.958629 158.784692 363.958629 159.574177 
C 363.958629 160.363662 364.272295 161.120918 364.830545 161.679169 
C 365.388796 162.237419 366.146052 162.551085 366.935537 162.551085 
z
" clip-path="url(#pcccdab0b36)" style="fill: #42be71; fill-opacity: 0.5; stroke: #42be71; stroke-opacity: 0.5"/>
    <path d="M 371.034711 136.555968 
C 372.760758 136.555968 374.416342 135.870203 375.636842 134.649703 
C 376.857341 133.429204 377.543107 131.773619 377.543107 130.047573 
C 377.543107 128.321526 376.857341 126.665941 375.636842 125.445442 
C 374.416342 124.224942 372.760758 123.539177 371.034711 123.539177 
C 369.308664 123.539177 367.653079 124.224942 366.43258 125.445442 
C 365.21208 126.665941 364.526315 128.321526 364.526315 130.047573 
C 364.526315 131.773619 365.21208 133.429204 366.43258 134.649703 
C 367.653079 135.870203 369.308664 136.555968 371.034711 136.555968 
z
" clip-path="url(#pcccdab0b36)" style="fill: #63cb5f; fill-opacity: 0.5; stroke: #63cb5f; stroke-opacity: 0.5"/>
    <path d="M 375.133884 131.703488 
C 377.153485 131.703488 379.090639 130.901092 380.518712 129.473019 
C 381.946785 128.044946 382.749181 126.107791 382.749181 124.088191 
C 382.749181 122.068591 381.946785 120.131436 380.518712 118.703363 
C 379.090639 117.27529 377.153485 116.472894 375.133884 116.472894 
C 373.114284 116.472894 371.177129 117.27529 369.749056 118.703363 
C 368.320983 120.131436 367.518588 122.068591 367.518588 124.088191 
C 367.518588 126.107791 368.320983 128.044946 369.749056 129.473019 
C 371.177129 130.901092 373.114284 131.703488 375.133884 131.703488 
z
" clip-path="url(#pcccdab0b36)" style="fill: #33628d; fill-opacity: 0.5; stroke: #33628d; stroke-opacity: 0.5"/>
    <path d="M 379.233058 95.605631 
C 380.555567 95.605631 381.824087 95.080192 382.759242 94.145037 
C 383.694397 93.209882 384.219835 91.941362 384.219835 90.618853 
C 384.219835 89.296344 383.694397 88.027824 382.759242 87.092669 
C 381.824087 86.157514 380.555567 85.632076 379.233058 85.632076 
C 377.910549 85.632076 376.642029 86.157514 375.706874 87.092669 
C 374.771719 88.027824 374.246281 89.296344 374.246281 90.618853 
C 374.246281 91.941362 374.771719 93.209882 375.706874 94.145037 
C 376.642029 95.080192 377.910549 95.605631 379.233058 95.605631 
z
" clip-path="url(#pcccdab0b36)" style="fill: #3dbc74; fill-opacity: 0.5; stroke: #3dbc74; stroke-opacity: 0.5"/>
    <path d="M 383.332231 134.620928 
C 384.340932 134.620928 385.308455 134.220167 386.021715 133.506908 
C 386.734974 132.793648 387.135735 131.826125 387.135735 130.817424 
C 387.135735 129.808724 386.734974 128.841201 386.021715 128.127941 
C 385.308455 127.414682 384.340932 127.013921 383.332231 127.013921 
C 382.32353 127.013921 381.356008 127.414682 380.642748 128.127941 
C 379.929489 128.841201 379.528728 129.808724 379.528728 130.817424 
C 379.528728 131.826125 379.929489 132.793648 380.642748 133.506908 
C 381.356008 134.220167 382.32353 134.620928 383.332231 134.620928 
z
" clip-path="url(#pcccdab0b36)" style="fill: #481668; fill-opacity: 0.5; stroke: #481668; stroke-opacity: 0.5"/>
    <path d="M 387.431405 139.751181 
C 389.094642 139.751181 390.68998 139.09037 391.866066 137.914284 
C 393.042152 136.738199 393.702963 135.14286 393.702963 133.479623 
C 393.702963 131.816387 393.042152 130.221048 391.866066 129.044962 
C 390.68998 127.868876 389.094642 127.208066 387.431405 127.208066 
C 385.768168 127.208066 384.17283 127.868876 382.996744 129.044962 
C 381.820658 130.221048 381.159847 131.816387 381.159847 133.479623 
C 381.159847 135.14286 381.820658 136.738199 382.996744 137.914284 
C 384.17283 139.09037 385.768168 139.751181 387.431405 139.751181 
z
" clip-path="url(#pcccdab0b36)" style="fill: #218e8d; fill-opacity: 0.5; stroke: #218e8d; stroke-opacity: 0.5"/>
    <path d="M 391.530579 131.216556 
C 392.359022 131.216556 393.153645 130.887412 393.739443 130.301614 
C 394.325241 129.715816 394.654385 128.921193 394.654385 128.092749 
C 394.654385 127.264306 394.325241 126.469682 393.739443 125.883885 
C 393.153645 125.298087 392.359022 124.968943 391.530579 124.968943 
C 390.702135 124.968943 389.907512 125.298087 389.321714 125.883885 
C 388.735916 126.469682 388.406772 127.264306 388.406772 128.092749 
C 388.406772 128.921193 388.735916 129.715816 389.321714 130.301614 
C 389.907512 130.887412 390.702135 131.216556 391.530579 131.216556 
z
" clip-path="url(#pcccdab0b36)" style="fill: #bade28; fill-opacity: 0.5; stroke: #bade28; stroke-opacity: 0.5"/>
    <path d="M 395.629752 126.633656 
C 396.702664 126.633656 397.731776 126.207384 398.490439 125.448721 
C 399.249102 124.690058 399.675374 123.660946 399.675374 122.588034 
C 399.675374 121.515123 399.249102 120.48601 398.490439 119.727347 
C 397.731776 118.968685 396.702664 118.542412 395.629752 118.542412 
C 394.556841 118.542412 393.527728 118.968685 392.769065 119.727347 
C 392.010402 120.48601 391.58413 121.515123 391.58413 122.588034 
C 391.58413 123.660946 392.010402 124.690058 392.769065 125.448721 
C 393.527728 126.207384 394.556841 126.633656 395.629752 126.633656 
z
" clip-path="url(#pcccdab0b36)" style="fill: #20928c; fill-opacity: 0.5; stroke: #20928c; stroke-opacity: 0.5"/>
    <path d="M 399.728926 121.133107 
C 401.21161 121.133107 402.633767 120.54403 403.682183 119.495614 
C 404.7306 118.447198 405.319677 117.02504 405.319677 115.542356 
C 405.319677 114.059671 404.7306 112.637514 403.682183 111.589098 
C 402.633767 110.540682 401.21161 109.951605 399.728926 109.951605 
C 398.246241 109.951605 396.824084 110.540682 395.775668 111.589098 
C 394.727251 112.637514 394.138175 114.059671 394.138175 115.542356 
C 394.138175 117.02504 394.727251 118.447198 395.775668 119.495614 
C 396.824084 120.54403 398.246241 121.133107 399.728926 121.133107 
z
" clip-path="url(#pcccdab0b36)" style="fill: #bddf26; fill-opacity: 0.5; stroke: #bddf26; stroke-opacity: 0.5"/>
    <path d="M 403.828099 127.871528 
C 405.218118 127.871528 406.551393 127.319267 407.534284 126.336375 
C 408.517176 125.353484 409.069437 124.020209 409.069437 122.63019 
C 409.069437 121.240171 408.517176 119.906897 407.534284 118.924005 
C 406.551393 117.941113 405.218118 117.388853 403.828099 117.388853 
C 402.43808 117.388853 401.104806 117.941113 400.121914 118.924005 
C 399.139022 119.906897 398.586762 121.240171 398.586762 122.63019 
C 398.586762 124.020209 399.139022 125.353484 400.121914 126.336375 
C 401.104806 127.319267 402.43808 127.871528 403.828099 127.871528 
z
" clip-path="url(#pcccdab0b36)" style="fill: #6ccd5a; fill-opacity: 0.5; stroke: #6ccd5a; stroke-opacity: 0.5"/>
    <path d="M 407.927273 144.18459 
C 409.542233 144.18459 411.091266 143.54296 412.233215 142.40101 
C 413.375164 141.259061 414.016795 139.710028 414.016795 138.095068 
C 414.016795 136.480108 413.375164 134.931075 412.233215 133.789125 
C 411.091266 132.647176 409.542233 132.005546 407.927273 132.005546 
C 406.312313 132.005546 404.76328 132.647176 403.62133 133.789125 
C 402.479381 134.931075 401.837751 136.480108 401.837751 138.095068 
C 401.837751 139.710028 402.479381 141.259061 403.62133 142.40101 
C 404.76328 143.54296 406.312313 144.18459 407.927273 144.18459 
z
" clip-path="url(#pcccdab0b36)" style="fill: #58c765; fill-opacity: 0.5; stroke: #58c765; stroke-opacity: 0.5"/>
    <path d="M 412.026446 136.222703 
C 414.0407 136.222703 415.972726 135.422431 417.397018 133.998139 
C 418.821311 132.573847 419.621582 130.641821 419.621582 128.627567 
C 419.621582 126.613314 418.821311 124.681288 417.397018 123.256995 
C 415.972726 121.832703 414.0407 121.032432 412.026446 121.032432 
C 410.012193 121.032432 408.080167 121.832703 406.655874 123.256995 
C 405.231582 124.681288 404.431311 126.613314 404.431311 128.627567 
C 404.431311 130.641821 405.231582 132.573847 406.655874 133.998139 
C 408.080167 135.422431 410.012193 136.222703 412.026446 136.222703 
z
" clip-path="url(#pcccdab0b36)" style="fill: #39568c; fill-opacity: 0.5; stroke: #39568c; stroke-opacity: 0.5"/>
    <path d="M 416.12562 135.493879 
C 417.552008 135.493879 418.920167 134.927169 419.928775 133.918561 
C 420.937384 132.909952 421.504094 131.541793 421.504094 130.115405 
C 421.504094 128.689017 420.937384 127.320858 419.928775 126.31225 
C 418.920167 125.303641 417.552008 124.736931 416.12562 124.736931 
C 414.699232 124.736931 413.331073 125.303641 412.322464 126.31225 
C 411.313856 127.320858 410.747146 128.689017 410.747146 130.115405 
C 410.747146 131.541793 411.313856 132.909952 412.322464 133.918561 
C 413.331073 134.927169 414.699232 135.493879 416.12562 135.493879 
z
" clip-path="url(#pcccdab0b36)" style="fill: #2c718e; fill-opacity: 0.5; stroke: #2c718e; stroke-opacity: 0.5"/>
    <path d="M 420.224793 106.065262 
C 421.879734 106.065262 423.467116 105.407747 424.637336 104.237527 
C 425.807556 103.067307 426.465071 101.479926 426.465071 99.824985 
C 426.465071 98.170044 425.807556 96.582662 424.637336 95.412442 
C 423.467116 94.242222 421.879734 93.584707 420.224793 93.584707 
C 418.569852 93.584707 416.982471 94.242222 415.812251 95.412442 
C 414.642031 96.582662 413.984516 98.170044 413.984516 99.824985 
C 413.984516 101.479926 414.642031 103.067307 415.812251 104.237527 
C 416.982471 105.407747 418.569852 106.065262 420.224793 106.065262 
z
" clip-path="url(#pcccdab0b36)" style="fill: #70cf57; fill-opacity: 0.5; stroke: #70cf57; stroke-opacity: 0.5"/>
    <path d="M 424.323967 147.582872 
C 426.557877 147.582872 428.700594 146.69533 430.280207 145.115717 
C 431.85982 143.536103 432.747362 141.393387 432.747362 139.159477 
C 432.747362 136.925566 431.85982 134.78285 430.280207 133.203237 
C 428.700594 131.623623 426.557877 130.736081 424.323967 130.736081 
C 422.090056 130.736081 419.94734 131.623623 418.367727 133.203237 
C 416.788114 134.78285 415.900572 136.925566 415.900572 139.159477 
C 415.900572 141.393387 416.788114 143.536103 418.367727 145.115717 
C 419.94734 146.69533 422.090056 147.582872 424.323967 147.582872 
z
" clip-path="url(#pcccdab0b36)" style="fill: #f1e51d; fill-opacity: 0.5; stroke: #f1e51d; stroke-opacity: 0.5"/>
    <path d="M 428.42314 107.636639 
C 430.50694 107.636639 432.505672 106.808737 433.979141 105.335269 
C 435.452609 103.8618 436.280512 101.863067 436.280512 99.779268 
C 436.280512 97.695469 435.452609 95.696736 433.979141 94.223268 
C 432.505672 92.749799 430.50694 91.921897 428.42314 91.921897 
C 426.339341 91.921897 424.340609 92.749799 422.86714 94.223268 
C 421.393672 95.696736 420.565769 97.695469 420.565769 99.779268 
C 420.565769 101.863067 421.393672 103.8618 422.86714 105.335269 
C 424.340609 106.808737 426.339341 107.636639 428.42314 107.636639 
z
" clip-path="url(#pcccdab0b36)" style="fill: #423f85; fill-opacity: 0.5; stroke: #423f85; stroke-opacity: 0.5"/>
    <path d="M 432.522314 97.276152 
C 433.721874 97.276152 434.872466 96.799561 435.720683 95.951344 
C 436.5689 95.103127 437.045491 93.952536 437.045491 92.752975 
C 437.045491 91.553415 436.5689 90.402824 435.720683 89.554606 
C 434.872466 88.706389 433.721874 88.229799 432.522314 88.229799 
C 431.322754 88.229799 430.172163 88.706389 429.323945 89.554606 
C 428.475728 90.402824 427.999137 91.553415 427.999137 92.752975 
C 427.999137 93.952536 428.475728 95.103127 429.323945 95.951344 
C 430.172163 96.799561 431.322754 97.276152 432.522314 97.276152 
z
" clip-path="url(#pcccdab0b36)" style="fill: #77d153; fill-opacity: 0.5; stroke: #77d153; stroke-opacity: 0.5"/>
    <path d="M 436.621488 63.497178 
C 437.509185 63.497178 438.360643 63.144492 438.98834 62.516796 
C 439.616036 61.889099 439.968722 61.037641 439.968722 60.149944 
C 439.968722 59.262247 439.616036 58.410788 438.98834 57.783092 
C 438.360643 57.155395 437.509185 56.802709 436.621488 56.802709 
C 435.733791 56.802709 434.882332 57.155395 434.254635 57.783092 
C 433.626939 58.410788 433.274253 59.262247 433.274253 60.149944 
C 433.274253 61.037641 433.626939 61.889099 434.254635 62.516796 
C 434.882332 63.144492 435.733791 63.497178 436.621488 63.497178 
z
" clip-path="url(#pcccdab0b36)" style="fill: #63cb5f; fill-opacity: 0.5; stroke: #63cb5f; stroke-opacity: 0.5"/>
    <path d="M 440.720661 88.153858 
C 441.942937 88.153858 443.115315 87.668242 443.979595 86.803963 
C 444.843874 85.939684 445.329489 84.767305 445.329489 83.545029 
C 445.329489 82.322754 444.843874 81.150375 443.979595 80.286096 
C 443.115315 79.421817 441.942937 78.936201 440.720661 78.936201 
C 439.498386 78.936201 438.326007 79.421817 437.461728 80.286096 
C 436.597448 81.150375 436.111833 82.322754 436.111833 83.545029 
C 436.111833 84.767305 436.597448 85.939684 437.461728 86.803963 
C 438.326007 87.668242 439.498386 88.153858 440.720661 88.153858 
z
" clip-path="url(#pcccdab0b36)" style="fill: #46307e; fill-opacity: 0.5; stroke: #46307e; stroke-opacity: 0.5"/>
    <path d="M 444.819835 93.228087 
C 446.202183 93.228087 447.5281 92.678875 448.505568 91.701407 
C 449.483035 90.723939 450.032248 89.398022 450.032248 88.015674 
C 450.032248 86.633326 449.483035 85.307409 448.505568 84.329941 
C 447.5281 83.352473 446.202183 82.803261 444.819835 82.803261 
C 443.437487 82.803261 442.11157 83.352473 441.134102 84.329941 
C 440.156634 85.307409 439.607421 86.633326 439.607421 88.015674 
C 439.607421 89.398022 440.156634 90.723939 441.134102 91.701407 
C 442.11157 92.678875 443.437487 93.228087 444.819835 93.228087 
z
" clip-path="url(#pcccdab0b36)" style="fill: #21a685; fill-opacity: 0.5; stroke: #21a685; stroke-opacity: 0.5"/>
    <path d="M 448.919008 104.922333 
C 450.722669 104.922333 452.452699 104.205731 453.72808 102.93035 
C 455.003461 101.65497 455.720063 99.924939 455.720063 98.121278 
C 455.720063 96.317618 455.003461 94.587587 453.72808 93.312206 
C 452.452699 92.036826 450.722669 91.320224 448.919008 91.320224 
C 447.115347 91.320224 445.385317 92.036826 444.109936 93.312206 
C 442.834556 94.587587 442.117953 96.317618 442.117953 98.121278 
C 442.117953 99.924939 442.834556 101.65497 444.109936 102.93035 
C 445.385317 104.205731 447.115347 104.922333 448.919008 104.922333 
z
" clip-path="url(#pcccdab0b36)" style="fill: #481b6d; fill-opacity: 0.5; stroke: #481b6d; stroke-opacity: 0.5"/>
    <path d="M 453.018182 113.993988 
C 454.45549 113.993988 455.834124 113.42294 456.850454 112.406609 
C 457.866785 111.390279 458.437833 110.011645 458.437833 108.574337 
C 458.437833 107.137029 457.866785 105.758395 456.850454 104.742065 
C 455.834124 103.725734 454.45549 103.154686 453.018182 103.154686 
C 451.580873 103.154686 450.20224 103.725734 449.18591 104.742065 
C 448.169579 105.758395 447.59853 107.137029 447.59853 108.574337 
C 447.59853 110.011645 448.169579 111.390279 449.18591 112.406609 
C 450.20224 113.42294 451.580873 113.993988 453.018182 113.993988 
z
" clip-path="url(#pcccdab0b36)" style="fill: #1fa187; fill-opacity: 0.5; stroke: #1fa187; stroke-opacity: 0.5"/>
    <path d="M 457.117355 81.251539 
C 458.744195 81.251539 460.304623 80.605189 461.454972 79.454839 
C 462.605322 78.30449 463.251672 76.744062 463.251672 75.117222 
C 463.251672 73.490382 462.605322 71.929954 461.454972 70.779605 
C 460.304623 69.629255 458.744195 68.982905 457.117355 68.982905 
C 455.490515 68.982905 453.930088 69.629255 452.779738 70.779605 
C 451.629389 71.929954 450.983038 73.490382 450.983038 75.117222 
C 450.983038 76.744062 451.629389 78.30449 452.779738 79.454839 
C 453.930088 80.605189 455.490515 81.251539 457.117355 81.251539 
z
" clip-path="url(#pcccdab0b36)" style="fill: #b5de2b; fill-opacity: 0.5; stroke: #b5de2b; stroke-opacity: 0.5"/>
    <path d="M 461.216529 116.343384 
C 462.15327 116.343384 463.05177 115.971213 463.714146 115.308837 
C 464.376522 114.646462 464.748693 113.747961 464.748693 112.811221 
C 464.748693 111.87448 464.376522 110.975979 463.714146 110.313604 
C 463.05177 109.651228 462.15327 109.279057 461.216529 109.279057 
C 460.279788 109.279057 459.381288 109.651228 458.718912 110.313604 
C 458.056536 110.975979 457.684365 111.87448 457.684365 112.811221 
C 457.684365 113.747961 458.056536 114.646462 458.718912 115.308837 
C 459.381288 115.971213 460.279788 116.343384 461.216529 116.343384 
z
" clip-path="url(#pcccdab0b36)" style="fill: #fde725; fill-opacity: 0.5; stroke: #fde725; stroke-opacity: 0.5"/>
    <path d="M 465.315702 138.99344 
C 467.534038 138.99344 469.661816 138.112086 471.230416 136.543485 
C 472.799016 134.974885 473.680371 132.847108 473.680371 130.628772 
C 473.680371 128.410436 472.799016 126.282659 471.230416 124.714058 
C 469.661816 123.145458 467.534038 122.264104 465.315702 122.264104 
C 463.097367 122.264104 460.969589 123.145458 459.400989 124.714058 
C 457.832389 126.282659 456.951034 128.410436 456.951034 130.628772 
C 456.951034 132.847108 457.832389 134.974885 459.400989 136.543485 
C 460.969589 138.112086 463.097367 138.99344 465.315702 138.99344 
z
" clip-path="url(#pcccdab0b36)" style="fill: #63cb5f; fill-opacity: 0.5; stroke: #63cb5f; stroke-opacity: 0.5"/>
    <path d="M 469.414876 77.291557 
C 471.595281 77.291557 473.686675 76.425273 475.228454 74.883494 
C 476.770233 73.341716 477.636517 71.250321 477.636517 69.069917 
C 477.636517 66.889512 476.770233 64.798118 475.228454 63.256339 
C 473.686675 61.71456 471.595281 60.848276 469.414876 60.848276 
C 467.234471 60.848276 465.143077 61.71456 463.601298 63.256339 
C 462.059519 64.798118 461.193235 66.889512 461.193235 69.069917 
C 461.193235 71.250321 462.059519 73.341716 463.601298 74.883494 
C 465.143077 76.425273 467.234471 77.291557 469.414876 77.291557 
z
" clip-path="url(#pcccdab0b36)" style="fill: #482173; fill-opacity: 0.5; stroke: #482173; stroke-opacity: 0.5"/>
    <path d="M 473.51405 83.534563 
C 475.588546 83.534563 477.578355 82.710357 479.045246 81.243467 
C 480.512136 79.776576 481.336342 77.786767 481.336342 75.71227 
C 481.336342 73.637774 480.512136 71.647965 479.045246 70.181074 
C 477.578355 68.714184 475.588546 67.889978 473.51405 67.889978 
C 471.439553 67.889978 469.449744 68.714184 467.982853 70.181074 
C 466.515963 71.647965 465.691757 73.637774 465.691757 75.71227 
C 465.691757 77.786767 466.515963 79.776576 467.982853 81.243467 
C 469.449744 82.710357 471.439553 83.534563 473.51405 83.534563 
z
" clip-path="url(#pcccdab0b36)" style="fill: #365c8d; fill-opacity: 0.5; stroke: #365c8d; stroke-opacity: 0.5"/>
    <path d="M 477.613223 115.341754 
C 478.555373 115.341754 479.459061 114.967434 480.125262 114.301233 
C 480.791462 113.635033 481.165782 112.731344 481.165782 111.789195 
C 481.165782 110.847045 480.791462 109.943356 480.125262 109.277156 
C 479.459061 108.610956 478.555373 108.236636 477.613223 108.236636 
C 476.671073 108.236636 475.767385 108.610956 475.101185 109.277156 
C 474.434984 109.943356 474.060664 110.847045 474.060664 111.789195 
C 474.060664 112.731344 474.434984 113.635033 475.101185 114.301233 
C 475.767385 114.967434 476.671073 115.341754 477.613223 115.341754 
z
" clip-path="url(#pcccdab0b36)" style="fill: #20a486; fill-opacity: 0.5; stroke: #20a486; stroke-opacity: 0.5"/>
    <path d="M 481.712397 49.580052 
C 483.022514 49.580052 484.279148 49.059537 485.205541 48.133144 
C 486.131934 47.206752 486.652449 45.950117 486.652449 44.64 
C 486.652449 43.329883 486.131934 42.073248 485.205541 41.146856 
C 484.279148 40.220463 483.022514 39.699948 481.712397 39.699948 
C 480.40228 39.699948 479.145645 40.220463 478.219252 41.146856 
C 477.292859 42.073248 476.772344 43.329883 476.772344 44.64 
C 476.772344 45.950117 477.292859 47.206752 478.219252 48.133144 
C 479.145645 49.059537 480.40228 49.580052 481.712397 49.580052 
z
" clip-path="url(#pcccdab0b36)" style="fill: #a0da39; fill-opacity: 0.5; stroke: #a0da39; stroke-opacity: 0.5"/>
    <path d="M 485.81157 84.621586 
C 487.378859 84.621586 488.882167 83.998895 489.990408 82.890655 
C 491.098648 81.782414 491.721339 80.279106 491.721339 78.711817 
C 491.721339 77.144528 491.098648 75.641221 489.990408 74.53298 
C 488.882167 73.424739 487.378859 72.802049 485.81157 72.802049 
C 484.244281 72.802049 482.740974 73.424739 481.632733 74.53298 
C 480.524492 75.641221 479.901802 77.144528 479.901802 78.711817 
C 479.901802 80.279106 480.524492 81.782414 481.632733 82.890655 
C 482.740974 83.998895 484.244281 84.621586 485.81157 84.621586 
z
" clip-path="url(#pcccdab0b36)" style="fill: #450559; fill-opacity: 0.5; stroke: #450559; stroke-opacity: 0.5"/>
    <path d="M 489.910744 89.665673 
C 490.710036 89.665673 491.476699 89.348111 492.041884 88.782926 
C 492.60707 88.217741 492.924632 87.451078 492.924632 86.651785 
C 492.924632 85.852493 492.60707 85.08583 492.041884 84.520645 
C 491.476699 83.95546 490.710036 83.637897 489.910744 83.637897 
C 489.111451 83.637897 488.344788 83.95546 487.779603 84.520645 
C 487.214418 85.08583 486.896856 85.852493 486.896856 86.651785 
C 486.896856 87.451078 487.214418 88.217741 487.779603 88.782926 
C 488.344788 89.348111 489.111451 89.665673 489.910744 89.665673 
z
" clip-path="url(#pcccdab0b36)" style="fill: #1e9d89; fill-opacity: 0.5; stroke: #1e9d89; stroke-opacity: 0.5"/>
    <path d="M 494.009917 103.3457 
C 495.225755 103.3457 496.391959 102.862642 497.251686 102.002915 
C 498.111414 101.143188 498.594471 99.976984 498.594471 98.761146 
C 498.594471 97.545308 498.111414 96.379104 497.251686 95.519377 
C 496.391959 94.65965 495.225755 94.176592 494.009917 94.176592 
C 492.794079 94.176592 491.627875 94.65965 490.768148 95.519377 
C 489.908421 96.379104 489.425364 97.545308 489.425364 98.761146 
C 489.425364 99.976984 489.908421 101.143188 490.768148 102.002915 
C 491.627875 102.862642 492.794079 103.3457 494.009917 103.3457 
z
" clip-path="url(#pcccdab0b36)" style="fill: #31678e; fill-opacity: 0.5; stroke: #31678e; stroke-opacity: 0.5"/>
    <path d="M 498.109091 114.956709 
C 499.24039 114.956709 500.325506 114.507239 501.125455 113.707289 
C 501.925405 112.90734 502.374875 111.822224 502.374875 110.690925 
C 502.374875 109.559626 501.925405 108.47451 501.125455 107.67456 
C 500.325506 106.874611 499.24039 106.425141 498.109091 106.425141 
C 496.977792 106.425141 495.892676 106.874611 495.092726 107.67456 
C 494.292777 108.47451 493.843307 109.559626 493.843307 110.690925 
C 493.843307 111.822224 494.292777 112.90734 495.092726 113.707289 
C 495.892676 114.507239 496.977792 114.956709 498.109091 114.956709 
z
" clip-path="url(#pcccdab0b36)" style="fill: #b5de2b; fill-opacity: 0.5; stroke: #b5de2b; stroke-opacity: 0.5"/>
   </g>
   <g id="matplotlib.axis_1">
    <g id="xtick_1">
     <g id="line2d_1">
      <defs>
       <path id="mf2bedc3c96" d="M 0 0 
L 0 3.5 
" style="stroke: #000000; stroke-width: 0.8"/>
      </defs>
      <g>
       <use xlink:href="#mf2bedc3c96" x="92.290909" y="256.32" style="stroke: #000000; stroke-width: 0.8"/>
      </g>
     </g>
     <g id="text_1">
      <!-- 0 -->
      <g transform="translate(89.109659 270.918437) scale(0.1 -0.1)">
       <defs>
        <path id="DejaVuSans-30" d="M 2034 4250 
Q 1547 4250 1301 3770 
Q 1056 3291 1056 2328 
Q 1056 1369 1301 889 
Q 1547 409 2034 409 
Q 2525 409 2770 889 
Q 3016 1369 3016 2328 
Q 3016 3291 2770 3770 
Q 2525 4250 2034 4250 
z
M 2034 4750 
Q 2819 4750 3233 4129 
Q 3647 3509 3647 2328 
Q 3647 1150 3233 529 
Q 2819 -91 2034 -91 
Q 1250 -91 836 529 
Q 422 1150 422 2328 
Q 422 3509 836 4129 
Q 1250 4750 2034 4750 
z
" transform="scale(0.015625)"/>
       </defs>
       <use xlink:href="#DejaVuSans-30"/>
      </g>
     </g>
    </g>
    <g id="xtick_2">
     <g id="line2d_2">
      <g>
       <use xlink:href="#mf2bedc3c96" x="174.27438" y="256.32" style="stroke: #000000; stroke-width: 0.8"/>
      </g>
     </g>
     <g id="text_2">
      <!-- 20 -->
      <g transform="translate(167.91188 270.918437) scale(0.1 -0.1)">
       <defs>
        <path id="DejaVuSans-32" d="M 1228 531 
L 3431 531 
L 3431 0 
L 469 0 
L 469 531 
Q 828 903 1448 1529 
Q 2069 2156 2228 2338 
Q 2531 2678 2651 2914 
Q 2772 3150 2772 3378 
Q 2772 3750 2511 3984 
Q 2250 4219 1831 4219 
Q 1534 4219 1204 4116 
Q 875 4013 500 3803 
L 500 4441 
Q 881 4594 1212 4672 
Q 1544 4750 1819 4750 
Q 2544 4750 2975 4387 
Q 3406 4025 3406 3419 
Q 3406 3131 3298 2873 
Q 3191 2616 2906 2266 
Q 2828 2175 2409 1742 
Q 1991 1309 1228 531 
z
" transform="scale(0.015625)"/>
       </defs>
       <use xlink:href="#DejaVuSans-32"/>
       <use xlink:href="#DejaVuSans-30" x="63.623047"/>
      </g>
     </g>
    </g>
    <g id="xtick_3">
     <g id="line2d_3">
      <g>
       <use xlink:href="#mf2bedc3c96" x="256.257851" y="256.32" style="stroke: #000000; stroke-width: 0.8"/>
      </g>
     </g>
     <g id="text_3">
      <!-- 40 -->
      <g transform="translate(249.895351 270.918437) scale(0.1 -0.1)">
       <defs>
        <path id="DejaVuSans-34" d="M 2419 4116 
L 825 1625 
L 2419 1625 
L 2419 4116 
z
M 2253 4666 
L 3047 4666 
L 3047 1625 
L 3713 1625 
L 3713 1100 
L 3047 1100 
L 3047 0 
L 2419 0 
L 2419 1100 
L 313 1100 
L 313 1709 
L 2253 4666 
z
" transform="scale(0.015625)"/>
       </defs>
       <use xlink:href="#DejaVuSans-34"/>
       <use xlink:href="#DejaVuSans-30" x="63.623047"/>
      </g>
     </g>
    </g>
    <g id="xtick_4">
     <g id="line2d_4">
      <g>
       <use xlink:href="#mf2bedc3c96" x="338.241322" y="256.32" style="stroke: #000000; stroke-width: 0.8"/>
      </g>
     </g>
     <g id="text_4">
      <!-- 60 -->
      <g transform="translate(331.878822 270.918437) scale(0.1 -0.1)">
       <defs>
        <path id="DejaVuSans-36" d="M 2113 2584 
Q 1688 2584 1439 2293 
Q 1191 2003 1191 1497 
Q 1191 994 1439 701 
Q 1688 409 2113 409 
Q 2538 409 2786 701 
Q 3034 994 3034 1497 
Q 3034 2003 2786 2293 
Q 2538 2584 2113 2584 
z
M 3366 4563 
L 3366 3988 
Q 3128 4100 2886 4159 
Q 2644 4219 2406 4219 
Q 1781 4219 1451 3797 
Q 1122 3375 1075 2522 
Q 1259 2794 1537 2939 
Q 1816 3084 2150 3084 
Q 2853 3084 3261 2657 
Q 3669 2231 3669 1497 
Q 3669 778 3244 343 
Q 2819 -91 2113 -91 
Q 1303 -91 875 529 
Q 447 1150 447 2328 
Q 447 3434 972 4092 
Q 1497 4750 2381 4750 
Q 2619 4750 2861 4703 
Q 3103 4656 3366 4563 
z
" transform="scale(0.015625)"/>
       </defs>
       <use xlink:href="#DejaVuSans-36"/>
       <use xlink:href="#DejaVuSans-30" x="63.623047"/>
      </g>
     </g>
    </g>
    <g id="xtick_5">
     <g id="line2d_5">
      <g>
       <use xlink:href="#mf2bedc3c96" x="420.224793" y="256.32" style="stroke: #000000; stroke-width: 0.8"/>
      </g>
     </g>
     <g id="text_5">
      <!-- 80 -->
      <g transform="translate(413.862293 270.918437) scale(0.1 -0.1)">
       <defs>
        <path id="DejaVuSans-38" d="M 2034 2216 
Q 1584 2216 1326 1975 
Q 1069 1734 1069 1313 
Q 1069 891 1326 650 
Q 1584 409 2034 409 
Q 2484 409 2743 651 
Q 3003 894 3003 1313 
Q 3003 1734 2745 1975 
Q 2488 2216 2034 2216 
z
M 1403 2484 
Q 997 2584 770 2862 
Q 544 3141 544 3541 
Q 544 4100 942 4425 
Q 1341 4750 2034 4750 
Q 2731 4750 3128 4425 
Q 3525 4100 3525 3541 
Q 3525 3141 3298 2862 
Q 3072 2584 2669 2484 
Q 3125 2378 3379 2068 
Q 3634 1759 3634 1313 
Q 3634 634 3220 271 
Q 2806 -91 2034 -91 
Q 1263 -91 848 271 
Q 434 634 434 1313 
Q 434 1759 690 2068 
Q 947 2378 1403 2484 
z
M 1172 3481 
Q 1172 3119 1398 2916 
Q 1625 2713 2034 2713 
Q 2441 2713 2670 2916 
Q 2900 3119 2900 3481 
Q 2900 3844 2670 4047 
Q 2441 4250 2034 4250 
Q 1625 4250 1398 4047 
Q 1172 3844 1172 3481 
z
" transform="scale(0.015625)"/>
       </defs>
       <use xlink:href="#DejaVuSans-38"/>
       <use xlink:href="#DejaVuSans-30" x="63.623047"/>
      </g>
     </g>
    </g>
    <g id="xtick_6">
     <g id="line2d_6">
      <g>
       <use xlink:href="#mf2bedc3c96" x="502.208264" y="256.32" style="stroke: #000000; stroke-width: 0.8"/>
      </g>
     </g>
     <g id="text_6">
      <!-- 100 -->
      <g transform="translate(492.664514 270.918437) scale(0.1 -0.1)">
       <defs>
        <path id="DejaVuSans-31" d="M 794 531 
L 1825 531 
L 1825 4091 
L 703 3866 
L 703 4441 
L 1819 4666 
L 2450 4666 
L 2450 531 
L 3481 531 
L 3481 0 
L 794 0 
L 794 531 
z
" transform="scale(0.015625)"/>
       </defs>
       <use xlink:href="#DejaVuSans-31"/>
       <use xlink:href="#DejaVuSans-30" x="63.623047"/>
       <use xlink:href="#DejaVuSans-30" x="127.246094"/>
      </g>
     </g>
    </g>
   </g>
   <g id="matplotlib.axis_2">
    <g id="ytick_1">
     <g id="line2d_7">
      <defs>
       <path id="m84e8fd0a6c" d="M 0 0 
L -3.5 0 
" style="stroke: #000000; stroke-width: 0.8"/>
      </defs>
      <g>
       <use xlink:href="#m84e8fd0a6c" x="72" y="252.002745" style="stroke: #000000; stroke-width: 0.8"/>
      </g>
     </g>
     <g id="text_7">
      <!-- 20 -->
      <g transform="translate(43.895313 255.801964) scale(0.1 -0.1)">
       <defs>
        <path id="DejaVuSans-2212" d="M 678 2272 
L 4684 2272 
L 4684 1741 
L 678 1741 
L 678 2272 
z
" transform="scale(0.015625)"/>
       </defs>
       <use xlink:href="#DejaVuSans-2212"/>
       <use xlink:href="#DejaVuSans-32" x="83.789062"/>
       <use xlink:href="#DejaVuSans-30" x="147.412109"/>
      </g>
     </g>
    </g>
    <g id="ytick_2">
     <g id="line2d_8">
      <g>
       <use xlink:href="#m84e8fd0a6c" x="72" y="205.493894" style="stroke: #000000; stroke-width: 0.8"/>
      </g>
     </g>
     <g id="text_8">
      <!-- 0 -->
      <g transform="translate(58.6375 209.293112) scale(0.1 -0.1)">
       <use xlink:href="#DejaVuSans-30"/>
      </g>
     </g>
    </g>
    <g id="ytick_3">
     <g id="line2d_9">
      <g>
       <use xlink:href="#m84e8fd0a6c" x="72" y="158.985042" style="stroke: #000000; stroke-width: 0.8"/>
      </g>
     </g>
     <g id="text_9">
      <!-- 20 -->
      <g transform="translate(52.275 162.784261) scale(0.1 -0.1)">
       <use xlink:href="#DejaVuSans-32"/>
       <use xlink:href="#DejaVuSans-30" x="63.623047"/>
      </g>
     </g>
    </g>
    <g id="ytick_4">
     <g id="line2d_10">
      <g>
       <use xlink:href="#m84e8fd0a6c" x="72" y="112.476191" style="stroke: #000000; stroke-width: 0.8"/>
      </g>
     </g>
     <g id="text_10">
      <!-- 40 -->
      <g transform="translate(52.275 116.27541) scale(0.1 -0.1)">
       <use xlink:href="#DejaVuSans-34"/>
       <use xlink:href="#DejaVuSans-30" x="63.623047"/>
      </g>
     </g>
    </g>
    <g id="ytick_5">
     <g id="line2d_11">
      <g>
       <use xlink:href="#m84e8fd0a6c" x="72" y="65.967339" style="stroke: #000000; stroke-width: 0.8"/>
      </g>
     </g>
     <g id="text_11">
      <!-- 60 -->
      <g transform="translate(52.275 69.766558) scale(0.1 -0.1)">
       <use xlink:href="#DejaVuSans-36"/>
       <use xlink:href="#DejaVuSans-30" x="63.623047"/>
      </g>
     </g>
    </g>
   </g>
   <g id="patch_3">
    <path d="M 72 256.32 
L 72 34.56 
" style="fill: none; stroke: #000000; stroke-width: 0.8; stroke-linejoin: miter; stroke-linecap: square"/>
   </g>
   <g id="patch_4">
    <path d="M 518.4 256.32 
L 518.4 34.56 
" style="fill: none; stroke: #000000; stroke-width: 0.8; stroke-linejoin: miter; stroke-linecap: square"/>
   </g>
   <g id="patch_5">
    <path d="M 72 256.32 
L 518.4 256.32 
" style="fill: none; stroke: #000000; stroke-width: 0.8; stroke-linejoin: miter; stroke-linecap: square"/>
   </g>
   <g id="patch_6">
    <path d="M 72 34.56 
L 518.4 34.56 
" style="fill: none; stroke: #000000; stroke-width: 0.8; stroke-linejoin: miter; stroke-linecap: square"/>
   </g>
  </g>
  <g id="text_12">
   <!-- Scatterplot with Color and Size Specified -->
   <g transform="translate(165.763125 14.878125) scale(0.12 -0.12)">
    <defs>
     <path id="DejaVuSans-53" d="M 3425 4513 
L 3425 3897 
Q 3066 4069 2747 4153 
Q 2428 4238 2131 4238 
Q 1616 4238 1336 4038 
Q 1056 3838 1056 3469 
Q 1056 3159 1242 3001 
Q 1428 2844 1947 2747 
L 2328 2669 
Q 3034 2534 3370 2195 
Q 3706 1856 3706 1288 
Q 3706 609 3251 259 
Q 2797 -91 1919 -91 
Q 1588 -91 1214 -16 
Q 841 59 441 206 
L 441 856 
Q 825 641 1194 531 
Q 1563 422 1919 422 
Q 2459 422 2753 634 
Q 3047 847 3047 1241 
Q 3047 1584 2836 1778 
Q 2625 1972 2144 2069 
L 1759 2144 
Q 1053 2284 737 2584 
Q 422 2884 422 3419 
Q 422 4038 858 4394 
Q 1294 4750 2059 4750 
Q 2388 4750 2728 4690 
Q 3069 4631 3425 4513 
z
" transform="scale(0.015625)"/>
     <path id="DejaVuSans-63" d="M 3122 3366 
L 3122 2828 
Q 2878 2963 2633 3030 
Q 2388 3097 2138 3097 
Q 1578 3097 1268 2742 
Q 959 2388 959 1747 
Q 959 1106 1268 751 
Q 1578 397 2138 397 
Q 2388 397 2633 464 
Q 2878 531 3122 666 
L 3122 134 
Q 2881 22 2623 -34 
Q 2366 -91 2075 -91 
Q 1284 -91 818 406 
Q 353 903 353 1747 
Q 353 2603 823 3093 
Q 1294 3584 2113 3584 
Q 2378 3584 2631 3529 
Q 2884 3475 3122 3366 
z
" transform="scale(0.015625)"/>
     <path id="DejaVuSans-61" d="M 2194 1759 
Q 1497 1759 1228 1600 
Q 959 1441 959 1056 
Q 959 750 1161 570 
Q 1363 391 1709 391 
Q 2188 391 2477 730 
Q 2766 1069 2766 1631 
L 2766 1759 
L 2194 1759 
z
M 3341 1997 
L 3341 0 
L 2766 0 
L 2766 531 
Q 2569 213 2275 61 
Q 1981 -91 1556 -91 
Q 1019 -91 701 211 
Q 384 513 384 1019 
Q 384 1609 779 1909 
Q 1175 2209 1959 2209 
L 2766 2209 
L 2766 2266 
Q 2766 2663 2505 2880 
Q 2244 3097 1772 3097 
Q 1472 3097 1187 3025 
Q 903 2953 641 2809 
L 641 3341 
Q 956 3463 1253 3523 
Q 1550 3584 1831 3584 
Q 2591 3584 2966 3190 
Q 3341 2797 3341 1997 
z
" transform="scale(0.015625)"/>
     <path id="DejaVuSans-74" d="M 1172 4494 
L 1172 3500 
L 2356 3500 
L 2356 3053 
L 1172 3053 
L 1172 1153 
Q 1172 725 1289 603 
Q 1406 481 1766 481 
L 2356 481 
L 2356 0 
L 1766 0 
Q 1100 0 847 248 
Q 594 497 594 1153 
L 594 3053 
L 172 3053 
L 172 3500 
L 594 3500 
L 594 4494 
L 1172 4494 
z
" transform="scale(0.015625)"/>
     <path id="DejaVuSans-65" d="M 3597 1894 
L 3597 1613 
L 953 1613 
Q 991 1019 1311 708 
Q 1631 397 2203 397 
Q 2534 397 2845 478 
Q 3156 559 3463 722 
L 3463 178 
Q 3153 47 2828 -22 
Q 2503 -91 2169 -91 
Q 1331 -91 842 396 
Q 353 884 353 1716 
Q 353 2575 817 3079 
Q 1281 3584 2069 3584 
Q 2775 3584 3186 3129 
Q 3597 2675 3597 1894 
z
M 3022 2063 
Q 3016 2534 2758 2815 
Q 2500 3097 2075 3097 
Q 1594 3097 1305 2825 
Q 1016 2553 972 2059 
L 3022 2063 
z
" transform="scale(0.015625)"/>
     <path id="DejaVuSans-72" d="M 2631 2963 
Q 2534 3019 2420 3045 
Q 2306 3072 2169 3072 
Q 1681 3072 1420 2755 
Q 1159 2438 1159 1844 
L 1159 0 
L 581 0 
L 581 3500 
L 1159 3500 
L 1159 2956 
Q 1341 3275 1631 3429 
Q 1922 3584 2338 3584 
Q 2397 3584 2469 3576 
Q 2541 3569 2628 3553 
L 2631 2963 
z
" transform="scale(0.015625)"/>
     <path id="DejaVuSans-70" d="M 1159 525 
L 1159 -1331 
L 581 -1331 
L 581 3500 
L 1159 3500 
L 1159 2969 
Q 1341 3281 1617 3432 
Q 1894 3584 2278 3584 
Q 2916 3584 3314 3078 
Q 3713 2572 3713 1747 
Q 3713 922 3314 415 
Q 2916 -91 2278 -91 
Q 1894 -91 1617 61 
Q 1341 213 1159 525 
z
M 3116 1747 
Q 3116 2381 2855 2742 
Q 2594 3103 2138 3103 
Q 1681 3103 1420 2742 
Q 1159 2381 1159 1747 
Q 1159 1113 1420 752 
Q 1681 391 2138 391 
Q 2594 391 2855 752 
Q 3116 1113 3116 1747 
z
" transform="scale(0.015625)"/>
     <path id="DejaVuSans-6c" d="M 603 4863 
L 1178 4863 
L 1178 0 
L 603 0 
L 603 4863 
z
" transform="scale(0.015625)"/>
     <path id="DejaVuSans-6f" d="M 1959 3097 
Q 1497 3097 1228 2736 
Q 959 2375 959 1747 
Q 959 1119 1226 758 
Q 1494 397 1959 397 
Q 2419 397 2687 759 
Q 2956 1122 2956 1747 
Q 2956 2369 2687 2733 
Q 2419 3097 1959 3097 
z
M 1959 3584 
Q 2709 3584 3137 3096 
Q 3566 2609 3566 1747 
Q 3566 888 3137 398 
Q 2709 -91 1959 -91 
Q 1206 -91 779 398 
Q 353 888 353 1747 
Q 353 2609 779 3096 
Q 1206 3584 1959 3584 
z
" transform="scale(0.015625)"/>
     <path id="DejaVuSans-20" transform="scale(0.015625)"/>
     <path id="DejaVuSans-77" d="M 269 3500 
L 844 3500 
L 1563 769 
L 2278 3500 
L 2956 3500 
L 3675 769 
L 4391 3500 
L 4966 3500 
L 4050 0 
L 3372 0 
L 2619 2869 
L 1863 0 
L 1184 0 
L 269 3500 
z
" transform="scale(0.015625)"/>
     <path id="DejaVuSans-69" d="M 603 3500 
L 1178 3500 
L 1178 0 
L 603 0 
L 603 3500 
z
M 603 4863 
L 1178 4863 
L 1178 4134 
L 603 4134 
L 603 4863 
z
" transform="scale(0.015625)"/>
     <path id="DejaVuSans-68" d="M 3513 2113 
L 3513 0 
L 2938 0 
L 2938 2094 
Q 2938 2591 2744 2837 
Q 2550 3084 2163 3084 
Q 1697 3084 1428 2787 
Q 1159 2491 1159 1978 
L 1159 0 
L 581 0 
L 581 4863 
L 1159 4863 
L 1159 2956 
Q 1366 3272 1645 3428 
Q 1925 3584 2291 3584 
Q 2894 3584 3203 3211 
Q 3513 2838 3513 2113 
z
" transform="scale(0.015625)"/>
     <path id="DejaVuSans-43" d="M 4122 4306 
L 4122 3641 
Q 3803 3938 3442 4084 
Q 3081 4231 2675 4231 
Q 1875 4231 1450 3742 
Q 1025 3253 1025 2328 
Q 1025 1406 1450 917 
Q 1875 428 2675 428 
Q 3081 428 3442 575 
Q 3803 722 4122 1019 
L 4122 359 
Q 3791 134 3420 21 
Q 3050 -91 2638 -91 
Q 1578 -91 968 557 
Q 359 1206 359 2328 
Q 359 3453 968 4101 
Q 1578 4750 2638 4750 
Q 3056 4750 3426 4639 
Q 3797 4528 4122 4306 
z
" transform="scale(0.015625)"/>
     <path id="DejaVuSans-6e" d="M 3513 2113 
L 3513 0 
L 2938 0 
L 2938 2094 
Q 2938 2591 2744 2837 
Q 2550 3084 2163 3084 
Q 1697 3084 1428 2787 
Q 1159 2491 1159 1978 
L 1159 0 
L 581 0 
L 581 3500 
L 1159 3500 
L 1159 2956 
Q 1366 3272 1645 3428 
Q 1925 3584 2291 3584 
Q 2894 3584 3203 3211 
Q 3513 2838 3513 2113 
z
" transform="scale(0.015625)"/>
     <path id="DejaVuSans-64" d="M 2906 2969 
L 2906 4863 
L 3481 4863 
L 3481 0 
L 2906 0 
L 2906 525 
Q 2725 213 2448 61 
Q 2172 -91 1784 -91 
Q 1150 -91 751 415 
Q 353 922 353 1747 
Q 353 2572 751 3078 
Q 1150 3584 1784 3584 
Q 2172 3584 2448 3432 
Q 2725 3281 2906 2969 
z
M 947 1747 
Q 947 1113 1208 752 
Q 1469 391 1925 391 
Q 2381 391 2643 752 
Q 2906 1113 2906 1747 
Q 2906 2381 2643 2742 
Q 2381 3103 1925 3103 
Q 1469 3103 1208 2742 
Q 947 2381 947 1747 
z
" transform="scale(0.015625)"/>
     <path id="DejaVuSans-7a" d="M 353 3500 
L 3084 3500 
L 3084 2975 
L 922 459 
L 3084 459 
L 3084 0 
L 275 0 
L 275 525 
L 2438 3041 
L 353 3041 
L 353 3500 
z
" transform="scale(0.015625)"/>
     <path id="DejaVuSans-66" d="M 2375 4863 
L 2375 4384 
L 1825 4384 
Q 1516 4384 1395 4259 
Q 1275 4134 1275 3809 
L 1275 3500 
L 2222 3500 
L 2222 3053 
L 1275 3053 
L 1275 0 
L 697 0 
L 697 3053 
L 147 3053 
L 147 3500 
L 697 3500 
L 697 3744 
Q 697 4328 969 4595 
Q 1241 4863 1831 4863 
L 2375 4863 
z
" transform="scale(0.015625)"/>
    </defs>
    <use xlink:href="#DejaVuSans-53"/>
    <use xlink:href="#DejaVuSans-63" x="63.476562"/>
    <use xlink:href="#DejaVuSans-61" x="118.457031"/>
    <use xlink:href="#DejaVuSans-74" x="179.736328"/>
    <use xlink:href="#DejaVuSans-74" x="218.945312"/>
    <use xlink:href="#DejaVuSans-65" x="258.154297"/>
    <use xlink:href="#DejaVuSans-72" x="319.677734"/>
    <use xlink:href="#DejaVuSans-70" x="360.791016"/>
    <use xlink:href="#DejaVuSans-6c" x="424.267578"/>
    <use xlink:href="#DejaVuSans-6f" x="452.050781"/>
    <use xlink:href="#DejaVuSans-74" x="513.232422"/>
    <use xlink:href="#DejaVuSans-20" x="552.441406"/>
    <use xlink:href="#DejaVuSans-77" x="584.228516"/>
    <use xlink:href="#DejaVuSans-69" x="666.015625"/>
    <use xlink:href="#DejaVuSans-74" x="693.798828"/>
    <use xlink:href="#DejaVuSans-68" x="733.007812"/>
    <use xlink:href="#DejaVuSans-20" x="796.386719"/>
    <use xlink:href="#DejaVuSans-43" x="828.173828"/>
    <use xlink:href="#DejaVuSans-6f" x="897.998047"/>
    <use xlink:href="#DejaVuSans-6c" x="959.179688"/>
    <use xlink:href="#DejaVuSans-6f" x="986.962891"/>
    <use xlink:href="#DejaVuSans-72" x="1048.144531"/>
    <use xlink:href="#DejaVuSans-20" x="1089.257812"/>
    <use xlink:href="#DejaVuSans-61" x="1121.044922"/>
    <use xlink:href="#DejaVuSans-6e" x="1182.324219"/>
    <use xlink:href="#DejaVuSans-64" x="1245.703125"/>
    <use xlink:href="#DejaVuSans-20" x="1309.179688"/>
    <use xlink:href="#DejaVuSans-53" x="1340.966797"/>
    <use xlink:href="#DejaVuSans-69" x="1404.443359"/>
    <use xlink:href="#DejaVuSans-7a" x="1432.226562"/>
    <use xlink:href="#DejaVuSans-65" x="1484.716797"/>
    <use xlink:href="#DejaVuSans-20" x="1546.240234"/>
    <use xlink:href="#DejaVuSans-53" x="1578.027344"/>
    <use xlink:href="#DejaVuSans-70" x="1641.503906"/>
    <use xlink:href="#DejaVuSans-65" x="1704.980469"/>
    <use xlink:href="#DejaVuSans-63" x="1766.503906"/>
    <use xlink:href="#DejaVuSans-69" x="1821.484375"/>
    <use xlink:href="#DejaVuSans-66" x="1849.267578"/>
    <use xlink:href="#DejaVuSans-69" x="1884.472656"/>
    <use xlink:href="#DejaVuSans-65" x="1912.255859"/>
    <use xlink:href="#DejaVuSans-64" x="1973.779297"/>
   </g>
  </g>
 </g>
 <defs>
  <clipPath id="pcccdab0b36">
   <rect x="72" y="34.56" width="446.4" height="221.76"/>
  </clipPath>
 </defs>
</svg>
