<?xml version="1.0" encoding="utf-8" standalone="no"?>
<!DOCTYPE svg PUBLIC "-//W3C//DTD SVG 1.1//EN"
  "http://www.w3.org/Graphics/SVG/1.1/DTD/svg11.dtd">
<svg xmlns:xlink="http://www.w3.org/1999/xlink" width="576pt" height="288pt" viewBox="0 0 576 288" xmlns="http://www.w3.org/2000/svg" version="1.1">
 <metadata>
  <rdf:RDF xmlns:dc="http://purl.org/dc/elements/1.1/" xmlns:cc="http://creativecommons.org/ns#" xmlns:rdf="http://www.w3.org/1999/02/22-rdf-syntax-ns#">
   <cc:Work>
    <dc:type rdf:resource="http://purl.org/dc/dcmitype/StillImage"/>
    <dc:date>2023-11-23T19:58:02.403664</dc:date>
    <dc:format>image/svg+xml</dc:format>
    <dc:creator>
     <cc:Agent>
      <dc:title>Matplotlib v3.8.1, https://matplotlib.org/</dc:title>
     </cc:Agent>
    </dc:creator>
   </cc:Work>
  </rdf:RDF>
 </metadata>
 <defs>
  <style type="text/css">*{stroke-linejoin: round; stroke-linecap: butt}</style>
 </defs>
 <g id="figure_1">
  <g id="patch_1">
   <path d="M 0 288 
L 576 288 
L 576 0 
L 0 0 
z
" style="fill: #ffffff; stroke: #ff0000; stroke-linejoin: miter"/>
  </g>
  <g id="axes_1">
   <g id="patch_2">
    <path d="M 57.6 259.2 
L 576 259.2 
L 576 0 
L 57.6 0 
z
" style="fill: #ffffff"/>
   </g>
   <g id="matplotlib.axis_1">
    <g id="xtick_1">
     <g id="line2d_1">
      <defs>
       <path id="mbc35d8de3a" d="M 0 0 
L 0 3.5 
" style="stroke: #000000; stroke-width: 0.8"/>
      </defs>
      <g>
       <use xlink:href="#mbc35d8de3a" x="83.531841" y="259.2" style="stroke: #000000; stroke-width: 0.8"/>
      </g>
     </g>
     <g id="text_1">
      <!-- 2024-01 -->
      <g transform="translate(62.640435 273.798437) scale(0.1 -0.1)">
       <defs>
        <path id="DejaVuSans-32" d="M 1228 531 
L 3431 531 
L 3431 0 
L 469 0 
L 469 531 
Q 828 903 1448 1529 
Q 2069 2156 2228 2338 
Q 2531 2678 2651 2914 
Q 2772 3150 2772 3378 
Q 2772 3750 2511 3984 
Q 2250 4219 1831 4219 
Q 1534 4219 1204 4116 
Q 875 4013 500 3803 
L 500 4441 
Q 881 4594 1212 4672 
Q 1544 4750 1819 4750 
Q 2544 4750 2975 4387 
Q 3406 4025 3406 3419 
Q 3406 3131 3298 2873 
Q 3191 2616 2906 2266 
Q 2828 2175 2409 1742 
Q 1991 1309 1228 531 
z
" transform="scale(0.015625)"/>
        <path id="DejaVuSans-30" d="M 2034 4250 
Q 1547 4250 1301 3770 
Q 1056 3291 1056 2328 
Q 1056 1369 1301 889 
Q 1547 409 2034 409 
Q 2525 409 2770 889 
Q 3016 1369 3016 2328 
Q 3016 3291 2770 3770 
Q 2525 4250 2034 4250 
z
M 2034 4750 
Q 2819 4750 3233 4129 
Q 3647 3509 3647 2328 
Q 3647 1150 3233 529 
Q 2819 -91 2034 -91 
Q 1250 -91 836 529 
Q 422 1150 422 2328 
Q 422 3509 836 4129 
Q 1250 4750 2034 4750 
z
" transform="scale(0.015625)"/>
        <path id="DejaVuSans-34" d="M 2419 4116 
L 825 1625 
L 2419 1625 
L 2419 4116 
z
M 2253 4666 
L 3047 4666 
L 3047 1625 
L 3713 1625 
L 3713 1100 
L 3047 1100 
L 3047 0 
L 2419 0 
L 2419 1100 
L 313 1100 
L 313 1709 
L 2253 4666 
z
" transform="scale(0.015625)"/>
        <path id="DejaVuSans-2d" d="M 313 2009 
L 1997 2009 
L 1997 1497 
L 313 1497 
L 313 2009 
z
" transform="scale(0.015625)"/>
        <path id="DejaVuSans-31" d="M 794 531 
L 1825 531 
L 1825 4091 
L 703 3866 
L 703 4441 
L 1819 4666 
L 2450 4666 
L 2450 531 
L 3481 531 
L 3481 0 
L 794 0 
L 794 531 
z
" transform="scale(0.015625)"/>
       </defs>
       <use xlink:href="#DejaVuSans-32"/>
       <use xlink:href="#DejaVuSans-30" x="63.623047"/>
       <use xlink:href="#DejaVuSans-32" x="127.246094"/>
       <use xlink:href="#DejaVuSans-34" x="190.869141"/>
       <use xlink:href="#DejaVuSans-2d" x="254.492188"/>
       <use xlink:href="#DejaVuSans-30" x="290.576172"/>
       <use xlink:href="#DejaVuSans-31" x="354.199219"/>
      </g>
     </g>
    </g>
    <g id="xtick_2">
     <g id="line2d_2">
      <g>
       <use xlink:href="#mbc35d8de3a" x="156.946185" y="259.2" style="stroke: #000000; stroke-width: 0.8"/>
      </g>
     </g>
     <g id="text_2">
      <!-- 2024-02 -->
      <g transform="translate(136.054779 273.798437) scale(0.1 -0.1)">
       <use xlink:href="#DejaVuSans-32"/>
       <use xlink:href="#DejaVuSans-30" x="63.623047"/>
       <use xlink:href="#DejaVuSans-32" x="127.246094"/>
       <use xlink:href="#DejaVuSans-34" x="190.869141"/>
       <use xlink:href="#DejaVuSans-2d" x="254.492188"/>
       <use xlink:href="#DejaVuSans-30" x="290.576172"/>
       <use xlink:href="#DejaVuSans-32" x="354.199219"/>
      </g>
     </g>
    </g>
    <g id="xtick_3">
     <g id="line2d_3">
      <g>
       <use xlink:href="#mbc35d8de3a" x="225.624121" y="259.2" style="stroke: #000000; stroke-width: 0.8"/>
      </g>
     </g>
     <g id="text_3">
      <!-- 2024-03 -->
      <g transform="translate(204.732714 273.798437) scale(0.1 -0.1)">
       <defs>
        <path id="DejaVuSans-33" d="M 2597 2516 
Q 3050 2419 3304 2112 
Q 3559 1806 3559 1356 
Q 3559 666 3084 287 
Q 2609 -91 1734 -91 
Q 1441 -91 1130 -33 
Q 819 25 488 141 
L 488 750 
Q 750 597 1062 519 
Q 1375 441 1716 441 
Q 2309 441 2620 675 
Q 2931 909 2931 1356 
Q 2931 1769 2642 2001 
Q 2353 2234 1838 2234 
L 1294 2234 
L 1294 2753 
L 1863 2753 
Q 2328 2753 2575 2939 
Q 2822 3125 2822 3475 
Q 2822 3834 2567 4026 
Q 2313 4219 1838 4219 
Q 1578 4219 1281 4162 
Q 984 4106 628 3988 
L 628 4550 
Q 988 4650 1302 4700 
Q 1616 4750 1894 4750 
Q 2613 4750 3031 4423 
Q 3450 4097 3450 3541 
Q 3450 3153 3228 2886 
Q 3006 2619 2597 2516 
z
" transform="scale(0.015625)"/>
       </defs>
       <use xlink:href="#DejaVuSans-32"/>
       <use xlink:href="#DejaVuSans-30" x="63.623047"/>
       <use xlink:href="#DejaVuSans-32" x="127.246094"/>
       <use xlink:href="#DejaVuSans-34" x="190.869141"/>
       <use xlink:href="#DejaVuSans-2d" x="254.492188"/>
       <use xlink:href="#DejaVuSans-30" x="290.576172"/>
       <use xlink:href="#DejaVuSans-33" x="354.199219"/>
      </g>
     </g>
    </g>
    <g id="xtick_4">
     <g id="line2d_4">
      <g>
       <use xlink:href="#mbc35d8de3a" x="299.038465" y="259.2" style="stroke: #000000; stroke-width: 0.8"/>
      </g>
     </g>
     <g id="text_4">
      <!-- 2024-04 -->
      <g transform="translate(278.147059 273.798437) scale(0.1 -0.1)">
       <use xlink:href="#DejaVuSans-32"/>
       <use xlink:href="#DejaVuSans-30" x="63.623047"/>
       <use xlink:href="#DejaVuSans-32" x="127.246094"/>
       <use xlink:href="#DejaVuSans-34" x="190.869141"/>
       <use xlink:href="#DejaVuSans-2d" x="254.492188"/>
       <use xlink:href="#DejaVuSans-30" x="290.576172"/>
       <use xlink:href="#DejaVuSans-34" x="354.199219"/>
      </g>
     </g>
    </g>
    <g id="xtick_5">
     <g id="line2d_5">
      <g>
       <use xlink:href="#mbc35d8de3a" x="370.084605" y="259.2" style="stroke: #000000; stroke-width: 0.8"/>
      </g>
     </g>
     <g id="text_5">
      <!-- 2024-05 -->
      <g transform="translate(349.193199 273.798437) scale(0.1 -0.1)">
       <defs>
        <path id="DejaVuSans-35" d="M 691 4666 
L 3169 4666 
L 3169 4134 
L 1269 4134 
L 1269 2991 
Q 1406 3038 1543 3061 
Q 1681 3084 1819 3084 
Q 2600 3084 3056 2656 
Q 3513 2228 3513 1497 
Q 3513 744 3044 326 
Q 2575 -91 1722 -91 
Q 1428 -91 1123 -41 
Q 819 9 494 109 
L 494 744 
Q 775 591 1075 516 
Q 1375 441 1709 441 
Q 2250 441 2565 725 
Q 2881 1009 2881 1497 
Q 2881 1984 2565 2268 
Q 2250 2553 1709 2553 
Q 1456 2553 1204 2497 
Q 953 2441 691 2322 
L 691 4666 
z
" transform="scale(0.015625)"/>
       </defs>
       <use xlink:href="#DejaVuSans-32"/>
       <use xlink:href="#DejaVuSans-30" x="63.623047"/>
       <use xlink:href="#DejaVuSans-32" x="127.246094"/>
       <use xlink:href="#DejaVuSans-34" x="190.869141"/>
       <use xlink:href="#DejaVuSans-2d" x="254.492188"/>
       <use xlink:href="#DejaVuSans-30" x="290.576172"/>
       <use xlink:href="#DejaVuSans-35" x="354.199219"/>
      </g>
     </g>
    </g>
    <g id="xtick_6">
     <g id="line2d_6">
      <g>
       <use xlink:href="#mbc35d8de3a" x="443.498949" y="259.2" style="stroke: #000000; stroke-width: 0.8"/>
      </g>
     </g>
     <g id="text_6">
      <!-- 2024-06 -->
      <g transform="translate(422.607543 273.798437) scale(0.1 -0.1)">
       <defs>
        <path id="DejaVuSans-36" d="M 2113 2584 
Q 1688 2584 1439 2293 
Q 1191 2003 1191 1497 
Q 1191 994 1439 701 
Q 1688 409 2113 409 
Q 2538 409 2786 701 
Q 3034 994 3034 1497 
Q 3034 2003 2786 2293 
Q 2538 2584 2113 2584 
z
M 3366 4563 
L 3366 3988 
Q 3128 4100 2886 4159 
Q 2644 4219 2406 4219 
Q 1781 4219 1451 3797 
Q 1122 3375 1075 2522 
Q 1259 2794 1537 2939 
Q 1816 3084 2150 3084 
Q 2853 3084 3261 2657 
Q 3669 2231 3669 1497 
Q 3669 778 3244 343 
Q 2819 -91 2113 -91 
Q 1303 -91 875 529 
Q 447 1150 447 2328 
Q 447 3434 972 4092 
Q 1497 4750 2381 4750 
Q 2619 4750 2861 4703 
Q 3103 4656 3366 4563 
z
" transform="scale(0.015625)"/>
       </defs>
       <use xlink:href="#DejaVuSans-32"/>
       <use xlink:href="#DejaVuSans-30" x="63.623047"/>
       <use xlink:href="#DejaVuSans-32" x="127.246094"/>
       <use xlink:href="#DejaVuSans-34" x="190.869141"/>
       <use xlink:href="#DejaVuSans-2d" x="254.492188"/>
       <use xlink:href="#DejaVuSans-30" x="290.576172"/>
       <use xlink:href="#DejaVuSans-36" x="354.199219"/>
      </g>
     </g>
    </g>
    <g id="xtick_7">
     <g id="line2d_7">
      <g>
       <use xlink:href="#mbc35d8de3a" x="514.545089" y="259.2" style="stroke: #000000; stroke-width: 0.8"/>
      </g>
     </g>
     <g id="text_7">
      <!-- 2024-07 -->
      <g transform="translate(493.653683 273.798437) scale(0.1 -0.1)">
       <defs>
        <path id="DejaVuSans-37" d="M 525 4666 
L 3525 4666 
L 3525 4397 
L 1831 0 
L 1172 0 
L 2766 4134 
L 525 4134 
L 525 4666 
z
" transform="scale(0.015625)"/>
       </defs>
       <use xlink:href="#DejaVuSans-32"/>
       <use xlink:href="#DejaVuSans-30" x="63.623047"/>
       <use xlink:href="#DejaVuSans-32" x="127.246094"/>
       <use xlink:href="#DejaVuSans-34" x="190.869141"/>
       <use xlink:href="#DejaVuSans-2d" x="254.492188"/>
       <use xlink:href="#DejaVuSans-30" x="290.576172"/>
       <use xlink:href="#DejaVuSans-37" x="354.199219"/>
      </g>
     </g>
    </g>
    <g id="text_8">
     <!-- Date -->
     <g transform="translate(304.849219 287.476562) scale(0.1 -0.1)">
      <defs>
       <path id="DejaVuSans-44" d="M 1259 4147 
L 1259 519 
L 2022 519 
Q 2988 519 3436 956 
Q 3884 1394 3884 2338 
Q 3884 3275 3436 3711 
Q 2988 4147 2022 4147 
L 1259 4147 
z
M 628 4666 
L 1925 4666 
Q 3281 4666 3915 4102 
Q 4550 3538 4550 2338 
Q 4550 1131 3912 565 
Q 3275 0 1925 0 
L 628 0 
L 628 4666 
z
" transform="scale(0.015625)"/>
       <path id="DejaVuSans-61" d="M 2194 1759 
Q 1497 1759 1228 1600 
Q 959 1441 959 1056 
Q 959 750 1161 570 
Q 1363 391 1709 391 
Q 2188 391 2477 730 
Q 2766 1069 2766 1631 
L 2766 1759 
L 2194 1759 
z
M 3341 1997 
L 3341 0 
L 2766 0 
L 2766 531 
Q 2569 213 2275 61 
Q 1981 -91 1556 -91 
Q 1019 -91 701 211 
Q 384 513 384 1019 
Q 384 1609 779 1909 
Q 1175 2209 1959 2209 
L 2766 2209 
L 2766 2266 
Q 2766 2663 2505 2880 
Q 2244 3097 1772 3097 
Q 1472 3097 1187 3025 
Q 903 2953 641 2809 
L 641 3341 
Q 956 3463 1253 3523 
Q 1550 3584 1831 3584 
Q 2591 3584 2966 3190 
Q 3341 2797 3341 1997 
z
" transform="scale(0.015625)"/>
       <path id="DejaVuSans-74" d="M 1172 4494 
L 1172 3500 
L 2356 3500 
L 2356 3053 
L 1172 3053 
L 1172 1153 
Q 1172 725 1289 603 
Q 1406 481 1766 481 
L 2356 481 
L 2356 0 
L 1766 0 
Q 1100 0 847 248 
Q 594 497 594 1153 
L 594 3053 
L 172 3053 
L 172 3500 
L 594 3500 
L 594 4494 
L 1172 4494 
z
" transform="scale(0.015625)"/>
       <path id="DejaVuSans-65" d="M 3597 1894 
L 3597 1613 
L 953 1613 
Q 991 1019 1311 708 
Q 1631 397 2203 397 
Q 2534 397 2845 478 
Q 3156 559 3463 722 
L 3463 178 
Q 3153 47 2828 -22 
Q 2503 -91 2169 -91 
Q 1331 -91 842 396 
Q 353 884 353 1716 
Q 353 2575 817 3079 
Q 1281 3584 2069 3584 
Q 2775 3584 3186 3129 
Q 3597 2675 3597 1894 
z
M 3022 2063 
Q 3016 2534 2758 2815 
Q 2500 3097 2075 3097 
Q 1594 3097 1305 2825 
Q 1016 2553 972 2059 
L 3022 2063 
z
" transform="scale(0.015625)"/>
      </defs>
      <use xlink:href="#DejaVuSans-44"/>
      <use xlink:href="#DejaVuSans-61" x="77.001953"/>
      <use xlink:href="#DejaVuSans-74" x="138.28125"/>
      <use xlink:href="#DejaVuSans-65" x="177.490234"/>
     </g>
    </g>
   </g>
   <g id="matplotlib.axis_2">
    <g id="ytick_1">
     <g id="line2d_8">
      <defs>
       <path id="m15d7a4c161" d="M 0 0 
L -3.5 0 
" style="stroke: #000000; stroke-width: 0.8"/>
      </defs>
      <g>
       <use xlink:href="#m15d7a4c161" x="57.6" y="228.028419" style="stroke: #000000; stroke-width: 0.8"/>
      </g>
     </g>
     <g id="text_9">
      <!-- 0 -->
      <g transform="translate(44.2375 231.827638) scale(0.1 -0.1)">
       <use xlink:href="#DejaVuSans-30"/>
      </g>
     </g>
    </g>
    <g id="ytick_2">
     <g id="line2d_9">
      <g>
       <use xlink:href="#m15d7a4c161" x="57.6" y="191.077322" style="stroke: #000000; stroke-width: 0.8"/>
      </g>
     </g>
     <g id="text_10">
      <!-- 5 -->
      <g transform="translate(44.2375 194.876541) scale(0.1 -0.1)">
       <use xlink:href="#DejaVuSans-35"/>
      </g>
     </g>
    </g>
    <g id="ytick_3">
     <g id="line2d_10">
      <g>
       <use xlink:href="#m15d7a4c161" x="57.6" y="154.126225" style="stroke: #000000; stroke-width: 0.8"/>
      </g>
     </g>
     <g id="text_11">
      <!-- 10 -->
      <g transform="translate(37.875 157.925443) scale(0.1 -0.1)">
       <use xlink:href="#DejaVuSans-31"/>
       <use xlink:href="#DejaVuSans-30" x="63.623047"/>
      </g>
     </g>
    </g>
    <g id="ytick_4">
     <g id="line2d_11">
      <g>
       <use xlink:href="#m15d7a4c161" x="57.6" y="117.175127" style="stroke: #000000; stroke-width: 0.8"/>
      </g>
     </g>
     <g id="text_12">
      <!-- 15 -->
      <g transform="translate(37.875 120.974346) scale(0.1 -0.1)">
       <use xlink:href="#DejaVuSans-31"/>
       <use xlink:href="#DejaVuSans-35" x="63.623047"/>
      </g>
     </g>
    </g>
    <g id="ytick_5">
     <g id="line2d_12">
      <g>
       <use xlink:href="#m15d7a4c161" x="57.6" y="80.22403" style="stroke: #000000; stroke-width: 0.8"/>
      </g>
     </g>
     <g id="text_13">
      <!-- 20 -->
      <g transform="translate(37.875 84.023249) scale(0.1 -0.1)">
       <use xlink:href="#DejaVuSans-32"/>
       <use xlink:href="#DejaVuSans-30" x="63.623047"/>
      </g>
     </g>
    </g>
    <g id="ytick_6">
     <g id="line2d_13">
      <g>
       <use xlink:href="#m15d7a4c161" x="57.6" y="43.272933" style="stroke: #000000; stroke-width: 0.8"/>
      </g>
     </g>
     <g id="text_14">
      <!-- 25 -->
      <g transform="translate(37.875 47.072152) scale(0.1 -0.1)">
       <use xlink:href="#DejaVuSans-32"/>
       <use xlink:href="#DejaVuSans-35" x="63.623047"/>
      </g>
     </g>
    </g>
    <g id="ytick_7">
     <g id="line2d_14">
      <g>
       <use xlink:href="#m15d7a4c161" x="57.6" y="6.321836" style="stroke: #000000; stroke-width: 0.8"/>
      </g>
     </g>
     <g id="text_15">
      <!-- 30 -->
      <g transform="translate(37.875 10.121055) scale(0.1 -0.1)">
       <use xlink:href="#DejaVuSans-33"/>
       <use xlink:href="#DejaVuSans-30" x="63.623047"/>
      </g>
     </g>
    </g>
    <g id="text_16">
     <!-- Cum. sum -->
     <g transform="translate(31.795312 154.952344) rotate(-90) scale(0.1 -0.1)">
      <defs>
       <path id="DejaVuSans-43" d="M 4122 4306 
L 4122 3641 
Q 3803 3938 3442 4084 
Q 3081 4231 2675 4231 
Q 1875 4231 1450 3742 
Q 1025 3253 1025 2328 
Q 1025 1406 1450 917 
Q 1875 428 2675 428 
Q 3081 428 3442 575 
Q 3803 722 4122 1019 
L 4122 359 
Q 3791 134 3420 21 
Q 3050 -91 2638 -91 
Q 1578 -91 968 557 
Q 359 1206 359 2328 
Q 359 3453 968 4101 
Q 1578 4750 2638 4750 
Q 3056 4750 3426 4639 
Q 3797 4528 4122 4306 
z
" transform="scale(0.015625)"/>
       <path id="DejaVuSans-75" d="M 544 1381 
L 544 3500 
L 1119 3500 
L 1119 1403 
Q 1119 906 1312 657 
Q 1506 409 1894 409 
Q 2359 409 2629 706 
Q 2900 1003 2900 1516 
L 2900 3500 
L 3475 3500 
L 3475 0 
L 2900 0 
L 2900 538 
Q 2691 219 2414 64 
Q 2138 -91 1772 -91 
Q 1169 -91 856 284 
Q 544 659 544 1381 
z
M 1991 3584 
L 1991 3584 
z
" transform="scale(0.015625)"/>
       <path id="DejaVuSans-6d" d="M 3328 2828 
Q 3544 3216 3844 3400 
Q 4144 3584 4550 3584 
Q 5097 3584 5394 3201 
Q 5691 2819 5691 2113 
L 5691 0 
L 5113 0 
L 5113 2094 
Q 5113 2597 4934 2840 
Q 4756 3084 4391 3084 
Q 3944 3084 3684 2787 
Q 3425 2491 3425 1978 
L 3425 0 
L 2847 0 
L 2847 2094 
Q 2847 2600 2669 2842 
Q 2491 3084 2119 3084 
Q 1678 3084 1418 2786 
Q 1159 2488 1159 1978 
L 1159 0 
L 581 0 
L 581 3500 
L 1159 3500 
L 1159 2956 
Q 1356 3278 1631 3431 
Q 1906 3584 2284 3584 
Q 2666 3584 2933 3390 
Q 3200 3197 3328 2828 
z
" transform="scale(0.015625)"/>
       <path id="DejaVuSans-2e" d="M 684 794 
L 1344 794 
L 1344 0 
L 684 0 
L 684 794 
z
" transform="scale(0.015625)"/>
       <path id="DejaVuSans-20" transform="scale(0.015625)"/>
       <path id="DejaVuSans-73" d="M 2834 3397 
L 2834 2853 
Q 2591 2978 2328 3040 
Q 2066 3103 1784 3103 
Q 1356 3103 1142 2972 
Q 928 2841 928 2578 
Q 928 2378 1081 2264 
Q 1234 2150 1697 2047 
L 1894 2003 
Q 2506 1872 2764 1633 
Q 3022 1394 3022 966 
Q 3022 478 2636 193 
Q 2250 -91 1575 -91 
Q 1294 -91 989 -36 
Q 684 19 347 128 
L 347 722 
Q 666 556 975 473 
Q 1284 391 1588 391 
Q 1994 391 2212 530 
Q 2431 669 2431 922 
Q 2431 1156 2273 1281 
Q 2116 1406 1581 1522 
L 1381 1569 
Q 847 1681 609 1914 
Q 372 2147 372 2553 
Q 372 3047 722 3315 
Q 1072 3584 1716 3584 
Q 2034 3584 2315 3537 
Q 2597 3491 2834 3397 
z
" transform="scale(0.015625)"/>
      </defs>
      <use xlink:href="#DejaVuSans-43"/>
      <use xlink:href="#DejaVuSans-75" x="69.824219"/>
      <use xlink:href="#DejaVuSans-6d" x="133.203125"/>
      <use xlink:href="#DejaVuSans-2e" x="230.615234"/>
      <use xlink:href="#DejaVuSans-20" x="262.402344"/>
      <use xlink:href="#DejaVuSans-73" x="294.189453"/>
      <use xlink:href="#DejaVuSans-75" x="346.289062"/>
      <use xlink:href="#DejaVuSans-6d" x="409.667969"/>
     </g>
    </g>
   </g>
   <g id="line2d_15">
    <path d="M 81.163636 224.393226 
L 83.531841 224.64709 
L 88.26825 217.360004 
L 90.636455 211.177003 
L 93.00466 216.68161 
L 95.372864 220.182741 
L 100.109274 235.733241 
L 104.845683 230.72757 
L 107.213888 235.733529 
L 109.582092 247.418182 
L 111.950297 226.963645 
L 114.318502 217.705497 
L 116.686706 209.58592 
L 119.054911 210.449275 
L 121.423116 206.13462 
L 123.79132 200.415418 
L 126.159525 198.995551 
L 128.52773 204.768261 
L 130.895934 205.343351 
L 133.264139 203.926811 
L 135.632344 186.816793 
L 138.000548 192.5723 
L 140.368753 188.745208 
L 142.736958 195.640558 
L 145.105162 186.90643 
L 147.473367 183.369707 
L 149.841571 170.095918 
L 152.209776 171.44612 
L 154.577981 169.571529 
L 156.946185 164.293143 
L 159.31439 161.697312 
L 161.682595 154.4355 
L 164.050799 151.058177 
L 166.419004 153.594168 
L 168.787209 151.867803 
L 171.155413 163.600113 
L 173.523618 158.850307 
L 175.891823 150.868373 
L 178.260027 150.450166 
L 180.628232 156.694407 
L 182.996437 161.2765 
L 185.364641 163.967012 
L 187.732846 154.166366 
L 190.101051 157.109912 
L 192.469255 152.110832 
L 194.83746 148.613825 
L 197.205665 143.39799 
L 199.573869 133.065689 
L 201.942074 126.666962 
L 204.310279 129.11667 
L 206.678483 124.589958 
L 209.046688 114.774945 
L 211.414893 103.689735 
L 213.783097 106.973343 
L 216.151302 105.166222 
L 218.519507 98.680593 
L 220.887711 100.51902 
L 223.255916 108.837302 
L 225.624121 102.910971 
L 227.992325 101.918967 
L 230.36053 103.385078 
L 232.728735 96.880623 
L 235.096939 91.34183 
L 237.465144 84.99624 
L 239.833349 91.935077 
L 242.201553 87.219653 
L 246.937963 103.542175 
L 249.306167 102.938576 
L 251.674372 107.18164 
L 254.042577 93.550328 
L 256.410781 91.014189 
L 258.778986 90.250399 
L 261.14719 96.553602 
L 263.515395 104.241145 
L 265.8836 120.615775 
L 268.251804 110.012205 
L 270.620009 100.392525 
L 272.988214 94.019184 
L 275.356418 97.182017 
L 277.724623 83.889791 
L 280.092828 71.375712 
L 282.461032 60.626026 
L 284.829237 54.885203 
L 287.197442 48.163882 
L 289.565646 70.847635 
L 291.933851 73.584872 
L 294.302056 74.082366 
L 296.67026 72.546512 
L 299.038465 63.386751 
L 301.40667 70.208091 
L 303.774874 70.681067 
L 306.143079 75.759538 
L 308.511284 73.864003 
L 310.879488 79.653094 
L 313.247693 69.465407 
L 315.615898 71.616401 
L 317.984102 65.980515 
L 320.352307 65.406302 
L 322.720512 52.23741 
L 325.088716 54.555639 
L 327.456921 63.130324 
L 329.825126 68.702261 
L 332.19333 68.473128 
L 334.561535 68.70901 
L 336.92974 71.46109 
L 339.297944 73.886349 
L 341.666149 75.578525 
L 344.034354 76.548859 
L 346.402558 65.012691 
L 348.770763 69.825509 
L 351.138968 72.394542 
L 353.507172 53.601227 
L 355.875377 56.044405 
L 358.243582 53.046169 
L 360.611786 52.307802 
L 362.979991 57.875326 
L 365.348196 68.009506 
L 367.7164 64.396007 
L 370.084605 69.748337 
L 372.45281 73.353324 
L 374.821014 67.368205 
L 377.189219 70.94989 
L 379.557423 63.900924 
L 381.925628 74.676262 
L 384.293833 60.649383 
L 386.662037 52.569541 
L 389.030242 48.035633 
L 391.398447 53.874554 
L 393.766651 50.065406 
L 396.134856 39.038069 
L 398.503061 31.138699 
L 400.871265 37.007751 
L 403.23947 25.145274 
L 405.607675 26.545261 
L 407.975879 26.132005 
L 410.344084 44.740397 
L 412.712289 48.521944 
L 415.080493 57.680411 
L 417.448698 51.720963 
L 419.816903 51.322533 
L 422.185107 53.688636 
L 424.553312 47.050564 
L 426.921517 48.579903 
L 429.289721 43.402841 
L 431.657926 48.286594 
L 434.026131 31.807243 
L 436.394335 27.448601 
L 438.76254 28.752367 
L 441.130745 19.917664 
L 443.498949 30.871379 
L 445.867154 33.038212 
L 448.235359 26.227032 
L 450.603563 39.781321 
L 452.971768 43.24211 
L 455.339973 50.741289 
L 457.708177 50.76041 
L 460.076382 49.421933 
L 462.444587 41.010691 
L 464.812791 41.317313 
L 467.180996 42.492349 
L 469.549201 43.93047 
L 471.917405 44.264839 
L 474.28561 39.450646 
L 476.653815 23.05036 
L 479.022019 19.018955 
L 481.390224 33.746283 
L 483.758429 37.775263 
L 486.126633 35.172452 
L 488.494838 38.579519 
L 490.863042 29.649209 
L 493.231247 31.683295 
L 495.599452 38.772684 
L 497.967656 25.599019 
L 500.335861 32.07107 
L 502.704066 33.497959 
L 505.07227 28.930881 
L 507.440475 27.745736 
L 509.80868 29.596393 
L 512.176884 27.956725 
L 514.545089 11.781818 
L 516.913294 13.659841 
L 519.281498 15.345755 
L 521.649703 25.680781 
L 524.017908 20.06207 
L 526.386112 26.127193 
L 528.754317 18.535559 
L 531.122522 26.601616 
L 533.490726 26.238177 
L 535.858931 36.402593 
L 538.227136 23.423316 
L 540.59534 20.288027 
L 542.963545 25.764272 
L 545.33175 36.510983 
L 547.699954 44.368583 
L 550.068159 62.362795 
L 552.436364 52.49282 
L 552.436364 52.49282 
" clip-path="url(#p2195830861)" style="fill: none; stroke: #1f77b4; stroke-width: 1.5; stroke-linecap: square"/>
   </g>
   <g id="patch_3">
    <path d="M 57.6 259.2 
L 57.6 0 
" style="fill: none; stroke: #000000; stroke-width: 0.8; stroke-linejoin: miter; stroke-linecap: square"/>
   </g>
   <g id="patch_4">
    <path d="M 576 259.2 
L 576 0 
" style="fill: none; stroke: #000000; stroke-width: 0.8; stroke-linejoin: miter; stroke-linecap: square"/>
   </g>
   <g id="patch_5">
    <path d="M 57.6 259.2 
L 576 259.2 
" style="fill: none; stroke: #000000; stroke-width: 0.8; stroke-linejoin: miter; stroke-linecap: square"/>
   </g>
   <g id="patch_6">
    <path d="M 57.6 0 
L 576 0 
" style="fill: none; stroke: #000000; stroke-width: 0.8; stroke-linejoin: miter; stroke-linecap: square"/>
   </g>
   <g id="text_17">
    <!-- Main Axes with Insert Child Axes -->
    <g transform="translate(219.299063 -6) scale(0.12 -0.12)">
     <defs>
      <path id="DejaVuSans-4d" d="M 628 4666 
L 1569 4666 
L 2759 1491 
L 3956 4666 
L 4897 4666 
L 4897 0 
L 4281 0 
L 4281 4097 
L 3078 897 
L 2444 897 
L 1241 4097 
L 1241 0 
L 628 0 
L 628 4666 
z
" transform="scale(0.015625)"/>
      <path id="DejaVuSans-69" d="M 603 3500 
L 1178 3500 
L 1178 0 
L 603 0 
L 603 3500 
z
M 603 4863 
L 1178 4863 
L 1178 4134 
L 603 4134 
L 603 4863 
z
" transform="scale(0.015625)"/>
      <path id="DejaVuSans-6e" d="M 3513 2113 
L 3513 0 
L 2938 0 
L 2938 2094 
Q 2938 2591 2744 2837 
Q 2550 3084 2163 3084 
Q 1697 3084 1428 2787 
Q 1159 2491 1159 1978 
L 1159 0 
L 581 0 
L 581 3500 
L 1159 3500 
L 1159 2956 
Q 1366 3272 1645 3428 
Q 1925 3584 2291 3584 
Q 2894 3584 3203 3211 
Q 3513 2838 3513 2113 
z
" transform="scale(0.015625)"/>
      <path id="DejaVuSans-41" d="M 2188 4044 
L 1331 1722 
L 3047 1722 
L 2188 4044 
z
M 1831 4666 
L 2547 4666 
L 4325 0 
L 3669 0 
L 3244 1197 
L 1141 1197 
L 716 0 
L 50 0 
L 1831 4666 
z
" transform="scale(0.015625)"/>
      <path id="DejaVuSans-78" d="M 3513 3500 
L 2247 1797 
L 3578 0 
L 2900 0 
L 1881 1375 
L 863 0 
L 184 0 
L 1544 1831 
L 300 3500 
L 978 3500 
L 1906 2253 
L 2834 3500 
L 3513 3500 
z
" transform="scale(0.015625)"/>
      <path id="DejaVuSans-77" d="M 269 3500 
L 844 3500 
L 1563 769 
L 2278 3500 
L 2956 3500 
L 3675 769 
L 4391 3500 
L 4966 3500 
L 4050 0 
L 3372 0 
L 2619 2869 
L 1863 0 
L 1184 0 
L 269 3500 
z
" transform="scale(0.015625)"/>
      <path id="DejaVuSans-68" d="M 3513 2113 
L 3513 0 
L 2938 0 
L 2938 2094 
Q 2938 2591 2744 2837 
Q 2550 3084 2163 3084 
Q 1697 3084 1428 2787 
Q 1159 2491 1159 1978 
L 1159 0 
L 581 0 
L 581 4863 
L 1159 4863 
L 1159 2956 
Q 1366 3272 1645 3428 
Q 1925 3584 2291 3584 
Q 2894 3584 3203 3211 
Q 3513 2838 3513 2113 
z
" transform="scale(0.015625)"/>
      <path id="DejaVuSans-49" d="M 628 4666 
L 1259 4666 
L 1259 0 
L 628 0 
L 628 4666 
z
" transform="scale(0.015625)"/>
      <path id="DejaVuSans-72" d="M 2631 2963 
Q 2534 3019 2420 3045 
Q 2306 3072 2169 3072 
Q 1681 3072 1420 2755 
Q 1159 2438 1159 1844 
L 1159 0 
L 581 0 
L 581 3500 
L 1159 3500 
L 1159 2956 
Q 1341 3275 1631 3429 
Q 1922 3584 2338 3584 
Q 2397 3584 2469 3576 
Q 2541 3569 2628 3553 
L 2631 2963 
z
" transform="scale(0.015625)"/>
      <path id="DejaVuSans-6c" d="M 603 4863 
L 1178 4863 
L 1178 0 
L 603 0 
L 603 4863 
z
" transform="scale(0.015625)"/>
      <path id="DejaVuSans-64" d="M 2906 2969 
L 2906 4863 
L 3481 4863 
L 3481 0 
L 2906 0 
L 2906 525 
Q 2725 213 2448 61 
Q 2172 -91 1784 -91 
Q 1150 -91 751 415 
Q 353 922 353 1747 
Q 353 2572 751 3078 
Q 1150 3584 1784 3584 
Q 2172 3584 2448 3432 
Q 2725 3281 2906 2969 
z
M 947 1747 
Q 947 1113 1208 752 
Q 1469 391 1925 391 
Q 2381 391 2643 752 
Q 2906 1113 2906 1747 
Q 2906 2381 2643 2742 
Q 2381 3103 1925 3103 
Q 1469 3103 1208 2742 
Q 947 2381 947 1747 
z
" transform="scale(0.015625)"/>
     </defs>
     <use xlink:href="#DejaVuSans-4d"/>
     <use xlink:href="#DejaVuSans-61" x="86.279297"/>
     <use xlink:href="#DejaVuSans-69" x="147.558594"/>
     <use xlink:href="#DejaVuSans-6e" x="175.341797"/>
     <use xlink:href="#DejaVuSans-20" x="238.720703"/>
     <use xlink:href="#DejaVuSans-41" x="270.507812"/>
     <use xlink:href="#DejaVuSans-78" x="338.916016"/>
     <use xlink:href="#DejaVuSans-65" x="394.970703"/>
     <use xlink:href="#DejaVuSans-73" x="456.494141"/>
     <use xlink:href="#DejaVuSans-20" x="508.59375"/>
     <use xlink:href="#DejaVuSans-77" x="540.380859"/>
     <use xlink:href="#DejaVuSans-69" x="622.167969"/>
     <use xlink:href="#DejaVuSans-74" x="649.951172"/>
     <use xlink:href="#DejaVuSans-68" x="689.160156"/>
     <use xlink:href="#DejaVuSans-20" x="752.539062"/>
     <use xlink:href="#DejaVuSans-49" x="784.326172"/>
     <use xlink:href="#DejaVuSans-6e" x="813.818359"/>
     <use xlink:href="#DejaVuSans-73" x="877.197266"/>
     <use xlink:href="#DejaVuSans-65" x="929.296875"/>
     <use xlink:href="#DejaVuSans-72" x="990.820312"/>
     <use xlink:href="#DejaVuSans-74" x="1031.933594"/>
     <use xlink:href="#DejaVuSans-20" x="1071.142578"/>
     <use xlink:href="#DejaVuSans-43" x="1102.929688"/>
     <use xlink:href="#DejaVuSans-68" x="1172.753906"/>
     <use xlink:href="#DejaVuSans-69" x="1236.132812"/>
     <use xlink:href="#DejaVuSans-6c" x="1263.916016"/>
     <use xlink:href="#DejaVuSans-64" x="1291.699219"/>
     <use xlink:href="#DejaVuSans-20" x="1355.175781"/>
     <use xlink:href="#DejaVuSans-41" x="1386.962891"/>
     <use xlink:href="#DejaVuSans-78" x="1455.371094"/>
     <use xlink:href="#DejaVuSans-65" x="1511.425781"/>
     <use xlink:href="#DejaVuSans-73" x="1572.949219"/>
    </g>
   </g>
  </g>
  <g id="axes_2">
   <g id="patch_7">
    <path d="M 288 230.4 
L 518.4 230.4 
L 518.4 115.2 
L 288 115.2 
z
" style="fill: #ffffff"/>
   </g>
   <g id="matplotlib.axis_3"/>
   <g id="matplotlib.axis_4">
    <g id="ytick_8">
     <g id="line2d_16">
      <g>
       <use xlink:href="#m15d7a4c161" x="288" y="206.254119" style="stroke: #000000; stroke-width: 0.8"/>
      </g>
     </g>
     <g id="text_18">
      <!-- −10 -->
      <g transform="translate(259.895312 210.053338) scale(0.1 -0.1)">
       <defs>
        <path id="DejaVuSans-2212" d="M 678 2272 
L 4684 2272 
L 4684 1741 
L 678 1741 
L 678 2272 
z
" transform="scale(0.015625)"/>
       </defs>
       <use xlink:href="#DejaVuSans-2212"/>
       <use xlink:href="#DejaVuSans-31" x="83.789062"/>
       <use xlink:href="#DejaVuSans-30" x="147.412109"/>
      </g>
     </g>
    </g>
    <g id="ytick_9">
     <g id="line2d_17">
      <g>
       <use xlink:href="#m15d7a4c161" x="288" y="165.162181" style="stroke: #000000; stroke-width: 0.8"/>
      </g>
     </g>
     <g id="text_19">
      <!-- −5 -->
      <g transform="translate(266.257812 168.9614) scale(0.1 -0.1)">
       <use xlink:href="#DejaVuSans-2212"/>
       <use xlink:href="#DejaVuSans-35" x="83.789062"/>
      </g>
     </g>
    </g>
    <g id="ytick_10">
     <g id="line2d_18">
      <g>
       <use xlink:href="#m15d7a4c161" x="288" y="124.070243" style="stroke: #000000; stroke-width: 0.8"/>
      </g>
     </g>
     <g id="text_20">
      <!-- 0 -->
      <g transform="translate(274.6375 127.869462) scale(0.1 -0.1)">
       <use xlink:href="#DejaVuSans-30"/>
      </g>
     </g>
    </g>
   </g>
   <g id="line2d_19">
    <path d="M 298.472727 127.081998 
L 299.525263 130.011041 
L 300.577798 133.977361 
L 301.630333 127.624183 
L 302.682869 139.389602 
L 303.735404 134.206807 
L 304.78794 137.879269 
L 305.840475 139.595385 
L 306.893011 152.029106 
L 307.945546 143.11736 
L 308.998081 142.733634 
L 310.050617 150.002853 
L 311.103152 147.044779 
L 312.155688 152.931965 
L 313.208223 157.30891 
L 314.260758 141.229723 
L 315.313294 140.176099 
L 316.365829 150.402483 
L 317.418365 133.610572 
L 318.4709 120.436364 
L 319.523435 124.748019 
L 320.575971 127.524047 
L 321.628506 134.40398 
L 323.733577 128.789533 
L 324.786112 121.72526 
L 325.838648 130.166717 
L 326.891183 136.427184 
L 327.943719 135.538041 
L 328.996254 140.253601 
L 330.048789 132.843901 
L 331.101325 142.53618 
L 332.15386 128.738175 
L 333.206396 138.43608 
L 334.258931 136.208189 
L 335.311466 141.126252 
L 336.364002 130.886782 
L 337.416537 140.473916 
L 338.469073 145.821156 
L 339.521608 144.323949 
L 341.626679 162.404611 
L 342.679214 166.67699 
L 343.73175 154.189224 
L 344.784285 138.541059 
L 345.83682 145.574017 
L 346.889356 148.510368 
L 347.941891 146.289069 
L 348.994427 153.055186 
L 350.046962 152.82824 
L 351.099497 164.839376 
L 352.152033 166.012193 
L 353.204568 162.101895 
L 354.257104 166.373633 
L 355.309639 165.607646 
L 356.362175 161.280576 
L 357.41471 161.963627 
L 358.467245 177.136033 
L 359.519781 176.591262 
L 360.572316 162.735455 
L 361.624852 166.759969 
L 362.677387 180.568597 
L 363.729922 187.343837 
L 364.782458 190.77683 
L 365.834993 206.019877 
L 366.887529 197.864804 
L 367.940064 191.419476 
L 368.992599 194.515832 
L 370.045135 202.190687 
L 371.09767 204.472408 
L 372.150206 197.481358 
L 373.202741 183.968589 
L 374.255276 192.842994 
L 375.307812 185.173428 
L 376.360347 185.547895 
L 377.412883 185.504359 
L 378.465418 179.4629 
L 379.517953 188.041699 
L 380.570489 188.39869 
L 381.623024 188.304381 
L 382.67556 186.782389 
L 383.728095 195.357133 
L 384.78063 189.943019 
L 385.833166 179.547928 
L 386.885701 183.815639 
L 387.938237 192.607259 
L 388.990772 196.137367 
L 390.043307 192.821926 
L 391.095843 196.062027 
L 392.148378 189.795599 
L 393.200914 182.660679 
L 394.253449 187.779379 
L 395.305984 180.372291 
L 396.35852 178.819663 
L 397.411055 200.421256 
L 398.463591 207.037634 
L 399.516126 201.36583 
L 400.568661 203.133733 
L 401.621197 211.662611 
L 402.673732 204.805389 
L 403.726268 202.814443 
L 404.778803 203.96139 
L 405.831339 194.399067 
L 407.936409 195.593749 
L 408.988945 203.496387 
L 410.04148 214.043335 
L 411.094016 217.049541 
L 412.146551 214.067128 
L 413.199086 205.236577 
L 415.304157 217.04798 
L 416.356693 219.004529 
L 417.409228 224.087935 
L 418.461763 216.838526 
L 419.514299 225.163636 
L 420.566834 208.883226 
L 421.61937 209.046819 
L 422.671905 204.625528 
L 424.776976 219.152246 
L 425.829511 218.800531 
L 426.882047 213.749669 
L 427.934582 206.368081 
L 428.987117 205.121099 
L 430.039653 200.232043 
L 431.092188 201.693682 
L 432.144724 206.389188 
L 433.197259 194.802378 
L 434.249794 197.90161 
L 435.30233 193.954524 
L 436.354865 199.864227 
L 437.407401 195.572483 
L 438.459936 204.193844 
L 439.512471 197.561308 
L 440.565007 201.636179 
L 441.617542 201.932977 
L 442.670078 199.826972 
L 443.722613 206.478791 
L 444.775148 214.107105 
L 445.827684 202.833902 
L 446.880219 209.675567 
L 447.932755 212.225567 
L 448.98529 209.656053 
L 450.037825 222.522864 
L 451.090361 220.785078 
L 452.142896 222.53611 
L 453.195432 219.31264 
L 454.247967 211.03107 
L 455.300503 194.723571 
L 456.353038 191.279309 
L 457.405573 184.549218 
L 458.458109 172.530592 
L 459.510644 162.119265 
L 460.56318 161.274329 
L 461.615715 171.340138 
L 462.66825 168.580894 
L 463.720786 169.560297 
L 464.773321 174.160913 
L 466.878392 188.987179 
L 467.930927 181.423869 
L 468.983463 176.867619 
L 470.035998 184.808828 
L 471.088534 186.608089 
L 472.141069 178.139953 
L 473.193604 176.637732 
L 474.24614 181.726011 
L 475.298675 192.653095 
L 476.351211 200.632563 
L 477.403746 197.570599 
L 478.456281 197.434878 
L 479.508817 191.860624 
L 480.561352 179.692309 
L 481.613888 171.608391 
L 483.718958 162.254947 
L 484.771494 154.10446 
L 485.824029 150.1558 
L 486.876565 140.757893 
L 487.9291 151.810626 
L 488.981635 160.240365 
L 490.034171 160.685432 
L 491.086706 152.641946 
L 492.139242 159.643015 
L 493.191777 172.478995 
L 494.244312 166.018965 
L 495.296848 161.82046 
L 496.349383 160.502866 
L 497.401919 157.894634 
L 498.454454 152.534299 
L 499.506989 159.671553 
L 500.559525 156.348643 
L 501.61206 143.213308 
L 502.664596 141.857755 
L 503.717131 144.643913 
L 504.769667 153.410802 
L 505.822202 156.820116 
L 506.874737 158.824932 
L 507.927273 174.321389 
L 507.927273 174.321389 
" clip-path="url(#peebaa1f561)" style="fill: none; stroke: #008000; stroke-width: 1.5; stroke-linecap: square"/>
   </g>
   <g id="patch_8">
    <path d="M 288 230.4 
L 288 115.2 
" style="fill: none; stroke: #000000; stroke-width: 0.8; stroke-linejoin: miter; stroke-linecap: square"/>
   </g>
   <g id="patch_9">
    <path d="M 518.4 230.4 
L 518.4 115.2 
" style="fill: none; stroke: #000000; stroke-width: 0.8; stroke-linejoin: miter; stroke-linecap: square"/>
   </g>
   <g id="patch_10">
    <path d="M 288 230.4 
L 518.4 230.4 
" style="fill: none; stroke: #000000; stroke-width: 0.8; stroke-linejoin: miter; stroke-linecap: square"/>
   </g>
   <g id="patch_11">
    <path d="M 288 115.2 
L 518.4 115.2 
" style="fill: none; stroke: #000000; stroke-width: 0.8; stroke-linejoin: miter; stroke-linecap: square"/>
   </g>
  </g>
 </g>
 <defs>
  <clipPath id="p2195830861">
   <rect x="57.6" y="0" width="518.4" height="259.2"/>
  </clipPath>
  <clipPath id="peebaa1f561">
   <rect x="288" y="115.2" width="230.4" height="115.2"/>
  </clipPath>
 </defs>
</svg>
