<?xml version="1.0" encoding="utf-8" standalone="no"?>
<!DOCTYPE svg PUBLIC "-//W3C//DTD SVG 1.1//EN"
  "http://www.w3.org/Graphics/SVG/1.1/DTD/svg11.dtd">
<svg xmlns:xlink="http://www.w3.org/1999/xlink" width="460.8pt" height="345.6pt" viewBox="0 0 460.8 345.6" xmlns="http://www.w3.org/2000/svg" version="1.1">
 <metadata>
  <rdf:RDF xmlns:dc="http://purl.org/dc/elements/1.1/" xmlns:cc="http://creativecommons.org/ns#" xmlns:rdf="http://www.w3.org/1999/02/22-rdf-syntax-ns#">
   <cc:Work>
    <dc:type rdf:resource="http://purl.org/dc/dcmitype/StillImage"/>
    <dc:date>2023-11-24T20:25:44.284629</dc:date>
    <dc:format>image/svg+xml</dc:format>
    <dc:creator>
     <cc:Agent>
      <dc:title>Matplotlib v3.8.1, https://matplotlib.org/</dc:title>
     </cc:Agent>
    </dc:creator>
   </cc:Work>
  </rdf:RDF>
 </metadata>
 <defs>
  <style type="text/css">*{stroke-linejoin: round; stroke-linecap: butt}</style>
 </defs>
 <g id="figure_1">
  <g id="patch_1">
   <path d="M 0 345.6 
L 460.8 345.6 
L 460.8 0 
L 0 0 
z
" style="fill: #ffffff"/>
  </g>
  <g id="axes_1">
   <g id="patch_2">
    <path d="M 57.6 307.584 
L 414.72 307.584 
L 414.72 41.472 
L 57.6 41.472 
z
" style="fill: #ffffff"/>
   </g>
   <g id="matplotlib.axis_1">
    <g id="xtick_1">
     <g id="line2d_1">
      <defs>
       <path id="me01fb31edf" d="M 0 0 
L 0 3.5 
" style="stroke: #000000; stroke-width: 0.8"/>
      </defs>
      <g>
       <use xlink:href="#me01fb31edf" x="75.464157" y="307.584" style="stroke: #000000; stroke-width: 0.8"/>
      </g>
     </g>
     <g id="text_1">
      <!-- 2024-01 -->
      <g transform="translate(54.572751 322.182437) scale(0.1 -0.1)">
       <defs>
        <path id="DejaVuSans-32" d="M 1228 531 
L 3431 531 
L 3431 0 
L 469 0 
L 469 531 
Q 828 903 1448 1529 
Q 2069 2156 2228 2338 
Q 2531 2678 2651 2914 
Q 2772 3150 2772 3378 
Q 2772 3750 2511 3984 
Q 2250 4219 1831 4219 
Q 1534 4219 1204 4116 
Q 875 4013 500 3803 
L 500 4441 
Q 881 4594 1212 4672 
Q 1544 4750 1819 4750 
Q 2544 4750 2975 4387 
Q 3406 4025 3406 3419 
Q 3406 3131 3298 2873 
Q 3191 2616 2906 2266 
Q 2828 2175 2409 1742 
Q 1991 1309 1228 531 
z
" transform="scale(0.015625)"/>
        <path id="DejaVuSans-30" d="M 2034 4250 
Q 1547 4250 1301 3770 
Q 1056 3291 1056 2328 
Q 1056 1369 1301 889 
Q 1547 409 2034 409 
Q 2525 409 2770 889 
Q 3016 1369 3016 2328 
Q 3016 3291 2770 3770 
Q 2525 4250 2034 4250 
z
M 2034 4750 
Q 2819 4750 3233 4129 
Q 3647 3509 3647 2328 
Q 3647 1150 3233 529 
Q 2819 -91 2034 -91 
Q 1250 -91 836 529 
Q 422 1150 422 2328 
Q 422 3509 836 4129 
Q 1250 4750 2034 4750 
z
" transform="scale(0.015625)"/>
        <path id="DejaVuSans-34" d="M 2419 4116 
L 825 1625 
L 2419 1625 
L 2419 4116 
z
M 2253 4666 
L 3047 4666 
L 3047 1625 
L 3713 1625 
L 3713 1100 
L 3047 1100 
L 3047 0 
L 2419 0 
L 2419 1100 
L 313 1100 
L 313 1709 
L 2253 4666 
z
" transform="scale(0.015625)"/>
        <path id="DejaVuSans-2d" d="M 313 2009 
L 1997 2009 
L 1997 1497 
L 313 1497 
L 313 2009 
z
" transform="scale(0.015625)"/>
        <path id="DejaVuSans-31" d="M 794 531 
L 1825 531 
L 1825 4091 
L 703 3866 
L 703 4441 
L 1819 4666 
L 2450 4666 
L 2450 531 
L 3481 531 
L 3481 0 
L 794 0 
L 794 531 
z
" transform="scale(0.015625)"/>
       </defs>
       <use xlink:href="#DejaVuSans-32"/>
       <use xlink:href="#DejaVuSans-30" x="63.623047"/>
       <use xlink:href="#DejaVuSans-32" x="127.246094"/>
       <use xlink:href="#DejaVuSans-34" x="190.869141"/>
       <use xlink:href="#DejaVuSans-2d" x="254.492188"/>
       <use xlink:href="#DejaVuSans-30" x="290.576172"/>
       <use xlink:href="#DejaVuSans-31" x="354.199219"/>
      </g>
     </g>
    </g>
    <g id="xtick_2">
     <g id="line2d_2">
      <g>
       <use xlink:href="#me01fb31edf" x="126.038483" y="307.584" style="stroke: #000000; stroke-width: 0.8"/>
      </g>
     </g>
     <g id="text_2">
      <!-- 2024-02 -->
      <g transform="translate(105.147077 322.182437) scale(0.1 -0.1)">
       <use xlink:href="#DejaVuSans-32"/>
       <use xlink:href="#DejaVuSans-30" x="63.623047"/>
       <use xlink:href="#DejaVuSans-32" x="127.246094"/>
       <use xlink:href="#DejaVuSans-34" x="190.869141"/>
       <use xlink:href="#DejaVuSans-2d" x="254.492188"/>
       <use xlink:href="#DejaVuSans-30" x="290.576172"/>
       <use xlink:href="#DejaVuSans-32" x="354.199219"/>
      </g>
     </g>
    </g>
    <g id="xtick_3">
     <g id="line2d_3">
      <g>
       <use xlink:href="#me01fb31edf" x="173.34995" y="307.584" style="stroke: #000000; stroke-width: 0.8"/>
      </g>
     </g>
     <g id="text_3">
      <!-- 2024-03 -->
      <g transform="translate(152.458543 322.182437) scale(0.1 -0.1)">
       <defs>
        <path id="DejaVuSans-33" d="M 2597 2516 
Q 3050 2419 3304 2112 
Q 3559 1806 3559 1356 
Q 3559 666 3084 287 
Q 2609 -91 1734 -91 
Q 1441 -91 1130 -33 
Q 819 25 488 141 
L 488 750 
Q 750 597 1062 519 
Q 1375 441 1716 441 
Q 2309 441 2620 675 
Q 2931 909 2931 1356 
Q 2931 1769 2642 2001 
Q 2353 2234 1838 2234 
L 1294 2234 
L 1294 2753 
L 1863 2753 
Q 2328 2753 2575 2939 
Q 2822 3125 2822 3475 
Q 2822 3834 2567 4026 
Q 2313 4219 1838 4219 
Q 1578 4219 1281 4162 
Q 984 4106 628 3988 
L 628 4550 
Q 988 4650 1302 4700 
Q 1616 4750 1894 4750 
Q 2613 4750 3031 4423 
Q 3450 4097 3450 3541 
Q 3450 3153 3228 2886 
Q 3006 2619 2597 2516 
z
" transform="scale(0.015625)"/>
       </defs>
       <use xlink:href="#DejaVuSans-32"/>
       <use xlink:href="#DejaVuSans-30" x="63.623047"/>
       <use xlink:href="#DejaVuSans-32" x="127.246094"/>
       <use xlink:href="#DejaVuSans-34" x="190.869141"/>
       <use xlink:href="#DejaVuSans-2d" x="254.492188"/>
       <use xlink:href="#DejaVuSans-30" x="290.576172"/>
       <use xlink:href="#DejaVuSans-33" x="354.199219"/>
      </g>
     </g>
    </g>
    <g id="xtick_4">
     <g id="line2d_4">
      <g>
       <use xlink:href="#me01fb31edf" x="223.924276" y="307.584" style="stroke: #000000; stroke-width: 0.8"/>
      </g>
     </g>
     <g id="text_4">
      <!-- 2024-04 -->
      <g transform="translate(203.03287 322.182437) scale(0.1 -0.1)">
       <use xlink:href="#DejaVuSans-32"/>
       <use xlink:href="#DejaVuSans-30" x="63.623047"/>
       <use xlink:href="#DejaVuSans-32" x="127.246094"/>
       <use xlink:href="#DejaVuSans-34" x="190.869141"/>
       <use xlink:href="#DejaVuSans-2d" x="254.492188"/>
       <use xlink:href="#DejaVuSans-30" x="290.576172"/>
       <use xlink:href="#DejaVuSans-34" x="354.199219"/>
      </g>
     </g>
    </g>
    <g id="xtick_5">
     <g id="line2d_5">
      <g>
       <use xlink:href="#me01fb31edf" x="272.867172" y="307.584" style="stroke: #000000; stroke-width: 0.8"/>
      </g>
     </g>
     <g id="text_5">
      <!-- 2024-05 -->
      <g transform="translate(251.975766 322.182437) scale(0.1 -0.1)">
       <defs>
        <path id="DejaVuSans-35" d="M 691 4666 
L 3169 4666 
L 3169 4134 
L 1269 4134 
L 1269 2991 
Q 1406 3038 1543 3061 
Q 1681 3084 1819 3084 
Q 2600 3084 3056 2656 
Q 3513 2228 3513 1497 
Q 3513 744 3044 326 
Q 2575 -91 1722 -91 
Q 1428 -91 1123 -41 
Q 819 9 494 109 
L 494 744 
Q 775 591 1075 516 
Q 1375 441 1709 441 
Q 2250 441 2565 725 
Q 2881 1009 2881 1497 
Q 2881 1984 2565 2268 
Q 2250 2553 1709 2553 
Q 1456 2553 1204 2497 
Q 953 2441 691 2322 
L 691 4666 
z
" transform="scale(0.015625)"/>
       </defs>
       <use xlink:href="#DejaVuSans-32"/>
       <use xlink:href="#DejaVuSans-30" x="63.623047"/>
       <use xlink:href="#DejaVuSans-32" x="127.246094"/>
       <use xlink:href="#DejaVuSans-34" x="190.869141"/>
       <use xlink:href="#DejaVuSans-2d" x="254.492188"/>
       <use xlink:href="#DejaVuSans-30" x="290.576172"/>
       <use xlink:href="#DejaVuSans-35" x="354.199219"/>
      </g>
     </g>
    </g>
    <g id="xtick_6">
     <g id="line2d_6">
      <g>
       <use xlink:href="#me01fb31edf" x="323.441498" y="307.584" style="stroke: #000000; stroke-width: 0.8"/>
      </g>
     </g>
     <g id="text_6">
      <!-- 2024-06 -->
      <g transform="translate(302.550092 322.182437) scale(0.1 -0.1)">
       <defs>
        <path id="DejaVuSans-36" d="M 2113 2584 
Q 1688 2584 1439 2293 
Q 1191 2003 1191 1497 
Q 1191 994 1439 701 
Q 1688 409 2113 409 
Q 2538 409 2786 701 
Q 3034 994 3034 1497 
Q 3034 2003 2786 2293 
Q 2538 2584 2113 2584 
z
M 3366 4563 
L 3366 3988 
Q 3128 4100 2886 4159 
Q 2644 4219 2406 4219 
Q 1781 4219 1451 3797 
Q 1122 3375 1075 2522 
Q 1259 2794 1537 2939 
Q 1816 3084 2150 3084 
Q 2853 3084 3261 2657 
Q 3669 2231 3669 1497 
Q 3669 778 3244 343 
Q 2819 -91 2113 -91 
Q 1303 -91 875 529 
Q 447 1150 447 2328 
Q 447 3434 972 4092 
Q 1497 4750 2381 4750 
Q 2619 4750 2861 4703 
Q 3103 4656 3366 4563 
z
" transform="scale(0.015625)"/>
       </defs>
       <use xlink:href="#DejaVuSans-32"/>
       <use xlink:href="#DejaVuSans-30" x="63.623047"/>
       <use xlink:href="#DejaVuSans-32" x="127.246094"/>
       <use xlink:href="#DejaVuSans-34" x="190.869141"/>
       <use xlink:href="#DejaVuSans-2d" x="254.492188"/>
       <use xlink:href="#DejaVuSans-30" x="290.576172"/>
       <use xlink:href="#DejaVuSans-36" x="354.199219"/>
      </g>
     </g>
    </g>
    <g id="xtick_7">
     <g id="line2d_7">
      <g>
       <use xlink:href="#me01fb31edf" x="372.384395" y="307.584" style="stroke: #000000; stroke-width: 0.8"/>
      </g>
     </g>
     <g id="text_7">
      <!-- 2024-07 -->
      <g transform="translate(351.492988 322.182437) scale(0.1 -0.1)">
       <defs>
        <path id="DejaVuSans-37" d="M 525 4666 
L 3525 4666 
L 3525 4397 
L 1831 0 
L 1172 0 
L 2766 4134 
L 525 4134 
L 525 4666 
z
" transform="scale(0.015625)"/>
       </defs>
       <use xlink:href="#DejaVuSans-32"/>
       <use xlink:href="#DejaVuSans-30" x="63.623047"/>
       <use xlink:href="#DejaVuSans-32" x="127.246094"/>
       <use xlink:href="#DejaVuSans-34" x="190.869141"/>
       <use xlink:href="#DejaVuSans-2d" x="254.492188"/>
       <use xlink:href="#DejaVuSans-30" x="290.576172"/>
       <use xlink:href="#DejaVuSans-37" x="354.199219"/>
      </g>
     </g>
    </g>
   </g>
   <g id="matplotlib.axis_2">
    <g id="ytick_1">
     <g id="line2d_8">
      <defs>
       <path id="ma86876109f" d="M 0 0 
L -3.5 0 
" style="stroke: #000000; stroke-width: 0.8"/>
      </defs>
      <g>
       <use xlink:href="#ma86876109f" x="57.6" y="257.374949" style="stroke: #000000; stroke-width: 0.8"/>
      </g>
     </g>
     <g id="text_8">
      <!-- −10 -->
      <g transform="translate(29.495313 261.174168) scale(0.1 -0.1)">
       <defs>
        <path id="DejaVuSans-2212" d="M 678 2272 
L 4684 2272 
L 4684 1741 
L 678 1741 
L 678 2272 
z
" transform="scale(0.015625)"/>
       </defs>
       <use xlink:href="#DejaVuSans-2212"/>
       <use xlink:href="#DejaVuSans-31" x="83.789062"/>
       <use xlink:href="#DejaVuSans-30" x="147.412109"/>
      </g>
     </g>
    </g>
    <g id="ytick_2">
     <g id="line2d_9">
      <g>
       <use xlink:href="#ma86876109f" x="57.6" y="199.882516" style="stroke: #000000; stroke-width: 0.8"/>
      </g>
     </g>
     <g id="text_9">
      <!-- −5 -->
      <g transform="translate(35.857813 203.681734) scale(0.1 -0.1)">
       <use xlink:href="#DejaVuSans-2212"/>
       <use xlink:href="#DejaVuSans-35" x="83.789062"/>
      </g>
     </g>
    </g>
    <g id="ytick_3">
     <g id="line2d_10">
      <g>
       <use xlink:href="#ma86876109f" x="57.6" y="142.390082" style="stroke: #000000; stroke-width: 0.8"/>
      </g>
     </g>
     <g id="text_10">
      <!-- 0 -->
      <g transform="translate(44.2375 146.189301) scale(0.1 -0.1)">
       <use xlink:href="#DejaVuSans-30"/>
      </g>
     </g>
    </g>
    <g id="ytick_4">
     <g id="line2d_11">
      <g>
       <use xlink:href="#ma86876109f" x="57.6" y="84.897649" style="stroke: #000000; stroke-width: 0.8"/>
      </g>
     </g>
     <g id="text_11">
      <!-- 5 -->
      <g transform="translate(44.2375 88.696868) scale(0.1 -0.1)">
       <use xlink:href="#DejaVuSans-35"/>
      </g>
     </g>
    </g>
   </g>
   <g id="line2d_12">
    <path d="M 73.832727 133.277057 
L 75.464157 130.564533 
L 77.095587 144.742051 
L 78.727017 145.404827 
L 80.358447 150.960163 
L 81.989877 138.218564 
L 83.621307 141.179203 
L 85.252736 141.407159 
L 86.884166 149.480167 
L 88.515596 138.668126 
L 90.147026 124.369489 
L 91.778456 116.76674 
L 93.409886 126.710572 
L 95.041316 114.023854 
L 96.672746 114.484605 
L 98.304175 122.373877 
L 99.935605 120.212669 
L 101.567035 114.271841 
L 103.198465 113.747504 
L 104.829895 126.508365 
L 106.461325 120.547877 
L 108.092755 106.722543 
L 109.724185 95.587204 
L 111.355614 109.217081 
L 112.987044 121.388864 
L 114.618474 146.97901 
L 116.249904 136.573899 
L 117.881334 154.006189 
L 119.512764 157.135638 
L 121.144194 147.8694 
L 122.775624 139.396485 
L 124.407053 145.960929 
L 126.038483 131.310854 
L 127.669913 123.426303 
L 129.301343 138.178148 
L 130.932773 169.53698 
L 132.564203 169.303411 
L 134.195633 177.155472 
L 135.827063 162.579164 
L 137.458492 163.098455 
L 139.089922 151.570026 
L 140.721352 137.314109 
L 142.352782 131.596957 
L 143.984212 129.227161 
L 145.615642 115.844507 
L 147.247072 130.048207 
L 148.878502 133.469618 
L 150.509931 129.279423 
L 152.141361 113.961311 
L 153.772791 113.225797 
L 155.404221 117.274527 
L 157.035651 90.883811 
L 158.667081 103.11477 
L 160.298511 105.337634 
L 161.929941 130.677154 
L 163.56137 112.673774 
L 165.1928 123.108892 
L 166.82423 118.240199 
L 168.45566 109.699 
L 170.08709 123.865791 
L 171.71852 145.362834 
L 173.34995 124.992095 
L 174.98138 126.854779 
L 176.61281 129.405331 
L 178.244239 104.66913 
L 179.875669 104.884291 
L 181.507099 98.551764 
L 183.138529 103.083146 
L 184.769959 111.562475 
L 186.401389 125.051972 
L 188.032819 108.923048 
L 189.664249 130.919002 
L 191.295678 112.91974 
L 192.927108 114.217939 
L 194.558538 130.788823 
L 196.189968 129.074902 
L 197.821398 154.912605 
L 199.452828 157.623138 
L 201.084258 144.607198 
L 202.715688 141.693072 
L 204.347117 139.578827 
L 205.978547 135.838064 
L 207.609977 140.237611 
L 209.241407 127.595985 
L 210.872837 129.312937 
L 212.504267 145.039597 
L 214.135697 144.37525 
L 215.767127 138.24938 
L 217.398556 137.179259 
L 219.029986 125.719777 
L 220.661416 127.355925 
L 222.292846 124.796061 
L 223.924276 125.926841 
L 225.555706 117.546892 
L 227.187136 106.206876 
L 228.818566 112.706012 
L 230.449995 110.371334 
L 232.081425 108.579871 
L 233.712855 117.820182 
L 235.344285 109.001598 
L 236.975715 102.791082 
L 238.607145 141.074852 
L 240.238575 126.155378 
L 241.870005 118.383684 
L 243.501434 122.048708 
L 245.132864 125.401606 
L 246.764294 104.230189 
L 248.395724 106.536033 
L 250.027154 102.361138 
L 251.658584 92.323364 
L 253.290014 76.502078 
L 254.921444 88.497981 
L 256.552873 82.487739 
L 258.184303 90.221375 
L 259.815733 94.403436 
L 261.447163 98.183689 
L 263.078593 95.198449 
L 264.710023 99.988878 
L 266.341453 110.648772 
L 267.972883 118.28351 
L 269.604312 133.292881 
L 271.235742 118.623733 
L 272.867172 134.066855 
L 274.498602 138.657455 
L 276.130032 120.625638 
L 279.392892 92.610561 
L 281.024322 76.760428 
L 282.655751 90.555744 
L 284.287181 71.620905 
L 285.918611 56.94337 
L 287.550041 77.283664 
L 289.181471 83.241023 
L 290.812901 105.787259 
L 292.444331 110.397503 
L 294.075761 97.529725 
L 295.70719 87.833161 
L 297.33862 99.248824 
L 298.97005 98.482792 
L 300.60148 82.482454 
L 302.23291 73.20039 
L 303.86434 87.714643 
L 305.49577 84.773908 
L 307.1272 68.549113 
L 308.75863 72.002288 
L 310.390059 86.629457 
L 312.021489 85.991704 
L 313.652919 86.388552 
L 315.284349 96.413039 
L 316.915779 92.577116 
L 318.547209 115.088951 
L 320.178639 129.019737 
L 321.810069 126.19858 
L 323.441498 131.400821 
L 325.072928 138.720993 
L 326.704358 138.528915 
L 328.335788 149.468978 
L 329.967218 144.717188 
L 331.598648 152.396775 
L 333.230078 136.989283 
L 334.861508 146.077186 
L 336.492937 143.349711 
L 338.124367 126.886769 
L 339.755797 117.538786 
L 341.387227 129.634759 
L 343.018657 123.427365 
L 344.650087 115.042537 
L 346.281517 122.60708 
L 347.912947 117.818515 
L 349.544376 102.234453 
L 351.175806 92.161558 
L 352.807236 90.469795 
L 354.438666 73.577639 
L 356.070096 62.335485 
L 357.701526 69.74379 
L 359.332956 61.131736 
L 360.964386 53.730613 
L 362.595815 73.460333 
L 364.227245 67.216236 
L 365.858675 68.778635 
L 367.490105 74.357454 
L 369.121535 68.674253 
L 370.752965 59.870367 
L 372.384395 53.568 
L 374.015825 66.83038 
L 375.647254 83.984733 
L 377.278684 88.287958 
L 378.910114 97.727087 
L 380.541544 103.211889 
L 382.172974 121.229012 
L 383.804404 120.196239 
L 385.435834 125.052734 
L 387.067264 110.466662 
L 388.698693 100.98571 
L 390.330123 115.155689 
L 391.961553 116.035509 
L 393.592983 117.483923 
L 395.224413 127.45713 
L 396.855843 114.849914 
L 398.487273 98.336198 
L 398.487273 98.336198 
" clip-path="url(#p64e0f991e2)" style="fill: none; stroke: #1f77b4; stroke-width: 1.5; stroke-linecap: square"/>
   </g>
   <g id="line2d_13">
    <path d="M 73.832727 145.085131 
L 75.464157 152.881319 
L 77.095587 131.539223 
L 78.727017 121.546087 
L 81.989877 116.662807 
L 83.621307 126.269086 
L 85.252736 129.636978 
L 86.884166 109.94001 
L 88.515596 117.943613 
L 90.147026 116.030212 
L 91.778456 129.728666 
L 93.409886 113.725499 
L 95.041316 132.194364 
L 96.672746 135.253409 
L 98.304175 140.841976 
L 99.935605 154.297905 
L 103.198465 210.909485 
L 104.829895 209.587612 
L 106.461325 211.40526 
L 108.092755 219.618336 
L 109.724185 220.914426 
L 111.355614 222.844793 
L 112.987044 207.196934 
L 114.618474 217.621674 
L 116.249904 218.773042 
L 117.881334 225.854422 
L 119.512764 237.597366 
L 121.144194 229.995426 
L 122.775624 248.780054 
L 124.407053 235.716942 
L 126.038483 209.250231 
L 127.669913 198.749929 
L 129.301343 216.817404 
L 130.932773 223.932678 
L 132.564203 223.364986 
L 134.195633 215.260416 
L 135.827063 237.404645 
L 137.458492 236.50377 
L 139.089922 270.558848 
L 140.721352 271.486034 
L 142.352782 249.265313 
L 143.984212 236.725871 
L 145.615642 208.535217 
L 148.878502 174.888736 
L 150.509931 192.099361 
L 152.141361 188.52111 
L 153.772791 169.394304 
L 155.404221 173.791303 
L 157.035651 159.967347 
L 158.667081 169.352314 
L 160.298511 164.639248 
L 161.929941 170.268563 
L 163.56137 188.185942 
L 165.1928 195.51578 
L 166.82423 197.8275 
L 168.45566 172.425435 
L 170.08709 179.37902 
L 171.71852 166.26108 
L 173.34995 157.145567 
L 174.98138 173.08499 
L 176.61281 164.28822 
L 178.244239 161.892172 
L 179.875669 160.333956 
L 181.507099 160.073377 
L 183.138529 161.882321 
L 184.769959 177.125497 
L 186.401389 190.695317 
L 188.032819 181.798308 
L 189.664249 176.16979 
L 191.295678 172.989114 
L 192.927108 180.454718 
L 194.558538 191.78763 
L 196.189968 192.00683 
L 197.821398 196.882687 
L 199.452828 192.416377 
L 201.084258 190.957211 
L 202.715688 203.618616 
L 204.347117 212.626721 
L 205.978547 224.418291 
L 207.609977 217.821521 
L 209.241407 224.640994 
L 210.872837 253.731928 
L 212.504267 259.796327 
L 214.135697 271.046436 
L 215.767127 256.534433 
L 217.398556 263.064993 
L 219.029986 285.358961 
L 220.661416 287.219036 
L 222.292846 295.488 
L 223.924276 279.574785 
L 225.555706 274.908754 
L 227.187136 264.092576 
L 230.449995 228.675203 
L 232.081425 201.505816 
L 233.712855 209.813944 
L 235.344285 212.317763 
L 236.975715 212.140331 
L 238.607145 235.267239 
L 240.238575 240.644995 
L 241.870005 231.788511 
L 243.501434 231.207684 
L 246.764294 205.146392 
L 248.395724 199.964053 
L 250.027154 190.459264 
L 251.658584 213.424479 
L 253.290014 197.95187 
L 254.921444 206.929733 
L 256.552873 213.443397 
L 258.184303 212.396244 
L 259.815733 225.872531 
L 261.447163 214.389342 
L 263.078593 227.743229 
L 264.710023 238.204228 
L 266.341453 223.740008 
L 267.972883 219.896832 
L 269.604312 227.646403 
L 271.235742 225.193812 
L 272.867172 210.133826 
L 274.498602 215.323645 
L 276.130032 211.807671 
L 277.761462 216.587268 
L 279.392892 202.114395 
L 281.024322 200.075937 
L 282.655751 192.658493 
L 284.287181 185.80773 
L 285.918611 186.639214 
L 287.550041 189.342745 
L 289.181471 201.494959 
L 290.812901 189.193175 
L 292.444331 191.192608 
L 294.075761 191.657206 
L 295.70719 196.135406 
L 297.33862 204.440114 
L 298.97005 214.041166 
L 300.60148 215.456781 
L 302.23291 237.424809 
L 303.86434 246.849731 
L 305.49577 249.284738 
L 307.1272 246.534312 
L 308.75863 243.348235 
L 310.390059 237.178017 
L 312.021489 221.33368 
L 313.652919 242.006789 
L 315.284349 236.067997 
L 316.915779 241.466209 
L 318.547209 248.662843 
L 320.178639 228.607794 
L 321.810069 236.52614 
L 323.441498 224.951705 
L 325.072928 217.320442 
L 328.335788 183.957049 
L 329.967218 183.692657 
L 331.598648 194.198893 
L 333.230078 183.671426 
L 334.861508 189.06025 
L 336.492937 204.706137 
L 338.124367 195.229957 
L 339.755797 192.041635 
L 341.387227 186.850936 
L 343.018657 183.902861 
L 344.650087 181.867646 
L 346.281517 173.736572 
L 347.912947 192.258931 
L 349.544376 190.275061 
L 351.175806 204.681945 
L 352.807236 202.912632 
L 354.438666 205.696279 
L 356.070096 207.88752 
L 357.701526 222.840412 
L 359.332956 216.312316 
L 360.964386 229.403942 
L 362.595815 219.268369 
L 364.227245 228.054211 
L 365.858675 236.003316 
L 367.490105 232.914 
L 369.121535 234.696273 
L 370.752965 224.779553 
L 372.384395 239.388409 
L 375.647254 249.421367 
L 377.278684 231.409208 
L 378.910114 229.089776 
L 380.541544 248.718191 
L 382.172974 238.08769 
L 383.804404 251.78599 
L 385.435834 259.488612 
L 387.067264 258.838718 
L 388.698693 256.023443 
L 390.330123 266.652409 
L 391.961553 278.959444 
L 393.592983 278.533677 
L 395.224413 272.687294 
L 396.855843 275.960697 
L 398.487273 291.270158 
L 398.487273 291.270158 
" clip-path="url(#p64e0f991e2)" style="fill: none; stroke: #ff7f0e; stroke-width: 1.5; stroke-linecap: square"/>
   </g>
   <g id="line2d_14">
    <path d="M 73.832727 153.721769 
L 75.464157 126.064757 
L 77.095587 137.694738 
L 78.727017 143.837558 
L 80.358447 132.49067 
L 81.989877 128.737947 
L 83.621307 135.195225 
L 85.252736 131.769467 
L 86.884166 145.011183 
L 88.515596 119.517826 
L 90.147026 124.018619 
L 91.778456 116.781813 
L 93.409886 113.510024 
L 95.041316 104.981173 
L 96.672746 100.064872 
L 98.304175 114.687633 
L 99.935605 104.352366 
L 101.567035 109.328564 
L 103.198465 103.387272 
L 104.829895 123.698223 
L 106.461325 146.351636 
L 108.092755 141.359238 
L 109.724185 110.451635 
L 111.355614 134.531589 
L 112.987044 121.415675 
L 114.618474 116.810005 
L 116.249904 115.310824 
L 117.881334 106.177777 
L 119.512764 80.846588 
L 121.144194 86.51174 
L 122.775624 73.640084 
L 124.407053 76.520803 
L 126.038483 77.734463 
L 127.669913 108.649968 
L 129.301343 96.515231 
L 130.932773 105.390785 
L 132.564203 87.743761 
L 134.195633 85.977123 
L 135.827063 97.18647 
L 137.458492 105.784325 
L 139.089922 90.805595 
L 140.721352 105.521382 
L 142.352782 112.357694 
L 143.984212 114.457673 
L 145.615642 118.585787 
L 147.247072 111.668895 
L 148.878502 123.752521 
L 150.509931 115.605475 
L 152.141361 112.075425 
L 155.404221 144.108277 
L 157.035651 156.67716 
L 158.667081 178.60422 
L 161.929941 154.235191 
L 163.56137 183.168356 
L 165.1928 180.81831 
L 166.82423 178.876793 
L 168.45566 168.947729 
L 170.08709 162.175174 
L 171.71852 171.78592 
L 173.34995 172.719915 
L 174.98138 172.334241 
L 176.61281 163.686468 
L 178.244239 159.415624 
L 179.875669 150.608224 
L 181.507099 134.209362 
L 183.138529 142.987615 
L 184.769959 149.873203 
L 186.401389 147.661007 
L 188.032819 163.088767 
L 189.664249 173.973856 
L 191.295678 172.70683 
L 192.927108 155.018822 
L 194.558538 169.970239 
L 196.189968 154.6314 
L 197.821398 148.070836 
L 199.452828 153.228088 
L 201.084258 162.072723 
L 202.715688 156.283673 
L 204.347117 159.103064 
L 205.978547 149.181566 
L 207.609977 116.61584 
L 209.241407 109.191024 
L 210.872837 108.908808 
L 212.504267 100.136265 
L 214.135697 116.390999 
L 215.767127 107.537399 
L 217.398556 112.709659 
L 219.029986 122.642688 
L 220.661416 121.653449 
L 222.292846 133.761604 
L 223.924276 130.870091 
L 225.555706 135.066143 
L 227.187136 130.934963 
L 228.818566 102.832579 
L 230.449995 103.068084 
L 232.081425 110.494679 
L 233.712855 124.015008 
L 235.344285 122.263587 
L 236.975715 124.231695 
L 238.607145 119.49689 
L 240.238575 141.485925 
L 241.870005 154.324145 
L 243.501434 159.87807 
L 245.132864 143.259681 
L 246.764294 148.419561 
L 248.395724 148.313095 
L 250.027154 165.801418 
L 251.658584 154.753715 
L 253.290014 171.140693 
L 254.921444 175.846628 
L 256.552873 158.961179 
L 258.184303 155.317495 
L 259.815733 156.960724 
L 261.447163 165.459981 
L 263.078593 146.24363 
L 264.710023 143.794838 
L 266.341453 125.366119 
L 267.972883 142.459997 
L 269.604312 164.779052 
L 271.235742 147.014397 
L 272.867172 136.723506 
L 274.498602 139.60039 
L 276.130032 134.983485 
L 277.761462 168.625735 
L 279.392892 169.626058 
L 281.024322 157.240493 
L 282.655751 152.329095 
L 284.287181 149.185792 
L 285.918611 152.457206 
L 287.550041 157.370221 
L 289.181471 173.726487 
L 290.812901 164.061986 
L 292.444331 174.93109 
L 294.075761 174.102936 
L 295.70719 174.167726 
L 297.33862 183.038995 
L 298.97005 147.969658 
L 300.60148 140.872764 
L 302.23291 139.634273 
L 303.86434 146.316807 
L 305.49577 151.430654 
L 307.1272 137.10561 
L 308.75863 133.72812 
L 310.390059 123.496996 
L 312.021489 143.550657 
L 313.652919 131.377638 
L 315.284349 153.054035 
L 316.915779 150.881162 
L 318.547209 150.767664 
L 320.178639 168.487419 
L 321.810069 183.970576 
L 323.441498 201.071596 
L 325.072928 193.262454 
L 326.704358 194.39971 
L 328.335788 178.377641 
L 329.967218 167.69871 
L 331.598648 165.589896 
L 333.230078 169.326076 
L 334.861508 178.994206 
L 336.492937 182.892777 
L 338.124367 179.681792 
L 339.755797 178.556821 
L 341.387227 192.528497 
L 343.018657 172.029105 
L 344.650087 168.718147 
L 346.281517 183.964897 
L 347.912947 185.500847 
L 349.544376 189.508214 
L 351.175806 197.932427 
L 352.807236 183.269344 
L 354.438666 205.387925 
L 356.070096 225.888019 
L 357.701526 215.273261 
L 359.332956 227.07637 
L 360.964386 247.109239 
L 362.595815 234.99659 
L 364.227245 238.113559 
L 365.858675 249.763301 
L 367.490105 248.793871 
L 369.121535 248.829854 
L 370.752965 251.460701 
L 372.384395 238.308669 
L 374.015825 233.161957 
L 375.647254 226.716268 
L 377.278684 239.372507 
L 378.910114 247.134494 
L 380.541544 240.551785 
L 382.172974 251.976871 
L 383.804404 250.360839 
L 385.435834 236.016531 
L 387.067264 228.503643 
L 390.330123 249.828298 
L 391.961553 252.304104 
L 393.592983 254.343901 
L 395.224413 259.644158 
L 396.855843 261.602899 
L 398.487273 262.300934 
L 398.487273 262.300934 
" clip-path="url(#p64e0f991e2)" style="fill: none; stroke: #2ca02c; stroke-width: 1.5; stroke-linecap: square"/>
   </g>
   <g id="patch_3">
    <path d="M 57.6 307.584 
L 57.6 41.472 
" style="fill: none; stroke: #000000; stroke-width: 0.8; stroke-linejoin: miter; stroke-linecap: square"/>
   </g>
   <g id="patch_4">
    <path d="M 414.72 307.584 
L 414.72 41.472 
" style="fill: none; stroke: #000000; stroke-width: 0.8; stroke-linejoin: miter; stroke-linecap: square"/>
   </g>
   <g id="patch_5">
    <path d="M 57.6 307.584 
L 414.72 307.584 
" style="fill: none; stroke: #000000; stroke-width: 0.8; stroke-linejoin: miter; stroke-linecap: square"/>
   </g>
   <g id="patch_6">
    <path d="M 57.6 41.472 
L 414.72 41.472 
" style="fill: none; stroke: #000000; stroke-width: 0.8; stroke-linejoin: miter; stroke-linecap: square"/>
   </g>
  </g>
 </g>
 <defs>
  <clipPath id="p64e0f991e2">
   <rect x="57.6" y="41.472" width="357.12" height="266.112"/>
  </clipPath>
 </defs>
</svg>
