<?xml version="1.0" encoding="utf-8" standalone="no"?>
<!DOCTYPE svg PUBLIC "-//W3C//DTD SVG 1.1//EN"
  "http://www.w3.org/Graphics/SVG/1.1/DTD/svg11.dtd">
<svg xmlns:xlink="http://www.w3.org/1999/xlink" width="460.8pt" height="345.6pt" viewBox="0 0 460.8 345.6" xmlns="http://www.w3.org/2000/svg" version="1.1">
 <metadata>
  <rdf:RDF xmlns:dc="http://purl.org/dc/elements/1.1/" xmlns:cc="http://creativecommons.org/ns#" xmlns:rdf="http://www.w3.org/1999/02/22-rdf-syntax-ns#">
   <cc:Work>
    <dc:type rdf:resource="http://purl.org/dc/dcmitype/StillImage"/>
    <dc:date>2023-11-23T07:42:02.569363</dc:date>
    <dc:format>image/svg+xml</dc:format>
    <dc:creator>
     <cc:Agent>
      <dc:title>Matplotlib v3.8.1, https://matplotlib.org/</dc:title>
     </cc:Agent>
    </dc:creator>
   </cc:Work>
  </rdf:RDF>
 </metadata>
 <defs>
  <style type="text/css">*{stroke-linejoin: round; stroke-linecap: butt}</style>
 </defs>
 <g id="figure_1">
  <g id="patch_1">
   <path d="M 0 345.6 
L 460.8 345.6 
L 460.8 0 
L 0 0 
z
" style="fill: #ffffff"/>
  </g>
  <g id="axes_1">
   <g id="patch_2">
    <path d="M 57.6 307.584 
L 414.72 307.584 
L 414.72 41.472 
L 57.6 41.472 
z
" style="fill: #ffffff"/>
   </g>
   <g id="matplotlib.axis_1">
    <g id="xtick_1">
     <g id="line2d_1">
      <defs>
       <path id="m4b47b9252c" d="M 0 0 
L 0 3.5 
" style="stroke: #000000; stroke-width: 0.8"/>
      </defs>
      <g>
       <use xlink:href="#m4b47b9252c" x="75.464157" y="307.584" style="stroke: #000000; stroke-width: 0.8"/>
      </g>
     </g>
     <g id="text_1">
      <!-- 2024-01 -->
      <g transform="translate(54.572751 322.182437) scale(0.1 -0.1)">
       <defs>
        <path id="DejaVuSans-32" d="M 1228 531 
L 3431 531 
L 3431 0 
L 469 0 
L 469 531 
Q 828 903 1448 1529 
Q 2069 2156 2228 2338 
Q 2531 2678 2651 2914 
Q 2772 3150 2772 3378 
Q 2772 3750 2511 3984 
Q 2250 4219 1831 4219 
Q 1534 4219 1204 4116 
Q 875 4013 500 3803 
L 500 4441 
Q 881 4594 1212 4672 
Q 1544 4750 1819 4750 
Q 2544 4750 2975 4387 
Q 3406 4025 3406 3419 
Q 3406 3131 3298 2873 
Q 3191 2616 2906 2266 
Q 2828 2175 2409 1742 
Q 1991 1309 1228 531 
z
" transform="scale(0.015625)"/>
        <path id="DejaVuSans-30" d="M 2034 4250 
Q 1547 4250 1301 3770 
Q 1056 3291 1056 2328 
Q 1056 1369 1301 889 
Q 1547 409 2034 409 
Q 2525 409 2770 889 
Q 3016 1369 3016 2328 
Q 3016 3291 2770 3770 
Q 2525 4250 2034 4250 
z
M 2034 4750 
Q 2819 4750 3233 4129 
Q 3647 3509 3647 2328 
Q 3647 1150 3233 529 
Q 2819 -91 2034 -91 
Q 1250 -91 836 529 
Q 422 1150 422 2328 
Q 422 3509 836 4129 
Q 1250 4750 2034 4750 
z
" transform="scale(0.015625)"/>
        <path id="DejaVuSans-34" d="M 2419 4116 
L 825 1625 
L 2419 1625 
L 2419 4116 
z
M 2253 4666 
L 3047 4666 
L 3047 1625 
L 3713 1625 
L 3713 1100 
L 3047 1100 
L 3047 0 
L 2419 0 
L 2419 1100 
L 313 1100 
L 313 1709 
L 2253 4666 
z
" transform="scale(0.015625)"/>
        <path id="DejaVuSans-2d" d="M 313 2009 
L 1997 2009 
L 1997 1497 
L 313 1497 
L 313 2009 
z
" transform="scale(0.015625)"/>
        <path id="DejaVuSans-31" d="M 794 531 
L 1825 531 
L 1825 4091 
L 703 3866 
L 703 4441 
L 1819 4666 
L 2450 4666 
L 2450 531 
L 3481 531 
L 3481 0 
L 794 0 
L 794 531 
z
" transform="scale(0.015625)"/>
       </defs>
       <use xlink:href="#DejaVuSans-32"/>
       <use xlink:href="#DejaVuSans-30" x="63.623047"/>
       <use xlink:href="#DejaVuSans-32" x="127.246094"/>
       <use xlink:href="#DejaVuSans-34" x="190.869141"/>
       <use xlink:href="#DejaVuSans-2d" x="254.492188"/>
       <use xlink:href="#DejaVuSans-30" x="290.576172"/>
       <use xlink:href="#DejaVuSans-31" x="354.199219"/>
      </g>
     </g>
    </g>
    <g id="xtick_2">
     <g id="line2d_2">
      <g>
       <use xlink:href="#m4b47b9252c" x="126.038483" y="307.584" style="stroke: #000000; stroke-width: 0.8"/>
      </g>
     </g>
     <g id="text_2">
      <!-- 2024-02 -->
      <g transform="translate(105.147077 322.182437) scale(0.1 -0.1)">
       <use xlink:href="#DejaVuSans-32"/>
       <use xlink:href="#DejaVuSans-30" x="63.623047"/>
       <use xlink:href="#DejaVuSans-32" x="127.246094"/>
       <use xlink:href="#DejaVuSans-34" x="190.869141"/>
       <use xlink:href="#DejaVuSans-2d" x="254.492188"/>
       <use xlink:href="#DejaVuSans-30" x="290.576172"/>
       <use xlink:href="#DejaVuSans-32" x="354.199219"/>
      </g>
     </g>
    </g>
    <g id="xtick_3">
     <g id="line2d_3">
      <g>
       <use xlink:href="#m4b47b9252c" x="173.34995" y="307.584" style="stroke: #000000; stroke-width: 0.8"/>
      </g>
     </g>
     <g id="text_3">
      <!-- 2024-03 -->
      <g transform="translate(152.458543 322.182437) scale(0.1 -0.1)">
       <defs>
        <path id="DejaVuSans-33" d="M 2597 2516 
Q 3050 2419 3304 2112 
Q 3559 1806 3559 1356 
Q 3559 666 3084 287 
Q 2609 -91 1734 -91 
Q 1441 -91 1130 -33 
Q 819 25 488 141 
L 488 750 
Q 750 597 1062 519 
Q 1375 441 1716 441 
Q 2309 441 2620 675 
Q 2931 909 2931 1356 
Q 2931 1769 2642 2001 
Q 2353 2234 1838 2234 
L 1294 2234 
L 1294 2753 
L 1863 2753 
Q 2328 2753 2575 2939 
Q 2822 3125 2822 3475 
Q 2822 3834 2567 4026 
Q 2313 4219 1838 4219 
Q 1578 4219 1281 4162 
Q 984 4106 628 3988 
L 628 4550 
Q 988 4650 1302 4700 
Q 1616 4750 1894 4750 
Q 2613 4750 3031 4423 
Q 3450 4097 3450 3541 
Q 3450 3153 3228 2886 
Q 3006 2619 2597 2516 
z
" transform="scale(0.015625)"/>
       </defs>
       <use xlink:href="#DejaVuSans-32"/>
       <use xlink:href="#DejaVuSans-30" x="63.623047"/>
       <use xlink:href="#DejaVuSans-32" x="127.246094"/>
       <use xlink:href="#DejaVuSans-34" x="190.869141"/>
       <use xlink:href="#DejaVuSans-2d" x="254.492188"/>
       <use xlink:href="#DejaVuSans-30" x="290.576172"/>
       <use xlink:href="#DejaVuSans-33" x="354.199219"/>
      </g>
     </g>
    </g>
    <g id="xtick_4">
     <g id="line2d_4">
      <g>
       <use xlink:href="#m4b47b9252c" x="223.924276" y="307.584" style="stroke: #000000; stroke-width: 0.8"/>
      </g>
     </g>
     <g id="text_4">
      <!-- 2024-04 -->
      <g transform="translate(203.03287 322.182437) scale(0.1 -0.1)">
       <use xlink:href="#DejaVuSans-32"/>
       <use xlink:href="#DejaVuSans-30" x="63.623047"/>
       <use xlink:href="#DejaVuSans-32" x="127.246094"/>
       <use xlink:href="#DejaVuSans-34" x="190.869141"/>
       <use xlink:href="#DejaVuSans-2d" x="254.492188"/>
       <use xlink:href="#DejaVuSans-30" x="290.576172"/>
       <use xlink:href="#DejaVuSans-34" x="354.199219"/>
      </g>
     </g>
    </g>
    <g id="xtick_5">
     <g id="line2d_5">
      <g>
       <use xlink:href="#m4b47b9252c" x="272.867172" y="307.584" style="stroke: #000000; stroke-width: 0.8"/>
      </g>
     </g>
     <g id="text_5">
      <!-- 2024-05 -->
      <g transform="translate(251.975766 322.182437) scale(0.1 -0.1)">
       <defs>
        <path id="DejaVuSans-35" d="M 691 4666 
L 3169 4666 
L 3169 4134 
L 1269 4134 
L 1269 2991 
Q 1406 3038 1543 3061 
Q 1681 3084 1819 3084 
Q 2600 3084 3056 2656 
Q 3513 2228 3513 1497 
Q 3513 744 3044 326 
Q 2575 -91 1722 -91 
Q 1428 -91 1123 -41 
Q 819 9 494 109 
L 494 744 
Q 775 591 1075 516 
Q 1375 441 1709 441 
Q 2250 441 2565 725 
Q 2881 1009 2881 1497 
Q 2881 1984 2565 2268 
Q 2250 2553 1709 2553 
Q 1456 2553 1204 2497 
Q 953 2441 691 2322 
L 691 4666 
z
" transform="scale(0.015625)"/>
       </defs>
       <use xlink:href="#DejaVuSans-32"/>
       <use xlink:href="#DejaVuSans-30" x="63.623047"/>
       <use xlink:href="#DejaVuSans-32" x="127.246094"/>
       <use xlink:href="#DejaVuSans-34" x="190.869141"/>
       <use xlink:href="#DejaVuSans-2d" x="254.492188"/>
       <use xlink:href="#DejaVuSans-30" x="290.576172"/>
       <use xlink:href="#DejaVuSans-35" x="354.199219"/>
      </g>
     </g>
    </g>
    <g id="xtick_6">
     <g id="line2d_6">
      <g>
       <use xlink:href="#m4b47b9252c" x="323.441498" y="307.584" style="stroke: #000000; stroke-width: 0.8"/>
      </g>
     </g>
     <g id="text_6">
      <!-- 2024-06 -->
      <g transform="translate(302.550092 322.182437) scale(0.1 -0.1)">
       <defs>
        <path id="DejaVuSans-36" d="M 2113 2584 
Q 1688 2584 1439 2293 
Q 1191 2003 1191 1497 
Q 1191 994 1439 701 
Q 1688 409 2113 409 
Q 2538 409 2786 701 
Q 3034 994 3034 1497 
Q 3034 2003 2786 2293 
Q 2538 2584 2113 2584 
z
M 3366 4563 
L 3366 3988 
Q 3128 4100 2886 4159 
Q 2644 4219 2406 4219 
Q 1781 4219 1451 3797 
Q 1122 3375 1075 2522 
Q 1259 2794 1537 2939 
Q 1816 3084 2150 3084 
Q 2853 3084 3261 2657 
Q 3669 2231 3669 1497 
Q 3669 778 3244 343 
Q 2819 -91 2113 -91 
Q 1303 -91 875 529 
Q 447 1150 447 2328 
Q 447 3434 972 4092 
Q 1497 4750 2381 4750 
Q 2619 4750 2861 4703 
Q 3103 4656 3366 4563 
z
" transform="scale(0.015625)"/>
       </defs>
       <use xlink:href="#DejaVuSans-32"/>
       <use xlink:href="#DejaVuSans-30" x="63.623047"/>
       <use xlink:href="#DejaVuSans-32" x="127.246094"/>
       <use xlink:href="#DejaVuSans-34" x="190.869141"/>
       <use xlink:href="#DejaVuSans-2d" x="254.492188"/>
       <use xlink:href="#DejaVuSans-30" x="290.576172"/>
       <use xlink:href="#DejaVuSans-36" x="354.199219"/>
      </g>
     </g>
    </g>
    <g id="xtick_7">
     <g id="line2d_7">
      <g>
       <use xlink:href="#m4b47b9252c" x="372.384395" y="307.584" style="stroke: #000000; stroke-width: 0.8"/>
      </g>
     </g>
     <g id="text_7">
      <!-- 2024-07 -->
      <g transform="translate(351.492988 322.182437) scale(0.1 -0.1)">
       <defs>
        <path id="DejaVuSans-37" d="M 525 4666 
L 3525 4666 
L 3525 4397 
L 1831 0 
L 1172 0 
L 2766 4134 
L 525 4134 
L 525 4666 
z
" transform="scale(0.015625)"/>
       </defs>
       <use xlink:href="#DejaVuSans-32"/>
       <use xlink:href="#DejaVuSans-30" x="63.623047"/>
       <use xlink:href="#DejaVuSans-32" x="127.246094"/>
       <use xlink:href="#DejaVuSans-34" x="190.869141"/>
       <use xlink:href="#DejaVuSans-2d" x="254.492188"/>
       <use xlink:href="#DejaVuSans-30" x="290.576172"/>
       <use xlink:href="#DejaVuSans-37" x="354.199219"/>
      </g>
     </g>
    </g>
   </g>
   <g id="matplotlib.axis_2">
    <g id="ytick_1">
     <g id="line2d_8">
      <defs>
       <path id="mb61b31ec75" d="M 0 0 
L -3.5 0 
" style="stroke: #000000; stroke-width: 0.8"/>
      </defs>
      <g>
       <use xlink:href="#mb61b31ec75" x="57.6" y="262.680695" style="stroke: #000000; stroke-width: 0.8"/>
      </g>
     </g>
     <g id="text_8">
      <!-- −10 -->
      <g transform="translate(29.495313 266.479914) scale(0.1 -0.1)">
       <defs>
        <path id="DejaVuSans-2212" d="M 678 2272 
L 4684 2272 
L 4684 1741 
L 678 1741 
L 678 2272 
z
" transform="scale(0.015625)"/>
       </defs>
       <use xlink:href="#DejaVuSans-2212"/>
       <use xlink:href="#DejaVuSans-31" x="83.789062"/>
       <use xlink:href="#DejaVuSans-30" x="147.412109"/>
      </g>
     </g>
    </g>
    <g id="ytick_2">
     <g id="line2d_9">
      <g>
       <use xlink:href="#mb61b31ec75" x="57.6" y="214.89805" style="stroke: #000000; stroke-width: 0.8"/>
      </g>
     </g>
     <g id="text_9">
      <!-- 0 -->
      <g transform="translate(44.2375 218.697269) scale(0.1 -0.1)">
       <use xlink:href="#DejaVuSans-30"/>
      </g>
     </g>
    </g>
    <g id="ytick_3">
     <g id="line2d_10">
      <g>
       <use xlink:href="#mb61b31ec75" x="57.6" y="167.115406" style="stroke: #000000; stroke-width: 0.8"/>
      </g>
     </g>
     <g id="text_10">
      <!-- 10 -->
      <g transform="translate(37.875 170.914624) scale(0.1 -0.1)">
       <use xlink:href="#DejaVuSans-31"/>
       <use xlink:href="#DejaVuSans-30" x="63.623047"/>
      </g>
     </g>
    </g>
    <g id="ytick_4">
     <g id="line2d_11">
      <g>
       <use xlink:href="#mb61b31ec75" x="57.6" y="119.332761" style="stroke: #000000; stroke-width: 0.8"/>
      </g>
     </g>
     <g id="text_11">
      <!-- 20 -->
      <g transform="translate(37.875 123.13198) scale(0.1 -0.1)">
       <use xlink:href="#DejaVuSans-32"/>
       <use xlink:href="#DejaVuSans-30" x="63.623047"/>
      </g>
     </g>
    </g>
    <g id="ytick_5">
     <g id="line2d_12">
      <g>
       <use xlink:href="#mb61b31ec75" x="57.6" y="71.550116" style="stroke: #000000; stroke-width: 0.8"/>
      </g>
     </g>
     <g id="text_12">
      <!-- 30 -->
      <g transform="translate(37.875 75.349335) scale(0.1 -0.1)">
       <use xlink:href="#DejaVuSans-33"/>
       <use xlink:href="#DejaVuSans-30" x="63.623047"/>
      </g>
     </g>
    </g>
   </g>
   <g id="line2d_13">
    <path d="M 73.832727 207.166606 
L 75.464157 205.152124 
L 77.095587 206.043161 
L 78.727017 204.871691 
L 80.358447 209.855579 
L 81.989877 209.625225 
L 83.621307 208.850869 
L 85.252736 205.05212 
L 86.884166 206.439569 
L 88.515596 209.832505 
L 90.147026 208.665137 
L 91.778456 194.299445 
L 93.409886 188.638307 
L 95.041316 189.470815 
L 96.672746 194.294552 
L 98.304175 184.935729 
L 99.935605 181.925659 
L 101.567035 182.721525 
L 103.198465 188.412601 
L 104.829895 190.727774 
L 106.461325 186.945169 
L 108.092755 184.905258 
L 109.724185 185.442588 
L 111.355614 188.950735 
L 112.987044 188.40072 
L 114.618474 189.96462 
L 116.249904 203.282649 
L 117.881334 196.704981 
L 119.512764 199.305865 
L 121.144194 201.077008 
L 122.775624 195.140011 
L 124.407053 194.025953 
L 126.038483 189.270381 
L 127.669913 187.959633 
L 129.301343 177.709267 
L 130.932773 177.887902 
L 132.564203 177.403575 
L 134.195633 175.090413 
L 135.827063 180.802755 
L 137.458492 190.421551 
L 139.089922 196.726527 
L 140.721352 196.747722 
L 142.352782 201.294636 
L 143.984212 196.927438 
L 145.615642 193.942896 
L 147.247072 192.931314 
L 150.509931 185.579432 
L 152.141361 182.624601 
L 153.772791 183.233478 
L 155.404221 184.857899 
L 157.035651 181.949769 
L 158.667081 181.880455 
L 160.298511 184.525753 
L 161.929941 182.08119 
L 163.56137 179.266712 
L 165.1928 179.250329 
L 166.82423 172.104783 
L 168.45566 172.826825 
L 170.08709 177.572786 
L 171.71852 169.141958 
L 173.34995 172.862139 
L 174.98138 187.855729 
L 176.61281 188.009496 
L 178.244239 184.737847 
L 179.875669 189.137625 
L 181.507099 185.974148 
L 183.138529 183.320117 
L 184.769959 174.653428 
L 186.401389 180.765933 
L 188.032819 188.930375 
L 189.664249 189.279398 
L 191.295678 188.239475 
L 192.927108 193.659964 
L 194.558538 191.496546 
L 197.821398 192.257271 
L 199.452828 199.132355 
L 201.084258 194.737208 
L 202.715688 197.153863 
L 204.347117 202.072699 
L 205.978547 205.943682 
L 207.609977 208.609084 
L 209.241407 213.641543 
L 210.872837 219.683374 
L 212.504267 226.296653 
L 214.135697 224.992672 
L 215.767127 224.718017 
L 217.398556 232.656618 
L 219.029986 235.905727 
L 220.661416 231.199619 
L 222.292846 229.553409 
L 223.924276 217.58803 
L 225.555706 216.883857 
L 227.187136 222.389873 
L 228.818566 221.404826 
L 230.449995 218.724018 
L 232.081425 223.526568 
L 233.712855 232.332058 
L 235.344285 238.425253 
L 236.975715 236.594597 
L 238.607145 239.510206 
L 240.238575 241.445779 
L 241.870005 236.411134 
L 243.501434 233.831625 
L 245.132864 231.766727 
L 246.764294 236.240863 
L 248.395724 231.62243 
L 250.027154 234.537305 
L 251.658584 230.195717 
L 253.290014 248.762578 
L 254.921444 247.276339 
L 256.552873 254.972016 
L 258.184303 248.417079 
L 259.815733 252.119902 
L 261.447163 252.289312 
L 263.078593 251.562028 
L 264.710023 251.393571 
L 266.341453 262.86663 
L 267.972883 266.448181 
L 269.604312 267.477483 
L 271.235742 271.878167 
L 272.867172 278.524472 
L 274.498602 273.424375 
L 276.130032 273.713321 
L 277.761462 274.85844 
L 279.392892 275.311547 
L 281.024322 271.038867 
L 282.655751 267.897297 
L 284.287181 271.319112 
L 285.918611 276.465052 
L 287.550041 278.173406 
L 289.181471 280.742457 
L 290.812901 282.469088 
L 292.444331 282.095898 
L 294.075761 275.384813 
L 295.70719 265.79999 
L 297.33862 255.045098 
L 298.97005 257.987677 
L 300.60148 261.199941 
L 302.23291 260.446582 
L 303.86434 262.116545 
L 305.49577 256.022366 
L 308.75863 257.645328 
L 310.390059 255.678205 
L 312.021489 253.999817 
L 313.652919 254.565516 
L 315.284349 247.869614 
L 316.915779 263.647629 
L 318.547209 267.99103 
L 320.178639 266.667775 
L 321.810069 261.67698 
L 323.441498 268.247624 
L 325.072928 262.191355 
L 326.704358 260.601387 
L 328.335788 262.837924 
L 329.967218 260.30791 
L 331.598648 256.430355 
L 333.230078 262.485845 
L 334.861508 260.915968 
L 336.492937 256.45029 
L 338.124367 255.709608 
L 339.755797 253.870929 
L 341.387227 252.89878 
L 343.018657 258.316361 
L 344.650087 257.562205 
L 346.281517 259.503108 
L 347.912947 256.647002 
L 349.544376 259.646506 
L 351.175806 261.317845 
L 352.807236 267.44514 
L 354.438666 259.656437 
L 356.070096 267.395491 
L 357.701526 267.453355 
L 359.332956 278.074954 
L 360.964386 277.867922 
L 362.595815 279.769776 
L 364.227245 269.489202 
L 365.858675 271.801244 
L 367.490105 269.406309 
L 369.121535 267.43114 
L 370.752965 269.23857 
L 374.015825 281.788938 
L 375.647254 284.824561 
L 377.278684 278.277108 
L 378.910114 282.897765 
L 380.541544 279.978692 
L 382.172974 289.392011 
L 383.804404 283.756788 
L 385.435834 282.895839 
L 388.698693 281.502514 
L 390.330123 279.812744 
L 391.961553 289.588781 
L 393.592983 285.025595 
L 395.224413 287.084998 
L 396.855843 291.735756 
L 398.487273 295.488 
L 398.487273 295.488 
" clip-path="url(#pb332e474aa)" style="fill: none; stroke: #1f77b4; stroke-width: 1.5; stroke-linecap: square"/>
   </g>
   <g id="line2d_14">
    <path d="M 73.832727 214.913867 
L 75.464157 208.532681 
L 78.727017 217.386989 
L 80.358447 215.60419 
L 81.989877 216.494978 
L 83.621307 215.615888 
L 85.252736 207.669436 
L 86.884166 214.23969 
L 88.515596 213.783444 
L 90.147026 221.367923 
L 91.778456 226.185383 
L 93.409886 227.102752 
L 95.041316 222.77346 
L 96.672746 219.802836 
L 98.304175 219.081855 
L 99.935605 217.728347 
L 101.567035 217.792254 
L 103.198465 217.339294 
L 104.829895 212.245238 
L 106.461325 214.764617 
L 108.092755 213.973135 
L 109.724185 222.698672 
L 111.355614 222.704813 
L 112.987044 227.960406 
L 114.618474 238.858526 
L 116.249904 237.488664 
L 117.881334 242.999324 
L 119.512764 236.918416 
L 121.144194 229.622706 
L 122.775624 220.16512 
L 124.407053 214.317088 
L 126.038483 217.269244 
L 127.669913 219.322041 
L 129.301343 222.472512 
L 130.932773 229.689237 
L 132.564203 224.426473 
L 134.195633 225.669061 
L 135.827063 227.14773 
L 137.458492 240.449194 
L 139.089922 239.334566 
L 140.721352 249.70693 
L 142.352782 254.641926 
L 143.984212 249.913448 
L 145.615642 247.333797 
L 147.247072 256.448477 
L 148.878502 251.690212 
L 150.509931 259.243003 
L 152.141361 262.221756 
L 153.772791 266.035901 
L 155.404221 266.980607 
L 157.035651 277.278517 
L 158.667081 280.034404 
L 160.298511 270.383449 
L 161.929941 270.947377 
L 163.56137 269.228807 
L 165.1928 271.91986 
L 166.82423 273.664246 
L 168.45566 274.445911 
L 170.08709 278.078589 
L 171.71852 269.741714 
L 173.34995 264.993439 
L 174.98138 263.835351 
L 176.61281 263.148087 
L 178.244239 265.716817 
L 179.875669 267.819827 
L 181.507099 259.699377 
L 183.138529 264.568867 
L 184.769959 255.725684 
L 186.401389 255.577474 
L 188.032819 249.875476 
L 189.664249 249.554016 
L 191.295678 247.707883 
L 192.927108 248.404339 
L 194.558538 244.758268 
L 196.189968 239.00797 
L 197.821398 244.920587 
L 199.452828 239.049497 
L 201.084258 230.080172 
L 204.347117 218.484622 
L 205.978547 218.653303 
L 207.609977 217.293126 
L 209.241407 213.244127 
L 210.872837 213.949116 
L 212.504267 222.994954 
L 214.135697 220.877332 
L 215.767127 229.106721 
L 217.398556 220.462601 
L 219.029986 221.81885 
L 220.661416 222.565267 
L 222.292846 225.411481 
L 223.924276 222.436071 
L 225.555706 218.772612 
L 227.187136 220.383931 
L 228.818566 216.739606 
L 230.449995 218.635735 
L 232.081425 218.102306 
L 233.712855 214.717545 
L 235.344285 218.488951 
L 236.975715 213.647209 
L 238.607145 207.484655 
L 240.238575 200.281645 
L 241.870005 200.498261 
L 243.501434 201.968492 
L 245.132864 205.309681 
L 246.764294 198.894969 
L 248.395724 201.909675 
L 250.027154 197.20858 
L 251.658584 194.301943 
L 253.290014 185.403014 
L 254.921444 186.763919 
L 256.552873 179.376695 
L 258.184303 180.423877 
L 259.815733 170.585442 
L 261.447163 173.003039 
L 263.078593 174.509197 
L 264.710023 176.738792 
L 266.341453 183.400284 
L 267.972883 193.621509 
L 269.604312 193.612056 
L 271.235742 187.620236 
L 272.867172 183.857748 
L 274.498602 181.266178 
L 276.130032 177.714311 
L 277.761462 177.966997 
L 279.392892 178.087705 
L 281.024322 172.348193 
L 282.655751 181.134213 
L 284.287181 173.611664 
L 285.918611 173.48663 
L 287.550041 171.376345 
L 289.181471 172.04601 
L 290.812901 159.921119 
L 292.444331 160.928468 
L 294.075761 162.560825 
L 295.70719 166.315218 
L 297.33862 174.354069 
L 298.97005 164.36879 
L 300.60148 163.654159 
L 302.23291 172.464102 
L 303.86434 169.892478 
L 305.49577 171.457979 
L 307.1272 168.249989 
L 308.75863 170.115338 
L 310.390059 176.566376 
L 313.652919 168.681163 
L 315.284349 171.893289 
L 316.915779 174.800801 
L 318.547209 169.114767 
L 320.178639 173.902707 
L 321.810069 179.607573 
L 323.441498 178.780705 
L 325.072928 180.687898 
L 326.704358 182.097764 
L 328.335788 186.745436 
L 329.967218 185.907476 
L 331.598648 179.860966 
L 333.230078 177.790856 
L 334.861508 184.209889 
L 336.492937 179.153817 
L 338.124367 178.453715 
L 339.755797 186.093804 
L 341.387227 188.33286 
L 343.018657 181.896374 
L 344.650087 182.385902 
L 346.281517 181.658735 
L 347.912947 186.193493 
L 349.544376 186.320427 
L 351.175806 189.665887 
L 352.807236 186.247518 
L 354.438666 185.235067 
L 356.070096 175.20856 
L 357.701526 173.777022 
L 359.332956 170.580035 
L 360.964386 170.465097 
L 362.595815 178.461898 
L 364.227245 173.721184 
L 365.858675 169.390517 
L 367.490105 163.693575 
L 369.121535 160.188587 
L 370.752965 165.285988 
L 372.384395 162.528548 
L 374.015825 160.04067 
L 375.647254 161.193016 
L 377.278684 158.648396 
L 378.910114 155.460754 
L 380.541544 156.472461 
L 382.172974 158.171024 
L 383.804404 149.709911 
L 385.435834 148.086647 
L 387.067264 143.177355 
L 388.698693 139.921554 
L 390.330123 137.008359 
L 391.961553 132.237211 
L 393.592983 126.578424 
L 395.224413 128.57462 
L 396.855843 121.844904 
L 398.487273 121.698329 
L 398.487273 121.698329 
" clip-path="url(#pb332e474aa)" style="fill: none; stroke-dasharray: 5.55,2.4; stroke-dashoffset: 0; stroke: #ff7f0e; stroke-width: 1.5"/>
   </g>
   <g id="line2d_15">
    <path d="M 73.832727 211.380797 
L 75.464157 217.554994 
L 77.095587 208.915184 
L 78.727017 206.259901 
L 80.358447 206.032877 
L 81.989877 202.716435 
L 83.621307 202.962372 
L 85.252736 202.436527 
L 86.884166 190.751176 
L 88.515596 191.338449 
L 90.147026 198.672299 
L 91.778456 202.22671 
L 93.409886 201.158194 
L 96.672746 199.638033 
L 98.304175 201.485208 
L 99.935605 194.132571 
L 103.198465 212.106425 
L 104.829895 213.713877 
L 106.461325 215.605165 
L 108.092755 215.750727 
L 109.724185 206.711798 
L 111.355614 208.735987 
L 112.987044 205.412053 
L 114.618474 200.445446 
L 116.249904 199.22429 
L 117.881334 198.164202 
L 119.512764 186.660067 
L 121.144194 183.015743 
L 122.775624 174.229535 
L 124.407053 179.235816 
L 126.038483 185.754334 
L 127.669913 187.158352 
L 129.301343 187.433019 
L 130.932773 193.58566 
L 132.564203 187.966909 
L 134.195633 186.841316 
L 135.827063 187.228711 
L 137.458492 186.56409 
L 139.089922 191.967046 
L 140.721352 194.191821 
L 142.352782 193.081434 
L 143.984212 196.452089 
L 145.615642 196.721015 
L 147.247072 195.2651 
L 148.878502 188.188936 
L 150.509931 190.313232 
L 152.141361 190.159831 
L 153.772791 186.660275 
L 155.404221 185.920492 
L 157.035651 194.398608 
L 158.667081 187.106881 
L 160.298511 178.949464 
L 161.929941 173.450463 
L 163.56137 178.153397 
L 165.1928 175.800739 
L 166.82423 169.696464 
L 168.45566 168.758151 
L 170.08709 169.049194 
L 171.71852 165.73914 
L 173.34995 168.424175 
L 174.98138 160.619403 
L 176.61281 157.541934 
L 178.244239 150.239023 
L 179.875669 148.951202 
L 181.507099 144.216699 
L 183.138529 143.241017 
L 184.769959 143.126414 
L 186.401389 144.174441 
L 188.032819 151.056239 
L 189.664249 149.611399 
L 191.295678 145.966116 
L 192.927108 147.780661 
L 194.558538 142.427285 
L 196.189968 151.924423 
L 197.821398 156.81579 
L 199.452828 153.389671 
L 201.084258 154.842302 
L 202.715688 149.689271 
L 204.347117 146.308488 
L 205.978547 145.84632 
L 207.609977 150.151505 
L 209.241407 148.082577 
L 210.872837 150.24225 
L 212.504267 147.304051 
L 214.135697 145.524835 
L 215.767127 150.460198 
L 217.398556 151.447487 
L 219.029986 159.13534 
L 220.661416 157.280653 
L 222.292846 159.912369 
L 223.924276 160.300641 
L 225.555706 154.658608 
L 227.187136 149.988488 
L 228.818566 151.36918 
L 230.449995 146.925418 
L 232.081425 145.193391 
L 233.712855 141.601802 
L 235.344285 135.101738 
L 236.975715 130.871099 
L 238.607145 137.924876 
L 240.238575 135.370961 
L 241.870005 138.552 
L 243.501434 138.465081 
L 245.132864 136.953179 
L 246.764294 138.778168 
L 248.395724 138.151216 
L 250.027154 144.595102 
L 251.658584 143.918135 
L 253.290014 145.233397 
L 254.921444 149.974927 
L 256.552873 148.736815 
L 258.184303 144.534301 
L 261.447163 146.616407 
L 263.078593 147.40521 
L 264.710023 140.497173 
L 266.341453 143.152095 
L 267.972883 144.134351 
L 269.604312 146.11684 
L 271.235742 135.952191 
L 272.867172 140.602328 
L 274.498602 142.47474 
L 276.130032 143.156918 
L 277.761462 129.347994 
L 279.392892 131.106121 
L 281.024322 140.586662 
L 282.655751 140.342677 
L 284.287181 137.349169 
L 285.918611 136.379313 
L 287.550041 140.526637 
L 289.181471 143.333501 
L 290.812901 145.872357 
L 292.444331 145.038577 
L 294.075761 134.577404 
L 295.70719 130.65149 
L 297.33862 135.960841 
L 298.97005 135.855541 
L 300.60148 139.577192 
L 302.23291 141.760136 
L 305.49577 143.766847 
L 307.1272 139.256636 
L 310.390059 133.895264 
L 312.021489 129.092536 
L 313.652919 135.436676 
L 315.284349 135.944379 
L 316.915779 129.268971 
L 318.547209 124.081132 
L 320.178639 119.794242 
L 321.810069 125.002419 
L 323.441498 122.040679 
L 325.072928 120.972721 
L 326.704358 119.339786 
L 328.335788 118.933106 
L 329.967218 116.010447 
L 331.598648 115.547205 
L 333.230078 111.476331 
L 334.861508 108.08655 
L 336.492937 109.435791 
L 338.124367 111.597221 
L 339.755797 112.453517 
L 341.387227 115.488176 
L 343.018657 114.038775 
L 344.650087 117.405778 
L 346.281517 120.091193 
L 347.912947 124.966844 
L 349.544376 124.100147 
L 351.175806 116.95914 
L 352.807236 110.488106 
L 354.438666 111.306058 
L 356.070096 108.544445 
L 357.701526 107.020603 
L 359.332956 98.516331 
L 360.964386 93.615363 
L 362.595815 82.670347 
L 364.227245 86.468142 
L 365.858675 80.027751 
L 367.490105 66.623858 
L 369.121535 68.85168 
L 370.752965 62.628565 
L 372.384395 67.486158 
L 374.015825 64.633499 
L 375.647254 68.932103 
L 377.278684 77.205413 
L 378.910114 73.228519 
L 380.541544 65.080739 
L 382.172974 59.61553 
L 383.804404 53.568 
L 385.435834 53.618511 
L 387.067264 53.865476 
L 388.698693 58.577344 
L 390.330123 62.421513 
L 391.961553 62.080043 
L 393.592983 65.719826 
L 395.224413 79.450889 
L 396.855843 84.3441 
L 398.487273 82.887267 
L 398.487273 82.887267 
" clip-path="url(#pb332e474aa)" style="fill: none; stroke-dasharray: 9.6,2.4,1.5,2.4; stroke-dashoffset: 0; stroke: #2ca02c; stroke-width: 1.5"/>
   </g>
   <g id="patch_3">
    <path d="M 57.6 307.584 
L 57.6 41.472 
" style="fill: none; stroke: #000000; stroke-width: 0.8; stroke-linejoin: miter; stroke-linecap: square"/>
   </g>
   <g id="patch_4">
    <path d="M 414.72 307.584 
L 414.72 41.472 
" style="fill: none; stroke: #000000; stroke-width: 0.8; stroke-linejoin: miter; stroke-linecap: square"/>
   </g>
   <g id="patch_5">
    <path d="M 57.6 307.584 
L 414.72 307.584 
" style="fill: none; stroke: #000000; stroke-width: 0.8; stroke-linejoin: miter; stroke-linecap: square"/>
   </g>
   <g id="patch_6">
    <path d="M 57.6 41.472 
L 414.72 41.472 
" style="fill: none; stroke: #000000; stroke-width: 0.8; stroke-linejoin: miter; stroke-linecap: square"/>
   </g>
  </g>
 </g>
 <defs>
  <clipPath id="pb332e474aa">
   <rect x="57.6" y="41.472" width="357.12" height="266.112"/>
  </clipPath>
 </defs>
</svg>
