<?xml version="1.0" encoding="utf-8" standalone="no"?>
<!DOCTYPE svg PUBLIC "-//W3C//DTD SVG 1.1//EN"
  "http://www.w3.org/Graphics/SVG/1.1/DTD/svg11.dtd">
<svg xmlns:xlink="http://www.w3.org/1999/xlink" width="460.8pt" height="345.6pt" viewBox="0 0 460.8 345.6" xmlns="http://www.w3.org/2000/svg" version="1.1">
 <metadata>
  <rdf:RDF xmlns:dc="http://purl.org/dc/elements/1.1/" xmlns:cc="http://creativecommons.org/ns#" xmlns:rdf="http://www.w3.org/1999/02/22-rdf-syntax-ns#">
   <cc:Work>
    <dc:type rdf:resource="http://purl.org/dc/dcmitype/StillImage"/>
    <dc:date>2023-11-25T18:39:00.262148</dc:date>
    <dc:format>image/svg+xml</dc:format>
    <dc:creator>
     <cc:Agent>
      <dc:title>Matplotlib v3.8.1, https://matplotlib.org/</dc:title>
     </cc:Agent>
    </dc:creator>
   </cc:Work>
  </rdf:RDF>
 </metadata>
 <defs>
  <style type="text/css">*{stroke-linejoin: round; stroke-linecap: butt}</style>
 </defs>
 <g id="figure_1">
  <g id="patch_1">
   <path d="M 0 345.6 
L 460.8 345.6 
L 460.8 0 
L 0 0 
z
" style="fill: #ffffff"/>
  </g>
  <g id="axes_1">
   <g id="patch_2">
    <path d="M 57.6 307.584 
L 414.72 307.584 
L 414.72 41.472 
L 57.6 41.472 
z
" style="fill: #ffffff"/>
   </g>
   <g id="matplotlib.axis_1">
    <g id="xtick_1">
     <g id="line2d_1">
      <defs>
       <path id="mbd908c08ed" d="M 0 0 
L 0 3.5 
" style="stroke: #000000; stroke-width: 0.8"/>
      </defs>
      <g>
       <use xlink:href="#mbd908c08ed" x="75.464157" y="307.584" style="stroke: #000000; stroke-width: 0.8"/>
      </g>
     </g>
     <g id="text_1">
      <!-- 2024-01 -->
      <g transform="translate(54.572751 322.182437) scale(0.1 -0.1)">
       <defs>
        <path id="DejaVuSans-32" d="M 1228 531 
L 3431 531 
L 3431 0 
L 469 0 
L 469 531 
Q 828 903 1448 1529 
Q 2069 2156 2228 2338 
Q 2531 2678 2651 2914 
Q 2772 3150 2772 3378 
Q 2772 3750 2511 3984 
Q 2250 4219 1831 4219 
Q 1534 4219 1204 4116 
Q 875 4013 500 3803 
L 500 4441 
Q 881 4594 1212 4672 
Q 1544 4750 1819 4750 
Q 2544 4750 2975 4387 
Q 3406 4025 3406 3419 
Q 3406 3131 3298 2873 
Q 3191 2616 2906 2266 
Q 2828 2175 2409 1742 
Q 1991 1309 1228 531 
z
" transform="scale(0.015625)"/>
        <path id="DejaVuSans-30" d="M 2034 4250 
Q 1547 4250 1301 3770 
Q 1056 3291 1056 2328 
Q 1056 1369 1301 889 
Q 1547 409 2034 409 
Q 2525 409 2770 889 
Q 3016 1369 3016 2328 
Q 3016 3291 2770 3770 
Q 2525 4250 2034 4250 
z
M 2034 4750 
Q 2819 4750 3233 4129 
Q 3647 3509 3647 2328 
Q 3647 1150 3233 529 
Q 2819 -91 2034 -91 
Q 1250 -91 836 529 
Q 422 1150 422 2328 
Q 422 3509 836 4129 
Q 1250 4750 2034 4750 
z
" transform="scale(0.015625)"/>
        <path id="DejaVuSans-34" d="M 2419 4116 
L 825 1625 
L 2419 1625 
L 2419 4116 
z
M 2253 4666 
L 3047 4666 
L 3047 1625 
L 3713 1625 
L 3713 1100 
L 3047 1100 
L 3047 0 
L 2419 0 
L 2419 1100 
L 313 1100 
L 313 1709 
L 2253 4666 
z
" transform="scale(0.015625)"/>
        <path id="DejaVuSans-2d" d="M 313 2009 
L 1997 2009 
L 1997 1497 
L 313 1497 
L 313 2009 
z
" transform="scale(0.015625)"/>
        <path id="DejaVuSans-31" d="M 794 531 
L 1825 531 
L 1825 4091 
L 703 3866 
L 703 4441 
L 1819 4666 
L 2450 4666 
L 2450 531 
L 3481 531 
L 3481 0 
L 794 0 
L 794 531 
z
" transform="scale(0.015625)"/>
       </defs>
       <use xlink:href="#DejaVuSans-32"/>
       <use xlink:href="#DejaVuSans-30" x="63.623047"/>
       <use xlink:href="#DejaVuSans-32" x="127.246094"/>
       <use xlink:href="#DejaVuSans-34" x="190.869141"/>
       <use xlink:href="#DejaVuSans-2d" x="254.492188"/>
       <use xlink:href="#DejaVuSans-30" x="290.576172"/>
       <use xlink:href="#DejaVuSans-31" x="354.199219"/>
      </g>
     </g>
    </g>
    <g id="xtick_2">
     <g id="line2d_2">
      <g>
       <use xlink:href="#mbd908c08ed" x="126.038483" y="307.584" style="stroke: #000000; stroke-width: 0.8"/>
      </g>
     </g>
     <g id="text_2">
      <!-- 2024-02 -->
      <g transform="translate(105.147077 322.182437) scale(0.1 -0.1)">
       <use xlink:href="#DejaVuSans-32"/>
       <use xlink:href="#DejaVuSans-30" x="63.623047"/>
       <use xlink:href="#DejaVuSans-32" x="127.246094"/>
       <use xlink:href="#DejaVuSans-34" x="190.869141"/>
       <use xlink:href="#DejaVuSans-2d" x="254.492188"/>
       <use xlink:href="#DejaVuSans-30" x="290.576172"/>
       <use xlink:href="#DejaVuSans-32" x="354.199219"/>
      </g>
     </g>
    </g>
    <g id="xtick_3">
     <g id="line2d_3">
      <g>
       <use xlink:href="#mbd908c08ed" x="173.34995" y="307.584" style="stroke: #000000; stroke-width: 0.8"/>
      </g>
     </g>
     <g id="text_3">
      <!-- 2024-03 -->
      <g transform="translate(152.458543 322.182437) scale(0.1 -0.1)">
       <defs>
        <path id="DejaVuSans-33" d="M 2597 2516 
Q 3050 2419 3304 2112 
Q 3559 1806 3559 1356 
Q 3559 666 3084 287 
Q 2609 -91 1734 -91 
Q 1441 -91 1130 -33 
Q 819 25 488 141 
L 488 750 
Q 750 597 1062 519 
Q 1375 441 1716 441 
Q 2309 441 2620 675 
Q 2931 909 2931 1356 
Q 2931 1769 2642 2001 
Q 2353 2234 1838 2234 
L 1294 2234 
L 1294 2753 
L 1863 2753 
Q 2328 2753 2575 2939 
Q 2822 3125 2822 3475 
Q 2822 3834 2567 4026 
Q 2313 4219 1838 4219 
Q 1578 4219 1281 4162 
Q 984 4106 628 3988 
L 628 4550 
Q 988 4650 1302 4700 
Q 1616 4750 1894 4750 
Q 2613 4750 3031 4423 
Q 3450 4097 3450 3541 
Q 3450 3153 3228 2886 
Q 3006 2619 2597 2516 
z
" transform="scale(0.015625)"/>
       </defs>
       <use xlink:href="#DejaVuSans-32"/>
       <use xlink:href="#DejaVuSans-30" x="63.623047"/>
       <use xlink:href="#DejaVuSans-32" x="127.246094"/>
       <use xlink:href="#DejaVuSans-34" x="190.869141"/>
       <use xlink:href="#DejaVuSans-2d" x="254.492188"/>
       <use xlink:href="#DejaVuSans-30" x="290.576172"/>
       <use xlink:href="#DejaVuSans-33" x="354.199219"/>
      </g>
     </g>
    </g>
    <g id="xtick_4">
     <g id="line2d_4">
      <g>
       <use xlink:href="#mbd908c08ed" x="223.924276" y="307.584" style="stroke: #000000; stroke-width: 0.8"/>
      </g>
     </g>
     <g id="text_4">
      <!-- 2024-04 -->
      <g transform="translate(203.03287 322.182437) scale(0.1 -0.1)">
       <use xlink:href="#DejaVuSans-32"/>
       <use xlink:href="#DejaVuSans-30" x="63.623047"/>
       <use xlink:href="#DejaVuSans-32" x="127.246094"/>
       <use xlink:href="#DejaVuSans-34" x="190.869141"/>
       <use xlink:href="#DejaVuSans-2d" x="254.492188"/>
       <use xlink:href="#DejaVuSans-30" x="290.576172"/>
       <use xlink:href="#DejaVuSans-34" x="354.199219"/>
      </g>
     </g>
    </g>
    <g id="xtick_5">
     <g id="line2d_5">
      <g>
       <use xlink:href="#mbd908c08ed" x="272.867172" y="307.584" style="stroke: #000000; stroke-width: 0.8"/>
      </g>
     </g>
     <g id="text_5">
      <!-- 2024-05 -->
      <g transform="translate(251.975766 322.182437) scale(0.1 -0.1)">
       <defs>
        <path id="DejaVuSans-35" d="M 691 4666 
L 3169 4666 
L 3169 4134 
L 1269 4134 
L 1269 2991 
Q 1406 3038 1543 3061 
Q 1681 3084 1819 3084 
Q 2600 3084 3056 2656 
Q 3513 2228 3513 1497 
Q 3513 744 3044 326 
Q 2575 -91 1722 -91 
Q 1428 -91 1123 -41 
Q 819 9 494 109 
L 494 744 
Q 775 591 1075 516 
Q 1375 441 1709 441 
Q 2250 441 2565 725 
Q 2881 1009 2881 1497 
Q 2881 1984 2565 2268 
Q 2250 2553 1709 2553 
Q 1456 2553 1204 2497 
Q 953 2441 691 2322 
L 691 4666 
z
" transform="scale(0.015625)"/>
       </defs>
       <use xlink:href="#DejaVuSans-32"/>
       <use xlink:href="#DejaVuSans-30" x="63.623047"/>
       <use xlink:href="#DejaVuSans-32" x="127.246094"/>
       <use xlink:href="#DejaVuSans-34" x="190.869141"/>
       <use xlink:href="#DejaVuSans-2d" x="254.492188"/>
       <use xlink:href="#DejaVuSans-30" x="290.576172"/>
       <use xlink:href="#DejaVuSans-35" x="354.199219"/>
      </g>
     </g>
    </g>
    <g id="xtick_6">
     <g id="line2d_6">
      <g>
       <use xlink:href="#mbd908c08ed" x="323.441498" y="307.584" style="stroke: #000000; stroke-width: 0.8"/>
      </g>
     </g>
     <g id="text_6">
      <!-- 2024-06 -->
      <g transform="translate(302.550092 322.182437) scale(0.1 -0.1)">
       <defs>
        <path id="DejaVuSans-36" d="M 2113 2584 
Q 1688 2584 1439 2293 
Q 1191 2003 1191 1497 
Q 1191 994 1439 701 
Q 1688 409 2113 409 
Q 2538 409 2786 701 
Q 3034 994 3034 1497 
Q 3034 2003 2786 2293 
Q 2538 2584 2113 2584 
z
M 3366 4563 
L 3366 3988 
Q 3128 4100 2886 4159 
Q 2644 4219 2406 4219 
Q 1781 4219 1451 3797 
Q 1122 3375 1075 2522 
Q 1259 2794 1537 2939 
Q 1816 3084 2150 3084 
Q 2853 3084 3261 2657 
Q 3669 2231 3669 1497 
Q 3669 778 3244 343 
Q 2819 -91 2113 -91 
Q 1303 -91 875 529 
Q 447 1150 447 2328 
Q 447 3434 972 4092 
Q 1497 4750 2381 4750 
Q 2619 4750 2861 4703 
Q 3103 4656 3366 4563 
z
" transform="scale(0.015625)"/>
       </defs>
       <use xlink:href="#DejaVuSans-32"/>
       <use xlink:href="#DejaVuSans-30" x="63.623047"/>
       <use xlink:href="#DejaVuSans-32" x="127.246094"/>
       <use xlink:href="#DejaVuSans-34" x="190.869141"/>
       <use xlink:href="#DejaVuSans-2d" x="254.492188"/>
       <use xlink:href="#DejaVuSans-30" x="290.576172"/>
       <use xlink:href="#DejaVuSans-36" x="354.199219"/>
      </g>
     </g>
    </g>
    <g id="xtick_7">
     <g id="line2d_7">
      <g>
       <use xlink:href="#mbd908c08ed" x="372.384395" y="307.584" style="stroke: #000000; stroke-width: 0.8"/>
      </g>
     </g>
     <g id="text_7">
      <!-- 2024-07 -->
      <g transform="translate(351.492988 322.182437) scale(0.1 -0.1)">
       <defs>
        <path id="DejaVuSans-37" d="M 525 4666 
L 3525 4666 
L 3525 4397 
L 1831 0 
L 1172 0 
L 2766 4134 
L 525 4134 
L 525 4666 
z
" transform="scale(0.015625)"/>
       </defs>
       <use xlink:href="#DejaVuSans-32"/>
       <use xlink:href="#DejaVuSans-30" x="63.623047"/>
       <use xlink:href="#DejaVuSans-32" x="127.246094"/>
       <use xlink:href="#DejaVuSans-34" x="190.869141"/>
       <use xlink:href="#DejaVuSans-2d" x="254.492188"/>
       <use xlink:href="#DejaVuSans-30" x="290.576172"/>
       <use xlink:href="#DejaVuSans-37" x="354.199219"/>
      </g>
     </g>
    </g>
   </g>
   <g id="matplotlib.axis_2">
    <g id="ytick_1">
     <g id="line2d_8">
      <defs>
       <path id="m5b29873d49" d="M 0 0 
L -3.5 0 
" style="stroke: #000000; stroke-width: 0.8"/>
      </defs>
      <g>
       <use xlink:href="#m5b29873d49" x="57.6" y="302.549511" style="stroke: #000000; stroke-width: 0.8"/>
      </g>
     </g>
     <g id="text_8">
      <!-- −10 -->
      <g transform="translate(29.495313 306.34873) scale(0.1 -0.1)">
       <defs>
        <path id="DejaVuSans-2212" d="M 678 2272 
L 4684 2272 
L 4684 1741 
L 678 1741 
L 678 2272 
z
" transform="scale(0.015625)"/>
       </defs>
       <use xlink:href="#DejaVuSans-2212"/>
       <use xlink:href="#DejaVuSans-31" x="83.789062"/>
       <use xlink:href="#DejaVuSans-30" x="147.412109"/>
      </g>
     </g>
    </g>
    <g id="ytick_2">
     <g id="line2d_9">
      <g>
       <use xlink:href="#m5b29873d49" x="57.6" y="247.182823" style="stroke: #000000; stroke-width: 0.8"/>
      </g>
     </g>
     <g id="text_9">
      <!-- 0 -->
      <g transform="translate(44.2375 250.982042) scale(0.1 -0.1)">
       <use xlink:href="#DejaVuSans-30"/>
      </g>
     </g>
    </g>
    <g id="ytick_3">
     <g id="line2d_10">
      <g>
       <use xlink:href="#m5b29873d49" x="57.6" y="191.816136" style="stroke: #000000; stroke-width: 0.8"/>
      </g>
     </g>
     <g id="text_10">
      <!-- 10 -->
      <g transform="translate(37.875 195.615355) scale(0.1 -0.1)">
       <use xlink:href="#DejaVuSans-31"/>
       <use xlink:href="#DejaVuSans-30" x="63.623047"/>
      </g>
     </g>
    </g>
    <g id="ytick_4">
     <g id="line2d_11">
      <g>
       <use xlink:href="#m5b29873d49" x="57.6" y="136.449449" style="stroke: #000000; stroke-width: 0.8"/>
      </g>
     </g>
     <g id="text_11">
      <!-- 20 -->
      <g transform="translate(37.875 140.248668) scale(0.1 -0.1)">
       <use xlink:href="#DejaVuSans-32"/>
       <use xlink:href="#DejaVuSans-30" x="63.623047"/>
      </g>
     </g>
    </g>
    <g id="ytick_5">
     <g id="line2d_12">
      <g>
       <use xlink:href="#m5b29873d49" x="57.6" y="81.082762" style="stroke: #000000; stroke-width: 0.8"/>
      </g>
     </g>
     <g id="text_12">
      <!-- 30 -->
      <g transform="translate(37.875 84.88198) scale(0.1 -0.1)">
       <use xlink:href="#DejaVuSans-33"/>
       <use xlink:href="#DejaVuSans-30" x="63.623047"/>
      </g>
     </g>
    </g>
   </g>
   <g id="line2d_13">
    <path d="M 73.832727 243.146205 
L 75.464157 232.500489 
L 77.095587 241.857948 
L 78.727017 247.489454 
L 80.358447 245.301898 
L 83.621307 242.096035 
L 85.252736 243.864568 
L 86.884166 250.14518 
L 88.515596 243.647645 
L 90.147026 250.281336 
L 91.778456 253.573525 
L 93.409886 254.765263 
L 95.041316 251.952876 
L 96.672746 254.783387 
L 98.304175 264.713882 
L 99.935605 255.159759 
L 101.567035 254.365173 
L 103.198465 251.222846 
L 104.829895 249.386444 
L 106.461325 254.949174 
L 108.092755 253.201167 
L 109.724185 245.891909 
L 111.355614 240.252929 
L 112.987044 241.280388 
L 114.618474 250.113394 
L 116.249904 251.066275 
L 117.881334 246.686422 
L 119.512764 243.75508 
L 121.144194 245.668456 
L 122.775624 240.685504 
L 124.407053 242.178518 
L 126.038483 230.018652 
L 127.669913 228.92704 
L 129.301343 220.735656 
L 130.932773 219.112016 
L 132.564203 222.241484 
L 134.195633 224.892509 
L 135.827063 219.981318 
L 137.458492 222.397631 
L 139.089922 222.756999 
L 140.721352 222.33182 
L 142.352782 219.766074 
L 143.984212 221.99391 
L 145.615642 230.41067 
L 147.247072 232.914589 
L 148.878502 229.892118 
L 150.509931 228.011947 
L 152.141361 223.525882 
L 153.772791 215.544039 
L 155.404221 214.493171 
L 157.035651 220.690402 
L 158.667081 225.764624 
L 160.298511 228.553608 
L 161.929941 224.279039 
L 163.56137 224.700605 
L 165.1928 233.493781 
L 166.82423 226.479767 
L 168.45566 224.471366 
L 170.08709 225.183928 
L 171.71852 229.84631 
L 173.34995 227.349193 
L 174.98138 235.183267 
L 176.61281 237.558979 
L 178.244239 246.702051 
L 179.875669 243.346206 
L 181.507099 247.204235 
L 183.138529 241.370709 
L 184.769959 232.335214 
L 186.401389 229.01776 
L 188.032819 231.110972 
L 189.664249 226.263001 
L 191.295678 228.502798 
L 192.927108 230.330122 
L 194.558538 236.788832 
L 196.189968 232.779732 
L 197.821398 237.76639 
L 199.452828 240.762563 
L 201.084258 240.548114 
L 202.715688 243.513602 
L 204.347117 243.818158 
L 205.978547 240.58337 
L 207.609977 240.401077 
L 209.241407 241.219421 
L 210.872837 240.883309 
L 212.504267 243.720381 
L 214.135697 243.224855 
L 215.767127 243.108185 
L 217.398556 234.038131 
L 219.029986 232.474458 
L 220.661416 228.352778 
L 222.292846 222.996701 
L 223.924276 222.83427 
L 225.555706 216.16711 
L 227.187136 215.911132 
L 228.818566 224.126183 
L 230.449995 222.278618 
L 232.081425 219.780415 
L 233.712855 226.141752 
L 235.344285 229.917969 
L 236.975715 230.937805 
L 238.607145 233.255636 
L 240.238575 233.69156 
L 241.870005 230.148075 
L 243.501434 227.317575 
L 245.132864 213.120383 
L 246.764294 200.561869 
L 248.395724 192.155466 
L 250.027154 193.660974 
L 251.658584 201.737807 
L 253.290014 196.547703 
L 254.921444 193.292757 
L 256.552873 189.605753 
L 258.184303 190.446525 
L 259.815733 188.465502 
L 261.447163 187.907 
L 263.078593 189.582999 
L 264.710023 183.646316 
L 266.341453 186.470366 
L 267.972883 169.986314 
L 269.604312 163.100872 
L 271.235742 155.19834 
L 272.867172 161.673869 
L 274.498602 163.424274 
L 276.130032 170.319548 
L 277.761462 169.737491 
L 279.392892 173.129384 
L 281.024322 160.609845 
L 282.655751 160.063875 
L 285.918611 143.445072 
L 287.550041 142.419252 
L 289.181471 150.49206 
L 290.812901 157.912579 
L 292.444331 155.292417 
L 294.075761 153.029682 
L 295.70719 161.219537 
L 297.33862 162.518658 
L 298.97005 160.617544 
L 300.60148 163.628848 
L 302.23291 163.778838 
L 303.86434 171.373543 
L 305.49577 170.259063 
L 307.1272 178.456128 
L 308.75863 175.920598 
L 310.390059 180.571363 
L 312.021489 172.343054 
L 313.652919 177.894473 
L 315.284349 179.559182 
L 316.915779 179.384555 
L 318.547209 172.331735 
L 320.178639 173.070627 
L 321.810069 167.346941 
L 323.441498 160.725215 
L 325.072928 166.518992 
L 326.704358 173.798851 
L 328.335788 173.472505 
L 331.598648 181.244826 
L 333.230078 171.416618 
L 334.861508 166.563765 
L 336.492937 171.114408 
L 338.124367 166.533969 
L 339.755797 156.211113 
L 341.387227 154.215215 
L 343.018657 169.443686 
L 344.650087 169.144989 
L 346.281517 177.645353 
L 347.912947 181.980604 
L 349.544376 188.546928 
L 351.175806 176.226759 
L 352.807236 178.016649 
L 354.438666 175.757975 
L 356.070096 179.053192 
L 357.701526 185.924794 
L 359.332956 188.36945 
L 360.964386 185.688379 
L 362.595815 188.608785 
L 364.227245 178.10291 
L 365.858675 174.205211 
L 367.490105 174.05111 
L 369.121535 179.001033 
L 370.752965 176.076532 
L 372.384395 185.222417 
L 374.015825 176.107835 
L 375.647254 179.97934 
L 377.278684 173.16105 
L 378.910114 177.884434 
L 380.541544 177.952381 
L 382.172974 175.463862 
L 383.804404 180.451597 
L 385.435834 182.347147 
L 387.067264 190.741253 
L 388.698693 176.560159 
L 390.330123 167.530616 
L 391.961553 169.6797 
L 393.592983 172.616448 
L 395.224413 177.798416 
L 398.487273 183.542686 
L 398.487273 183.542686 
" clip-path="url(#p94386b4e85)" style="fill: none; stroke: #000000; stroke-width: 2; stroke-linecap: square"/>
   </g>
   <g id="line2d_14">
    <path d="M 73.832727 249.222222 
L 75.464157 257.061161 
L 77.095587 254.37492 
L 78.727017 253.32235 
L 80.358447 251.69025 
L 81.989877 244.507002 
L 83.621307 258.285811 
L 85.252736 264.664778 
L 86.884166 264.439604 
L 88.515596 265.764956 
L 90.147026 257.894232 
L 91.778456 271.611552 
L 93.409886 266.355873 
L 95.041316 264.750372 
L 96.672746 264.567377 
L 98.304175 260.260452 
L 99.935605 260.265436 
L 101.567035 264.781682 
L 103.198465 265.941422 
L 104.829895 268.495003 
L 106.461325 263.86033 
L 108.092755 258.024575 
L 109.724185 260.352772 
L 111.355614 253.166968 
L 112.987044 259.951064 
L 114.618474 259.409392 
L 116.249904 268.642332 
L 117.881334 274.955664 
L 119.512764 277.682893 
L 121.144194 274.760878 
L 122.775624 286.576048 
L 124.407053 285.442598 
L 126.038483 277.215715 
L 127.669913 282.299771 
L 129.301343 283.768293 
L 130.932773 287.317873 
L 132.564203 286.90672 
L 134.195633 276.343091 
L 135.827063 276.667807 
L 137.458492 265.168635 
L 139.089922 263.973937 
L 140.721352 264.392151 
L 142.352782 258.93724 
L 143.984212 263.943063 
L 145.615642 255.427134 
L 147.247072 262.02173 
L 148.878502 266.392377 
L 150.509931 263.314903 
L 152.141361 255.861437 
L 155.404221 247.912254 
L 157.035651 244.549244 
L 158.667081 258.89648 
L 160.298511 254.97297 
L 161.929941 247.151769 
L 163.56137 244.255202 
L 165.1928 241.975614 
L 166.82423 232.017395 
L 168.45566 231.461295 
L 170.08709 231.339387 
L 171.71852 234.27981 
L 173.34995 232.31592 
L 174.98138 238.623873 
L 176.61281 241.631147 
L 178.244239 244.926127 
L 179.875669 246.456396 
L 181.507099 243.831478 
L 183.138529 250.963669 
L 186.401389 250.178559 
L 188.032819 250.969226 
L 189.664249 253.489565 
L 191.295678 246.216106 
L 192.927108 253.848256 
L 194.558538 256.182296 
L 196.189968 258.092907 
L 197.821398 251.648069 
L 199.452828 249.333637 
L 201.084258 262.387533 
L 202.715688 262.822448 
L 204.347117 265.658172 
L 205.978547 268.028463 
L 207.609977 258.023325 
L 209.241407 272.550903 
L 210.872837 265.428425 
L 212.504267 268.710785 
L 214.135697 262.568226 
L 215.767127 257.462809 
L 217.398556 259.972293 
L 219.029986 258.436036 
L 220.661416 266.727771 
L 222.292846 274.084481 
L 223.924276 290.108271 
L 225.555706 295.488 
L 227.187136 290.32835 
L 228.818566 291.249053 
L 230.449995 284.413363 
L 232.081425 291.414336 
L 233.712855 284.759206 
L 235.344285 280.158647 
L 236.975715 273.071098 
L 238.607145 276.75166 
L 240.238575 276.543501 
L 241.870005 268.800024 
L 243.501434 263.593602 
L 245.132864 264.766733 
L 246.764294 259.423793 
L 248.395724 259.579989 
L 250.027154 253.712557 
L 251.658584 249.316141 
L 253.290014 242.45291 
L 254.921444 248.91503 
L 256.552873 245.922314 
L 258.184303 241.879325 
L 259.815733 239.053055 
L 261.447163 246.529781 
L 263.078593 252.167465 
L 264.710023 246.189023 
L 266.341453 245.30911 
L 267.972883 242.192835 
L 269.604312 253.89855 
L 271.235742 252.343897 
L 272.867172 251.704317 
L 274.498602 238.936535 
L 276.130032 243.726456 
L 277.761462 239.57941 
L 279.392892 242.843111 
L 281.024322 243.506559 
L 282.655751 240.59046 
L 284.287181 247.987848 
L 285.918611 249.109531 
L 287.550041 243.525123 
L 289.181471 246.604056 
L 290.812901 243.782578 
L 292.444331 240.594401 
L 294.075761 244.732679 
L 295.70719 243.619418 
L 297.33862 230.151774 
L 298.97005 232.362255 
L 300.60148 226.50565 
L 302.23291 227.720822 
L 303.86434 228.055548 
L 305.49577 225.668505 
L 307.1272 228.188049 
L 308.75863 224.228367 
L 310.390059 227.09041 
L 312.021489 222.668291 
L 313.652919 230.338776 
L 315.284349 231.024658 
L 316.915779 220.896846 
L 318.547209 220.530234 
L 320.178639 218.255646 
L 321.810069 220.836901 
L 323.441498 220.214077 
L 325.072928 221.427229 
L 326.704358 227.260144 
L 328.335788 231.873052 
L 329.967218 226.383062 
L 331.598648 227.843888 
L 333.230078 233.874716 
L 334.861508 239.288187 
L 336.492937 235.729422 
L 338.124367 238.158191 
L 339.755797 235.932204 
L 341.387227 248.301569 
L 343.018657 245.502827 
L 344.650087 236.637503 
L 346.281517 238.062281 
L 349.544376 234.61365 
L 351.175806 241.126703 
L 352.807236 244.305315 
L 354.438666 248.70502 
L 356.070096 242.155004 
L 357.701526 242.535648 
L 359.332956 244.289823 
L 360.964386 251.200918 
L 362.595815 243.654418 
L 364.227245 238.660961 
L 365.858675 237.569851 
L 367.490105 234.658334 
L 369.121535 236.895371 
L 370.752965 225.357184 
L 372.384395 231.524047 
L 374.015825 229.887614 
L 375.647254 231.591844 
L 377.278684 232.174575 
L 378.910114 225.956074 
L 380.541544 224.931743 
L 382.172974 218.947044 
L 383.804404 226.218363 
L 385.435834 234.308603 
L 387.067264 231.738842 
L 388.698693 231.896582 
L 390.330123 221.39299 
L 391.961553 224.897784 
L 393.592983 231.284807 
L 395.224413 239.718489 
L 396.855843 245.899072 
L 398.487273 252.971915 
L 398.487273 252.971915 
" clip-path="url(#p94386b4e85)" style="fill: none; stroke: #bfbf00; stroke-width: 2; stroke-linecap: square"/>
   </g>
   <g id="line2d_15">
    <path d="M 73.832727 237.864007 
L 75.464157 243.062771 
L 77.095587 235.807758 
L 78.727017 239.075313 
L 80.358447 240.889426 
L 81.989877 249.070454 
L 83.621307 249.375837 
L 85.252736 248.828109 
L 86.884166 241.078849 
L 88.515596 242.493508 
L 90.147026 234.842025 
L 91.778456 237.240658 
L 93.409886 233.664243 
L 95.041316 240.324925 
L 98.304175 246.814635 
L 99.935605 239.233447 
L 101.567035 230.832479 
L 103.198465 238.879482 
L 104.829895 234.115936 
L 106.461325 236.69427 
L 108.092755 237.51722 
L 109.724185 235.021932 
L 111.355614 237.988137 
L 112.987044 235.068991 
L 114.618474 239.30677 
L 116.249904 241.552783 
L 117.881334 250.725414 
L 119.512764 256.01904 
L 121.144194 254.514225 
L 122.775624 244.273618 
L 124.407053 235.971319 
L 126.038483 233.158204 
L 127.669913 231.928917 
L 129.301343 233.99007 
L 130.932773 238.058212 
L 132.564203 238.573021 
L 134.195633 237.677437 
L 135.827063 242.474267 
L 137.458492 237.80341 
L 139.089922 244.882947 
L 140.721352 236.445919 
L 142.352782 229.962929 
L 143.984212 225.943992 
L 145.615642 228.279108 
L 147.247072 225.683032 
L 148.878502 225.664026 
L 150.509931 227.142022 
L 152.141361 226.334109 
L 153.772791 224.987741 
L 155.404221 213.512871 
L 157.035651 211.879227 
L 158.667081 218.456663 
L 160.298511 222.813104 
L 161.929941 217.479672 
L 163.56137 222.85634 
L 165.1928 206.379678 
L 166.82423 204.734933 
L 168.45566 207.725311 
L 170.08709 206.918662 
L 173.34995 203.759475 
L 174.98138 195.361059 
L 176.61281 188.404217 
L 178.244239 197.230642 
L 179.875669 194.454675 
L 181.507099 193.241343 
L 183.138529 184.773877 
L 184.769959 188.46711 
L 186.401389 187.478094 
L 188.032819 185.751944 
L 189.664249 183.798597 
L 191.295678 180.95276 
L 192.927108 183.615287 
L 194.558538 178.18394 
L 196.189968 178.914581 
L 197.821398 183.901137 
L 199.452828 189.406338 
L 201.084258 185.735916 
L 202.715688 195.855893 
L 204.347117 191.431603 
L 205.978547 201.477845 
L 207.609977 199.849344 
L 209.241407 198.540309 
L 210.872837 186.70548 
L 212.504267 180.219735 
L 214.135697 183.849481 
L 215.767127 181.520121 
L 217.398556 179.856051 
L 219.029986 176.787048 
L 220.661416 174.995238 
L 222.292846 177.004433 
L 223.924276 177.090231 
L 225.555706 165.425668 
L 228.818566 159.772165 
L 230.449995 153.879702 
L 232.081425 150.824167 
L 233.712855 146.834173 
L 235.344285 143.290984 
L 236.975715 149.609316 
L 238.607145 145.136112 
L 240.238575 136.630681 
L 241.870005 131.543508 
L 243.501434 134.755161 
L 245.132864 127.480934 
L 246.764294 123.498782 
L 248.395724 120.11331 
L 250.027154 123.062945 
L 253.290014 127.895311 
L 254.921444 133.24906 
L 256.552873 139.421979 
L 258.184303 139.157933 
L 259.815733 144.195561 
L 261.447163 132.657122 
L 263.078593 134.738461 
L 264.710023 134.927268 
L 266.341453 131.819797 
L 267.972883 132.40698 
L 269.604312 130.127546 
L 271.235742 125.631286 
L 272.867172 118.448081 
L 274.498602 127.627826 
L 276.130032 142.225627 
L 277.761462 142.387307 
L 279.392892 141.455447 
L 281.024322 139.11708 
L 282.655751 141.864327 
L 284.287181 141.7038 
L 285.918611 138.821244 
L 287.550041 137.627129 
L 289.181471 130.277885 
L 290.812901 127.489262 
L 292.444331 130.287449 
L 294.075761 130.633495 
L 295.70719 135.70405 
L 298.97005 149.775943 
L 300.60148 147.915419 
L 302.23291 140.037747 
L 303.86434 147.793373 
L 305.49577 154.043107 
L 307.1272 153.433362 
L 308.75863 144.963608 
L 310.390059 135.610397 
L 312.021489 128.610291 
L 313.652919 122.467438 
L 315.284349 112.259181 
L 316.915779 110.350178 
L 318.547209 107.555586 
L 320.178639 112.788017 
L 321.810069 106.860116 
L 323.441498 109.138535 
L 325.072928 106.96844 
L 326.704358 100.216139 
L 328.335788 102.240892 
L 331.598648 108.453178 
L 333.230078 102.595585 
L 334.861508 95.329691 
L 338.124367 90.140382 
L 339.755797 86.532427 
L 341.387227 81.605956 
L 343.018657 75.535881 
L 344.650087 77.600118 
L 347.912947 83.493449 
L 349.544376 83.416693 
L 351.175806 79.021656 
L 352.807236 78.720684 
L 354.438666 84.542518 
L 356.070096 74.869608 
L 357.701526 65.874663 
L 359.332956 72.568317 
L 360.964386 69.272236 
L 362.595815 68.945851 
L 364.227245 58.776076 
L 365.858675 56.343759 
L 367.490105 64.677648 
L 369.121535 64.982828 
L 370.752965 61.68347 
L 372.384395 59.939672 
L 374.015825 60.423241 
L 375.647254 61.548765 
L 377.278684 54.770399 
L 378.910114 63.61861 
L 380.541544 59.524744 
L 382.172974 60.59404 
L 383.804404 53.724743 
L 385.435834 58.511293 
L 387.067264 62.41107 
L 388.698693 62.714066 
L 390.330123 55.504031 
L 391.961553 53.568 
L 393.592983 63.581936 
L 395.224413 65.145127 
L 398.487273 75.564377 
L 398.487273 75.564377 
" clip-path="url(#p94386b4e85)" style="fill: none; stroke: #bf00bf; stroke-width: 2; stroke-linecap: square"/>
   </g>
   <g id="patch_3">
    <path d="M 57.6 307.584 
L 57.6 41.472 
" style="fill: none; stroke: #000000; stroke-width: 0.8; stroke-linejoin: miter; stroke-linecap: square"/>
   </g>
   <g id="patch_4">
    <path d="M 414.72 307.584 
L 414.72 41.472 
" style="fill: none; stroke: #000000; stroke-width: 0.8; stroke-linejoin: miter; stroke-linecap: square"/>
   </g>
   <g id="patch_5">
    <path d="M 57.6 307.584 
L 414.72 307.584 
" style="fill: none; stroke: #000000; stroke-width: 0.8; stroke-linejoin: miter; stroke-linecap: square"/>
   </g>
   <g id="patch_6">
    <path d="M 57.6 41.472 
L 414.72 41.472 
" style="fill: none; stroke: #000000; stroke-width: 0.8; stroke-linejoin: miter; stroke-linecap: square"/>
   </g>
  </g>
 </g>
 <defs>
  <clipPath id="p94386b4e85">
   <rect x="57.6" y="41.472" width="357.12" height="266.112"/>
  </clipPath>
 </defs>
</svg>
