<?xml version="1.0" encoding="utf-8" standalone="no"?>
<!DOCTYPE svg PUBLIC "-//W3C//DTD SVG 1.1//EN"
  "http://www.w3.org/Graphics/SVG/1.1/DTD/svg11.dtd">
<svg xmlns:xlink="http://www.w3.org/1999/xlink" width="576pt" height="288pt" viewBox="0 0 576 288" xmlns="http://www.w3.org/2000/svg" version="1.1">
 <metadata>
  <rdf:RDF xmlns:dc="http://purl.org/dc/elements/1.1/" xmlns:cc="http://creativecommons.org/ns#" xmlns:rdf="http://www.w3.org/1999/02/22-rdf-syntax-ns#">
   <cc:Work>
    <dc:type rdf:resource="http://purl.org/dc/dcmitype/StillImage"/>
    <dc:date>2023-11-25T18:39:00.318585</dc:date>
    <dc:format>image/svg+xml</dc:format>
    <dc:creator>
     <cc:Agent>
      <dc:title>Matplotlib v3.8.1, https://matplotlib.org/</dc:title>
     </cc:Agent>
    </dc:creator>
   </cc:Work>
  </rdf:RDF>
 </metadata>
 <defs>
  <style type="text/css">*{stroke-linejoin: round; stroke-linecap: butt}</style>
 </defs>
 <g id="figure_1">
  <g id="patch_1">
   <path d="M 0 288 
L 576 288 
L 576 0 
L 0 0 
z
" style="fill: #ffffff"/>
  </g>
  <g id="axes_1">
   <g id="patch_2">
    <path d="M 72 256.32 
L 518.4 256.32 
L 518.4 34.56 
L 72 34.56 
z
" style="fill: #ffffff"/>
   </g>
   <g id="matplotlib.axis_1">
    <g id="xtick_1">
     <g id="line2d_1">
      <defs>
       <path id="m99c1fb8bb4" d="M 0 0 
L 0 3.5 
" style="stroke: #000000; stroke-width: 0.8"/>
      </defs>
      <g>
       <use xlink:href="#m99c1fb8bb4" x="94.330196" y="256.32" style="stroke: #000000; stroke-width: 0.8"/>
      </g>
     </g>
     <g id="text_1">
      <!-- 2024-01 -->
      <g transform="translate(73.43879 270.918437) scale(0.1 -0.1)">
       <defs>
        <path id="DejaVuSans-32" d="M 1228 531 
L 3431 531 
L 3431 0 
L 469 0 
L 469 531 
Q 828 903 1448 1529 
Q 2069 2156 2228 2338 
Q 2531 2678 2651 2914 
Q 2772 3150 2772 3378 
Q 2772 3750 2511 3984 
Q 2250 4219 1831 4219 
Q 1534 4219 1204 4116 
Q 875 4013 500 3803 
L 500 4441 
Q 881 4594 1212 4672 
Q 1544 4750 1819 4750 
Q 2544 4750 2975 4387 
Q 3406 4025 3406 3419 
Q 3406 3131 3298 2873 
Q 3191 2616 2906 2266 
Q 2828 2175 2409 1742 
Q 1991 1309 1228 531 
z
" transform="scale(0.015625)"/>
        <path id="DejaVuSans-30" d="M 2034 4250 
Q 1547 4250 1301 3770 
Q 1056 3291 1056 2328 
Q 1056 1369 1301 889 
Q 1547 409 2034 409 
Q 2525 409 2770 889 
Q 3016 1369 3016 2328 
Q 3016 3291 2770 3770 
Q 2525 4250 2034 4250 
z
M 2034 4750 
Q 2819 4750 3233 4129 
Q 3647 3509 3647 2328 
Q 3647 1150 3233 529 
Q 2819 -91 2034 -91 
Q 1250 -91 836 529 
Q 422 1150 422 2328 
Q 422 3509 836 4129 
Q 1250 4750 2034 4750 
z
" transform="scale(0.015625)"/>
        <path id="DejaVuSans-34" d="M 2419 4116 
L 825 1625 
L 2419 1625 
L 2419 4116 
z
M 2253 4666 
L 3047 4666 
L 3047 1625 
L 3713 1625 
L 3713 1100 
L 3047 1100 
L 3047 0 
L 2419 0 
L 2419 1100 
L 313 1100 
L 313 1709 
L 2253 4666 
z
" transform="scale(0.015625)"/>
        <path id="DejaVuSans-2d" d="M 313 2009 
L 1997 2009 
L 1997 1497 
L 313 1497 
L 313 2009 
z
" transform="scale(0.015625)"/>
        <path id="DejaVuSans-31" d="M 794 531 
L 1825 531 
L 1825 4091 
L 703 3866 
L 703 4441 
L 1819 4666 
L 2450 4666 
L 2450 531 
L 3481 531 
L 3481 0 
L 794 0 
L 794 531 
z
" transform="scale(0.015625)"/>
       </defs>
       <use xlink:href="#DejaVuSans-32"/>
       <use xlink:href="#DejaVuSans-30" x="63.623047"/>
       <use xlink:href="#DejaVuSans-32" x="127.246094"/>
       <use xlink:href="#DejaVuSans-34" x="190.869141"/>
       <use xlink:href="#DejaVuSans-2d" x="254.492188"/>
       <use xlink:href="#DejaVuSans-30" x="290.576172"/>
       <use xlink:href="#DejaVuSans-31" x="354.199219"/>
      </g>
     </g>
    </g>
    <g id="xtick_2">
     <g id="line2d_2">
      <g>
       <use xlink:href="#m99c1fb8bb4" x="157.548104" y="256.32" style="stroke: #000000; stroke-width: 0.8"/>
      </g>
     </g>
     <g id="text_2">
      <!-- 2024-02 -->
      <g transform="translate(136.656698 270.918437) scale(0.1 -0.1)">
       <use xlink:href="#DejaVuSans-32"/>
       <use xlink:href="#DejaVuSans-30" x="63.623047"/>
       <use xlink:href="#DejaVuSans-32" x="127.246094"/>
       <use xlink:href="#DejaVuSans-34" x="190.869141"/>
       <use xlink:href="#DejaVuSans-2d" x="254.492188"/>
       <use xlink:href="#DejaVuSans-30" x="290.576172"/>
       <use xlink:href="#DejaVuSans-32" x="354.199219"/>
      </g>
     </g>
    </g>
    <g id="xtick_3">
     <g id="line2d_3">
      <g>
       <use xlink:href="#m99c1fb8bb4" x="216.687437" y="256.32" style="stroke: #000000; stroke-width: 0.8"/>
      </g>
     </g>
     <g id="text_3">
      <!-- 2024-03 -->
      <g transform="translate(195.796031 270.918437) scale(0.1 -0.1)">
       <defs>
        <path id="DejaVuSans-33" d="M 2597 2516 
Q 3050 2419 3304 2112 
Q 3559 1806 3559 1356 
Q 3559 666 3084 287 
Q 2609 -91 1734 -91 
Q 1441 -91 1130 -33 
Q 819 25 488 141 
L 488 750 
Q 750 597 1062 519 
Q 1375 441 1716 441 
Q 2309 441 2620 675 
Q 2931 909 2931 1356 
Q 2931 1769 2642 2001 
Q 2353 2234 1838 2234 
L 1294 2234 
L 1294 2753 
L 1863 2753 
Q 2328 2753 2575 2939 
Q 2822 3125 2822 3475 
Q 2822 3834 2567 4026 
Q 2313 4219 1838 4219 
Q 1578 4219 1281 4162 
Q 984 4106 628 3988 
L 628 4550 
Q 988 4650 1302 4700 
Q 1616 4750 1894 4750 
Q 2613 4750 3031 4423 
Q 3450 4097 3450 3541 
Q 3450 3153 3228 2886 
Q 3006 2619 2597 2516 
z
" transform="scale(0.015625)"/>
       </defs>
       <use xlink:href="#DejaVuSans-32"/>
       <use xlink:href="#DejaVuSans-30" x="63.623047"/>
       <use xlink:href="#DejaVuSans-32" x="127.246094"/>
       <use xlink:href="#DejaVuSans-34" x="190.869141"/>
       <use xlink:href="#DejaVuSans-2d" x="254.492188"/>
       <use xlink:href="#DejaVuSans-30" x="290.576172"/>
       <use xlink:href="#DejaVuSans-33" x="354.199219"/>
      </g>
     </g>
    </g>
    <g id="xtick_4">
     <g id="line2d_4">
      <g>
       <use xlink:href="#m99c1fb8bb4" x="279.905345" y="256.32" style="stroke: #000000; stroke-width: 0.8"/>
      </g>
     </g>
     <g id="text_4">
      <!-- 2024-04 -->
      <g transform="translate(259.013939 270.918437) scale(0.1 -0.1)">
       <use xlink:href="#DejaVuSans-32"/>
       <use xlink:href="#DejaVuSans-30" x="63.623047"/>
       <use xlink:href="#DejaVuSans-32" x="127.246094"/>
       <use xlink:href="#DejaVuSans-34" x="190.869141"/>
       <use xlink:href="#DejaVuSans-2d" x="254.492188"/>
       <use xlink:href="#DejaVuSans-30" x="290.576172"/>
       <use xlink:href="#DejaVuSans-34" x="354.199219"/>
      </g>
     </g>
    </g>
    <g id="xtick_5">
     <g id="line2d_5">
      <g>
       <use xlink:href="#m99c1fb8bb4" x="341.083965" y="256.32" style="stroke: #000000; stroke-width: 0.8"/>
      </g>
     </g>
     <g id="text_5">
      <!-- 2024-05 -->
      <g transform="translate(320.192559 270.918437) scale(0.1 -0.1)">
       <defs>
        <path id="DejaVuSans-35" d="M 691 4666 
L 3169 4666 
L 3169 4134 
L 1269 4134 
L 1269 2991 
Q 1406 3038 1543 3061 
Q 1681 3084 1819 3084 
Q 2600 3084 3056 2656 
Q 3513 2228 3513 1497 
Q 3513 744 3044 326 
Q 2575 -91 1722 -91 
Q 1428 -91 1123 -41 
Q 819 9 494 109 
L 494 744 
Q 775 591 1075 516 
Q 1375 441 1709 441 
Q 2250 441 2565 725 
Q 2881 1009 2881 1497 
Q 2881 1984 2565 2268 
Q 2250 2553 1709 2553 
Q 1456 2553 1204 2497 
Q 953 2441 691 2322 
L 691 4666 
z
" transform="scale(0.015625)"/>
       </defs>
       <use xlink:href="#DejaVuSans-32"/>
       <use xlink:href="#DejaVuSans-30" x="63.623047"/>
       <use xlink:href="#DejaVuSans-32" x="127.246094"/>
       <use xlink:href="#DejaVuSans-34" x="190.869141"/>
       <use xlink:href="#DejaVuSans-2d" x="254.492188"/>
       <use xlink:href="#DejaVuSans-30" x="290.576172"/>
       <use xlink:href="#DejaVuSans-35" x="354.199219"/>
      </g>
     </g>
    </g>
    <g id="xtick_6">
     <g id="line2d_6">
      <g>
       <use xlink:href="#m99c1fb8bb4" x="404.301873" y="256.32" style="stroke: #000000; stroke-width: 0.8"/>
      </g>
     </g>
     <g id="text_6">
      <!-- 2024-06 -->
      <g transform="translate(383.410467 270.918437) scale(0.1 -0.1)">
       <defs>
        <path id="DejaVuSans-36" d="M 2113 2584 
Q 1688 2584 1439 2293 
Q 1191 2003 1191 1497 
Q 1191 994 1439 701 
Q 1688 409 2113 409 
Q 2538 409 2786 701 
Q 3034 994 3034 1497 
Q 3034 2003 2786 2293 
Q 2538 2584 2113 2584 
z
M 3366 4563 
L 3366 3988 
Q 3128 4100 2886 4159 
Q 2644 4219 2406 4219 
Q 1781 4219 1451 3797 
Q 1122 3375 1075 2522 
Q 1259 2794 1537 2939 
Q 1816 3084 2150 3084 
Q 2853 3084 3261 2657 
Q 3669 2231 3669 1497 
Q 3669 778 3244 343 
Q 2819 -91 2113 -91 
Q 1303 -91 875 529 
Q 447 1150 447 2328 
Q 447 3434 972 4092 
Q 1497 4750 2381 4750 
Q 2619 4750 2861 4703 
Q 3103 4656 3366 4563 
z
" transform="scale(0.015625)"/>
       </defs>
       <use xlink:href="#DejaVuSans-32"/>
       <use xlink:href="#DejaVuSans-30" x="63.623047"/>
       <use xlink:href="#DejaVuSans-32" x="127.246094"/>
       <use xlink:href="#DejaVuSans-34" x="190.869141"/>
       <use xlink:href="#DejaVuSans-2d" x="254.492188"/>
       <use xlink:href="#DejaVuSans-30" x="290.576172"/>
       <use xlink:href="#DejaVuSans-36" x="354.199219"/>
      </g>
     </g>
    </g>
    <g id="xtick_7">
     <g id="line2d_7">
      <g>
       <use xlink:href="#m99c1fb8bb4" x="465.480493" y="256.32" style="stroke: #000000; stroke-width: 0.8"/>
      </g>
     </g>
     <g id="text_7">
      <!-- 2024-07 -->
      <g transform="translate(444.589087 270.918437) scale(0.1 -0.1)">
       <defs>
        <path id="DejaVuSans-37" d="M 525 4666 
L 3525 4666 
L 3525 4397 
L 1831 0 
L 1172 0 
L 2766 4134 
L 525 4134 
L 525 4666 
z
" transform="scale(0.015625)"/>
       </defs>
       <use xlink:href="#DejaVuSans-32"/>
       <use xlink:href="#DejaVuSans-30" x="63.623047"/>
       <use xlink:href="#DejaVuSans-32" x="127.246094"/>
       <use xlink:href="#DejaVuSans-34" x="190.869141"/>
       <use xlink:href="#DejaVuSans-2d" x="254.492188"/>
       <use xlink:href="#DejaVuSans-30" x="290.576172"/>
       <use xlink:href="#DejaVuSans-37" x="354.199219"/>
      </g>
     </g>
    </g>
   </g>
   <g id="matplotlib.axis_2">
    <g id="ytick_1">
     <g id="line2d_8">
      <defs>
       <path id="m04445a3bcc" d="M 0 0 
L -3.5 0 
" style="stroke: #000000; stroke-width: 0.8"/>
      </defs>
      <g>
       <use xlink:href="#m04445a3bcc" x="72" y="252.124592" style="stroke: #000000; stroke-width: 0.8"/>
      </g>
     </g>
     <g id="text_8">
      <!-- −10 -->
      <g transform="translate(43.895313 255.923811) scale(0.1 -0.1)">
       <defs>
        <path id="DejaVuSans-2212" d="M 678 2272 
L 4684 2272 
L 4684 1741 
L 678 1741 
L 678 2272 
z
" transform="scale(0.015625)"/>
       </defs>
       <use xlink:href="#DejaVuSans-2212"/>
       <use xlink:href="#DejaVuSans-31" x="83.789062"/>
       <use xlink:href="#DejaVuSans-30" x="147.412109"/>
      </g>
     </g>
    </g>
    <g id="ytick_2">
     <g id="line2d_9">
      <g>
       <use xlink:href="#m04445a3bcc" x="72" y="205.985686" style="stroke: #000000; stroke-width: 0.8"/>
      </g>
     </g>
     <g id="text_9">
      <!-- 0 -->
      <g transform="translate(58.6375 209.784905) scale(0.1 -0.1)">
       <use xlink:href="#DejaVuSans-30"/>
      </g>
     </g>
    </g>
    <g id="ytick_3">
     <g id="line2d_10">
      <g>
       <use xlink:href="#m04445a3bcc" x="72" y="159.84678" style="stroke: #000000; stroke-width: 0.8"/>
      </g>
     </g>
     <g id="text_10">
      <!-- 10 -->
      <g transform="translate(52.275 163.645999) scale(0.1 -0.1)">
       <use xlink:href="#DejaVuSans-31"/>
       <use xlink:href="#DejaVuSans-30" x="63.623047"/>
      </g>
     </g>
    </g>
    <g id="ytick_4">
     <g id="line2d_11">
      <g>
       <use xlink:href="#m04445a3bcc" x="72" y="113.707874" style="stroke: #000000; stroke-width: 0.8"/>
      </g>
     </g>
     <g id="text_11">
      <!-- 20 -->
      <g transform="translate(52.275 117.507093) scale(0.1 -0.1)">
       <use xlink:href="#DejaVuSans-32"/>
       <use xlink:href="#DejaVuSans-30" x="63.623047"/>
      </g>
     </g>
    </g>
    <g id="ytick_5">
     <g id="line2d_12">
      <g>
       <use xlink:href="#m04445a3bcc" x="72" y="67.568968" style="stroke: #000000; stroke-width: 0.8"/>
      </g>
     </g>
     <g id="text_12">
      <!-- 30 -->
      <g transform="translate(52.275 71.368187) scale(0.1 -0.1)">
       <use xlink:href="#DejaVuSans-33"/>
       <use xlink:href="#DejaVuSans-30" x="63.623047"/>
      </g>
     </g>
    </g>
   </g>
   <g id="line2d_13">
    <path d="M 92.290909 202.621837 
L 94.330196 193.750407 
L 96.369484 201.54829 
L 98.408771 206.241211 
L 100.448058 204.418249 
L 104.526633 201.746696 
L 106.565921 203.220474 
L 108.605208 208.454316 
L 110.644495 203.039704 
L 112.683783 208.56778 
L 114.72307 211.311271 
L 116.762357 212.304386 
L 118.801645 209.96073 
L 120.840932 212.319489 
L 122.880219 220.594901 
L 124.919507 212.633132 
L 126.958794 211.970978 
L 128.998081 209.352372 
L 131.037369 207.822036 
L 133.076656 212.457645 
L 135.115943 211.000973 
L 137.155231 204.909924 
L 139.194518 200.210774 
L 141.233805 201.06699 
L 143.273093 208.427829 
L 145.31238 209.221896 
L 147.351667 205.572018 
L 149.390955 203.129233 
L 151.430242 204.723713 
L 153.469529 200.571254 
L 155.508817 201.815432 
L 157.548104 191.68221 
L 159.587392 190.772533 
L 161.626679 183.94638 
L 163.665966 182.593347 
L 165.705254 185.201236 
L 167.744541 187.410425 
L 169.783828 183.317765 
L 171.823116 185.331359 
L 173.862403 185.630833 
L 175.90169 185.276517 
L 177.940978 183.138395 
L 179.980265 184.994925 
L 182.019552 192.008891 
L 184.05884 194.095491 
L 186.098127 191.576765 
L 188.137414 190.009956 
L 190.176702 186.271568 
L 192.215989 179.620033 
L 194.255276 178.744309 
L 196.294564 183.908668 
L 198.333851 188.137187 
L 200.373138 190.46134 
L 202.412426 186.899199 
L 204.451713 187.250505 
L 206.491 194.578151 
L 208.530288 188.733139 
L 210.569575 187.059472 
L 212.608862 187.653274 
L 214.64815 191.538592 
L 216.687437 189.457661 
L 218.726725 195.986056 
L 220.766012 197.965816 
L 222.805299 205.585042 
L 224.844587 202.788505 
L 226.883874 206.00353 
L 228.923161 201.142257 
L 230.962449 193.612679 
L 233.001736 190.848133 
L 235.041023 192.592476 
L 237.080311 188.552501 
L 239.119598 190.418998 
L 241.158885 191.941769 
L 243.198173 197.324026 
L 245.23746 193.98311 
L 247.276747 198.138659 
L 249.316035 200.635469 
L 251.355322 200.456761 
L 253.394609 202.928001 
L 255.433897 203.181798 
L 257.473184 200.486141 
L 259.512471 200.334231 
L 261.551759 201.016184 
L 263.591046 200.736091 
L 265.630333 203.100318 
L 267.669621 202.687379 
L 269.708908 202.590154 
L 271.748196 195.031776 
L 273.787483 193.728715 
L 275.82677 190.293982 
L 277.866058 185.830584 
L 279.905345 185.695225 
L 281.944632 180.139258 
L 283.98392 179.925944 
L 286.023207 186.771819 
L 288.062494 185.232182 
L 290.101782 183.150346 
L 292.141069 188.45146 
L 294.180356 191.598308 
L 296.219644 192.448171 
L 298.258931 194.379697 
L 300.298218 194.742967 
L 302.337506 191.790063 
L 304.376793 189.431312 
L 306.41608 177.600319 
L 308.455368 167.134891 
L 310.494655 160.129555 
L 312.533942 161.384145 
L 314.57323 168.114839 
L 316.612517 163.789753 
L 318.651804 161.077297 
L 320.691092 158.004794 
L 322.730379 158.705437 
L 324.769667 157.054585 
L 326.808954 156.589167 
L 328.848241 157.985833 
L 330.887529 153.038596 
L 332.926816 155.391972 
L 334.966103 141.655262 
L 337.005391 135.917394 
L 339.044678 129.33195 
L 341.083965 134.728225 
L 343.123253 136.186895 
L 345.16254 141.932956 
L 347.201827 141.447909 
L 349.241115 144.274487 
L 351.280402 133.841537 
L 353.319689 133.386563 
L 355.358977 126.251213 
L 357.398264 119.53756 
L 359.437551 118.68271 
L 361.476839 125.41005 
L 363.516126 131.593816 
L 365.555413 129.410348 
L 367.594701 127.524735 
L 369.633988 134.349614 
L 371.673275 135.432215 
L 373.712563 133.847953 
L 375.75185 136.357373 
L 377.791138 136.482365 
L 379.830425 142.811286 
L 381.869712 141.882553 
L 383.909 148.71344 
L 385.948287 146.600498 
L 387.987574 150.476136 
L 390.026862 143.619212 
L 392.066149 148.245394 
L 394.105436 149.632652 
L 396.144724 149.487129 
L 398.184011 143.609779 
L 400.223298 144.225522 
L 402.262586 139.455784 
L 404.301873 133.937679 
L 406.34116 138.765827 
L 408.380448 144.832376 
L 410.419735 144.560421 
L 414.49831 151.037355 
L 416.537597 142.847181 
L 418.576884 138.803138 
L 420.616172 142.59534 
L 422.655459 138.778308 
L 424.694746 130.175928 
L 426.734034 128.512679 
L 428.773321 141.203072 
L 430.812608 140.954158 
L 432.851896 148.037794 
L 434.891183 151.650504 
L 436.930471 157.12244 
L 438.969758 146.855632 
L 441.009045 148.347207 
L 443.048333 146.464979 
L 445.08762 149.210993 
L 447.126907 154.937328 
L 449.166195 156.974542 
L 451.205482 154.740316 
L 453.244769 157.173987 
L 455.284057 148.419092 
L 457.323344 145.17101 
L 459.362631 145.042592 
L 461.401919 149.167528 
L 463.441206 146.730443 
L 465.480493 154.352014 
L 467.519781 146.756529 
L 469.559068 149.982783 
L 471.598355 144.300875 
L 473.637643 148.237028 
L 475.67693 148.293651 
L 477.716217 146.219885 
L 479.755505 150.37633 
L 481.794792 151.955956 
L 483.834079 158.951044 
L 485.873367 147.133466 
L 487.912654 139.608847 
L 489.951942 141.39975 
L 491.991229 143.84704 
L 494.030516 148.165347 
L 496.069804 150.653382 
L 498.109091 152.952238 
L 498.109091 152.952238 
" clip-path="url(#p8688b43fc0)" style="fill: none; stroke: #000000; stroke-width: 2; stroke-linecap: square"/>
   </g>
   <g id="line2d_14">
    <path d="M 92.290909 207.685185 
L 94.330196 214.217634 
L 96.369484 211.9791 
L 98.408771 211.101958 
L 100.448058 209.741875 
L 102.487346 203.755835 
L 104.526633 215.238176 
L 106.565921 220.553982 
L 108.605208 220.366336 
L 110.644495 221.470796 
L 112.683783 214.91186 
L 114.72307 226.34296 
L 116.762357 221.963227 
L 118.801645 220.62531 
L 120.840932 220.472814 
L 122.880219 216.88371 
L 124.919507 216.887863 
L 126.958794 220.651402 
L 128.998081 221.617852 
L 131.037369 223.745836 
L 133.076656 219.883609 
L 135.115943 215.020479 
L 137.155231 216.960643 
L 139.194518 210.972473 
L 141.233805 216.625887 
L 143.273093 216.174493 
L 145.31238 223.86861 
L 147.351667 229.12972 
L 149.390955 231.402411 
L 151.430242 228.967399 
L 153.469529 238.813373 
L 155.508817 237.868832 
L 157.548104 231.013096 
L 159.587392 235.249809 
L 161.626679 236.473578 
L 163.665966 239.431561 
L 165.705254 239.088933 
L 167.744541 230.285909 
L 169.783828 230.556506 
L 171.823116 220.973862 
L 173.862403 219.978281 
L 175.90169 220.326793 
L 177.940978 215.781034 
L 179.980265 219.952553 
L 182.019552 212.855945 
L 184.05884 218.351442 
L 186.098127 221.993647 
L 188.137414 219.429086 
L 190.176702 213.217864 
L 194.255276 206.593545 
L 196.294564 203.791036 
L 198.333851 215.747066 
L 200.373138 212.477475 
L 202.412426 205.959807 
L 204.451713 203.546002 
L 206.491 201.646345 
L 208.530288 193.347829 
L 210.569575 192.884412 
L 212.608862 192.782822 
L 214.64815 195.233175 
L 216.687437 193.5966 
L 218.726725 198.853228 
L 220.766012 201.359289 
L 222.805299 204.105106 
L 224.844587 205.38033 
L 226.883874 203.192898 
L 228.923161 209.136391 
L 233.001736 208.482133 
L 235.041023 209.141021 
L 237.080311 211.241304 
L 239.119598 205.180088 
L 241.158885 211.540213 
L 243.198173 213.485247 
L 245.23746 215.077422 
L 247.276747 209.706724 
L 249.316035 207.778031 
L 251.355322 218.656277 
L 253.394609 219.018707 
L 255.433897 221.38181 
L 257.473184 223.357053 
L 259.512471 215.019437 
L 261.551759 227.125752 
L 263.591046 221.190354 
L 265.630333 223.925654 
L 267.669621 218.806855 
L 269.708908 214.55234 
L 271.748196 216.643578 
L 273.787483 215.363363 
L 275.82677 222.273143 
L 277.866058 228.403734 
L 279.905345 241.756893 
L 281.944632 246.24 
L 283.98392 241.940292 
L 286.023207 242.707544 
L 288.062494 237.011136 
L 290.101782 242.84528 
L 292.141069 237.299339 
L 294.180356 233.465539 
L 296.219644 227.559249 
L 298.258931 230.626383 
L 300.298218 230.452918 
L 302.337506 224.00002 
L 304.376793 219.661335 
L 306.41608 220.638944 
L 308.455368 216.186494 
L 310.494655 216.316658 
L 312.533942 211.427131 
L 314.57323 207.76345 
L 316.612517 202.044091 
L 318.651804 207.429192 
L 320.691092 204.935262 
L 322.730379 201.566104 
L 324.769667 199.210879 
L 326.808954 205.441484 
L 328.848241 210.139554 
L 330.887529 205.157519 
L 332.926816 204.424259 
L 334.966103 201.827362 
L 337.005391 211.582125 
L 339.044678 210.286581 
L 341.083965 209.753597 
L 343.123253 199.113779 
L 345.16254 203.10538 
L 347.201827 199.649508 
L 349.241115 202.369259 
L 351.280402 202.922132 
L 353.319689 200.49205 
L 355.358977 206.65654 
L 357.398264 207.591276 
L 359.437551 202.937603 
L 361.476839 205.50338 
L 363.516126 203.152149 
L 365.555413 200.495334 
L 367.594701 203.943899 
L 369.633988 203.016182 
L 371.673275 191.793145 
L 373.712563 193.635213 
L 375.75185 188.754708 
L 377.791138 189.767352 
L 379.830425 190.04629 
L 381.869712 188.057088 
L 383.909 190.156707 
L 385.948287 186.856973 
L 387.987574 189.242009 
L 390.026862 185.556909 
L 392.066149 191.94898 
L 394.105436 192.520548 
L 396.144724 184.080705 
L 398.184011 183.775195 
L 400.223298 181.879705 
L 402.262586 184.030751 
L 404.301873 183.511731 
L 406.34116 184.52269 
L 408.380448 189.383453 
L 410.419735 193.227543 
L 412.459022 188.652551 
L 414.49831 189.869906 
L 416.537597 194.895597 
L 418.576884 199.406823 
L 420.616172 196.441185 
L 422.655459 198.465159 
L 424.694746 196.61017 
L 426.734034 206.917974 
L 428.773321 204.585689 
L 430.812608 197.197919 
L 432.851896 198.385234 
L 436.930471 195.511375 
L 438.969758 200.938919 
L 441.009045 203.587762 
L 443.048333 207.254184 
L 445.08762 201.795836 
L 447.126907 202.11304 
L 449.166195 203.574852 
L 451.205482 209.334099 
L 453.244769 203.045348 
L 455.284057 198.884134 
L 457.323344 197.974876 
L 459.362631 195.548612 
L 461.401919 197.412809 
L 463.441206 187.797653 
L 465.480493 192.936706 
L 467.519781 191.573012 
L 469.559068 192.993203 
L 471.598355 193.478813 
L 473.637643 188.296729 
L 475.67693 187.443119 
L 477.716217 182.45587 
L 479.755505 188.515303 
L 481.794792 195.257169 
L 483.834079 193.115702 
L 485.873367 193.247152 
L 487.912654 184.494159 
L 489.951942 187.41482 
L 491.991229 192.737339 
L 494.030516 199.765408 
L 496.069804 204.915894 
L 498.109091 210.809929 
L 498.109091 210.809929 
" clip-path="url(#p8688b43fc0)" style="fill: none; stroke: #bfbf00; stroke-width: 2; stroke-linecap: square"/>
   </g>
   <g id="line2d_15">
    <path d="M 92.290909 198.220006 
L 94.330196 202.552309 
L 96.369484 196.506465 
L 98.408771 199.229428 
L 100.448058 200.741189 
L 102.487346 207.558712 
L 104.526633 207.813197 
L 106.565921 207.356758 
L 108.605208 200.899041 
L 110.644495 202.077924 
L 112.683783 195.701688 
L 114.72307 197.700548 
L 116.762357 194.720203 
L 118.801645 200.270771 
L 122.880219 205.678863 
L 124.919507 199.361206 
L 126.958794 192.360399 
L 128.998081 199.066235 
L 131.037369 195.096613 
L 133.076656 197.245225 
L 135.115943 197.931017 
L 137.155231 195.85161 
L 139.194518 198.323448 
L 141.233805 195.890826 
L 143.273093 199.422308 
L 145.31238 201.293986 
L 147.351667 208.937845 
L 149.390955 213.3492 
L 151.430242 212.095187 
L 153.469529 203.561348 
L 155.508817 196.642766 
L 157.548104 194.298504 
L 159.587392 193.274097 
L 161.626679 194.991725 
L 163.665966 198.381843 
L 165.705254 198.810851 
L 167.744541 198.064531 
L 169.783828 202.061889 
L 171.823116 198.169508 
L 173.862403 204.069122 
L 175.90169 197.038266 
L 177.940978 191.635775 
L 179.980265 188.28666 
L 182.019552 190.23259 
L 184.05884 188.069193 
L 186.098127 188.053355 
L 188.137414 189.285018 
L 190.176702 188.611757 
L 192.215989 187.489784 
L 194.255276 177.927392 
L 196.294564 176.566023 
L 198.333851 182.047219 
L 200.373138 185.677587 
L 202.412426 181.23306 
L 204.451713 185.713617 
L 206.491 171.983065 
L 208.530288 170.612445 
L 210.569575 173.104426 
L 212.608862 172.432218 
L 216.687437 169.799562 
L 218.726725 162.800883 
L 220.766012 157.003514 
L 222.805299 164.358868 
L 224.844587 162.045562 
L 226.883874 161.034453 
L 228.923161 153.978231 
L 230.962449 157.055925 
L 233.001736 156.231745 
L 235.041023 154.793287 
L 237.080311 153.165498 
L 239.119598 150.793966 
L 241.158885 153.012739 
L 243.198173 148.486617 
L 245.23746 149.095485 
L 247.276747 153.250948 
L 249.316035 157.838615 
L 251.355322 154.77993 
L 253.394609 163.213244 
L 255.433897 159.526336 
L 257.473184 167.898204 
L 259.512471 166.54112 
L 261.551759 165.450258 
L 263.591046 155.5879 
L 265.630333 150.183112 
L 267.669621 153.207901 
L 269.708908 151.266767 
L 271.748196 149.880043 
L 273.787483 147.32254 
L 275.82677 145.829365 
L 277.866058 147.503694 
L 279.905345 147.575192 
L 281.944632 137.854723 
L 286.023207 133.143471 
L 288.062494 128.233085 
L 290.101782 125.686806 
L 292.141069 122.36181 
L 294.180356 119.409153 
L 296.219644 124.67443 
L 298.258931 120.94676 
L 300.298218 113.858901 
L 302.337506 109.61959 
L 304.376793 112.295968 
L 306.41608 106.234112 
L 308.455368 102.915652 
L 310.494655 100.094425 
L 312.533942 102.552454 
L 316.612517 106.579426 
L 318.651804 111.040883 
L 320.691092 116.184983 
L 322.730379 115.964944 
L 324.769667 120.162968 
L 326.808954 110.547601 
L 328.848241 112.282051 
L 330.887529 112.43939 
L 332.926816 109.849831 
L 334.966103 110.33915 
L 337.005391 108.439622 
L 339.044678 104.692738 
L 341.083965 98.706734 
L 343.123253 106.356522 
L 345.16254 118.521356 
L 347.201827 118.656089 
L 349.241115 117.879539 
L 351.280402 115.9309 
L 353.319689 118.220273 
L 355.358977 118.0865 
L 357.398264 115.68437 
L 359.437551 114.689274 
L 361.476839 108.564904 
L 363.516126 106.241051 
L 365.555413 108.572874 
L 367.594701 108.861246 
L 369.633988 113.086709 
L 371.673275 118.775646 
L 373.712563 124.813286 
L 375.75185 123.262849 
L 377.791138 116.698123 
L 379.830425 123.161144 
L 381.869712 128.369256 
L 383.909 127.861135 
L 385.948287 120.803007 
L 387.987574 113.008664 
L 390.026862 107.175242 
L 392.066149 102.056199 
L 394.105436 93.549318 
L 396.144724 91.958482 
L 398.184011 89.629655 
L 400.223298 93.990014 
L 402.262586 89.050096 
L 404.301873 90.948779 
L 406.34116 89.140367 
L 408.380448 83.513449 
L 410.419735 85.200743 
L 412.459022 87.699799 
L 414.49831 90.377649 
L 416.537597 85.496321 
L 418.576884 79.441409 
L 422.655459 75.116985 
L 424.694746 72.110356 
L 426.734034 68.004963 
L 428.773321 62.946567 
L 430.812608 64.666765 
L 434.891183 69.577874 
L 436.930471 69.513911 
L 438.969758 65.85138 
L 441.009045 65.60057 
L 443.048333 70.452098 
L 445.08762 62.39134 
L 447.126907 54.895552 
L 449.166195 60.473598 
L 451.205482 57.726863 
L 453.244769 57.454876 
L 455.284057 48.980064 
L 457.323344 46.953133 
L 459.362631 53.89804 
L 461.401919 54.152357 
L 463.441206 51.402891 
L 465.480493 49.949727 
L 467.519781 50.352701 
L 469.559068 51.290638 
L 471.598355 45.641999 
L 473.637643 53.015509 
L 475.67693 49.603953 
L 477.716217 50.495033 
L 479.755505 44.770619 
L 481.794792 48.759411 
L 483.834079 52.009225 
L 485.873367 52.261722 
L 487.912654 46.253359 
L 489.951942 44.64 
L 491.991229 52.984947 
L 494.030516 54.287606 
L 496.069804 58.488797 
L 498.109091 62.970314 
L 498.109091 62.970314 
" clip-path="url(#p8688b43fc0)" style="fill: none; stroke: #bf00bf; stroke-width: 2; stroke-linecap: square"/>
   </g>
   <g id="patch_3">
    <path d="M 72 256.32 
L 72 34.56 
" style="fill: none; stroke: #000000; stroke-width: 0.8; stroke-linejoin: miter; stroke-linecap: square"/>
   </g>
   <g id="patch_4">
    <path d="M 518.4 256.32 
L 518.4 34.56 
" style="fill: none; stroke: #000000; stroke-width: 0.8; stroke-linejoin: miter; stroke-linecap: square"/>
   </g>
   <g id="patch_5">
    <path d="M 72 256.32 
L 518.4 256.32 
" style="fill: none; stroke: #000000; stroke-width: 0.8; stroke-linejoin: miter; stroke-linecap: square"/>
   </g>
   <g id="patch_6">
    <path d="M 72 34.56 
L 518.4 34.56 
" style="fill: none; stroke: #000000; stroke-width: 0.8; stroke-linejoin: miter; stroke-linecap: square"/>
   </g>
  </g>
 </g>
 <defs>
  <clipPath id="p8688b43fc0">
   <rect x="72" y="34.56" width="446.4" height="221.76"/>
  </clipPath>
 </defs>
</svg>
