<?xml version="1.0" encoding="utf-8" standalone="no"?>
<!DOCTYPE svg PUBLIC "-//W3C//DTD SVG 1.1//EN"
  "http://www.w3.org/Graphics/SVG/1.1/DTD/svg11.dtd">
<svg xmlns:xlink="http://www.w3.org/1999/xlink" width="576pt" height="288pt" viewBox="0 0 576 288" xmlns="http://www.w3.org/2000/svg" version="1.1">
 <metadata>
  <rdf:RDF xmlns:dc="http://purl.org/dc/elements/1.1/" xmlns:cc="http://creativecommons.org/ns#" xmlns:rdf="http://www.w3.org/1999/02/22-rdf-syntax-ns#">
   <cc:Work>
    <dc:type rdf:resource="http://purl.org/dc/dcmitype/StillImage"/>
    <dc:date>2023-11-25T18:39:00.823349</dc:date>
    <dc:format>image/svg+xml</dc:format>
    <dc:creator>
     <cc:Agent>
      <dc:title>Matplotlib v3.8.1, https://matplotlib.org/</dc:title>
     </cc:Agent>
    </dc:creator>
   </cc:Work>
  </rdf:RDF>
 </metadata>
 <defs>
  <style type="text/css">*{stroke-linejoin: round; stroke-linecap: butt}</style>
 </defs>
 <g id="figure_1">
  <g id="patch_1">
   <path d="M 0 288 
L 576 288 
L 576 0 
L 0 0 
z
" style="fill: #ffffff"/>
  </g>
  <g id="axes_1">
   <g id="patch_2">
    <path d="M 52.94 246.04 
L 565.2 246.04 
L 565.2 26.88 
L 52.94 26.88 
z
" style="fill: #ffffff"/>
   </g>
   <g id="matplotlib.axis_1">
    <g id="xtick_1">
     <g id="line2d_1">
      <path d="M 78.564701 246.04 
L 78.564701 26.88 
" clip-path="url(#p04cd4ba93b)" style="fill: none; stroke: #b0b0b0; stroke-width: 0.8; stroke-linecap: square"/>
     </g>
     <g id="line2d_2">
      <defs>
       <path id="m07001b129e" d="M 0 0 
L 0 3.5 
" style="stroke: #000000; stroke-width: 0.8"/>
      </defs>
      <g>
       <use xlink:href="#m07001b129e" x="78.564701" y="246.04" style="stroke: #000000; stroke-width: 0.8"/>
      </g>
     </g>
     <g id="text_1">
      <!-- 2024-01 -->
      <g transform="translate(57.673295 260.638438) scale(0.1 -0.1)">
       <defs>
        <path id="DejaVuSans-32" d="M 1228 531 
L 3431 531 
L 3431 0 
L 469 0 
L 469 531 
Q 828 903 1448 1529 
Q 2069 2156 2228 2338 
Q 2531 2678 2651 2914 
Q 2772 3150 2772 3378 
Q 2772 3750 2511 3984 
Q 2250 4219 1831 4219 
Q 1534 4219 1204 4116 
Q 875 4013 500 3803 
L 500 4441 
Q 881 4594 1212 4672 
Q 1544 4750 1819 4750 
Q 2544 4750 2975 4387 
Q 3406 4025 3406 3419 
Q 3406 3131 3298 2873 
Q 3191 2616 2906 2266 
Q 2828 2175 2409 1742 
Q 1991 1309 1228 531 
z
" transform="scale(0.015625)"/>
        <path id="DejaVuSans-30" d="M 2034 4250 
Q 1547 4250 1301 3770 
Q 1056 3291 1056 2328 
Q 1056 1369 1301 889 
Q 1547 409 2034 409 
Q 2525 409 2770 889 
Q 3016 1369 3016 2328 
Q 3016 3291 2770 3770 
Q 2525 4250 2034 4250 
z
M 2034 4750 
Q 2819 4750 3233 4129 
Q 3647 3509 3647 2328 
Q 3647 1150 3233 529 
Q 2819 -91 2034 -91 
Q 1250 -91 836 529 
Q 422 1150 422 2328 
Q 422 3509 836 4129 
Q 1250 4750 2034 4750 
z
" transform="scale(0.015625)"/>
        <path id="DejaVuSans-34" d="M 2419 4116 
L 825 1625 
L 2419 1625 
L 2419 4116 
z
M 2253 4666 
L 3047 4666 
L 3047 1625 
L 3713 1625 
L 3713 1100 
L 3047 1100 
L 3047 0 
L 2419 0 
L 2419 1100 
L 313 1100 
L 313 1709 
L 2253 4666 
z
" transform="scale(0.015625)"/>
        <path id="DejaVuSans-2d" d="M 313 2009 
L 1997 2009 
L 1997 1497 
L 313 1497 
L 313 2009 
z
" transform="scale(0.015625)"/>
        <path id="DejaVuSans-31" d="M 794 531 
L 1825 531 
L 1825 4091 
L 703 3866 
L 703 4441 
L 1819 4666 
L 2450 4666 
L 2450 531 
L 3481 531 
L 3481 0 
L 794 0 
L 794 531 
z
" transform="scale(0.015625)"/>
       </defs>
       <use xlink:href="#DejaVuSans-32"/>
       <use xlink:href="#DejaVuSans-30" x="63.623047"/>
       <use xlink:href="#DejaVuSans-32" x="127.246094"/>
       <use xlink:href="#DejaVuSans-34" x="190.869141"/>
       <use xlink:href="#DejaVuSans-2d" x="254.492188"/>
       <use xlink:href="#DejaVuSans-30" x="290.576172"/>
       <use xlink:href="#DejaVuSans-31" x="354.199219"/>
      </g>
     </g>
    </g>
    <g id="xtick_2">
     <g id="line2d_3">
      <path d="M 151.109516 246.04 
L 151.109516 26.88 
" clip-path="url(#p04cd4ba93b)" style="fill: none; stroke: #b0b0b0; stroke-width: 0.8; stroke-linecap: square"/>
     </g>
     <g id="line2d_4">
      <g>
       <use xlink:href="#m07001b129e" x="151.109516" y="246.04" style="stroke: #000000; stroke-width: 0.8"/>
      </g>
     </g>
     <g id="text_2">
      <!-- 2024-02 -->
      <g transform="translate(130.21811 260.638438) scale(0.1 -0.1)">
       <use xlink:href="#DejaVuSans-32"/>
       <use xlink:href="#DejaVuSans-30" x="63.623047"/>
       <use xlink:href="#DejaVuSans-32" x="127.246094"/>
       <use xlink:href="#DejaVuSans-34" x="190.869141"/>
       <use xlink:href="#DejaVuSans-2d" x="254.492188"/>
       <use xlink:href="#DejaVuSans-30" x="290.576172"/>
       <use xlink:href="#DejaVuSans-32" x="354.199219"/>
      </g>
     </g>
    </g>
    <g id="xtick_3">
     <g id="line2d_5">
      <path d="M 218.97402 246.04 
L 218.97402 26.88 
" clip-path="url(#p04cd4ba93b)" style="fill: none; stroke: #b0b0b0; stroke-width: 0.8; stroke-linecap: square"/>
     </g>
     <g id="line2d_6">
      <g>
       <use xlink:href="#m07001b129e" x="218.97402" y="246.04" style="stroke: #000000; stroke-width: 0.8"/>
      </g>
     </g>
     <g id="text_3">
      <!-- 2024-03 -->
      <g transform="translate(198.082614 260.638438) scale(0.1 -0.1)">
       <defs>
        <path id="DejaVuSans-33" d="M 2597 2516 
Q 3050 2419 3304 2112 
Q 3559 1806 3559 1356 
Q 3559 666 3084 287 
Q 2609 -91 1734 -91 
Q 1441 -91 1130 -33 
Q 819 25 488 141 
L 488 750 
Q 750 597 1062 519 
Q 1375 441 1716 441 
Q 2309 441 2620 675 
Q 2931 909 2931 1356 
Q 2931 1769 2642 2001 
Q 2353 2234 1838 2234 
L 1294 2234 
L 1294 2753 
L 1863 2753 
Q 2328 2753 2575 2939 
Q 2822 3125 2822 3475 
Q 2822 3834 2567 4026 
Q 2313 4219 1838 4219 
Q 1578 4219 1281 4162 
Q 984 4106 628 3988 
L 628 4550 
Q 988 4650 1302 4700 
Q 1616 4750 1894 4750 
Q 2613 4750 3031 4423 
Q 3450 4097 3450 3541 
Q 3450 3153 3228 2886 
Q 3006 2619 2597 2516 
z
" transform="scale(0.015625)"/>
       </defs>
       <use xlink:href="#DejaVuSans-32"/>
       <use xlink:href="#DejaVuSans-30" x="63.623047"/>
       <use xlink:href="#DejaVuSans-32" x="127.246094"/>
       <use xlink:href="#DejaVuSans-34" x="190.869141"/>
       <use xlink:href="#DejaVuSans-2d" x="254.492188"/>
       <use xlink:href="#DejaVuSans-30" x="290.576172"/>
       <use xlink:href="#DejaVuSans-33" x="354.199219"/>
      </g>
     </g>
    </g>
    <g id="xtick_4">
     <g id="line2d_7">
      <path d="M 291.518835 246.04 
L 291.518835 26.88 
" clip-path="url(#p04cd4ba93b)" style="fill: none; stroke: #b0b0b0; stroke-width: 0.8; stroke-linecap: square"/>
     </g>
     <g id="line2d_8">
      <g>
       <use xlink:href="#m07001b129e" x="291.518835" y="246.04" style="stroke: #000000; stroke-width: 0.8"/>
      </g>
     </g>
     <g id="text_4">
      <!-- 2024-04 -->
      <g transform="translate(270.627429 260.638438) scale(0.1 -0.1)">
       <use xlink:href="#DejaVuSans-32"/>
       <use xlink:href="#DejaVuSans-30" x="63.623047"/>
       <use xlink:href="#DejaVuSans-32" x="127.246094"/>
       <use xlink:href="#DejaVuSans-34" x="190.869141"/>
       <use xlink:href="#DejaVuSans-2d" x="254.492188"/>
       <use xlink:href="#DejaVuSans-30" x="290.576172"/>
       <use xlink:href="#DejaVuSans-34" x="354.199219"/>
      </g>
     </g>
    </g>
    <g id="xtick_5">
     <g id="line2d_9">
      <path d="M 361.723495 246.04 
L 361.723495 26.88 
" clip-path="url(#p04cd4ba93b)" style="fill: none; stroke: #b0b0b0; stroke-width: 0.8; stroke-linecap: square"/>
     </g>
     <g id="line2d_10">
      <g>
       <use xlink:href="#m07001b129e" x="361.723495" y="246.04" style="stroke: #000000; stroke-width: 0.8"/>
      </g>
     </g>
     <g id="text_5">
      <!-- 2024-05 -->
      <g transform="translate(340.832088 260.638438) scale(0.1 -0.1)">
       <defs>
        <path id="DejaVuSans-35" d="M 691 4666 
L 3169 4666 
L 3169 4134 
L 1269 4134 
L 1269 2991 
Q 1406 3038 1543 3061 
Q 1681 3084 1819 3084 
Q 2600 3084 3056 2656 
Q 3513 2228 3513 1497 
Q 3513 744 3044 326 
Q 2575 -91 1722 -91 
Q 1428 -91 1123 -41 
Q 819 9 494 109 
L 494 744 
Q 775 591 1075 516 
Q 1375 441 1709 441 
Q 2250 441 2565 725 
Q 2881 1009 2881 1497 
Q 2881 1984 2565 2268 
Q 2250 2553 1709 2553 
Q 1456 2553 1204 2497 
Q 953 2441 691 2322 
L 691 4666 
z
" transform="scale(0.015625)"/>
       </defs>
       <use xlink:href="#DejaVuSans-32"/>
       <use xlink:href="#DejaVuSans-30" x="63.623047"/>
       <use xlink:href="#DejaVuSans-32" x="127.246094"/>
       <use xlink:href="#DejaVuSans-34" x="190.869141"/>
       <use xlink:href="#DejaVuSans-2d" x="254.492188"/>
       <use xlink:href="#DejaVuSans-30" x="290.576172"/>
       <use xlink:href="#DejaVuSans-35" x="354.199219"/>
      </g>
     </g>
    </g>
    <g id="xtick_6">
     <g id="line2d_11">
      <path d="M 434.26831 246.04 
L 434.26831 26.88 
" clip-path="url(#p04cd4ba93b)" style="fill: none; stroke: #b0b0b0; stroke-width: 0.8; stroke-linecap: square"/>
     </g>
     <g id="line2d_12">
      <g>
       <use xlink:href="#m07001b129e" x="434.26831" y="246.04" style="stroke: #000000; stroke-width: 0.8"/>
      </g>
     </g>
     <g id="text_6">
      <!-- 2024-06 -->
      <g transform="translate(413.376903 260.638438) scale(0.1 -0.1)">
       <defs>
        <path id="DejaVuSans-36" d="M 2113 2584 
Q 1688 2584 1439 2293 
Q 1191 2003 1191 1497 
Q 1191 994 1439 701 
Q 1688 409 2113 409 
Q 2538 409 2786 701 
Q 3034 994 3034 1497 
Q 3034 2003 2786 2293 
Q 2538 2584 2113 2584 
z
M 3366 4563 
L 3366 3988 
Q 3128 4100 2886 4159 
Q 2644 4219 2406 4219 
Q 1781 4219 1451 3797 
Q 1122 3375 1075 2522 
Q 1259 2794 1537 2939 
Q 1816 3084 2150 3084 
Q 2853 3084 3261 2657 
Q 3669 2231 3669 1497 
Q 3669 778 3244 343 
Q 2819 -91 2113 -91 
Q 1303 -91 875 529 
Q 447 1150 447 2328 
Q 447 3434 972 4092 
Q 1497 4750 2381 4750 
Q 2619 4750 2861 4703 
Q 3103 4656 3366 4563 
z
" transform="scale(0.015625)"/>
       </defs>
       <use xlink:href="#DejaVuSans-32"/>
       <use xlink:href="#DejaVuSans-30" x="63.623047"/>
       <use xlink:href="#DejaVuSans-32" x="127.246094"/>
       <use xlink:href="#DejaVuSans-34" x="190.869141"/>
       <use xlink:href="#DejaVuSans-2d" x="254.492188"/>
       <use xlink:href="#DejaVuSans-30" x="290.576172"/>
       <use xlink:href="#DejaVuSans-36" x="354.199219"/>
      </g>
     </g>
    </g>
    <g id="xtick_7">
     <g id="line2d_13">
      <path d="M 504.472969 246.04 
L 504.472969 26.88 
" clip-path="url(#p04cd4ba93b)" style="fill: none; stroke: #b0b0b0; stroke-width: 0.8; stroke-linecap: square"/>
     </g>
     <g id="line2d_14">
      <g>
       <use xlink:href="#m07001b129e" x="504.472969" y="246.04" style="stroke: #000000; stroke-width: 0.8"/>
      </g>
     </g>
     <g id="text_7">
      <!-- 2024-07 -->
      <g transform="translate(483.581563 260.638438) scale(0.1 -0.1)">
       <defs>
        <path id="DejaVuSans-37" d="M 525 4666 
L 3525 4666 
L 3525 4397 
L 1831 0 
L 1172 0 
L 2766 4134 
L 525 4134 
L 525 4666 
z
" transform="scale(0.015625)"/>
       </defs>
       <use xlink:href="#DejaVuSans-32"/>
       <use xlink:href="#DejaVuSans-30" x="63.623047"/>
       <use xlink:href="#DejaVuSans-32" x="127.246094"/>
       <use xlink:href="#DejaVuSans-34" x="190.869141"/>
       <use xlink:href="#DejaVuSans-2d" x="254.492188"/>
       <use xlink:href="#DejaVuSans-30" x="290.576172"/>
       <use xlink:href="#DejaVuSans-37" x="354.199219"/>
      </g>
     </g>
    </g>
    <g id="text_8">
     <!-- Date -->
     <g transform="translate(297.119219 274.316562) scale(0.1 -0.1)">
      <defs>
       <path id="DejaVuSans-44" d="M 1259 4147 
L 1259 519 
L 2022 519 
Q 2988 519 3436 956 
Q 3884 1394 3884 2338 
Q 3884 3275 3436 3711 
Q 2988 4147 2022 4147 
L 1259 4147 
z
M 628 4666 
L 1925 4666 
Q 3281 4666 3915 4102 
Q 4550 3538 4550 2338 
Q 4550 1131 3912 565 
Q 3275 0 1925 0 
L 628 0 
L 628 4666 
z
" transform="scale(0.015625)"/>
       <path id="DejaVuSans-61" d="M 2194 1759 
Q 1497 1759 1228 1600 
Q 959 1441 959 1056 
Q 959 750 1161 570 
Q 1363 391 1709 391 
Q 2188 391 2477 730 
Q 2766 1069 2766 1631 
L 2766 1759 
L 2194 1759 
z
M 3341 1997 
L 3341 0 
L 2766 0 
L 2766 531 
Q 2569 213 2275 61 
Q 1981 -91 1556 -91 
Q 1019 -91 701 211 
Q 384 513 384 1019 
Q 384 1609 779 1909 
Q 1175 2209 1959 2209 
L 2766 2209 
L 2766 2266 
Q 2766 2663 2505 2880 
Q 2244 3097 1772 3097 
Q 1472 3097 1187 3025 
Q 903 2953 641 2809 
L 641 3341 
Q 956 3463 1253 3523 
Q 1550 3584 1831 3584 
Q 2591 3584 2966 3190 
Q 3341 2797 3341 1997 
z
" transform="scale(0.015625)"/>
       <path id="DejaVuSans-74" d="M 1172 4494 
L 1172 3500 
L 2356 3500 
L 2356 3053 
L 1172 3053 
L 1172 1153 
Q 1172 725 1289 603 
Q 1406 481 1766 481 
L 2356 481 
L 2356 0 
L 1766 0 
Q 1100 0 847 248 
Q 594 497 594 1153 
L 594 3053 
L 172 3053 
L 172 3500 
L 594 3500 
L 594 4494 
L 1172 4494 
z
" transform="scale(0.015625)"/>
       <path id="DejaVuSans-65" d="M 3597 1894 
L 3597 1613 
L 953 1613 
Q 991 1019 1311 708 
Q 1631 397 2203 397 
Q 2534 397 2845 478 
Q 3156 559 3463 722 
L 3463 178 
Q 3153 47 2828 -22 
Q 2503 -91 2169 -91 
Q 1331 -91 842 396 
Q 353 884 353 1716 
Q 353 2575 817 3079 
Q 1281 3584 2069 3584 
Q 2775 3584 3186 3129 
Q 3597 2675 3597 1894 
z
M 3022 2063 
Q 3016 2534 2758 2815 
Q 2500 3097 2075 3097 
Q 1594 3097 1305 2825 
Q 1016 2553 972 2059 
L 3022 2063 
z
" transform="scale(0.015625)"/>
      </defs>
      <use xlink:href="#DejaVuSans-44"/>
      <use xlink:href="#DejaVuSans-61" x="77.001953"/>
      <use xlink:href="#DejaVuSans-74" x="138.28125"/>
      <use xlink:href="#DejaVuSans-65" x="177.490234"/>
     </g>
    </g>
   </g>
   <g id="matplotlib.axis_2">
    <g id="ytick_1">
     <g id="line2d_15">
      <path d="M 52.94 241.893781 
L 565.2 241.893781 
" clip-path="url(#p04cd4ba93b)" style="fill: none; stroke: #b0b0b0; stroke-width: 0.8; stroke-linecap: square"/>
     </g>
     <g id="line2d_16">
      <defs>
       <path id="m83c5011d5c" d="M 0 0 
L -3.5 0 
" style="stroke: #000000; stroke-width: 0.8"/>
      </defs>
      <g>
       <use xlink:href="#m83c5011d5c" x="52.94" y="241.893781" style="stroke: #000000; stroke-width: 0.8"/>
      </g>
     </g>
     <g id="text_9">
      <!-- −10 -->
      <g transform="translate(24.835313 245.693) scale(0.1 -0.1)">
       <defs>
        <path id="DejaVuSans-2212" d="M 678 2272 
L 4684 2272 
L 4684 1741 
L 678 1741 
L 678 2272 
z
" transform="scale(0.015625)"/>
       </defs>
       <use xlink:href="#DejaVuSans-2212"/>
       <use xlink:href="#DejaVuSans-31" x="83.789062"/>
       <use xlink:href="#DejaVuSans-30" x="147.412109"/>
      </g>
     </g>
    </g>
    <g id="ytick_2">
     <g id="line2d_17">
      <path d="M 52.94 196.295825 
L 565.2 196.295825 
" clip-path="url(#p04cd4ba93b)" style="fill: none; stroke: #b0b0b0; stroke-width: 0.8; stroke-linecap: square"/>
     </g>
     <g id="line2d_18">
      <g>
       <use xlink:href="#m83c5011d5c" x="52.94" y="196.295825" style="stroke: #000000; stroke-width: 0.8"/>
      </g>
     </g>
     <g id="text_10">
      <!-- 0 -->
      <g transform="translate(39.5775 200.095044) scale(0.1 -0.1)">
       <use xlink:href="#DejaVuSans-30"/>
      </g>
     </g>
    </g>
    <g id="ytick_3">
     <g id="line2d_19">
      <path d="M 52.94 150.697869 
L 565.2 150.697869 
" clip-path="url(#p04cd4ba93b)" style="fill: none; stroke: #b0b0b0; stroke-width: 0.8; stroke-linecap: square"/>
     </g>
     <g id="line2d_20">
      <g>
       <use xlink:href="#m83c5011d5c" x="52.94" y="150.697869" style="stroke: #000000; stroke-width: 0.8"/>
      </g>
     </g>
     <g id="text_11">
      <!-- 10 -->
      <g transform="translate(33.215 154.497088) scale(0.1 -0.1)">
       <use xlink:href="#DejaVuSans-31"/>
       <use xlink:href="#DejaVuSans-30" x="63.623047"/>
      </g>
     </g>
    </g>
    <g id="ytick_4">
     <g id="line2d_21">
      <path d="M 52.94 105.099914 
L 565.2 105.099914 
" clip-path="url(#p04cd4ba93b)" style="fill: none; stroke: #b0b0b0; stroke-width: 0.8; stroke-linecap: square"/>
     </g>
     <g id="line2d_22">
      <g>
       <use xlink:href="#m83c5011d5c" x="52.94" y="105.099914" style="stroke: #000000; stroke-width: 0.8"/>
      </g>
     </g>
     <g id="text_12">
      <!-- 20 -->
      <g transform="translate(33.215 108.899133) scale(0.1 -0.1)">
       <use xlink:href="#DejaVuSans-32"/>
       <use xlink:href="#DejaVuSans-30" x="63.623047"/>
      </g>
     </g>
    </g>
    <g id="ytick_5">
     <g id="line2d_23">
      <path d="M 52.94 59.501958 
L 565.2 59.501958 
" clip-path="url(#p04cd4ba93b)" style="fill: none; stroke: #b0b0b0; stroke-width: 0.8; stroke-linecap: square"/>
     </g>
     <g id="line2d_24">
      <g>
       <use xlink:href="#m83c5011d5c" x="52.94" y="59.501958" style="stroke: #000000; stroke-width: 0.8"/>
      </g>
     </g>
     <g id="text_13">
      <!-- 30 -->
      <g transform="translate(33.215 63.301177) scale(0.1 -0.1)">
       <use xlink:href="#DejaVuSans-33"/>
       <use xlink:href="#DejaVuSans-30" x="63.623047"/>
      </g>
     </g>
    </g>
    <g id="text_14">
     <!-- Cum. sum -->
     <g transform="translate(18.755625 161.812344) rotate(-90) scale(0.1 -0.1)">
      <defs>
       <path id="DejaVuSans-43" d="M 4122 4306 
L 4122 3641 
Q 3803 3938 3442 4084 
Q 3081 4231 2675 4231 
Q 1875 4231 1450 3742 
Q 1025 3253 1025 2328 
Q 1025 1406 1450 917 
Q 1875 428 2675 428 
Q 3081 428 3442 575 
Q 3803 722 4122 1019 
L 4122 359 
Q 3791 134 3420 21 
Q 3050 -91 2638 -91 
Q 1578 -91 968 557 
Q 359 1206 359 2328 
Q 359 3453 968 4101 
Q 1578 4750 2638 4750 
Q 3056 4750 3426 4639 
Q 3797 4528 4122 4306 
z
" transform="scale(0.015625)"/>
       <path id="DejaVuSans-75" d="M 544 1381 
L 544 3500 
L 1119 3500 
L 1119 1403 
Q 1119 906 1312 657 
Q 1506 409 1894 409 
Q 2359 409 2629 706 
Q 2900 1003 2900 1516 
L 2900 3500 
L 3475 3500 
L 3475 0 
L 2900 0 
L 2900 538 
Q 2691 219 2414 64 
Q 2138 -91 1772 -91 
Q 1169 -91 856 284 
Q 544 659 544 1381 
z
M 1991 3584 
L 1991 3584 
z
" transform="scale(0.015625)"/>
       <path id="DejaVuSans-6d" d="M 3328 2828 
Q 3544 3216 3844 3400 
Q 4144 3584 4550 3584 
Q 5097 3584 5394 3201 
Q 5691 2819 5691 2113 
L 5691 0 
L 5113 0 
L 5113 2094 
Q 5113 2597 4934 2840 
Q 4756 3084 4391 3084 
Q 3944 3084 3684 2787 
Q 3425 2491 3425 1978 
L 3425 0 
L 2847 0 
L 2847 2094 
Q 2847 2600 2669 2842 
Q 2491 3084 2119 3084 
Q 1678 3084 1418 2786 
Q 1159 2488 1159 1978 
L 1159 0 
L 581 0 
L 581 3500 
L 1159 3500 
L 1159 2956 
Q 1356 3278 1631 3431 
Q 1906 3584 2284 3584 
Q 2666 3584 2933 3390 
Q 3200 3197 3328 2828 
z
" transform="scale(0.015625)"/>
       <path id="DejaVuSans-2e" d="M 684 794 
L 1344 794 
L 1344 0 
L 684 0 
L 684 794 
z
" transform="scale(0.015625)"/>
       <path id="DejaVuSans-20" transform="scale(0.015625)"/>
       <path id="DejaVuSans-73" d="M 2834 3397 
L 2834 2853 
Q 2591 2978 2328 3040 
Q 2066 3103 1784 3103 
Q 1356 3103 1142 2972 
Q 928 2841 928 2578 
Q 928 2378 1081 2264 
Q 1234 2150 1697 2047 
L 1894 2003 
Q 2506 1872 2764 1633 
Q 3022 1394 3022 966 
Q 3022 478 2636 193 
Q 2250 -91 1575 -91 
Q 1294 -91 989 -36 
Q 684 19 347 128 
L 347 722 
Q 666 556 975 473 
Q 1284 391 1588 391 
Q 1994 391 2212 530 
Q 2431 669 2431 922 
Q 2431 1156 2273 1281 
Q 2116 1406 1581 1522 
L 1381 1569 
Q 847 1681 609 1914 
Q 372 2147 372 2553 
Q 372 3047 722 3315 
Q 1072 3584 1716 3584 
Q 2034 3584 2315 3537 
Q 2597 3491 2834 3397 
z
" transform="scale(0.015625)"/>
      </defs>
      <use xlink:href="#DejaVuSans-43"/>
      <use xlink:href="#DejaVuSans-75" x="69.824219"/>
      <use xlink:href="#DejaVuSans-6d" x="133.203125"/>
      <use xlink:href="#DejaVuSans-2e" x="230.615234"/>
      <use xlink:href="#DejaVuSans-20" x="262.402344"/>
      <use xlink:href="#DejaVuSans-73" x="294.189453"/>
      <use xlink:href="#DejaVuSans-75" x="346.289062"/>
      <use xlink:href="#DejaVuSans-6d" x="409.667969"/>
     </g>
    </g>
   </g>
   <g id="line2d_25">
    <path d="M 76.224545 192.971415 
L 78.564701 184.203997 
L 80.904856 191.910455 
L 83.245011 196.548354 
L 85.585167 194.746765 
L 90.265477 192.106535 
L 92.605633 193.563033 
L 94.945788 198.735512 
L 97.285943 193.384383 
L 99.626099 198.847645 
L 101.966254 201.558971 
L 104.306409 202.540442 
L 106.646565 200.224264 
L 108.98672 202.555368 
L 111.326875 210.733756 
L 113.667031 202.865334 
L 116.007186 202.210943 
L 118.347341 199.623038 
L 120.687497 198.110645 
L 123.027652 202.691904 
L 125.367807 201.252311 
L 127.707963 195.232676 
L 130.048118 190.58862 
L 132.388273 191.434798 
L 134.728429 198.709335 
L 137.068584 199.494092 
L 139.408739 195.887007 
L 141.748894 193.472862 
L 144.08905 195.048648 
L 146.429205 190.944873 
L 148.76936 192.174464 
L 151.109516 182.160048 
L 153.449671 181.261037 
L 155.789826 174.514916 
L 158.129982 173.177747 
L 160.470137 175.75506 
L 162.810292 177.938347 
L 165.150448 173.893671 
L 167.490603 175.883657 
L 169.830758 176.17962 
L 172.170914 175.829458 
L 174.511069 173.716404 
L 176.851224 175.551168 
L 179.19138 182.4829 
L 181.531535 184.545035 
L 183.87169 182.055839 
L 186.211846 180.507401 
L 188.552001 176.812843 
L 190.892156 170.239293 
L 193.232312 169.373836 
L 195.572467 174.477647 
L 197.912622 178.656589 
L 200.252778 180.953492 
L 202.592933 177.433115 
L 204.933088 177.780302 
L 207.273243 185.022036 
L 209.613399 179.245554 
L 211.953554 177.591509 
L 214.293709 178.178349 
L 216.633865 182.018114 
L 218.97402 179.961581 
L 221.314175 186.413434 
L 223.654331 188.369983 
L 225.994486 195.899879 
L 228.334641 193.136129 
L 230.674797 196.313459 
L 233.014952 191.509182 
L 235.355107 184.067884 
L 237.695263 181.335751 
L 240.035418 183.059643 
L 242.375573 179.067033 
L 244.715729 180.911647 
L 247.055884 182.416564 
L 249.396039 187.735718 
L 251.736195 184.433972 
L 254.07635 188.540799 
L 256.416505 191.008336 
L 258.756661 190.831724 
L 261.096816 193.27399 
L 263.436971 193.524811 
L 265.777127 190.860759 
L 268.117282 190.710629 
L 270.457437 191.384587 
L 272.797593 191.107778 
L 275.137748 193.444286 
L 277.477903 193.036188 
L 279.818058 192.940104 
L 282.158214 185.470343 
L 284.498369 184.18256 
L 286.838524 180.788096 
L 289.17868 176.377029 
L 291.518835 176.243257 
L 293.85899 170.752431 
L 296.199146 170.541617 
L 298.539301 177.307229 
L 300.879456 175.785643 
L 303.219612 173.728215 
L 305.559767 178.967177 
L 307.899922 182.07713 
L 310.240078 182.917029 
L 312.580233 184.825909 
L 314.920388 185.18492 
L 317.260544 182.266637 
L 319.600699 179.935541 
L 321.940854 168.243259 
L 324.28101 157.900531 
L 326.621165 150.977329 
L 328.96132 152.21721 
L 331.301476 158.868991 
L 333.641631 154.594613 
L 335.981786 151.91396 
L 338.321942 148.877479 
L 340.662097 149.569908 
L 343.002252 147.938411 
L 345.342407 147.47845 
L 347.682563 148.858741 
L 350.022718 143.969507 
L 352.362873 146.295291 
L 354.703029 132.719635 
L 357.043184 127.04904 
L 359.383339 120.540807 
L 361.723495 125.873814 
L 364.06365 127.315382 
L 366.403805 132.994074 
L 368.743961 132.514714 
L 371.084116 135.308152 
L 373.424271 124.997522 
L 375.764427 124.547882 
L 378.104582 117.49619 
L 380.444737 110.86125 
L 382.784893 110.016423 
L 385.125048 116.664889 
L 387.465203 122.776154 
L 389.805359 120.618286 
L 392.145514 118.754781 
L 394.485669 125.499642 
L 396.825825 126.56955 
L 399.16598 125.003863 
L 401.506135 127.483862 
L 403.846291 127.607388 
L 406.186446 133.862106 
L 408.526601 132.944262 
L 410.866757 139.695061 
L 413.206912 137.606892 
L 415.547067 141.43709 
L 417.887222 134.66056 
L 420.227378 139.232503 
L 422.567533 140.603495 
L 424.907688 140.459679 
L 427.247844 134.651237 
L 429.587999 135.259761 
L 431.928154 130.545946 
L 434.26831 125.092537 
L 436.608465 129.864077 
L 438.94862 135.8595 
L 441.288776 135.590733 
L 445.969086 141.99173 
L 448.309242 133.89758 
L 450.649397 129.900951 
L 452.989552 133.648692 
L 455.329708 129.876412 
L 457.669863 121.37489 
L 460.010018 119.731142 
L 462.350174 132.272747 
L 464.690329 132.026752 
L 467.030484 139.027337 
L 469.37064 142.597689 
L 471.710795 148.00547 
L 474.05095 137.859035 
L 476.391106 139.333122 
L 478.731261 137.472962 
L 481.071416 140.186781 
L 483.411571 145.845978 
L 485.751727 147.859306 
L 488.091882 145.651275 
L 490.432037 148.056413 
L 492.772193 139.404164 
L 495.112348 136.194163 
L 497.452503 136.067251 
L 499.792659 140.143825 
L 502.132814 137.735314 
L 504.472969 145.267526 
L 506.813125 137.761094 
L 509.15328 140.949522 
L 511.493435 135.33423 
L 513.833591 139.224235 
L 516.173746 139.280193 
L 518.513901 137.230741 
L 520.854057 141.338455 
L 523.194212 142.89956 
L 525.534367 149.812635 
L 527.874523 138.133611 
L 530.214678 130.697213 
L 532.554833 132.467119 
L 534.894989 134.885716 
L 537.235144 139.153394 
L 539.575299 141.612258 
L 541.915455 143.884162 
L 541.915455 143.884162 
" clip-path="url(#p04cd4ba93b)" style="fill: none; stroke: #000000; stroke-width: 2; stroke-linecap: square"/>
   </g>
   <g id="line2d_26">
    <path d="M 76.224545 197.975398 
L 78.564701 204.431259 
L 80.904856 202.218969 
L 83.245011 201.352112 
L 85.585167 200.007975 
L 87.925322 194.092118 
L 90.265477 205.439835 
L 92.605633 210.693316 
L 94.945788 210.507871 
L 97.285943 211.599382 
L 99.626099 205.117345 
L 101.966254 216.414423 
L 104.306409 212.086039 
L 106.646565 210.763809 
L 108.98672 210.6131 
L 111.326875 207.066076 
L 113.667031 207.070181 
L 116.007186 210.789594 
L 118.347341 211.744713 
L 120.687497 213.847748 
L 123.027652 210.030803 
L 125.367807 205.22469 
L 127.707963 207.142108 
L 130.048118 201.224145 
L 132.388273 206.811276 
L 134.728429 206.365175 
L 137.068584 213.969083 
L 139.408739 219.168509 
L 141.748894 221.414554 
L 144.08905 219.008091 
L 146.429205 228.738628 
L 148.76936 227.805161 
L 151.109516 221.029804 
L 153.449671 225.216844 
L 155.789826 226.426265 
L 158.129982 229.349567 
L 160.470137 229.010957 
L 162.810292 220.311143 
L 165.150448 220.578567 
L 167.490603 211.108274 
L 169.830758 210.124365 
L 172.170914 210.468791 
L 174.511069 205.976328 
L 176.851224 210.098939 
L 179.19138 203.085534 
L 181.531535 208.5166 
L 183.87169 212.116103 
L 186.211846 209.581609 
L 188.552001 203.44321 
L 193.232312 196.896557 
L 195.572467 194.126906 
L 197.912622 205.942759 
L 200.252778 202.711502 
L 202.592933 196.27025 
L 204.933088 193.884745 
L 207.273243 192.00736 
L 209.613399 183.806139 
L 211.953554 183.348156 
L 214.293709 183.247757 
L 216.633865 185.669381 
L 218.97402 184.051993 
L 221.314175 189.24699 
L 223.654331 191.72367 
L 225.994486 194.437294 
L 228.334641 195.697566 
L 230.674797 193.535781 
L 233.014952 199.40959 
L 237.695263 198.763002 
L 240.035418 199.414166 
L 242.375573 201.489824 
L 244.715729 195.499672 
L 247.055884 201.785229 
L 249.396039 203.707458 
L 251.736195 205.280966 
L 254.07635 199.973236 
L 256.416505 198.067155 
L 258.756661 208.817861 
L 261.096816 209.176042 
L 263.436971 211.511439 
L 265.777127 213.463523 
L 268.117282 205.223661 
L 270.457437 217.188037 
L 272.797593 211.322228 
L 275.137748 214.025458 
L 277.477903 208.966674 
L 279.818058 204.762041 
L 282.158214 206.828759 
L 284.498369 205.563555 
L 286.838524 212.392321 
L 289.17868 218.451035 
L 291.518835 231.647636 
L 293.85899 236.078182 
L 296.199146 231.828885 
L 298.539301 232.587142 
L 300.879456 226.957521 
L 303.219612 232.723263 
L 305.559767 227.242344 
L 307.899922 223.453494 
L 310.240078 217.616451 
L 312.580233 220.647625 
L 314.920388 220.476193 
L 317.260544 214.098952 
L 319.600699 209.811135 
L 321.940854 210.777282 
L 324.28101 206.377035 
L 326.621165 206.505672 
L 328.96132 201.673472 
L 331.301476 198.052746 
L 333.641631 192.400443 
L 335.981786 197.722406 
L 338.321942 195.257716 
L 340.662097 191.92806 
L 343.002252 189.600448 
L 345.342407 195.758004 
L 347.682563 200.400992 
L 350.022718 195.477368 
L 352.362873 194.752704 
L 354.703029 192.186255 
L 357.043184 201.826649 
L 359.383339 200.546295 
L 361.723495 200.01956 
L 364.06365 189.504487 
L 366.403805 193.449289 
L 368.743961 190.033935 
L 371.084116 192.721798 
L 373.424271 193.26819 
L 375.764427 190.866598 
L 378.104582 196.958814 
L 380.444737 197.882591 
L 382.784893 193.283478 
L 385.125048 195.819173 
L 387.465203 193.495509 
L 389.805359 190.869844 
L 392.145514 194.277977 
L 394.485669 193.361136 
L 396.825825 182.269683 
L 399.16598 184.090153 
L 401.506135 179.26687 
L 403.846291 180.267641 
L 406.186446 180.543308 
L 408.526601 178.577429 
L 410.866757 180.652432 
L 413.206912 177.391384 
L 415.547067 179.748457 
L 417.887222 176.106563 
L 420.227378 182.423691 
L 422.567533 182.988558 
L 424.907688 174.647667 
L 427.247844 174.345739 
L 429.587999 172.472471 
L 431.928154 174.598298 
L 434.26831 174.085363 
L 436.608465 175.08447 
L 438.94862 179.888243 
L 441.288776 183.687263 
L 443.628931 179.165911 
L 445.969086 180.368993 
L 448.309242 185.33576 
L 450.649397 189.794095 
L 452.989552 186.863227 
L 455.329708 188.863471 
L 457.669863 187.030231 
L 460.010018 197.217182 
L 462.350174 194.912242 
L 464.690329 187.611089 
L 467.030484 188.784484 
L 471.710795 185.944319 
L 474.05095 191.308229 
L 476.391106 193.926015 
L 478.731261 197.54945 
L 481.071416 192.155099 
L 483.411571 192.468584 
L 485.751727 193.913257 
L 488.091882 199.604979 
L 490.432037 193.389961 
L 492.772193 189.277535 
L 495.112348 188.378937 
L 497.452503 185.981119 
L 499.792659 187.82346 
L 502.132814 178.321036 
L 504.472969 183.399836 
L 506.813125 182.052131 
L 509.15328 183.455671 
L 511.493435 183.935587 
L 513.833591 178.81426 
L 516.173746 177.970658 
L 518.513901 173.041881 
L 520.854057 179.030271 
L 523.194212 185.693093 
L 525.534367 183.576734 
L 527.874523 183.706642 
L 530.214678 175.056273 
L 532.554833 177.942691 
L 534.894989 183.202807 
L 537.235144 190.148475 
L 539.575299 195.238575 
L 541.915455 201.063507 
L 541.915455 201.063507 
" clip-path="url(#p04cd4ba93b)" style="fill: none; stroke: #bfbf00; stroke-width: 2; stroke-linecap: square"/>
   </g>
   <g id="line2d_27">
    <path d="M 76.224545 188.621192 
L 78.564701 192.902703 
L 80.904856 186.927742 
L 83.245011 189.61878 
L 85.585167 191.112816 
L 87.925322 197.850408 
L 90.265477 198.10191 
L 92.605633 197.650822 
L 94.945788 191.268817 
L 97.285943 192.433879 
L 99.626099 186.1324 
L 101.966254 188.107826 
L 104.306409 185.162423 
L 106.646565 190.647914 
L 111.326875 195.992599 
L 113.667031 189.749013 
L 116.007186 182.830286 
L 118.347341 189.4575 
L 120.687497 185.53442 
L 123.027652 187.657841 
L 125.367807 188.335592 
L 127.707963 186.280565 
L 130.048118 188.723422 
L 132.388273 186.319321 
L 134.728429 189.809399 
L 137.068584 191.659132 
L 139.408739 199.213372 
L 141.748894 203.573006 
L 144.08905 202.333696 
L 146.429205 193.899911 
L 148.76936 187.062445 
L 151.109516 184.745668 
L 153.449671 183.733272 
L 155.789826 185.430762 
L 158.129982 188.781133 
L 160.470137 189.205111 
L 162.810292 188.46754 
L 165.150448 192.418032 
L 167.490603 188.571287 
L 169.830758 194.401732 
L 172.170914 187.453308 
L 174.511069 182.114157 
L 176.851224 178.804309 
L 179.19138 180.727424 
L 181.531535 178.589392 
L 183.87169 178.57374 
L 186.211846 179.790963 
L 188.552001 179.125595 
L 190.892156 178.016776 
L 193.232312 168.566498 
L 195.572467 167.221089 
L 197.912622 172.638022 
L 200.252778 176.225826 
L 202.592933 171.833408 
L 204.933088 176.261433 
L 207.273243 162.691864 
L 209.613399 161.337313 
L 211.953554 163.800078 
L 214.293709 163.135751 
L 218.97402 160.533962 
L 221.314175 153.617337 
L 223.654331 147.887939 
L 225.994486 155.157056 
L 228.334641 152.870872 
L 230.674797 151.871617 
L 233.014952 144.898126 
L 235.355107 147.939736 
L 237.695263 147.125219 
L 240.035418 145.703625 
L 242.375573 144.094921 
L 244.715729 141.751194 
L 247.055884 143.943954 
L 249.396039 139.470897 
L 251.736195 140.072626 
L 254.07635 144.179369 
L 256.416505 148.713249 
L 258.756661 145.690425 
L 261.096816 154.024864 
L 263.436971 150.381182 
L 265.777127 158.654896 
L 268.117282 157.313722 
L 270.457437 156.23565 
L 272.797593 146.488922 
L 275.137748 141.147502 
L 277.477903 144.136827 
L 279.818058 142.218452 
L 282.158214 140.847986 
L 284.498369 138.320469 
L 286.838524 136.8448 
L 289.17868 138.499499 
L 291.518835 138.570159 
L 293.85899 128.963656 
L 298.539301 124.30764 
L 300.879456 119.454826 
L 303.219612 116.9384 
L 305.559767 113.652388 
L 307.899922 110.734349 
L 310.240078 115.937894 
L 312.580233 112.253928 
L 314.920388 105.24917 
L 317.260544 101.059563 
L 319.600699 103.704561 
L 321.940854 97.713777 
L 324.28101 94.434224 
L 326.621165 91.646074 
L 328.96132 94.075284 
L 333.641631 98.055042 
L 335.981786 102.464191 
L 338.321942 107.54798 
L 340.662097 107.330521 
L 343.002252 111.479325 
L 345.342407 101.976693 
L 347.682563 103.690808 
L 350.022718 103.846302 
L 352.362873 101.287103 
L 354.703029 101.770686 
L 357.043184 99.893429 
L 359.383339 96.190475 
L 361.723495 90.274653 
L 364.06365 97.834751 
L 366.403805 109.85696 
L 368.743961 109.990114 
L 371.084116 109.222669 
L 373.424271 107.296876 
L 375.764427 109.559407 
L 378.104582 109.427203 
L 380.444737 107.053236 
L 382.784893 106.069807 
L 385.125048 100.017242 
L 387.465203 97.720635 
L 389.805359 100.025118 
L 392.145514 100.310109 
L 394.485669 104.486031 
L 396.825825 110.108269 
L 399.16598 116.075121 
L 401.506135 114.542863 
L 403.846291 108.055104 
L 406.186446 114.44235 
L 408.526601 119.5894 
L 410.866757 119.087236 
L 413.206912 112.111861 
L 415.547067 104.408901 
L 417.887222 98.643873 
L 420.227378 93.584847 
L 422.567533 85.177704 
L 424.907688 83.60552 
L 427.247844 81.303997 
L 429.587999 85.613234 
L 431.928154 80.731233 
L 434.26831 82.607655 
L 436.608465 80.820445 
L 438.94862 75.2595 
L 441.288776 76.927012 
L 443.628931 79.396767 
L 445.969086 82.043221 
L 448.309242 77.219124 
L 450.649397 71.235202 
L 455.329708 66.961479 
L 457.669863 63.990101 
L 460.010018 59.932842 
L 462.350174 54.933752 
L 464.690329 56.633782 
L 467.030484 59.145882 
L 469.37064 61.487311 
L 471.710795 61.424098 
L 474.05095 57.804508 
L 476.391106 57.556638 
L 478.731261 62.351285 
L 481.071416 54.385034 
L 483.411571 46.977131 
L 485.751727 52.489777 
L 488.091882 49.775246 
L 490.432037 49.506447 
L 492.772193 41.130997 
L 495.112348 39.127831 
L 497.452503 45.991313 
L 499.792659 46.242648 
L 502.132814 43.525419 
L 504.472969 42.089292 
L 506.813125 42.487541 
L 509.15328 43.414481 
L 511.493435 37.832069 
L 513.833591 45.119129 
L 516.173746 41.747572 
L 518.513901 42.628205 
L 520.854057 36.970906 
L 523.194212 40.912932 
L 525.534367 44.124643 
L 527.874523 44.37418 
L 530.214678 38.436262 
L 532.554833 36.841818 
L 534.894989 45.088926 
L 537.235144 46.376312 
L 539.575299 50.528247 
L 541.915455 54.95722 
L 541.915455 54.95722 
" clip-path="url(#p04cd4ba93b)" style="fill: none; stroke: #bf00bf; stroke-width: 2; stroke-linecap: square"/>
   </g>
   <g id="patch_3">
    <path d="M 52.94 246.04 
L 52.94 26.88 
" style="fill: none; stroke: #000000; stroke-width: 0.8; stroke-linejoin: miter; stroke-linecap: square"/>
   </g>
   <g id="patch_4">
    <path d="M 565.2 246.04 
L 565.2 26.88 
" style="fill: none; stroke: #000000; stroke-width: 0.8; stroke-linejoin: miter; stroke-linecap: square"/>
   </g>
   <g id="patch_5">
    <path d="M 52.94 246.04 
L 565.2 246.04 
" style="fill: none; stroke: #000000; stroke-width: 0.8; stroke-linejoin: miter; stroke-linecap: square"/>
   </g>
   <g id="patch_6">
    <path d="M 52.94 26.88 
L 565.2 26.88 
" style="fill: none; stroke: #000000; stroke-width: 0.8; stroke-linejoin: miter; stroke-linecap: square"/>
   </g>
   <g id="text_15">
    <!-- Random trends -->
    <g transform="translate(263.212187 20.88) scale(0.12 -0.12)">
     <defs>
      <path id="DejaVuSans-52" d="M 2841 2188 
Q 3044 2119 3236 1894 
Q 3428 1669 3622 1275 
L 4263 0 
L 3584 0 
L 2988 1197 
Q 2756 1666 2539 1819 
Q 2322 1972 1947 1972 
L 1259 1972 
L 1259 0 
L 628 0 
L 628 4666 
L 2053 4666 
Q 2853 4666 3247 4331 
Q 3641 3997 3641 3322 
Q 3641 2881 3436 2590 
Q 3231 2300 2841 2188 
z
M 1259 4147 
L 1259 2491 
L 2053 2491 
Q 2509 2491 2742 2702 
Q 2975 2913 2975 3322 
Q 2975 3731 2742 3939 
Q 2509 4147 2053 4147 
L 1259 4147 
z
" transform="scale(0.015625)"/>
      <path id="DejaVuSans-6e" d="M 3513 2113 
L 3513 0 
L 2938 0 
L 2938 2094 
Q 2938 2591 2744 2837 
Q 2550 3084 2163 3084 
Q 1697 3084 1428 2787 
Q 1159 2491 1159 1978 
L 1159 0 
L 581 0 
L 581 3500 
L 1159 3500 
L 1159 2956 
Q 1366 3272 1645 3428 
Q 1925 3584 2291 3584 
Q 2894 3584 3203 3211 
Q 3513 2838 3513 2113 
z
" transform="scale(0.015625)"/>
      <path id="DejaVuSans-64" d="M 2906 2969 
L 2906 4863 
L 3481 4863 
L 3481 0 
L 2906 0 
L 2906 525 
Q 2725 213 2448 61 
Q 2172 -91 1784 -91 
Q 1150 -91 751 415 
Q 353 922 353 1747 
Q 353 2572 751 3078 
Q 1150 3584 1784 3584 
Q 2172 3584 2448 3432 
Q 2725 3281 2906 2969 
z
M 947 1747 
Q 947 1113 1208 752 
Q 1469 391 1925 391 
Q 2381 391 2643 752 
Q 2906 1113 2906 1747 
Q 2906 2381 2643 2742 
Q 2381 3103 1925 3103 
Q 1469 3103 1208 2742 
Q 947 2381 947 1747 
z
" transform="scale(0.015625)"/>
      <path id="DejaVuSans-6f" d="M 1959 3097 
Q 1497 3097 1228 2736 
Q 959 2375 959 1747 
Q 959 1119 1226 758 
Q 1494 397 1959 397 
Q 2419 397 2687 759 
Q 2956 1122 2956 1747 
Q 2956 2369 2687 2733 
Q 2419 3097 1959 3097 
z
M 1959 3584 
Q 2709 3584 3137 3096 
Q 3566 2609 3566 1747 
Q 3566 888 3137 398 
Q 2709 -91 1959 -91 
Q 1206 -91 779 398 
Q 353 888 353 1747 
Q 353 2609 779 3096 
Q 1206 3584 1959 3584 
z
" transform="scale(0.015625)"/>
      <path id="DejaVuSans-72" d="M 2631 2963 
Q 2534 3019 2420 3045 
Q 2306 3072 2169 3072 
Q 1681 3072 1420 2755 
Q 1159 2438 1159 1844 
L 1159 0 
L 581 0 
L 581 3500 
L 1159 3500 
L 1159 2956 
Q 1341 3275 1631 3429 
Q 1922 3584 2338 3584 
Q 2397 3584 2469 3576 
Q 2541 3569 2628 3553 
L 2631 2963 
z
" transform="scale(0.015625)"/>
     </defs>
     <use xlink:href="#DejaVuSans-52"/>
     <use xlink:href="#DejaVuSans-61" x="67.232422"/>
     <use xlink:href="#DejaVuSans-6e" x="128.511719"/>
     <use xlink:href="#DejaVuSans-64" x="191.890625"/>
     <use xlink:href="#DejaVuSans-6f" x="255.367188"/>
     <use xlink:href="#DejaVuSans-6d" x="316.548828"/>
     <use xlink:href="#DejaVuSans-20" x="413.960938"/>
     <use xlink:href="#DejaVuSans-74" x="445.748047"/>
     <use xlink:href="#DejaVuSans-72" x="484.957031"/>
     <use xlink:href="#DejaVuSans-65" x="523.820312"/>
     <use xlink:href="#DejaVuSans-6e" x="585.34375"/>
     <use xlink:href="#DejaVuSans-64" x="648.722656"/>
     <use xlink:href="#DejaVuSans-73" x="712.199219"/>
    </g>
   </g>
   <g id="legend_1">
    <g id="patch_7">
     <path d="M 58.771 70.357394 
L 100.471761 70.357394 
Q 102.137761 70.357394 102.137761 68.691394 
L 102.137761 32.711 
Q 102.137761 31.045 100.471761 31.045 
L 58.771 31.045 
Q 57.105 31.045 57.105 32.711 
L 57.105 68.691394 
Q 57.105 70.357394 58.771 70.357394 
z
" style="fill: #ffffff; opacity: 0.25; stroke: #cccccc; stroke-linejoin: miter"/>
    </g>
    <g id="line2d_28">
     <path d="M 60.437 37.835252 
L 68.767 37.835252 
L 77.097 37.835252 
" style="fill: none; stroke: #000000; stroke-width: 2; stroke-linecap: square"/>
    </g>
    <g id="text_16">
     <!-- foo -->
     <g transform="translate(83.761 40.750752) scale(0.0833 -0.0833)">
      <defs>
       <path id="DejaVuSansMono-66" d="M 3322 4863 
L 3322 4384 
L 2669 4384 
Q 2359 4384 2239 4257 
Q 2119 4131 2119 3809 
L 2119 3500 
L 3322 3500 
L 3322 3053 
L 2119 3053 
L 2119 0 
L 1544 0 
L 1544 3053 
L 609 3053 
L 609 3500 
L 1544 3500 
L 1544 3744 
Q 1544 4319 1808 4591 
Q 2072 4863 2631 4863 
L 3322 4863 
z
" transform="scale(0.015625)"/>
       <path id="DejaVuSansMono-6f" d="M 1925 3097 
Q 1488 3097 1263 2756 
Q 1038 2416 1038 1747 
Q 1038 1081 1263 739 
Q 1488 397 1925 397 
Q 2366 397 2591 739 
Q 2816 1081 2816 1747 
Q 2816 2416 2591 2756 
Q 2366 3097 1925 3097 
z
M 1925 3584 
Q 2653 3584 3039 3112 
Q 3425 2641 3425 1747 
Q 3425 850 3040 379 
Q 2656 -91 1925 -91 
Q 1197 -91 812 379 
Q 428 850 428 1747 
Q 428 2641 812 3112 
Q 1197 3584 1925 3584 
z
" transform="scale(0.015625)"/>
      </defs>
      <use xlink:href="#DejaVuSansMono-66"/>
      <use xlink:href="#DejaVuSansMono-6f" x="60.205078"/>
      <use xlink:href="#DejaVuSansMono-6f" x="120.410156"/>
     </g>
    </g>
    <g id="line2d_29">
     <path d="M 60.437 50.106383 
L 68.767 50.106383 
L 77.097 50.106383 
" style="fill: none; stroke: #bfbf00; stroke-width: 2; stroke-linecap: square"/>
    </g>
    <g id="text_17">
     <!-- bar -->
     <g transform="translate(83.761 53.021883) scale(0.0833 -0.0833)">
      <defs>
       <path id="DejaVuSansMono-62" d="M 2869 1747 
Q 2869 2416 2656 2756 
Q 2444 3097 2028 3097 
Q 1609 3097 1393 2755 
Q 1178 2413 1178 1747 
Q 1178 1084 1393 740 
Q 1609 397 2028 397 
Q 2444 397 2656 737 
Q 2869 1078 2869 1747 
z
M 1178 3053 
Q 1316 3309 1558 3446 
Q 1800 3584 2119 3584 
Q 2750 3584 3112 3098 
Q 3475 2613 3475 1759 
Q 3475 894 3111 401 
Q 2747 -91 2113 -91 
Q 1800 -91 1561 45 
Q 1322 181 1178 441 
L 1178 0 
L 603 0 
L 603 4863 
L 1178 4863 
L 1178 3053 
z
" transform="scale(0.015625)"/>
       <path id="DejaVuSansMono-61" d="M 2194 1759 
L 2003 1759 
Q 1500 1759 1245 1582 
Q 991 1406 991 1056 
Q 991 741 1181 566 
Q 1372 391 1709 391 
Q 2184 391 2456 720 
Q 2728 1050 2731 1631 
L 2731 1759 
L 2194 1759 
z
M 3309 1997 
L 3309 0 
L 2731 0 
L 2731 519 
Q 2547 206 2267 57 
Q 1988 -91 1588 -91 
Q 1053 -91 734 211 
Q 416 513 416 1019 
Q 416 1603 808 1906 
Q 1200 2209 1959 2209 
L 2731 2209 
L 2731 2300 
Q 2728 2719 2518 2908 
Q 2309 3097 1850 3097 
Q 1556 3097 1256 3012 
Q 956 2928 672 2766 
L 672 3341 
Q 991 3463 1283 3523 
Q 1575 3584 1850 3584 
Q 2284 3584 2592 3456 
Q 2900 3328 3091 3072 
Q 3209 2916 3259 2686 
Q 3309 2456 3309 1997 
z
" transform="scale(0.015625)"/>
       <path id="DejaVuSansMono-72" d="M 3609 2778 
Q 3425 2922 3234 2987 
Q 3044 3053 2816 3053 
Q 2278 3053 1993 2715 
Q 1709 2378 1709 1741 
L 1709 0 
L 1131 0 
L 1131 3500 
L 1709 3500 
L 1709 2816 
Q 1853 3188 2151 3386 
Q 2450 3584 2859 3584 
Q 3072 3584 3256 3531 
Q 3441 3478 3609 3366 
L 3609 2778 
z
" transform="scale(0.015625)"/>
      </defs>
      <use xlink:href="#DejaVuSansMono-62"/>
      <use xlink:href="#DejaVuSansMono-61" x="60.205078"/>
      <use xlink:href="#DejaVuSansMono-72" x="120.410156"/>
     </g>
    </g>
    <g id="line2d_30">
     <path d="M 60.437 62.377514 
L 68.767 62.377514 
L 77.097 62.377514 
" style="fill: none; stroke: #bf00bf; stroke-width: 2; stroke-linecap: square"/>
    </g>
    <g id="text_18">
     <!-- baz -->
     <g transform="translate(83.761 65.293014) scale(0.0833 -0.0833)">
      <defs>
       <path id="DejaVuSansMono-7a" d="M 709 3506 
L 3250 3506 
L 3250 2981 
L 1241 469 
L 3250 469 
L 3250 0 
L 634 0 
L 634 531 
L 2644 3047 
L 709 3047 
L 709 3506 
z
" transform="scale(0.015625)"/>
      </defs>
      <use xlink:href="#DejaVuSansMono-62"/>
      <use xlink:href="#DejaVuSansMono-61" x="60.205078"/>
      <use xlink:href="#DejaVuSansMono-7a" x="120.410156"/>
     </g>
    </g>
   </g>
  </g>
  <g id="text_19">
   <!-- SOME TEXT -->
   <g transform="translate(515.565313 283.040313) scale(0.1 -0.1)">
    <defs>
     <path id="DejaVuSans-53" d="M 3425 4513 
L 3425 3897 
Q 3066 4069 2747 4153 
Q 2428 4238 2131 4238 
Q 1616 4238 1336 4038 
Q 1056 3838 1056 3469 
Q 1056 3159 1242 3001 
Q 1428 2844 1947 2747 
L 2328 2669 
Q 3034 2534 3370 2195 
Q 3706 1856 3706 1288 
Q 3706 609 3251 259 
Q 2797 -91 1919 -91 
Q 1588 -91 1214 -16 
Q 841 59 441 206 
L 441 856 
Q 825 641 1194 531 
Q 1563 422 1919 422 
Q 2459 422 2753 634 
Q 3047 847 3047 1241 
Q 3047 1584 2836 1778 
Q 2625 1972 2144 2069 
L 1759 2144 
Q 1053 2284 737 2584 
Q 422 2884 422 3419 
Q 422 4038 858 4394 
Q 1294 4750 2059 4750 
Q 2388 4750 2728 4690 
Q 3069 4631 3425 4513 
z
" transform="scale(0.015625)"/>
     <path id="DejaVuSans-4f" d="M 2522 4238 
Q 1834 4238 1429 3725 
Q 1025 3213 1025 2328 
Q 1025 1447 1429 934 
Q 1834 422 2522 422 
Q 3209 422 3611 934 
Q 4013 1447 4013 2328 
Q 4013 3213 3611 3725 
Q 3209 4238 2522 4238 
z
M 2522 4750 
Q 3503 4750 4090 4092 
Q 4678 3434 4678 2328 
Q 4678 1225 4090 567 
Q 3503 -91 2522 -91 
Q 1538 -91 948 565 
Q 359 1222 359 2328 
Q 359 3434 948 4092 
Q 1538 4750 2522 4750 
z
" transform="scale(0.015625)"/>
     <path id="DejaVuSans-4d" d="M 628 4666 
L 1569 4666 
L 2759 1491 
L 3956 4666 
L 4897 4666 
L 4897 0 
L 4281 0 
L 4281 4097 
L 3078 897 
L 2444 897 
L 1241 4097 
L 1241 0 
L 628 0 
L 628 4666 
z
" transform="scale(0.015625)"/>
     <path id="DejaVuSans-45" d="M 628 4666 
L 3578 4666 
L 3578 4134 
L 1259 4134 
L 1259 2753 
L 3481 2753 
L 3481 2222 
L 1259 2222 
L 1259 531 
L 3634 531 
L 3634 0 
L 628 0 
L 628 4666 
z
" transform="scale(0.015625)"/>
     <path id="DejaVuSans-54" d="M -19 4666 
L 3928 4666 
L 3928 4134 
L 2272 4134 
L 2272 0 
L 1638 0 
L 1638 4134 
L -19 4134 
L -19 4666 
z
" transform="scale(0.015625)"/>
     <path id="DejaVuSans-58" d="M 403 4666 
L 1081 4666 
L 2241 2931 
L 3406 4666 
L 4084 4666 
L 2584 2425 
L 4184 0 
L 3506 0 
L 2194 1984 
L 872 0 
L 191 0 
L 1856 2491 
L 403 4666 
z
" transform="scale(0.015625)"/>
    </defs>
    <use xlink:href="#DejaVuSans-53"/>
    <use xlink:href="#DejaVuSans-4f" x="63.476562"/>
    <use xlink:href="#DejaVuSans-4d" x="142.1875"/>
    <use xlink:href="#DejaVuSans-45" x="228.466797"/>
    <use xlink:href="#DejaVuSans-20" x="291.650391"/>
    <use xlink:href="#DejaVuSans-54" x="323.4375"/>
    <use xlink:href="#DejaVuSans-45" x="384.521484"/>
    <use xlink:href="#DejaVuSans-58" x="447.705078"/>
    <use xlink:href="#DejaVuSans-54" x="514.460938"/>
   </g>
  </g>
 </g>
 <defs>
  <clipPath id="p04cd4ba93b">
   <rect x="52.94" y="26.88" width="512.26" height="219.16"/>
  </clipPath>
 </defs>
</svg>
